# This file uses meters as units for non-parametric coordinates.

v 41.336670 0.000000 -17.122183
v 31.637724 0.000000 -31.637688
v 17.122227 0.000000 -41.336647
v 0.000023 0.000000 -44.742477
v -17.122185 0.000000 -41.336670
v -31.637695 0.000000 -31.637722
v -41.336651 0.000000 -17.122223
v -44.742477 0.000000 -0.000017
v -41.336662 0.000000 17.122190
v -31.637716 0.000000 31.637703
v -17.122211 0.000000 41.336651
v -0.000007 0.000000 44.742477
v 17.122200 0.000000 41.336658
v 31.637707 0.000000 31.637711
v 41.336658 0.000000 17.122206
v 44.742477 0.000000 -0.000001
v 0.000000 0.000000 -0.000001
vt 0.938044 0.318842
vt 0.835280 0.165044
vt 0.681483 0.062280
vt 0.500066 0.026194
vt 0.318649 0.062280
vt 0.164852 0.165044
vt 0.062087 0.318841
vt 0.026001 0.500258
vt 0.062087 0.681675
vt 0.164852 0.835473
vt 0.318649 0.938236
vt 0.500066 0.974323
vt 0.681482 0.938236
vt 0.835280 0.835473
vt 0.938044 0.681675
vt 0.974130 0.500258
vt 0.500066 0.499652
vn 0.000000 1.000000 0.000000
vn 0.000000 1.000000 0.000000
vn 0.000000 1.000000 0.000000
vn 0.000000 1.000000 0.000000
vn 0.000000 1.000000 0.000000
vn 0.000000 1.000000 0.000000
vn 0.000000 1.000000 0.000000
vn 0.000000 1.000000 0.000000
vn 0.000000 1.000000 0.000000
vn 0.000000 1.000000 0.000000
vn 0.000000 1.000000 0.000000
vn 0.000000 1.000000 0.000000
vn 0.000000 1.000000 0.000000
vn 0.000000 1.000000 0.000000
vn 0.000000 1.000000 0.000000
vn 0.000000 1.000000 0.000000
vn 0.000000 1.000000 0.000000
s 1
f 1/15/1 2/14/2 17/17/3
f 2/14/2 3/13/4 17/17/3
f 3/13/4 4/12/5 17/17/3
f 4/12/5 5/11/6 17/17/3
f 5/11/6 6/10/7 17/17/3
f 6/10/7 7/9/8 17/17/3
f 7/9/8 8/8/9 17/17/3
f 8/8/9 9/7/10 17/17/3
f 9/7/10 10/6/11 17/17/3
f 10/6/11 11/5/12 17/17/3
f 11/5/12 12/4/13 17/17/3
f 12/4/13 13/3/14 17/17/3
f 13/3/14 14/2/15 17/17/3
f 14/2/15 15/1/16 17/17/3
f 15/1/16 16/16/17 17/17/3
f 16/16/17 1/15/1 17/17/3
