# This file uses meters as units for non-parametric coordinates.

v 500.000000 0.000000 -500.000000
v 0.000000 0.000000 -500.000000
v 500.000000 300.000000 -500.000000
v 0.000000 300.000000 -500.000000
v 500.000000 300.000000 0.000000
v 0.000000 300.000000 0.000000
v 500.000000 0.000000 0.000000
v 0.000000 0.000000 0.000000
v 500.000000 41.130947 0.000000
v 0.000000 41.130947 0.000000
v 500.000000 260.616455 0.000000
v 0.000000 260.616455 0.000000
v 500.000000 241.493057 0.000000
v 0.000000 241.493057 0.000000
v 0.000000 31.794559 19.004248
v 500.000000 31.794559 19.004248
v 0.000000 0.000000 19.004248
v 500.000000 0.000000 19.004248
v 0.000000 256.471100 9.706879
v 500.000000 256.471100 9.706879
v 0.000000 241.493057 9.706879
v 500.000000 241.493057 9.706879
v 512.359436 0.000000 -0.000191
v 487.640656 0.000000 -0.000191
v 512.359436 300.000000 -0.000191
v 487.640656 300.000000 -0.000191
v 512.359436 300.000000 23.814774
v 487.640656 300.000000 23.814774
v 512.359436 0.000000 53.065491
v 487.640656 0.000000 53.065491
v 509.654877 300.000000 33.096695
v 490.345215 300.000000 33.096695
v 490.345215 0.000000 62.347214
v 509.654877 0.000000 62.347214
v 412.359436 0.000000 -0.000191
v 387.640656 0.000000 -0.000191
v 412.359436 300.000000 -0.000191
v 387.640656 300.000000 -0.000191
v 412.359436 300.000000 23.814774
v 387.640656 300.000000 23.814774
v 412.359436 0.000000 53.065491
v 387.640656 0.000000 53.065491
v 409.654877 300.000000 33.096695
v 390.345215 300.000000 33.096695
v 390.345215 0.000000 62.347214
v 409.654877 0.000000 62.347214
v 312.359436 0.000000 -0.000191
v 287.640656 0.000000 -0.000191
v 312.359436 300.000000 -0.000191
v 287.640656 300.000000 -0.000191
v 312.359436 300.000000 23.814774
v 287.640656 300.000000 23.814774
v 312.359436 0.000000 53.065491
v 287.640656 0.000000 53.065491
v 309.654877 300.000000 33.096695
v 290.345215 300.000000 33.096695
v 290.345215 0.000000 62.347214
v 309.654877 0.000000 62.347214
v 212.359436 0.000000 -0.000191
v 187.640564 0.000000 -0.000191
v 212.359436 300.000000 -0.000191
v 187.640564 300.000000 -0.000191
v 212.359436 300.000000 23.814774
v 187.640564 300.000000 23.814774
v 212.359436 0.000000 53.065491
v 187.640564 0.000000 53.065491
v 209.654907 300.000000 33.096695
v 190.345184 300.000000 33.096695
v 190.345184 0.000000 62.347214
v 209.654907 0.000000 62.347214
v 112.359421 0.000000 -0.000191
v 87.640579 0.000000 -0.000191
v 112.359421 300.000000 -0.000191
v 87.640579 300.000000 -0.000191
v 112.359421 300.000000 23.814774
v 87.640579 300.000000 23.814774
v 112.359421 0.000000 53.065491
v 87.640579 0.000000 53.065491
v 109.654808 300.000000 33.096695
v 90.345192 300.000000 33.096695
v 90.345192 0.000000 62.347214
v 109.654808 0.000000 62.347214
v 320.019073 31.794559 19.004248
v 377.680969 31.794559 19.004248
v 358.375092 36.397480 9.634972
v 350.786011 22.443302 19.004248
v 87.640579 91.496964 -0.000191
v 87.640579 91.496964 44.144249
v 92.859650 91.496964 53.426170
v 105.219460 88.839706 53.426170
v 112.359421 91.496964 44.144249
v 112.359421 91.496964 -0.000191
v 287.640747 67.755981 -0.000191
v 287.640747 67.755981 46.459198
v 290.345215 67.755981 55.740929
v 309.654968 67.755981 55.740929
v 312.359436 67.755981 46.459198
v 312.359436 67.755981 -0.000191
v 287.640747 118.405693 -0.000191
v 287.640747 118.405693 30.727575
v 290.345215 118.405693 47.775841
v 306.523224 118.405693 47.775841
v 312.359436 118.405693 38.494110
v 312.359436 118.405693 -0.000191
v 494.381714 85.074730 54.052357
v 509.654877 85.074730 54.052357
v 512.359436 85.074730 44.770615
v 512.359436 85.074730 -0.000191
v 487.640656 85.074730 -0.000191
v 487.640656 85.074730 44.770615
vt 0.255362 0.304666
vt 0.255362 0.304666
vt 0.255362 0.304666
vt 0.255362 0.304666
vt 0.257302 0.277497
vt 0.257302 0.277497
vt 0.255362 0.304666
vt 0.255362 0.304666
vt 0.255362 0.304666
vt 0.255362 0.304666
vt 0.255362 0.304666
vt 0.255362 0.304666
vt 0.255362 0.304666
vt 0.257302 0.277497
vt 0.255362 0.304666
vt 0.257302 0.277497
vt 0.255362 0.304666
vt 0.255362 0.304666
vt 0.257302 0.277497
vt 0.255362 0.304666
vt 0.257302 0.277497
vt 0.255362 0.304666
vt 0.255362 0.304666
vt 0.257302 0.277497
vt 0.255362 0.304666
vt 0.255362 0.304666
vt 0.257302 0.277497
vt 0.255362 0.304666
vt 0.257302 0.277497
vt 0.257302 0.277497
vt 0.257302 0.277497
vt 0.257302 0.277497
vt 0.257302 0.277497
vt 0.257302 0.277497
vt 0.257302 0.277497
vt 0.257302 0.277497
vt 0.255362 0.304666
vt 0.255362 0.304666
vt 0.255362 0.304666
vt 0.255362 0.304666
vt 0.255362 0.304666
vt 0.255362 0.304666
vt 0.255362 0.304666
vt 0.255362 0.304666
vt 0.255362 0.304666
vt 0.255362 0.304666
vt 0.255362 0.304666
vt 0.255362 0.304666
vt 0.255362 0.304666
vt 0.255362 0.304666
vt 0.255362 0.304666
vt 0.255362 0.304666
vt 0.255362 0.304666
vt 0.255362 0.304666
vt 0.255362 0.304666
vt 0.255362 0.304666
vt 0.255362 0.304666
vt 0.255362 0.304666
vt 0.255362 0.304666
vt 0.255362 0.304666
vt 0.255362 0.304666
vt 0.255362 0.304666
vt 0.257302 0.277497
vt 0.257302 0.277497
vt 0.257302 0.277497
vt 0.257302 0.277497
vt 0.257302 0.277497
vt 0.257302 0.277497
vt 0.257302 0.277497
vt 0.257302 0.277497
vt 0.257302 0.277497
vt 0.257302 0.277497
vt 0.257302 0.277497
vt 0.257302 0.277497
vt 0.257302 0.277497
vt 0.257302 0.277497
vt 0.257302 0.277497
vt 0.257302 0.277497
vt 0.257302 0.277497
vt 0.257302 0.277497
vt 0.257302 0.277497
vt 0.257302 0.277497
vt 0.257302 0.277497
vt 0.257302 0.277497
vt 0.257302 0.277497
vt 0.257302 0.277497
vt 0.257302 0.277497
vt 0.257302 0.277497
vt 0.257302 0.277497
vt 0.257302 0.277497
vt 0.257302 0.277497
vt 0.257302 0.277497
vt 0.257302 0.277497
vt 0.257302 0.277497
vt 0.257302 0.277497
vt 0.257302 0.277497
vt 0.257302 0.277497
vt 0.257302 0.277497
vt 0.257302 0.277497
vt 0.257302 0.277497
vt 0.257302 0.277497
vt 0.257302 0.277497
vt 0.257302 0.277497
vt 0.257302 0.277497
vt 0.257302 0.277497
vt 0.257302 0.277497
vt 0.257302 0.277497
vt 0.257302 0.277497
vt 0.257302 0.277497
vt 0.257302 0.277497
vt 0.257302 0.277497
vt 0.257302 0.277497
vt 0.257302 0.277497
vt 0.257302 0.277497
vt 0.257302 0.277497
vt 0.257302 0.277497
vt 0.257302 0.277497
vt 0.257302 0.277497
vt 0.257302 0.277497
vt 0.257302 0.277497
vt 0.257302 0.277497
vt 0.257302 0.277497
vt 0.257302 0.277497
vt 0.257302 0.277497
vt 0.257302 0.277497
vt 0.257302 0.277497
vt 0.257302 0.277497
vt 0.257302 0.277497
vt 0.257302 0.277497
vt 0.257302 0.277497
vt 0.257302 0.277497
vt 0.257302 0.277497
vt 0.257302 0.277497
vt 0.257302 0.277497
vt 0.257302 0.277497
vt 0.257302 0.277497
vt 0.257302 0.277497
vt 0.257302 0.277497
vt 0.257302 0.277497
vt 0.257302 0.277497
vt 0.257302 0.277497
vt 0.257302 0.277497
vt 0.257302 0.277497
vt 0.257302 0.277497
vt 0.257302 0.277497
vt 0.257302 0.277497
vt 0.257302 0.277497
vt 0.257302 0.277497
vt 0.257302 0.277497
vt 0.257302 0.277497
vt 0.257302 0.277497
vt 0.257302 0.277497
vt 0.257302 0.277497
vt 0.257302 0.277497
vt 0.257302 0.277497
vt 0.257302 0.277497
vt 0.257302 0.277497
vt 0.257302 0.277497
vt 0.257302 0.277497
vt 0.257302 0.277497
vt 0.257302 0.277497
vt 0.257302 0.277497
vt 0.257302 0.277497
vt 0.257302 0.277497
vt 0.257302 0.277497
vt 0.257302 0.277497
vt 0.257302 0.277497
vt 0.257302 0.277497
vt 0.257302 0.277497
vt 0.257302 0.277497
vt 0.257302 0.277497
vt 0.257302 0.277497
vt 0.257302 0.277497
vt 0.257302 0.277497
vt 0.257302 0.277497
vt 0.257302 0.277497
vt 0.257302 0.277497
vt 0.257302 0.277497
vt 0.257302 0.277497
vt 0.257302 0.277497
vt 0.257302 0.277497
vt 0.257302 0.277497
vt 0.257302 0.277497
vt 0.257302 0.277497
vt 0.257302 0.277497
vt 0.257302 0.277497
vt 0.257302 0.277497
vt 0.257302 0.277497
vt 0.257302 0.277497
vn 0.000000 1.000000 0.000000
vn 0.000000 1.000000 0.000000
vn 0.000000 1.000000 0.000000
vn 0.000000 1.000000 0.000000
vn 0.000000 0.000000 1.000000
vn 0.000000 0.000000 1.000000
vn 0.000000 0.000000 1.000000
vn 0.000000 0.000000 1.000000
vn 0.000000 -1.000000 0.000000
vn 0.000000 -1.000000 0.000000
vn 0.000000 -1.000000 0.000000
vn 0.000000 -1.000000 0.000000
vn -1.000000 0.000000 0.000000
vn -1.000000 0.000000 0.000000
vn -1.000000 0.000000 0.000000
vn 1.000000 0.000000 0.000000
vn 1.000000 0.000000 0.000000
vn 1.000000 0.000000 0.000000
vn 1.000000 0.000000 0.000000
vn 1.000000 0.000000 0.000000
vn 1.000000 0.000000 0.000000
vn -1.000000 0.000000 0.000000
vn -1.000000 0.000000 0.000000
vn -1.000000 0.000000 0.000000
vn 0.000000 0.000000 1.000000
vn 0.000000 0.000000 1.000000
vn 0.000000 0.000000 1.000000
vn 0.000000 0.000000 1.000000
vn 0.000000 0.000000 1.000000
vn 0.000000 0.000000 1.000000
vn 0.000000 0.000000 1.000000
vn 0.000000 0.000000 1.000000
vn 0.000000 0.000000 1.000000
vn 0.000000 0.000000 1.000000
vn 0.000000 0.000000 1.000000
vn 0.000000 0.000000 1.000000
vn 0.000000 0.000000 1.000000
vn 0.000000 0.000000 1.000000
vn 0.000000 0.000000 1.000000
vn 1.000000 0.000000 0.000000
vn 1.000000 0.000000 0.000000
vn 1.000000 0.000000 0.000000
vn -1.000000 0.000000 0.000000
vn -1.000000 0.000000 0.000000
vn -1.000000 0.000000 0.000000
vn 0.000000 0.000000 1.000000
vn 0.000000 0.000000 1.000000
vn 0.000000 0.000000 1.000000
vn 0.000000 0.000000 1.000000
vn 1.000000 0.000000 0.000000
vn 1.000000 0.000000 0.000000
vn 1.000000 0.000000 0.000000
vn 1.000000 0.000000 0.000000
vn 0.000000 0.000000 -1.000000
vn 0.000000 0.000000 -1.000000
vn 0.000000 0.000000 -1.000000
vn 0.000000 0.000000 -1.000000
vn -1.000000 0.000000 0.000000
vn -1.000000 0.000000 0.000000
vn -1.000000 0.000000 0.000000
vn -1.000000 0.000000 0.000000
vn 0.000000 0.000000 1.000000
vn 0.000000 0.000000 1.000000
vn 0.000000 0.000000 1.000000
vn 0.000000 0.000000 1.000000
vn 0.000000 0.897536 0.440941
vn 0.000000 0.897536 0.440941
vn 0.000000 0.897536 0.440940
vn 0.000000 0.897536 0.440941
vn 0.000000 0.897536 0.440941
vn 0.000000 0.897536 0.440941
vn -0.000000 0.897537 0.440940
vn -0.000000 0.897537 0.440940
vn -0.000000 0.897537 0.440940
vn 0.000000 0.897535 0.440943
vn 0.000000 0.897535 0.440943
vn 0.000000 0.897535 0.440943
vn 0.000000 0.897536 0.440940
vn 0.000000 0.897537 0.440940
vn 0.000000 0.897536 0.440940
vn -1.000000 0.000000 0.000000
vn -1.000000 0.000000 0.000000
vn -1.000000 0.000000 0.000000
vn -1.000000 0.000000 0.000000
vn 0.000000 -1.000000 0.000000
vn 0.000000 -1.000000 0.000000
vn 0.000000 -1.000000 0.000000
vn 0.000000 -1.000000 0.000000
vn 1.000000 0.000000 0.000000
vn 1.000000 0.000000 0.000000
vn 1.000000 0.000000 0.000000
vn 1.000000 0.000000 0.000000
vn 0.000000 0.919650 0.392740
vn 0.000000 0.919650 0.392740
vn 0.000000 0.919650 0.392740
vn 0.000000 0.919650 0.392740
vn -1.000000 0.000000 0.000000
vn -1.000000 0.000000 0.000000
vn -1.000000 0.000000 0.000000
vn -1.000000 0.000000 0.000000
vn 0.000000 -1.000000 0.000000
vn 0.000000 -1.000000 0.000000
vn 0.000000 -1.000000 0.000000
vn 0.000000 -1.000000 0.000000
vn 1.000000 0.000000 0.000000
vn 1.000000 0.000000 0.000000
vn 1.000000 0.000000 0.000000
vn 1.000000 0.000000 0.000000
vn 0.000000 1.000000 0.000000
vn 0.000000 1.000000 0.000000
vn 0.000000 1.000000 0.000000
vn 0.000000 1.000000 0.000000
vn 0.000000 0.097042 0.995280
vn 0.000000 0.097042 0.995280
vn 0.000000 0.097042 0.995280
vn 0.000000 0.097042 0.995280
vn 0.000000 -1.000000 0.000000
vn 0.000000 -1.000000 0.000000
vn 0.000000 -1.000000 0.000000
vn 0.000000 -1.000000 0.000000
vn -1.000000 0.000000 0.000000
vn -1.000000 0.000000 0.000000
vn -1.000000 0.000000 0.000000
vn -1.000000 0.000000 0.000000
vn 1.000000 0.000000 0.000000
vn 1.000000 0.000000 0.000000
vn 1.000000 0.000000 0.000000
vn 1.000000 0.000000 0.000000
vn 0.000000 1.000000 0.000002
vn 0.000000 1.000000 0.000002
vn 0.000000 1.000000 0.000002
vn 0.000000 1.000000 0.000002
vn -0.890688 0.035824 0.453202
vn -0.890688 0.035824 0.453202
vn -0.890688 0.035824 0.453202
vn -0.890688 0.035824 0.453202
vn 0.000000 -1.000000 0.000000
vn 0.000000 -1.000000 0.000000
vn 0.000000 -1.000000 0.000000
vn 0.000000 -1.000000 0.000000
vn 0.959716 0.027266 0.279644
vn 0.959716 0.027266 0.279644
vn 0.959716 0.027266 0.279644
vn 0.959717 0.027266 0.279644
vn 0.000000 0.000000 -1.000000
vn 0.000000 0.000000 -1.000000
vn 0.000000 0.000000 -1.000000
vn 0.000000 0.000000 -1.000000
vn 0.000000 1.000000 0.000000
vn 0.000000 1.000000 0.000000
vn 0.000000 1.000000 0.000000
vn 0.000000 1.000000 0.000000
vn 0.000000 0.097042 0.995280
vn 0.000000 0.097042 0.995280
vn 0.000000 0.097042 0.995280
vn 0.000000 0.097042 0.995280
vn 0.000000 -1.000000 0.000000
vn 0.000000 -1.000000 0.000000
vn 0.000000 -1.000000 0.000000
vn 0.000000 -1.000000 0.000000
vn -1.000000 0.000000 0.000000
vn -1.000000 0.000000 0.000000
vn -1.000000 0.000000 0.000000
vn -1.000000 0.000000 0.000000
vn 1.000000 0.000000 0.000000
vn 1.000000 0.000000 0.000000
vn 1.000000 0.000000 0.000000
vn 1.000000 0.000000 0.000000
vn 0.000000 1.000000 0.000002
vn 0.000000 1.000000 0.000002
vn 0.000000 1.000000 0.000002
vn 0.000000 1.000000 0.000002
vn -0.959716 0.027266 0.279644
vn -0.959716 0.027266 0.279644
vn -0.959716 0.027266 0.279645
vn -0.959716 0.027266 0.279644
vn 0.000000 -1.000000 0.000000
vn 0.000000 -1.000000 0.000000
vn 0.000000 -1.000000 0.000000
vn 0.000000 -1.000000 0.000000
vn 0.959716 0.027266 0.279644
vn 0.959716 0.027266 0.279644
vn 0.959716 0.027266 0.279644
vn 0.959716 0.027266 0.279645
vn 0.000000 1.000000 0.000000
vn 0.000000 1.000000 0.000000
vn 0.000000 1.000000 0.000000
vn 0.000000 1.000000 0.000000
vn 0.000000 0.080572 0.996749
vn 0.000000 0.080572 0.996749
vn 0.000000 0.080572 0.996749
vn 0.000000 0.080572 0.996749
vn 0.000000 -1.000000 0.000000
vn 0.000000 -1.000000 0.000000
vn 0.000000 -1.000000 0.000000
vn 0.000000 -1.000000 0.000000
vn -1.000000 -0.000000 0.000000
vn -1.000000 -0.000000 0.000000
vn -1.000000 -0.000000 0.000000
vn -1.000000 -0.000000 0.000000
vn 1.000000 -0.000000 0.000000
vn 1.000000 -0.000000 0.000000
vn 1.000000 -0.000000 0.000000
vn 1.000000 -0.000000 0.000000
vn 0.000000 1.000000 0.000002
vn 0.000000 1.000000 0.000002
vn 0.000000 1.000000 0.000002
vn 0.000000 1.000000 0.000002
vn -0.979474 0.011962 0.201214
vn -0.979474 0.011962 0.201214
vn -0.979474 0.011962 0.201214
vn -0.979474 0.011962 0.201214
vn 0.000000 -1.000000 0.000000
vn 0.000000 -1.000000 0.000000
vn 0.000000 -1.000000 0.000000
vn 0.000000 -1.000000 0.000000
vn 0.908157 0.025945 0.417825
vn 0.908157 0.025945 0.417825
vn 0.908157 0.025945 0.417825
vn 0.908157 0.025945 0.417825
vn 0.000000 1.000000 0.000000
vn 0.000000 1.000000 0.000000
vn 0.000000 1.000000 0.000000
vn 0.000000 1.000000 0.000000
vn 0.000000 0.097042 0.995280
vn 0.000000 0.097042 0.995280
vn 0.000000 0.097042 0.995280
vn 0.000000 0.097042 0.995280
vn 0.000000 -1.000000 0.000000
vn 0.000000 -1.000000 0.000000
vn 0.000000 -1.000000 0.000000
vn 0.000000 -1.000000 0.000000
vn -1.000000 0.000000 0.000000
vn -1.000000 0.000000 0.000000
vn -1.000000 0.000000 0.000000
vn -1.000000 0.000000 0.000000
vn 1.000000 -0.000000 0.000000
vn 1.000000 -0.000000 0.000000
vn 1.000000 -0.000000 0.000000
vn 1.000000 -0.000000 0.000000
vn 0.000000 1.000000 -0.000001
vn 0.000000 1.000000 -0.000001
vn 0.000000 1.000000 -0.000001
vn 0.000000 1.000000 -0.000001
vn -0.959715 0.027266 0.279650
vn -0.959715 0.027266 0.279650
vn -0.959715 0.027266 0.279650
vn -0.959715 0.027266 0.279650
vn 0.000000 -1.000000 0.000000
vn 0.000000 -1.000000 0.000000
vn 0.000000 -1.000000 0.000000
vn 0.000000 -1.000000 0.000000
vn 0.959717 0.027266 0.279642
vn 0.959717 0.027266 0.279642
vn 0.959717 0.027266 0.279642
vn 0.959717 0.027266 0.279642
vn 0.000000 1.000000 0.000000
vn 0.000000 1.000000 0.000000
vn 0.000000 1.000000 0.000000
vn 0.000000 1.000000 0.000000
vn 0.008088 0.096393 0.995311
vn 0.008088 0.096393 0.995310
vn 0.008088 0.096393 0.995310
vn 0.008088 0.096393 0.995310
vn 0.000000 -1.000000 0.000000
vn 0.000000 -1.000000 0.000000
vn 0.000000 -1.000000 0.000000
vn 0.000000 -1.000000 0.000000
vn -1.000000 0.000000 0.000000
vn -1.000000 0.000000 0.000000
vn -1.000000 0.000000 0.000000
vn -1.000000 0.000000 0.000000
vn 1.000000 -0.000000 0.000000
vn 1.000000 -0.000000 0.000000
vn 1.000000 -0.000000 0.000000
vn 1.000000 -0.000000 0.000000
vn 0.000000 1.000000 0.000000
vn 0.000000 1.000000 0.000000
vn 0.000000 1.000000 0.000000
vn 0.000000 1.000000 0.000000
vn -0.919230 0.032713 0.392359
vn -0.919230 0.032713 0.392359
vn -0.919230 0.032713 0.392359
vn -0.919230 0.032713 0.392359
vn 0.000000 -1.000000 0.000000
vn 0.000000 -1.000000 0.000000
vn 0.000000 -1.000000 0.000000
vn 0.000000 -1.000000 0.000000
vn 0.880704 0.036447 0.472262
vn 0.880704 0.036447 0.472262
vn 0.880704 0.036447 0.472262
vn 0.880704 0.036447 0.472262
vn -0.216488 0.622634 0.751971
vn -0.216488 0.622634 0.751971
vn -0.216487 0.622634 0.751971
vn 0.150022 0.493595 0.856655
vn 0.150022 0.493595 0.856655
vn 0.150022 0.493595 0.856655
vn -1.000000 0.000000 0.000000
vn -1.000000 0.000000 0.000000
vn -1.000000 0.000000 0.000000
vn -1.000000 0.000000 0.000000
vn -0.918531 0.050848 0.392065
vn -0.918531 0.050848 0.392065
vn -0.918531 0.050848 0.392065
vn -0.918531 0.050848 0.392065
vn 0.008268 0.098541 0.995099
vn 0.008268 0.098541 0.995099
vn 0.008268 0.098541 0.995099
vn 0.008268 0.098541 0.995099
vn 0.877282 0.068578 0.475052
vn 0.877281 0.068578 0.475052
vn 0.877282 0.068578 0.475052
vn 0.877282 0.068578 0.475052
vn 1.000000 0.000000 0.000000
vn 1.000000 0.000000 0.000000
vn 1.000000 0.000000 0.000000
vn 1.000000 0.000000 0.000000
vn -1.000000 0.000001 0.000000
vn -1.000000 0.000001 0.000000
vn -1.000000 0.000001 0.000000
vn -1.000000 0.000001 0.000000
vn -0.959717 0.027266 0.279643
vn -0.959717 0.027266 0.279643
vn -0.959717 0.027266 0.279643
vn -0.959717 0.027266 0.279643
vn 0.000000 0.097041 0.995280
vn 0.000000 0.097041 0.995280
vn 0.000000 0.097041 0.995280
vn 0.000000 0.097041 0.995280
vn 0.959717 0.027265 0.279643
vn 0.959717 0.027265 0.279643
vn 0.959717 0.027265 0.279643
vn 0.959717 0.027265 0.279643
vn 1.000000 0.000000 0.000000
vn 1.000000 0.000000 0.000000
vn 1.000000 0.000000 0.000000
vn 1.000000 0.000000 0.000000
vn -1.000000 0.000000 0.000000
vn -1.000000 0.000000 0.000000
vn -1.000000 0.000000 0.000000
vn -1.000000 0.000000 0.000000
vn -0.978461 0.047021 0.201004
vn -0.978461 0.047021 0.201004
vn -0.978461 0.047021 0.201004
vn -0.978461 0.047021 0.201004
vn 0.000000 0.155349 0.987860
vn 0.000000 0.155349 0.987860
vn 0.000000 0.155349 0.987860
vn 0.000000 0.155349 0.987860
vn 0.904491 0.093404 0.416138
vn 0.904491 0.093404 0.416138
vn 0.904491 0.093404 0.416138
vn 0.904491 0.093404 0.416138
vn 1.000000 0.000000 0.000000
vn 1.000000 0.000000 0.000000
vn 1.000000 0.000000 0.000000
vn 1.000000 0.000000 0.000000
vn 0.000000 0.097041 0.995281
vn 0.000000 0.097041 0.995280
vn 0.000000 0.097041 0.995280
vn 0.000000 0.097041 0.995281
vn 0.959716 0.027266 0.279647
vn 0.959716 0.027266 0.279647
vn 0.959716 0.027266 0.279647
vn 0.959716 0.027266 0.279647
vn 1.000000 0.000000 0.000000
vn 1.000000 0.000000 0.000000
vn 1.000000 0.000000 0.000000
vn 1.000000 0.000000 0.000000
vn 0.000000 0.000000 -1.000000
vn 0.000000 0.000000 -1.000000
vn 0.000000 0.000000 -1.000000
vn 0.000000 0.000000 -1.000000
vn -1.000000 -0.000000 0.000000
vn -1.000000 -0.000000 0.000000
vn -1.000000 -0.000000 0.000000
vn -1.000000 -0.000000 0.000000
vn -0.889360 0.065221 0.452532
vn -0.889360 0.065221 0.452532
vn -0.889360 0.065221 0.452532
vn -0.889360 0.065221 0.452532
s off
f 3/54/1 4/53/2 6/4/3 5/62/4
f 5/3/5 6/61/6 12/50/7 11/51/8
f 7/60/9 8/57/10 2/8/11 1/7/12
f 4/46/13 12/49/14 6/10/15
f 11/18/16 3/2/17 5/12/18
f 7/11/19 1/1/20 9/48/21
f 2/15/22 8/9/23 10/17/24
f 16/29/25 84/154/26 18/32/27
f 15/30/28 17/31/29 83/153/30
f 84/154/31 86/156/32 18/32/33
f 18/32/34 86/156/35 17/31/36
f 86/156/37 83/153/38 17/31/39
f 13/23/40 3/20/41 11/52/42
f 4/42/43 14/38/44 12/22/45
f 20/33/46 19/34/47 21/35/48 22/36/49
f 9/13/50 1/58/51 3/45/52 13/39/53
f 1/59/54 2/55/55 4/41/56 3/25/57
f 2/56/58 10/43/59 14/28/60 4/26/61
f 13/40/62 14/37/63 10/44/64 9/47/65
f 10/16/66 15/30/67 9/14/68
f 16/29/69 9/14/70 84/154/71
f 84/154/72 9/14/73 85/155/74
f 9/14/75 15/30/76 85/155/77
f 15/30/78 83/153/79 85/155/80
f 10/16/81 8/6/82 17/31/83 15/30/84
f 8/6/85 7/5/86 18/32/87 17/31/88
f 7/5/89 9/14/90 16/29/91 18/32/92
f 11/19/93 12/21/94 19/34/95 20/33/96
f 12/21/97 14/27/98 21/35/99 19/34/100
f 14/27/101 13/24/102 22/36/103 21/35/104
f 13/24/105 11/19/106 20/33/107 22/36/108
f 25/63/109 26/64/110 28/65/111 27/66/112
f 31/67/113 32/68/114 105/181/115 106/182/116
f 29/71/117 30/72/118 24/73/119 23/74/120
f 109/187/121 110/189/122 28/77/123 26/64/124
f 107/183/125 108/185/126 25/63/127 27/80/128
f 27/66/129 28/65/130 32/68/131 31/67/132
f 28/65/133 110/188/134 105/181/135 32/68/136
f 30/72/137 29/71/138 34/70/139 33/69/140
f 107/184/141 27/66/142 31/67/143 106/182/144
f 109/187/145 26/64/146 25/63/147 108/186/148
f 37/81/149 38/82/150 40/83/151 39/84/152
f 43/85/153 44/86/154 45/87/155 46/88/156
f 41/89/157 42/90/158 36/91/159 35/92/160
f 36/93/161 42/94/162 40/95/163 38/82/164
f 41/96/165 35/97/166 37/81/167 39/98/168
f 39/84/169 40/83/170 44/86/171 43/85/172
f 40/83/173 42/90/174 45/87/175 44/86/176
f 42/90/177 41/89/178 46/88/179 45/87/180
f 41/89/181 39/84/182 43/85/183 46/88/184
f 49/99/185 50/100/186 52/101/187 51/102/188
f 55/103/189 56/104/190 101/176/191 102/177/192
f 53/107/193 54/108/194 48/109/195 47/110/196
f 99/173/197 100/175/198 52/113/199 50/100/200
f 103/178/201 104/180/202 49/99/203 51/116/204
f 51/102/205 52/101/206 56/104/207 55/103/208
f 52/101/209 100/174/210 101/176/211 56/104/212
f 54/108/213 53/107/214 58/106/215 57/105/216
f 103/179/217 51/102/218 55/103/219 102/177/220
f 61/117/221 62/118/222 64/119/223 63/120/224
f 67/121/225 68/122/226 69/123/227 70/124/228
f 65/125/229 66/126/230 60/127/231 59/128/232
f 60/129/233 66/130/234 64/131/235 62/118/236
f 65/132/237 59/133/238 61/117/239 63/134/240
f 63/120/241 64/119/242 68/122/243 67/121/244
f 64/119/245 66/126/246 69/123/247 68/122/248
f 66/126/249 65/125/250 70/124/251 69/123/252
f 65/125/253 63/120/254 67/121/255 70/124/256
f 73/135/257 74/136/258 76/137/259 75/138/260
f 79/139/261 80/140/262 89/160/263 90/161/264
f 77/143/265 78/144/266 72/145/267 71/146/268
f 87/157/269 88/159/270 76/149/271 74/136/272
f 91/162/273 92/164/274 73/135/275 75/152/276
f 75/138/277 76/137/278 80/140/279 79/139/280
f 76/137/281 88/158/282 89/160/283 80/140/284
f 78/144/285 77/143/286 82/142/287 81/141/288
f 91/163/289 75/138/290 79/139/291 90/161/292
f 85/155/293 86/156/294 84/154/295
f 83/153/296 86/156/297 85/155/298
f 72/147/299 78/148/300 88/159/301 87/157/302
f 89/160/303 88/158/304 78/144/305 81/141/306
f 90/161/307 89/160/308 81/141/309 82/142/310
f 77/143/311 91/163/312 90/161/313 82/142/314
f 77/150/315 71/151/316 92/164/317 91/162/318
f 48/111/319 54/112/320 94/167/321 93/165/322
f 95/168/323 94/166/324 54/108/325 57/105/326
f 96/169/327 95/168/328 57/105/329 58/106/330
f 53/107/331 97/171/332 96/169/333 58/106/334
f 53/114/335 47/115/336 98/172/337 97/170/338
f 93/165/339 94/167/340 100/175/341 99/173/342
f 101/176/343 100/174/344 94/166/345 95/168/346
f 102/177/347 101/176/348 95/168/349 96/169/350
f 97/171/351 103/179/352 102/177/353 96/169/354
f 97/170/355 98/172/356 104/180/357 103/178/358
f 106/182/359 105/181/360 33/69/361 34/70/362
f 29/71/363 107/184/364 106/182/365 34/70/366
f 29/78/367 23/79/368 108/185/369 107/183/370
f 24/75/371 109/187/372 108/186/373 23/74/374
f 24/75/375 30/76/376 110/189/377 109/187/378
f 105/181/379 110/188/380 30/72/381 33/69/382
