# This file uses meters as units for non-parametric coordinates.

v 0.000000 0.000000 0.000000
v 500.000000 0.000000 0.000000
v 0.000000 300.000000 0.000000
v 500.000000 300.000000 0.000000
v 0.000000 300.000000 -500.000061
v 500.000000 300.000000 -500.000061
v 0.000000 0.000000 -500.000061
v 500.000000 0.000000 -500.000061
v 125.000000 300.000000 0.000000
v 125.000000 0.000000 0.000000
v 375.000000 0.000000 0.000000
v 375.000000 300.000000 0.000000
v 368.697510 0.000000 -13.388538
v 368.697510 300.000000 -13.388538
v 368.697510 300.000000 -500.000061
v 368.697510 0.000000 -500.000061
v 131.302643 300.000000 -500.000061
v 131.302643 300.000000 -13.388538
v 131.302643 0.000000 -13.388538
v 131.302643 0.000000 -500.000061
v 343.897278 43.269001 -13.388538
v 343.897278 256.730988 -13.388538
v 156.102951 256.730988 -13.388538
v 156.102951 43.269001 -13.388538
v 168.461792 273.061646 -13.388538
v 331.538391 273.061646 -13.388538
v 331.538391 26.938358 -13.388538
v 168.461792 26.938358 -13.388538
v 324.991974 34.150032 -23.278524
v 336.358643 49.523663 -23.278524
v 336.358643 250.476303 -23.278524
v 324.991974 265.849976 -23.278524
v 175.008194 265.849976 -23.278524
v 163.641541 250.476303 -23.278524
v 163.641541 49.523663 -23.278524
v 175.008194 34.150032 -23.278524
v 125.000000 251.958618 0.000000
v 125.000000 182.300095 0.000000
v 120.051765 221.865295 0.000048
v 127.865410 223.991104 -6.087160
v 375.000000 55.726799 0.000048
v 375.000000 135.904800 0.000000
v 371.346863 102.380394 -7.760573
v 382.561676 104.719803 0.000048
v 375.000000 222.235443 0.000000
v 375.000000 256.429291 0.000000
v 372.341736 238.968201 -5.647278
v 380.151154 240.625687 0.000048
vt 0.994294 0.303408
vt 0.994294 0.303408
vt 0.994294 0.303408
vt 0.994294 0.303408
vt 0.994294 0.303408
vt 0.994294 0.303408
vt 0.994294 0.303408
vt 0.994294 0.303408
vt 0.994294 0.303408
vt 0.994294 0.303408
vt 0.994294 0.303408
vt 0.994294 0.303408
vt 0.994294 0.303408
vt 0.994294 0.303408
vt 0.994294 0.303408
vt 0.994294 0.303408
vt 0.994294 0.303408
vt 0.994294 0.303408
vt 0.994294 0.303408
vt 0.994294 0.303408
vt 0.994294 0.303408
vt 0.994294 0.303408
vt 0.994294 0.303408
vt 0.994294 0.303408
vt 0.994294 0.303408
vt 0.994294 0.303408
vt 0.994294 0.303408
vt 0.994294 0.303408
vt 0.994294 0.303408
vt 0.994294 0.303408
vt 0.994294 0.303408
vt 0.994294 0.303408
vt 0.994294 0.303408
vt 0.994294 0.303408
vt 0.994294 0.303408
vt 0.994294 0.303408
vt 0.994294 0.303408
vt 0.994294 0.303408
vt 0.994294 0.281387
vt 0.994294 0.281387
vt 0.994294 0.281387
vt 0.994294 0.281387
vt 0.994294 0.281387
vt 0.994294 0.281387
vt 0.994294 0.281387
vt 0.994294 0.281387
vt 0.994294 0.281387
vt 0.994294 0.281387
vt 0.994294 0.281387
vt 0.994294 0.281387
vt 0.994294 0.281387
vt 0.994294 0.281387
vt 0.994294 0.281387
vt 0.994294 0.281387
vt 0.994294 0.303408
vt 0.994294 0.303408
vt 0.994294 0.303408
vt 0.994294 0.303408
vt 0.994294 0.303408
vt 0.994294 0.303408
vt 0.994294 0.303408
vt 0.994294 0.303408
vt 0.994294 0.303408
vt 0.994294 0.303408
vt 0.994294 0.303408
vt 0.994294 0.303408
vn 0.000000 0.000000 1.000000
vn 0.000000 0.000000 1.000000
vn 0.000000 0.000000 1.000000
vn 0.000000 0.000000 1.000000
vn 0.000000 0.000000 1.000000
vn 0.000000 0.000000 1.000000
vn 0.000000 0.000000 1.000000
vn 0.000000 0.000000 1.000000
vn 0.000000 1.000000 0.000000
vn 0.000000 1.000000 0.000000
vn 0.000000 1.000000 0.000000
vn 0.000000 1.000000 0.000000
vn 0.000000 0.000000 -1.000000
vn 0.000000 0.000000 -1.000000
vn 0.000000 0.000000 -1.000000
vn 0.000000 0.000000 -1.000000
vn 0.000000 -1.000000 0.000000
vn 0.000000 -1.000000 0.000000
vn 0.000000 -1.000000 0.000000
vn 0.000000 -1.000000 0.000000
vn 1.000000 0.000000 0.000000
vn 1.000000 0.000000 0.000000
vn 1.000000 0.000000 0.000000
vn 1.000000 0.000000 0.000000
vn -1.000000 0.000000 0.000000
vn -1.000000 0.000000 0.000000
vn -1.000000 0.000000 0.000000
vn -1.000000 0.000000 0.000000
vn 0.000000 0.000001 1.000000
vn 0.000000 0.000001 1.000000
vn 0.000000 0.000001 1.000000
vn 0.000000 0.000001 1.000000
vn 0.000000 0.000000 1.000000
vn 0.000000 0.000000 1.000000
vn 0.000000 0.000000 1.000000
vn 0.000000 0.000000 1.000000
vn -0.904762 0.000000 0.425918
vn -0.904762 0.000000 0.425918
vn -0.904762 0.000000 0.425918
vn -0.904762 0.000000 0.425918
vn 0.000000 1.000000 0.000000
vn 0.000000 1.000000 0.000000
vn 0.000000 1.000000 0.000000
vn 0.000000 1.000000 0.000000
vn 0.000000 1.000000 0.000000
vn 0.000000 0.000000 -1.000000
vn 0.000000 0.000000 -1.000000
vn 0.000000 0.000000 -1.000000
vn 0.000000 0.000000 -1.000000
vn 0.000000 -1.000000 0.000000
vn 0.000000 -1.000000 0.000000
vn 0.000000 -1.000000 0.000000
vn 0.000000 -1.000000 0.000000
vn 0.000000 -1.000000 0.000000
vn 0.000000 1.000000 0.000000
vn 0.000000 1.000000 0.000000
vn 0.000000 1.000000 0.000000
vn 0.000000 1.000000 0.000000
vn 0.000000 1.000000 0.000000
vn 0.904757 0.000000 0.425928
vn 0.904757 0.000000 0.425928
vn 0.904757 0.000000 0.425928
vn 0.000000 -1.000000 0.000000
vn 0.000000 -1.000000 0.000000
vn 0.000000 -1.000000 0.000000
vn 0.000000 -1.000000 0.000000
vn 0.000000 -1.000000 0.000000
vn 0.000000 0.000000 -1.000000
vn 0.000000 0.000000 -1.000000
vn 0.000000 0.000000 -1.000000
vn 0.000000 0.000000 -1.000000
vn -0.000000 0.000000 1.000000
vn -0.000000 0.000000 1.000000
vn -0.000000 0.000000 1.000000
vn -0.000000 0.000000 1.000000
vn 0.000000 0.000000 1.000000
vn 0.000000 0.000000 1.000000
vn 0.000000 0.000000 1.000000
vn 0.000000 0.000000 1.000000
vn 0.000000 0.000000 1.000000
vn 0.000000 0.000000 1.000000
vn 0.000000 0.000000 1.000000
vn 0.000000 0.000000 1.000000
vn 0.000000 0.000000 1.000000
vn 0.000000 0.000000 1.000000
vn 0.000000 0.000000 1.000000
vn 0.000000 0.000000 1.000000
vn 0.000000 0.000000 1.000000
vn 0.000000 0.000000 1.000000
vn 0.000000 0.000000 1.000000
vn 0.000000 0.000000 1.000000
vn 0.000000 0.000000 1.000000
vn -0.000000 0.000000 1.000000
vn -0.000000 0.000000 1.000000
vn -0.000000 0.000000 1.000000
vn 0.000000 0.000000 1.000000
vn 0.000000 0.000000 1.000000
vn 0.000000 0.000000 1.000000
vn 0.000000 0.000000 1.000000
vn -0.572390 0.428341 0.699209
vn -0.572390 0.428341 0.699209
vn -0.572390 0.428341 0.699209
vn -0.572390 0.428341 0.699209
vn -0.795300 0.000000 0.606217
vn -0.795300 0.000000 0.606217
vn -0.795300 0.000000 0.606217
vn -0.795300 0.000000 0.606217
vn -0.572390 -0.428341 0.699210
vn -0.572390 -0.428341 0.699210
vn -0.572390 -0.428341 0.699210
vn -0.572390 -0.428341 0.699210
vn 0.000000 -0.807998 0.589185
vn 0.000000 -0.807998 0.589185
vn 0.000000 -0.807998 0.589185
vn 0.000000 -0.807998 0.589185
vn 0.572392 -0.428341 0.699208
vn 0.572392 -0.428341 0.699208
vn 0.572392 -0.428341 0.699208
vn 0.572392 -0.428341 0.699208
vn 0.795301 0.000000 0.606214
vn 0.795301 0.000000 0.606214
vn 0.795301 0.000000 0.606214
vn 0.795301 0.000000 0.606214
vn 0.572391 0.428341 0.699208
vn 0.572391 0.428341 0.699208
vn 0.572391 0.428341 0.699208
vn 0.572391 0.428341 0.699208
vn 0.000000 0.807999 0.589184
vn 0.000000 0.807999 0.589184
vn 0.000000 0.807999 0.589184
vn 0.000000 0.807999 0.589184
vn 0.628621 -0.103363 0.770812
vn 0.628621 -0.103363 0.770812
vn 0.628621 -0.103363 0.770812
vn 0.000000 -0.000000 1.000000
vn 0.000000 -0.000000 1.000000
vn 0.000000 -0.000000 1.000000
vn 0.000000 -0.000000 1.000000
vn -0.000000 0.000000 1.000000
vn -0.000000 0.000000 1.000000
vn -0.000000 0.000000 1.000000
vn 0.904764 -0.000001 0.425913
vn 0.904764 -0.000001 0.425913
vn 0.904764 -0.000001 0.425913
vn 0.904764 -0.000001 0.425913
vn 0.904764 0.000000 0.425912
vn 0.904764 0.000000 0.425912
vn 0.904764 0.000000 0.425912
vn 0.904764 0.000000 0.425912
vn -0.579303 0.089411 0.810194
vn -0.579303 0.089411 0.810194
vn -0.579303 0.089411 0.810194
vn -0.600828 0.168292 0.781462
vn -0.600828 0.168292 0.781462
vn -0.600828 0.168292 0.781462
vn -0.551130 -0.179638 0.814854
vn -0.551130 -0.179638 0.814854
vn -0.551130 -0.179638 0.814854
vn -0.545246 -0.132210 0.827785
vn -0.545246 -0.132210 0.827785
vn -0.545246 -0.132210 0.827785
vn -0.904768 0.000000 0.425906
vn -0.904768 0.000000 0.425906
vn -0.904768 0.000000 0.425906
vn -0.904768 0.000000 0.425906
vn -0.904771 0.000000 0.425897
vn -0.904771 0.000000 0.425897
vn -0.904771 0.000000 0.425897
vn -0.904771 0.000000 0.425897
vn -0.904768 -0.000001 0.425904
vn -0.904768 -0.000001 0.425904
vn -0.904768 -0.000001 0.425904
vn -0.904768 -0.000001 0.425904
vn -0.000000 0.000001 1.000000
vn -0.000000 0.000001 1.000000
vn -0.000000 0.000001 1.000000
vn -0.000000 0.000001 1.000000
vn -0.000008 -0.000000 1.000000
vn -0.000008 -0.000000 1.000000
vn -0.000008 -0.000000 1.000000
vn -0.000008 -0.000000 1.000000
vn 0.000000 -0.000000 1.000000
vn 0.000000 -0.000000 1.000000
vn 0.000000 -0.000000 1.000000
vn 0.000000 -0.000000 1.000000
vn 0.600047 0.075044 0.796437
vn 0.600047 0.075044 0.796437
vn 0.600047 0.075044 0.796437
s off
f 29/39/1 30/40/2 31/41/3 32/42/4 33/43/5 34/44/6 35/45/7 36/46/8
f 14/22/9 15/23/10 17/26/11 18/27/12
f 15/23/13 16/24/14 20/30/15 17/26/16
f 16/24/17 13/25/18 19/29/19 20/30/20
f 2/2/21 8/11/22 6/12/23 4/4/24
f 7/13/25 1/1/26 3/3/27 5/14/28
f 3/3/29 39/57/30 37/55/31 9/15/32
f 4/4/33 48/66/34 44/62/35 2/2/36
f 13/21/37 43/61/38 47/65/39 14/22/40
f 6/6/41 15/23/42 14/22/43 12/20/44 4/4/45
f 8/8/46 16/24/47 15/23/48 6/6/49
f 11/19/50 13/25/51 16/24/52 8/8/53 2/10/54
f 9/15/55 18/27/56 17/26/57 5/5/58 3/3/59
f 18/27/60 40/58/61 19/28/62
f 7/7/63 20/30/64 19/29/65 10/17/66 1/9/67
f 5/5/68 17/26/69 20/30/70 7/7/71
f 13/21/72 14/22/73 22/32/74 21/31/75
f 14/22/76 26/36/77 22/32/78
f 18/27/79 19/28/80 24/34/81 23/33/82
f 19/28/83 28/38/84 24/34/85
f 25/35/86 18/27/87 23/33/88
f 14/22/89 18/27/90 25/35/91 26/36/92
f 27/37/93 13/21/94 21/31/95
f 19/28/96 13/21/97 27/37/98 28/38/99
f 27/47/100 21/48/101 30/40/102 29/39/103
f 21/48/104 22/49/105 31/41/106 30/40/107
f 22/49/108 26/50/109 32/42/110 31/41/111
f 26/50/112 25/51/113 33/43/114 32/42/115
f 25/51/116 23/52/117 34/44/118 33/43/119
f 23/52/120 24/53/121 35/45/122 34/44/123
f 24/53/124 28/54/125 36/46/126 35/45/127
f 28/54/128 27/47/129 29/39/130 36/46/131
f 39/57/132 40/58/133 37/55/134
f 1/1/135 10/16/136 38/56/137 39/57/138
f 1/1/139 39/57/140 3/3/141
f 9/15/142 37/55/143 40/58/144 18/27/145
f 19/28/146 40/58/147 38/56/148 10/16/149
f 44/62/150 43/61/151 41/59/152
f 48/66/153 47/65/154 45/63/155
f 46/64/156 47/65/157 48/66/158
f 42/60/159 43/61/160 44/62/161
f 11/18/162 41/59/163 43/61/164 13/21/165
f 47/65/166 43/61/167 42/60/168 45/63/169
f 14/22/170 47/65/171 46/64/172 12/20/173
f 12/20/174 46/64/175 48/66/176 4/4/177
f 44/62/178 48/66/179 45/63/180 42/60/181
f 2/2/182 44/62/183 41/59/184 11/18/185
f 38/56/186 40/58/187 39/57/188
