# This file uses meters as units for non-parametric coordinates.

v -221.156021 0.000000 136.002258
v 221.156021 0.000000 136.002258
v -221.156021 2310.745850 136.002258
v 221.156021 2310.745850 136.002258
v -221.156021 2310.745850 -301.451294
v 221.156021 2310.745850 -301.451294
v -221.156021 0.000000 -301.451294
v 221.156021 0.000000 -301.451294
v -191.668411 32.385635 136.002258
v 191.668411 32.385635 136.002258
v 191.668411 2278.360352 136.002258
v -191.668411 2278.360352 136.002258
v -191.668411 2278.360352 -301.451294
v 191.668411 2278.360352 -301.451294
v 191.668411 32.385635 -301.451294
v -191.668411 32.385635 -301.451294
v 221.156021 32.385635 -283.317627
v 221.156021 32.385635 117.868584
v 221.156021 2278.360352 -283.317627
v 221.156021 2278.360352 117.868584
v -221.156021 32.385635 -283.317627
v -221.156021 32.385635 117.868584
v -221.156021 2278.360352 117.868584
v -221.156021 2278.360352 -283.317627
v -221.156021 481.580536 -283.317627
v -221.156021 481.580536 117.868584
v -221.156021 462.149139 136.002258
v -191.668411 481.580536 136.002258
v 191.668411 481.580536 136.002258
v 221.156021 462.149139 136.002258
v 221.156021 481.580536 117.868584
v 221.156021 481.580536 -283.317627
v 221.156021 462.149139 -301.451294
v 191.668411 481.580536 -301.451294
v -191.668411 481.580536 -301.451294
v -221.156021 462.149139 -301.451294
v -221.156021 930.775513 -7.325792
v -221.156021 930.775513 393.860382
v -221.156021 924.298279 411.994080
v -191.668411 930.775513 411.994080
v 191.668411 930.775513 411.994080
v 221.156021 924.298279 411.994080
v 221.156021 930.775513 393.860382
v 221.156021 930.775513 -7.325792
v 221.156021 924.298279 -25.459457
v 191.668411 930.775513 -25.459457
v -191.668411 930.775513 -25.459457
v -221.156021 924.298279 -25.459457
v -221.156021 1379.970581 -7.325792
v -221.156021 1379.970581 393.860382
v -221.156021 1386.447632 411.994080
v -191.668411 1379.970581 411.994080
v 191.668411 1379.970581 411.994080
v 221.156021 1386.447632 411.994080
v 221.156021 1379.970581 393.860382
v 221.156021 1379.970581 -7.325792
v 221.156021 1386.447632 -25.459457
v 191.668411 1379.970581 -25.459457
v -191.668411 1379.970581 -25.459457
v -221.156021 1386.447632 -25.459457
v -221.156021 1829.165283 -283.317627
v -221.156021 1829.165283 117.868584
v -221.156021 1848.596802 136.002258
v -191.668411 1829.165283 136.002258
v 191.668411 1829.165283 136.002258
v 221.156021 1848.596802 136.002258
v 221.156021 1829.165283 117.868584
v 221.156021 1829.165283 -283.317627
v 221.156021 1848.596802 -301.451294
v 191.668411 1829.165283 -301.451294
v -191.668411 1829.165283 -301.451294
v -221.156021 1848.596802 -301.451294
vt 0.604394 0.974606
vt 0.604394 0.974606
vt 0.604394 0.974606
vt 0.604394 0.974606
vt 0.604394 0.974606
vt 0.604394 0.974606
vt 0.604394 0.974606
vt 0.604394 0.974606
vt 0.604394 0.974606
vt 0.604394 0.974606
vt 0.604394 0.974606
vt 0.604394 0.974606
vt 0.604394 0.974606
vt 0.604394 0.974606
vt 0.604394 0.974606
vt 0.604394 0.974606
vt 0.604394 0.974606
vt 0.604394 0.974606
vt 0.604394 0.974606
vt 0.604394 0.974606
vt 0.604394 0.974606
vt 0.604394 0.974606
vt 0.604394 0.974606
vt 0.604394 0.974606
vt 0.604394 0.974606
vt 0.604394 0.974606
vt 0.604394 0.974606
vt 0.604394 0.974606
vt 0.604394 0.974606
vt 0.604394 0.974606
vt 0.604394 0.974606
vt 0.604394 0.974606
vt 0.604394 0.974606
vt 0.604394 0.974606
vt 0.604394 0.974606
vt 0.604394 0.974606
vt 0.604394 0.974606
vt 0.604394 0.974606
vt 0.604394 0.974606
vt 0.604394 0.974606
vt 0.195663 -0.895588
vt 0.804337 -0.895587
vt 0.804337 1.874770
vt 0.195663 1.874770
vt 0.804337 1.874770
vt 0.195663 1.874770
vt 0.195663 -0.895588
vt 0.804337 -0.895588
vt 0.195663 -0.895588
vt 0.804337 -0.895588
vt 0.804337 1.874770
vt 0.195663 1.874770
vt 0.195663 -0.895588
vt 0.804337 -0.895588
vt 0.804337 1.874770
vt 0.195663 1.874770
vt 0.195663 -0.341516
vt 0.604394 0.974606
vt 0.804337 -0.341516
vt 0.604394 0.974606
vt 0.604394 0.974606
vt 0.604394 0.974606
vt 0.604394 0.974606
vt 0.195663 -0.341516
vt 0.804337 -0.341516
vt 0.604394 0.974606
vt 0.604394 0.974606
vt 0.604394 0.974606
vt 0.604394 0.974606
vt 0.195663 -0.341516
vt 0.604394 0.974606
vt 0.804337 -0.341516
vt 0.604394 0.974606
vt 0.604394 0.974606
vt 0.195663 -0.341516
vt 0.604394 0.974606
vt 0.604394 0.974606
vt 0.804337 -0.341516
vt 0.604394 0.974606
vt 0.604394 0.974606
vt 0.614394 0.212556
vt 0.604394 0.974606
vt 1.223065 0.212556
vt 0.604394 0.974606
vt 0.604394 0.974606
vt 0.604394 0.974606
vt 0.604394 0.974606
vt 0.195664 0.212555
vt 0.804336 0.212556
vt 0.604394 0.974606
vt 0.604394 0.974606
vt 0.604394 0.974606
vt 0.604394 0.974606
vt -0.223065 0.212556
vt 0.604394 0.974606
vt 0.385606 0.212556
vt 0.604394 0.974606
vt 0.604394 0.974606
vt 0.195664 0.212556
vt 0.604394 0.974606
vt 0.604394 0.974606
vt 0.804336 0.212556
vt 0.604394 0.974606
vt 0.604394 0.974606
vt 0.614394 0.766627
vt 0.604394 0.974606
vt 1.223065 0.766627
vt 0.604394 0.974606
vt 0.604394 0.974606
vt 0.604394 0.974606
vt 0.604394 0.974606
vt 0.195664 0.766627
vt 0.804336 0.766627
vt 0.604394 0.974606
vt 0.604394 0.974606
vt 0.604394 0.974606
vt 0.604394 0.974606
vt -0.223065 0.766627
vt 0.604394 0.974606
vt 0.385606 0.766627
vt 0.604394 0.974606
vt 0.604394 0.974606
vt 0.195664 0.766627
vt 0.604394 0.974606
vt 0.604394 0.974606
vt 0.804336 0.766627
vt 0.604394 0.974606
vt 0.604394 0.974606
vt 0.195663 1.320699
vt 0.604394 0.974606
vt 0.804337 1.320699
vt 0.604394 0.974606
vt 0.604394 0.974606
vt 0.604394 0.974606
vt 0.604394 0.974606
vt 0.195663 1.320699
vt 0.804337 1.320699
vt 0.604394 0.974606
vt 0.604394 0.974606
vt 0.604394 0.974606
vt 0.604394 0.974606
vt 0.195663 1.320699
vt 0.604394 0.974606
vt 0.804337 1.320699
vt 0.604394 0.974606
vt 0.604394 0.974606
vt 0.195663 1.320699
vt 0.604394 0.974606
vt 0.604394 0.974606
vt 0.804337 1.320699
vt 0.604394 0.974606
vt 0.604394 0.974606
vn 0.000000 0.000000 1.000000
vn 0.012066 0.299892 0.953897
vn -0.012066 0.299892 0.953897
vn 0.000000 0.000000 1.000000
vn 0.000000 1.000000 0.000000
vn 0.000000 1.000000 0.000000
vn 0.000000 1.000000 0.000000
vn 0.000000 1.000000 0.000000
vn 0.012066 -0.299892 -0.953897
vn -0.012066 -0.299892 -0.953897
vn -0.000000 0.000000 -1.000000
vn 0.000000 0.000000 -1.000000
vn 0.000000 -1.000000 0.000000
vn 0.000000 -1.000000 0.000000
vn 0.000000 -1.000000 0.000000
vn 0.000000 -1.000000 0.000000
vn 1.000000 0.000000 0.000000
vn 1.000000 0.000000 0.000000
vn 1.000000 0.000000 0.000000
vn 1.000000 0.000000 0.000000
vn -1.000000 0.000000 0.000000
vn -1.000000 -0.000000 0.000000
vn -1.000000 0.000000 0.000000
vn -1.000000 0.000000 0.000000
vn 0.000000 0.000000 1.000000
vn -0.000000 0.000000 1.000000
vn -0.000000 0.000000 1.000000
vn 0.000000 0.000000 1.000000
vn -0.012066 0.299892 0.953897
vn -0.086718 0.197394 0.976481
vn 0.000000 0.000000 1.000000
vn 0.000000 0.000000 1.000000
vn 0.000000 0.000000 1.000000
vn 0.000000 0.000000 1.000000
vn 0.000000 0.000000 1.000000
vn 0.000000 0.000000 1.000000
vn 0.086718 0.197394 0.976481
vn 0.012066 0.299892 0.953897
vn 0.000000 0.000000 1.000000
vn 0.000000 0.000000 1.000000
vn -0.000001 0.000000 -1.000000
vn 0.000001 0.000000 -1.000000
vn 0.000000 0.000000 -1.000000
vn -0.000000 0.000000 -1.000000
vn 0.086719 -0.197394 -0.976481
vn 0.012066 -0.299892 -0.953897
vn 0.000000 0.000000 -1.000000
vn 0.000001 0.000000 -1.000000
vn -0.000001 0.000000 -1.000000
vn 0.000001 0.000000 -1.000000
vn 0.000000 0.000000 -1.000000
vn -0.000000 0.000000 -1.000000
vn -0.012066 -0.299892 -0.953897
vn -0.086719 -0.197394 -0.976481
vn -0.000001 0.000000 -1.000000
vn -0.000000 0.000000 -1.000000
vn 1.000000 -0.000000 0.000000
vn 1.000000 -0.000000 0.000000
vn 1.000000 -0.000000 0.000000
vn 1.000000 -0.000000 0.000000
vn 1.000000 0.000000 0.000000
vn 1.000000 0.000000 0.000000
vn 1.000000 0.000001 0.000000
vn 1.000000 0.000000 0.000000
vn 1.000000 0.000001 0.000000
vn 1.000000 0.000001 0.000000
vn 1.000000 0.000000 0.000000
vn 1.000000 0.000000 0.000000
vn 1.000000 -0.000000 0.000000
vn 1.000000 0.000000 0.000000
vn 1.000000 0.000000 0.000000
vn 1.000000 0.000001 0.000000
vn -1.000000 -0.000001 0.000000
vn -1.000000 -0.000001 0.000000
vn -1.000000 -0.000000 0.000000
vn -1.000000 -0.000000 0.000000
vn -1.000000 -0.000000 0.000000
vn -1.000000 -0.000000 0.000000
vn -1.000000 0.000000 0.000000
vn -1.000000 0.000000 0.000000
vn -1.000000 0.000000 0.000000
vn -1.000000 0.000000 0.000000
vn -1.000000 0.000000 0.000000
vn -1.000000 0.000000 0.000000
vn -1.000000 0.000000 0.000000
vn -1.000000 0.000000 0.000000
vn -1.000000 0.000000 0.000000
vn -1.000000 0.000000 0.000000
vn -1.000000 -0.000000 0.000000
vn -1.000000 -0.000000 0.000000
vn -1.000000 0.000000 0.000000
vn -1.000000 0.000000 0.000000
vn -1.000000 -0.000000 0.000000
vn -1.000000 -0.000001 0.000000
vn -1.000000 0.000000 0.000000
vn -1.000000 0.000000 0.000000
vn 0.000000 0.000000 1.000000
vn 0.000000 0.000000 1.000000
vn 0.012066 -0.299892 0.953897
vn 0.086718 -0.197395 0.976481
vn -0.012066 -0.299892 0.953897
vn 0.012066 -0.299892 0.953897
vn 0.000000 0.000000 1.000000
vn -0.000000 0.000000 1.000000
vn -0.000000 0.000000 1.000000
vn -0.000000 0.000000 1.000000
vn -0.086719 -0.197395 0.976481
vn -0.012066 -0.299892 0.953897
vn 1.000000 -0.000000 0.000000
vn 1.000000 -0.000000 0.000000
vn 1.000000 0.000000 0.000000
vn 1.000000 0.000000 0.000000
vn 1.000000 -0.000000 0.000000
vn 1.000000 -0.000000 0.000000
vn 1.000000 0.000000 0.000000
vn 1.000000 0.000000 0.000000
vn 1.000000 -0.000000 0.000000
vn 1.000000 -0.000000 0.000000
vn 1.000000 0.000000 0.000000
vn 1.000000 0.000000 0.000000
vn -0.000001 0.000000 -1.000000
vn -0.000000 0.000000 -1.000000
vn 0.012066 0.299892 -0.953897
vn 0.086717 0.197395 -0.976481
vn -0.000000 0.000000 -1.000000
vn 0.000000 0.000000 -1.000000
vn -0.012066 0.299892 -0.953897
vn 0.012066 0.299892 -0.953897
vn 0.000000 0.000000 -1.000000
vn 0.000001 0.000000 -1.000000
vn -0.086717 0.197395 -0.976481
vn -0.012066 0.299892 -0.953897
vn -1.000000 -0.000001 0.000000
vn -1.000000 -0.000000 0.000000
vn -1.000000 0.000000 0.000000
vn -1.000000 0.000000 0.000000
vn -1.000000 0.000000 0.000000
vn -1.000000 0.000000 0.000000
vn -1.000000 0.000000 0.000000
vn -1.000000 0.000000 0.000000
vn -1.000000 0.000000 0.000000
vn -1.000000 0.000000 0.000000
vn -1.000000 0.000000 0.000000
vn -1.000000 0.000000 0.000000
vn 0.086718 -0.197395 0.976481
vn 0.012066 -0.299892 0.953897
vn 0.008129 -0.290934 0.956709
vn 0.140720 -0.320318 0.936800
vn -0.008129 -0.290934 0.956709
vn 0.008129 -0.290934 0.956709
vn 0.012066 -0.299892 0.953897
vn -0.012066 -0.299892 0.953897
vn -0.012066 -0.299892 0.953897
vn -0.086719 -0.197395 0.976481
vn -0.140721 -0.320318 0.936800
vn -0.008129 -0.290934 0.956709
vn 1.000000 0.000000 0.000000
vn 1.000000 0.000000 0.000000
vn 1.000000 0.000000 0.000000
vn 1.000000 0.000000 0.000000
vn 1.000000 0.000000 0.000000
vn 1.000000 0.000000 0.000000
vn 1.000000 0.000000 0.000000
vn 1.000000 0.000000 0.000000
vn 1.000000 0.000000 0.000000
vn 1.000000 0.000000 0.000000
vn 1.000000 0.000000 0.000000
vn 1.000000 0.000000 0.000000
vn 0.086717 0.197395 -0.976481
vn 0.012066 0.299892 -0.953897
vn 0.008129 0.290934 -0.956709
vn 0.140720 0.320318 -0.936800
vn 0.012066 0.299892 -0.953897
vn -0.012066 0.299892 -0.953897
vn -0.008129 0.290934 -0.956709
vn 0.008129 0.290934 -0.956709
vn -0.012066 0.299892 -0.953897
vn -0.086717 0.197395 -0.976481
vn -0.140720 0.320318 -0.936800
vn -0.008129 0.290934 -0.956709
vn -1.000000 0.000000 0.000000
vn -1.000000 0.000000 0.000000
vn -1.000000 0.000000 0.000000
vn -1.000000 0.000000 0.000000
vn -1.000000 0.000000 0.000000
vn -1.000000 0.000000 0.000000
vn -1.000000 -0.000000 0.000000
vn -1.000000 0.000000 0.000000
vn -1.000000 0.000000 0.000000
vn -1.000000 0.000000 0.000000
vn -1.000000 -0.000000 0.000000
vn -1.000000 -0.000000 0.000000
vn 0.140720 -0.320318 0.936800
vn 0.008129 -0.290934 0.956709
vn 0.008129 0.290934 0.956709
vn 0.140720 0.320317 0.936800
vn -0.008129 0.290934 0.956709
vn 0.008129 0.290934 0.956709
vn 0.008129 -0.290934 0.956709
vn -0.008129 -0.290934 0.956709
vn -0.008129 -0.290934 0.956709
vn -0.140721 -0.320318 0.936800
vn -0.140720 0.320317 0.936800
vn -0.008129 0.290934 0.956709
vn 1.000000 0.000000 0.000000
vn 1.000000 0.000000 0.000000
vn 1.000000 -0.000000 0.000000
vn 1.000000 -0.000000 0.000000
vn 1.000000 0.000000 0.000000
vn 1.000000 0.000000 0.000000
vn 1.000000 0.000000 0.000000
vn 1.000000 -0.000000 0.000000
vn 1.000000 0.000000 0.000000
vn 1.000000 0.000000 0.000000
vn 1.000000 0.000000 0.000000
vn 1.000000 0.000000 0.000000
vn 0.140720 0.320318 -0.936800
vn 0.008129 0.290934 -0.956709
vn 0.008129 -0.290934 -0.956709
vn 0.140719 -0.320317 -0.936801
vn 0.008129 0.290934 -0.956709
vn -0.008129 0.290934 -0.956709
vn -0.008129 -0.290934 -0.956709
vn 0.008129 -0.290934 -0.956709
vn -0.008129 0.290934 -0.956709
vn -0.140720 0.320318 -0.936800
vn -0.140719 -0.320317 -0.936801
vn -0.008129 -0.290934 -0.956709
vn -1.000000 0.000000 0.000000
vn -1.000000 0.000000 0.000000
vn -1.000000 0.000000 0.000000
vn -1.000000 0.000000 0.000000
vn -1.000000 0.000000 0.000000
vn -1.000000 -0.000000 0.000000
vn -1.000000 -0.000000 0.000000
vn -1.000000 0.000000 0.000000
vn -1.000000 -0.000000 0.000000
vn -1.000000 -0.000000 0.000000
vn -1.000000 -0.000000 0.000000
vn -1.000000 -0.000000 0.000000
vn 0.140720 0.320317 0.936800
vn 0.008129 0.290934 0.956709
vn 0.012066 0.299892 0.953897
vn 0.086718 0.197394 0.976481
vn -0.012066 0.299892 0.953897
vn 0.012066 0.299892 0.953897
vn 0.008129 0.290934 0.956709
vn -0.008129 0.290934 0.956709
vn -0.008129 0.290934 0.956709
vn -0.140720 0.320317 0.936800
vn -0.086718 0.197394 0.976481
vn -0.012066 0.299892 0.953897
vn 1.000000 -0.000000 0.000000
vn 1.000000 -0.000000 0.000000
vn 1.000000 0.000000 0.000000
vn 1.000000 -0.000000 0.000000
vn 1.000000 -0.000000 0.000000
vn 1.000000 0.000000 0.000000
vn 1.000000 0.000000 0.000000
vn 1.000000 0.000000 0.000000
vn 1.000000 0.000000 0.000000
vn 1.000000 0.000000 0.000000
vn 1.000000 0.000000 0.000000
vn 1.000000 0.000000 0.000000
vn 0.140719 -0.320317 -0.936801
vn 0.008129 -0.290934 -0.956709
vn 0.012066 -0.299892 -0.953897
vn 0.086719 -0.197394 -0.976481
vn 0.008129 -0.290934 -0.956709
vn -0.008129 -0.290934 -0.956709
vn -0.012066 -0.299892 -0.953897
vn 0.012066 -0.299892 -0.953897
vn -0.008129 -0.290934 -0.956709
vn -0.140719 -0.320317 -0.936801
vn -0.086719 -0.197394 -0.976481
vn -0.012066 -0.299892 -0.953897
vn -1.000000 0.000000 0.000000
vn -1.000000 0.000000 0.000000
vn -1.000000 0.000000 0.000000
vn -1.000000 0.000000 0.000000
s off
f 12/44/1 64/136/2 65/137/3 11/43/4
f 3/5/5 4/6/6 6/7/7 5/8/8
f 70/147/9 71/150/10 13/45/11 14/46/12
f 7/13/13 8/14/14 2/15/15 1/16/16
f 67/142/17 68/144/18 19/51/19 20/52/20
f 61/129/21 62/131/22 23/55/23 24/56/24
f 1/1/25 2/2/26 10/26/27 9/25/28
f 65/138/29 66/139/30 4/3/31 11/27/32
f 4/3/33 3/4/34 12/28/35 11/27/36
f 63/134/37 64/135/38 12/28/39 3/4/40
f 5/9/41 6/10/42 14/30/43 13/29/44
f 69/145/45 70/148/46 14/30/47 6/10/48
f 8/11/49 7/12/50 16/32/51 15/31/52
f 71/149/53 72/152/54 5/9/55 13/29/56
f 2/17/57 8/18/58 17/34/59 18/33/60
f 68/143/61 69/146/62 6/19/63 19/35/64
f 6/19/65 4/20/66 20/36/67 19/35/68
f 66/140/69 67/141/70 20/36/71 4/20/72
f 7/21/73 1/22/74 22/38/75 21/37/76
f 62/132/77 63/133/78 3/23/79 23/39/80
f 3/23/81 5/24/82 24/40/83 23/39/84
f 72/151/85 61/130/86 24/40/87 5/24/88
f 21/53/89 22/54/90 26/59/91 25/57/92
f 22/38/93 1/22/94 27/61/95 26/60/96
f 1/1/97 9/25/98 28/63/99 27/62/100
f 29/65/101 28/64/102 9/41/103 10/42/104
f 10/26/105 2/2/106 30/67/107 29/66/108
f 2/17/109 18/33/110 31/69/111 30/68/112
f 18/49/113 17/50/114 32/72/115 31/70/116
f 17/34/117 8/18/118 33/74/119 32/71/120
f 8/11/121 15/31/122 34/76/123 33/73/124
f 15/47/125 16/48/126 35/78/127 34/75/128
f 16/32/129 7/12/130 36/80/131 35/77/132
f 7/21/133 21/37/134 25/58/135 36/79/136
f 25/57/137 26/59/138 38/83/139 37/81/140
f 26/60/141 27/61/142 39/85/143 38/84/144
f 27/62/145 28/63/146 40/87/147 39/86/148
f 41/89/149 40/88/150 28/64/151 29/65/152
f 29/66/153 30/67/154 42/91/155 41/90/156
f 30/68/157 31/69/158 43/93/159 42/92/160
f 31/70/161 32/72/162 44/96/163 43/94/164
f 32/71/165 33/74/166 45/98/167 44/95/168
f 33/73/169 34/76/170 46/100/171 45/97/172
f 34/75/173 35/78/174 47/102/175 46/99/176
f 35/77/177 36/80/178 48/104/179 47/101/180
f 36/79/181 25/58/182 37/82/183 48/103/184
f 37/81/185 38/83/186 50/107/187 49/105/188
f 38/84/189 39/85/190 51/109/191 50/108/192
f 39/86/193 40/87/194 52/111/195 51/110/196
f 53/113/197 52/112/198 40/88/199 41/89/200
f 41/90/201 42/91/202 54/115/203 53/114/204
f 42/92/205 43/93/206 55/117/207 54/116/208
f 43/94/209 44/96/210 56/120/211 55/118/212
f 44/95/213 45/98/214 57/122/215 56/119/216
f 45/97/217 46/100/218 58/124/219 57/121/220
f 46/99/221 47/102/222 59/126/223 58/123/224
f 47/101/225 48/104/226 60/128/227 59/125/228
f 48/103/229 37/82/230 49/106/231 60/127/232
f 49/105/233 50/107/234 62/131/235 61/129/236
f 50/108/237 51/109/238 63/133/239 62/132/240
f 51/110/241 52/111/242 64/135/243 63/134/244
f 65/137/245 64/136/246 52/112/247 53/113/248
f 53/114/249 54/115/250 66/139/251 65/138/252
f 54/116/253 55/117/254 67/141/255 66/140/256
f 55/118/257 56/120/258 68/144/259 67/142/260
f 56/119/261 57/122/262 69/146/263 68/143/264
f 57/121/265 58/124/266 70/148/267 69/145/268
f 58/123/269 59/126/270 71/150/271 70/147/272
f 59/125/273 60/128/274 72/152/275 71/149/276
f 60/127/277 49/106/278 61/130/279 72/151/280
