# This file uses meters as units for non-parametric coordinates.

v -401.729584 0.000000 247.048096
v 401.729584 0.000000 247.048096
v -401.729584 4197.465820 247.048096
v 401.729584 4197.465820 247.048096
v -401.729584 4197.465820 -547.585693
v 401.729584 4197.465820 -547.585693
v -401.729584 0.000000 -547.585693
v 401.729584 0.000000 -547.585693
v -348.165283 58.828453 247.048096
v 348.165283 58.828453 247.048096
v 348.165283 4138.637207 247.048096
v -348.165283 4138.637207 247.048096
v -348.165283 4138.637207 -547.585693
v 348.165283 4138.637207 -547.585693
v 348.165283 58.828453 -547.585693
v -348.165283 58.828453 -547.585693
v 401.729584 58.828453 -514.645569
v 401.729584 58.828453 214.108414
v 401.729584 4138.637207 -514.645569
v 401.729584 4138.637207 214.108414
v -401.729584 58.828453 -514.645569
v -401.729584 58.828453 214.108414
v -401.729584 4138.637207 214.108414
v -401.729584 4138.637207 -514.645569
v -348.165283 3076.879395 247.048065
v -401.729584 3076.879395 247.048096
v -401.729584 3076.879395 214.108414
v -401.729584 3076.879395 -514.645569
v -401.729584 3076.879395 -547.585632
v -348.165283 3076.879395 -547.585693
v 348.165283 3076.879395 -547.585693
v 401.729584 3076.879395 -547.585632
v 401.729584 3076.879395 -514.645569
v 401.729584 3076.879395 214.108414
v 401.729584 3076.879395 247.048096
v 348.165283 3076.879395 247.048065
vt 0.604394 0.974606
vt 0.604394 0.974606
vt 0.604394 0.974606
vt 0.604394 0.974606
vt 0.604394 0.974606
vt 0.604394 0.974606
vt 0.604394 0.974606
vt 0.604394 0.974606
vt 0.604394 0.974606
vt 0.604394 0.974606
vt 0.604394 0.974606
vt 0.604394 0.974606
vt 0.604394 0.974606
vt 0.604394 0.974606
vt 0.604394 0.974606
vt 0.604394 0.974606
vt 0.604394 0.974606
vt 0.604394 0.974606
vt 0.604394 0.974606
vt 0.604394 0.974606
vt 0.604394 0.974606
vt 0.604394 0.974606
vt 0.604394 0.974606
vt 0.604394 0.974606
vt 0.604394 0.974606
vt 0.604394 0.974606
vt 0.604394 0.974606
vt 0.604394 0.974606
vt 0.604394 0.974606
vt 0.604394 0.974606
vt 0.604394 0.974606
vt 0.604394 0.974606
vt 0.604394 0.974606
vt 0.604394 0.974606
vt 0.604394 0.974606
vt 0.604394 0.974606
vt 0.604394 0.974606
vt 0.604394 0.974606
vt 0.604394 0.974606
vt 0.604394 0.974606
vt -0.009744 -1.925285
vt 1.014379 -1.925285
vt -0.588564 2.363648
vt 0.435560 2.363648
vt -0.588564 2.363648
vt 0.435559 2.363648
vt -0.009744 -1.925285
vt 1.014379 -1.925285
vt -0.012677 -1.925285
vt 1.012808 -1.925285
vt -0.598020 2.363648
vt 0.438492 2.363648
vt -0.012677 -1.925285
vt 1.012808 -1.925285
vt -0.598020 2.363648
vt 0.438492 2.363648
vt 0.604394 0.974606
vt -0.009744 2.071985
vt 0.604394 0.974606
vt 0.604394 0.974606
vt -0.598020 0.957397
vt 0.604394 0.974606
vt 0.438492 0.957397
vt 0.604394 0.974606
vt 0.604394 0.974606
vt 0.604394 0.974606
vt 0.604394 0.974606
vt -0.588564 0.957397
vt 0.435559 0.957397
vt 0.604394 0.974606
vt 0.604394 0.974606
vt 0.604394 0.974606
vt 0.604394 0.974606
vt -0.598020 0.957397
vt 0.604394 0.974606
vt 0.438492 0.957397
vt 0.604394 0.974606
vt 0.604394 0.974606
vt -0.588564 0.957397
vt 0.604394 0.974606
vt 1.014379 2.071985
vt 0.435560 0.957397
vt 1.012808 2.071985
vt -0.012677 2.071985
vt 1.014379 2.071985
vt -0.009744 2.071985
vt 1.012808 2.071985
vt -0.012677 2.071985
vn 0.000000 0.000000 1.000000
vn -0.000000 0.000000 1.000000
vn -0.000000 0.000000 1.000000
vn 0.000000 0.000000 1.000000
vn 0.000000 1.000000 0.000000
vn 0.000000 1.000000 0.000000
vn 0.000000 1.000000 0.000000
vn 0.000000 1.000000 0.000000
vn -0.000000 -0.000000 -1.000000
vn 0.000000 -0.000000 -1.000000
vn 0.000000 0.000000 -1.000000
vn -0.000000 0.000000 -1.000000
vn 0.000000 -1.000000 0.000000
vn 0.000000 -1.000000 0.000000
vn 0.000000 -1.000000 0.000000
vn 0.000000 -1.000000 0.000000
vn 1.000000 -0.000000 0.000000
vn 1.000000 -0.000000 0.000000
vn 1.000000 0.000000 0.000000
vn 1.000000 0.000000 0.000000
vn -1.000000 0.000000 0.000000
vn -1.000000 0.000000 0.000000
vn -1.000000 0.000000 0.000000
vn -1.000000 0.000000 0.000000
vn 0.000000 0.000000 1.000000
vn -0.000000 0.000000 1.000000
vn -0.000000 0.000000 1.000000
vn 0.000000 0.000000 1.000000
vn -0.000000 0.000000 1.000000
vn -0.000000 0.000000 1.000000
vn -0.000000 0.000000 1.000000
vn -0.000000 0.000000 1.000000
vn -0.000000 -0.000000 1.000000
vn 0.000000 -0.000000 1.000000
vn 0.000000 -0.000000 1.000000
vn -0.000000 -0.000000 1.000000
vn 0.000000 0.000000 1.000000
vn 0.000000 0.000000 1.000000
vn 0.000000 0.000000 1.000000
vn 0.000000 0.000000 1.000000
vn 0.000001 -0.000000 -1.000000
vn -0.000000 -0.000000 -1.000000
vn -0.000000 -0.000000 -1.000000
vn 0.000000 -0.000000 -1.000000
vn 0.000000 -0.000000 -1.000000
vn 0.000001 0.000000 -1.000000
vn 0.000000 0.000000 -1.000000
vn 0.000000 -0.000000 -1.000000
vn 0.000001 0.000000 -1.000000
vn -0.000001 0.000000 -1.000000
vn -0.000000 0.000000 -1.000000
vn 0.000000 0.000000 -1.000000
vn -0.000001 0.000000 -1.000000
vn -0.000000 -0.000000 -1.000000
vn -0.000000 -0.000000 -1.000000
vn -0.000000 0.000000 -1.000000
vn 1.000000 -0.000000 0.000000
vn 1.000000 -0.000000 0.000000
vn 1.000000 -0.000000 0.000000
vn 1.000000 -0.000000 0.000000
vn 1.000000 -0.000000 0.000000
vn 1.000000 0.000000 0.000000
vn 1.000000 0.000000 0.000000
vn 1.000000 -0.000000 0.000000
vn 1.000000 -0.000000 0.000000
vn 1.000000 -0.000000 0.000000
vn 1.000000 -0.000000 0.000000
vn 1.000000 -0.000000 0.000000
vn 1.000000 0.000000 0.000000
vn 1.000000 -0.000000 0.000000
vn 1.000000 -0.000000 0.000000
vn 1.000000 0.000000 0.000000
vn -1.000000 0.000000 0.000000
vn -1.000000 0.000000 0.000000
vn -1.000000 0.000000 0.000000
vn -1.000000 0.000000 0.000000
vn -1.000000 0.000000 0.000000
vn -1.000000 0.000000 0.000000
vn -1.000000 0.000000 0.000000
vn -1.000000 0.000000 0.000000
vn -1.000000 0.000000 0.000000
vn -1.000000 0.000000 0.000000
vn -1.000000 0.000000 0.000000
vn -1.000000 0.000000 0.000000
vn -1.000000 0.000000 0.000000
vn -1.000000 0.000000 0.000000
vn -1.000000 0.000000 0.000000
vn -1.000000 0.000000 0.000000
vn 0.000000 -0.000000 1.000000
vn 0.000000 0.000000 1.000000
vn 0.000000 0.000000 1.000000
vn 0.000000 -0.000000 1.000000
vn -1.000000 0.000000 0.000000
vn -1.000000 0.000000 0.000000
vn -1.000000 0.000000 0.000000
vn -1.000000 0.000000 0.000000
vn -1.000000 0.000000 0.000000
vn -1.000000 0.000000 0.000000
vn -1.000000 0.000000 0.000000
vn -1.000000 0.000000 0.000000
vn -1.000000 0.000000 0.000000
vn -1.000000 0.000000 0.000000
vn -1.000000 0.000000 0.000000
vn -1.000000 0.000000 0.000000
vn -0.000000 -0.000000 -1.000000
vn -0.000000 -0.000000 -1.000000
vn 0.000001 -0.000000 -1.000000
vn 0.000000 -0.000000 -1.000000
vn 0.000000 -0.000000 -1.000000
vn -0.000000 -0.000000 -1.000000
vn 0.000000 -0.000000 -1.000000
vn -0.000000 -0.000000 -1.000000
vn -0.000000 -0.000000 -1.000000
vn 0.000000 -0.000000 -1.000000
vn 0.000000 -0.000000 -1.000000
vn -0.000000 -0.000000 -1.000000
vn 1.000000 0.000000 0.000000
vn 1.000000 0.000000 0.000000
vn 1.000000 -0.000000 0.000000
vn 1.000000 -0.000000 0.000000
vn 1.000000 0.000000 0.000000
vn 1.000000 0.000000 0.000000
vn 1.000000 -0.000000 0.000000
vn 1.000000 -0.000000 0.000000
vn 1.000000 -0.000000 0.000000
vn 1.000000 0.000000 0.000000
vn 1.000000 0.000000 0.000000
vn 1.000000 -0.000000 0.000000
vn -0.000000 0.000000 1.000000
vn -0.000000 0.000000 1.000000
vn -0.000000 -0.000000 1.000000
vn -0.000000 -0.000000 1.000000
vn 0.000000 0.000000 1.000000
vn -0.000000 0.000000 1.000000
vn -0.000000 -0.000000 1.000000
vn 0.000000 -0.000000 1.000000
s off
f 9/41/1 10/42/2 36/81/3 25/58/4
f 3/5/5 4/6/6 6/7/7 5/8/8
f 30/85/9 31/86/10 15/47/11 16/48/12
f 7/13/13 8/14/14 2/15/15 1/16/16
f 18/49/17 17/50/18 33/83/19 34/84/20
f 21/53/21 22/54/22 27/87/23 28/88/24
f 1/1/25 2/2/26 10/26/27 9/25/28
f 2/2/29 35/77/30 36/80/31 10/26/32
f 4/3/33 3/4/34 12/28/35 11/27/36
f 26/60/37 1/1/38 9/25/39 25/57/40
f 5/9/41 6/10/42 14/30/43 13/29/44
f 32/71/45 8/11/46 15/31/47 31/70/48
f 8/11/49 7/12/50 16/32/51 15/31/52
f 7/12/53 29/66/54 30/67/55 16/32/56
f 2/17/57 8/18/58 17/34/59 18/33/60
f 8/18/61 32/72/62 33/73/63 17/34/64
f 6/19/65 4/20/66 20/36/67 19/35/68
f 35/78/69 2/17/70 18/33/71 34/75/72
f 7/21/73 1/22/74 22/38/75 21/37/76
f 1/22/77 26/59/78 27/62/79 22/38/80
f 3/23/81 5/24/82 24/40/83 23/39/84
f 29/65/85 7/21/86 21/37/87 28/64/88
f 3/4/89 26/60/90 25/57/91 12/28/92
f 27/62/93 26/59/94 3/23/95 23/39/96
f 28/63/97 27/61/98 23/55/99 24/56/100
f 5/24/101 29/65/102 28/64/103 24/40/104
f 30/67/105 29/66/106 5/9/107 13/29/108
f 13/45/109 14/46/110 31/69/111 30/68/112
f 6/10/113 32/71/114 31/70/115 14/30/116
f 33/73/117 32/72/118 6/19/119 19/35/120
f 34/76/121 33/74/122 19/51/123 20/52/124
f 4/20/125 35/78/126 34/75/127 20/36/128
f 36/80/129 35/77/130 4/3/131 11/27/132
f 25/82/133 36/79/134 11/43/135 12/44/136
