# This file uses meters as units for non-parametric coordinates.

v -248.824371 0.000000 150.298309
v -150.299500 0.000000 248.824310
v -248.824371 2547.487549 150.298309
v -150.299500 2547.487549 248.824310
v 248.823898 0.000000 150.298309
v 150.299026 0.000000 248.824310
v 248.823898 2547.487549 150.298309
v 150.299026 2547.487549 248.824310
v -248.824371 2547.487549 -150.298309
v -150.299500 2547.487549 -248.823944
v -248.824371 0.000000 -150.298309
v -150.299500 0.000000 -248.823944
v 150.299026 2547.487549 -248.823944
v 248.823898 2547.487549 -150.298309
v 248.823898 0.000000 -150.298309
v 150.299026 0.000000 -248.823944
v -134.160599 2518.828125 248.824310
v -134.160599 28.659357 248.824310
v 134.160141 28.659357 248.824310
v 134.160141 2518.828125 248.824310
v -134.160599 28.659357 -248.823944
v -134.160599 2518.828125 -248.823944
v 134.160141 2518.828125 -248.823944
v 134.160141 28.659357 -248.823944
v 248.823898 2518.828125 136.418915
v 248.823898 28.659357 136.418915
v 248.823898 28.659357 -136.419022
v 248.823898 2518.828125 -136.419022
v -248.824371 2518.828125 -136.419022
v -248.824371 28.659357 -136.419022
v -248.824371 28.659357 136.418915
v -248.824371 2518.828125 136.418915
v -158.091400 28.659357 241.032211
v -241.032455 28.659357 158.090408
v -158.091400 2518.828125 241.032211
v -241.032455 2518.828125 158.090408
v 241.032013 28.659357 158.090408
v 158.090912 28.659357 241.032211
v 241.032013 2518.828125 158.090408
v 158.090912 2518.828125 241.032211
v -158.091400 2518.828125 -241.032227
v -241.032455 2518.828125 -158.090027
v -158.091400 28.659357 -241.032227
v -241.032455 28.659357 -158.090027
v 241.032013 2518.828125 -158.090027
v 158.090912 2518.828125 -241.032227
v 241.032013 28.659357 -158.090027
v 158.090912 28.659357 -241.032227
vt 0.603786 0.962580
vt 0.603786 0.962580
vt 0.603786 0.962580
vt 0.603786 0.962580
vt 0.603786 0.962580
vt 0.603786 0.962580
vt 0.603786 0.962580
vt 0.603786 0.962580
vt 0.603786 0.962580
vt 0.603786 0.962580
vt 0.603786 0.962580
vt 0.603786 0.962580
vt 0.603786 0.962580
vt 0.603786 0.962580
vt 0.603786 0.962580
vt 0.603786 0.962580
vt 0.603786 0.962580
vt 0.603786 0.962580
vt 0.603786 0.962580
vt 0.603786 0.962580
vt 0.603786 0.962580
vt 0.603786 0.962580
vt 0.603786 0.962580
vt 0.603786 0.962580
vt 0.603786 0.962580
vt 0.603786 0.962580
vt 0.603786 0.962580
vt 0.603786 0.962580
vt 0.603786 0.962580
vt 0.603786 0.962580
vt 0.603786 0.962580
vt 0.603786 0.962580
vt 0.603786 0.962580
vt 0.603786 0.962580
vt 0.603786 0.962580
vt 0.603786 0.962580
vt 0.603786 0.962580
vt 0.603786 0.962580
vt 0.603786 0.962580
vt 0.603786 0.962580
vt 0.603786 0.962580
vt 0.603786 0.962580
vt 0.603786 0.962580
vt 0.603786 0.962580
vt 0.603786 0.962580
vt 0.603786 0.962580
vt 0.603786 0.962580
vt 0.603786 0.962580
vt 0.603786 0.962580
vt 0.603786 0.962580
vt 0.603786 0.962580
vt 0.603786 0.962580
vt 0.603786 0.962580
vt 0.603786 0.962580
vt 0.603786 0.962580
vt 0.603786 0.962580
vt 0.603786 0.962580
vt 0.603786 0.962580
vt 0.204234 2.020854
vt 0.204234 -1.020854
vt 0.594533 -1.020855
vt 0.594533 2.020854
vt 0.594533 -1.020855
vt 0.594533 2.020854
vt 0.204234 2.020854
vt 0.204234 -1.020855
vt 0.204234 2.020854
vt 0.204234 -1.020854
vt 0.594533 -1.020855
vt 0.594533 2.020854
vt 0.204234 2.020854
vt 0.204234 -1.020854
vt 0.594533 -1.020855
vt 0.594533 2.020854
vt 0.416046 -1.020746
vt 0.583954 -1.020746
vt 0.583954 2.020746
vt 0.416046 2.020746
vt 0.416046 -1.020746
vt 0.583954 -1.020746
vt 0.583954 2.020746
vt 0.416046 2.020746
vt 0.583954 2.020746
vt 0.416046 2.020746
vt 0.416046 -1.020746
vt 0.583954 -1.020746
vt 0.583954 2.020746
vt 0.416046 2.020746
vt 0.416046 -1.020746
vt 0.583954 -1.020746
vn 0.000000 0.000000 1.000000
vn 0.000000 0.000000 1.000000
vn 0.000000 0.000000 1.000000
vn 0.000000 0.000000 1.000000
vn -0.000000 0.000000 -1.000000
vn -0.000000 0.000000 -1.000000
vn 0.000000 0.000000 -1.000000
vn 0.000000 0.000000 -1.000000
vn 1.000000 -0.000000 0.000000
vn 1.000000 -0.000000 0.000000
vn 1.000000 -0.000000 0.000000
vn 1.000000 -0.000000 0.000000
vn -1.000000 0.000000 0.000000
vn -1.000000 -0.000000 0.000000
vn -1.000000 -0.000000 0.000000
vn -1.000000 0.000000 0.000000
vn 0.000000 1.000000 -0.000000
vn 0.000000 1.000000 -0.000000
vn 0.000000 1.000000 -0.000000
vn 0.000000 1.000000 -0.000000
vn 0.000000 1.000000 -0.000000
vn 0.000000 1.000000 -0.000000
vn 0.000000 1.000000 -0.000000
vn 0.000000 1.000000 -0.000000
vn 0.000000 -1.000000 0.000000
vn 0.000000 -1.000000 0.000000
vn 0.000000 -1.000000 0.000000
vn 0.000000 -1.000000 0.000000
vn 0.000000 -1.000000 0.000000
vn 0.000000 -1.000000 0.000000
vn 0.000000 -1.000000 0.000000
vn 0.000000 -1.000000 0.000000
vn -0.707111 0.000000 0.707103
vn -0.707111 0.000000 0.707103
vn -0.707111 -0.000000 0.707103
vn -0.707111 -0.000000 0.707103
vn 0.707111 -0.000000 0.707103
vn 0.707111 -0.000000 0.707103
vn 0.707111 0.000000 0.707103
vn 0.707111 0.000000 0.707103
vn -0.707110 -0.000000 -0.707104
vn -0.707110 -0.000000 -0.707104
vn -0.707110 0.000000 -0.707104
vn -0.707110 0.000000 -0.707104
vn 0.707110 0.000000 -0.707104
vn 0.707110 0.000000 -0.707104
vn 0.707110 0.000000 -0.707104
vn 0.707110 0.000000 -0.707104
vn 0.000000 0.000000 1.000000
vn 0.000000 0.000000 1.000000
vn 0.000000 0.000000 1.000000
vn 0.000000 0.000000 1.000000
vn 0.000000 0.000000 1.000000
vn 0.000000 0.000000 1.000000
vn 0.000000 0.000000 1.000000
vn 0.000000 0.000000 1.000000
vn 0.000000 0.000000 1.000000
vn 0.000000 0.000000 1.000000
vn 0.000000 0.000000 1.000000
vn 0.000000 0.000000 1.000000
vn 0.000000 0.000000 1.000000
vn 0.000000 0.000000 1.000000
vn 0.000000 0.000000 1.000000
vn 0.000000 0.000000 1.000000
vn -0.000000 0.000000 -1.000000
vn -0.000000 0.000000 -1.000000
vn -0.000000 0.000000 -1.000000
vn -0.000000 0.000000 -1.000000
vn -0.000000 0.000000 -1.000000
vn 0.000000 0.000000 -1.000000
vn 0.000000 0.000000 -1.000000
vn -0.000000 0.000000 -1.000000
vn 0.000000 0.000000 -1.000000
vn 0.000000 0.000000 -1.000000
vn 0.000000 0.000000 -1.000000
vn 0.000000 0.000000 -1.000000
vn 0.000000 0.000000 -1.000000
vn -0.000000 0.000000 -1.000000
vn -0.000000 0.000000 -1.000000
vn 0.000000 0.000000 -1.000000
vn 1.000000 -0.000000 0.000000
vn 1.000000 -0.000000 0.000000
vn 1.000000 -0.000000 0.000000
vn 1.000000 -0.000000 0.000000
vn 1.000000 -0.000000 0.000000
vn 1.000000 -0.000000 0.000000
vn 1.000000 -0.000000 0.000000
vn 1.000000 -0.000000 0.000000
vn 1.000000 -0.000000 0.000000
vn 1.000000 -0.000000 0.000000
vn 1.000000 -0.000000 0.000000
vn 1.000000 -0.000000 0.000000
vn 1.000000 -0.000000 0.000000
vn 1.000000 -0.000000 0.000000
vn 1.000000 -0.000000 0.000000
vn 1.000000 -0.000000 0.000000
vn -1.000000 0.000000 0.000000
vn -1.000000 -0.000000 0.000000
vn -1.000000 -0.000000 0.000000
vn -1.000000 0.000000 0.000000
vn -1.000000 -0.000000 0.000000
vn -1.000000 -0.000000 0.000000
vn -1.000000 -0.000000 0.000000
vn -1.000000 -0.000000 0.000000
vn -1.000000 -0.000000 0.000000
vn -1.000000 0.000000 0.000000
vn -1.000000 0.000000 0.000000
vn -1.000000 -0.000000 0.000000
vn -1.000000 0.000000 0.000000
vn -1.000000 0.000000 0.000000
vn -1.000000 0.000000 0.000000
vn -1.000000 0.000000 0.000000
vn -0.707114 0.000000 0.707100
vn -0.707114 0.000000 0.707100
vn -0.707111 0.000000 0.707103
vn -0.707111 0.000000 0.707103
vn -0.707114 0.000000 0.707100
vn -0.707114 -0.000000 0.707100
vn -0.707111 -0.000000 0.707103
vn -0.707111 0.000000 0.707103
vn -0.707114 -0.000000 0.707100
vn -0.707114 -0.000000 0.707100
vn -0.707111 -0.000000 0.707103
vn -0.707111 -0.000000 0.707103
vn -0.707114 -0.000000 0.707100
vn -0.707114 0.000000 0.707100
vn -0.707111 0.000000 0.707103
vn -0.707111 -0.000000 0.707103
vn 0.707114 -0.000000 0.707099
vn 0.707115 -0.000000 0.707099
vn 0.707111 -0.000000 0.707103
vn 0.707111 -0.000000 0.707103
vn 0.707115 -0.000000 0.707099
vn 0.707114 0.000000 0.707099
vn 0.707111 0.000000 0.707103
vn 0.707111 -0.000000 0.707103
vn 0.707114 0.000000 0.707099
vn 0.707114 0.000000 0.707100
vn 0.707111 0.000000 0.707103
vn 0.707111 0.000000 0.707103
vn 0.707114 0.000000 0.707100
vn 0.707114 -0.000000 0.707099
vn 0.707111 -0.000000 0.707103
vn 0.707111 0.000000 0.707103
vn -0.707102 -0.000000 -0.707112
vn -0.707101 -0.000000 -0.707113
vn -0.707110 -0.000000 -0.707104
vn -0.707110 -0.000000 -0.707104
vn -0.707101 -0.000000 -0.707113
vn -0.707101 0.000000 -0.707112
vn -0.707110 0.000000 -0.707104
vn -0.707110 -0.000000 -0.707104
vn -0.707101 0.000000 -0.707112
vn -0.707102 0.000000 -0.707112
vn -0.707110 0.000000 -0.707104
vn -0.707110 0.000000 -0.707104
vn -0.707102 0.000000 -0.707112
vn -0.707102 -0.000000 -0.707112
vn -0.707110 -0.000000 -0.707104
vn -0.707110 0.000000 -0.707104
vn 0.707102 0.000000 -0.707112
vn 0.707102 0.000000 -0.707111
vn 0.707110 0.000000 -0.707104
vn 0.707110 0.000000 -0.707104
vn 0.707102 0.000000 -0.707111
vn 0.707102 0.000000 -0.707111
vn 0.707110 0.000000 -0.707104
vn 0.707110 0.000000 -0.707104
vn 0.707102 0.000000 -0.707111
vn 0.707102 0.000000 -0.707112
vn 0.707110 0.000000 -0.707104
vn 0.707110 0.000000 -0.707104
vn 0.707102 0.000000 -0.707112
vn 0.707102 0.000000 -0.707112
vn 0.707110 0.000000 -0.707104
vn 0.707110 0.000000 -0.707104
s off
f 17/59/1 18/60/2 19/61/3 20/62/4
f 21/63/5 22/64/6 23/65/7 24/66/8
f 25/67/9 26/68/10 27/69/11 28/70/12
f 29/71/13 30/72/14 31/73/15 32/74/16
f 3/1/17 4/9/18 8/22/19 7/2/20 14/25/21 13/15/22 10/23/23 9/3/24
f 11/24/25 12/14/26 16/26/27 15/4/28 5/5/29 6/6/30 2/7/31 1/8/32
f 34/75/33 33/76/34 35/77/35 36/78/36
f 38/79/37 37/80/38 39/81/39 40/82/40
f 42/83/41 41/84/42 43/85/43 44/86/44
f 46/87/45 45/88/46 47/89/47 48/90/48
f 4/9/49 2/19/50 18/28/51 17/27/52
f 2/19/53 6/10/54 19/29/55 18/28/56
f 6/10/57 8/22/58 20/30/59 19/29/60
f 8/22/61 4/9/62 17/27/63 20/30/64
f 12/14/65 10/23/66 22/32/67 21/31/68
f 10/23/69 13/15/70 23/33/71 22/32/72
f 13/15/73 16/26/74 24/34/75 23/33/76
f 16/26/77 12/14/78 21/31/79 24/34/80
f 7/16/81 5/21/82 26/36/83 25/35/84
f 5/21/85 15/17/86 27/37/87 26/36/88
f 15/17/89 14/18/90 28/38/91 27/37/92
f 14/18/93 7/16/94 25/35/95 28/38/96
f 9/11/97 11/12/98 30/40/99 29/39/100
f 11/12/101 1/13/102 31/41/103 30/40/104
f 1/13/105 3/20/106 32/42/107 31/41/108
f 3/20/109 9/11/110 29/39/111 32/42/112
f 1/13/113 2/19/114 33/44/115 34/43/116
f 2/19/117 4/9/118 35/45/119 33/44/120
f 4/9/121 3/20/122 36/46/123 35/45/124
f 3/20/125 1/13/126 34/43/127 36/46/128
f 6/10/129 5/21/130 37/48/131 38/47/132
f 5/21/133 7/16/134 39/49/135 37/48/136
f 7/16/137 8/22/138 40/50/139 39/49/140
f 8/22/141 6/10/142 38/47/143 40/50/144
f 9/3/145 10/23/146 41/52/147 42/51/148
f 10/23/149 12/14/150 43/53/151 41/52/152
f 12/14/153 11/24/154 44/54/155 43/53/156
f 11/24/157 9/3/158 42/51/159 44/54/160
f 13/15/161 14/25/162 45/56/163 46/55/164
f 14/25/165 15/4/166 47/57/167 45/56/168
f 15/4/169 16/26/170 48/58/171 47/57/172
f 16/26/173 13/15/174 46/55/175 48/58/176
