# This file uses meters as units for non-parametric coordinates.

v 146.998428 0.000000 -254.608490
v -146.998199 0.000000 -254.608490
v -293.996521 0.000000 -0.000015
v -146.998322 0.000000 254.608490
v 146.998215 0.000000 254.608490
v 293.996613 0.000000 0.000000
v 146.998428 1786.256592 -254.608490
v -146.998199 1786.256592 -254.608490
v -293.996521 1786.256592 -0.000015
v -146.998322 1786.256592 254.608490
v 146.998215 1786.256592 254.608490
v 293.996613 1786.256592 0.000000
v 0.000000 0.000000 0.000000
v 0.000000 1786.256592 0.000000
v 124.948601 28.614347 -254.608490
v -124.948471 28.614347 -254.608490
v -124.948471 1757.642212 -254.608490
v 124.948601 1757.642212 -254.608490
v -158.023117 28.614347 -235.512772
v -282.971710 28.614347 -19.095722
v -282.971710 1757.642212 -19.095722
v -158.023117 1757.642212 -235.512772
v -282.971710 28.614347 19.095694
v -158.023148 28.614347 235.512772
v -158.023148 1757.642212 235.512772
v -282.971710 1757.642212 19.095694
v -124.948601 28.614347 254.608490
v 124.948578 28.614347 254.608490
v 124.948578 1757.642212 254.608490
v -124.948601 1757.642212 254.608490
v 158.023224 28.614347 235.512772
v 282.971619 28.614347 19.095707
v 282.971619 1757.642212 19.095707
v 158.023224 1757.642212 235.512772
v 282.971619 28.614347 -19.095707
v 158.023254 28.614347 -235.512772
v 158.023254 1757.642212 -235.512772
v 282.971619 1757.642212 -19.095707
vt 0.607356 0.963306
vt 0.607356 0.963306
vt 0.607356 0.963306
vt 0.607356 0.963306
vt 0.607356 0.963306
vt 0.607356 0.963306
vt 0.607356 0.963306
vt 0.607356 0.963306
vt 0.607356 0.963306
vt 0.607356 0.963306
vt 0.607356 0.963306
vt 0.607356 0.963306
vt 0.607356 0.963306
vt 0.607356 0.963306
vt 0.607356 0.963306
vt 0.607356 0.963306
vt 0.607356 0.963306
vt 0.607356 0.963306
vt 0.607356 0.963306
vt 0.607356 0.963306
vt 0.607356 0.963306
vt 0.607356 0.963306
vt 0.607356 0.963306
vt 0.607356 0.963306
vt 0.607356 0.963306
vt 0.607356 0.963306
vt 0.607356 0.963306
vt 0.607356 0.963306
vt 0.607356 0.963306
vt 0.607356 0.963306
vt 0.607356 0.963306
vt 0.607356 0.963306
vt 0.607356 0.963306
vt 0.607356 0.963306
vt 0.607356 0.963306
vt 0.607356 0.963306
vt 0.607356 0.963306
vt 0.607356 0.963306
vt 0.607356 0.963306
vt 0.607356 0.963306
vt 0.607356 0.963306
vt 0.607356 0.963306
vt 0.607356 0.963306
vt 0.607356 0.963306
vt 0.607356 0.963306
vt 0.607356 0.963306
vt 0.607356 0.963306
vt 0.607356 0.963306
vt 0.607356 0.963306
vt 0.607356 0.963306
vt 0.607356 0.963306
vt 0.607356 0.963306
vt 0.598146 -0.690958
vt 1.002704 -0.690958
vt 1.002704 1.785518
vt 0.598146 1.785518
vt 0.199343 -0.690958
vt 0.603902 -0.690958
vt 0.603902 1.785518
vt 0.199343 1.785518
vt 0.598146 -0.690958
vt 1.002704 -0.690958
vt 1.002704 1.785518
vt 0.598146 1.785518
vt 0.199343 -0.690958
vt 0.603902 -0.690958
vt 0.603902 1.785518
vt 0.199343 1.785518
vt 0.598146 -0.690958
vt 1.002704 -0.690958
vt 1.002704 1.785518
vt 0.598146 1.785518
vt 0.199343 -0.690958
vt 0.603902 -0.690958
vt 0.603902 1.785518
vt 0.199343 1.785518
vn -0.000000 0.000000 -1.000000
vn 0.000000 0.000000 -1.000000
vn 0.000000 0.000000 -1.000000
vn -0.000000 0.000000 -1.000000
vn -0.866025 -0.000000 -0.500000
vn -0.866025 -0.000000 -0.500000
vn -0.866025 0.000000 -0.500000
vn -0.866025 0.000000 -0.500000
vn -0.866026 -0.000000 0.500000
vn -0.866026 -0.000000 0.500000
vn -0.866026 0.000000 0.500000
vn -0.866026 0.000000 0.500000
vn 0.000000 0.000000 1.000000
vn -0.000000 0.000000 1.000000
vn -0.000000 0.000000 1.000000
vn 0.000000 0.000000 1.000000
vn 0.866025 -0.000000 0.500000
vn 0.866025 -0.000000 0.500000
vn 0.866025 0.000000 0.500000
vn 0.866025 0.000000 0.500000
vn 0.866025 0.000000 -0.500000
vn 0.866026 0.000000 -0.499999
vn 0.866026 -0.000000 -0.499999
vn 0.866025 -0.000000 -0.500000
vn 0.000000 -1.000000 0.000000
vn 0.000000 -1.000000 0.000000
vn 0.000000 -1.000000 0.000000
vn 0.000000 -1.000000 0.000000
vn 0.000000 -1.000000 0.000000
vn 0.000000 -1.000000 0.000000
vn 0.000000 -1.000000 0.000000
vn 0.000000 -1.000000 0.000000
vn 0.000000 -1.000000 0.000000
vn 0.000000 -1.000000 0.000000
vn 0.000000 -1.000000 0.000000
vn 0.000000 -1.000000 0.000000
vn 0.000000 -1.000000 0.000000
vn 0.000000 -1.000000 0.000000
vn 0.000000 -1.000000 0.000000
vn 0.000000 -1.000000 0.000000
vn 0.000000 -1.000000 0.000000
vn 0.000000 -1.000000 0.000000
vn 0.000000 1.000000 0.000000
vn 0.000000 1.000000 0.000000
vn 0.000000 1.000000 0.000000
vn 0.000000 1.000000 0.000000
vn 0.000000 1.000000 -0.000000
vn 0.000000 1.000000 0.000000
vn 0.000000 1.000000 -0.000000
vn 0.000000 1.000000 0.000000
vn 0.000000 1.000000 0.000000
vn 0.000000 1.000000 0.000000
vn 0.000000 1.000000 0.000000
vn 0.000000 1.000000 0.000000
vn 0.000000 1.000000 0.000000
vn 0.000000 1.000000 0.000000
vn 0.000000 1.000000 0.000000
vn 0.000000 1.000000 0.000000
vn 0.000000 1.000000 0.000000
vn 0.000000 1.000000 0.000000
vn -0.000000 0.000000 -1.000000
vn 0.000000 0.000000 -1.000000
vn 0.000000 0.000000 -1.000000
vn -0.000000 0.000000 -1.000000
vn 0.000000 0.000000 -1.000000
vn 0.000000 0.000000 -1.000000
vn 0.000000 0.000000 -1.000000
vn 0.000000 0.000000 -1.000000
vn 0.000000 0.000000 -1.000000
vn -0.000000 0.000000 -1.000000
vn -0.000000 0.000000 -1.000000
vn 0.000000 0.000000 -1.000000
vn -0.000000 0.000000 -1.000000
vn -0.000000 0.000000 -1.000000
vn -0.000000 0.000000 -1.000000
vn -0.000000 0.000000 -1.000000
vn -0.866026 -0.000000 -0.500000
vn -0.866027 -0.000000 -0.499997
vn -0.866025 -0.000000 -0.500000
vn -0.866025 -0.000000 -0.500000
vn -0.866027 -0.000000 -0.499997
vn -0.866027 0.000000 -0.499997
vn -0.866025 0.000000 -0.500000
vn -0.866025 -0.000000 -0.500000
vn -0.866027 0.000000 -0.499997
vn -0.866026 0.000000 -0.500000
vn -0.866025 0.000000 -0.500000
vn -0.866025 0.000000 -0.500000
vn -0.866026 0.000000 -0.500000
vn -0.866026 -0.000000 -0.500000
vn -0.866025 -0.000000 -0.500000
vn -0.866025 0.000000 -0.500000
vn -0.866027 -0.000000 0.499997
vn -0.866027 -0.000000 0.499997
vn -0.866026 -0.000000 0.500000
vn -0.866026 -0.000000 0.500000
vn -0.866027 -0.000000 0.499997
vn -0.866027 0.000000 0.499997
vn -0.866026 0.000000 0.500000
vn -0.866026 -0.000000 0.500000
vn -0.866027 0.000000 0.499997
vn -0.866027 0.000000 0.499997
vn -0.866026 0.000000 0.500000
vn -0.866026 0.000000 0.500000
vn -0.866027 0.000000 0.499997
vn -0.866027 -0.000000 0.499997
vn -0.866026 -0.000000 0.500000
vn -0.866026 0.000000 0.500000
vn 0.000000 0.000000 1.000000
vn -0.000000 0.000000 1.000000
vn -0.000000 0.000000 1.000000
vn 0.000000 0.000000 1.000000
vn -0.000000 0.000000 1.000000
vn -0.000000 0.000000 1.000000
vn -0.000000 0.000000 1.000000
vn -0.000000 0.000000 1.000000
vn -0.000000 0.000000 1.000000
vn 0.000000 0.000000 1.000000
vn 0.000000 0.000000 1.000000
vn -0.000000 0.000000 1.000000
vn 0.000000 0.000000 1.000000
vn 0.000000 0.000000 1.000000
vn 0.000000 0.000000 1.000000
vn 0.000000 0.000000 1.000000
vn 0.866024 -0.000000 0.500002
vn 0.866024 -0.000000 0.500002
vn 0.866025 -0.000000 0.500000
vn 0.866025 -0.000000 0.500000
vn 0.866024 -0.000000 0.500002
vn 0.866024 0.000000 0.500002
vn 0.866025 0.000000 0.500000
vn 0.866025 -0.000000 0.500000
vn 0.866024 0.000000 0.500002
vn 0.866024 0.000000 0.500002
vn 0.866025 0.000000 0.500000
vn 0.866025 0.000000 0.500000
vn 0.866024 0.000000 0.500002
vn 0.866024 -0.000000 0.500002
vn 0.866025 -0.000000 0.500000
vn 0.866025 0.000000 0.500000
vn 0.866024 0.000001 -0.500002
vn 0.866027 0.000001 -0.499997
vn 0.866026 0.000000 -0.499999
vn 0.866025 0.000000 -0.500000
vn 0.866027 0.000001 -0.499997
vn 0.866027 -0.000001 -0.499997
vn 0.866026 -0.000000 -0.499999
vn 0.866026 0.000000 -0.499999
vn 0.866027 -0.000001 -0.499997
vn 0.866024 -0.000001 -0.500002
vn 0.866025 -0.000000 -0.500000
vn 0.866026 -0.000000 -0.499999
vn 0.866024 -0.000001 -0.500002
vn 0.866024 0.000001 -0.500002
vn 0.866025 0.000000 -0.500000
vn 0.866025 -0.000000 -0.500000
s off
f 15/53/1 16/54/2 17/55/3 18/56/4
f 19/57/5 20/58/6 21/59/7 22/60/8
f 23/61/9 24/62/10 25/63/11 26/64/12
f 27/65/13 28/66/14 29/67/15 30/68/16
f 31/69/17 32/70/18 33/71/19 34/72/20
f 35/73/21 36/74/22 37/75/23 38/76/24
f 2/2/25 1/1/26 13/27/27
f 3/3/28 2/2/29 13/27/30
f 4/4/31 3/3/32 13/27/33
f 5/5/34 4/4/35 13/27/36
f 6/6/37 5/5/38 13/27/39
f 1/1/40 6/6/41 13/27/42
f 7/25/43 8/24/44 14/28/45
f 8/24/46 9/23/47 14/28/48
f 9/23/49 10/22/50 14/28/51
f 10/22/52 11/21/53 14/28/54
f 11/21/55 12/26/56 14/28/57
f 12/26/58 7/25/59 14/28/60
f 1/7/61 2/8/62 16/30/63 15/29/64
f 2/8/65 8/15/66 17/31/67 16/30/68
f 8/15/69 7/14/70 18/32/71 17/31/72
f 7/14/73 1/7/74 15/29/75 18/32/76
f 2/8/77 3/9/78 20/34/79 19/33/80
f 3/9/81 9/16/82 21/35/83 20/34/84
f 9/16/85 8/15/86 22/36/87 21/35/88
f 8/15/89 2/8/90 19/33/91 22/36/92
f 3/9/93 4/10/94 24/38/95 23/37/96
f 4/10/97 10/17/98 25/39/99 24/38/100
f 10/17/101 9/16/102 26/40/103 25/39/104
f 9/16/105 3/9/106 23/37/107 26/40/108
f 4/10/109 5/11/110 28/42/111 27/41/112
f 5/11/113 11/18/114 29/43/115 28/42/116
f 11/18/117 10/17/118 30/44/119 29/43/120
f 10/17/121 4/10/122 27/41/123 30/44/124
f 5/11/125 6/12/126 32/46/127 31/45/128
f 6/12/129 12/19/130 33/47/131 32/46/132
f 12/19/133 11/18/134 34/48/135 33/47/136
f 11/18/137 5/11/138 31/45/139 34/48/140
f 6/12/141 1/13/142 36/50/143 35/49/144
f 1/13/145 7/20/146 37/51/147 36/50/148
f 7/20/149 12/19/150 38/52/151 37/51/152
f 12/19/153 6/12/154 35/49/155 38/52/156
