# This file uses meters as units for non-parametric coordinates.

v -278.467682 0.000000 296.056335
v 207.351776 0.000000 296.056335
v -278.467682 2008.036011 296.056335
v 207.351776 3038.364014 296.056335
v -278.467682 2008.036011 -189.763168
v 207.351776 3038.364014 -189.763168
v -278.467682 0.000000 -189.763168
v 207.351776 0.000000 -189.763168
v -248.944565 34.886551 296.056335
v 171.877014 34.886551 296.056335
v 171.877014 2883.263428 296.056335
v -248.944565 1983.080688 296.056335
v -248.944565 1983.080688 -189.763168
v 171.877014 2883.263428 -189.763168
v 171.877014 34.886551 -189.763168
v -248.944565 34.886551 -189.763168
v 207.351776 34.845924 -161.423691
v 207.351776 34.845924 267.716827
v 207.351776 2986.600098 -161.423691
v 207.351776 2986.600098 267.716827
v -278.467682 35.068226 -161.423691
v -278.467682 35.068226 267.716827
v -278.467682 1979.635254 267.716827
v -278.467682 1979.635254 -161.423691
v 171.877014 1983.080688 296.056335
v 207.351776 1983.080688 296.056335
v 207.351776 1983.080688 267.716827
v 207.351776 1983.080688 -161.423691
v 207.351776 1983.080688 -189.763138
v 171.877014 1983.080688 -189.763168
v -262.135803 2042.672729 263.129181
v 191.020294 3003.727539 263.129181
v 191.020294 3003.727539 -156.836029
v -262.135803 2042.672729 -156.836029
vt 0.614158 0.968359
vt 0.614158 0.968359
vt 0.614158 0.968358
vt 0.614158 0.968358
vt 0.614158 0.968358
vt 0.614158 0.968358
vt 0.614158 0.968359
vt 0.614158 0.968359
vt 0.614158 0.968358
vt 0.614158 0.968359
vt 0.614158 0.968358
vt 0.614158 0.968358
vt 0.614158 0.968358
vt 0.614158 0.968358
vt 0.614158 0.968359
vt 0.614158 0.968359
vt 0.614158 0.968359
vt 0.614158 0.968359
vt 0.614158 0.968358
vt 0.614158 0.968358
vt 0.614158 0.968359
vt 0.614158 0.968359
vt 0.614158 0.968358
vt 0.614158 0.968358
vt 0.614158 0.968358
vt 0.614158 0.968359
vt 0.614158 0.968358
vt 0.614158 0.968358
vt 0.614158 0.968359
vt 0.614158 0.968359
vt 0.614158 0.968358
vt 0.614158 0.968358
vt 0.614158 0.968359
vt 0.614158 0.968359
vt 0.614158 0.968358
vt 0.614158 0.968358
vt 0.614158 0.968358
vt 0.614158 0.968358
vt 0.614158 0.968358
vt 0.614158 0.968358
vt 0.614158 0.968358
vt 0.614158 0.968359
vt 0.614158 0.968358
vt 0.614158 0.968359
vt 0.009219 -0.110078
vt 0.601861 -0.110078
vt 0.601861 1.082944
vt 0.009219 1.082944
vt 0.009219 -0.798877
vt 0.601861 -0.798877
vt 0.601861 1.771744
vt 0.009219 1.771744
vt 0.009219 -0.798877
vt 0.601861 -0.798877
vt 0.601861 1.771744
vt 0.009219 1.771744
vt 0.009219 -0.798877
vt 0.601861 -0.798877
vt 0.601861 1.771744
vt 0.009219 1.771744
vt 0.601861 1.771743
vt 0.009219 1.771743
vt 0.009219 -0.798877
vt 0.601861 -0.798877
vt 0.013610 -0.002055
vt 0.598266 -0.002055
vt 0.598266 1.156623
vt 0.016079 -0.002966
vt 0.600735 1.155712
vt 0.600736 -0.002966
vt 0.597759 0.969688
vt 0.597759 0.969688
vt 0.597759 0.969688
vt 0.597759 0.969688
vt 0.831252 -0.136579
vt 0.831252 1.104548
vt 0.168748 1.104548
vt 0.168748 -0.136579
vt 0.597759 0.969688
vt 0.597759 0.969688
vt 0.597759 0.969688
vt 0.597759 0.969688
vn 0.000000 0.000000 1.000000
vn -0.000000 0.000000 1.000000
vn -0.000000 0.000000 1.000000
vn -0.904494 0.426486 -0.000000
vn -0.904494 0.426486 -0.000000
vn -0.904494 0.426486 0.000000
vn -0.904494 0.426486 0.000000
vn 0.000000 0.000000 -1.000000
vn 0.000000 -0.000000 -1.000000
vn 0.000000 0.000000 -1.000000
vn 0.000000 -1.000000 0.000000
vn 0.000000 -1.000000 0.000000
vn 0.000000 -1.000000 0.000000
vn 0.000000 -1.000000 0.000000
vn 1.000000 0.000000 0.000000
vn 1.000000 0.000000 0.000000
vn 1.000000 -0.000000 0.000000
vn 1.000000 -0.000000 0.000000
vn -1.000000 0.000000 0.000000
vn -1.000000 0.000000 0.000000
vn -1.000000 -0.000000 0.000000
vn -1.000000 -0.000000 0.000000
vn 0.000001 0.000000 1.000000
vn -0.000001 0.000000 1.000000
vn -0.000000 0.000000 1.000000
vn 0.000000 0.000000 1.000000
vn -0.000000 0.000000 1.000000
vn -0.000001 0.000000 1.000000
vn -0.000000 0.000000 1.000000
vn -0.000000 0.000000 1.000000
vn -0.000000 0.000000 1.000000
vn 0.000000 0.000000 1.000000
vn 0.000000 0.000000 1.000000
vn -0.000000 0.000000 1.000000
vn 0.000000 0.000000 1.000000
vn 0.000001 0.000000 1.000000
vn 0.000000 0.000000 1.000000
vn 0.000000 0.000000 1.000000
vn 0.000000 0.000000 -1.000000
vn 0.000000 -0.000000 -1.000000
vn 0.000000 -0.000000 -1.000000
vn 0.000000 0.000000 -1.000000
vn 0.000000 -0.000000 -1.000000
vn 0.000000 0.000000 -1.000000
vn 0.000000 0.000000 -1.000000
vn 0.000000 -0.000000 -1.000000
vn 0.000000 0.000000 -1.000000
vn 0.000000 0.000000 -1.000000
vn 0.000000 0.000000 -1.000000
vn 0.000000 0.000000 -1.000000
vn 0.000000 0.000000 -1.000000
vn 0.000000 0.000000 -1.000000
vn 0.000000 0.000000 -1.000000
vn 0.000000 0.000000 -1.000000
vn 1.000000 0.000000 0.000000
vn 1.000000 0.000000 0.000000
vn 1.000000 0.000000 0.000000
vn 1.000000 0.000000 0.000000
vn 1.000000 0.000000 0.000000
vn 1.000000 0.000000 0.000000
vn 1.000000 -0.000000 0.000000
vn 1.000000 -0.000000 0.000000
vn 1.000000 -0.000000 0.000000
vn 1.000000 -0.000000 0.000000
vn 1.000000 -0.000000 0.000000
vn 1.000000 -0.000000 0.000000
vn 1.000000 -0.000000 0.000000
vn 1.000000 0.000000 0.000000
vn 1.000000 0.000000 0.000000
vn 1.000000 -0.000000 0.000000
vn -1.000000 0.000000 0.000000
vn -1.000000 0.000000 0.000000
vn -1.000000 0.000000 0.000000
vn -1.000000 0.000000 0.000000
vn -1.000000 0.000000 0.000000
vn -0.982290 0.187365 -0.000001
vn -1.000000 -0.000000 0.000000
vn -1.000000 0.000000 0.000000
vn -0.982290 0.187365 -0.000001
vn -0.982290 0.187365 0.000001
vn -1.000000 -0.000000 0.000000
vn -1.000000 -0.000000 0.000000
vn -0.982290 0.187365 0.000001
vn -1.000000 0.000000 0.000000
vn -1.000000 0.000000 0.000000
vn -1.000000 -0.000000 0.000000
vn 0.000000 0.000000 1.000000
vn -0.000000 0.000000 1.000000
vn -0.000000 0.000000 1.000000
vn 0.000000 0.000000 1.000000
vn -0.000001 0.000000 1.000000
vn -0.000001 0.000000 1.000000
vn -0.000000 0.000000 1.000000
vn -0.000000 0.000000 1.000000
vn 1.000000 0.000000 0.000000
vn 1.000000 0.000000 0.000000
vn 1.000000 0.000000 0.000000
vn 1.000000 0.000000 0.000000
vn 1.000000 0.000000 0.000000
vn 1.000000 0.000000 0.000000
vn 1.000000 0.000000 0.000000
vn 1.000000 0.000000 0.000000
vn 1.000000 0.000000 0.000000
vn 1.000000 0.000000 0.000000
vn 1.000000 0.000000 0.000000
vn 1.000000 0.000000 0.000000
vn 0.000000 0.000000 -1.000000
vn 0.000000 0.000000 -1.000000
vn 0.000000 0.000000 -1.000000
vn 0.000000 0.000000 -1.000000
vn 0.000000 0.000000 -1.000000
vn 0.000000 0.000000 -1.000000
vn 0.000000 0.000000 -1.000000
vn 0.000000 0.000000 -1.000000
vn -0.982290 0.187365 -0.000001
vn -0.904495 0.426484 -0.000003
vn -0.904494 0.426486 -0.000000
vn -0.904494 0.426486 -0.000000
vn -0.904495 0.426484 -0.000003
vn -0.904495 0.426484 0.000002
vn -0.904494 0.426486 0.000000
vn -0.904494 0.426486 -0.000000
vn -0.904495 0.426484 0.000002
vn -0.982290 0.187365 0.000001
vn -0.904494 0.426486 0.000000
vn -0.904494 0.426486 0.000000
vn -0.982290 0.187365 0.000001
vn -0.982290 0.187365 -0.000001
vn -0.904494 0.426486 -0.000000
vn -0.904494 0.426486 0.000000
s off
f 12/65/1 25/66/2 11/67/3
f 31/75/4 32/76/5 33/77/6 34/78/7
f 13/68/8 14/69/9 30/70/10
f 7/13/11 8/14/12 2/15/13 1/16/14
f 27/45/15 28/46/16 19/47/17 20/48/18
f 21/49/19 22/50/20 23/51/21 24/52/22
f 1/1/23 2/2/24 10/22/25 9/21/26
f 25/37/27 26/38/28 4/3/29 11/23/30
f 4/3/31 3/4/32 12/24/33 11/23/34
f 3/4/35 1/1/36 9/21/37 12/24/38
f 5/9/39 6/10/40 14/26/41 13/25/42
f 6/10/43 29/42/44 30/44/45 14/26/46
f 8/11/47 7/12/48 16/28/49 15/27/50
f 7/12/51 5/9/52 13/25/53 16/28/54
f 2/17/55 8/18/56 17/30/57 18/29/58
f 28/41/59 29/43/60 6/19/61 19/31/62
f 6/19/63 4/20/64 20/32/65 19/31/66
f 4/20/67 26/39/68 27/40/69 20/32/70
f 7/7/71 1/8/72 22/34/73 21/33/74
f 1/8/75 3/5/76 23/35/77 22/34/78
f 3/5/79 5/6/80 24/36/81 23/35/82
f 5/6/83 7/7/84 21/33/85 24/36/86
f 9/53/87 10/54/88 25/55/89 12/56/90
f 2/2/91 26/38/92 25/37/93 10/22/94
f 27/40/95 26/39/96 2/17/97 18/29/98
f 18/57/99 17/58/100 28/59/101 27/60/102
f 8/18/103 29/43/104 28/41/105 17/30/106
f 30/44/107 29/42/108 8/11/109 15/27/110
f 13/61/111 30/62/112 15/63/113 16/64/114
f 3/71/115 4/72/116 32/73/117 31/74/118
f 4/72/119 6/79/120 33/80/121 32/73/122
f 6/79/123 5/81/124 34/82/125 33/80/126
f 5/81/127 3/71/128 31/74/129 34/82/130
