# This file uses meters as units for non-parametric coordinates.

v 500.000000 0.000000 -500.000000
v 0.000000 0.000000 -500.000000
v 500.000000 300.000000 -500.000000
v 0.000000 300.000000 -500.000000
v 500.000000 300.000000 0.000000
v 0.000000 300.000000 0.000000
v 500.000000 0.000000 0.000000
v 0.000000 0.000000 0.000000
v 500.000000 41.130947 0.000000
v 0.000000 41.130947 0.000000
v 500.000000 260.616455 0.000000
v 0.000000 260.616455 0.000000
v 500.000000 241.493057 0.000000
v 0.000000 241.493057 0.000000
v 0.000000 31.794559 19.004248
v 500.000000 31.794559 19.004248
v 0.000000 0.000000 19.004248
v 500.000000 0.000000 19.004248
v 0.000000 256.471100 9.706879
v 500.000000 256.471100 9.706879
v 0.000000 241.493057 9.706879
v 500.000000 241.493057 9.706879
v 423.814941 0.000000 -0.000191
v 376.185242 0.000000 -0.000191
v 423.814941 300.000000 -0.000191
v 376.185242 300.000000 -0.000191
v 423.814941 300.000000 23.814774
v 376.185242 300.000000 23.814774
v 423.814941 0.000000 53.065491
v 376.185242 0.000000 53.065491
v 418.603699 300.000000 33.096695
v 381.396484 300.000000 33.096695
v 381.396484 0.000000 62.347214
v 418.603699 0.000000 62.347214
v 123.814964 0.000000 -0.000191
v 76.185226 0.000000 -0.000191
v 123.814964 300.000000 -0.000191
v 76.185226 300.000000 -0.000191
v 123.814964 300.000000 23.814774
v 76.185226 300.000000 23.814774
v 123.814964 0.000000 53.065491
v 76.185226 0.000000 53.065491
v 118.603714 300.000000 33.096695
v 81.396484 300.000000 33.096695
v 81.396484 0.000000 62.347214
v 118.603714 0.000000 62.347214
v 360.148987 0.000000 19.004248
v 139.850998 0.000000 19.004248
v 360.148987 23.172432 19.004248
v 139.850998 23.172432 19.004248
v 337.633301 23.172432 41.803356
v 162.366669 23.172432 41.803356
v 337.633301 0.000000 41.803356
v 162.366669 0.000000 41.803356
v 418.603699 126.636292 50.000000
v 423.814941 121.659958 32.910156
v 418.603699 188.085754 44.008636
v 423.814941 188.531265 34.683228
v 81.396484 133.449615 49.335480
v 76.185226 133.063797 40.091515
v 87.443924 94.252785 53.157242
v 76.185226 93.859207 43.914032
v 322.536469 23.172430 41.803177
v 243.137375 23.172432 41.803356
v 305.385223 23.172415 32.371521
v 301.171692 17.848625 41.803356
vt 0.255362 0.304666
vt 0.255362 0.304666
vt 0.255362 0.304666
vt 0.255362 0.304666
vt 0.257302 0.277497
vt 0.257302 0.277497
vt 0.255362 0.304666
vt 0.255362 0.304666
vt 0.255362 0.304666
vt 0.255362 0.304666
vt 0.255362 0.304666
vt 0.255362 0.304666
vt 0.255362 0.304666
vt 0.257302 0.277497
vt 0.255362 0.304666
vt 0.257302 0.277497
vt 0.255362 0.304666
vt 0.255362 0.304666
vt 0.257302 0.277497
vt 0.255362 0.304666
vt 0.257302 0.277497
vt 0.255362 0.304666
vt 0.255362 0.304666
vt 0.257302 0.277497
vt 0.255362 0.304666
vt 0.255362 0.304666
vt 0.257302 0.277497
vt 0.255362 0.304666
vt 0.257302 0.277497
vt 0.257302 0.277497
vt 0.257302 0.277497
vt 0.257302 0.277497
vt 0.257302 0.277497
vt 0.257302 0.277497
vt 0.257302 0.277497
vt 0.257302 0.277497
vt 0.255362 0.304666
vt 0.255362 0.304666
vt 0.255362 0.304666
vt 0.255362 0.304666
vt 0.255362 0.304666
vt 0.255362 0.304666
vt 0.255362 0.304666
vt 0.255362 0.304666
vt 0.255362 0.304666
vt 0.255362 0.304666
vt 0.255362 0.304666
vt 0.255362 0.304666
vt 0.255362 0.304666
vt 0.255362 0.304666
vt 0.255362 0.304666
vt 0.255362 0.304666
vt 0.255362 0.304666
vt 0.255362 0.304666
vt 0.255362 0.304666
vt 0.255362 0.304666
vt 0.255362 0.304666
vt 0.255362 0.304666
vt 0.255362 0.304666
vt 0.255362 0.304666
vt 0.255362 0.304666
vt 0.255362 0.304666
vt 0.257302 0.277497
vt 0.257302 0.277497
vt 0.257302 0.277497
vt 0.257302 0.277497
vt 0.257302 0.277497
vt 0.257302 0.277497
vt 0.257302 0.277497
vt 0.257302 0.277497
vt 0.257302 0.277497
vt 0.257302 0.277497
vt 0.257302 0.277497
vt 0.257302 0.277497
vt 0.257302 0.277497
vt 0.257302 0.277497
vt 0.257302 0.277497
vt 0.257302 0.277497
vt 0.257302 0.277497
vt 0.257302 0.277497
vt 0.257302 0.277497
vt 0.257302 0.277497
vt 0.257302 0.277497
vt 0.257302 0.277497
vt 0.257302 0.277497
vt 0.257302 0.277497
vt 0.257302 0.277497
vt 0.257302 0.277497
vt 0.257302 0.277497
vt 0.257302 0.277497
vt 0.257302 0.277497
vt 0.257302 0.277497
vt 0.257302 0.277497
vt 0.257302 0.277497
vt 0.257302 0.277497
vt 0.257302 0.277497
vt 0.257302 0.277497
vt 0.257302 0.277497
vt 0.255362 0.279437
vt 0.255362 0.279437
vt 0.255362 0.279437
vt 0.255362 0.279437
vt 0.255362 0.279437
vt 0.255362 0.279437
vt 0.255362 0.279437
vt 0.255362 0.279437
vt 0.255362 0.279437
vt 0.255362 0.279437
vt 0.255362 0.279437
vt 0.255362 0.279437
vt 0.255362 0.279437
vt 0.255362 0.279437
vt 0.257302 0.277497
vt 0.257302 0.277497
vt 0.257302 0.277497
vt 0.257302 0.277497
vt 0.257302 0.277497
vt 0.257302 0.277497
vt 0.257302 0.277497
vt 0.257302 0.277497
vt 0.257302 0.277497
vt 0.257302 0.277497
vt 0.257302 0.277497
vt 0.257302 0.277497
vt 0.255362 0.279437
vt 0.255362 0.279437
vt 0.255362 0.279437
vt 0.255362 0.279437
vn 0.000000 1.000000 0.000000
vn 0.000000 1.000000 0.000000
vn 0.000000 1.000000 0.000000
vn 0.000000 1.000000 0.000000
vn 0.000000 0.000000 1.000000
vn 0.000000 0.000000 1.000000
vn 0.000000 0.000000 1.000000
vn 0.000000 0.000000 1.000000
vn 0.000000 -1.000000 0.000000
vn 0.000000 -1.000000 0.000000
vn 0.000000 -1.000000 0.000000
vn 0.000000 -1.000000 0.000000
vn -1.000000 0.000000 0.000000
vn -1.000000 0.000000 0.000000
vn -1.000000 0.000000 0.000000
vn 1.000000 0.000000 0.000000
vn 1.000000 0.000000 0.000000
vn 1.000000 0.000000 0.000000
vn 1.000000 0.000000 0.000000
vn 1.000000 0.000000 0.000000
vn 1.000000 0.000000 0.000000
vn -1.000000 0.000000 0.000000
vn -1.000000 0.000000 0.000000
vn -1.000000 0.000000 0.000000
vn 0.000000 0.000000 1.000000
vn 0.000000 0.000000 1.000000
vn 0.000000 0.000000 1.000000
vn 0.000000 0.000000 1.000000
vn 1.000000 0.000000 0.000000
vn 1.000000 0.000000 0.000000
vn 1.000000 0.000000 0.000000
vn -1.000000 0.000000 0.000000
vn -1.000000 0.000000 0.000000
vn -1.000000 0.000000 0.000000
vn 0.000000 0.000000 1.000000
vn 0.000000 0.000000 1.000000
vn 0.000000 0.000000 1.000000
vn 0.000000 0.000000 1.000000
vn 1.000000 0.000000 0.000000
vn 1.000000 0.000000 0.000000
vn 1.000000 0.000000 0.000000
vn 1.000000 0.000000 0.000000
vn 0.000000 0.000000 -1.000000
vn 0.000000 0.000000 -1.000000
vn 0.000000 0.000000 -1.000000
vn 0.000000 0.000000 -1.000000
vn -1.000000 0.000000 0.000000
vn -1.000000 0.000000 0.000000
vn -1.000000 0.000000 0.000000
vn -1.000000 0.000000 0.000000
vn 0.000000 0.000000 1.000000
vn 0.000000 0.000000 1.000000
vn 0.000000 0.000000 1.000000
vn 0.000000 0.000000 1.000000
vn 0.000000 0.897536 0.440941
vn 0.000000 0.897536 0.440941
vn 0.000000 0.897536 0.440941
vn 0.000000 0.897536 0.440941
vn -1.000000 0.000000 0.000000
vn -1.000000 0.000000 0.000000
vn -1.000000 0.000000 0.000000
vn -1.000000 0.000000 0.000000
vn 0.000000 -1.000000 0.000000
vn 0.000000 -1.000000 0.000000
vn 0.000000 -1.000000 0.000000
vn 0.000000 -1.000000 0.000000
vn 1.000000 0.000000 0.000000
vn 1.000000 0.000000 0.000000
vn 1.000000 0.000000 0.000000
vn 1.000000 0.000000 0.000000
vn 0.000000 0.919650 0.392740
vn 0.000000 0.919650 0.392740
vn 0.000000 0.919650 0.392740
vn 0.000000 0.919650 0.392740
vn -1.000000 0.000000 0.000000
vn -1.000000 0.000000 0.000000
vn -1.000000 0.000000 0.000000
vn -1.000000 0.000000 0.000000
vn 0.000000 -1.000000 0.000000
vn 0.000000 -1.000000 0.000000
vn 0.000000 -1.000000 0.000000
vn 0.000000 -1.000000 0.000000
vn 1.000000 0.000000 0.000000
vn 1.000000 0.000000 0.000000
vn 1.000000 0.000000 0.000000
vn 1.000000 0.000000 0.000000
vn 0.000000 1.000000 0.000000
vn 0.000000 1.000000 0.000000
vn 0.000000 1.000000 0.000000
vn 0.000000 1.000000 0.000000
vn -0.000001 0.097042 0.995280
vn -0.000001 0.097042 0.995280
vn -0.000001 0.097042 0.995280
vn -0.000001 0.097042 0.995280
vn -0.000001 0.097042 0.995280
vn -0.000001 0.097042 0.995280
vn 0.000000 -1.000000 0.000000
vn 0.000000 -1.000000 0.000000
vn 0.000000 -1.000000 0.000000
vn 0.000000 -1.000000 0.000000
vn -1.000000 0.000000 0.000000
vn -1.000000 0.000000 0.000000
vn -1.000000 0.000000 0.000000
vn -1.000000 0.000000 0.000000
vn 1.000000 0.000000 0.000000
vn 1.000000 0.000000 0.000000
vn 1.000000 0.000000 0.000000
vn 1.000000 0.000000 0.000000
vn 1.000000 0.000000 0.000000
vn 1.000000 0.000000 0.000000
vn 0.000000 1.000000 0.000001
vn 0.000000 1.000000 0.000001
vn 0.000000 1.000000 0.000001
vn 0.000000 1.000000 0.000001
vn -0.870976 0.047679 0.489006
vn -0.870976 0.047679 0.489006
vn -0.870976 0.047679 0.489006
vn -0.870976 0.047679 0.489006
vn 0.000000 -1.000000 0.000000
vn 0.000000 -1.000000 0.000000
vn 0.000000 -1.000000 0.000000
vn 0.000000 -1.000000 0.000000
vn 0.870979 0.047678 0.489001
vn 0.870979 0.047678 0.489001
vn 0.870979 0.047678 0.489001
vn 0.870979 0.047678 0.489001
vn 0.000000 1.000000 0.000000
vn 0.000000 1.000000 0.000000
vn 0.000000 1.000000 0.000000
vn 0.000000 1.000000 0.000000
vn -0.000003 0.097041 0.995280
vn -0.000003 0.097041 0.995280
vn -0.000003 0.097041 0.995280
vn -0.000003 0.097041 0.995280
vn -0.000003 0.097041 0.995280
vn -0.000003 0.097041 0.995280
vn 0.000000 -1.000000 0.000000
vn 0.000000 -1.000000 0.000000
vn 0.000000 -1.000000 0.000000
vn 0.000000 -1.000000 0.000000
vn -1.000000 -0.000000 0.000000
vn -1.000000 -0.000000 0.000000
vn -1.000000 -0.000000 0.000000
vn -1.000000 -0.000000 0.000000
vn -1.000000 -0.000000 0.000000
vn -1.000000 -0.000000 0.000000
vn 1.000000 0.000000 0.000000
vn 1.000000 0.000000 0.000000
vn 1.000000 0.000000 0.000000
vn 1.000000 0.000000 0.000000
vn 0.000000 1.000000 -0.000003
vn 0.000000 1.000000 -0.000003
vn 0.000000 1.000000 -0.000003
vn 0.000000 1.000000 -0.000003
vn -0.745349 0.088390 0.660789
vn -0.745349 0.088390 0.660789
vn -0.745349 0.088390 0.660789
vn -0.745349 0.088390 0.660789
vn 0.000000 -1.000000 0.000000
vn 0.000000 -1.000000 0.000000
vn 0.000000 -1.000000 0.000000
vn 0.000000 -1.000000 0.000000
vn 0.870976 0.047679 0.489007
vn 0.870976 0.047679 0.489007
vn 0.870976 0.047679 0.489007
vn 0.870976 0.047679 0.489007
vn -0.000000 1.000000 0.000000
vn -0.000000 1.000000 0.000000
vn -0.000000 1.000000 0.000000
vn -0.000000 1.000000 0.000000
vn -0.000000 1.000000 0.000000
vn -0.000000 1.000000 0.000000
vn -0.000000 1.000000 0.000000
vn -0.000000 0.000001 1.000000
vn -0.000000 0.000001 1.000000
vn -0.000000 0.000001 1.000000
vn -0.000000 0.000001 1.000000
vn -0.000000 0.000001 1.000000
vn -0.000000 0.000001 1.000000
vn -0.000000 0.000001 1.000000
vn 0.000000 -1.000000 0.000000
vn 0.000000 -1.000000 0.000000
vn 0.000000 -1.000000 0.000000
vn 0.000000 -1.000000 0.000000
vn -0.711516 0.000000 0.702670
vn -0.711516 0.000000 0.702670
vn -0.711516 0.000000 0.702670
vn -0.711516 0.000000 0.702670
vn 0.711515 0.000000 0.702670
vn 0.711515 0.000000 0.702670
vn 0.711515 0.000000 0.702670
vn 0.711515 0.000000 0.702670
vn 0.931976 0.047053 0.359454
vn 0.931976 0.047053 0.359454
vn 0.931976 0.047053 0.359454
vn 0.931976 0.047053 0.359454
vn 0.930845 0.012006 0.365218
vn 0.930845 0.012006 0.365218
vn 0.930845 0.012006 0.365218
vn 0.930845 0.012006 0.365218
vn -0.870974 0.047679 0.489010
vn -0.870974 0.047679 0.489010
vn -0.870974 0.047679 0.489010
vn -0.870974 0.047679 0.489010
vn -0.746800 0.007236 0.665009
vn -0.746800 0.007236 0.665009
vn -0.746800 0.007236 0.665009
vn -0.746800 0.007236 0.665009
vn -0.221338 0.888260 0.402496
vn -0.221338 0.888260 0.402497
vn -0.221338 0.888260 0.402497
vn 0.078233 0.852815 0.516320
vn 0.078233 0.852815 0.516320
vn 0.078233 0.852815 0.516320
s off
f 3/54/1 4/53/2 6/4/3 5/62/4
f 5/3/5 6/61/6 12/50/7 11/51/8
f 7/60/9 8/57/10 2/8/11 1/7/12
f 4/46/13 12/49/14 6/10/15
f 11/18/16 3/2/17 5/12/18
f 7/11/19 1/1/20 9/48/21
f 2/15/22 8/9/23 10/17/24
f 16/29/25 15/30/26 17/31/27 18/32/28
f 13/23/29 3/20/30 11/52/31
f 4/42/32 14/38/33 12/22/34
f 20/33/35 19/34/36 21/35/37 22/36/38
f 9/13/39 1/58/40 3/45/41 13/39/42
f 1/59/43 2/55/44 4/41/45 3/25/46
f 2/56/47 10/43/48 14/28/49 4/26/50
f 13/40/51 14/37/52 10/44/53 9/47/54
f 9/14/55 10/16/56 15/30/57 16/29/58
f 10/16/59 8/6/60 17/31/61 15/30/62
f 8/6/63 7/5/64 18/32/65 17/31/66
f 7/5/67 9/14/68 16/29/69 18/32/70
f 11/19/71 12/21/72 19/34/73 20/33/74
f 12/21/75 14/27/76 21/35/77 19/34/78
f 14/27/79 13/24/80 22/36/81 21/35/82
f 13/24/83 11/19/84 20/33/85 22/36/86
f 25/63/87 26/64/88 28/65/89 27/66/90
f 31/67/91 32/68/92 33/69/93 34/70/94 55/113/95 57/116/96
f 29/71/97 30/72/98 24/73/99 23/74/100
f 24/75/101 30/76/102 28/77/103 26/64/104
f 29/78/105 23/79/106 25/63/107 27/80/108 58/117/109 56/114/110
f 27/66/111 28/65/112 32/68/113 31/67/114
f 28/65/115 30/72/116 33/69/117 32/68/118
f 30/72/119 29/71/120 34/70/121 33/69/122
f 57/116/123 58/118/124 27/66/125 31/67/126
f 37/81/127 38/82/128 40/83/129 39/84/130
f 43/85/131 44/86/132 59/119/133 61/122/134 45/87/135 46/88/136
f 41/89/137 42/90/138 36/91/139 35/92/140
f 36/93/141 42/94/142 62/124/143 60/121/144 40/95/145 38/82/146
f 41/96/147 35/97/148 37/81/149 39/98/150
f 39/84/151 40/83/152 44/86/153 43/85/154
f 61/122/155 62/123/156 42/90/157 45/87/158
f 42/90/159 41/89/160 46/88/161 45/87/162
f 41/89/163 39/84/164 43/85/165 46/88/166
f 49/99/167 50/100/168 52/101/169 64/126/170 65/127/171 63/125/172 51/102/173
f 51/102/174 63/125/175 66/128/176 64/126/177 52/101/178 54/103/179 53/104/180
f 53/104/181 54/103/182 48/105/183 47/106/184
f 48/107/185 54/108/186 52/109/187 50/100/188
f 53/110/189 47/111/190 49/99/191 51/112/192
f 29/71/193 56/115/194 55/113/195 34/70/196
f 55/113/197 56/115/198 58/118/199 57/116/200
f 40/83/201 60/120/202 59/119/203 44/86/204
f 59/119/205 60/120/206 62/123/207 61/122/208
f 65/127/209 66/128/210 63/125/211
f 64/126/212 66/128/213 65/127/214
