# This file uses meters as units for non-parametric coordinates.

v -221.156021 0.000000 212.604187
v 221.156021 0.000000 212.604187
v -221.156021 2547.487549 5.343068
v 221.156021 2547.487549 5.343068
v -221.156021 2547.487549 -432.110413
v 221.156021 2547.487549 -432.110413
v -221.156021 0.000000 -224.849335
v 221.156021 0.000000 -224.849335
v -191.668411 32.385635 212.604187
v 191.668411 32.385635 212.604187
v 191.668411 2515.102051 5.343068
v -191.668411 2515.102051 5.343068
v -191.668411 2515.102051 -432.110413
v 191.668411 2515.102051 -432.110413
v 191.668411 32.385635 -224.849335
v -191.668411 32.385635 -224.849335
v 221.156021 32.385635 -206.715698
v 221.156021 32.385635 194.470520
v 221.156021 2515.102051 -413.976776
v 221.156021 2515.102051 -12.790596
v -221.156021 32.385635 -206.715698
v -221.156021 32.385635 194.470520
v -221.156021 2515.102051 -12.790596
v -221.156021 2515.102051 -413.976776
v -221.156021 1872.002808 5.343068
v -221.156021 1872.002686 -12.790596
v -221.156021 1872.002686 -413.976776
v -221.156021 1872.002808 -432.110413
v -191.668411 1872.002686 -432.110413
v 191.668411 1872.002686 -432.110413
v 221.156021 1872.002808 -432.110413
v 221.156021 1872.002686 -413.976776
v 221.156021 1872.002686 -12.790596
v 221.156021 1872.002808 5.343068
v 191.668411 1872.002686 5.343056
v -191.668411 1872.002686 5.343056
v -221.156021 589.905701 212.604187
v -221.156021 589.905640 194.470520
v -221.156021 589.905640 -206.715698
v -221.156021 589.905701 -224.849335
v -191.668411 589.905640 -224.849365
v 191.668411 589.905640 -224.849365
v 221.156021 589.905701 -224.849335
v 221.156021 589.905640 -206.715698
v 221.156021 589.905640 194.470520
v 221.156021 589.905701 212.604187
v 191.668411 589.905640 212.604156
v -191.668411 589.905640 212.604156
vt 0.604394 0.974606
vt 0.604394 0.974606
vt 0.604394 0.974606
vt 0.604394 0.974606
vt 0.604394 0.974606
vt 0.604394 0.974606
vt 0.604394 0.974606
vt 0.604394 0.974606
vt 0.604394 0.974606
vt 0.604394 0.974606
vt 0.604394 0.974606
vt 0.604394 0.974606
vt 0.604394 0.974606
vt 0.604394 0.974606
vt 0.604394 0.974606
vt 0.604394 0.974606
vt 0.604394 0.974606
vt 0.604394 0.974606
vt 0.604395 0.974606
vt 0.604394 0.974606
vt 0.604394 0.974606
vt 0.604394 0.974606
vt 0.604394 0.974606
vt 0.604394 0.974606
vt 0.604394 0.974606
vt 0.604394 0.974606
vt 0.604394 0.974606
vt 0.604394 0.974606
vt 0.604394 0.974606
vt 0.604394 0.974606
vt 0.604394 0.974606
vt 0.604394 0.974606
vt 0.604394 0.974606
vt 0.604394 0.974606
vt 0.604394 0.974606
vt 0.604394 0.974606
vt 0.604394 0.974606
vt 0.604394 0.974606
vt 0.604394 0.974606
vt 0.604394 0.974606
vt 0.179529 -1.232354
vt 0.820471 -1.232354
vt 0.794251 1.360073
vt 0.205749 1.360073
vt 0.794251 1.360073
vt 0.205749 1.360073
vt 0.179529 -1.232354
vt 0.820471 -1.232354
vt 0.055150 -1.232354
vt 0.696944 -1.232354
vt 0.794251 1.360073
vt 0.205749 1.360073
vt 0.300237 -1.232354
vt 0.942031 -1.232354
vt 0.794251 1.360073
vt 0.205749 1.360073
vt 0.604394 0.974605
vt 0.604394 0.974606
vt 0.610463 1.579035
vt 0.604394 0.974605
vt -0.031323 1.579037
vt 0.604394 0.974606
vt 0.604394 0.974606
vt 0.604394 0.974606
vt 0.604394 0.974606
vt 0.820467 1.558370
vt 0.179535 1.558370
vt 0.604394 0.974606
vt 0.604394 0.974606
vt 0.604394 0.974606
vt 0.604394 0.974606
vt 1.028504 1.579037
vt 0.604394 0.974605
vt 0.386718 1.579035
vt 0.604394 0.974606
vt 0.604394 0.974605
vt 0.820466 1.558372
vt 0.604394 0.974606
vt 0.604394 0.974606
vt 0.179533 1.558372
vt 0.604394 0.974606
vt 0.604394 0.974606
vt 0.942028 -0.351433
vt 0.604394 0.974606
vt 0.300239 -0.351432
vt 0.604394 0.974606
vt 0.604394 0.974606
vt 0.604394 0.974606
vt 0.604394 0.974606
vt 0.820467 -0.351438
vt 0.179533 -0.351438
vt 0.604394 0.974606
vt 0.604394 0.974606
vt 0.604394 0.974606
vt 0.604394 0.974606
vt 0.696942 -0.351432
vt 0.604394 0.974606
vt 0.055153 -0.351433
vt 0.604394 0.974606
vt 0.604394 0.974606
vt 0.820467 -0.351438
vt 0.604394 0.974606
vt 0.604394 0.974606
vt 0.179533 -0.351438
vt 0.205751 0.305233
vt 0.794249 0.305233
vt 0.205751 0.305233
vt 0.794249 0.305233
vt 0.205751 0.305233
vt 0.794249 0.305233
vt 0.205751 0.305233
vt 0.794249 0.305233
vn 0.000000 0.000000 1.000000
vn -0.000000 0.000000 1.000000
vn -0.000000 0.111888 0.993721
vn 0.000000 0.111888 0.993721
vn 0.000000 1.000000 0.000000
vn 0.000000 1.000000 0.000000
vn 0.000000 1.000000 0.000000
vn 0.000000 1.000000 0.000000
vn -0.000000 -0.111888 -0.993721
vn 0.000000 -0.111888 -0.993721
vn 0.000000 -0.000000 -1.000000
vn -0.000000 -0.000000 -1.000000
vn 0.000000 -1.000000 0.000000
vn 0.000000 -1.000000 0.000000
vn 0.000000 -1.000000 0.000000
vn 0.000000 -1.000000 0.000000
vn 1.000000 -0.000000 0.000000
vn 1.000000 -0.000000 0.000000
vn 1.000000 -0.000000 0.000000
vn 1.000000 -0.000000 0.000000
vn -1.000000 -0.000000 0.000000
vn -1.000000 -0.000000 0.000000
vn -1.000000 -0.000000 0.000000
vn -1.000000 0.000000 0.000000
vn 0.000000 0.000000 1.000000
vn -0.000000 0.000000 1.000000
vn -0.000000 0.000000 1.000000
vn 0.000000 0.000000 1.000000
vn -0.000000 0.000000 1.000000
vn -0.000001 0.110992 0.993821
vn -0.000000 0.111888 0.993721
vn -0.000000 0.000000 1.000000
vn -0.000000 -0.000000 1.000000
vn 0.000000 -0.000000 1.000000
vn 0.000000 -0.000000 1.000000
vn -0.000000 -0.000000 1.000000
vn 0.000000 0.111888 0.993721
vn 0.000001 0.110992 0.993821
vn 0.000000 0.000000 1.000000
vn 0.000000 0.000000 1.000000
vn 0.000000 0.000000 -1.000000
vn 0.000000 0.000000 -1.000000
vn 0.000000 0.000000 -1.000000
vn 0.000000 0.000000 -1.000000
vn 0.000001 -0.110992 -0.993821
vn 0.000000 -0.000000 -1.000000
vn 0.000000 -0.000000 -1.000000
vn 0.000000 -0.111888 -0.993721
vn 0.000000 -0.000000 -1.000000
vn -0.000000 -0.000000 -1.000000
vn -0.000000 -0.000000 -1.000000
vn 0.000000 -0.000000 -1.000000
vn -0.000000 -0.000000 -1.000000
vn -0.000001 -0.110992 -0.993821
vn -0.000000 -0.111888 -0.993721
vn -0.000000 -0.000000 -1.000000
vn 1.000000 -0.000000 0.000000
vn 1.000000 -0.000000 0.000000
vn 1.000000 -0.000000 0.000000
vn 1.000000 -0.000000 0.000000
vn 1.000000 -0.000000 0.000000
vn 1.000000 0.000000 0.000000
vn 1.000000 -0.000000 0.000000
vn 1.000000 -0.000000 0.000000
vn 1.000000 -0.000000 0.000000
vn 1.000000 -0.000000 0.000000
vn 1.000000 -0.000000 0.000000
vn 1.000000 -0.000000 0.000000
vn 1.000000 -0.000000 0.000000
vn 1.000000 -0.000000 0.000000
vn 1.000000 -0.000000 0.000000
vn 1.000000 -0.000000 0.000000
vn -1.000000 -0.000000 0.000000
vn -1.000000 -0.000000 0.000000
vn -1.000000 -0.000000 0.000000
vn -1.000000 -0.000000 0.000000
vn -1.000000 -0.000000 0.000000
vn -1.000000 -0.000000 0.000000
vn -1.000000 -0.000000 0.000000
vn -1.000000 -0.000000 0.000000
vn -1.000000 -0.000000 0.000000
vn -1.000000 -0.000000 0.000000
vn -1.000000 -0.000000 0.000000
vn -1.000000 -0.000000 0.000000
vn -1.000000 0.000000 0.000000
vn -1.000000 -0.000000 0.000000
vn -1.000000 -0.000000 0.000000
vn -1.000000 0.000000 0.000000
vn -1.000000 -0.000000 0.000000
vn -1.000000 -0.000000 0.000000
vn -1.000000 -0.000000 0.000000
vn -1.000000 -0.000000 0.000000
vn -1.000000 0.000000 0.000000
vn -1.000000 -0.000000 0.000000
vn -1.000000 -0.000000 0.000000
vn -1.000000 -0.000000 0.000000
vn -1.000000 0.000000 0.000000
vn -1.000000 0.000000 0.000000
vn -1.000000 -0.000000 0.000000
vn -1.000000 -0.000000 0.000000
vn -0.000000 -0.106975 -0.994262
vn -0.000001 -0.106156 -0.994349
vn 0.000000 0.000000 -1.000000
vn 0.000000 0.000000 -1.000000
vn 0.000000 -0.106975 -0.994262
vn -0.000000 -0.106975 -0.994262
vn 0.000000 0.000000 -1.000000
vn 0.000000 0.000000 -1.000000
vn 0.000001 -0.106156 -0.994349
vn 0.000000 -0.106975 -0.994262
vn 0.000000 0.000000 -1.000000
vn 0.000000 0.000000 -1.000000
vn 1.000000 -0.000000 0.000000
vn 1.000000 0.000000 0.000000
vn 1.000000 -0.000000 0.000000
vn 1.000000 -0.000000 0.000000
vn 1.000000 -0.000000 0.000000
vn 1.000000 -0.000000 0.000000
vn 1.000000 -0.000000 0.000000
vn 1.000000 -0.000000 0.000000
vn 1.000000 -0.000000 0.000000
vn 1.000000 -0.000000 0.000000
vn 1.000000 -0.000000 0.000000
vn 1.000000 -0.000000 0.000000
vn -0.000000 -0.000000 1.000000
vn -0.000000 0.106975 0.994262
vn -0.000001 0.106156 0.994349
vn -0.000000 -0.000000 1.000000
vn 0.000000 -0.000000 1.000000
vn 0.000000 0.106975 0.994262
vn -0.000000 0.106975 0.994262
vn -0.000000 -0.000000 1.000000
vn 0.000000 -0.000000 1.000000
vn 0.000001 0.106156 0.994349
vn 0.000000 0.106975 0.994262
vn 0.000000 -0.000000 1.000000
vn -1.000000 -0.000000 0.000000
vn -1.000000 -0.000000 0.000000
vn -1.000000 -0.000000 0.000000
vn -1.000000 -0.000000 0.000000
vn -1.000000 0.000000 0.000000
vn -1.000000 -0.000000 0.000000
vn -1.000000 -0.000000 0.000000
vn -1.000000 0.000000 0.000000
vn -1.000000 0.000000 0.000000
vn -1.000000 0.000000 0.000000
vn -1.000000 0.000000 0.000000
vn -1.000000 0.000000 0.000000
vn -0.000000 -0.111888 -0.993721
vn -0.000001 -0.110992 -0.993821
vn -0.000001 -0.106156 -0.994349
vn -0.000000 -0.106975 -0.994262
vn -0.000000 -0.106975 -0.994262
vn 0.000000 -0.106975 -0.994262
vn 0.000000 -0.111888 -0.993721
vn -0.000000 -0.111888 -0.993721
vn 0.000001 -0.106156 -0.994349
vn 0.000001 -0.110992 -0.993821
vn 0.000000 -0.111888 -0.993721
vn 0.000000 -0.106975 -0.994262
vn 1.000000 -0.000000 0.000000
vn 1.000000 0.000000 0.000000
vn 1.000000 0.000000 0.000000
vn 1.000000 -0.000000 0.000000
vn 1.000000 -0.000000 0.000000
vn 1.000000 -0.000000 0.000000
vn 1.000000 -0.000000 0.000000
vn 1.000000 -0.000000 0.000000
vn 1.000000 -0.000000 0.000000
vn 1.000000 -0.000000 0.000000
vn 1.000000 -0.000000 0.000000
vn 1.000000 -0.000000 0.000000
vn -0.000000 0.111888 0.993721
vn -0.000001 0.110992 0.993821
vn -0.000001 0.106156 0.994349
vn -0.000000 0.106975 0.994262
vn 0.000000 0.111888 0.993721
vn -0.000000 0.111888 0.993721
vn -0.000000 0.106975 0.994262
vn 0.000000 0.106975 0.994262
vn 0.000000 0.106975 0.994262
vn 0.000001 0.106156 0.994349
vn 0.000001 0.110992 0.993821
vn 0.000000 0.111888 0.993721
s off
f 9/41/1 10/42/2 47/101/3 48/104/4
f 3/5/5 4/6/6 6/7/7 5/8/8
f 41/90/9 42/91/10 15/47/11 16/48/12
f 7/13/13 8/14/14 2/15/15 1/16/16
f 18/49/17 17/50/18 44/96/19 45/98/20
f 21/53/21 22/54/22 38/83/23 39/85/24
f 1/1/25 2/2/26 10/26/27 9/25/28
f 2/2/29 46/99/30 47/102/31 10/26/32
f 4/3/33 3/4/34 12/28/35 11/27/36
f 48/103/37 37/82/38 1/1/39 9/25/40
f 5/9/41 6/10/42 14/30/43 13/29/44
f 43/93/45 8/11/46 15/31/47 42/92/48
f 8/11/49 7/12/50 16/32/51 15/31/52
f 7/12/53 40/88/54 41/89/55 16/32/56
f 2/17/57 8/18/58 17/34/59 18/33/60
f 8/18/61 43/94/62 44/95/63 17/34/64
f 6/19/65 4/20/66 20/36/67 19/35/68
f 46/100/69 2/17/70 18/33/71 45/97/72
f 7/21/73 1/22/74 22/38/75 21/37/76
f 1/22/77 37/81/78 38/84/79 22/38/80
f 3/23/81 5/24/82 24/40/83 23/39/84
f 40/87/85 7/21/86 21/37/87 39/86/88
f 23/39/89 26/60/90 25/57/91 3/23/92
f 27/105/93 26/106/94 23/55/95 24/56/96
f 28/63/97 27/62/98 24/40/99 5/24/100
f 29/65/101 28/64/102 5/9/103 13/29/104
f 30/107/105 29/108/106 13/45/107 14/46/108
f 31/69/109 30/68/110 14/30/111 6/10/112
f 32/71/113 31/70/114 6/19/115 19/35/116
f 20/52/117 33/109/118 32/110/119 19/51/120
f 4/20/121 34/76/122 33/73/123 20/36/124
f 11/27/125 35/78/126 34/75/127 4/3/128
f 12/44/129 36/111/130 35/112/131 11/43/132
f 3/4/133 25/58/134 36/79/135 12/28/136
f 37/81/137 25/57/138 26/60/139 38/84/140
f 39/85/141 38/83/142 26/59/143 27/61/144
f 28/63/145 40/87/146 39/86/147 27/62/148
f 41/89/149 40/88/150 28/64/151 29/65/152
f 29/66/153 30/67/154 42/91/155 41/90/156
f 31/69/157 43/93/158 42/92/159 30/68/160
f 44/95/161 43/94/162 31/70/163 32/71/164
f 45/98/165 44/96/166 32/72/167 33/74/168
f 34/76/169 46/100/170 45/97/171 33/73/172
f 47/102/173 46/99/174 34/75/175 35/78/176
f 48/104/177 47/101/178 35/77/179 36/80/180
f 36/79/181 25/58/182 37/82/183 48/103/184
