# This file uses meters as units for non-parametric coordinates.

v -244.891953 -0.000006 244.891830
v 244.891830 -0.000006 244.891830
v -244.891953 489.783752 244.891830
v 244.891830 489.783752 244.891830
v -244.891953 489.783752 -244.891830
v 244.891830 489.783752 -244.891830
v -244.891953 -0.000006 -244.891830
v 244.891830 -0.000006 -244.891830
v -212.715759 32.176071 244.891830
v 212.715759 32.176071 244.891830
v 212.715759 457.607666 244.891830
v -212.715759 457.607666 244.891830
v -212.715759 489.783752 212.715866
v 212.715759 489.783752 212.715866
v 212.715759 489.783752 -212.715866
v -212.715759 489.783752 -212.715866
v -212.715759 457.607666 -244.891830
v 212.715759 457.607666 -244.891830
v 212.715759 32.176071 -244.891830
v -212.715759 32.176071 -244.891830
v -212.715759 -0.000006 -212.715866
v 212.715759 -0.000006 -212.715866
v 212.715759 -0.000006 212.715866
v -212.715759 -0.000006 212.715866
v 244.891830 32.176071 -212.715866
v 244.891830 32.176071 212.715866
v 244.891830 457.607666 -212.715866
v 244.891830 457.607666 212.715866
v -244.891953 32.176071 -212.715866
v -244.891953 32.176071 212.715866
v -244.891953 457.607666 212.715866
v -244.891953 457.607666 -212.715866
vt 0.389097 0.962486
vt 0.389097 0.962486
vt 0.389097 0.962486
vt 0.389097 0.962486
vt 0.389097 0.962486
vt 0.389097 0.962486
vt 0.389097 0.962486
vt 0.389097 0.962486
vt 0.389097 0.962486
vt 0.389097 0.962486
vt 0.389097 0.962486
vt 0.389097 0.962486
vt 0.389097 0.962486
vt 0.389097 0.962486
vt 0.389097 0.962486
vt 0.389097 0.962486
vt 0.389097 0.962486
vt 0.389097 0.962486
vt 0.389097 0.962486
vt 0.389097 0.962486
vt 0.389097 0.962486
vt 0.389097 0.962486
vt 0.389097 0.962486
vt 0.389097 0.962486
vt 0.389097 0.962486
vt 0.389097 0.962486
vt 0.389097 0.962486
vt 0.389097 0.962486
vt 0.389097 0.962486
vt 0.389097 0.962486
vt 0.389097 0.962486
vt 0.389097 0.962486
vt 0.389097 0.962486
vt 0.389097 0.962486
vt 0.389097 0.962486
vt 0.389097 0.962486
vt 0.389097 0.962486
vt 0.389097 0.962486
vt 0.205749 0.183769
vt 0.794251 0.183769
vt 0.794251 0.772271
vt 0.205749 0.772271
vt 0.205749 0.183769
vt 0.794251 0.183769
vt 0.794251 0.772271
vt 0.205749 0.772271
vt 0.794251 0.772271
vt 0.205749 0.772271
vt 0.205749 0.183769
vt 0.794251 0.183769
vt 0.205749 0.183769
vt 0.794251 0.183769
vt 0.794251 0.772271
vt 0.205749 0.772271
vt 0.205749 0.183769
vt 0.794251 0.183769
vt 0.794251 0.772271
vt 0.205749 0.772271
vt 0.205749 0.183769
vt 0.794251 0.183769
vt 0.794251 0.772271
vt 0.205749 0.772271
vn 0.000000 0.000000 1.000000
vn 0.000000 0.000000 1.000000
vn 0.000000 0.000000 1.000000
vn 0.000000 0.000000 1.000000
vn 0.000000 1.000000 0.000000
vn 0.000000 1.000000 0.000000
vn 0.000000 1.000000 -0.000000
vn 0.000000 1.000000 -0.000000
vn -0.000000 0.000000 -1.000000
vn -0.000000 0.000000 -1.000000
vn -0.000000 0.000000 -1.000000
vn -0.000000 0.000000 -1.000000
vn 0.000000 -1.000000 0.000000
vn 0.000000 -1.000000 0.000000
vn 0.000000 -1.000000 0.000000
vn 0.000000 -1.000000 0.000000
vn 1.000000 -0.000000 0.000000
vn 1.000000 -0.000000 0.000000
vn 1.000000 0.000000 0.000000
vn 1.000000 0.000000 0.000000
vn -1.000000 0.000000 0.000000
vn -1.000000 0.000000 0.000000
vn -1.000000 -0.000000 0.000000
vn -1.000000 -0.000000 0.000000
vn 0.000000 0.000000 1.000000
vn 0.000000 0.000000 1.000000
vn 0.000000 0.000000 1.000000
vn 0.000000 0.000000 1.000000
vn 0.000000 0.000000 1.000000
vn 0.000000 0.000000 1.000000
vn 0.000000 0.000000 1.000000
vn 0.000000 0.000000 1.000000
vn 0.000000 0.000000 1.000000
vn 0.000000 0.000000 1.000000
vn 0.000000 0.000000 1.000000
vn 0.000000 0.000000 1.000000
vn 0.000000 0.000000 1.000000
vn 0.000000 0.000000 1.000000
vn 0.000000 0.000000 1.000000
vn 0.000000 0.000000 1.000000
vn 0.000000 1.000000 0.000000
vn 0.000000 1.000000 0.000000
vn 0.000000 1.000000 0.000000
vn 0.000000 1.000000 0.000000
vn 0.000000 1.000000 0.000000
vn 0.000000 1.000000 -0.000000
vn 0.000000 1.000000 -0.000000
vn 0.000000 1.000000 0.000000
vn 0.000000 1.000000 -0.000000
vn 0.000000 1.000000 -0.000000
vn 0.000000 1.000000 -0.000000
vn 0.000000 1.000000 -0.000000
vn 0.000000 1.000000 -0.000000
vn 0.000000 1.000000 0.000000
vn 0.000000 1.000000 0.000000
vn 0.000000 1.000000 -0.000000
vn -0.000000 0.000000 -1.000000
vn -0.000000 0.000000 -1.000000
vn -0.000000 0.000000 -1.000000
vn -0.000000 0.000000 -1.000000
vn -0.000000 0.000000 -1.000000
vn -0.000000 0.000000 -1.000000
vn -0.000000 0.000000 -1.000000
vn -0.000000 0.000000 -1.000000
vn -0.000000 0.000000 -1.000000
vn -0.000000 0.000000 -1.000000
vn -0.000000 0.000000 -1.000000
vn -0.000000 0.000000 -1.000000
vn -0.000000 0.000000 -1.000000
vn -0.000000 0.000000 -1.000000
vn -0.000000 0.000000 -1.000000
vn -0.000000 0.000000 -1.000000
vn 0.000000 -1.000000 0.000000
vn 0.000000 -1.000000 0.000000
vn 0.000000 -1.000000 0.000000
vn 0.000000 -1.000000 0.000000
vn 0.000000 -1.000000 0.000000
vn 0.000000 -1.000000 0.000000
vn 0.000000 -1.000000 0.000000
vn 0.000000 -1.000000 0.000000
vn 0.000000 -1.000000 0.000000
vn 0.000000 -1.000000 0.000000
vn 0.000000 -1.000000 0.000000
vn 0.000000 -1.000000 0.000000
vn 0.000000 -1.000000 0.000000
vn 0.000000 -1.000000 0.000000
vn 0.000000 -1.000000 0.000000
vn 0.000000 -1.000000 0.000000
vn 1.000000 -0.000000 0.000000
vn 1.000000 -0.000000 0.000000
vn 1.000000 -0.000000 0.000000
vn 1.000000 -0.000000 0.000000
vn 1.000000 -0.000000 0.000000
vn 1.000000 0.000000 0.000000
vn 1.000000 0.000000 0.000000
vn 1.000000 -0.000000 0.000000
vn 1.000000 0.000000 0.000000
vn 1.000000 0.000000 0.000000
vn 1.000000 0.000000 0.000000
vn 1.000000 0.000000 0.000000
vn 1.000000 0.000000 0.000000
vn 1.000000 -0.000000 0.000000
vn 1.000000 -0.000000 0.000000
vn 1.000000 0.000000 0.000000
vn -1.000000 0.000000 0.000000
vn -1.000000 0.000000 0.000000
vn -1.000000 0.000000 0.000000
vn -1.000000 0.000000 0.000000
vn -1.000000 0.000000 0.000000
vn -1.000000 -0.000000 0.000000
vn -1.000000 -0.000000 0.000000
vn -1.000000 0.000000 0.000000
vn -1.000000 -0.000000 0.000000
vn -1.000000 -0.000000 0.000000
vn -1.000000 -0.000000 0.000000
vn -1.000000 -0.000000 0.000000
vn -1.000000 -0.000000 0.000000
vn -1.000000 0.000000 0.000000
vn -1.000000 0.000000 0.000000
vn -1.000000 -0.000000 0.000000
s off
f 9/39/1 10/40/2 11/41/3 12/42/4
f 13/43/5 14/44/6 15/45/7 16/46/8
f 17/47/9 18/48/10 19/49/11 20/50/12
f 21/51/13 22/52/14 23/53/15 24/54/16
f 26/55/17 25/56/18 27/57/19 28/58/20
f 29/59/21 30/60/22 31/61/23 32/62/24
f 1/1/25 2/2/26 10/16/27 9/15/28
f 2/2/29 4/4/30 11/17/31 10/16/32
f 4/4/33 3/3/34 12/18/35 11/17/36
f 3/3/37 1/1/38 9/15/39 12/18/40
f 3/3/41 4/4/42 14/20/43 13/19/44
f 4/4/45 6/6/46 15/21/47 14/20/48
f 6/6/49 5/5/50 16/22/51 15/21/52
f 5/5/53 3/3/54 13/19/55 16/22/56
f 5/5/57 6/6/58 18/24/59 17/23/60
f 6/6/61 8/8/62 19/25/63 18/24/64
f 8/8/65 7/7/66 20/26/67 19/25/68
f 7/7/69 5/5/70 17/23/71 20/26/72
f 7/7/73 8/8/74 22/28/75 21/27/76
f 8/8/77 2/10/78 23/29/79 22/28/80
f 2/10/81 1/9/82 24/30/83 23/29/84
f 1/9/85 7/7/86 21/27/87 24/30/88
f 2/2/89 8/11/90 25/32/91 26/31/92
f 8/11/93 6/12/94 27/33/95 25/32/96
f 6/12/97 4/4/98 28/34/99 27/33/100
f 4/4/101 2/2/102 26/31/103 28/34/104
f 7/13/105 1/1/106 30/36/107 29/35/108
f 1/1/109 3/3/110 31/37/111 30/36/112
f 3/3/113 5/14/114 32/38/115 31/37/116
f 5/14/117 7/13/118 29/35/119 32/38/120
