# This file uses meters as units for non-parametric coordinates.

v 0.000000 0.000000 0.000000
v 500.000000 0.000000 0.000000
v 166.666702 0.000000 0.000000
v 333.333405 0.000000 0.000000
v 500.000000 0.000000 -500.000000
v 500.000000 0.000000 -166.666794
v 500.000000 0.000000 -333.333221
v 0.000000 0.000000 -500.000000
v 0.000000 0.000000 -166.666794
v 0.000000 0.000000 -333.333221
v 166.666702 0.000000 -166.666794
v 166.666702 0.000000 -333.333221
v 166.666702 0.000000 -500.000000
v 333.333405 0.000000 -166.666794
v 333.333405 0.000000 -333.333405
v 333.333405 0.000000 -500.000000
v 338.402954 0.000000 -494.930664
v 494.930664 0.000000 -494.930664
v 494.930664 0.000000 -338.402740
v 338.402954 0.000000 -338.402740
v 494.930664 0.000000 -161.597244
v 338.402740 0.000000 -161.597244
v 494.930664 0.000000 -5.069447
v 338.402740 0.000000 -5.069447
v 494.930664 0.000000 -328.263855
v 338.402954 0.000000 -328.263855
v 494.930664 0.000000 -171.736145
v 338.402954 0.000000 -171.736145
v 161.597244 0.000000 -161.597244
v 5.069351 0.000000 -161.597244
v 161.597244 0.000000 -5.069447
v 5.069351 0.000000 -5.069447
v 161.597153 0.000000 -328.263855
v 5.069351 0.000000 -328.263855
v 161.597153 0.000000 -171.736145
v 5.069351 0.000000 -171.736145
v 5.069351 0.000000 -494.930664
v 161.597153 0.000000 -494.930664
v 161.597153 0.000000 -338.402740
v 5.069351 0.000000 -338.402740
v 328.264069 0.000000 -161.597244
v 171.736145 0.000000 -161.597244
v 328.264069 0.000000 -5.069447
v 171.736145 0.000000 -5.069447
v 328.264069 0.000000 -328.263855
v 171.736053 0.000000 -328.263855
v 328.264069 0.000000 -171.736145
v 171.736053 0.000000 -171.736145
v 171.736053 0.000000 -494.930664
v 328.264069 0.000000 -494.930664
v 328.264069 0.000000 -338.402740
v 171.736053 0.000000 -338.402740
v 346.028351 -2.442074 -488.124847
v 491.017548 -2.442074 -491.017365
v 487.340942 -2.442074 -344.861969
v 342.316040 -2.442074 -342.316040
v 491.017548 -2.442074 -157.683945
v 346.258545 -2.442074 -154.711349
v 490.646942 -2.442074 -14.144230
v 342.315857 -2.442074 -8.982658
v 491.017548 -2.442074 -324.350739
v 344.729797 -2.442074 -320.585846
v 489.708527 -2.442074 -180.836105
v 342.316040 -2.442074 -175.649261
v 156.234879 -2.442074 -155.363083
v 8.982468 -2.442074 -157.683945
v 157.684143 -2.442074 -8.982658
v 8.982468 -2.442074 -8.982658
v 153.851273 -2.442074 -320.187195
v 11.810541 -2.442074 -324.771698
v 157.684036 -2.442074 -175.649261
v 10.452795 -2.442074 -179.378708
v 8.982468 -2.442074 -491.017365
v 154.300934 -2.442074 -485.893036
v 157.684036 -2.442074 -342.316040
v 8.982468 -2.442074 -342.316040
v 321.347412 -2.442074 -152.292053
v 175.649261 -2.442074 -157.683945
v 324.350922 -2.442074 -8.982658
v 175.649261 -2.442074 -8.982658
v 324.350922 -2.442074 -324.350739
v 179.377228 -2.442074 -322.405426
v 323.010620 -2.442074 -179.428101
v 175.649155 -2.442074 -175.649261
v 175.649155 -2.442074 -491.017365
v 324.350922 -2.442074 -491.017365
v 320.615387 -2.442074 -343.791779
v 178.477997 -2.442074 -342.737000
vt 0.142967 0.758588
vt 0.254099 0.758588
vt 0.254099 0.647456
vt 0.142967 0.647456
vt 0.017138 0.635238
vt 0.128270 0.635238
vt 0.128270 0.524106
vt 0.017138 0.524106
vt 0.017777 0.759632
vt 0.128909 0.759632
vt 0.128909 0.648500
vt 0.017777 0.648500
vt 0.017063 0.635238
vt 0.128195 0.635238
vt 0.128195 0.524106
vt 0.017063 0.524106
vt 0.017701 0.759632
vt 0.128833 0.759632
vt 0.128833 0.648500
vt 0.017701 0.648500
vt 0.017063 0.635314
vt 0.128195 0.635314
vt 0.128195 0.524182
vt 0.017063 0.524182
vt 0.017296 0.759151
vt 0.128428 0.759151
vt 0.128428 0.648019
vt 0.017296 0.648019
vt 0.142486 0.635080
vt 0.253618 0.635080
vt 0.253618 0.523949
vt 0.142486 0.523949
vt 0.142486 0.634675
vt 0.253618 0.634675
vt 0.253618 0.523543
vt 0.142486 0.523543
vt 0.233939 0.279335
vt 0.233939 0.279335
vt 0.233939 0.279335
vt 0.233939 0.279335
vt 0.233939 0.279335
vt 0.233939 0.279335
vt 0.233939 0.279335
vt 0.233939 0.279335
vt 0.233939 0.279335
vt 0.233939 0.279335
vt 0.233939 0.279335
vt 0.233939 0.279335
vt 0.233939 0.279335
vt 0.233939 0.279335
vt 0.233939 0.279335
vt 0.233939 0.279335
vt 0.233939 0.279335
vt 0.233939 0.279335
vt 0.233939 0.279335
vt 0.233939 0.279335
vt 0.233939 0.279335
vt 0.233939 0.279335
vt 0.233939 0.279335
vt 0.233939 0.279335
vt 0.233939 0.279335
vt 0.233939 0.279335
vt 0.233939 0.279335
vt 0.233939 0.279335
vt 0.233939 0.279335
vt 0.233939 0.279335
vt 0.233939 0.279335
vt 0.233939 0.279335
vt 0.233939 0.279335
vt 0.233939 0.279335
vt 0.233939 0.279335
vt 0.233939 0.279335
vt 0.233939 0.279335
vt 0.233939 0.279335
vt 0.233939 0.279335
vt 0.233939 0.279335
vt 0.233939 0.279335
vt 0.233939 0.279335
vt 0.233939 0.279335
vt 0.233939 0.279335
vt 0.233939 0.279335
vt 0.233939 0.279335
vt 0.233939 0.279335
vt 0.233939 0.279335
vt 0.233939 0.279335
vt 0.233939 0.279335
vt 0.233939 0.279335
vt 0.233939 0.279335
vt 0.140043 0.761512
vt 0.257024 0.761512
vt 0.257024 0.644531
vt 0.140043 0.644531
vt 0.014214 0.638163
vt 0.131195 0.638163
vt 0.131195 0.521182
vt 0.014214 0.521182
vt 0.014853 0.762556
vt 0.131833 0.762556
vt 0.131833 0.645575
vt 0.014853 0.645575
vt 0.014138 0.638163
vt 0.131119 0.638163
vt 0.131119 0.521182
vt 0.014138 0.521182
vt 0.014777 0.762556
vt 0.131758 0.762556
vt 0.131758 0.645575
vt 0.014777 0.645575
vt 0.014138 0.638238
vt 0.131119 0.638238
vt 0.131119 0.521257
vt 0.014138 0.521257
vt 0.014372 0.762075
vt 0.131353 0.762075
vt 0.131353 0.645094
vt 0.014372 0.645094
vt 0.139562 0.638005
vt 0.256543 0.638005
vt 0.256543 0.521024
vt 0.139562 0.521024
vt 0.139562 0.637600
vt 0.256543 0.637600
vt 0.256543 0.520619
vt 0.139562 0.520619
vn 0.000000 -1.000000 -0.000000
vn 0.000000 -1.000000 -0.000000
vn 0.000000 -1.000000 -0.000000
vn 0.000000 -1.000000 -0.000000
vn 0.000000 -1.000000 -0.000000
vn 0.000000 -1.000000 -0.000000
vn 0.000000 -1.000000 -0.000000
vn 0.000000 -1.000000 -0.000000
vn 0.000000 -1.000000 0.000000
vn 0.000000 -1.000000 0.000000
vn 0.000000 -1.000000 0.000000
vn 0.000000 -1.000000 0.000000
vn 0.000000 -1.000000 0.000000
vn 0.000000 -1.000000 0.000000
vn 0.000000 -1.000000 0.000000
vn 0.000000 -1.000000 0.000000
vn 0.000000 -1.000000 -0.000000
vn 0.000000 -1.000000 -0.000000
vn 0.000000 -1.000000 -0.000000
vn 0.000000 -1.000000 -0.000000
vn 0.000000 -1.000000 0.000000
vn 0.000000 -1.000000 0.000000
vn 0.000000 -1.000000 0.000000
vn 0.000000 -1.000000 0.000000
vn 0.000000 -1.000000 -0.000000
vn 0.000000 -1.000000 -0.000000
vn 0.000000 -1.000000 -0.000000
vn 0.000000 -1.000000 -0.000000
vn 0.000000 -1.000000 0.000000
vn 0.000000 -1.000000 0.000000
vn 0.000000 -1.000000 0.000000
vn 0.000000 -1.000000 0.000000
vn 0.000000 -1.000000 0.000000
vn 0.000000 -1.000000 0.000000
vn 0.000000 -1.000000 0.000000
vn 0.000000 -1.000000 0.000000
vn 0.000000 -1.000000 0.000000
vn 0.000000 -1.000000 0.000000
vn 0.000000 -1.000000 0.000000
vn 0.000000 -1.000000 0.000000
vn 0.000000 -1.000000 0.000000
vn 0.000000 -1.000000 0.000000
vn 0.000000 -1.000000 0.000000
vn 0.000000 -1.000000 0.000000
vn 0.000000 -1.000000 0.000000
vn 0.000000 -1.000000 0.000000
vn 0.000000 -1.000000 0.000000
vn 0.000000 -1.000000 0.000000
vn 0.000000 -1.000000 0.000000
vn 0.000000 -1.000000 0.000000
vn 0.000000 -1.000000 0.000000
vn 0.000000 -1.000000 0.000000
vn 0.000000 -1.000000 0.000000
vn 0.000000 -1.000000 0.000000
vn 0.000000 -1.000000 0.000000
vn 0.000000 -1.000000 0.000000
vn 0.000000 -1.000000 0.000000
vn 0.000000 -1.000000 0.000000
vn 0.000000 -1.000000 0.000000
vn 0.000000 -1.000000 0.000000
vn 0.000000 -1.000000 0.000000
vn 0.000000 -1.000000 0.000000
vn 0.000000 -1.000000 0.000000
vn 0.000000 -1.000000 0.000000
vn 0.000000 -1.000000 0.000000
vn 0.000000 -1.000000 0.000000
vn 0.000000 -1.000000 0.000000
vn 0.000000 -1.000000 0.000000
vn 0.000000 -1.000000 0.000000
vn 0.000000 -1.000000 0.000000
vn 0.000000 -1.000000 0.000000
vn 0.000000 -1.000000 0.000000
vn 0.000000 -1.000000 0.000000
vn 0.000000 -1.000000 0.000000
vn 0.000000 -1.000000 0.000000
vn 0.000000 -1.000000 0.000000
vn 0.000000 -1.000000 0.000000
vn 0.000000 -1.000000 0.000000
vn 0.000000 -1.000000 0.000000
vn 0.000000 -1.000000 0.000000
vn 0.000000 -1.000000 0.000000
vn 0.000000 -1.000000 0.000000
vn 0.000000 -1.000000 0.000000
vn 0.000000 -1.000000 0.000000
vn 0.000000 -1.000000 0.000000
vn 0.000000 -1.000000 0.000000
vn 0.000000 -1.000000 0.000000
vn 0.000000 -1.000000 0.000000
vn 0.000000 -1.000000 0.000000
vn 0.000000 -1.000000 0.000000
vn 0.000000 -1.000000 0.000000
vn 0.000000 -1.000000 0.000000
vn 0.000000 -1.000000 0.000000
vn 0.000000 -1.000000 0.000000
vn 0.000000 -1.000000 0.000000
vn 0.000000 -1.000000 0.000000
vn 0.000000 -1.000000 0.000000
vn 0.000000 -1.000000 0.000000
vn 0.000000 -1.000000 0.000000
vn 0.000000 -1.000000 0.000000
vn 0.000000 -1.000000 0.000000
vn 0.000000 -1.000000 0.000000
vn 0.000000 -1.000000 0.000000
vn 0.000000 -1.000000 0.000000
vn 0.000000 -1.000000 0.000000
vn 0.000000 -1.000000 0.000000
vn 0.000000 -1.000000 0.000000
vn 0.000000 -1.000000 0.000000
vn 0.000000 -1.000000 0.000000
vn 0.000000 -1.000000 0.000000
vn 0.000000 -1.000000 0.000000
vn 0.000000 -1.000000 0.000000
vn 0.000000 -1.000000 0.000000
vn 0.000000 -1.000000 0.000000
vn 0.000000 -1.000000 0.000000
vn 0.000000 -1.000000 0.000000
vn 0.000000 -1.000000 0.000000
vn 0.000000 -1.000000 0.000000
vn 0.000000 -1.000000 0.000000
vn 0.000000 -1.000000 0.000000
vn 0.000000 -1.000000 0.000000
vn 0.000000 -1.000000 0.000000
vn 0.000000 -1.000000 0.000000
vn 0.000000 -1.000000 0.000000
vn 0.000000 -1.000000 0.000000
vn 0.000000 -1.000000 0.000000
vn 0.000000 -1.000000 0.000000
vn 0.000000 -1.000000 0.000000
vn 0.000000 -1.000000 0.000000
vn 0.000000 -1.000000 0.000000
vn 0.000000 -1.000000 0.000000
vn 0.000000 -1.000000 0.000000
vn 0.000000 -1.000000 0.000000
vn 0.000000 -1.000000 0.000000
vn 0.000000 -1.000000 0.000000
vn 0.000000 -1.000000 0.000000
vn 0.000000 -1.000000 0.000000
vn 0.000000 -1.000000 0.000000
vn 0.000000 -1.000000 0.000000
vn 0.000000 -1.000000 0.000000
vn 0.000000 -1.000000 0.000000
vn 0.000000 -1.000000 0.000000
vn 0.000000 -1.000000 0.000000
vn 0.000000 -1.000000 0.000000
vn 0.000000 -1.000000 0.000000
vn 0.000000 -1.000000 0.000000
vn 0.000000 -1.000000 0.000000
vn 0.000000 -1.000000 0.000000
vn 0.000000 -1.000000 0.000000
vn 0.000000 -1.000000 0.000000
vn 0.000000 -1.000000 0.000000
vn 0.000000 -1.000000 0.000000
vn 0.000000 -1.000000 0.000000
vn 0.000000 -1.000000 0.000000
vn 0.000000 -1.000000 0.000000
vn 0.000000 -1.000000 0.000000
vn 0.000000 -1.000000 0.000000
vn 0.000000 -1.000000 0.000000
vn 0.000000 -1.000000 0.000000
vn 0.000000 -1.000000 0.000000
vn 0.000000 -1.000000 0.000000
vn 0.000000 -1.000000 0.000000
vn 0.000000 -1.000000 0.000000
vn 0.000000 -1.000000 0.000000
vn 0.000000 -1.000000 0.000000
vn 0.000000 -1.000000 0.000000
vn 0.000000 -1.000000 0.000000
vn 0.000000 -1.000000 0.000000
vn 0.000000 -1.000000 0.000000
vn 0.000000 -1.000000 0.000000
vn 0.000000 -1.000000 0.000000
vn 0.000000 -1.000000 0.000000
vn 0.000000 -1.000000 0.000000
vn 0.000000 -1.000000 0.000000
vn 0.000000 -1.000000 0.000000
vn 0.000000 -1.000000 0.000000
vn 0.000000 -1.000000 0.000000
vn 0.000000 -1.000000 0.000000
vn 0.000000 -1.000000 0.000000
vn 0.000000 -1.000000 0.000000
vn -0.003967 -0.910498 -0.413493
vn -0.003967 -0.910498 -0.413493
vn -0.003967 -0.910499 -0.413493
vn -0.003967 -0.910498 -0.413493
vn 0.389940 -0.920828 0.004736
vn 0.389940 -0.920828 0.004736
vn 0.389940 -0.920828 0.004736
vn 0.389940 -0.920828 0.004736
vn 0.003588 -0.905203 0.424964
vn 0.003588 -0.905203 0.424964
vn 0.003588 -0.905203 0.424964
vn 0.003588 -0.905203 0.424964
vn -0.388788 -0.921315 -0.004774
vn -0.388788 -0.921315 -0.004774
vn -0.388788 -0.921315 -0.004774
vn -0.388788 -0.921315 -0.004774
vn -0.004054 -0.911693 -0.410851
vn -0.004054 -0.911693 -0.410851
vn -0.004054 -0.911693 -0.410851
vn -0.004054 -0.911693 -0.410851
vn 0.511585 -0.859232 0.000632
vn 0.511585 -0.859232 0.000632
vn 0.511585 -0.859232 0.000632
vn 0.511585 -0.859232 0.000632
vn 0.005957 -0.936045 0.351831
vn 0.005957 -0.936045 0.351831
vn 0.005957 -0.936045 0.351831
vn 0.005957 -0.936045 0.351831
vn -0.382226 -0.924056 -0.004986
vn -0.382226 -0.924056 -0.004986
vn -0.382226 -0.924056 -0.004986
vn -0.382226 -0.924056 -0.004986
vn -0.004817 -0.921879 -0.387449
vn -0.004817 -0.921879 -0.387449
vn -0.004817 -0.921879 -0.387449
vn -0.004817 -0.921879 -0.387449
vn 0.470581 -0.882355 0.002053
vn 0.470581 -0.882355 0.002053
vn 0.470581 -0.882355 0.002053
vn 0.470581 -0.882355 0.002053
vn 0.005988 -0.936410 0.350857
vn 0.005988 -0.936410 0.350857
vn 0.005988 -0.936410 0.350857
vn 0.005988 -0.936410 0.350857
vn -0.429473 -0.903073 -0.003439
vn -0.429473 -0.903073 -0.003439
vn -0.429473 -0.903073 -0.003439
vn -0.429473 -0.903073 -0.003439
vn 0.003310 -0.901239 -0.433309
vn 0.003310 -0.901239 -0.433309
vn 0.003310 -0.901239 -0.433309
vn 0.003310 -0.901239 -0.433309
vn 0.465482 -0.885054 -0.002227
vn 0.465482 -0.885054 -0.002227
vn 0.465482 -0.885054 -0.002227
vn 0.465482 -0.885054 -0.002227
vn 0.000000 -0.848357 0.529425
vn 0.000000 -0.848357 0.529425
vn 0.000000 -0.848357 0.529425
vn 0.000000 -0.848357 0.529425
vn -0.529434 -0.848351 0.000000
vn -0.529434 -0.848351 0.000000
vn -0.529434 -0.848351 0.000000
vn -0.529434 -0.848351 0.000000
vn 0.005965 -0.921432 -0.388494
vn 0.005965 -0.921432 -0.388494
vn 0.005965 -0.921432 -0.388494
vn 0.005965 -0.921432 -0.388494
vn 0.384889 -0.922950 -0.004900
vn 0.384889 -0.922950 -0.004900
vn 0.384889 -0.922950 -0.004900
vn 0.384889 -0.922950 -0.004900
vn -0.004774 -0.921312 0.388796
vn -0.004774 -0.921311 0.388796
vn -0.004774 -0.921312 0.388796
vn -0.004774 -0.921311 0.388796
vn -0.374146 -0.927368 -0.001683
vn -0.374146 -0.927368 -0.001683
vn -0.374146 -0.927368 -0.001683
vn -0.374146 -0.927368 -0.001683
vn 0.005967 -0.936170 -0.351497
vn 0.005967 -0.936170 -0.351497
vn 0.005967 -0.936170 -0.351497
vn 0.005967 -0.936170 -0.351497
vn 0.397723 -0.917495 -0.004484
vn 0.397723 -0.917495 -0.004484
vn 0.397723 -0.917495 -0.004484
vn 0.397723 -0.917495 -0.004484
vn 0.000000 -0.848362 0.529416
vn 0.000000 -0.848362 0.529416
vn 0.000000 -0.848362 0.529416
vn 0.000000 -0.848362 0.529416
vn -0.529434 -0.848351 0.000000
vn -0.529434 -0.848351 0.000000
vn -0.529434 -0.848351 0.000000
vn -0.529434 -0.848351 0.000000
vn 0.006161 -0.938453 -0.345352
vn 0.006161 -0.938453 -0.345352
vn 0.006161 -0.938453 -0.345352
vn 0.006161 -0.938453 -0.345352
vn 0.409415 -0.912339 -0.004101
vn 0.409415 -0.912339 -0.004101
vn 0.409415 -0.912339 -0.004101
vn 0.409415 -0.912339 -0.004101
vn 0.000000 -0.848357 0.529425
vn 0.000000 -0.848357 0.529425
vn 0.000000 -0.848357 0.529425
vn 0.000000 -0.848357 0.529425
vn -0.529433 -0.848352 0.000000
vn -0.529433 -0.848352 0.000000
vn -0.529433 -0.848352 0.000000
vn -0.529433 -0.848352 0.000000
vn -0.002879 -0.894922 -0.446214
vn -0.002879 -0.894922 -0.446214
vn -0.002879 -0.894922 -0.446214
vn -0.002879 -0.894922 -0.446214
vn 0.469566 -0.882895 0.002088
vn 0.469566 -0.882895 0.002088
vn 0.469566 -0.882895 0.002088
vn 0.469566 -0.882895 0.002088
vn 0.004818 -0.921886 0.387431
vn 0.004818 -0.921886 0.387431
vn 0.004818 -0.921886 0.387432
vn 0.004818 -0.921886 0.387432
vn -0.388669 -0.921365 -0.004778
vn -0.388669 -0.921365 -0.004778
vn -0.388669 -0.921365 -0.004778
vn -0.388669 -0.921365 -0.004778
vn 0.000000 -0.848362 -0.529416
vn 0.000000 -0.848362 -0.529416
vn 0.000000 -0.848362 -0.529416
vn 0.000000 -0.848362 -0.529416
vn 0.388618 -0.921387 0.004779
vn 0.388618 -0.921387 0.004779
vn 0.388618 -0.921387 0.004779
vn 0.388618 -0.921387 0.004779
vn 0.001585 -0.893657 0.448748
vn 0.001585 -0.893657 0.448748
vn 0.001585 -0.893657 0.448748
vn 0.001585 -0.893657 0.448748
vn -0.416567 -0.909097 0.003866
vn -0.416567 -0.909097 0.003866
vn -0.416567 -0.909097 0.003866
vn -0.416567 -0.909097 0.003866
s off
f 53/1/1 54/2/2 55/3/3 56/4/4
f 58/5/5 57/6/6 59/7/7 60/8/8
f 62/9/9 61/10/10 63/11/11 64/12/12
f 66/13/13 65/14/14 67/15/15 68/16/16
f 70/17/17 69/18/18 71/19/19 72/20/20
f 73/21/21 74/22/22 75/23/23 76/24/24
f 78/25/25 77/26/26 79/27/27 80/28/28
f 82/29/29 81/30/30 83/31/31 84/32/32
f 85/33/33 86/34/34 87/35/35 88/36/36
f 16/37/37 5/38/38 18/39/39 17/40/40
f 5/38/41 7/41/42 19/42/43 18/39/44
f 7/41/45 15/43/46 20/44/47 19/42/48
f 15/43/49 16/37/50 17/40/51 20/44/52
f 14/45/53 6/46/54 21/47/55 22/48/56
f 6/46/57 2/49/58 23/50/59 21/47/60
f 2/49/61 4/51/62 24/52/63 23/50/64
f 4/51/65 14/45/66 22/48/67 24/52/68
f 15/43/69 7/41/70 25/53/71 26/54/72
f 7/41/73 6/46/74 27/55/75 25/53/76
f 6/46/77 14/45/78 28/56/79 27/55/80
f 14/45/81 15/43/82 26/54/83 28/56/84
f 9/57/85 11/58/86 29/59/87 30/60/88
f 11/58/89 3/61/90 31/62/91 29/59/92
f 3/61/93 1/63/94 32/64/95 31/62/96
f 1/63/97 9/57/98 30/60/99 32/64/100
f 10/65/101 12/66/102 33/67/103 34/68/104
f 12/66/105 11/58/106 35/69/107 33/67/108
f 11/58/109 9/57/110 36/70/111 35/69/112
f 9/57/113 10/65/114 34/68/115 36/70/116
f 8/71/117 13/72/118 38/73/119 37/74/120
f 13/72/121 12/66/122 39/75/123 38/73/124
f 12/66/125 10/65/126 40/76/127 39/75/128
f 10/65/129 8/71/130 37/74/131 40/76/132
f 11/58/133 14/45/134 41/77/135 42/78/136
f 14/45/137 4/51/138 43/79/139 41/77/140
f 4/51/141 3/61/142 44/80/143 43/79/144
f 3/61/145 11/58/146 42/78/147 44/80/148
f 12/66/149 15/43/150 45/81/151 46/82/152
f 15/43/153 14/45/154 47/83/155 45/81/156
f 14/45/157 11/58/158 48/84/159 47/83/160
f 11/58/161 12/66/162 46/82/163 48/84/164
f 13/72/165 16/37/166 50/85/167 49/86/168
f 16/37/169 15/43/170 51/87/171 50/85/172
f 15/43/173 12/66/174 52/88/175 51/87/176
f 12/66/177 13/72/178 49/86/179 52/88/180
f 17/89/181 18/90/182 54/2/183 53/1/184
f 18/90/185 19/91/186 55/3/187 54/2/188
f 19/91/189 20/92/190 56/4/191 55/3/192
f 20/92/193 17/89/194 53/1/195 56/4/196
f 22/93/197 21/94/198 57/6/199 58/5/200
f 21/94/201 23/95/202 59/7/203 57/6/204
f 23/95/205 24/96/206 60/8/207 59/7/208
f 24/96/209 22/93/210 58/5/211 60/8/212
f 26/97/213 25/98/214 61/10/215 62/9/216
f 25/98/217 27/99/218 63/11/219 61/10/220
f 27/99/221 28/100/222 64/12/223 63/11/224
f 28/100/225 26/97/226 62/9/227 64/12/228
f 30/101/229 29/102/230 65/14/231 66/13/232
f 29/102/233 31/103/234 67/15/235 65/14/236
f 31/103/237 32/104/238 68/16/239 67/15/240
f 32/104/241 30/101/242 66/13/243 68/16/244
f 34/105/245 33/106/246 69/18/247 70/17/248
f 33/106/249 35/107/250 71/19/251 69/18/252
f 35/107/253 36/108/254 72/20/255 71/19/256
f 36/108/257 34/105/258 70/17/259 72/20/260
f 37/109/261 38/110/262 74/22/263 73/21/264
f 38/110/265 39/111/266 75/23/267 74/22/268
f 39/111/269 40/112/270 76/24/271 75/23/272
f 40/112/273 37/109/274 73/21/275 76/24/276
f 42/113/277 41/114/278 77/26/279 78/25/280
f 41/114/281 43/115/282 79/27/283 77/26/284
f 43/115/285 44/116/286 80/28/287 79/27/288
f 44/116/289 42/113/290 78/25/291 80/28/292
f 46/117/293 45/118/294 81/30/295 82/29/296
f 45/118/297 47/119/298 83/31/299 81/30/300
f 47/119/301 48/120/302 84/32/303 83/31/304
f 48/120/305 46/117/306 82/29/307 84/32/308
f 49/121/309 50/122/310 86/34/311 85/33/312
f 50/122/313 51/123/314 87/35/315 86/34/316
f 51/123/317 52/124/318 88/36/319 87/35/320
f 52/124/321 49/121/322 85/33/323 88/36/324
