# This file uses meters as units for non-parametric coordinates.

v -50.407749 0.000000 37.677853
v 50.407753 0.000000 37.677853
v -50.407749 100.912987 37.677853
v 50.407753 100.912987 37.677853
v -50.407749 100.912987 -37.677849
v 50.407753 100.912987 -37.677849
v -50.407749 0.000000 -37.677849
v 50.407753 0.000000 -37.677849
v -36.862305 100.912987 -50.456493
v -36.862305 100.912987 50.456493
v -36.862305 0.000000 50.456493
v -36.862305 0.000000 -50.456493
v 36.862305 0.000000 50.456493
v 36.862305 100.912987 50.456493
v 36.862305 100.912987 -50.456493
v 36.862305 0.000000 -50.456493
v 28.670782 100.912987 38.994007
v 28.670782 100.912987 -38.994003
v -28.670780 100.912987 -38.994003
v -28.670780 100.912987 38.994007
v -41.592461 100.912987 29.118385
v -41.592461 100.912987 -29.118385
v 41.592461 100.912987 29.118385
v 41.592461 100.912987 -29.118385
v 18.399719 81.498787 29.689077
v 18.399719 81.498787 -29.689077
v -18.399719 81.498787 -29.689077
v -18.399719 81.498787 29.689077
v -30.539387 81.498787 22.169992
v -30.539387 81.498787 -22.169992
v 30.539387 81.498787 22.169992
v 30.539387 81.498787 -22.169992
v 36.862305 77.391983 -50.456493
v -36.862305 77.391983 -50.456493
v -50.407749 77.391983 -37.677849
v -50.407749 77.391983 37.677853
v -36.862305 77.391983 50.456493
v 36.862305 77.391983 50.456493
v 50.407753 77.391983 37.677853
v 50.407753 77.391983 -37.677849
v 36.862305 60.248810 -50.456493
v -36.862305 60.248810 -50.456493
v -50.407749 60.248810 -37.677849
v -50.407749 60.248810 37.677853
v -36.862305 60.248810 50.456493
v 36.862305 60.248810 50.456493
v 50.407753 60.248810 37.677853
v 50.407753 60.248810 -37.677849
v 45.155987 68.544426 33.950069
v 31.982239 68.544426 45.464382
v -31.982239 68.544426 45.464382
v -45.155987 68.544426 33.950069
v -45.155987 68.544426 -33.950069
v -31.982239 68.544426 -45.464382
v 31.982239 68.544426 -45.464382
v 45.155987 68.544426 -33.950069
vt 0.994285 0.303411
vt 0.994285 0.303411
vt 0.994285 0.303411
vt 0.994285 0.303411
vt 0.994285 0.303411
vt 0.994285 0.303411
vt 0.994285 0.303411
vt 0.994285 0.303411
vt 0.994285 0.303411
vt 0.994285 0.303411
vt 0.994285 0.303411
vt 0.994285 0.303411
vt 0.994285 0.303411
vt 0.994285 0.303411
vt 0.994285 0.303411
vt 0.994285 0.303411
vt 0.994285 0.303411
vt 0.994285 0.303411
vt 0.994285 0.303411
vt 0.994285 0.303411
vt 0.994285 0.303411
vt 0.994285 0.303411
vt 0.994285 0.303411
vt 0.994285 0.303411
vt 0.994285 0.303411
vt 0.994285 0.303411
vt 0.994285 0.303411
vt 0.994285 0.303411
vt 0.994285 0.303411
vt 0.994285 0.303411
vt 0.994285 0.303411
vt 0.994285 0.303411
vt 0.994285 0.303411
vt 0.994285 0.303411
vt 0.994285 0.303411
vt 0.994285 0.303411
vt 0.994285 0.303411
vt 0.994285 0.303411
vt 0.994285 0.303411
vt 0.994285 0.303411
vt 0.994285 0.303411
vt 0.994285 0.303411
vt 0.994285 0.303411
vt 0.994285 0.303411
vt 0.994285 0.303411
vt 0.994285 0.303411
vt 0.994285 0.303411
vt 0.994285 0.303411
vt 0.994285 0.303411
vt 0.994285 0.303411
vt 0.994285 0.303411
vt 0.994285 0.303411
vt 0.994285 0.303411
vt 0.994285 0.303411
vt 0.994285 0.303411
vt 0.994285 0.303411
vt 0.994285 0.303411
vt 0.994285 0.303411
vt 0.994285 0.303411
vt 0.994285 0.303411
vt 0.994285 0.303411
vt 0.994285 0.303411
vt 0.994285 0.303411
vt 0.994285 0.303411
vt 0.994285 0.303411
vt 0.994285 0.303411
vt 0.994285 0.303411
vt 0.994285 0.303411
vt 0.994285 0.303411
vt 0.994285 0.303411
vt 0.038270 0.302310
vt 0.038270 0.302310
vt 0.038270 0.302310
vt 0.038270 0.302310
vt 0.038270 0.302310
vt 0.038270 0.302310
vt 0.038270 0.302310
vt 0.038270 0.302310
vn 0.000000 0.000000 1.000000
vn 0.000000 0.000000 1.000000
vn 0.000000 0.000000 1.000000
vn 0.000000 0.000000 1.000000
vn 0.000000 0.000000 -1.000000
vn 0.000000 0.000000 -1.000000
vn 0.000000 0.000000 -1.000000
vn 0.000000 0.000000 -1.000000
vn 0.000000 -1.000000 0.000000
vn 0.000000 -1.000000 0.000000
vn 0.000000 -1.000000 0.000000
vn 0.000000 -1.000000 0.000000
vn 1.000000 0.000000 0.000000
vn 1.000000 0.000000 0.000000
vn 1.000000 0.000000 0.000000
vn 1.000000 0.000000 0.000000
vn -1.000000 0.000000 0.000000
vn -1.000000 0.000000 0.000000
vn -1.000000 0.000000 0.000000
vn -1.000000 0.000000 0.000000
vn -0.686218 0.000000 0.727396
vn -0.686218 0.000000 0.727396
vn -0.686218 0.000000 0.727396
vn -0.686218 0.000000 0.727396
vn 0.000000 -1.000000 0.000000
vn 0.000000 -1.000000 0.000000
vn 0.000000 -1.000000 0.000000
vn 0.000000 -1.000000 0.000000
vn -0.686218 0.000000 -0.727396
vn -0.686218 0.000000 -0.727396
vn -0.686218 0.000000 -0.727396
vn -0.686218 0.000000 -0.727396
vn 0.686218 0.000000 0.727396
vn 0.686218 0.000000 0.727396
vn 0.686218 0.000000 0.727396
vn 0.686218 0.000000 0.727396
vn 0.686218 0.000000 -0.727396
vn 0.686218 0.000000 -0.727396
vn 0.686218 0.000000 -0.727396
vn 0.686218 0.000000 -0.727396
vn 0.000000 -1.000000 0.000000
vn 0.000000 -1.000000 0.000000
vn 0.000000 -1.000000 0.000000
vn 0.000000 -1.000000 0.000000
vn 0.000000 1.000000 -0.000000
vn 0.000000 1.000000 -0.000000
vn 0.000000 1.000000 -0.000000
vn 0.000000 1.000000 -0.000000
vn 0.000000 1.000000 -0.000000
vn 0.000000 1.000000 -0.000000
vn 0.000000 1.000000 -0.000000
vn 0.000000 1.000000 -0.000000
vn 0.000000 1.000000 -0.000000
vn 0.000000 1.000000 -0.000000
vn 0.000000 1.000000 -0.000000
vn 0.000000 1.000000 -0.000000
vn 0.000000 1.000000 0.000000
vn 0.000000 1.000000 0.000000
vn 0.000000 1.000000 0.000000
vn 0.000000 1.000000 0.000000
vn 0.000000 1.000000 0.000000
vn 0.000000 1.000000 0.000000
vn 0.000000 1.000000 0.000000
vn 0.000000 1.000000 0.000000
vn 0.000000 1.000000 0.000000
vn 0.000000 1.000000 0.000000
vn 0.000000 1.000000 0.000000
vn 0.000000 1.000000 0.000000
vn 0.000000 1.000000 0.000000
vn 0.000000 1.000000 0.000000
vn 0.000000 1.000000 0.000000
vn 0.000000 1.000000 0.000000
vn 0.000000 1.000000 -0.000001
vn 0.000000 1.000000 -0.000001
vn 0.000000 1.000000 -0.000001
vn 0.000000 1.000000 -0.000001
vn 0.000000 0.432207 0.901775
vn 0.000000 0.432207 0.901775
vn 0.000000 0.432207 0.901775
vn 0.000000 0.432207 0.901775
vn 0.000000 0.432207 -0.901775
vn 0.000000 0.432207 -0.901775
vn 0.000000 0.432207 -0.901775
vn 0.000000 0.432207 -0.901775
vn 0.476542 0.549109 -0.686576
vn 0.476542 0.549109 -0.686576
vn 0.476542 0.549109 -0.686576
vn 0.476542 0.549109 -0.686576
vn 0.476543 0.549108 0.686576
vn 0.476542 0.549108 0.686576
vn 0.476543 0.549108 0.686576
vn 0.476543 0.549108 0.686576
vn -0.476542 0.549109 -0.686576
vn -0.476542 0.549109 -0.686576
vn -0.476543 0.549109 -0.686576
vn -0.476542 0.549109 -0.686576
vn -0.476542 0.549108 0.686576
vn -0.476543 0.549108 0.686576
vn -0.476543 0.549108 0.686576
vn -0.476543 0.549108 0.686576
vn 0.000000 0.515615 -0.856820
vn 0.000000 0.515615 -0.856820
vn 0.000000 0.515615 -0.856820
vn 0.000000 0.515615 -0.856820
vn -0.525384 0.624543 -0.577856
vn -0.525384 0.624543 -0.577856
vn -0.525384 0.624543 -0.577856
vn -0.525384 0.624543 -0.577856
vn -0.844917 0.534897 0.000000
vn -0.844917 0.534897 0.000000
vn -0.844917 0.534897 0.000000
vn -0.844917 0.534897 0.000000
vn -0.525384 0.624543 0.577856
vn -0.525384 0.624543 0.577856
vn -0.525384 0.624543 0.577856
vn -0.525384 0.624543 0.577856
vn 0.000000 0.515615 0.856820
vn 0.000000 0.515615 0.856820
vn 0.000000 0.515615 0.856820
vn 0.000000 0.515615 0.856820
vn 0.525384 0.624543 0.577856
vn 0.525384 0.624543 0.577856
vn 0.525384 0.624543 0.577856
vn 0.525384 0.624543 0.577856
vn 0.844917 0.534898 0.000000
vn 0.844917 0.534898 0.000000
vn 0.844917 0.534898 0.000000
vn 0.844917 0.534898 0.000000
vn 0.525384 0.624543 -0.577856
vn 0.525384 0.624543 -0.577856
vn 0.525384 0.624543 -0.577856
vn 0.525384 0.624543 -0.577856
vn 0.000000 0.000000 -1.000000
vn 0.000000 0.000000 -1.000000
vn 0.000000 0.000000 -1.000000
vn 0.000000 0.000000 -1.000000
vn -0.686218 0.000000 -0.727396
vn -0.686218 0.000000 -0.727396
vn -0.686218 0.000000 -0.727396
vn -0.686218 0.000000 -0.727396
vn -1.000000 0.000000 0.000000
vn -1.000000 0.000000 0.000000
vn -1.000000 0.000000 0.000000
vn -1.000000 0.000000 0.000000
vn -0.686218 0.000000 0.727396
vn -0.686218 0.000000 0.727396
vn -0.686218 0.000000 0.727396
vn -0.686218 0.000000 0.727396
vn 0.000000 0.000000 1.000000
vn 0.000000 0.000000 1.000000
vn 0.000000 0.000000 1.000000
vn 0.000000 0.000000 1.000000
vn 0.686218 0.000000 0.727396
vn 0.686218 0.000000 0.727396
vn 0.686218 0.000000 0.727396
vn 0.686218 0.000000 0.727396
vn 1.000000 0.000000 0.000000
vn 1.000000 0.000000 0.000000
vn 1.000000 0.000000 0.000000
vn 1.000000 0.000000 0.000000
vn 0.686218 0.000000 -0.727396
vn 0.686218 0.000000 -0.727396
vn 0.686218 0.000000 -0.727396
vn 0.686218 0.000000 -0.727396
vn 0.538225 -0.599895 0.591980
vn 0.538225 -0.599895 0.591980
vn 0.538225 -0.599895 0.591980
vn 0.538225 -0.599895 0.591980
vn 0.000000 -0.491409 0.870929
vn 0.000000 -0.491409 0.870929
vn 0.000000 -0.491409 0.870929
vn 0.000000 -0.491409 0.870929
vn -0.538225 -0.599895 0.591980
vn -0.538225 -0.599895 0.591980
vn -0.538225 -0.599895 0.591980
vn -0.538225 -0.599895 0.591980
vn -0.859918 -0.510433 0.000000
vn -0.859918 -0.510433 0.000000
vn -0.859918 -0.510433 0.000000
vn -0.859918 -0.510433 0.000000
vn -0.538225 -0.599895 -0.591980
vn -0.538225 -0.599894 -0.591980
vn -0.538225 -0.599895 -0.591980
vn -0.538225 -0.599895 -0.591980
vn 0.000000 -0.491409 -0.870929
vn 0.000000 -0.491409 -0.870929
vn 0.000000 -0.491409 -0.870929
vn 0.000000 -0.491409 -0.870929
vn 0.538225 -0.599895 -0.591980
vn 0.538225 -0.599895 -0.591980
vn 0.538225 -0.599895 -0.591980
vn 0.538225 -0.599895 -0.591980
vn 0.859918 -0.510433 0.000000
vn 0.859918 -0.510433 0.000000
vn 0.859918 -0.510433 0.000000
vn 0.859918 -0.510433 0.000000
vn 0.869028 0.494763 0.000000
vn 0.869028 0.494763 0.000000
vn 0.869028 0.494763 0.000000
vn 0.869028 0.494763 0.000000
vn -0.869028 0.494763 0.000000
vn -0.869028 0.494763 0.000000
vn -0.869028 0.494763 0.000000
vn -0.869028 0.494763 0.000000
vn 0.000000 1.000000 0.000000
vn 0.000000 1.000000 0.000000
vn 0.000000 1.000000 0.000000
vn 0.000000 1.000000 0.000000
vn 0.000000 1.000000 0.000000
vn 0.000000 1.000000 0.000000
vn 0.000000 1.000000 0.000000
vn 0.000000 1.000000 0.000000
vn 0.000000 1.000000 0.000000
vn 0.000000 1.000000 0.000000
vn 0.000000 1.000000 0.000000
vn 0.000000 1.000000 0.000000
s off
f 37/46/1 38/47/2 14/22/3 10/16/4
f 9/15/5 15/23/6 33/41/7 34/42/8
f 16/24/9 13/21/10 11/18/11 12/19/12
f 39/48/13 40/50/14 6/12/15 4/4/16
f 35/43/17 36/45/18 3/3/19 5/14/20
f 36/45/21 37/46/22 10/16/23 3/3/24
f 7/7/25 12/19/26 11/18/27 1/9/28
f 5/5/29 9/15/30 34/42/31 35/44/32
f 14/22/33 38/47/34 39/48/35 4/4/36
f 40/49/37 33/41/38 15/23/39 6/6/40
f 13/21/41 16/24/42 8/8/43 2/10/44
f 15/23/45 9/15/46 19/28/47 18/26/48
f 10/16/49 14/22/50 17/25/51 20/27/52
f 3/3/53 10/16/54 20/27/55 21/29/56
f 9/15/57 5/5/58 22/30/59 19/28/60
f 5/5/61 3/3/62 21/29/63 22/30/64
f 14/22/65 4/4/66 23/31/67 17/25/68
f 4/4/69 6/6/70 24/32/71 23/31/72
f 6/6/73 15/23/74 18/26/75 24/32/76
f 18/26/77 19/28/78 27/36/79 26/34/80
f 28/35/81 20/27/82 17/25/83 25/33/84
f 21/29/85 20/27/86 28/35/87 29/37/88
f 19/28/89 22/30/90 30/38/91 27/36/92
f 17/25/93 23/31/94 31/39/95 25/33/96
f 24/32/97 18/26/98 26/34/99 32/40/100
f 54/67/101 55/68/102 41/51/103 42/52/104
f 53/66/105 54/67/106 42/52/107 43/54/108
f 43/53/109 44/55/110 52/64/111 53/65/112
f 44/55/113 45/56/114 51/63/115 52/64/116
f 45/56/117 46/57/118 50/62/119 51/63/120
f 49/61/121 50/62/122 46/57/123 47/58/124
f 47/58/125 48/60/126 56/70/127 49/61/128
f 48/59/129 41/51/130 55/68/131 56/69/132
f 41/51/133 16/24/134 12/19/135 42/52/136
f 43/54/137 42/52/138 12/19/139 7/7/140
f 7/13/141 1/1/142 44/55/143 43/53/144
f 1/1/145 11/17/146 45/56/147 44/55/148
f 11/17/149 13/20/150 46/57/151 45/56/152
f 47/58/153 46/57/154 13/20/155 2/2/156
f 2/2/157 8/11/158 48/60/159 47/58/160
f 16/24/161 41/51/162 48/59/163 8/8/164
f 39/48/165 38/47/166 50/62/167 49/61/168
f 50/62/169 38/47/170 37/46/171 51/63/172
f 52/64/173 51/63/174 37/46/175 36/45/176
f 53/65/177 52/64/178 36/45/179 35/43/180
f 35/44/181 34/42/182 54/67/183 53/66/184
f 34/42/185 33/41/186 55/68/187 54/67/188
f 56/69/189 55/68/190 33/41/191 40/49/192
f 49/61/193 56/70/194 40/50/195 39/48/196
f 21/29/197 29/37/198 30/38/199 22/30/200
f 24/32/201 32/40/202 31/39/203 23/31/204
f 26/71/205 27/72/206 28/75/207 25/76/208
f 28/75/209 27/72/210 30/73/211 29/74/212
f 26/71/213 25/76/214 31/77/215 32/78/216
