# This file uses meters as units for non-parametric coordinates.

v 500.000000 -0.000000 -500.000000
v 0.000000 -0.000000 -500.000000
v 500.000000 0.000000 0.000000
v 0.000000 0.000000 0.000000
v 250.000000 -0.000000 -500.000000
v 250.000000 0.000000 0.000000
v 125.000000 -0.000000 -500.000000
v 125.000000 0.000000 0.000000
v 0.000000 -0.000000 -250.000000
v 250.000000 -0.000000 -250.000000
v 500.000000 -0.000000 -250.000000
v 0.000000 -0.000000 -375.000000
v 121.484375 -0.000000 -375.000000
v 250.000000 -0.000000 -375.000000
v 500.000000 -0.000000 -375.000000
v 0.000000 -0.000000 -125.000000
v 125.000000 -0.000000 -125.000000
v 250.000000 -0.000000 -125.000000
v 500.000000 -0.000000 -125.000000
v 167.230225 -0.000000 -375.000000
v 84.804527 -0.000000 -375.000000
v 161.079407 -0.000000 -362.294006
v 91.690063 -0.000000 -362.630463
v 250.000000 -0.000000 -85.950478
v 250.000000 -0.000000 -39.955139
v 237.836456 -0.000000 -44.046021
v 237.322235 -0.000000 -80.838013
v 495.833588 2.471880 -495.666504
v 254.166412 2.471880 -495.666504
v 254.166412 2.471880 -379.333496
v 495.833588 2.471880 -379.333496
v 121.484375 2.471880 -379.333496
v 165.705109 2.471880 -379.333496
v 245.833588 2.471880 -379.333496
v 245.833588 2.471880 -495.666504
v 125.000000 2.471880 -495.666504
v 4.166412 2.471880 -495.666504
v 4.166412 2.471880 -379.333496
v 86.465454 2.471880 -379.333496
v 245.835861 2.471881 -370.860291
v 245.835861 2.471881 -250.026703
v 170.483398 2.471881 -370.860291
v 163.923645 2.471881 -358.663177
v 89.258583 2.471881 -358.988190
v 81.692505 2.471881 -370.860291
v 4.169464 2.471881 -370.860291
v 4.169464 2.471881 -250.026703
v 4.169464 2.471881 -129.193115
v 125.003052 2.471881 -129.193115
v 245.835861 2.471881 -129.193115
v 495.833588 2.471880 -247.916412
v 495.833588 2.471880 -127.083580
v 495.833588 2.471880 -368.750000
v 254.166412 2.471880 -368.750000
v 254.166412 2.471880 -247.916412
v 254.166412 2.471880 -127.083580
v 254.166412 2.471880 -88.850403
v 254.166412 2.471880 -45.300293
v 254.166412 2.471880 -6.250000
v 495.833588 2.471880 -6.250000
v 4.169464 2.471880 -122.916420
v 122.562416 2.471880 -122.916420
v 4.169464 2.471880 -5.828857
v 122.562416 2.471880 -5.828857
v 127.456665 2.471881 -122.917931
v 246.469879 2.471881 -122.917931
v 127.456665 2.471881 -5.830383
v 246.469879 2.471881 -5.830383
v 246.469879 2.471881 -38.359070
v 235.754395 2.471881 -42.623901
v 235.256958 2.471881 -82.131958
v 246.469879 2.471881 -87.460327
vt 0.102350 0.254467
vt 0.102350 0.254467
vt 0.102350 0.254467
vt 0.102350 0.254467
vt 0.102350 0.254467
vt 0.102350 0.254467
vt 0.102350 0.254467
vt 0.102350 0.254467
vt 0.102350 0.254467
vt 0.102350 0.254467
vt 0.102350 0.254467
vt 0.102350 0.254467
vt 0.102350 0.254467
vt 0.102350 0.254467
vt 0.102350 0.254467
vt 0.102350 0.254467
vt 0.102350 0.254467
vt 0.102350 0.254467
vt 0.102350 0.254467
vt 0.102350 0.254467
vt 0.102350 0.254467
vt 0.102350 0.254467
vt 0.102350 0.254467
vt 0.102350 0.254467
vt 0.102350 0.254467
vt 0.102350 0.254467
vt 0.102350 0.254467
vt 0.102350 0.304941
vt 0.102350 0.254467
vt 0.102350 0.254467
vt 0.102350 0.254467
vt 0.102350 0.304941
vt 0.102350 0.254467
vt 0.102350 0.254467
vt 0.102350 0.254467
vt 0.102350 0.254467
vt 0.102350 0.254467
vt 0.102350 0.254467
vt 0.102350 0.254467
vt 0.101832 0.278005
vt 0.102350 0.254467
vt 0.102350 0.254467
vt 0.102350 0.254467
vt 0.102350 0.254467
vt 0.102350 0.254467
vt 0.102350 0.254467
vt 0.102350 0.254467
vt 0.102350 0.254467
vt 0.102350 0.254467
vt 0.102350 0.254467
vt 0.102350 0.304941
vt 0.102350 0.254467
vt 0.102350 0.254467
vt 0.102350 0.254467
vt 0.102350 0.254467
vt 0.102350 0.254467
vt 0.102350 0.254467
vt 0.102350 0.254467
vt 0.102350 0.254467
vt 0.102350 0.254467
vt 0.102350 0.304941
vt 0.102350 0.254467
vt 0.102350 0.254467
vt 0.102350 0.254467
vt 0.102350 0.278005
vt 0.102350 0.254467
vt 0.102350 0.254467
vt 0.102350 0.254467
vt 0.102350 0.254467
vt 0.102350 0.254467
vt 0.102350 0.254467
vt 0.102350 0.254467
vt 0.102350 0.254467
vt 0.102350 0.254467
vt 0.102350 0.254467
vt 0.102350 0.278005
vt 0.102350 0.254467
vt 0.102350 0.278005
vt 0.102350 0.254467
vt 0.102350 0.254467
vt 0.106589 0.010260
vt 0.102350 0.254467
vt 0.102350 0.254467
vt 0.102350 0.278005
vt 0.106589 0.010260
vt 0.102350 0.254467
vt 0.102350 0.254467
vt 0.102350 0.278005
vt 0.106589 0.010260
vt 0.102350 0.254467
vt 0.102350 0.254467
vt 0.102350 0.278005
vt 0.106589 0.010260
vt 0.102350 0.254467
vt 0.102350 0.254467
vt 0.102350 0.254467
vt 0.102350 0.254467
vt 0.102350 0.278005
vt 0.102350 0.254467
vt 0.102350 0.254467
vt 0.102350 0.254467
vt 0.102350 0.254467
vt 0.102350 0.278005
vt 0.102350 0.254467
vt 0.102350 0.254467
vt 0.102350 0.254467
vt 0.102350 0.254467
vt 0.102350 0.254467
vt 0.102350 0.254467
vt 0.102350 0.254467
vt 0.102350 0.254467
vt 0.102350 0.254467
vt 0.102350 0.254467
vt 0.102350 0.254467
vt 0.102350 0.254467
vt 0.102350 0.254467
vt 0.102350 0.254467
vt 0.102350 0.254467
vt 0.102350 0.254467
vt 0.102350 0.304941
vt 0.102350 0.254467
vt 0.102350 0.304941
vt 0.102350 0.254467
vt 0.102350 0.304941
vt 0.102350 0.254467
vt 0.102350 0.254467
vt 0.102350 0.254467
vt 0.102350 0.254467
vt 0.102350 0.254467
vt 0.102350 0.254467
vt 0.102350 0.254467
vt 0.102350 0.304941
vt 0.102350 0.254467
vt 0.102350 0.304941
vt 0.102350 0.254467
vt 0.102350 0.254467
vt 0.102350 0.304941
vt 0.102350 0.254467
vt 0.102350 0.304941
vt 0.102350 0.254467
vt 0.102350 0.304941
vt 0.102350 0.254467
vt 0.102350 0.304941
vt 0.102350 0.254467
vt 0.102350 0.304941
vt 0.102350 0.254467
vt 0.102350 0.254467
vt 0.102350 0.254467
vt 0.102350 0.254467
vt 0.102350 0.304941
vt 0.102350 0.254467
vt 0.102350 0.254467
vt 0.102350 0.254467
vt 0.102350 0.254467
vt 0.102350 0.254467
vt 0.102350 0.254467
vt 0.102350 0.254467
vt 0.102350 0.254467
vt 0.102350 0.304941
vt 0.102350 0.254467
vt 0.102350 0.254467
vt 0.102350 0.254467
vt 0.102350 0.254467
vt 0.102350 0.254467
vt 0.102350 0.254467
vt 0.102350 0.254467
vt 0.102350 0.254467
vt 0.101832 0.278005
vt 0.102350 0.254467
vt 0.101832 0.278005
vt 0.102350 0.254467
vt 0.101832 0.278005
vt 0.102350 0.254467
vt 0.101832 0.278005
vt 0.102350 0.254467
vt 0.101832 0.278005
vt 0.102350 0.254467
vt 0.102350 0.254467
vt 0.101832 0.278005
vt 0.102350 0.254467
vt 0.102350 0.254467
vt 0.102350 0.254467
vt 0.102350 0.254467
vt 0.101832 0.278005
vt 0.102350 0.254467
vt 0.102350 0.254467
vt 0.106589 0.010260
vt 0.102350 0.254467
vt 0.102350 0.254467
vt 0.101832 0.278005
vt 0.106589 0.010260
vt 0.102350 0.254467
vt 0.102350 0.254467
vt 0.101832 0.278005
vt 0.106589 0.010260
vt 0.102350 0.254467
vt 0.102350 0.254467
vt 0.101832 0.278005
vt 0.106589 0.010260
vt 0.102350 0.254467
vt 0.102350 0.254467
vt 0.102350 0.254467
vt 0.102350 0.254467
vt 0.102350 0.304941
vt 0.102350 0.254467
vt 0.102350 0.254467
vt 0.102350 0.254467
vt 0.102350 0.304941
vt 0.102350 0.254467
vt 0.102350 0.304941
vt 0.102350 0.254467
vt 0.102350 0.304941
vt 0.102350 0.254467
vt 0.102350 0.254467
vt 0.102350 0.304941
vt 0.102350 0.254467
vt 0.102350 0.254467
vt 0.102350 0.304941
vt 0.102350 0.254467
vt 0.102350 0.254467
vt 0.102350 0.254467
vt 0.102350 0.254467
vt 0.102350 0.304941
vt 0.106589 0.010260
vt 0.102350 0.254467
vt 0.102350 0.254467
vt 0.102350 0.254467
vt 0.102350 0.254467
vt 0.102350 0.304941
vt 0.102350 0.254467
vt 0.102350 0.304941
vt 0.102350 0.254467
vt 0.102350 0.304941
vt 0.102350 0.254467
vn 0.000000 1.000000 0.000000
vn 0.000000 1.000000 0.000000
vn 0.000000 1.000000 0.000000
vn 0.000000 1.000000 0.000000
vn 0.000000 1.000000 -0.000000
vn 0.000000 1.000000 -0.000000
vn 0.000000 1.000000 -0.000000
vn 0.000000 1.000000 -0.000000
vn 0.000000 1.000000 -0.000000
vn 0.000000 1.000000 -0.000000
vn 0.000000 1.000000 -0.000000
vn 0.000000 1.000000 -0.000000
vn 0.000000 1.000000 -0.000000
vn 0.000000 1.000000 -0.000000
vn 0.000000 1.000000 -0.000000
vn 0.000000 1.000000 -0.000000
vn 0.000000 1.000000 -0.000000
vn 0.000000 1.000000 -0.000000
vn 0.000000 1.000000 -0.000000
vn 0.000000 1.000000 -0.000000
vn 0.000000 1.000000 -0.000000
vn 0.000000 1.000000 -0.000000
vn 0.000000 1.000000 -0.000000
vn 0.000000 1.000000 0.000000
vn 0.000000 1.000000 0.000000
vn 0.000000 1.000000 0.000000
vn 0.000000 1.000000 0.000000
vn 0.000000 1.000000 0.000000
vn 0.000000 1.000000 0.000000
vn 0.000000 1.000000 0.000000
vn 0.000000 1.000000 0.000000
vn 0.000000 1.000000 0.000000
vn 0.000000 1.000000 0.000000
vn 0.000000 1.000000 0.000000
vn 0.000000 1.000000 0.000000
vn 0.000000 1.000000 0.000000
vn 0.000000 1.000000 0.000000
vn 0.000000 1.000000 0.000000
vn 0.000000 1.000000 0.000000
vn 0.000000 1.000000 0.000000
vn 0.000000 1.000000 0.000000
vn 0.000000 1.000000 0.000000
vn 0.000000 1.000000 0.000000
vn 0.000000 1.000000 0.000000
vn 0.000000 1.000000 0.000000
vn 0.000000 1.000000 -0.000000
vn 0.000000 1.000000 -0.000000
vn 0.000000 1.000000 -0.000000
vn 0.000000 1.000000 -0.000000
vn 0.000000 1.000000 -0.000000
vn -0.000000 1.000000 -0.000000
vn -0.000000 1.000000 -0.000000
vn -0.000000 1.000000 -0.000000
vn -0.000000 1.000000 -0.000000
vn 0.000000 0.868623 -0.495474
vn 0.000000 0.868623 -0.495474
vn 0.000000 0.868623 -0.495473
vn 0.000000 0.868623 -0.495473
vn -0.510244 0.860030 0.000000
vn -0.510244 0.860030 0.000000
vn -0.510244 0.860030 0.000000
vn -0.510244 0.860030 0.000000
vn 0.000000 0.868623 0.495474
vn 0.000000 0.868623 0.495474
vn 0.000000 0.868623 0.495473
vn 0.000000 0.868623 0.495473
vn 0.510243 0.860030 0.000000
vn 0.510243 0.860030 0.000000
vn 0.510243 0.860030 0.000000
vn 0.510243 0.860030 0.000000
vn 0.000000 0.868623 0.495474
vn 0.000000 0.868623 0.495473
vn 0.000000 0.868623 0.495474
vn 0.000000 0.868623 0.495474
vn 0.000000 0.868623 0.495473
vn 0.000000 0.868623 0.495473
vn 0.000000 0.868623 0.495474
vn 0.000000 0.868623 0.495474
vn 0.510244 0.860030 0.000000
vn 0.510244 0.860030 0.000000
vn 0.510244 0.860030 0.000000
vn 0.510244 0.860030 0.000000
vn 0.000000 0.868623 -0.495474
vn 0.000000 0.868623 -0.495474
vn 0.000000 0.868623 -0.495474
vn 0.000000 0.868623 -0.495474
vn 0.000000 0.868623 -0.495474
vn 0.000000 0.868623 -0.495474
vn 0.000000 0.868623 -0.495474
vn 0.000000 0.868623 -0.495474
vn -0.510245 0.860029 0.000000
vn -0.510245 0.860029 0.000000
vn -0.510245 0.860029 0.000000
vn -0.510245 0.860029 0.000000
vn 0.000000 0.868623 0.495473
vn 0.000000 0.868623 0.495474
vn 0.000000 0.868623 0.495473
vn 0.000000 0.868623 0.495473
vn 0.000000 0.868623 0.495474
vn 0.000000 0.868623 0.495474
vn 0.000000 0.868623 0.495474
vn 0.000000 0.868623 0.495473
vn 0.510450 0.859908 0.000000
vn 0.510451 0.859907 0.000000
vn 0.510451 0.859907 0.000000
vn 0.510450 0.859908 0.000000
vn 0.000000 0.858584 -0.512673
vn 0.000000 0.858584 -0.512673
vn 0.000000 0.858584 -0.512673
vn 0.000000 0.858584 -0.512673
vn -0.430166 0.875644 -0.219557
vn -0.430166 0.875644 -0.219557
vn -0.430166 0.875644 -0.219557
vn -0.430166 0.875644 -0.219557
vn 0.002582 0.826959 -0.562257
vn 0.002582 0.826959 -0.562257
vn 0.002582 0.826959 -0.562257
vn 0.002582 0.826959 -0.562257
vn 0.422659 0.870558 -0.251968
vn 0.422659 0.870558 -0.251968
vn 0.422659 0.870558 -0.251968
vn 0.422659 0.870558 -0.251968
vn 0.000000 0.858584 -0.512673
vn 0.000000 0.858584 -0.512673
vn 0.000000 0.858584 -0.512673
vn 0.000000 0.858584 -0.512673
vn -0.509968 0.860193 0.000000
vn -0.509968 0.860193 0.000000
vn -0.509968 0.860193 0.000000
vn -0.509968 0.860193 0.000000
vn -0.509968 0.860193 0.000000
vn -0.509968 0.860193 0.000000
vn -0.509968 0.860193 0.000000
vn -0.509968 0.860193 0.000000
vn 0.000000 0.861454 0.507835
vn 0.000000 0.861454 0.507835
vn 0.000000 0.861454 0.507835
vn 0.000000 0.861454 0.507835
vn 0.000000 0.861454 0.507835
vn 0.000000 0.861454 0.507835
vn 0.000000 0.861454 0.507835
vn 0.000000 0.861454 0.507835
vn 0.510450 0.859908 0.000000
vn 0.510450 0.859908 0.000000
vn 0.510450 0.859908 0.000000
vn 0.510450 0.859908 0.000000
vn 0.510245 0.860029 0.000000
vn 0.510245 0.860029 0.000000
vn 0.510245 0.860029 0.000000
vn 0.510245 0.860029 0.000000
vn 0.510245 0.860029 0.000000
vn 0.510245 0.860029 0.000000
vn 0.510245 0.860029 0.000000
vn 0.510245 0.860029 0.000000
vn 0.000000 0.929912 -0.367781
vn 0.000000 0.929912 -0.367781
vn 0.000000 0.929912 -0.367781
vn 0.000000 0.929912 -0.367781
vn -0.510245 0.860029 0.000000
vn -0.510244 0.860029 0.000000
vn -0.510244 0.860030 0.000000
vn -0.510245 0.860029 0.000000
vn -0.510244 0.860029 0.000000
vn -0.510244 0.860030 0.000000
vn -0.510244 0.860030 0.000000
vn -0.510244 0.860030 0.000000
vn -0.510244 0.860030 0.000000
vn -0.510244 0.860030 0.000000
vn -0.510244 0.860030 0.000000
vn -0.510244 0.860030 0.000000
vn -0.510244 0.860030 0.000000
vn -0.510247 0.860028 0.000000
vn -0.510245 0.860029 0.000000
vn -0.510244 0.860030 0.000000
vn -0.510247 0.860028 0.000000
vn -0.510248 0.860028 0.000000
vn -0.510248 0.860028 0.000000
vn -0.510245 0.860029 0.000000
vn 0.000000 0.929912 0.367781
vn 0.000000 0.929912 0.367781
vn 0.000000 0.929912 0.367781
vn 0.000000 0.929912 0.367781
vn 0.510245 0.860029 0.000000
vn 0.510245 0.860029 0.000000
vn 0.510245 0.860029 0.000000
vn 0.510245 0.860029 0.000000
vn 0.000000 0.644497 -0.764607
vn 0.000000 0.644497 -0.764607
vn 0.000000 0.644497 -0.764607
vn 0.000000 0.644497 -0.764607
vn -0.509968 0.860193 0.000000
vn -0.509968 0.860193 0.000000
vn -0.509968 0.860193 0.000000
vn -0.509968 0.860193 0.000000
vn 0.000000 0.920637 0.390420
vn 0.000000 0.920637 0.390420
vn 0.000000 0.920637 0.390420
vn 0.000000 0.920637 0.390420
vn 0.712029 0.702150 0.000000
vn 0.712029 0.702150 0.000000
vn 0.712029 0.702150 0.000000
vn 0.712029 0.702150 0.000000
vn 0.000000 0.644224 -0.764837
vn 0.000000 0.644224 -0.764837
vn 0.000000 0.644224 -0.764837
vn 0.000000 0.644224 -0.764837
vn -0.709286 0.704920 0.000000
vn -0.709286 0.704920 0.000000
vn -0.709286 0.704920 0.000000
vn -0.709286 0.704920 0.000000
vn 0.000000 0.920674 0.390334
vn 0.000000 0.920674 0.390334
vn 0.000000 0.920673 0.390334
vn 0.000000 0.920674 0.390334
vn 0.573585 0.819146 0.000000
vn 0.573585 0.819146 0.000000
vn 0.573585 0.819146 0.000000
vn 0.573585 0.819146 0.000000
vn 0.247115 0.693615 -0.676633
vn 0.247115 0.693615 -0.676633
vn 0.247115 0.693615 -0.676633
vn 0.247115 0.693615 -0.676633
vn 0.765949 0.642821 -0.010156
vn 0.765949 0.642821 -0.010156
vn 0.765949 0.642821 -0.010156
vn 0.765950 0.642821 -0.010156
vn 0.287023 0.697334 0.656767
vn 0.287023 0.697334 0.656766
vn 0.287023 0.697334 0.656767
vn 0.287023 0.697334 0.656766
vn 0.573587 0.819144 0.000000
vn 0.573588 0.819144 0.000000
vn 0.573587 0.819144 0.000000
vn 0.573587 0.819144 0.000000
s off
f 28/28/1 29/233/2 30/231/3 31/229/4
f 32/32/5 33/223/6 34/218/7 35/215/8 36/212/9 37/210/10 38/208/11 39/204/12
f 41/40/13 40/198/14 42/194/15 43/190/16 44/184/17 45/179/18 46/176/19 47/174/20 48/172/21 49/170/22 50/168/23
f 52/51/24 51/159/25 53/150/26 54/145/27 55/143/28 56/141/29 57/139/30 58/137/31 59/134/32 60/132/33
f 62/61/34 61/124/35 63/122/36 64/120/37
f 66/65/38 65/103/39 67/98/40 68/92/41 69/88/42 70/84/43 71/78/44 72/76/45
f 21/187/46 23/191/47 22/195/48 20/199/49 13/224/50
f 24/81/51 27/85/52 26/89/53 25/93/54
f 1/234/55 5/5/56 29/232/57 28/226/58
f 5/219/59 14/155/60 30/230/61 29/29/62
f 14/156/63 15/161/64 31/228/65 30/30/66
f 15/162/67 1/1/68 28/227/69 31/31/70
f 13/13/71 20/200/72 33/222/73 32/205/74
f 20/201/75 14/153/76 34/217/77 33/33/78
f 14/154/79 5/220/80 35/214/81 34/34/82
f 5/221/83 7/7/84 36/211/85 35/35/86
f 7/216/87 2/2/88 37/209/89 36/36/90
f 2/213/91 12/12/92 38/207/93 37/37/94
f 12/180/95 21/185/96 39/203/97 38/38/98
f 21/186/99 13/225/100 32/206/101 39/39/102
f 10/147/103 14/151/104 40/197/105 41/165/106
f 14/152/107 20/202/108 42/193/109 40/41/110
f 20/20/111 22/196/112 43/189/113 42/42/114
f 22/22/115 23/192/116 44/183/117 43/43/118
f 23/23/119 21/188/120 45/178/121 44/44/122
f 21/21/123 12/181/124 46/175/125 45/45/126
f 12/182/127 9/9/128 47/173/129 46/46/130
f 9/177/131 16/16/132 48/171/133 47/47/134
f 16/126/135 17/114/136 49/169/137 48/48/138
f 17/115/139 18/107/140 50/167/141 49/49/142
f 18/108/143 10/146/144 41/166/145 50/50/146
f 19/163/147 11/11/148 51/158/149 52/129/150
f 11/164/151 15/15/152 53/149/153 51/52/154
f 15/160/155 14/157/156 54/144/157 53/53/158
f 14/14/159 10/148/160 55/142/161 54/54/162
f 10/10/163 18/109/164 56/140/165 55/55/166
f 18/110/167 24/79/168 57/138/169 56/56/170
f 24/80/171 25/94/172 58/136/173 57/57/174
f 25/95/175 6/100/176 59/133/177 58/58/178
f 6/101/179 3/3/180 60/131/181 59/59/182
f 3/135/183 19/19/184 52/130/185 60/60/186
f 17/113/187 16/127/188 61/123/189 62/117/190
f 16/128/191 4/4/192 63/121/193 61/62/194
f 4/125/195 8/8/196 64/119/197 63/63/198
f 8/104/199 17/112/200 62/118/201 64/64/202
f 18/18/203 17/116/204 65/102/205 66/73/206
f 17/17/207 8/105/208 67/97/209 65/66/210
f 8/106/211 6/6/212 68/91/213 67/67/214
f 6/99/215 25/96/216 69/87/217 68/68/218
f 25/25/219 26/90/220 70/83/221 69/69/222
f 26/26/223 27/86/224 71/77/225 70/70/226
f 27/27/227 24/82/228 72/75/229 71/71/230
f 24/24/231 18/111/232 66/74/233 72/72/234
