# This file uses meters as units for non-parametric coordinates.

v 15.744019 0.000000 -499.999237
v 15.744019 0.000000 -0.000000
v 484.446716 0.000000 -0.000000
v 484.446716 0.000000 -499.999237
v 500.000000 0.000000 -0.000000
v 500.000000 0.000000 -499.999237
v 0.000000 0.000000 -0.000000
v 0.000000 0.000000 -499.999237
v 500.000000 0.000000 -243.677689
v 484.446716 0.000000 -84.250214
v 15.744019 0.000000 -84.250198
v 0.000000 0.000000 -243.677689
v 467.042664 0.000000 -97.873276
v 33.148247 0.000000 -97.873268
v 467.043091 0.000000 -388.186371
v 33.148247 0.000000 -388.186371
v 484.446716 0.000000 -404.401672
v 15.744019 0.000000 -404.401672
vt 0.015275 0.025147
vt 0.982243 0.025147
vt 0.982243 0.982723
vt 0.015275 0.982723
vt 0.024743 0.008014
vt 0.024743 0.008014
vt 0.024743 0.008014
vt 0.024743 0.008014
vt 0.024743 0.008014
vt 0.024743 0.008014
vt 0.024743 0.008014
vt 0.024743 0.008014
vt 0.024743 0.008014
vt 0.819308 0.982723
vt 0.024743 0.008014
vt 0.819308 0.025147
vt 0.024743 0.008014
vt 0.024743 0.008014
vt 0.792962 0.982723
vt 0.024743 0.008014
vt 0.792962 0.025147
vt 0.024743 0.008014
vt 0.231515 0.982723
vt 0.024743 0.008014
vt 0.231515 0.025147
vt 0.024743 0.008014
vt 0.200157 0.982723
vt 0.024743 0.008014
vt 0.200157 0.025147
vt 0.024743 0.008014
vn 0.000000 1.000000 0.000000
vn 0.000000 1.000000 0.000000
vn 0.000000 1.000000 0.000000
vn 0.000000 1.000000 0.000000
vn 0.000000 1.000000 0.000000
vn 0.000000 1.000000 0.000000
vn 0.000000 1.000000 0.000000
vn 0.000000 1.000000 0.000000
vn 0.000000 1.000000 0.000000
vn 0.000000 1.000000 0.000000
vn 0.000000 1.000000 0.000000
vn 0.000000 1.000000 0.000000
vn 0.000000 1.000000 0.000000
vn 0.000000 1.000000 0.000000
vn 0.000000 1.000000 0.000000
vn 0.000000 1.000000 0.000000
vn 0.000000 1.000000 0.000000
vn 0.000000 1.000000 0.000000
vn 0.000000 1.000000 0.000000
vn 0.000000 1.000000 0.000000
vn 0.000000 1.000000 0.000000
vn 0.000000 1.000000 0.000000
vn 0.000000 1.000000 0.000000
vn 0.000000 1.000000 0.000000
vn 0.000000 1.000000 0.000000
vn 0.000000 1.000000 0.000000
vn 0.000000 1.000000 0.000000
vn 0.000000 1.000000 0.000000
vn 0.000000 1.000000 0.000000
vn 0.000000 1.000000 0.000000
vn 0.000000 1.000000 0.000000
vn 0.000000 1.000000 0.000000
vn 0.000000 1.000000 0.000000
vn 0.000000 1.000000 0.000000
vn 0.000000 1.000000 0.000000
vn 0.000000 1.000000 0.000000
vn 0.000000 1.000000 0.000000
vn 0.000000 1.000000 0.000000
vn 0.000000 1.000000 0.000000
vn 0.000000 1.000000 0.000000
vn 0.000000 1.000000 0.000000
vn 0.000000 1.000000 0.000000
vn 0.000000 1.000000 0.000000
vn 0.000000 1.000000 0.000000
vn 0.000000 1.000000 0.000000
vn 0.000000 1.000000 0.000000
vn 0.000000 1.000000 0.000000
vn 0.000000 1.000000 0.000000
vn 0.000000 1.000000 0.000000
vn 0.000000 1.000000 0.000000
vn 0.000000 1.000000 0.000000
vn 0.000000 1.000000 0.000000
vn 0.000000 1.000000 0.000000
vn 0.000000 1.000000 0.000000
s off
f 10/14/1 11/16/2 2/2/3 3/3/4
f 10/15/5 3/6/6 5/5/7 9/13/8
f 11/17/9 12/18/10 7/9/11 2/12/12
f 13/20/13 10/15/14 9/13/15
f 13/19/16 14/21/17 11/16/18 10/14/19
f 14/22/20 12/18/21 11/17/22
f 15/24/23 13/20/24 9/13/25
f 15/23/26 16/25/27 14/21/28 13/19/29
f 16/26/30 12/18/31 14/22/32
f 17/28/33 15/24/34 9/13/35
f 17/27/36 18/29/37 16/25/38 15/23/39
f 18/30/40 12/18/41 16/26/42
f 4/7/43 17/28/44 9/13/45 6/8/46
f 4/4/47 1/1/48 18/29/49 17/27/50
f 1/10/51 8/11/52 12/18/53 18/30/54
