# This file uses meters as units for non-parametric coordinates.

v 13.546753 0.000001 -500.000000
v 13.546753 0.000001 0.000000
v 31.538391 0.000001 -500.000000
v 31.538391 0.000001 0.000000
v 46.459198 0.000001 -241.529465
v 14.580536 0.000001 -241.529465
v 486.453278 0.000001 -500.000000
v 486.453278 0.000001 0.000000
v 468.461609 0.000001 -500.000000
v 468.461609 0.000001 0.000000
v 485.699829 0.000001 -80.176163
v 467.708221 0.000001 -80.176163
v 173.472595 0.000001 -119.877625
v 173.472595 0.000001 -206.052399
v 80.503845 0.000001 -162.880707
v 173.472595 0.000001 -46.393585
v 173.472595 0.000001 -280.263519
v 293.450928 0.000001 -386.153412
v 207.276154 0.000001 -383.415985
v 192.727661 0.000001 -210.786438
v 275.086212 0.000001 -161.486053
v 204.588318 0.000001 -225.547028
v 293.450928 0.000000 -211.658478
v 207.276154 0.000000 -248.284912
v 293.450928 0.000001 -318.631744
v 293.450928 0.000001 -348.128510
v 286.034393 0.000037 -331.302643
v 240.315262 0.000001 -136.433411
v 233.309937 0.000001 -139.591980
v 211.366272 0.000001 -124.821472
v 112.322998 0.000001 -203.056335
v 129.553986 0.000001 -226.634979
v 131.874847 0.000037 -215.779114
v 0.000000 0.000001 -500.000000
v 0.000000 0.000001 0.000000
v 0.000000 0.000001 -241.250229
v 500.000000 0.000001 -500.000000
v 500.000000 0.000001 0.000000
v 500.000000 0.000001 -80.176163
v 250.000000 0.000001 -500.000000
v 250.000000 0.000001 0.000000
v 453.443512 0.000001 -94.574738
v 453.974518 0.000001 -390.424530
v 486.273193 0.000001 -399.630157
v 468.295654 0.000001 -407.520874
v 500.000000 0.000001 -400.429932
v 31.908417 0.000001 -407.467285
v 45.855713 0.000001 -392.353424
v 45.860676 0.000001 -101.807022
v 31.914143 0.000001 -87.846947
vt 0.024743 0.008014
vt 0.024743 0.008014
vt 0.024743 0.008014
vt 0.024743 0.008014
vt 0.024743 0.008014
vt 0.024743 0.008014
vt 0.024743 0.008014
vt 0.024743 0.008014
vt 0.024743 0.008014
vt 0.024743 0.008014
vt 0.024743 0.008014
vt 0.024743 0.008014
vt 0.024743 0.008014
vt 0.024743 0.008014
vt 0.024743 0.008014
vt 0.024743 0.008014
vt 0.024743 0.008014
vt 0.024743 0.008014
vt 0.024743 0.008014
vt 0.024743 0.008014
vt 0.024743 0.008014
vt 0.024743 0.008014
vt 0.024743 0.008014
vt 0.024743 0.008014
vt 0.024743 0.008014
vt 0.024743 0.008014
vt 0.024743 0.008014
vt 0.024743 0.008014
vt 0.024743 0.008014
vt 0.024743 0.008014
vt 0.024743 0.008014
vt 0.024743 0.008014
vt 0.024743 0.008014
vt 0.041474 0.023534
vt 0.056724 0.646230
vt 0.015275 0.689024
vt 0.015275 0.023534
vt 0.041474 0.986623
vt 0.015275 0.986623
vt 0.982243 0.023534
vt 0.982243 0.534571
vt 0.928503 0.465424
vt 0.956044 0.023534
vt 0.982243 0.986623
vt 0.956044 0.986623
vt 0.170964 0.337270
vt 0.101991 0.743598
vt 0.076268 0.023534
vt 0.387999 0.429546
vt 0.350760 0.563371
vt 0.350760 0.420427
vt 0.893134 0.454526
vt 0.547275 0.334584
vt 0.480030 0.286328
vt 0.350760 0.112896
vt 0.921251 0.023534
vt 0.498759 0.023534
vt 0.498759 0.986623
vt 0.582791 0.767335
vt 0.921251 0.986623
vt 0.076268 0.986623
vt 0.416134 0.762061
vt 0.466481 0.292412
vt 0.424045 0.263961
vt 0.582791 0.694092
vt 0.582791 0.637275
vt 0.582791 0.431226
vt 0.350760 0.254439
vt 0.416134 0.501775
vt 0.410936 0.457978
vt 0.265824 0.460074
vt 0.568448 0.661683
vt 0.232501 0.414657
vt 0.270313 0.439162
vt 0.024743 0.008014
vt 0.894098 0.472776
vt 0.024743 0.008014
vt 0.913912 0.847744
vt 0.024743 0.008014
vt 0.949322 0.859411
vt 0.024743 0.008014
vt 0.915057 0.869413
vt 0.982243 0.879410
vt 0.024743 0.008014
vt 0.085477 0.899620
vt 0.024743 0.008014
vt 0.086981 0.885409
vt 0.024743 0.008014
vt 0.087110 0.327048
vt 0.024743 0.008014
vt 0.085624 0.285432
vn 0.000000 1.000000 -0.000000
vn 0.000000 1.000000 -0.000000
vn 0.000000 1.000000 -0.000000
vn 0.000000 1.000000 0.000000
vn 0.000000 1.000000 0.000000
vn 0.000000 1.000000 0.000000
vn 0.000000 1.000000 0.000000
vn 0.000000 1.000000 0.000000
vn 0.000000 1.000000 0.000000
vn 0.000000 1.000000 0.000000
vn 0.000000 1.000000 0.000000
vn 0.000000 1.000000 -0.000000
vn 0.000000 1.000000 -0.000000
vn 0.000000 1.000000 0.000000
vn 0.000000 1.000000 0.000000
vn 0.000000 1.000000 0.000000
vn 0.000000 1.000000 0.000000
vn 0.000000 1.000000 0.000000
vn 0.000000 1.000000 0.000000
vn 0.000000 1.000000 0.000000
vn 0.000000 1.000000 0.000000
vn 0.000000 1.000000 -0.000000
vn 0.000000 1.000000 -0.000000
vn 0.000000 1.000000 -0.000000
vn 0.000000 1.000000 -0.000000
vn 0.000000 1.000000 -0.000000
vn 0.000000 1.000000 -0.000000
vn 0.000000 1.000000 -0.000000
vn 0.000000 1.000000 -0.000000
vn 0.000000 1.000000 -0.000001
vn 0.000000 1.000000 -0.000001
vn 0.000000 1.000000 -0.000001
vn 0.000000 1.000000 -0.000001
vn 0.000000 1.000000 0.000000
vn 0.000000 1.000000 0.000000
vn 0.000000 1.000000 0.000000
vn 0.000000 1.000000 -0.000000
vn 0.000000 1.000000 -0.000000
vn 0.000000 1.000000 -0.000000
vn 0.000000 1.000000 0.000000
vn 0.000000 1.000000 0.000000
vn 0.000000 1.000000 0.000000
vn 0.000000 1.000000 0.000000
vn 0.000000 1.000000 0.000000
vn 0.000000 1.000000 0.000000
vn 0.000000 1.000000 0.000000
vn 0.000000 1.000000 0.000000
vn 0.000000 1.000000 0.000000
vn 0.000000 1.000000 0.000000
vn 0.000000 1.000000 0.000000
vn 0.000000 1.000000 0.000000
vn 0.000000 1.000000 0.000001
vn 0.000000 1.000000 0.000001
vn 0.000000 1.000000 0.000001
vn 0.000000 1.000000 0.000001
vn 0.000000 1.000000 0.000000
vn 0.000000 1.000000 0.000000
vn 0.000000 1.000000 0.000000
vn 0.000000 1.000000 0.000000
vn -0.000000 1.000000 0.000000
vn -0.000000 1.000000 0.000000
vn -0.000000 1.000000 0.000000
vn 0.000000 1.000000 0.000000
vn 0.000000 1.000000 0.000000
vn 0.000000 1.000000 0.000000
vn 0.000000 1.000000 0.000000
vn 0.000000 1.000000 0.000000
vn 0.000000 1.000000 0.000000
vn 0.000000 1.000000 0.000000
vn 0.000000 1.000000 0.000000
vn 0.000000 1.000000 0.000000
vn 0.000000 1.000000 0.000000
vn 0.000000 1.000000 0.000000
vn 0.000000 1.000000 0.000000
vn 0.000000 1.000000 0.000000
vn 0.000000 1.000000 0.000000
vn 0.000000 1.000000 0.000000
vn 0.000000 1.000000 0.000000
vn 0.000000 1.000000 0.000000
vn 0.000000 1.000000 0.000000
vn 0.000000 1.000000 0.000000
vn 0.000000 1.000000 0.000000
vn 0.000000 1.000000 0.000000
vn 0.000000 1.000000 0.000000
vn 0.000000 1.000000 0.000000
vn 0.000000 1.000000 0.000000
vn 0.000000 1.000000 0.000000
vn 0.000000 1.000000 0.000000
vn 0.000000 1.000000 0.000000
vn 0.000000 1.000000 0.000000
vn 0.000000 1.000000 0.000000
vn 0.000000 1.000000 0.000000
vn 0.000000 1.000000 0.000000
vn 0.000000 1.000000 0.000000
vn 0.000000 1.000000 0.000000
vn 0.000000 1.000000 0.000000
vn 0.000000 1.000000 0.000000
vn 0.000000 1.000000 0.000000
vn 0.000000 1.000000 0.000000
vn 0.000000 1.000000 0.000000
vn 0.000000 1.000000 0.000000
vn 0.000000 1.000000 -0.000000
vn 0.000000 1.000000 -0.000000
vn 0.000000 1.000000 -0.000000
vn 0.000000 1.000000 0.000000
vn 0.000000 1.000000 0.000000
vn 0.000000 1.000000 0.000000
vn 0.000000 1.000000 0.000000
vn 0.000000 1.000000 0.000000
vn 0.000000 1.000000 0.000000
vn 0.000000 1.000000 0.000000
vn 0.000000 1.000000 0.000000
vn 0.000000 1.000000 0.000000
vn 0.000000 1.000000 0.000000
vn 0.000000 1.000000 0.000000
vn 0.000000 1.000000 0.000000
vn 0.000000 1.000000 0.000000
vn 0.000000 1.000000 0.000000
vn 0.000000 1.000000 0.000000
vn 0.000000 1.000000 0.000000
vn 0.000000 1.000000 0.000000
vn 0.000000 1.000000 0.000000
vn -0.000000 1.000000 -0.000000
vn -0.000000 1.000000 -0.000000
vn 0.000000 1.000000 0.000000
vn 0.000000 1.000000 0.000000
vn 0.000000 1.000000 0.000000
vn 0.000000 1.000000 0.000000
vn 0.000000 1.000000 0.000000
vn 0.000000 1.000000 0.000000
vn 0.000000 1.000000 -0.000000
vn 0.000000 1.000000 -0.000000
vn 0.000000 1.000000 -0.000000
vn 0.000000 1.000000 -0.000000
vn 0.000000 1.000000 -0.000000
vn 0.000000 1.000000 -0.000000
vn 0.000000 1.000000 0.000000
vn 0.000000 1.000000 0.000000
vn 0.000000 1.000000 0.000000
vn 0.000000 1.000000 0.000000
vn 0.000000 1.000000 0.000000
vn 0.000000 1.000000 0.000000
vn 0.000005 1.000000 0.000000
vn 0.000005 1.000000 0.000000
vn 0.000005 1.000000 0.000000
vn -0.000004 1.000000 -0.000003
vn -0.000004 1.000000 -0.000003
vn -0.000004 1.000000 -0.000003
vn 0.000000 1.000000 -0.000000
vn 0.000000 1.000000 -0.000000
vn 0.000000 1.000000 -0.000000
vn 0.000000 1.000000 0.000000
vn 0.000000 1.000000 0.000000
vn 0.000000 1.000000 0.000000
vn 0.000000 1.000000 0.000000
vn 0.000000 1.000000 0.000000
vn 0.000000 1.000000 0.000000
vn 0.000000 1.000000 0.000000
vn 0.000000 1.000000 0.000000
vn 0.000000 1.000000 -0.000000
vn 0.000000 1.000000 -0.000000
vn 0.000000 1.000000 -0.000000
vn 0.000000 1.000000 -0.000000
vn 0.000000 1.000000 -0.000000
vn -0.000000 1.000000 -0.000000
vn -0.000000 1.000000 -0.000000
vn -0.000000 1.000000 -0.000000
vn -0.000000 1.000000 -0.000000
vn -0.000000 1.000000 -0.000000
vn -0.000000 1.000000 -0.000000
vn -0.000000 1.000000 -0.000000
vn 0.000000 1.000000 0.000000
vn 0.000000 1.000000 0.000000
vn 0.000000 1.000000 0.000000
vn 0.000000 1.000000 0.000000
vn -0.000000 1.000000 -0.000000
vn -0.000000 1.000000 -0.000000
vn 0.000000 1.000000 0.000000
vn 0.000000 1.000000 0.000000
vn 0.000000 1.000000 0.000000
vn 0.000000 1.000000 0.000000
vn 0.000000 1.000000 0.000000
vn 0.000000 1.000000 0.000000
vn 0.000000 1.000000 0.000000
vn 0.000000 1.000000 -0.000000
vn 0.000000 1.000000 -0.000000
vn 0.000000 1.000000 0.000000
vn 0.000000 1.000000 0.000000
vn 0.000000 1.000000 -0.000000
vn 0.000000 1.000000 -0.000000
vn 0.000000 1.000000 0.000000
vn 0.000000 1.000000 -0.000000
vn 0.000000 1.000000 -0.000000
vn 0.000000 1.000000 0.000000
vn 0.000000 1.000000 -0.000000
vn 0.000000 1.000000 -0.000000
vn 0.000000 1.000000 -0.000000
vn 0.000000 1.000000 0.000000
vn 0.000000 1.000000 0.000000
vn 0.000000 1.000000 -0.000000
vn 0.000000 1.000000 -0.000000
vn 0.000000 1.000000 0.000000
vn 0.000000 1.000000 -0.000000
s off
f 6/3/1 50/90/2 49/88/3
f 6/3/4 47/84/5 3/5/6 1/6/7
f 8/7/8 11/8/9 12/9/10 10/10/11
f 45/81/12 44/79/13 7/11/14 9/12/15
f 13/13/16 14/14/17 15/15/18
f 15/15/19 16/16/20 13/13/21
f 17/17/22 32/18/23 33/19/24 14/14/25
f 23/20/26 24/21/27 22/22/28 21/23/29
f 19/24/30 27/25/31 26/26/32 18/27/33
f 21/23/34 22/22/35 28/30/36
f 28/30/37 22/22/38 29/29/39
f 22/22/40 20/28/41 29/29/42
f 13/13/43 30/31/44 14/14/45
f 14/14/46 30/31/47 20/28/48
f 30/31/49 29/29/50 20/28/51
f 14/14/52 33/19/53 31/32/54 15/15/55
f 27/25/56 24/21/57 23/20/58 25/33/59
f 19/24/60 24/21/61 27/25/62
f 2/34/63 6/35/64 36/36/65 35/37/66
f 36/36/67 6/35/68 1/38/69 34/39/70
f 38/40/71 39/41/72 11/42/73 8/43/74
f 44/80/75 46/83/76 37/44/77 7/45/78
f 15/46/79 5/47/80 49/89/81
f 20/49/82 17/50/83 14/51/84
f 12/52/85 21/53/86 28/54/87 16/55/88
f 10/56/89 12/52/90 16/55/91 41/57/92
f 40/58/93 18/59/94 9/60/95
f 3/61/96 19/62/97 40/58/98
f 19/62/99 18/59/100 40/58/101
f 16/55/102 29/63/103 30/64/104
f 28/54/105 29/63/106 16/55/107
f 41/57/108 16/55/109 4/48/110
f 4/48/111 16/55/112 15/46/113
f 23/67/114 9/60/115 25/66/116
f 25/66/117 9/60/118 26/65/119
f 9/60/120 18/59/121 26/65/122
f 42/76/123 21/53/124 12/52/125
f 16/55/126 30/64/127 13/68/128
f 5/47/129 17/50/130 19/62/131 48/87/132
f 24/69/133 17/50/134 20/49/135 22/70/136
f 19/62/137 17/50/138 24/69/139
f 5/47/140 32/71/141 17/50/142
f 26/65/143 27/72/144 25/66/145
f 31/73/146 33/74/147 32/71/148
f 15/46/149 31/73/150 5/47/151
f 5/47/152 31/73/153 32/71/154
f 12/9/155 11/8/156 42/75/157
f 42/75/158 11/8/159 44/79/160 43/77/161
f 43/77/162 44/79/163 45/81/164
f 9/60/165 23/67/166 43/78/167
f 43/78/168 23/67/169 21/53/170 42/76/171
f 11/42/172 39/41/173 46/83/174 44/80/175
f 9/60/176 43/78/177 45/82/178
f 6/3/179 48/86/180 47/84/181
f 6/3/182 5/2/183 48/86/184
f 6/3/185 49/88/186 5/2/187
f 4/1/188 50/90/189 6/3/190 2/4/191
f 48/87/192 3/61/193 47/85/194
f 48/87/195 19/62/196 3/61/197
f 15/46/198 49/89/199 4/48/200
f 4/48/201 49/89/202 50/91/203
