# This file uses meters as units for non-parametric coordinates.

v 57.022453 0.000000 -103.444717
v -12.384670 0.000003 -108.613762
v -103.100807 0.000000 -57.472008
v -88.144836 0.000000 78.572273
v 99.592369 0.000000 53.628548
v 109.997772 0.000000 1.677190
v 0.932511 5.055379 98.809433
v 65.409302 4.123798 61.685310
v -38.951641 13.732235 -30.718702
v 37.155876 13.890087 -33.073105
v -10.347430 13.278409 -44.183147
v -33.537682 14.979354 40.772282
v 37.367168 5.443503 -89.434113
v 85.915131 3.563902 -33.391689
v 87.694839 4.050619 40.484184
v 29.003557 7.360962 75.053520
v -37.387119 4.770714 94.905754
v -72.727440 5.521554 69.904198
v -88.671722 4.546997 -35.933174
v -38.354523 4.737753 -81.959229
v 1.260657 9.674003 79.683723
v -75.469757 9.607900 7.026746
v 2.117259 9.742929 -74.575500
v 84.312881 6.240823 5.310405
v -94.871307 4.548114 1.856804
v -80.469490 4.587014 -54.885994
v -2.523108 4.752685 -94.840599
v 64.204979 5.531819 -70.038086
v 21.736904 15.564343 23.458847
v -0.287202 16.679176 5.512433
v 97.937141 0.000009 -46.534561
v 51.811943 0.000000 102.415894
v -33.907742 0.000003 108.613762
v -111.416222 0.000000 30.261450
v 23.327126 12.901324 53.720596
v -47.239491 13.190380 -10.517705
v -26.798958 15.893546 19.588638
v 22.026199 15.789063 -16.648773
v -47.828018 14.856595 29.576767
v 55.324043 13.300714 -19.872553
v 51.576519 12.933242 22.856949
v -24.614307 11.370677 73.070297
v -60.454018 10.170406 36.374290
v 19.798138 10.345453 -60.204617
v 45.337486 9.042452 -49.497139
v 33.886223 13.423635 36.394012
v -45.330612 11.011420 49.467552
v -10.102143 15.641626 53.350014
v 4.367808 0.000006 7.685130
v -72.985344 0.000003 93.949554
v 78.976700 0.000003 -83.045731
v -40.173073 0.000003 -99.143402
v -86.843163 0.000003 -76.297218
vt 0.233800 0.329450
vt 0.233800 0.329450
vt 0.233800 0.329450
vt 0.233800 0.329450
vt 0.233800 0.329450
vt 0.233800 0.329450
vt 0.233800 0.329450
vt 0.233800 0.329450
vt 0.233800 0.329450
vt 0.233800 0.329450
vt 0.233800 0.329450
vt 0.233800 0.329450
vt 0.233800 0.329450
vt 0.233800 0.329450
vt 0.233800 0.329450
vt 0.233800 0.329450
vt 0.233800 0.329450
vt 0.233800 0.329450
vt 0.233800 0.329450
vt 0.233800 0.329450
vt 0.233800 0.329450
vt 0.233800 0.329450
vt 0.233800 0.329450
vt 0.233800 0.329450
vt 0.233800 0.329450
vt 0.233800 0.329450
vt 0.233800 0.329450
vt 0.233800 0.329450
vt 0.233800 0.329450
vt 0.233800 0.329450
vt 0.233800 0.329450
vt 0.233800 0.329450
vt 0.233800 0.329450
vt 0.233800 0.329450
vt 0.233800 0.329450
vt 0.233800 0.329450
vt 0.233800 0.329450
vt 0.233800 0.329450
vt 0.233800 0.329450
vt 0.233800 0.329450
vt 0.233800 0.329450
vt 0.233800 0.329450
vt 0.233800 0.329450
vt 0.233800 0.329450
vt 0.233800 0.329450
vt 0.233800 0.329450
vt 0.233800 0.329450
vt 0.233800 0.329450
vt 0.233800 0.329450
vt 0.233800 0.329450
vt 0.233800 0.329450
vt 0.233800 0.329450
vt 0.233800 0.329450
vt 0.233800 0.329450
vt 0.233800 0.329450
vt 0.233800 0.329450
vt 0.233800 0.329450
vt 0.233800 0.329450
vt 0.233800 0.329450
vn -0.079876 0.971984 -0.221059
vn -0.079876 0.971984 -0.221059
vn -0.079876 0.971984 -0.221059
vn -0.231820 0.970005 0.073150
vn -0.231820 0.970004 0.073150
vn -0.231820 0.970005 0.073150
vn -0.231820 0.970004 0.073150
vn -0.131803 0.967598 0.215366
vn -0.131803 0.967598 0.215366
vn -0.131803 0.967598 0.215366
vn 0.119643 0.964606 0.234993
vn 0.119643 0.964606 0.234993
vn 0.119643 0.964606 0.234993
vn 0.159320 0.973491 0.164109
vn 0.159320 0.973491 0.164109
vn 0.159320 0.973491 0.164109
vn 0.280833 0.958200 -0.054650
vn 0.280833 0.958200 -0.054650
vn 0.280833 0.958199 -0.054650
vn 0.078168 0.979028 0.188134
vn 0.078168 0.979028 0.188134
vn 0.078168 0.979028 0.188134
vn -0.017370 0.997359 -0.070519
vn -0.017370 0.997359 -0.070519
vn -0.017370 0.997359 -0.070519
vn 0.002024 0.998225 0.059526
vn 0.002024 0.998225 0.059526
vn 0.002024 0.998225 0.059526
vn -0.095033 0.960039 -0.263236
vn -0.095033 0.960039 -0.263236
vn -0.095033 0.960039 -0.263236
vn -0.189241 0.978680 -0.079832
vn -0.189241 0.978680 -0.079832
vn -0.189241 0.978680 -0.079832
vn -0.311801 0.949688 -0.029553
vn -0.311801 0.949688 -0.029553
vn -0.311801 0.949688 -0.029553
vn 0.134022 0.972619 -0.189872
vn 0.134022 0.972619 -0.189872
vn 0.134022 0.972619 -0.189872
vn -0.176788 0.983166 -0.046159
vn -0.176788 0.983166 -0.046159
vn -0.176788 0.983166 -0.046159
vn 0.117490 0.968347 0.220226
vn 0.117490 0.968347 0.220226
vn 0.117490 0.968347 0.220226
vn -0.065966 0.982664 -0.173260
vn -0.065966 0.982665 -0.173260
vn -0.065966 0.982665 -0.173260
vn -0.093770 0.983783 -0.152899
vn -0.093770 0.983783 -0.152899
vn -0.093770 0.983783 -0.152899
vn 0.030248 0.991741 -0.124638
vn 0.030248 0.991741 -0.124638
vn 0.030248 0.991741 -0.124638
vn 0.030248 0.991741 -0.124638
vn 0.139717 0.966425 -0.215645
vn 0.139717 0.966425 -0.215645
vn 0.139717 0.966425 -0.215645
vn 0.174856 0.964564 -0.197592
vn 0.174856 0.964564 -0.197592
vn 0.174856 0.964564 -0.197592
vn 0.214182 0.976416 0.027182
vn 0.214182 0.976416 0.027182
vn 0.214182 0.976416 0.027182
vn 0.249459 0.951376 0.180703
vn 0.249459 0.951376 0.180703
vn 0.249459 0.951376 0.180703
vn 0.039595 0.994185 0.100141
vn 0.039595 0.994185 0.100141
vn 0.039595 0.994185 0.100141
vn -0.203733 0.965171 0.164127
vn -0.203733 0.965171 0.164127
vn -0.203733 0.965171 0.164127
vn -0.284217 0.950284 0.127206
vn -0.284217 0.950284 0.127206
vn -0.284217 0.950284 0.127206
vn -0.152193 0.987403 -0.043268
vn -0.152193 0.987403 -0.043268
vn -0.152193 0.987403 -0.043268
vn -0.165350 0.984083 -0.065116
vn -0.165350 0.984083 -0.065116
vn -0.165350 0.984083 -0.065116
vn 0.227986 0.971948 -0.057789
vn 0.227986 0.971948 -0.057789
vn 0.227986 0.971948 -0.057789
vn 0.240912 0.969833 0.037226
vn 0.240912 0.969833 0.037226
vn 0.240912 0.969833 0.037226
vn 0.083418 0.977558 0.193446
vn 0.083418 0.977558 0.193446
vn 0.083418 0.977558 0.193446
vn 0.140725 0.979207 0.146120
vn 0.140725 0.979207 0.146120
vn 0.140725 0.979207 0.146120
vn 0.026573 0.941442 -0.336127
vn 0.026573 0.941442 -0.336127
vn 0.026573 0.941442 -0.336127
vn 0.026573 0.941442 -0.336127
vn 0.210163 0.975001 -0.072147
vn 0.210163 0.975001 -0.072147
vn 0.210163 0.975001 -0.072147
vn 0.185030 0.962345 -0.199137
vn 0.185030 0.962345 -0.199137
vn 0.185030 0.962345 -0.199137
vn 0.226359 0.972396 -0.056626
vn 0.226359 0.972396 -0.056626
vn 0.226359 0.972397 -0.056626
vn 0.268145 0.961880 0.053707
vn 0.268145 0.961880 0.053707
vn 0.268145 0.961880 0.053707
vn 0.155283 0.974850 0.159860
vn 0.155283 0.974850 0.159860
vn 0.155283 0.974850 0.159860
vn 0.153195 0.976740 0.150033
vn 0.153195 0.976740 0.150033
vn 0.153195 0.976740 0.150033
vn 0.041186 0.820875 0.569622
vn 0.041186 0.820875 0.569622
vn 0.041186 0.820875 0.569622
vn -0.041393 0.940322 0.337761
vn -0.041393 0.940321 0.337761
vn -0.041393 0.940322 0.337761
vn -0.135375 0.965977 0.220366
vn -0.135375 0.965977 0.220366
vn -0.135375 0.965977 0.220366
vn -0.268963 0.954397 0.129560
vn -0.268963 0.954397 0.129560
vn -0.268963 0.954397 0.129560
vn -0.188459 0.980942 0.047295
vn -0.188459 0.980942 0.047295
vn -0.188459 0.980942 0.047295
vn -0.245165 0.968645 -0.040249
vn -0.245165 0.968645 -0.040249
vn -0.245165 0.968645 -0.040249
vn -0.161777 0.955586 -0.246339
vn -0.161777 0.955586 -0.246339
vn -0.161777 0.955586 -0.246339
vn 0.045735 0.998936 0.005927
vn 0.045735 0.998936 0.005927
vn 0.045735 0.998936 0.005927
vn 0.069497 0.996269 -0.051169
vn 0.069497 0.996269 -0.051169
vn 0.069497 0.996269 -0.051169
vn 0.081482 0.996613 0.011095
vn 0.081482 0.996613 0.011095
vn 0.081482 0.996613 0.011095
vn 0.081482 0.996613 0.011095
vn 0.089161 0.992755 0.080552
vn 0.089161 0.992755 0.080552
vn 0.089161 0.992755 0.080552
vn 0.086767 0.992781 0.082805
vn 0.086767 0.992781 0.082805
vn 0.086767 0.992781 0.082805
vn -0.000234 0.996149 0.087673
vn -0.000234 0.996149 0.087673
vn -0.000234 0.996149 0.087673
vn 0.082019 0.996080 -0.033130
vn 0.082019 0.996080 -0.033130
vn 0.082019 0.996080 -0.033130
vn -0.043861 0.998612 0.029143
vn -0.043861 0.998613 0.029143
vn -0.043861 0.998613 0.029143
vn -0.033904 0.998902 0.032323
vn -0.033904 0.998902 0.032323
vn -0.033904 0.998902 0.032323
vn -0.056656 0.997087 -0.051059
vn -0.056656 0.997087 -0.051059
vn -0.056656 0.997087 -0.051059
vn -0.069304 0.996693 -0.042437
vn -0.069304 0.996693 -0.042437
vn -0.069304 0.996693 -0.042437
vn -0.073013 0.997326 -0.003203
vn -0.073013 0.997326 -0.003203
vn -0.073013 0.997326 -0.003203
vn -0.019811 0.998000 -0.060033
vn -0.019811 0.998000 -0.060033
vn -0.019811 0.998000 -0.060033
vn 0.011589 0.994478 -0.104305
vn 0.011589 0.994478 -0.104305
vn 0.011589 0.994478 -0.104305
vn -0.183116 0.938800 0.291759
vn -0.183116 0.938800 0.291759
vn -0.183116 0.938800 0.291759
vn -0.205169 0.955815 0.210533
vn -0.205169 0.955815 0.210533
vn -0.205169 0.955815 0.210533
vn -0.205169 0.955815 0.210533
vn 0.021389 0.988560 -0.149307
vn 0.021389 0.988560 -0.149307
vn 0.021389 0.988560 -0.149307
vn 0.260235 0.960077 -0.102613
vn 0.260235 0.960077 -0.102613
vn 0.260235 0.960077 -0.102613
vn 0.220411 0.974607 0.039494
vn 0.220411 0.974607 0.039494
vn 0.220411 0.974607 0.039494
vn 0.154093 0.973997 0.166086
vn 0.154093 0.973997 0.166086
vn 0.154093 0.973997 0.166086
vn 0.149595 0.973743 0.171598
vn 0.149595 0.973743 0.171598
vn 0.149595 0.973743 0.171598
vn -0.020996 0.965958 0.257845
vn -0.020996 0.965958 0.257845
vn -0.020996 0.965958 0.257845
vn -0.020996 0.965958 0.257845
vn -0.126340 0.987344 0.095861
vn -0.126340 0.987344 0.095861
vn -0.126340 0.987344 0.095861
vn -0.131686 0.987316 0.088686
vn -0.131686 0.987316 0.088686
vn -0.131686 0.987316 0.088686
vn -0.242218 0.969407 -0.039765
vn -0.242218 0.969407 -0.039765
vn -0.242218 0.969407 -0.039765
vn 0.067979 0.989808 -0.125136
vn 0.067979 0.989808 -0.125136
vn 0.067979 0.989808 -0.125136
vn 0.016074 0.970007 -0.242543
vn 0.016074 0.970007 -0.242543
vn 0.016074 0.970007 -0.242543
vn 0.083922 0.990815 -0.106037
vn 0.083922 0.990815 -0.106037
vn 0.083922 0.990815 -0.106036
vn 0.083922 0.990815 -0.106037
vn -0.173758 0.982070 -0.073124
vn -0.173758 0.982070 -0.073124
vn -0.173758 0.982070 -0.073124
vn -0.114743 0.978207 -0.173046
vn -0.114743 0.978207 -0.173046
vn -0.114743 0.978207 -0.173046
vn 0.000000 -1.000000 0.000000
vn 0.000000 -1.000000 0.000000
vn 0.000000 -1.000000 0.000000
vn 0.000000 -1.000000 -0.000000
vn 0.000000 -1.000000 -0.000000
vn 0.000000 -1.000000 -0.000000
vn -0.000000 -1.000000 0.000000
vn -0.000000 -1.000000 0.000000
vn -0.000000 -1.000000 0.000000
vn 0.000000 -1.000000 0.000000
vn 0.000000 -1.000000 0.000000
vn 0.000000 -1.000000 0.000000
vn -0.000000 -1.000000 -0.000000
vn -0.000000 -1.000000 -0.000000
vn -0.000000 -1.000000 -0.000000
vn -0.000000 -1.000000 -0.000000
vn -0.000000 -1.000000 -0.000000
vn -0.000000 -1.000000 -0.000000
vn -0.000000 -1.000000 -0.000000
vn -0.000000 -1.000000 -0.000000
vn -0.000000 -1.000000 -0.000000
vn -0.000000 -1.000000 -0.000000
vn -0.000000 -1.000000 -0.000000
vn -0.000000 -1.000000 -0.000000
vn 0.000000 -1.000000 -0.000000
vn 0.000000 -1.000000 -0.000000
vn 0.000000 -1.000000 -0.000000
vn 0.000000 -1.000000 -0.000000
vn 0.000000 -1.000000 -0.000000
vn 0.000000 -1.000000 -0.000000
vn -0.219232 0.951434 0.216127
vn -0.219232 0.951434 0.216127
vn -0.219232 0.951434 0.216127
vn -0.133518 0.924974 0.355803
vn -0.133518 0.924974 0.355803
vn -0.133518 0.924974 0.355803
vn 0.246835 0.960542 -0.128183
vn 0.246835 0.960542 -0.128183
vn 0.246835 0.960542 -0.128183
vn -0.087305 0.962680 -0.256176
vn -0.087305 0.962680 -0.256176
vn -0.087305 0.962680 -0.256176
vn -0.179232 0.971554 -0.154786
vn -0.179232 0.971554 -0.154786
vn -0.179232 0.971554 -0.154786
vn 0.000000 -1.000000 0.000000
vn 0.000000 -1.000000 0.000000
vn 0.000000 -1.000000 0.000000
vn 0.000000 -1.000000 0.000000
vn 0.000000 -1.000000 0.000000
vn 0.000000 -1.000000 0.000000
vn 0.000000 -1.000000 0.000000
vn 0.000000 -1.000000 0.000000
vn 0.000000 -1.000000 0.000000
vn -0.089613 0.979009 -0.183061
vn -0.089613 0.979009 -0.183061
vn -0.089613 0.979009 -0.183061
vn 0.000000 -1.000000 0.000000
vn 0.000000 -1.000000 0.000000
vn 0.000000 -1.000000 0.000000
s off
f 27/1/1 20/2/2 23/3/3
f 25/4/4 18/5/5 43/6/6 22/7/7
f 18/5/8 17/8/9 42/9/10
f 7/10/11 16/11/12 21/12/13
f 8/13/14 15/14/15 41/15/16
f 24/16/17 14/17/18 40/18/19
f 21/12/20 35/19/21 48/20/22
f 11/21/23 9/22/24 38/23/25
f 37/24/26 29/25/27 30/26/28
f 2/27/29 20/2/30 27/1/31
f 3/28/32 19/29/33 26/30/34
f 3/28/35 34/31/36 25/4/37
f 1/32/38 13/33/39 28/34/40
f 9/22/41 19/29/42 36/35/43
f 21/12/44 16/11/45 35/19/46
f 11/21/47 20/2/48 9/22/49
f 23/3/50 20/2/51 11/21/52
f 10/36/53 44/37/54 23/3/55 11/21/56
f 45/38/57 44/37/58 10/36/59
f 40/18/60 45/39/61 10/40/62
f 41/15/63 24/16/64 40/18/65
f 46/41/66 35/19/67 16/11/68
f 12/42/69 42/9/70 21/12/71
f 47/43/72 42/9/73 12/42/74
f 22/7/75 43/6/76 39/44/77
f 36/35/78 22/7/79 39/44/80
f 22/7/81 36/35/82 19/29/83
f 14/17/84 24/16/85 6/45/86
f 24/16/87 15/14/88 6/45/89
f 32/46/90 16/11/91 7/10/92
f 8/13/93 16/11/94 32/46/95
f 27/1/96 13/33/97 1/32/98 2/27/99
f 14/17/100 31/47/101 28/48/102
f 28/48/103 51/57/104 1/32/105
f 6/45/106 31/47/107 14/17/108
f 6/45/109 15/14/110 5/49/111
f 5/49/112 15/14/113 8/13/114
f 32/46/115 5/49/116 8/13/117
f 33/50/118 32/46/119 7/10/120
f 17/8/121 33/50/122 7/10/123
f 18/5/124 50/56/125 17/8/126
f 18/5/127 34/31/128 4/51/129
f 25/4/130 34/31/131 18/5/132
f 25/4/133 19/29/134 3/28/135
f 26/30/136 20/2/137 52/58/138
f 30/52/139 29/25/140 38/53/141
f 38/53/142 40/18/143 10/40/144
f 29/25/145 41/15/146 40/18/147 38/53/148
f 46/41/149 41/15/150 29/25/151
f 29/25/152 35/19/153 46/41/154
f 35/19/155 29/25/156 37/24/157
f 37/24/158 48/20/159 35/19/160
f 12/42/161 48/20/162 37/24/163
f 12/42/164 37/24/165 39/44/166
f 30/54/167 36/35/168 37/24/169
f 37/24/170 36/35/171 39/44/172
f 9/22/173 36/35/174 30/54/175
f 38/23/176 9/22/177 30/54/178
f 38/23/179 10/36/180 11/21/181
f 48/20/182 12/42/183 21/12/184
f 12/42/185 39/44/186 43/6/187 47/43/188
f 45/39/189 40/18/190 28/48/191
f 28/48/192 40/18/193 14/17/194
f 24/16/195 41/15/196 15/14/197
f 8/13/198 41/15/199 46/41/200
f 46/41/201 16/11/202 8/13/203
f 21/12/204 42/9/205 17/8/206 7/10/207
f 18/5/208 42/9/209 47/43/210
f 47/43/211 43/6/212 18/5/213
f 22/7/214 19/29/215 25/4/216
f 23/3/217 44/37/218 13/33/219
f 23/3/220 13/33/221 27/1/222
f 28/34/223 13/33/224 44/37/225 45/38/226
f 26/30/227 19/29/228 9/22/229
f 20/2/230 26/30/231 9/22/232
f 34/31/233 3/28/234 49/55/235
f 3/28/236 53/59/237 49/55/238
f 2/27/239 1/32/240 49/55/241
f 49/55/242 51/57/243 31/47/244
f 31/47/245 6/45/246 49/55/247
f 6/45/248 5/49/249 49/55/250
f 5/49/251 32/46/252 49/55/253
f 32/46/254 33/50/255 49/55/256
f 33/50/257 50/56/258 49/55/259
f 4/51/260 34/31/261 49/55/262
f 4/51/263 50/56/264 18/5/265
f 17/8/266 50/56/267 33/50/268
f 28/48/269 31/47/270 51/57/271
f 52/58/272 20/2/273 2/27/274
f 26/30/275 53/59/276 3/28/277
f 49/55/278 52/58/279 2/27/280
f 1/32/281 51/57/282 49/55/283
f 49/55/284 50/56/285 4/51/286
f 26/30/287 52/58/288 53/59/289
f 49/55/290 53/59/291 52/58/292
