# This file uses meters as units for non-parametric coordinates.

v 250.000000 -0.000000 -250.000000
v 0.000000 -0.000000 -250.000000
v 250.000000 0.000000 0.000000
v 0.000000 0.000000 0.000000
v 247.738159 2.567641 -247.738251
v 2.261829 2.567641 -247.738251
v 2.261829 2.567641 -2.261734
v 247.738159 2.567641 -2.261734
v 124.234879 -0.000000 -250.000000
v 124.576950 2.567641 -247.738251
v 124.478325 2.567641 -2.261734
v 124.135498 0.000000 0.000000
v 0.000000 -0.000000 -125.000000
v 2.261829 2.567641 -125.000000
v 247.738159 2.567641 -125.000000
v 250.000000 -0.000000 -125.000000
v 81.729500 2.567641 -232.276917
v 97.643951 2.567641 -217.531204
v 152.356003 2.567641 -217.531204
v 168.270477 2.567641 -232.276917
v 81.729500 2.567641 -17.723083
v 97.643951 2.567641 -32.468796
v 152.356003 2.567641 -32.468796
v 168.270477 2.567641 -17.723083
v 17.723227 2.567641 -82.976532
v 33.634663 2.567641 -98.789513
v 33.634663 2.567641 -151.210495
v 17.723227 2.567641 -167.023483
v 232.276825 2.567641 -82.976532
v 216.365341 2.567641 -98.789513
v 216.365341 2.567641 -151.210495
v 232.276825 2.567641 -167.023483
v 28.714514 2.567641 -17.723083
v 17.723227 2.567641 -28.714371
v 28.714514 2.567641 -232.276917
v 17.723227 2.567641 -221.285614
v 232.276825 2.567641 -28.714371
v 232.276825 2.567641 -221.285614
v 221.285522 2.567641 -17.723083
v 221.285522 2.567641 -232.276917
v 96.480705 0.432901 -215.790939
v 79.889061 0.432901 -230.259323
v 153.519241 0.432901 -215.790939
v 170.110901 0.432901 -230.259323
v 96.480705 0.432901 -34.209061
v 79.889061 0.432901 -19.740677
v 153.519241 0.432901 -34.209061
v 170.110901 0.432901 -19.740677
v 19.740152 0.432901 -79.888916
v 35.352661 0.432901 -96.863937
v 35.352661 0.432901 -153.136063
v 19.740152 0.432901 -170.111084
v 230.259888 0.432901 -79.888916
v 214.647293 0.432901 -96.863937
v 214.647293 0.432901 -153.136063
v 230.259888 0.432901 -170.111084
v 19.740152 0.432901 -30.525208
v 30.525398 0.432901 -19.740677
v 30.525398 0.432901 -230.259323
v 19.740152 0.432901 -219.474792
v 219.474701 0.432901 -19.740677
v 230.259888 0.432901 -30.525208
v 219.474701 0.432901 -230.259323
v 230.259888 0.432901 -219.474792
v 90.757019 3.273680 -90.935799
v 159.242935 3.273680 -90.935799
v 90.757019 3.273680 -159.064194
v 159.242935 3.273680 -159.064194
v 94.864716 3.273680 -213.343857
v 77.333214 3.273680 -227.422485
v 155.135239 3.273680 -213.343857
v 172.666748 3.273680 -227.422485
v 95.228539 3.273680 -36.656147
v 77.908691 3.273680 -22.577513
v 154.771408 3.273680 -36.656147
v 172.091248 3.273680 -22.577513
v 22.577738 3.273680 -77.429260
v 37.768776 3.273680 -95.329567
v 37.768776 3.273680 -154.670425
v 22.577738 3.273680 -172.570740
v 227.422302 3.273680 -78.506294
v 212.231171 3.273680 -96.001823
v 212.231171 3.273680 -153.998199
v 227.422302 3.273680 -171.493713
v 22.577738 3.273680 -33.071365
v 33.071548 3.273680 -22.577513
v 33.071548 3.273680 -227.422485
v 22.577738 3.273680 -216.928619
v 216.928528 3.273680 -22.577513
v 227.422302 3.273680 -33.071365
v 216.928528 3.273680 -227.422485
v 227.422302 3.273680 -216.928619
vt 0.101983 0.250862
vt 0.101983 0.250862
vt 0.101983 0.250862
vt 0.101983 0.250862
vt 0.101983 0.250862
vt 0.101983 0.250862
vt 0.101983 0.250862
vt 0.101983 0.250862
vt 0.101983 0.250862
vt 0.101983 0.250862
vt 0.101983 0.250862
vt 0.101983 0.250862
vt 0.101577 0.305278
vt 0.101577 0.305278
vt 0.101983 0.250862
vt 0.101983 0.250862
vt 0.101577 0.305278
vt 0.101577 0.305278
vt 0.101983 0.250862
vt 0.101983 0.250862
vt 0.101577 0.305278
vt 0.101577 0.305278
vt 0.101577 0.305278
vt 0.101577 0.305278
vt 0.101577 0.305278
vt 0.101577 0.305278
vt 0.101577 0.305278
vt 0.101983 0.250862
vt 0.101983 0.250862
vt 0.101983 0.250862
vt 0.101983 0.250862
vt 0.101983 0.250862
vt 0.101983 0.250862
vt 0.101983 0.250862
vt 0.101983 0.250862
vt 0.101983 0.250862
vt 0.101983 0.250862
vt 0.101983 0.250862
vt 0.101983 0.250862
vt 0.101983 0.250862
vt 0.101983 0.250862
vt 0.101983 0.250862
vt 0.101983 0.250862
vt 0.101983 0.250862
vt 0.101983 0.250862
vt 0.101983 0.250862
vt 0.101983 0.250862
vt 0.101983 0.250862
vt 0.101983 0.250862
vt 0.101983 0.250862
vt 0.101983 0.250862
vt 0.101577 0.305278
vt 0.101577 0.305278
vt 0.101577 0.305278
vt 0.101577 0.305278
vt 0.101577 0.305278
vt 0.101577 0.305278
vt 0.101577 0.305278
vt 0.101577 0.305278
vt 0.101577 0.305278
vt 0.101577 0.305278
vt 0.101577 0.305278
vt 0.101577 0.305278
vt 0.101577 0.305278
vt 0.101577 0.305278
vt 0.101577 0.305278
vt 0.101577 0.305278
vt 0.101577 0.305278
vt 0.101577 0.305278
vt 0.101577 0.305278
vt 0.101577 0.305278
vt 0.101577 0.305278
vt 0.101577 0.305278
vt 0.101577 0.305278
vt 0.101577 0.305278
vt 0.101577 0.305278
vt 0.101577 0.305278
vt 0.101577 0.305278
vt 0.101577 0.305278
vt 0.101577 0.305278
vt 0.101577 0.305278
vt 0.101577 0.305278
vt 0.101577 0.305278
vt 0.101577 0.305278
vt 0.101577 0.305278
vt 0.101577 0.305278
vt 0.101577 0.305278
vt 0.101577 0.305278
vt 0.101577 0.305278
vt 0.101577 0.305278
vt 0.101577 0.305278
vt 0.101577 0.305278
vt 0.101577 0.305278
vt 0.101577 0.305278
vt 0.101577 0.305278
vt 0.101577 0.305278
vt 0.101577 0.305278
vt 0.101577 0.305278
vt 0.101577 0.305278
vt 0.101577 0.305278
vt 0.101577 0.305278
vt 0.101577 0.305278
vt 0.101577 0.305278
vt 0.101983 0.250862
vt 0.101577 0.305278
vt 0.101983 0.250862
vt 0.101577 0.305278
vt 0.101577 0.305278
vt 0.101577 0.305278
vt 0.101577 0.305278
vt 0.101577 0.305278
vt 0.101983 0.250862
vt 0.101577 0.305278
vt 0.101983 0.250862
vt 0.101577 0.305278
vt 0.101577 0.305278
vt 0.101577 0.305278
vt 0.101577 0.305278
vt 0.101577 0.305278
vt 0.101983 0.250862
vt 0.101577 0.305278
vt 0.101983 0.250862
vt 0.101577 0.305278
vt 0.101577 0.305278
vt 0.101577 0.305278
vt 0.101577 0.305278
vt 0.101577 0.305278
vt 0.101983 0.250862
vt 0.101577 0.305278
vt 0.101983 0.250862
vt 0.101577 0.305278
vt 0.101577 0.305278
vt 0.101577 0.305278
vt 0.101577 0.305278
vt 0.101577 0.305278
vt 0.101577 0.305278
vt 0.101577 0.305278
vt 0.101983 0.250862
vt 0.101577 0.305278
vt 0.101577 0.305278
vt 0.101577 0.305278
vt 0.101577 0.305278
vt 0.101983 0.250862
vt 0.101577 0.305278
vt 0.101577 0.305278
vt 0.101577 0.305278
vt 0.101577 0.305278
vt 0.101983 0.250862
vt 0.101577 0.305278
vt 0.101983 0.250862
vt 0.101577 0.305278
vt 0.101577 0.305278
vt 0.101577 0.305278
vt 0.101577 0.305278
vt 0.101577 0.305278
vt 0.101577 0.305278
vt 0.101577 0.305278
vt 0.101983 0.250862
vt 0.101577 0.305278
vt 0.101577 0.305278
vt 0.101577 0.305278
vt 0.101577 0.305278
vt 0.101983 0.250862
vt 0.101577 0.305278
vt 0.101577 0.305278
vt 0.101577 0.305278
vt 0.101577 0.305278
vt 0.101983 0.250862
vt 0.101577 0.305278
vt 0.101983 0.250862
vt 0.101577 0.305278
vt 0.101577 0.305278
vt 0.101577 0.305278
vt 0.101577 0.305278
vt 0.101577 0.305278
vt 0.101577 0.305278
vt 0.101577 0.305278
vt 0.101577 0.305278
vt 0.101577 0.305278
vt 0.101577 0.305278
vt 0.101577 0.305278
vt 0.101577 0.305278
vt 0.101577 0.305278
vt 0.101577 0.305278
vt 0.101577 0.305278
vt 0.101577 0.305278
vt 0.101577 0.305278
vt 0.101983 0.250862
vt 0.101577 0.305278
vt 0.101577 0.305278
vt 0.101577 0.305278
vt 0.101577 0.305278
vt 0.101983 0.250862
vt 0.101577 0.305278
vt 0.101983 0.250862
vt 0.101577 0.305278
vt 0.101983 0.250862
vt 0.101577 0.305278
vt 0.101577 0.305278
vt 0.101577 0.305278
vt 0.101577 0.305278
vt 0.101577 0.305278
vt 0.101577 0.305278
vt 0.101577 0.305278
vt 0.101983 0.250862
vt 0.101577 0.305278
vt 0.101577 0.305278
vt 0.101577 0.305278
vt 0.101577 0.305278
vt 0.101983 0.250862
vt 0.101577 0.305278
vt 0.101983 0.250862
vt 0.101577 0.305278
vt 0.101983 0.250862
vt 0.101577 0.305278
vt 0.101577 0.305278
vt 0.101577 0.305278
vt 0.101577 0.305278
vt 0.101577 0.305278
vt 0.101577 0.305278
vt 0.101577 0.305278
vt 0.101577 0.305278
vt 0.101577 0.305278
vt 0.101577 0.305278
vn 0.000000 1.000000 0.000000
vn 0.000000 1.000000 -0.000000
vn 0.000000 1.000000 0.000000
vn 0.000000 1.000000 0.000000
vn 0.000000 0.660994 -0.750391
vn 0.000000 0.660994 -0.750391
vn 0.000000 0.660994 -0.750391
vn 0.000000 0.660994 -0.750391
vn 0.000000 0.660992 0.750393
vn 0.000000 0.660992 0.750393
vn 0.000000 0.660992 0.750393
vn 0.000000 0.660992 0.750393
vn 0.000000 1.000000 0.000000
vn 0.000000 1.000000 0.000000
vn 0.000000 1.000000 0.000000
vn 0.000000 1.000000 0.000000
vn 0.000000 1.000000 0.000000
vn 0.000000 1.000000 0.000000
vn -0.750379 0.661007 0.000000
vn -0.750379 0.661007 0.000000
vn -0.750379 0.661007 0.000000
vn -0.750379 0.661007 0.000000
vn 0.000000 1.000000 0.000000
vn 0.000000 1.000000 0.000000
vn 0.000000 1.000000 0.000000
vn 0.000000 1.000000 0.000000
vn 0.000000 1.000000 0.000000
vn 0.000000 1.000000 0.000000
vn 0.000000 1.000000 0.000000
vn 0.000000 1.000000 -0.000000
vn 0.000000 1.000000 -0.000000
vn 0.000000 1.000000 -0.000000
vn 0.000000 1.000000 -0.000000
vn 0.750377 0.661011 0.000000
vn 0.750377 0.661010 0.000000
vn 0.750377 0.661010 0.000000
vn 0.750377 0.661011 0.000000
vn 0.000000 1.000000 0.000000
vn 0.000000 1.000000 0.000000
vn 0.000000 1.000000 0.000000
vn 0.000000 1.000000 0.000000
vn 0.000000 1.000000 0.000000
vn 0.000000 1.000000 -0.000000
vn 0.000000 1.000000 0.000000
vn 0.000000 1.000000 0.000000
vn 0.000000 1.000000 -0.000000
vn 0.000000 1.000000 -0.000000
vn 0.000000 1.000000 0.000000
vn 0.000000 1.000000 -0.000000
vn 0.000000 1.000000 0.000000
vn 0.000000 1.000000 0.000000
vn 0.000000 1.000000 0.000000
vn 0.000000 1.000000 0.000000
vn 0.000000 1.000000 -0.000000
vn 0.000000 1.000000 0.000000
vn 0.000000 1.000000 0.000000
vn 0.000000 1.000000 0.000000
vn 0.000000 1.000000 0.000000
vn 0.000000 1.000000 0.000000
vn 0.000000 1.000000 0.000000
vn 0.000000 1.000000 -0.000000
vn 0.000000 1.000000 0.000000
vn 0.000000 1.000000 0.000000
vn 0.000000 1.000000 0.000000
vn 0.000000 1.000000 0.000000
vn 0.000000 1.000000 0.000000
vn 0.000000 1.000000 0.000000
vn 0.000000 1.000000 -0.000000
vn 0.000000 1.000000 0.000000
vn 0.000000 1.000000 0.000000
vn 0.000000 1.000000 0.000000
vn 0.000000 1.000000 0.000000
vn 0.000000 1.000000 0.000000
vn -0.750379 0.661007 0.000000
vn -0.750379 0.661007 0.000000
vn -0.750379 0.661007 0.000000
vn -0.750379 0.661007 0.000000
vn 0.000000 1.000000 -0.000000
vn 0.000000 1.000000 -0.000000
vn 0.000000 1.000000 -0.000000
vn 0.000000 1.000000 0.000000
vn 0.000000 1.000000 0.000000
vn 0.000000 1.000000 -0.000000
vn 0.000000 1.000000 -0.000000
vn 0.000000 1.000000 0.000000
vn 0.000000 1.000000 -0.000000
vn 0.000000 1.000000 0.000000
vn 0.750377 0.661010 0.000000
vn 0.750378 0.661009 0.000000
vn 0.750378 0.661009 0.000000
vn 0.750377 0.661010 0.000000
vn 0.000000 1.000000 0.000000
vn 0.000000 1.000000 0.000000
vn 0.000000 1.000000 0.000000
vn 0.000000 1.000000 0.000000
vn 0.000000 1.000000 0.000000
vn 0.000000 1.000000 0.000000
vn 0.000000 1.000000 0.000000
vn 0.000000 1.000000 0.000000
vn 0.000000 1.000000 0.000000
vn 0.000000 1.000000 0.000000
vn 0.000000 1.000000 0.000000
vn 0.000000 1.000000 0.000000
vn 0.000000 1.000000 0.000000
vn 0.000000 1.000000 0.000000
vn 0.000000 1.000000 0.000000
vn 0.000000 1.000000 0.000000
vn 0.000000 0.660992 0.750393
vn 0.000000 0.660992 0.750393
vn 0.000000 0.660992 0.750393
vn 0.000000 0.660992 0.750393
vn 0.000000 1.000000 0.000000
vn 0.000000 1.000000 0.000000
vn 0.000000 1.000000 0.000000
vn 0.000000 1.000000 0.000000
vn 0.000000 1.000000 0.000000
vn 0.000000 1.000000 -0.000000
vn 0.000000 1.000000 0.000000
vn 0.000000 1.000000 -0.000000
vn 0.000000 1.000000 0.000000
vn 0.000000 1.000000 -0.000000
vn 0.000000 1.000000 0.000000
vn 0.000000 1.000000 -0.000000
vn 0.000000 1.000000 -0.000000
vn 0.000000 1.000000 0.000000
vn 0.000000 0.660994 -0.750391
vn 0.000000 0.660994 -0.750391
vn 0.000000 0.660994 -0.750391
vn 0.000000 0.660994 -0.750391
vn 0.000000 1.000000 0.000000
vn 0.000000 1.000000 -0.000000
vn 0.000000 1.000000 -0.000000
vn 0.000000 1.000000 0.000000
vn 0.000000 1.000000 -0.000000
vn 0.000000 1.000000 -0.000000
vn 0.000000 1.000000 -0.000000
vn 0.000000 1.000000 -0.000000
vn 0.000000 1.000000 0.000000
vn 0.000000 1.000000 -0.000000
vn 0.000000 1.000000 -0.000000
vn 0.000000 1.000000 0.000000
vn 0.000000 1.000000 0.000000
vn 0.000000 1.000000 0.000000
vn 0.000000 1.000000 0.000000
vn 0.000000 1.000000 0.000000
vn 0.000000 1.000000 0.000000
vn 0.000000 1.000000 0.000000
vn 0.000000 1.000000 0.000000
vn 0.000000 1.000000 0.000000
vn 0.000000 1.000000 0.000000
vn 0.000000 1.000000 0.000000
vn 0.000000 1.000000 0.000000
vn 0.000000 1.000000 -0.000000
vn 0.000000 1.000000 0.000000
vn 0.000000 1.000000 0.000000
vn 0.000000 1.000000 -0.000000
vn 0.000000 1.000000 0.000000
vn 0.000000 1.000000 0.000000
vn 0.000000 1.000000 0.000000
vn 0.000000 1.000000 0.000000
vn 0.000000 1.000000 0.000000
vn 0.000000 1.000000 0.000000
vn 0.000000 1.000000 0.000000
vn 0.000000 1.000000 0.000000
vn 0.000000 1.000000 -0.000000
vn 0.000000 1.000000 -0.000000
vn 0.000000 1.000000 -0.000000
vn 0.000000 1.000000 -0.000000
vn 0.000000 1.000000 -0.000000
vn 0.000000 1.000000 0.000000
vn 0.000000 1.000000 0.000000
vn 0.000000 1.000000 0.000000
vn -0.444110 0.747381 0.494154
vn -0.444110 0.747381 0.494154
vn -0.444110 0.747381 0.494154
vn -0.444110 0.747381 0.494154
vn 0.000000 0.631858 0.775084
vn 0.000000 0.631858 0.775084
vn 0.000000 0.631858 0.775085
vn 0.000000 0.631858 0.775084
vn 0.444111 0.747378 0.494157
vn 0.444111 0.747378 0.494157
vn 0.444111 0.747378 0.494157
vn 0.444111 0.747378 0.494157
vn -0.444110 0.747381 -0.494154
vn -0.444110 0.747381 -0.494154
vn -0.444110 0.747381 -0.494154
vn -0.444110 0.747381 -0.494154
vn 0.000000 0.631858 -0.775084
vn 0.000000 0.631858 -0.775084
vn 0.000000 0.631858 -0.775084
vn 0.000000 0.631858 -0.775085
vn 0.444111 0.747379 -0.494156
vn 0.444111 0.747379 -0.494156
vn 0.444111 0.747379 -0.494156
vn 0.444111 0.747379 -0.494156
vn 0.000000 0.686884 -0.726767
vn 0.000000 0.686884 -0.726767
vn 0.000000 0.686884 -0.726767
vn 0.000000 0.686884 -0.726767
vn 0.000000 0.686884 0.726767
vn 0.000000 0.686884 0.726767
vn 0.000000 0.686884 0.726767
vn 0.000000 0.686884 0.726767
vn 0.726880 0.686764 0.000000
vn 0.726880 0.686764 0.000000
vn 0.726880 0.686764 0.000000
vn 0.726880 0.686764 0.000000
vn 0.410330 0.822187 0.394511
vn 0.410330 0.822187 0.394511
vn 0.410330 0.822186 0.394511
vn 0.410330 0.822186 0.394511
vn 0.779049 0.626963 0.000000
vn 0.779049 0.626963 0.000000
vn 0.779049 0.626963 0.000000
vn 0.779049 0.626963 0.000000
vn 0.410331 0.822186 -0.394511
vn 0.410331 0.822186 -0.394511
vn 0.410331 0.822186 -0.394511
vn 0.410331 0.822186 -0.394511
vn -0.410327 0.822189 0.394510
vn -0.410327 0.822189 0.394510
vn -0.410327 0.822189 0.394510
vn -0.410327 0.822189 0.394510
vn -0.779040 0.626975 0.000000
vn -0.779039 0.626975 0.000000
vn -0.779039 0.626975 0.000000
vn -0.779040 0.626975 0.000000
vn -0.410328 0.822188 -0.394510
vn -0.410328 0.822188 -0.394510
vn -0.410328 0.822188 -0.394510
vn -0.410328 0.822188 -0.394510
vn -0.726883 0.686761 0.000000
vn -0.726883 0.686761 0.000000
vn -0.726883 0.686761 0.000000
vn -0.726883 0.686761 0.000000
vn 0.437860 0.785204 -0.437874
vn 0.437860 0.785204 -0.437874
vn 0.437860 0.785204 -0.437874
vn 0.437860 0.785204 -0.437874
vn 0.000000 0.686884 -0.726767
vn 0.000000 0.686884 -0.726767
vn 0.000000 0.686884 -0.726767
vn 0.000000 0.686884 -0.726767
vn 0.437861 0.785203 0.437874
vn 0.437861 0.785203 0.437874
vn 0.437861 0.785203 0.437874
vn 0.437861 0.785203 0.437874
vn 0.726880 0.686765 0.000000
vn 0.726880 0.686764 0.000000
vn 0.726880 0.686764 0.000000
vn 0.726880 0.686764 0.000000
vn -0.437861 0.785203 -0.437875
vn -0.437861 0.785203 -0.437875
vn -0.437861 0.785203 -0.437875
vn -0.437861 0.785203 -0.437875
vn -0.726877 0.686768 0.000000
vn -0.726877 0.686768 0.000000
vn -0.726877 0.686768 0.000000
vn -0.726877 0.686768 0.000000
vn -0.437863 0.785201 0.437876
vn -0.437863 0.785201 0.437876
vn -0.437863 0.785201 0.437876
vn -0.437863 0.785201 0.437876
vn 0.000000 0.686884 0.726767
vn 0.000000 0.686884 0.726767
vn 0.000000 0.686884 0.726767
vn 0.000000 0.686884 0.726767
vn 0.413933 0.764098 -0.494787
vn 0.413933 0.764098 -0.494787
vn 0.413933 0.764098 -0.494787
vn 0.413933 0.764098 -0.494787
vn 0.000000 0.652654 -0.757656
vn 0.000000 0.652654 -0.757656
vn 0.000000 0.652654 -0.757656
vn 0.000000 0.652654 -0.757656
vn -0.413932 0.764099 -0.494786
vn -0.413932 0.764099 -0.494786
vn -0.413932 0.764099 -0.494786
vn -0.413932 0.764099 -0.494786
vn 0.438002 0.733097 0.520310
vn 0.438002 0.733097 0.520310
vn 0.438002 0.733097 0.520310
vn 0.438002 0.733097 0.520310
vn 0.000000 0.652655 0.757655
vn 0.000000 0.652655 0.757655
vn 0.000000 0.652655 0.757656
vn 0.000000 0.652655 0.757656
vn -0.438002 0.733097 0.520310
vn -0.438002 0.733097 0.520310
vn -0.438002 0.733097 0.520310
vn -0.438002 0.733097 0.520310
vn 0.000000 0.706615 0.707598
vn 0.000000 0.706615 0.707598
vn 0.000000 0.706615 0.707598
vn 0.000000 0.706615 0.707598
vn 0.000000 0.706616 -0.707597
vn 0.000000 0.706616 -0.707597
vn 0.000000 0.706616 -0.707598
vn 0.000000 0.706616 -0.707597
vn -0.707504 0.706709 0.000000
vn -0.707504 0.706709 0.000000
vn -0.707504 0.706709 0.000000
vn -0.707504 0.706709 0.000000
vn -0.489761 0.756974 -0.432580
vn -0.489761 0.756974 -0.432580
vn -0.489761 0.756974 -0.432580
vn -0.489761 0.756974 -0.432580
vn -0.761747 0.647875 0.000000
vn -0.761747 0.647875 0.000000
vn -0.761747 0.647875 0.000000
vn -0.761747 0.647875 0.000000
vn -0.489761 0.756974 0.432580
vn -0.489761 0.756974 0.432580
vn -0.489761 0.756974 0.432580
vn -0.489761 0.756974 0.432580
vn 0.539854 0.689799 -0.482426
vn 0.539854 0.689799 -0.482426
vn 0.539854 0.689799 -0.482426
vn 0.539854 0.689799 -0.482426
vn 0.761747 0.647875 0.000000
vn 0.761747 0.647875 0.000000
vn 0.761747 0.647875 0.000000
vn 0.761747 0.647875 0.000000
vn 0.539852 0.689801 0.482425
vn 0.539852 0.689801 0.482425
vn 0.539852 0.689801 0.482425
vn 0.539852 0.689801 0.482425
vn 0.707503 0.706710 0.000000
vn 0.707503 0.706710 0.000000
vn 0.707503 0.706710 0.000000
vn 0.707503 0.706710 0.000000
vn -0.422905 0.801431 0.422918
vn -0.422905 0.801431 0.422918
vn -0.422905 0.801431 0.422918
vn -0.422905 0.801431 0.422918
vn 0.000000 0.706616 0.707598
vn 0.000000 0.706616 0.707598
vn 0.000000 0.706616 0.707598
vn 0.000000 0.706616 0.707598
vn -0.422905 0.801431 -0.422918
vn -0.422905 0.801431 -0.422918
vn -0.422905 0.801431 -0.422918
vn -0.422905 0.801431 -0.422918
vn -0.707505 0.706709 0.000000
vn -0.707505 0.706709 0.000000
vn -0.707505 0.706709 0.000000
vn -0.707505 0.706709 0.000000
vn 0.422906 0.801431 0.422917
vn 0.422906 0.801431 0.422917
vn 0.422906 0.801431 0.422917
vn 0.422906 0.801431 0.422917
vn 0.707504 0.706709 0.000000
vn 0.707504 0.706709 0.000000
vn 0.707504 0.706709 0.000000
vn 0.707504 0.706709 0.000000
vn 0.422906 0.801432 -0.422916
vn 0.422905 0.801432 -0.422916
vn 0.422905 0.801432 -0.422916
vn 0.422905 0.801432 -0.422916
vn 0.000000 0.706616 -0.707598
vn 0.000000 0.706616 -0.707598
vn 0.000000 0.706616 -0.707598
vn 0.000000 0.706616 -0.707598
vn 0.000000 1.000000 0.000000
vn 0.000000 1.000000 0.000000
vn 0.000000 1.000000 0.000000
vn 0.000000 1.000000 -0.000000
vn 0.000000 1.000000 -0.000000
vn 0.000000 1.000000 -0.000000
vn 0.000000 1.000000 -0.000000
vn 0.000000 1.000000 -0.000000
vn 0.000000 1.000000 0.000000
vn 0.000000 1.000000 -0.000000
vn 0.000000 1.000000 0.000000
vn 0.000000 1.000000 -0.000000
s off
f 10/10/1 20/31/2 40/51/3 5/5/4
f 1/1/5 9/9/6 10/10/7 5/5/8
f 11/11/9 12/12/10 3/3/11 8/8/12
f 36/47/13 35/46/14 6/6/15
f 18/29/16 10/10/17 17/28/18
f 14/16/19 13/15/20 4/4/21 7/7/22
f 25/36/23 14/16/24 7/7/25 34/45/26
f 65/177/27 74/179/28 73/191/29
f 81/146/30 76/184/31 89/111/32 90/109/33
f 3/3/34 16/20/35 15/19/36 8/8/37
f 27/38/38 28/39/39 14/16/40
f 68/216/41 83/137/42 84/133/43
f 66/222/44 75/187/45 76/183/46
f 20/31/47 10/10/48 19/30/49
f 66/223/50 65/224/51 73/192/52 75/186/53
f 19/30/54 10/10/55 18/29/56
f 25/36/57 26/37/58 14/16/59
f 66/14/60 81/147/61 82/141/62
f 26/37/63 27/38/64 14/16/65
f 66/219/66 68/27/67 67/220/68 65/24/69
f 68/218/70 66/25/71 82/142/72 83/136/73
f 14/16/74 6/6/75 2/2/76 13/15/77
f 67/175/78 69/207/79 70/173/80
f 68/217/81 71/202/82 69/76/83 67/22/84
f 68/21/85 72/199/86 71/78/87
f 16/20/88 1/1/89 5/5/90 15/19/91
f 11/11/92 22/33/93 21/32/94
f 11/11/95 23/34/96 22/33/97
f 11/11/98 24/35/99 23/34/100
f 24/35/101 11/11/102 8/8/103 39/50/104
f 7/7/105 33/44/106 34/45/107
f 7/7/108 4/4/109 12/12/110 11/11/111
f 74/80/112 77/165/113 85/127/114 86/125/115
f 65/13/116 78/160/117 77/84/118
f 67/176/119 79/155/120 78/85/121 65/23/122
f 67/26/123 80/152/124 79/86/125
f 9/9/126 2/2/127 6/6/128 10/10/129
f 8/8/130 15/19/131 29/40/132 37/48/133
f 15/19/134 30/41/135 29/40/136
f 15/19/137 31/42/138 30/41/139
f 15/19/140 32/43/141 31/42/142
f 39/50/143 8/8/144 37/48/145
f 40/51/146 38/49/147 5/5/148
f 33/44/149 7/7/150 11/11/151 21/32/152
f 70/174/153 87/119/154 88/117/155 80/87/156
f 6/6/157 35/46/158 17/28/159 10/10/160
f 36/47/161 6/6/162 14/16/163 28/39/164
f 84/134/165 92/98/166 91/103/167 72/79/168
f 15/19/169 5/5/170 38/49/171 32/43/172
f 18/29/173 17/28/174 42/212/175 41/214/176
f 19/30/177 18/29/178 41/214/179 43/210/180
f 20/31/181 19/30/182 43/210/183 44/205/184
f 21/32/185 22/33/186 45/197/187 46/195/188
f 22/33/189 23/34/190 47/193/191 45/197/192
f 23/34/193 24/35/194 48/188/195 47/193/196
f 48/188/197 24/35/198 39/50/199 61/114/200
f 42/212/201 17/28/202 35/46/203 59/122/204
f 49/170/205 25/36/206 34/45/207 57/130/208
f 26/37/209 25/36/210 49/170/211 50/168/212
f 27/38/213 26/37/214 50/168/215 51/163/216
f 28/39/217 27/38/218 51/163/219 52/158/220
f 29/40/221 30/41/222 54/148/223 53/150/224
f 30/41/225 31/42/226 55/143/227 54/148/228
f 31/42/229 32/43/230 56/138/231 55/143/232
f 56/138/233 32/43/234 38/49/235 64/104/236
f 34/45/237 33/44/238 58/128/239 57/130/240
f 58/128/241 33/44/242 21/32/243 46/195/244
f 35/46/245 36/47/246 60/120/247 59/122/248
f 60/120/249 36/47/250 28/39/251 52/158/252
f 39/50/253 37/48/254 62/112/255 61/114/256
f 62/112/257 37/48/258 29/40/259 53/150/260
f 38/49/261 40/51/262 63/106/263 64/104/264
f 63/106/265 40/51/266 20/31/267 44/205/268
f 41/52/269 42/213/270 70/172/271 69/208/272
f 43/54/273 41/215/274 69/209/275 71/203/276
f 44/55/277 43/211/278 71/204/279 72/200/280
f 46/56/281 45/198/282 73/190/283 74/180/284
f 45/57/285 47/194/286 75/185/287 73/81/288
f 47/58/289 48/189/290 76/182/291 75/82/292
f 76/83/293 48/59/294 61/115/295 89/110/296
f 70/77/297 42/53/298 59/123/299 87/118/300
f 77/166/301 49/60/302 57/131/303 85/126/304
f 50/61/305 49/171/306 77/167/307 78/161/308
f 51/62/309 50/169/310 78/162/311 79/156/312
f 52/63/313 51/164/314 79/157/315 80/153/316
f 53/64/317 54/149/318 82/140/319 81/88/320
f 54/65/321 55/144/322 83/135/323 82/89/324
f 55/66/325 56/139/326 84/132/327 83/90/328
f 84/91/329 56/67/330 64/105/331 92/101/332
f 57/68/333 58/129/334 86/124/335 85/92/336
f 74/181/337 86/93/338 58/69/339 46/196/340
f 59/70/341 60/121/342 88/116/343 87/94/344
f 80/154/345 88/95/346 60/71/347 52/159/348
f 61/72/349 62/113/350 90/108/351 89/96/352
f 81/145/353 90/97/354 62/73/355 53/151/356
f 64/74/357 63/107/358 91/102/359 92/100/360
f 72/201/361 91/99/362 63/75/363 44/206/364
f 65/178/365 77/165/366 74/80/367
f 70/174/368 80/87/369 67/17/370
f 84/134/371 72/79/372 68/18/373
f 81/146/374 66/221/375 76/184/376
