# This file uses meters as units for non-parametric coordinates.

v 499.999817 0.000001 -0.001526
v 500.000000 -0.000001 -500.000763
v 0.000191 0.000001 -0.001526
v 0.000191 -0.000001 -500.001129
v 500.000000 6.969654 -33.006287
v 0.000191 6.969654 -33.006287
v 500.000000 6.969654 -64.442444
v 0.000191 6.969654 -64.442444
v 500.000000 6.184101 -22.846222
v 0.000191 6.184101 -22.846222
v 500.000000 -0.000001 -69.514465
v 0.000191 -0.000001 -69.514465
v 0.000191 0.000001 -16.890717
v 500.000000 0.000001 -16.890717
v 500.000000 -0.000001 -361.098480
v 0.000191 -0.000001 -361.097717
v 246.992310 0.000001 -0.001526
v 218.609436 0.000001 -10.903931
v 251.454163 6.184103 -15.406799
v 251.454163 6.969655 -38.428497
v 237.889282 6.969655 -59.284210
v 250.000183 -0.000001 -71.874237
v 252.881058 -0.000001 -356.045532
v 254.623016 3.420927 -361.865234
v 250.000183 -0.000001 -500.000763
v 243.984604 -0.000001 -71.874237
v 244.120590 1.080330 -354.328918
v 246.865448 -0.000001 -361.387634
v 243.984604 -0.000001 -500.001129
v 497.359100 -0.000001 -500.001129
v 493.416229 -0.000001 -365.457153
v 492.341827 -0.000001 -356.158447
v 496.178833 1.919349 -69.576263
v 494.519836 6.969655 -64.442444
v 494.519836 6.969655 -33.006287
v 494.519836 6.184103 -22.846222
v 494.520386 0.000001 -16.890717
v 3.359413 -0.000001 -500.001129
v 3.359413 2.436664 -363.769531
v 3.359222 -0.000001 -358.427429
v 5.513763 -0.000001 -69.514465
v 8.164787 6.969655 -65.542603
v 5.915642 6.969655 -33.006287
v 5.915642 6.184103 -22.846222
v 5.915451 0.000001 -16.890717
v 105.805779 6.184103 -22.149658
v 103.414635 0.000001 -16.763306
v 116.434570 6.184103 -12.417603
v 114.202118 0.000001 -7.569122
v 369.512482 6.184103 -12.752533
v 371.067688 0.000001 -7.143402
v 388.153259 6.184103 -21.931458
v 389.142120 0.000001 -16.236877
v 0.000191 -0.000001 -192.280579
v 4.281187 -0.000001 -195.491028
v 247.555237 0.618049 -194.156647
v 255.141174 1.531216 -195.138550
v 494.488708 2.352520 -195.151520
v 500.000000 -0.000001 -192.281342
v 4.363537 2.834875 -186.116791
v 247.862244 2.950387 -187.824249
v 255.343140 -0.000001 -185.945892
v 494.680603 0.894699 -190.074921
vt 0.064095 0.209474
vt 0.102180 0.270814
vt 0.101972 0.250723
vt 0.102180 0.270814
vt 0.100542 0.278062
vt 0.101972 0.250723
vt 0.101973 0.250723
vt 0.100542 0.278062
vt 0.101973 0.250723
vt 0.101973 0.250723
vt 0.102180 0.270814
vt 0.102180 0.270814
vt 0.101973 0.250723
vt 0.101973 0.250723
vt 0.100542 0.278062
vt 0.100542 0.278062
vt 0.101973 0.250723
vt 0.101973 0.250723
vt 0.101973 0.250723
vt 0.101972 0.250723
vt 0.064095 0.209474
vt 0.102180 0.270814
vt 0.102180 0.270814
vt 0.102180 0.270814
vt 0.102180 0.270814
vt 0.101658 0.278970
vt 0.100542 0.278062
vt 0.101658 0.278970
vt 0.101973 0.273202
vt 0.101658 0.278970
vt 0.102180 0.270814
vt 0.102180 0.270814
vt 0.102180 0.270814
vt 0.101793 0.299061
vt 0.064095 0.209474
vt 0.101658 0.278970
vt 0.101973 0.273202
vt 0.102180 0.270814
vt 0.102180 0.270814
vt 0.102180 0.270814
vt 0.102180 0.270814
vt 0.102180 0.270814
vt 0.102180 0.270814
vt 0.101793 0.299061
vt 0.101658 0.278970
vt 0.101793 0.299061
vt 0.101658 0.278970
vt 0.101658 0.278970
vt 0.100542 0.278062
vt 0.101658 0.278970
vt 0.101658 0.278970
vt 0.100754 0.254209
vt 0.101658 0.278970
vt 0.064095 0.209474
vt 0.101793 0.299061
vt 0.102180 0.270814
vt 0.102180 0.270814
vt 0.101973 0.250723
vt 0.102180 0.270814
vt 0.101973 0.250723
vt 0.101973 0.250723
vt 0.100754 0.254209
vt 0.101973 0.250723
vt 0.101972 0.250723
vt 0.100754 0.254209
vt 0.064095 0.209474
vt 0.101972 0.250723
vt 0.101658 0.278970
vt 0.100754 0.254209
vt 0.101658 0.278970
vt 0.101658 0.278970
vt 0.064095 0.209474
vt 0.101658 0.278970
vt 0.101658 0.278970
vt 0.101793 0.299061
vt 0.101658 0.278970
vt 0.102180 0.270814
vt 0.102180 0.270814
vt 0.101793 0.299061
vt 0.102180 0.270814
vt 0.101793 0.299061
vt 0.102180 0.270814
vt 0.102180 0.270814
vt 0.102180 0.270814
vt 0.102180 0.270814
vt 0.101793 0.299061
vt 0.101972 0.250723
vt 0.064095 0.209474
vt 0.102180 0.270814
vt 0.101972 0.250723
vt 0.101973 0.250723
vt 0.102180 0.270814
vt 0.101973 0.250723
vt 0.101973 0.250723
vt 0.102180 0.270814
vt 0.101973 0.250723
vt 0.102180 0.270814
vt 0.102180 0.270814
vt 0.102180 0.270814
vt 0.101793 0.299061
vt 0.102180 0.270814
vt 0.102180 0.270814
vt 0.101793 0.299061
vt 0.101972 0.250723
vt 0.102180 0.270814
vt 0.102180 0.270814
vt 0.101793 0.299061
vt 0.102180 0.270814
vt 0.102180 0.270814
vt 0.101793 0.299061
vt 0.101793 0.299061
vt 0.101658 0.278970
vt 0.101793 0.299061
vt 0.101658 0.278970
vt 0.101658 0.278970
vt 0.064095 0.209474
vt 0.101658 0.278970
vt 0.101658 0.278970
vt 0.101658 0.278970
vt 0.102180 0.270814
vt 0.101793 0.299061
vt 0.102180 0.270814
vt 0.101658 0.278970
vt 0.102180 0.270814
vt 0.101973 0.273202
vt 0.101793 0.299061
vt 0.101658 0.278970
vt 0.100542 0.278062
vt 0.101658 0.278970
vt 0.101658 0.278970
vt 0.064095 0.209474
vt 0.100542 0.278062
vt 0.101658 0.278970
vt 0.101658 0.278970
vt 0.064095 0.209474
vt 0.100542 0.278062
vt 0.101658 0.278970
vt 0.101658 0.278970
vt 0.064095 0.209474
vt 0.100542 0.278062
vt 0.101658 0.278970
vt 0.101658 0.278970
vt 0.064095 0.209474
vt 0.102180 0.270814
vt 0.101793 0.299061
vt 0.102180 0.270814
vt 0.101793 0.299061
vt 0.102180 0.270814
vt 0.102180 0.270814
vt 0.101793 0.299061
vt 0.102180 0.270814
vt 0.101793 0.299061
vt 0.102180 0.270814
vt 0.102180 0.270814
vt 0.101793 0.299061
vt 0.102180 0.270814
vt 0.101793 0.299061
vt 0.102180 0.270814
vt 0.102180 0.270814
vt 0.101793 0.299061
vt 0.102180 0.270814
vt 0.101793 0.299061
vt 0.102180 0.270814
vt 0.101289 0.277078
vt 0.101289 0.277078
vt 0.101289 0.277078
vt 0.101289 0.277078
vt 0.101289 0.277078
vt 0.101289 0.277078
vt 0.101289 0.277078
vt 0.101289 0.277078
vt 0.101289 0.277078
vt 0.101289 0.277078
vt 0.101289 0.277078
vt 0.101289 0.277078
vt 0.101289 0.277078
vt 0.101289 0.277078
vt 0.101289 0.277078
vt 0.101289 0.277078
vt 0.101289 0.277078
vt 0.101289 0.277078
vt 0.100754 0.254209
vt 0.100754 0.254209
vt 0.100754 0.254209
vt 0.100754 0.254209
vn 0.000000 1.000000 -0.000000
vn 0.000000 1.000000 -0.000000
vn 0.000000 1.000000 -0.000000
vn 0.000000 1.000000 -0.000000
vn 0.000000 1.000000 0.000000
vn 0.000000 1.000000 0.000000
vn 0.000000 1.000000 0.000000
vn 0.000000 1.000000 0.000000
vn 0.005356 0.765620 -0.643270
vn 0.005356 0.765620 -0.643270
vn 0.005356 0.765620 -0.643270
vn 0.005356 0.765621 -0.643270
vn 0.000877 0.997941 0.064135
vn 0.000877 0.997941 0.064135
vn 0.000877 0.997941 0.064135
vn 0.000877 0.997941 0.064135
vn 0.001325 0.994039 0.109016
vn 0.001325 0.994039 0.109016
vn 0.001325 0.994039 0.109016
vn 0.001325 0.994039 0.109016
vn 0.021825 0.562837 0.826280
vn 0.021825 0.562837 0.826280
vn 0.021825 0.562837 0.826280
vn 0.021825 0.562837 0.826280
vn 0.005077 0.999947 -0.008918
vn 0.005077 0.999947 -0.008918
vn 0.005077 0.999947 -0.008918
vn 0.005077 0.999947 -0.008918
vn -0.003525 0.999993 0.001478
vn -0.003525 0.999993 0.001478
vn -0.003525 0.999993 0.001478
vn -0.003525 0.999993 0.001478
vn 0.000000 1.000000 -0.000000
vn 0.000000 1.000000 -0.000000
vn 0.000000 1.000000 -0.000000
vn 0.000000 0.693668 0.720294
vn 0.000000 0.693668 0.720294
vn 0.000000 0.693668 0.720294
vn 0.000000 0.693668 0.720294
vn 0.000000 0.997024 0.077088
vn 0.000000 0.997024 0.077088
vn 0.000000 0.997024 0.077088
vn 0.000000 0.997024 0.077088
vn 0.000000 1.000000 0.000000
vn 0.000000 1.000000 0.000000
vn 0.000000 1.000000 0.000000
vn 0.000000 1.000000 0.000000
vn 0.139499 0.652027 -0.745252
vn 0.139499 0.652027 -0.745252
vn 0.139499 0.652027 -0.745252
vn 0.139499 0.652027 -0.745252
vn 0.174603 0.984605 -0.008159
vn 0.174603 0.984605 -0.008159
vn 0.174603 0.984605 -0.008159
vn 0.174603 0.984605 -0.008159
vn 0.000000 1.000000 0.000000
vn 0.000000 1.000000 0.000000
vn 0.000000 1.000000 0.000000
vn 0.000000 1.000000 0.000000
vn 0.000000 1.000000 0.000000
vn 0.000000 1.000000 0.000000
vn 0.000000 1.000000 0.000000
vn 0.000000 0.874888 -0.484325
vn 0.000000 0.874888 -0.484325
vn 0.000000 0.874888 -0.484325
vn 0.009648 0.999947 -0.003500
vn 0.009648 0.999947 -0.003500
vn 0.009648 0.999947 -0.003500
vn 0.009648 0.999947 -0.003500
vn -0.350324 0.849499 0.394492
vn -0.350324 0.849499 0.394492
vn -0.350324 0.849499 0.394492
vn -0.241227 0.970453 -0.005455
vn -0.241227 0.970453 -0.005455
vn -0.241227 0.970453 -0.005455
vn -0.241227 0.970453 -0.005455
vn 0.006943 0.999897 -0.012562
vn 0.006943 0.999897 -0.012562
vn 0.006943 0.999897 -0.012562
vn 0.006943 0.999897 -0.012562
vn 0.008695 0.974956 0.222229
vn 0.008695 0.974956 0.222229
vn 0.008695 0.974956 0.222229
vn 0.008695 0.974956 0.222229
vn -0.001718 0.999926 -0.012040
vn -0.001718 0.999926 -0.012040
vn -0.001718 0.999926 -0.012040
vn -0.001718 0.999926 -0.012040
vn -0.006362 0.825306 -0.564649
vn -0.006362 0.825306 -0.564649
vn -0.006362 0.825306 -0.564649
vn -0.006362 0.825306 -0.564649
vn 0.000000 1.000000 0.000000
vn 0.000000 1.000000 0.000000
vn 0.000000 1.000000 0.000000
vn 0.000000 1.000000 0.000000
vn -0.000812 0.998014 0.062987
vn -0.000812 0.998014 0.062987
vn -0.000812 0.998014 0.062987
vn -0.000812 0.998014 0.062987
vn 0.005391 0.685877 0.727697
vn 0.005391 0.685877 0.727697
vn 0.005391 0.685877 0.727697
vn 0.005391 0.685877 0.727697
vn -0.000000 1.000000 -0.000000
vn -0.000000 1.000000 -0.000000
vn -0.000000 1.000000 -0.000000
vn -0.000000 1.000000 -0.000000
vn -0.343860 0.938984 -0.008316
vn -0.343860 0.938984 -0.008316
vn -0.343860 0.938984 -0.008316
vn -0.343860 0.938984 -0.008316
vn -0.313287 0.864027 0.394093
vn -0.313287 0.864027 0.394093
vn -0.313287 0.864027 0.394093
vn 0.000000 1.000000 0.000000
vn 0.000000 1.000000 0.000000
vn 0.000000 1.000000 0.000000
vn 0.000000 1.000000 0.000000
vn -0.066853 0.551982 -0.831172
vn -0.066853 0.551982 -0.831172
vn -0.066853 0.551982 -0.831172
vn -0.066853 0.551982 -0.831172
vn -0.000000 1.000000 0.000000
vn -0.000000 1.000000 0.000000
vn -0.000000 1.000000 0.000000
vn -0.000000 1.000000 0.000000
vn -0.000000 0.997024 0.077088
vn -0.000000 0.997024 0.077088
vn -0.000000 0.997024 0.077088
vn -0.000000 0.997024 0.077088
vn -0.000000 0.693669 0.720294
vn -0.000000 0.693669 0.720294
vn -0.000000 0.693669 0.720294
vn -0.000000 0.693669 0.720294
vn 0.000000 1.000000 -0.000000
vn 0.000000 1.000000 -0.000000
vn 0.000000 1.000000 -0.000000
vn 0.099877 0.988623 -0.112469
vn 0.099877 0.988623 -0.112469
vn 0.099877 0.988623 -0.112469
vn -0.003075 0.676185 0.736726
vn -0.003075 0.676185 0.736726
vn -0.003075 0.676185 0.736726
vn -0.003075 0.676185 0.736726
vn -0.500181 0.655344 0.565988
vn -0.500181 0.655344 0.565988
vn -0.500181 0.655344 0.565988
vn -0.500181 0.655344 0.565988
vn -0.017820 0.659494 0.751499
vn -0.017820 0.659494 0.751499
vn -0.017820 0.659494 0.751499
vn -0.017820 0.659494 0.751499
vn 0.329556 0.672981 0.662186
vn 0.329556 0.672981 0.662186
vn 0.329556 0.672981 0.662186
vn 0.329556 0.672981 0.662186
vn 0.000000 1.000000 -0.000000
vn 0.000000 1.000000 -0.000000
vn 0.000000 1.000000 -0.000000
vn 0.000000 1.000000 -0.000000
vn -0.000000 1.000000 -0.000000
vn -0.000000 1.000000 -0.000000
vn -0.000000 1.000000 -0.000000
vn -0.000000 1.000000 -0.000000
vn -0.001127 0.999703 0.024342
vn -0.001127 0.999703 0.024342
vn -0.001127 0.999703 0.024342
vn -0.001127 0.999703 0.024342
vn 0.001197 0.999685 0.025081
vn 0.001197 0.999685 0.025081
vn 0.001197 0.999685 0.025081
vn 0.001197 0.999685 0.025081
vn -0.210921 0.936167 -0.281255
vn -0.210921 0.936167 -0.281255
vn -0.210921 0.936167 -0.281255
vn -0.001671 0.949927 -0.312468
vn -0.001671 0.949927 -0.312468
vn -0.001671 0.949927 -0.312468
vn -0.001671 0.949927 -0.312468
vn 0.137030 0.989009 -0.055527
vn 0.137030 0.989009 -0.055527
vn 0.137030 0.989009 -0.055527
vn 0.137030 0.989009 -0.055527
vn -0.001734 0.978746 0.205070
vn -0.001734 0.978746 0.205070
vn -0.001734 0.978746 0.205070
vn -0.001734 0.978746 0.205070
vn 0.263045 0.929899 0.257092
vn 0.263045 0.929899 0.257092
vn 0.263045 0.929899 0.257092
vn -0.283184 0.958981 0.012718
vn -0.283184 0.958981 0.012718
vn -0.283184 0.958981 0.012718
vn -0.283184 0.958981 0.012718
vn -0.000030 0.999691 0.024869
vn -0.000030 0.999691 0.024869
vn -0.000030 0.999691 0.024869
vn -0.000030 0.999691 0.024869
vn 0.210726 0.977320 0.020983
vn 0.210726 0.977320 0.020983
vn 0.210726 0.977320 0.020983
vn 0.210726 0.977320 0.020983
vn -0.005813 0.999973 -0.004463
vn -0.005813 0.999973 -0.004463
vn -0.005813 0.999973 -0.004463
vn -0.005813 0.999973 -0.004463
vn 0.292983 0.956100 -0.005832
vn 0.292983 0.956100 -0.005832
vn 0.292983 0.956100 -0.005832
vn 0.292983 0.956100 -0.005832
s off
f 3/1/1 17/21/2 18/35/3 49/135/4
f 42/74/5 43/71/6 20/117/7 21/114/8
f 41/76/9 42/73/10 21/115/11 26/112/12
f 43/5/13 44/8/14 46/128/15 20/16/16
f 39/82/17 40/78/18 27/39/19 28/109/20
f 48/133/21 49/134/22 18/36/23 19/118/24
f 38/55/25 39/81/26 28/110/27 29/111/28
f 40/79/29 55/145/30 56/147/31 27/86/32
f 1/66/33 14/88/34 37/116/35
f 36/90/36 37/87/37 14/104/38 9/3/39
f 35/52/40 36/62/41 9/65/42 5/69/43
f 34/94/44 35/91/45 5/17/46 7/9/47
f 33/96/48 34/93/49 7/18/50 11/13/51
f 32/99/52 58/151/53 59/153/54 15/25/55
f 31/102/56 32/98/57 15/22/58
f 30/42/59 31/101/60 15/89/61 2/2/62
f 26/37/63 21/29/64 22/125/65
f 27/85/66 56/148/67 57/149/68 23/122/69
f 28/108/70 23/32/71 24/105/72
f 29/41/73 28/40/74 24/106/75 25/124/76
f 25/34/77 24/107/78 31/100/79 30/103/80
f 24/33/81 23/120/82 32/97/83 31/43/84
f 23/121/85 57/150/86 58/152/87 32/44/88
f 22/30/89 21/127/90 34/48/91 33/45/92
f 21/28/93 20/119/94 35/50/95 34/47/96
f 20/16/97 52/140/98 36/49/99 35/27/100
f 52/141/101 53/142/102 37/53/103 36/51/104
f 1/66/105 37/116/106 53/143/107 51/139/108
f 16/23/109 39/80/110 38/83/111 4/4/112
f 16/24/113 40/77/114 39/56/115
f 54/144/116 55/146/117 40/57/118 16/92/119
f 8/10/120 42/61/121 41/58/122 12/14/123
f 6/7/124 43/63/125 42/60/126 8/19/127
f 10/182/128 44/183/129 43/184/130 6/185/131
f 13/20/132 45/67/133 44/64/134 10/6/135
f 3/1/136 45/54/137 13/72/138
f 28/108/139 27/84/140 23/32/141
f 44/70/142 45/68/143 47/130/144 46/129/145
f 46/129/146 47/130/147 49/134/148 48/133/149
f 19/26/150 18/123/151 51/138/152 50/137/153
f 50/137/154 51/138/155 53/142/156 52/141/157
f 3/1/158 49/135/159 47/131/160 45/54/161
f 1/66/162 51/139/163 18/35/164 17/21/165
f 20/16/166 46/128/167 48/132/168 19/15/169
f 20/16/170 19/15/171 50/136/172 52/140/173
f 54/164/174 60/165/175 55/181/176
f 56/167/177 55/166/178 60/178/179 61/168/180
f 57/169/181 56/179/182 61/176/183 62/170/184
f 58/180/185 57/177/186 62/175/187 63/172/188
f 59/173/189 58/171/190 63/174/191
f 12/12/192 41/59/193 60/156/194 54/154/195
f 61/157/196 60/155/197 41/75/198 26/113/199
f 62/159/200 61/158/201 26/38/202 22/31/203
f 63/162/204 62/160/205 22/126/206 33/46/207
f 59/163/208 63/161/209 33/95/210 11/11/211
