# This file uses meters as units for non-parametric coordinates.

v 65.357269 -0.001044 -120.341820
v -12.949523 -0.001339 -111.619026
v -119.556137 -0.001101 -65.167862
v -104.281509 -0.000932 89.725189
v 115.863342 -0.001078 63.446537
v 120.759903 -0.001209 1.129989
v 1.365858 5.963903 103.319778
v 67.472717 6.649020 63.824905
v -39.093349 5.819415 -30.847116
v 37.693504 7.445598 -33.842316
v -10.431449 6.247748 -44.553307
v -34.756863 9.985155 42.056671
v 38.252563 7.141889 -92.479034
v 90.345291 8.191577 -34.683258
v 88.509247 3.003383 40.864292
v 29.419493 4.034853 75.671066
v -38.335915 5.488752 97.801933
v -74.774666 6.126910 71.481110
v -90.051041 4.226489 -36.308357
v -38.445351 2.110651 -82.131599
v 2.262076 11.459887 84.318077
v -76.880684 6.223048 7.072605
v 1.930283 8.839335 -76.945145
v 84.573494 2.803900 5.311921
v -96.542480 4.111375 1.819427
v -82.906403 7.710835 -56.990692
v -2.907413 7.369861 -99.014847
v 64.725067 3.300087 -70.472382
v 21.832972 6.725332 23.564528
v -0.384655 12.544352 5.477589
v 106.758430 -0.001228 -49.571941
v 55.920570 -0.001281 109.158226
v -33.992020 -0.001395 109.069077
v -111.838165 -0.001401 30.346966
v 24.826200 9.020274 55.304626
v -48.434715 8.735818 -10.894442
v -27.181311 10.434557 19.525902
v 22.344492 9.632544 -17.060949
v -48.194553 6.562093 29.766781
v 58.836079 12.945171 -21.059072
v 53.305447 9.349223 23.729765
v -25.285854 9.721473 75.507820
v -63.243687 8.584015 37.843334
v 21.030165 11.513945 -62.786991
v 45.438137 3.896090 -49.678196
v 34.006603 5.512358 36.512234
v -48.469933 11.174025 52.139042
v -10.519044 10.464340 55.038132
v 4.367808 -14.387022 7.685130
v -79.469902 -0.001151 103.538437
v 83.029953 -0.001298 -86.172188
v -46.854565 -0.001032 -114.164551
v -90.351982 -0.001308 -81.233414
vt 0.233800 0.329450
vt 0.233800 0.329450
vt 0.233800 0.329450
vt 0.233800 0.329450
vt 0.233800 0.329450
vt 0.233800 0.329450
vt 0.233800 0.329450
vt 0.233800 0.329450
vt 0.233800 0.329450
vt 0.233800 0.329450
vt 0.233800 0.329450
vt 0.233800 0.329450
vt 0.233800 0.329450
vt 0.233800 0.329450
vt 0.233800 0.329450
vt 0.233800 0.329450
vt 0.233800 0.329450
vt 0.233800 0.329450
vt 0.233800 0.329450
vt 0.233800 0.329450
vt 0.233800 0.329450
vt 0.233800 0.329450
vt 0.233800 0.329450
vt 0.233800 0.329450
vt 0.233800 0.329450
vt 0.233800 0.329450
vt 0.233800 0.329450
vt 0.233800 0.329450
vt 0.233800 0.329450
vt 0.233800 0.329450
vt 0.233800 0.329450
vt 0.233800 0.329450
vt 0.233800 0.329450
vt 0.233800 0.329450
vt 0.233800 0.329450
vt 0.233800 0.329450
vt 0.233800 0.329450
vt 0.233800 0.329450
vt 0.233800 0.329450
vt 0.233800 0.329450
vt 0.233800 0.329450
vt 0.233800 0.329450
vt 0.233800 0.329450
vt 0.233800 0.329450
vt 0.233800 0.329450
vt 0.233800 0.329450
vt 0.233800 0.329450
vt 0.233800 0.329450
vt 0.233800 0.329450
vt 0.233800 0.329450
vt 0.233800 0.329450
vt 0.233800 0.329450
vt 0.233800 0.329450
vt 0.233800 0.329450
vt 0.233800 0.329450
vt 0.233800 0.329450
vt 0.233800 0.329450
vt 0.233800 0.329450
vt 0.233800 0.329450
vn -0.160494 0.986565 -0.030508
vn -0.160494 0.986565 -0.030508
vn -0.160494 0.986565 -0.030508
vn -0.139537 0.990198 0.006041
vn -0.139537 0.990198 0.006041
vn -0.139537 0.990198 0.006041
vn -0.139537 0.990198 0.006041
vn -0.082971 0.986840 0.138792
vn -0.082971 0.986840 0.138792
vn -0.082971 0.986840 0.138792
vn 0.334343 0.901016 0.276376
vn 0.334343 0.901016 0.276376
vn 0.334343 0.901016 0.276376
vn 0.175352 0.984496 0.004342
vn 0.175352 0.984496 0.004342
vn 0.175352 0.984496 0.004342
vn 0.214847 0.963324 0.160773
vn 0.214847 0.963324 0.160773
vn 0.214847 0.963324 0.160773
vn 0.041158 0.997804 -0.051892
vn 0.041158 0.997804 -0.051892
vn 0.041158 0.997804 -0.051892
vn -0.046859 0.996663 -0.066843
vn -0.046859 0.996663 -0.066843
vn -0.046859 0.996663 -0.066843
vn 0.052940 0.967742 0.246317
vn 0.052940 0.967742 0.246317
vn 0.052940 0.967742 0.246317
vn -0.280803 0.909036 -0.307900
vn -0.280803 0.909036 -0.307900
vn -0.280803 0.909036 -0.307900
vn -0.223554 0.970860 0.086335
vn -0.223554 0.970860 0.086335
vn -0.223554 0.970860 0.086335
vn -0.227497 0.973605 0.018386
vn -0.227497 0.973605 0.018386
vn -0.227497 0.973605 0.018386
vn 0.193913 0.979035 -0.062349
vn 0.193913 0.979035 -0.062349
vn 0.193913 0.979035 -0.062349
vn -0.014677 0.988373 -0.151338
vn -0.014677 0.988373 -0.151338
vn -0.014677 0.988373 -0.151338
vn 0.307472 0.937965 0.160256
vn 0.307472 0.937965 0.160256
vn 0.307472 0.937965 0.160256
vn -0.049635 0.996121 -0.072664
vn -0.049635 0.996121 -0.072664
vn -0.049635 0.996121 -0.072664
vn -0.166293 0.985956 0.015421
vn -0.166293 0.985956 0.015421
vn -0.166293 0.985956 0.015421
vn -0.099221 0.988481 0.114288
vn -0.099221 0.988481 0.114288
vn -0.099221 0.988481 0.114288
vn -0.099221 0.988480 0.114288
vn 0.323575 0.944689 -0.053499
vn 0.323575 0.944689 -0.053499
vn 0.323575 0.944689 -0.053499
vn -0.092413 0.961014 -0.260600
vn -0.092413 0.961014 -0.260600
vn -0.092413 0.961014 -0.260600
vn 0.265116 0.957962 0.109649
vn 0.265116 0.957962 0.109649
vn 0.265116 0.957962 0.109649
vn 0.514942 0.852222 0.092476
vn 0.514942 0.852222 0.092476
vn 0.514942 0.852222 0.092476
vn -0.071944 0.997009 0.028229
vn -0.071944 0.997009 0.028229
vn -0.071944 0.997009 0.028229
vn 0.076325 0.996988 -0.013751
vn 0.076325 0.996988 -0.013751
vn 0.076325 0.996988 -0.013751
vn 0.074613 0.991224 -0.109121
vn 0.074613 0.991224 -0.109121
vn 0.074613 0.991224 -0.109121
vn -0.054208 0.997089 0.053624
vn -0.054208 0.997089 0.053624
vn -0.054208 0.997089 0.053624
vn -0.098026 0.995055 -0.016036
vn -0.098026 0.995055 -0.016036
vn -0.098026 0.995055 -0.016036
vn 0.093232 0.984863 0.146124
vn 0.093232 0.984863 0.146124
vn 0.093232 0.984863 0.146124
vn 0.075674 0.997035 -0.013972
vn 0.075674 0.997035 -0.013972
vn 0.075674 0.997035 -0.013972
vn 0.104717 0.993817 0.036912
vn 0.104717 0.993817 0.036912
vn 0.104717 0.993817 0.036912
vn -0.024764 0.989994 0.138919
vn -0.024764 0.989994 0.138919
vn -0.024764 0.989994 0.138919
vn -0.004418 0.940684 -0.339254
vn -0.004418 0.940684 -0.339254
vn -0.004418 0.940684 -0.339254
vn -0.004418 0.940684 -0.339254
vn 0.212908 0.935991 -0.280341
vn 0.212908 0.935991 -0.280341
vn 0.212908 0.935991 -0.280341
vn 0.123721 0.990252 -0.063982
vn 0.123721 0.990252 -0.063982
vn 0.123721 0.990252 -0.063982
vn 0.368797 0.923914 -0.101845
vn 0.368797 0.923914 -0.101845
vn 0.368797 0.923914 -0.101845
vn 0.102599 0.994690 0.008060
vn 0.102599 0.994690 0.008060
vn 0.102599 0.994690 0.008060
vn 0.135821 0.990191 -0.032781
vn 0.135821 0.990191 -0.032781
vn 0.135821 0.990191 -0.032781
vn 0.135346 0.974772 0.177487
vn 0.135346 0.974772 0.177487
vn 0.135346 0.974772 0.177487
vn -0.000713 0.696137 0.717908
vn -0.000713 0.696137 0.717908
vn -0.000713 0.696137 0.717908
vn -0.074506 0.884847 0.459885
vn -0.074506 0.884847 0.459885
vn -0.074506 0.884847 0.459885
vn -0.106782 0.979367 0.171576
vn -0.106782 0.979367 0.171576
vn -0.106782 0.979367 0.171576
vn -0.189004 0.981682 0.024045
vn -0.189004 0.981682 0.024045
vn -0.189004 0.981682 0.024045
vn -0.199741 0.979256 0.034082
vn -0.199741 0.979256 0.034082
vn -0.199741 0.979256 0.034082
vn -0.124366 0.992070 -0.018179
vn -0.124366 0.992070 -0.018179
vn -0.124366 0.992070 -0.018179
vn 0.076706 0.993371 -0.085622
vn 0.076706 0.993371 -0.085622
vn 0.076706 0.993371 -0.085622
vn 0.197093 0.977704 0.072447
vn 0.197093 0.977704 0.072447
vn 0.197093 0.977704 0.072447
vn -0.112880 0.966803 -0.229239
vn -0.112880 0.966803 -0.229239
vn -0.112880 0.966803 -0.229239
vn -0.082896 0.994109 0.069824
vn -0.082896 0.994109 0.069824
vn -0.082896 0.994109 0.069824
vn -0.082896 0.994109 0.069824
vn -0.082761 0.981996 0.169809
vn -0.082761 0.981996 0.169809
vn -0.082761 0.981996 0.169809
vn 0.191791 0.977414 -0.088758
vn 0.191791 0.977414 -0.088758
vn 0.191791 0.977414 -0.088758
vn 0.081737 0.993475 -0.079540
vn 0.081737 0.993475 -0.079540
vn 0.081737 0.993475 -0.079540
vn 0.040965 0.998959 -0.020058
vn 0.040965 0.998959 -0.020058
vn 0.040965 0.998959 -0.020058
vn -0.025796 0.999604 0.011265
vn -0.025796 0.999604 0.011265
vn -0.025796 0.999604 0.011265
vn -0.204124 0.977711 -0.049131
vn -0.204124 0.977711 -0.049131
vn -0.204124 0.977711 -0.049131
vn -0.078808 0.996890 -0.000609
vn -0.078808 0.996890 -0.000609
vn -0.078808 0.996890 -0.000609
vn -0.155627 0.986358 0.053649
vn -0.155627 0.986358 0.053649
vn -0.155627 0.986358 0.053649
vn -0.025087 0.987427 -0.156073
vn -0.025087 0.987427 -0.156073
vn -0.025087 0.987427 -0.156073
vn -0.026638 0.987640 -0.154459
vn -0.026638 0.987640 -0.154459
vn -0.026638 0.987640 -0.154459
vn 0.003391 0.992002 -0.126176
vn 0.003391 0.992002 -0.126176
vn 0.003391 0.992002 -0.126176
vn -0.002034 0.999450 -0.033094
vn -0.002034 0.999450 -0.033094
vn -0.002034 0.999450 -0.033094
vn -0.018274 0.979198 -0.202082
vn -0.018274 0.979198 -0.202082
vn -0.018274 0.979198 -0.202082
vn -0.018274 0.979198 -0.202082
vn -0.197261 0.957506 -0.210407
vn -0.197261 0.957506 -0.210407
vn -0.197261 0.957506 -0.210407
vn 0.068721 0.980666 -0.183228
vn 0.068721 0.980666 -0.183228
vn 0.068721 0.980666 -0.183228
vn 0.189826 0.981459 -0.026521
vn 0.189826 0.981459 -0.026521
vn 0.189826 0.981459 -0.026521
vn -0.123246 0.986264 0.109968
vn -0.123246 0.986264 0.109968
vn -0.123246 0.986264 0.109968
vn -0.058976 0.997786 0.030739
vn -0.058976 0.997786 0.030739
vn -0.058976 0.997786 0.030739
vn -0.075667 0.975965 0.204369
vn -0.075667 0.975965 0.204369
vn -0.075667 0.975965 0.204369
vn -0.075667 0.975965 0.204369
vn -0.083336 0.986067 0.143969
vn -0.083336 0.986067 0.143969
vn -0.083336 0.986067 0.143969
vn -0.181640 0.983319 0.009562
vn -0.181640 0.983319 0.009562
vn -0.181640 0.983319 0.009562
vn -0.102938 0.994582 -0.014523
vn -0.102938 0.994582 -0.014523
vn -0.102938 0.994582 -0.014523
vn -0.021322 0.987251 -0.157737
vn -0.021322 0.987251 -0.157737
vn -0.021322 0.987251 -0.157737
vn 0.016649 0.997404 -0.070060
vn 0.016649 0.997404 -0.070060
vn 0.016649 0.997404 -0.070060
vn 0.191741 0.980539 0.042169
vn 0.191741 0.980539 0.042169
vn 0.191741 0.980539 0.042169
vn 0.191741 0.980539 0.042169
vn -0.046962 0.987547 0.150149
vn -0.046962 0.987547 0.150149
vn -0.046962 0.987547 0.150149
vn 0.085150 0.993850 -0.070797
vn 0.085150 0.993850 -0.070797
vn 0.085150 0.993850 -0.070797
vn -0.120973 -0.992608 0.009772
vn -0.120973 -0.992608 0.009772
vn -0.120973 -0.992608 0.009772
vn -0.055744 -0.993291 -0.101319
vn -0.055744 -0.993291 -0.101319
vn -0.055744 -0.993291 -0.101319
vn -0.013121 -0.992948 -0.117825
vn -0.013121 -0.992948 -0.117825
vn -0.013121 -0.992948 -0.117825
vn 0.102347 -0.992534 -0.066351
vn 0.102347 -0.992534 -0.066351
vn 0.102347 -0.992534 -0.066351
vn 0.120746 -0.992123 -0.033344
vn 0.120746 -0.992123 -0.033344
vn 0.120746 -0.992123 -0.033344
vn 0.123196 -0.992335 0.009682
vn 0.123196 -0.992335 0.009682
vn 0.123196 -0.992335 0.009682
vn 0.077289 -0.991844 0.101347
vn 0.077289 -0.991844 0.101347
vn 0.077289 -0.991844 0.101347
vn -0.000138 -0.990090 0.140434
vn -0.000138 -0.990090 0.140434
vn -0.000138 -0.990090 0.140434
vn -0.016350 -0.990792 0.134400
vn -0.016350 -0.990792 0.134400
vn -0.016350 -0.990792 0.134400
vn -0.119909 -0.992667 0.015268
vn -0.119909 -0.992667 0.015268
vn -0.119909 -0.992668 0.015268
vn -0.096438 0.980147 0.173240
vn -0.096438 0.980147 0.173240
vn -0.096438 0.980147 0.173240
vn -0.055268 0.889028 0.454505
vn -0.055268 0.889028 0.454505
vn -0.055268 0.889028 0.454505
vn 0.114815 0.990594 -0.074438
vn 0.114815 0.990594 -0.074438
vn 0.114815 0.990594 -0.074438
vn 0.005047 0.997734 -0.067098
vn 0.005047 0.997734 -0.067098
vn 0.005047 0.997734 -0.067098
vn -0.142965 0.954995 -0.259896
vn -0.142965 0.954995 -0.259897
vn -0.142965 0.954995 -0.259896
vn 0.009076 -0.992610 -0.121006
vn 0.009076 -0.992610 -0.121006
vn 0.009076 -0.992610 -0.121006
vn 0.112179 -0.991992 -0.058027
vn 0.112179 -0.991992 -0.058027
vn 0.112179 -0.991992 -0.058027
vn -0.055827 -0.993394 0.100262
vn -0.055827 -0.993394 0.100262
vn -0.055827 -0.993394 0.100262
vn -0.185914 0.951387 -0.245558
vn -0.185914 0.951387 -0.245558
vn -0.185914 0.951387 -0.245558
vn -0.067376 -0.993750 -0.089002
vn -0.067376 -0.993750 -0.089002
vn -0.067376 -0.993750 -0.089002
s off
f 27/1/1 20/2/2 23/3/3
f 25/4/4 18/5/5 43/6/6 22/7/7
f 18/5/8 17/8/9 42/9/10
f 7/10/11 16/11/12 21/12/13
f 8/13/14 15/14/15 41/15/16
f 24/16/17 14/17/18 40/18/19
f 21/12/20 35/19/21 48/20/22
f 11/21/23 9/22/24 38/23/25
f 37/24/26 29/25/27 30/26/28
f 2/27/29 20/2/30 27/1/31
f 3/28/32 19/29/33 26/30/34
f 3/28/35 34/31/36 25/4/37
f 1/32/38 13/33/39 28/34/40
f 9/22/41 19/29/42 36/35/43
f 21/12/44 16/11/45 35/19/46
f 11/21/47 20/2/48 9/22/49
f 23/3/50 20/2/51 11/21/52
f 10/36/53 44/37/54 23/3/55 11/21/56
f 45/38/57 44/37/58 10/36/59
f 40/18/60 45/39/61 10/40/62
f 41/15/63 24/16/64 40/18/65
f 46/41/66 35/19/67 16/11/68
f 12/42/69 42/9/70 21/12/71
f 47/43/72 42/9/73 12/42/74
f 22/7/75 43/6/76 39/44/77
f 36/35/78 22/7/79 39/44/80
f 22/7/81 36/35/82 19/29/83
f 14/17/84 24/16/85 6/45/86
f 24/16/87 15/14/88 6/45/89
f 32/46/90 16/11/91 7/10/92
f 8/13/93 16/11/94 32/46/95
f 27/1/96 13/33/97 1/32/98 2/27/99
f 14/17/100 31/47/101 28/48/102
f 28/48/103 51/57/104 1/32/105
f 6/45/106 31/47/107 14/17/108
f 6/45/109 15/14/110 5/49/111
f 5/49/112 15/14/113 8/13/114
f 32/46/115 5/49/116 8/13/117
f 33/50/118 32/46/119 7/10/120
f 17/8/121 33/50/122 7/10/123
f 18/5/124 50/56/125 17/8/126
f 18/5/127 34/31/128 4/51/129
f 25/4/130 34/31/131 18/5/132
f 25/4/133 19/29/134 3/28/135
f 26/30/136 20/2/137 52/58/138
f 30/52/139 29/25/140 38/53/141
f 38/53/142 40/18/143 10/40/144
f 29/25/145 41/15/146 40/18/147 38/53/148
f 46/41/149 41/15/150 29/25/151
f 29/25/152 35/19/153 46/41/154
f 35/19/155 29/25/156 37/24/157
f 37/24/158 48/20/159 35/19/160
f 12/42/161 48/20/162 37/24/163
f 12/42/164 37/24/165 39/44/166
f 30/54/167 36/35/168 37/24/169
f 37/24/170 36/35/171 39/44/172
f 9/22/173 36/35/174 30/54/175
f 38/23/176 9/22/177 30/54/178
f 38/23/179 10/36/180 11/21/181
f 48/20/182 12/42/183 21/12/184
f 12/42/185 39/44/186 43/6/187 47/43/188
f 45/39/189 40/18/190 28/48/191
f 28/48/192 40/18/193 14/17/194
f 24/16/195 41/15/196 15/14/197
f 8/13/198 41/15/199 46/41/200
f 46/41/201 16/11/202 8/13/203
f 21/12/204 42/9/205 17/8/206 7/10/207
f 18/5/208 42/9/209 47/43/210
f 47/43/211 43/6/212 18/5/213
f 22/7/214 19/29/215 25/4/216
f 23/3/217 44/37/218 13/33/219
f 23/3/220 13/33/221 27/1/222
f 28/34/223 13/33/224 44/37/225 45/38/226
f 26/30/227 19/29/228 9/22/229
f 20/2/230 26/30/231 9/22/232
f 34/31/233 3/28/234 49/55/235
f 3/28/236 53/59/237 49/55/238
f 2/27/239 1/32/240 49/55/241
f 49/55/242 51/57/243 31/47/244
f 31/47/245 6/45/246 49/55/247
f 6/45/248 5/49/249 49/55/250
f 5/49/251 32/46/252 49/55/253
f 32/46/254 33/50/255 49/55/256
f 33/50/257 50/56/258 49/55/259
f 4/51/260 34/31/261 49/55/262
f 4/51/263 50/56/264 18/5/265
f 17/8/266 50/56/267 33/50/268
f 28/48/269 31/47/270 51/57/271
f 52/58/272 20/2/273 2/27/274
f 26/30/275 53/59/276 3/28/277
f 49/55/278 52/58/279 2/27/280
f 1/32/281 51/57/282 49/55/283
f 49/55/284 50/56/285 4/51/286
f 26/30/287 52/58/288 53/59/289
f 49/55/290 53/59/291 52/58/292
