# This file uses meters as units for non-parametric coordinates.

v 13.546753 0.000001 -500.000000
v 13.546753 0.000001 0.000000
v 31.538391 0.000001 -500.000000
v 31.538391 0.000001 0.000000
v 486.453247 0.000001 -500.000000
v 486.453247 0.000001 0.000000
v 468.461609 0.000001 -500.000000
v 468.461609 0.000001 0.000000
v 486.532349 0.000001 -77.376175
v 468.895020 0.000001 -83.339310
v 293.450165 0.000001 -158.482361
v 207.275391 0.000001 -158.482361
v 250.447083 0.000001 -65.512848
v 366.934204 0.000001 -158.482361
v 133.064270 0.000001 -158.482361
v 293.450165 0.000001 -386.153412
v 207.275391 0.000001 -383.415985
v 207.275391 0.000001 -263.793945
v 207.275391 0.000001 -309.365082
v 213.273621 0.000037 -295.997620
v 293.450165 0.000001 -192.174530
v 293.450165 0.000001 -211.133575
v 287.560272 0.000037 -200.790405
v 190.411377 0.000001 -113.063049
v 174.948120 0.000001 -125.309753
v 190.405273 0.000037 -121.604919
v 0.000000 0.000001 -500.000000
v 0.000000 0.000001 0.000000
v 500.000000 0.000001 -500.000000
v 500.000000 0.000001 0.000000
v 500.000000 0.000001 -77.376175
v 250.000000 0.000001 0.000000
v 250.000000 0.000001 -500.000000
v 468.479065 0.000001 -404.663086
v 457.036896 0.000001 -390.772247
v 456.359619 0.000001 -97.763824
v 31.983543 0.000001 -408.790192
v 32.563351 0.000001 -84.392548
v 45.877480 0.000001 -391.684326
v 46.652626 0.000001 -97.743607
vt 0.024743 0.008014
vt 0.024743 0.008014
vt 0.024743 0.008014
vt 0.024743 0.008014
vt 0.024743 0.008014
vt 0.024743 0.008014
vt 0.024743 0.008014
vt 0.024743 0.008014
vt 0.024743 0.008014
vt 0.024743 0.008014
vt 0.024743 0.008014
vt 0.024743 0.008014
vt 0.024743 0.008014
vt 0.024743 0.008014
vt 0.024743 0.008014
vt 0.024743 0.008014
vt 0.024743 0.008014
vt 0.024743 0.008014
vt 0.024743 0.008014
vt 0.024743 0.008014
vt 0.024743 0.008014
vt 0.024743 0.008014
vt 0.024743 0.008014
vt 0.024743 0.008014
vt 0.024743 0.008014
vt 0.024743 0.008014
vt 0.041473 0.023534
vt 0.015275 0.023534
vt 0.041473 0.986623
vt 0.015275 0.986623
vt 0.982243 0.023534
vt 0.982243 0.312460
vt 0.940760 0.366770
vt 0.956044 0.023534
vt 0.982243 0.986623
vt 0.956044 0.986623
vt 0.076268 0.023534
vt 0.383517 0.241314
vt 0.353613 0.264902
vt 0.272613 0.328798
vt 0.416133 0.328798
vt 0.416133 0.531649
vt 0.905966 0.366770
vt 0.582788 0.430214
vt 0.582788 0.393695
vt 0.724902 0.328798
vt 0.921249 0.023534
vt 0.499622 0.149723
vt 0.498759 0.023534
vt 0.498759 0.986623
vt 0.582788 0.767335
vt 0.921249 0.986623
vt 0.076268 0.986623
vt 0.416133 0.762061
vt 0.427732 0.593679
vt 0.416133 0.619425
vt 0.571397 0.410292
vt 0.383506 0.257767
vt 0.582788 0.328798
vt 0.024743 0.008014
vt 0.917801 0.846795
vt 0.895900 0.817174
vt 0.878981 0.361111
vt 0.027332 0.005182
vt 0.027332 0.005182
vt 0.027332 0.005182
vt 0.027332 0.005182
vt 0.024743 0.008014
vt 0.081242 0.808102
vt 0.024743 0.008014
vt 0.087723 0.179561
vt 0.116970 0.542888
vt 0.117275 0.203415
vt 0.026117 0.006397
vt 0.026117 0.006397
vt 0.026117 0.006397
vt 0.026117 0.006397
vn 0.000000 1.000000 0.000000
vn 0.000000 1.000000 0.000000
vn 0.000000 1.000000 0.000000
vn 0.000000 1.000000 0.000000
vn 0.000000 1.000000 0.000000
vn 0.000000 1.000000 0.000000
vn 0.000000 1.000000 0.000000
vn 0.000000 1.000000 0.000000
vn 0.000000 1.000000 0.000000
vn 0.000000 1.000000 0.000000
vn 0.000000 1.000000 0.000000
vn 0.000000 1.000000 0.000000
vn 0.000000 1.000000 0.000000
vn 0.000000 1.000000 0.000000
vn 0.000000 1.000000 0.000000
vn 0.000000 1.000000 0.000000
vn 0.000000 1.000000 0.000000
vn 0.000000 1.000000 0.000000
vn 0.000000 1.000000 0.000000
vn 0.000000 1.000000 0.000000
vn 0.000000 1.000000 0.000000
vn 0.000000 1.000000 0.000000
vn 0.000000 1.000000 0.000000
vn 0.000001 1.000000 -0.000000
vn 0.000001 1.000000 -0.000000
vn 0.000001 1.000000 -0.000000
vn 0.000001 1.000000 -0.000000
vn -0.000000 1.000000 -0.000000
vn -0.000000 1.000000 -0.000000
vn -0.000000 1.000000 -0.000000
vn -0.000000 1.000000 -0.000000
vn 0.000000 1.000000 0.000001
vn 0.000000 1.000000 0.000001
vn 0.000000 1.000000 0.000001
vn 0.000000 1.000000 0.000001
vn -0.000001 1.000000 0.000000
vn -0.000001 1.000000 0.000000
vn -0.000001 1.000000 0.000000
vn -0.000001 1.000000 0.000000
vn -0.000000 1.000000 -0.000000
vn -0.000000 1.000000 -0.000000
vn -0.000000 1.000000 -0.000000
vn -0.000000 1.000000 -0.000000
vn 0.000000 1.000000 0.000000
vn 0.000000 1.000000 0.000000
vn 0.000000 1.000000 0.000000
vn 0.000000 1.000000 0.000000
vn 0.000000 1.000000 0.000000
vn 0.000000 1.000000 0.000000
vn 0.000000 1.000000 0.000000
vn 0.000000 1.000000 0.000000
vn 0.000000 1.000000 0.000000
vn 0.000000 1.000000 0.000000
vn 0.000000 1.000000 0.000000
vn 0.000000 1.000000 0.000000
vn 0.000000 1.000000 0.000000
vn 0.000000 1.000000 0.000000
vn 0.000000 1.000000 0.000000
vn 0.000000 1.000000 -0.000000
vn 0.000000 1.000000 0.000000
vn 0.000000 1.000000 0.000000
vn 0.000000 1.000000 0.000000
vn 0.000000 1.000000 0.000000
vn 0.000000 1.000000 0.000000
vn 0.000000 1.000000 0.000000
vn 0.000000 1.000000 0.000000
vn 0.000000 1.000000 0.000000
vn 0.000000 1.000000 0.000000
vn 0.000000 1.000000 -0.000000
vn 0.000000 1.000000 -0.000000
vn 0.000000 1.000000 -0.000000
vn 0.000000 1.000000 -0.000000
vn 0.000000 1.000000 -0.000000
vn 0.000000 1.000000 -0.000000
vn 0.000000 1.000000 -0.000000
vn 0.000000 1.000000 0.000000
vn 0.000000 1.000000 0.000000
vn 0.000000 1.000000 0.000000
vn 0.000000 1.000000 0.000000
vn 0.000000 1.000000 0.000000
vn 0.000000 1.000000 0.000000
vn 0.000000 1.000000 0.000000
vn 0.000000 1.000000 0.000000
vn 0.000000 1.000000 0.000000
vn 0.000000 1.000000 0.000000
vn 0.000000 1.000000 0.000000
vn 0.000000 1.000000 0.000000
vn -0.000006 1.000000 0.000000
vn -0.000006 1.000000 0.000000
vn -0.000006 1.000000 0.000000
vn 0.000006 1.000000 0.000000
vn 0.000006 1.000000 0.000000
vn 0.000006 1.000000 0.000000
vn -0.000003 1.000000 0.000004
vn -0.000003 1.000000 0.000004
vn -0.000003 1.000000 0.000004
vn 0.000000 1.000000 0.000000
vn 0.000000 1.000000 0.000000
vn 0.000000 1.000000 0.000000
vn 0.000000 1.000000 0.000000
vn 0.000000 1.000000 0.000000
vn 0.000000 1.000000 0.000000
vn 0.000000 1.000000 -0.000000
vn 0.000000 1.000000 -0.000000
vn 0.000000 1.000000 0.000000
vn 0.000000 1.000000 -0.000000
vn 0.000000 1.000000 -0.000000
vn 0.000000 1.000000 -0.000000
vn 0.000000 1.000000 -0.000000
vn 0.000000 1.000000 -0.000000
vn 0.000000 1.000000 0.000000
vn 0.000000 1.000000 0.000000
vn 0.000000 1.000000 0.000000
vn 0.000000 1.000000 0.000000
vn 0.000000 1.000000 0.000000
vn 0.000000 1.000000 0.000000
vn 0.000000 1.000000 0.000000
vn 0.000000 1.000000 0.000000
vn 0.000000 1.000000 0.000000
vn 0.000000 1.000000 0.000000
vn 0.000000 1.000000 0.000000
vn 0.000000 1.000000 0.000000
vn 0.000000 1.000000 0.000000
vn 0.000000 1.000000 0.000000
vn 0.000000 1.000000 0.000000
vn 0.000000 1.000000 0.000000
vn 0.000000 1.000000 0.000000
vn 0.000000 1.000000 0.000000
vn 0.000000 1.000000 0.000000
vn 0.000000 1.000000 0.000000
vn 0.000000 1.000000 0.000000
vn 0.000000 1.000000 0.000000
vn 0.000000 1.000000 -0.000000
vn 0.000000 1.000000 -0.000000
vn 0.000000 1.000000 -0.000000
vn 0.000000 1.000000 -0.000000
vn 0.000000 1.000000 -0.000000
vn 0.000000 1.000000 0.000000
vn 0.000000 1.000000 0.000000
vn 0.000000 1.000000 0.000000
vn 0.000000 1.000000 0.000000
vn 0.000000 1.000000 -0.000000
vn 0.000000 1.000000 -0.000000
vn 0.000000 1.000000 -0.000000
vn 0.000000 1.000000 -0.000000
s off
f 4/1/1 38/70/2 2/2/3
f 1/4/4 37/68/5 3/3/6
f 6/5/7 9/6/8 10/7/9 8/8/10
f 34/60/11 5/9/12 7/10/13
f 11/11/14 12/12/15 13/13/16
f 13/13/17 14/14/18 11/11/19
f 12/12/20 26/15/21 24/16/22 13/13/23
f 16/17/24 20/18/25 23/19/26 22/20/27
f 17/21/28 19/22/29 20/18/30 16/17/31
f 23/19/32 12/12/33 11/11/34 21/23/35
f 23/19/36 20/18/37 18/24/38 12/12/39
f 15/25/40 25/26/41 26/15/42 12/12/43
f 27/30/44 28/28/45 2/27/46 1/29/47
f 30/31/48 31/32/49 9/33/50 6/34/51
f 9/33/52 31/32/53 29/35/54 5/36/55
f 4/37/56 24/38/57 25/39/58
f 39/72/59 15/40/60 18/42/61
f 18/42/62 15/40/63 12/41/64
f 22/44/65 21/45/66 35/62/67 7/52/68
f 10/43/69 36/63/70 14/46/71 8/47/72
f 14/46/73 13/48/74 8/47/75
f 8/47/76 13/48/77 32/49/78
f 33/50/79 16/51/80 7/52/81
f 3/53/82 17/54/83 33/50/84
f 17/54/85 16/51/86 33/50/87
f 18/42/88 20/55/89 19/56/90
f 22/44/91 23/57/92 21/45/93
f 24/38/94 26/58/95 25/39/96
f 7/52/97 16/51/98 22/44/99
f 3/53/100 19/56/101 17/54/102
f 37/69/103 39/72/104 18/42/105 19/56/106 3/53/107
f 39/72/108 40/73/109 15/40/110
f 32/49/111 13/48/112 24/38/113 4/37/114
f 14/46/115 21/45/116 11/59/117
f 34/64/118 35/65/119 36/66/120 10/67/121
f 36/63/122 35/62/123 21/45/124 14/46/125
f 10/7/126 9/6/127 5/9/128 34/60/129
f 7/52/130 35/62/131 34/61/132
f 4/37/133 25/39/134 15/40/135 40/73/136 38/71/137
f 2/2/138 38/70/139 37/68/140 1/4/141
f 37/74/142 38/75/143 40/76/144 39/77/145
