# This file uses meters as units for non-parametric coordinates.

v 500.000000 -0.000000 -500.000000
v 0.000000 -0.000000 -500.000000
v 500.000000 0.000000 0.000000
v 0.000000 0.000000 0.000000
v 250.000000 0.000000 0.000000
v 250.000000 -0.000000 -500.000000
v 125.000000 -0.000000 -500.000000
v 375.000000 -0.000000 -500.000000
v 500.000000 -0.000000 -250.000000
v 375.000000 -0.000000 -250.000000
v 250.000000 -0.000000 -250.000000
v 125.000000 -0.000000 -250.000000
v 0.000000 -0.000000 -250.000000
v 500.000000 -0.000000 -125.000000
v 250.000000 -0.000000 -125.000000
v 0.000000 -0.000000 -125.000000
v 6.250000 3.295206 -120.649719
v 6.250000 3.295206 -3.125000
v 245.995331 3.295206 -3.125000
v 245.995331 3.295206 -120.649719
v 254.004669 3.295206 -120.649719
v 254.004669 3.295206 -3.125000
v 493.750000 3.295206 -3.125000
v 493.750000 3.295206 -120.649719
v 496.875000 3.295206 -493.750000
v 378.125000 3.295206 -493.750000
v 378.125000 3.295206 -255.525970
v 496.875000 3.295206 -255.525970
v 371.875000 3.295206 -493.750000
v 253.125000 3.295206 -493.750000
v 253.125000 3.295206 -255.525970
v 371.875000 3.295206 -255.525970
v 246.875000 3.295206 -493.750000
v 128.125000 3.295206 -493.750000
v 128.125000 3.295206 -255.525970
v 246.875000 3.295206 -255.525970
v 121.875000 3.295206 -493.750000
v 3.125000 3.295206 -493.750000
v 3.125000 3.295206 -255.525970
v 121.875000 3.295206 -255.525970
v 375.000000 3.295206 -245.785522
v 254.004669 3.295206 -245.785522
v 254.004669 3.295206 -129.349518
v 493.750000 3.295206 -129.349518
v 493.750000 3.295206 -245.785522
v 125.000000 3.295206 -245.785522
v 6.250000 3.295206 -245.785522
v 6.250000 3.295206 -129.349518
v 245.995331 3.295206 -129.349518
v 245.995331 3.295206 -245.785522
vt 0.102017 0.254075
vt 0.102017 0.254075
vt 0.102017 0.254075
vt 0.102017 0.254075
vt 0.102017 0.254075
vt 0.102017 0.254075
vt 0.102017 0.254075
vt 0.102017 0.254075
vt 0.102017 0.254075
vt 0.102017 0.254075
vt 0.102017 0.254075
vt 0.102017 0.254075
vt 0.102017 0.254075
vt 0.102017 0.254075
vt 0.102017 0.254075
vt 0.102017 0.254075
vt 0.100904 0.304720
vt 0.102017 0.254075
vt 0.102017 0.254075
vt 0.102017 0.254075
vt 0.102017 0.327538
vt 0.102017 0.254075
vt 0.102017 0.254075
vt 0.102017 0.254075
vt 0.100904 0.304720
vt 0.102017 0.254075
vt 0.102017 0.254075
vt 0.102017 0.254075
vt 0.102017 0.327538
vt 0.102017 0.254075
vt 0.102017 0.254075
vt 0.102017 0.254075
vt 0.100904 0.304720
vt 0.102017 0.254075
vt 0.102017 0.254075
vt 0.102017 0.254075
vt 0.102017 0.327538
vt 0.102017 0.254075
vt 0.102017 0.254075
vt 0.102017 0.254075
vt 0.100904 0.304720
vt 0.102017 0.254075
vt 0.102017 0.254075
vt 0.102017 0.254075
vt 0.102017 0.254075
vt 0.102017 0.327538
vt 0.102017 0.254075
vt 0.102017 0.254075
vt 0.102017 0.254075
vt 0.102017 0.254075
vt 0.102017 0.254075
vt 0.102017 0.327538
vt 0.102017 0.254075
vt 0.102017 0.254075
vt 0.102017 0.254075
vt 0.102017 0.327538
vt 0.102017 0.254075
vt 0.102017 0.254075
vt 0.102017 0.254075
vt 0.102017 0.254075
vt 0.102017 0.254075
vt 0.102017 0.254075
vt 0.102017 0.254075
vt 0.102017 0.254075
vt 0.102017 0.327538
vt 0.102017 0.254075
vt 0.102017 0.254075
vt 0.102017 0.254075
vt 0.102017 0.254075
vt 0.102017 0.254075
vt 0.102017 0.254075
vt 0.102017 0.254075
vt 0.102017 0.254075
vt 0.102017 0.327538
vt 0.102017 0.254075
vt 0.102017 0.254075
vt 0.102017 0.254075
vt 0.102017 0.254075
vt 0.102017 0.254075
vt 0.102017 0.254075
vt 0.102017 0.254075
vt 0.102017 0.254075
vt 0.102017 0.254075
vt 0.102017 0.254075
vt 0.102017 0.254075
vt 0.102017 0.254075
vt 0.100904 0.304720
vt 0.102017 0.254075
vt 0.102017 0.254075
vt 0.102017 0.254075
vt 0.100904 0.304720
vt 0.102017 0.254075
vt 0.102017 0.254075
vt 0.102017 0.254075
vt 0.102017 0.254075
vt 0.100904 0.304720
vt 0.102017 0.254075
vt 0.102017 0.254075
vt 0.102017 0.254075
vt 0.102017 0.254075
vt 0.100904 0.304720
vt 0.102017 0.254075
vt 0.102017 0.254075
vt 0.102017 0.254075
vt 0.102017 0.254075
vt 0.102017 0.254075
vt 0.102017 0.254075
vt 0.102017 0.327538
vt 0.102017 0.254075
vt 0.102017 0.254075
vt 0.102017 0.254075
vt 0.102017 0.327538
vt 0.102017 0.254075
vt 0.102017 0.327538
vt 0.102017 0.254075
vt 0.102017 0.254075
vt 0.102017 0.254075
vt 0.102017 0.254075
vt 0.102017 0.254075
vt 0.100904 0.304720
vt 0.102017 0.254075
vt 0.102017 0.254075
vt 0.102017 0.254075
vt 0.100904 0.304720
vt 0.102017 0.254075
vt 0.100904 0.304720
vt 0.102017 0.254075
vt 0.102017 0.254075
vt 0.102017 0.254075
vt 0.102017 0.254075
vt 0.102017 0.327538
vt 0.102017 0.254075
vt 0.102017 0.254075
vt 0.102017 0.254075
vt 0.102017 0.327538
vt 0.102017 0.254075
vt 0.102017 0.327538
vt 0.102017 0.254075
vt 0.102017 0.254075
vt 0.102017 0.254075
vt 0.102017 0.254075
vt 0.102017 0.254075
vt 0.102017 0.254075
vt 0.100904 0.304720
vt 0.102017 0.254075
vt 0.100904 0.304720
vt 0.102017 0.254075
vt 0.100904 0.304720
vt 0.102017 0.254075
vt 0.102017 0.254075
vt 0.102017 0.327538
vt 0.102017 0.254075
vt 0.102017 0.254075
vt 0.102017 0.254075
vt 0.102017 0.327538
vt 0.102017 0.254075
vt 0.102017 0.327538
vt 0.102017 0.254075
vt 0.102017 0.254075
vt 0.102017 0.254075
vt 0.102017 0.254075
vt 0.102017 0.254075
vt 0.100904 0.304720
vt 0.102017 0.254075
vt 0.102017 0.254075
vt 0.102017 0.254075
vt 0.100904 0.304720
vt 0.102017 0.254075
vt 0.100904 0.304720
vt 0.102017 0.254075
vn 0.000000 1.000000 0.000000
vn 0.000000 1.000000 0.000000
vn 0.000000 1.000000 0.000000
vn 0.000000 1.000000 0.000000
vn 0.000000 1.000000 0.000000
vn 0.000000 1.000000 0.000000
vn 0.000000 1.000000 0.000000
vn 0.000000 1.000000 0.000000
vn 0.000000 1.000000 0.000000
vn 0.000000 1.000000 0.000000
vn 0.000000 1.000000 0.000000
vn 0.000000 1.000000 0.000000
vn 0.000000 1.000000 0.000000
vn 0.000000 1.000000 0.000000
vn 0.000000 1.000000 0.000000
vn 0.000000 1.000000 0.000000
vn 0.000000 1.000000 0.000000
vn 0.000000 1.000000 0.000000
vn 0.000000 1.000000 0.000000
vn 0.000000 1.000000 0.000000
vn 0.000000 1.000000 0.000000
vn 0.000000 1.000000 0.000000
vn 0.000000 1.000000 0.000000
vn 0.000000 1.000000 0.000000
vn 0.000000 1.000000 0.000000
vn 0.000000 1.000000 0.000000
vn 0.000000 1.000000 0.000000
vn 0.000000 1.000000 0.000000
vn 0.000000 1.000000 0.000000
vn 0.000000 1.000000 0.000000
vn 0.000000 1.000000 0.000000
vn 0.000000 1.000000 0.000000
vn 0.000000 1.000000 0.000000
vn 0.000000 1.000000 0.000000
vn -0.466382 0.884584 0.000000
vn -0.466382 0.884584 0.000000
vn -0.466382 0.884584 0.000000
vn -0.466382 0.884584 0.000000
vn 0.000000 0.688119 0.725598
vn 0.000000 0.688119 0.725598
vn 0.000000 0.688119 0.725598
vn 0.000000 0.688119 0.725598
vn 0.635390 0.772192 0.000000
vn 0.635390 0.772192 0.000000
vn 0.635390 0.772192 0.000000
vn 0.635390 0.772192 0.000000
vn 0.000000 0.797133 -0.603804
vn 0.000000 0.797133 -0.603804
vn 0.000000 0.797133 -0.603804
vn 0.000000 0.797133 -0.603804
vn -0.635389 0.772192 0.000000
vn -0.635389 0.772192 0.000000
vn -0.635389 0.772192 0.000000
vn -0.635389 0.772192 0.000000
vn 0.000000 0.688119 0.725598
vn 0.000000 0.688119 0.725598
vn 0.000000 0.688119 0.725598
vn 0.000000 0.688119 0.725598
vn 0.466383 0.884583 0.000000
vn 0.466383 0.884583 0.000000
vn 0.466383 0.884583 0.000000
vn 0.466383 0.884583 0.000000
vn 0.000000 0.797133 -0.603804
vn 0.000000 0.797133 -0.603804
vn 0.000000 0.797133 -0.603804
vn 0.000000 0.797133 -0.603804
vn 0.000000 0.884584 -0.466382
vn 0.000000 0.884584 -0.466382
vn 0.000000 0.884584 -0.466382
vn 0.000000 0.884584 -0.466382
vn -0.725597 0.688120 0.000000
vn -0.725597 0.688120 0.000000
vn -0.725597 0.688120 0.000000
vn -0.725597 0.688120 0.000000
vn 0.000000 0.858887 0.512165
vn 0.000000 0.858887 0.512165
vn 0.000000 0.858887 0.512165
vn 0.000000 0.858887 0.512165
vn 0.725597 0.688120 0.000000
vn 0.725597 0.688120 0.000000
vn 0.725597 0.688120 0.000000
vn 0.725597 0.688120 0.000000
vn 0.000000 0.884584 -0.466382
vn 0.000000 0.884584 -0.466382
vn 0.000000 0.884584 -0.466382
vn 0.000000 0.884584 -0.466382
vn -0.725599 0.688118 0.000000
vn -0.725599 0.688118 0.000000
vn -0.725599 0.688118 0.000000
vn -0.725599 0.688118 0.000000
vn 0.000000 0.858887 0.512165
vn 0.000000 0.858887 0.512165
vn 0.000000 0.858887 0.512165
vn 0.000000 0.858887 0.512165
vn 0.725599 0.688118 0.000000
vn 0.725599 0.688118 0.000000
vn 0.725599 0.688118 0.000000
vn 0.725599 0.688118 0.000000
vn 0.000000 0.884584 -0.466382
vn 0.000000 0.884584 -0.466382
vn 0.000000 0.884584 -0.466382
vn 0.000000 0.884584 -0.466382
vn -0.725598 0.688119 0.000000
vn -0.725598 0.688119 0.000000
vn -0.725598 0.688119 0.000000
vn -0.725598 0.688119 0.000000
vn 0.000000 0.858887 0.512165
vn 0.000000 0.858887 0.512165
vn 0.000000 0.858887 0.512165
vn 0.000000 0.858887 0.512165
vn 0.725599 0.688118 0.000000
vn 0.725599 0.688118 0.000000
vn 0.725599 0.688118 0.000000
vn 0.725599 0.688118 0.000000
vn 0.000000 0.884584 -0.466382
vn 0.000000 0.884584 -0.466382
vn 0.000000 0.884584 -0.466382
vn 0.000000 0.884584 -0.466382
vn -0.725598 0.688119 0.000000
vn -0.725598 0.688119 0.000000
vn -0.725598 0.688119 0.000000
vn -0.725598 0.688119 0.000000
vn 0.000000 0.858887 0.512165
vn 0.000000 0.858887 0.512165
vn 0.000000 0.858887 0.512165
vn 0.000000 0.858887 0.512165
vn 0.725598 0.688119 0.000000
vn 0.725598 0.688119 0.000000
vn 0.725598 0.688119 0.000000
vn 0.725598 0.688119 0.000000
vn 0.000000 0.787784 -0.615951
vn 0.000000 0.787784 -0.615951
vn 0.000000 0.787784 -0.615951
vn 0.000000 0.787784 -0.615951
vn -0.635391 0.772191 0.000000
vn -0.635391 0.772191 0.000000
vn -0.635391 0.772191 0.000000
vn -0.635391 0.772191 0.000000
vn 0.000000 0.797082 0.603871
vn 0.000000 0.797082 0.603871
vn 0.000000 0.797082 0.603871
vn 0.000000 0.797082 0.603871
vn 0.466383 0.884583 0.000000
vn 0.466383 0.884583 0.000000
vn 0.466383 0.884583 0.000000
vn 0.466383 0.884583 0.000000
vn 0.000000 0.787785 -0.615951
vn 0.000000 0.787785 -0.615951
vn 0.000000 0.787785 -0.615951
vn 0.000000 0.787785 -0.615951
vn 0.000000 0.787785 -0.615951
vn 0.000000 0.787785 -0.615951
vn 0.000000 0.787785 -0.615951
vn 0.000000 0.787785 -0.615951
vn -0.466382 0.884584 0.000000
vn -0.466382 0.884584 0.000000
vn -0.466382 0.884584 0.000000
vn -0.466382 0.884584 0.000000
vn 0.000000 0.797082 0.603871
vn 0.000000 0.797082 0.603871
vn 0.000000 0.797082 0.603871
vn 0.000000 0.797082 0.603871
vn 0.635389 0.772192 0.000000
vn 0.635389 0.772192 0.000000
vn 0.635389 0.772192 0.000000
vn 0.635389 0.772192 0.000000
vn 0.000000 0.787784 -0.615951
vn 0.000000 0.787784 -0.615951
vn 0.000000 0.787784 -0.615951
vn 0.000000 0.787784 -0.615951
s off
f 17/17/1 18/169/2 19/167/3 20/163/4
f 21/21/5 22/157/6 23/155/7 24/151/8
f 25/25/9 26/148/10 27/146/11 28/144/12
f 29/29/13 30/137/14 31/135/15 32/131/16
f 33/33/17 34/126/18 35/124/19 36/120/20
f 37/37/21 38/114/22 39/112/23 40/108/24
f 41/41/25 42/101/26 43/96/27 44/91/28 45/87/29
f 46/46/30 47/74/31 48/65/32 49/56/33 50/52/34
f 16/77/35 4/4/36 18/168/37 17/164/38
f 18/18/39 4/170/40 5/5/41 19/166/42
f 5/159/43 15/70/44 20/162/45 19/19/46
f 17/165/47 20/20/48 15/71/49 16/76/50
f 15/69/51 5/160/52 22/156/53 21/152/54
f 22/22/55 5/161/56 3/3/57 23/154/58
f 3/158/59 14/14/60 24/150/61 23/23/62
f 21/153/63 24/24/64 14/97/65 15/68/66
f 1/149/67 8/8/68 26/147/69 25/141/70
f 8/138/71 10/104/72 27/145/73 26/26/74
f 10/105/75 9/93/76 28/143/77 27/27/78
f 9/94/79 1/1/80 25/142/81 28/28/82
f 8/140/83 6/6/84 30/136/85 29/132/86
f 6/127/87 11/59/88 31/134/89 30/30/90
f 11/60/91 10/102/92 32/130/93 31/31/94
f 10/103/95 8/139/96 29/133/97 32/32/98
f 6/129/99 7/7/100 34/125/101 33/121/102
f 7/116/103 12/83/104 35/123/105 34/34/106
f 12/84/107 11/57/108 36/119/109 35/35/110
f 11/58/111 6/128/112 33/122/113 36/36/114
f 7/118/115 2/2/116 38/113/117 37/109/118
f 2/115/119 13/13/120 39/111/121 38/38/122
f 13/78/123 12/81/124 40/107/125 39/39/126
f 12/82/127 7/117/128 37/110/129 40/40/130
f 10/10/131 11/61/132 42/100/133 41/88/134
f 11/62/135 15/66/136 43/95/137 42/42/138
f 43/43/139 15/67/140 14/98/141 44/90/142
f 14/99/143 9/9/144 45/86/145 44/44/146
f 9/92/147 10/106/148 41/89/149 45/45/150
f 12/12/151 13/79/152 47/73/153 46/53/154
f 13/80/155 16/16/156 48/64/157 47/47/158
f 48/48/159 16/75/160 15/72/161 49/55/162
f 15/15/163 11/63/164 50/51/165 49/49/166
f 11/11/167 12/85/168 46/54/169 50/50/170
