# This file uses meters as units for non-parametric coordinates.

v 500.000671 282.438324 0.000000
v 500.000671 220.104324 0.000000
v 500.000671 195.463470 0.000000
v 500.000671 94.365150 0.000000
v 500.000671 16.454935 0.000000
v 500.000671 0.000000 10.326767
v 500.000671 12.413359 10.326767
v 500.000671 31.563223 0.000000
v 500.000671 268.726288 0.000000
v 500.000671 198.010483 2.542305
v 500.000671 217.532425 2.542305
v 500.000671 287.982941 26.486013
v 500.000671 293.868256 26.486013
v 0.000668 282.438324 0.000000
v 0.000668 220.104324 0.000000
v 0.000668 195.463470 0.000000
v 0.000668 94.365150 0.000000
v 0.000668 16.454935 0.000000
v 0.000668 0.000000 10.326767
v 0.000668 12.413359 10.326767
v 15.673637 139.448837 0.000000
v 116.390228 139.448837 0.000000
v 116.390228 191.318146 0.000000
v 15.673637 191.318146 0.000000
v 0.000668 31.563223 0.000000
v 47.713184 43.858742 0.000000
v 60.289192 16.454935 0.000000
v 250.614456 31.563210 0.000000
v 255.433563 16.454935 0.000000
v 420.074371 41.056335 0.000000
v 396.435638 16.454935 0.000000
v 95.442200 29.846918 0.000000
v 109.469414 16.454935 0.000000
v 369.979095 30.820810 0.000000
v 333.036316 16.454935 0.000000
v 233.026993 38.609161 0.000000
v 191.945938 16.454935 0.000000
v 254.422180 12.413359 10.326767
v 255.138199 0.000000 10.326767
v 91.894440 94.365173 0.000000
v 126.032448 94.365173 0.000000
v 115.305046 86.661018 0.000000
v 348.691467 94.365128 0.000000
v 430.535614 94.365128 0.000000
v 414.719299 89.025398 0.000000
v 363.226990 89.836105 0.000000
v 116.258621 195.463470 0.000000
v 116.198250 216.359680 0.000000
v 264.850311 220.104324 0.000000
v 345.040222 197.842911 0.000000
v 0.000668 268.726288 0.000000
v 23.721600 259.095703 0.000000
v 473.180481 268.230438 0.000000
v 124.692154 282.438324 0.000000
v 126.334663 268.593933 0.000000
v 359.855957 282.438324 0.000000
v 361.788483 254.453949 0.000000
v 0.000668 198.010483 2.542305
v 116.258621 198.010483 2.542305
v 116.198250 213.787796 2.542305
v 0.000668 217.532425 2.542305
v 264.850311 217.532425 2.542305
v 345.040222 200.389938 2.542305
v 0.000668 223.712112 0.000000
v 500.000671 223.712112 0.000000
v 98.721985 227.754730 0.000000
v 291.977386 230.969940 0.000000
v 123.717407 222.921982 0.000000
v 261.969666 224.727509 0.000000
v 350.311005 194.323273 0.000000
v 500.000671 185.694931 0.000000
v 0.000668 185.694931 0.000000
v 157.095154 185.705566 0.000000
v 226.011002 194.446289 0.000000
v 226.390839 196.608902 0.000000
v 225.476944 199.146423 2.542305
v 0.000668 287.982941 26.486013
v 124.692154 287.982941 26.486013
v 359.855957 287.982941 26.486013
v 0.000668 293.868256 26.486013
v 124.692154 293.868256 26.486013
v 359.855957 293.868256 26.486013
vt 0.269914 0.279945
vt 0.269914 0.279945
vt 0.269914 0.279945
vt 0.269914 0.279945
vt 0.047658 0.212328
vt 0.047658 0.212328
vt 0.047658 0.212328
vt 0.047658 0.212328
vt 0.270545 0.330720
vt 0.270545 0.330720
vt 0.270545 0.330720
vt 0.270545 0.330720
vt 0.047658 0.212328
vt 0.047658 0.212328
vt 0.047658 0.212328
vt 0.235116 0.278394
vt 0.235116 0.278394
vt 0.235116 0.278394
vt 0.235116 0.278394
vt 0.235116 0.278394
vt 0.235116 0.278394
vt 0.269914 0.324444
vt 0.269914 0.324444
vt 0.269914 0.324444
vt 0.269914 0.324444
vt 0.269914 0.324444
vt 0.269914 0.324444
vt 0.269914 0.324444
vt 0.269914 0.324444
vt 0.269093 0.278980
vt 0.269093 0.278980
vt 0.269093 0.278980
vt 0.269093 0.278980
vt 0.269093 0.278980
vt 0.269093 0.278980
vt 0.269093 0.278980
vt 0.269093 0.278980
vt 0.269914 0.324444
vt 0.269914 0.324444
vt 0.049582 0.204216
vt 0.049582 0.204216
vt 0.049582 0.204216
vt 0.049582 0.204216
vt 0.049582 0.204216
vt 0.049582 0.204216
vt 0.049582 0.204216
vt 0.049582 0.204216
vt 0.049582 0.204216
vt 0.049582 0.204216
vt 0.049582 0.204216
vt 0.049582 0.204216
vt 0.049582 0.204216
vt 0.049582 0.204216
vt 0.049582 0.204216
vt 0.049582 0.204216
vt 0.049582 0.204216
vt 0.049582 0.204216
vt 0.049582 0.204216
vt 0.049582 0.204216
vt 0.049582 0.204216
vt 0.049582 0.204216
vt 0.049582 0.204216
vt 0.049582 0.204216
vt 0.049582 0.204216
vt 0.049582 0.204216
vt 0.235116 0.278394
vt 0.235116 0.278394
vt 0.235116 0.278394
vt 0.235116 0.278394
vt 0.235116 0.278394
vt 0.235116 0.278394
vt 0.235116 0.278394
vt 0.235116 0.278394
vt 0.047658 0.212328
vt 0.047658 0.212328
vt 0.047658 0.212328
vt 0.047658 0.212328
vt 0.047658 0.212328
vt 0.047658 0.212328
vt 0.047658 0.212328
vt 0.047658 0.212328
vt 0.047658 0.212328
vt 0.047658 0.212328
vt 0.047658 0.212328
vt 0.047658 0.212328
vt 0.047658 0.212328
vt 0.047658 0.212328
vt 0.269093 0.325597
vt 0.269093 0.325597
vt 0.269093 0.325597
vt 0.269093 0.325597
vt 0.269093 0.325597
vt 0.269093 0.325597
vt 0.269093 0.325597
vt 0.047658 0.212328
vt 0.047658 0.212328
vt 0.047658 0.212328
vt 0.047658 0.212328
vt 0.270152 0.276861
vt 0.270152 0.276861
vt 0.270152 0.276861
vt 0.270152 0.276861
vt 0.270152 0.276861
vt 0.047658 0.212328
vt 0.269093 0.278980
vt 0.269093 0.278980
vt 0.269093 0.278980
vt 0.270152 0.276861
vt 0.270152 0.276861
vt 0.270152 0.276861
vt 0.269914 0.324444
vt 0.269914 0.324444
vt 0.269914 0.324444
vt 0.269914 0.324444
vt 0.269914 0.279945
vt 0.269914 0.279945
vt 0.269914 0.279945
vt 0.270152 0.276861
vt 0.270152 0.276861
vt 0.047658 0.212328
vt 0.047658 0.212328
vt 0.047658 0.212328
vt 0.047658 0.212328
vt 0.047658 0.212328
vt 0.047658 0.212328
vt 0.047658 0.212328
vt 0.047658 0.212328
vt 0.047658 0.212328
vt 0.269914 0.324444
vt 0.269914 0.324444
vt 0.269914 0.279945
vt 0.269914 0.279945
vt 0.269914 0.279945
vt 0.269914 0.279945
vt 0.269914 0.324444
vt 0.269914 0.324444
vt 0.269914 0.324444
vt 0.269914 0.324444
vt 0.269914 0.279945
vt 0.269914 0.279945
vt 0.269914 0.279945
vt 0.269914 0.279945
vt 0.269914 0.324444
vt 0.269914 0.324444
vt 0.269914 0.279945
vt 0.269914 0.279945
vt 0.269914 0.279945
vt 0.269914 0.324444
vt 0.269914 0.324444
vt 0.269914 0.324444
vt 0.269914 0.324444
vt 0.271212 0.278980
vt 0.271212 0.278980
vt 0.271212 0.278980
vt 0.233498 0.303179
vt 0.233498 0.303179
vt 0.233498 0.303179
vt 0.233498 0.303179
vt 0.233498 0.303179
vt 0.233498 0.303179
vt 0.233498 0.303179
vt 0.233498 0.303179
vt 0.233498 0.303179
vt 0.233498 0.303179
vt 0.233498 0.303179
vt 0.233498 0.303179
vn 0.000000 0.000000 1.000000
vn 0.000000 0.000000 1.000000
vn 0.000000 0.000000 1.000000
vn 0.000000 0.000000 1.000000
vn 0.000000 0.000000 1.000000
vn 0.000000 0.000000 1.000000
vn 0.000000 0.000000 1.000000
vn 0.000000 0.000000 1.000000
vn 0.000000 0.000000 1.000000
vn 0.000000 0.000000 1.000000
vn 0.000000 0.000000 1.000000
vn 0.000000 0.000000 1.000000
vn 0.000000 0.000000 1.000000
vn 0.000000 0.000000 1.000000
vn 0.000000 0.000000 1.000000
vn 0.000000 0.000000 1.000000
vn 0.000000 0.000000 1.000000
vn 0.000000 0.000000 1.000000
vn 0.000000 0.000000 1.000000
vn 0.000000 0.931222 0.364451
vn 0.000000 0.931222 0.364451
vn 0.000000 0.931223 0.364451
vn 0.000000 0.000000 1.000000
vn 0.000000 0.000000 1.000000
vn 0.000000 0.000000 1.000000
vn 0.000000 0.000000 1.000000
vn 0.000000 0.000000 1.000000
vn 0.000000 0.000000 1.000000
vn 0.000000 0.000000 1.000000
vn 0.000000 0.000000 1.000000
vn 0.000000 0.000000 1.000000
vn 0.000000 0.000000 1.000000
vn 0.000000 0.000000 1.000000
vn 0.000000 0.000000 1.000000
vn 0.000000 0.000000 1.000000
vn 0.000000 0.000000 1.000000
vn 0.000000 0.000000 1.000000
vn 0.000000 0.000000 1.000000
vn 0.000000 0.000000 1.000000
vn 0.000000 0.000000 1.000000
vn 0.000000 0.000000 1.000000
vn 0.000000 0.000000 1.000000
vn 0.000000 0.000000 1.000000
vn 0.000000 0.000000 1.000000
vn 0.000000 0.000000 1.000000
vn 0.000000 0.000000 1.000000
vn 0.000000 0.000000 1.000000
vn 0.000000 0.000000 1.000000
vn 0.000000 0.000000 1.000000
vn 0.000000 0.000000 1.000000
vn 0.000000 0.000000 1.000000
vn 0.000000 0.000000 1.000000
vn 0.000000 0.000000 1.000000
vn 0.000000 0.000000 1.000000
vn 0.000000 0.000000 1.000000
vn 0.000000 0.000000 1.000000
vn 0.000000 0.000000 1.000000
vn 0.000000 0.000000 1.000000
vn 0.000000 0.000000 1.000000
vn 0.000000 0.000000 1.000000
vn 0.000000 0.000000 1.000000
vn 0.000000 0.000000 1.000000
vn 0.000000 0.000000 1.000000
vn 0.000000 0.000000 1.000000
vn 0.000000 0.000000 1.000000
vn 0.000000 0.000000 1.000000
vn 0.000000 0.000000 1.000000
vn 0.000000 0.000000 1.000000
vn 0.000000 0.000000 1.000000
vn 0.000000 0.000000 1.000000
vn 0.000000 0.931223 0.364451
vn 0.000000 0.931222 0.364451
vn 0.000000 0.931223 0.364451
vn 0.000000 0.000000 1.000000
vn 0.000000 0.000000 1.000000
vn 0.000000 0.000000 1.000000
vn 0.000000 0.000000 1.000000
vn 0.000000 0.931222 0.364452
vn 0.000000 0.931222 0.364452
vn 0.000000 0.931222 0.364451
vn 0.000000 0.931222 0.364452
vn 0.000000 0.931222 0.364452
vn 0.000000 0.931222 0.364452
vn 0.000000 0.931222 0.364452
vn 0.000000 0.931222 0.364452
vn 0.000000 0.931222 0.364452
vn 0.000000 0.931222 0.364452
vn 0.000000 0.931222 0.364452
vn 0.000000 0.931222 0.364452
vn 0.000000 0.931222 0.364452
vn 0.000000 0.931222 0.364452
vn 0.000000 0.931222 0.364451
vn 0.000000 0.931222 0.364451
vn 0.000000 0.931222 0.364451
vn 0.000000 0.000000 1.000000
vn 0.000000 0.000000 1.000000
vn 0.000000 0.000000 1.000000
vn 0.000000 0.000000 1.000000
vn 0.000000 0.000000 1.000000
vn 0.000000 0.000000 1.000000
vn 0.000000 0.000000 1.000000
vn 0.000000 0.000000 1.000000
vn 0.000000 0.000000 1.000000
vn 0.000000 0.000000 1.000000
vn 0.000000 0.000000 1.000000
vn 0.000000 0.000000 1.000000
vn 0.000000 0.000000 1.000000
vn 0.000000 0.000000 1.000000
vn 0.000000 0.000000 1.000000
vn 0.000000 0.000000 1.000000
vn 0.000000 0.000000 1.000000
vn 0.000000 0.000000 1.000000
vn 0.000000 0.000000 1.000000
vn 0.000000 0.000000 1.000000
vn 0.000000 0.000000 1.000000
vn 0.000000 0.000000 1.000000
vn 0.000000 0.000000 1.000000
vn 0.000000 0.000000 1.000000
vn 0.000000 0.000000 1.000000
vn 0.000000 0.000000 1.000000
vn 0.000000 0.000000 1.000000
vn 0.000000 0.000000 1.000000
vn 0.000000 0.000000 1.000000
vn 0.000000 0.000000 1.000000
vn 0.000000 0.000000 1.000000
vn 0.000000 0.000000 1.000000
vn 0.000000 0.000000 1.000000
vn 0.000000 0.000000 1.000000
vn 0.000000 0.000000 1.000000
vn 0.000000 0.000000 1.000000
vn 0.000000 0.000000 1.000000
vn 0.000000 0.000000 1.000000
vn 0.000000 0.000000 1.000000
vn 0.000000 0.000000 1.000000
vn -0.000000 0.000000 1.000000
vn -0.000000 0.000000 1.000000
vn -0.000000 0.000000 1.000000
vn -0.000000 0.000000 1.000000
vn -0.000000 0.000000 1.000000
vn 0.000000 0.000000 1.000000
vn 0.000000 0.000000 1.000000
vn 0.000000 0.000000 1.000000
vn 0.000000 0.000000 1.000000
vn 0.000000 0.000000 1.000000
vn 0.000000 0.000000 1.000000
vn 0.000000 0.000000 1.000000
vn 0.000000 0.000000 1.000000
vn 0.000000 0.000000 1.000000
vn 0.000000 0.000000 1.000000
vn 0.000000 0.000000 1.000000
vn 0.000000 0.000000 1.000000
vn 0.000000 0.000000 1.000000
vn 0.000000 0.000000 1.000000
vn 0.000000 0.000000 1.000000
vn 0.000000 0.000000 1.000000
vn 0.000000 0.000000 1.000000
vn 0.000000 0.000000 1.000000
vn 0.000000 0.000000 1.000000
vn 0.000000 0.000000 1.000000
vn 0.000000 0.000000 1.000000
vn 0.000000 0.000000 1.000000
vn 0.000000 0.000000 1.000000
vn 0.000000 0.000000 1.000000
vn 0.000000 0.000000 1.000000
vn 0.000000 -0.706451 0.707762
vn 0.000000 -0.706451 0.707762
vn 0.000000 -0.706451 0.707762
vn 0.000000 -0.706451 0.707762
vn 0.022650 0.702824 0.711003
vn 0.022650 0.702824 0.711003
vn 0.022650 0.702824 0.711003
vn 0.022650 0.702824 0.711003
vn -0.010847 -0.706411 0.707718
vn -0.010847 -0.706411 0.707718
vn -0.010847 -0.706411 0.707718
vn -0.010847 -0.706411 0.707718
vn 0.000000 0.703004 0.711186
vn 0.000000 0.703004 0.711186
vn 0.000000 0.703004 0.711186
vn 0.000000 0.703004 0.711186
vn 0.007347 -0.706432 0.707743
vn 0.007347 -0.706431 0.707743
vn 0.007347 -0.706431 0.707743
vn 0.007347 -0.706432 0.707743
vn -0.017706 0.702896 0.711072
vn -0.017706 0.702896 0.711072
vn -0.017706 0.702896 0.711072
vn -0.017706 0.702896 0.711072
vn 0.000000 0.000000 1.000000
vn 0.000000 0.000000 1.000000
vn 0.000000 0.000000 1.000000
vn 0.000000 0.000000 1.000000
vn 0.000000 0.000000 1.000000
vn 0.000000 0.000000 1.000000
vn 0.000000 0.000000 1.000000
vn 0.000000 0.000000 1.000000
vn 0.000000 0.000000 1.000000
vn 0.000000 0.000000 1.000000
vn 0.000000 0.000000 1.000000
vn 0.000000 0.000000 1.000000
vn 0.000000 0.000000 1.000000
vn 0.000000 0.000000 1.000000
vn 0.000000 0.000000 1.000000
vn 0.000000 0.000000 1.000000
vn 0.000000 0.000000 1.000000
vn 0.000000 0.000000 1.000000
vn 0.000000 0.000000 1.000000
vn 0.000000 0.000000 1.000000
vn 0.000000 0.000000 1.000000
vn 0.000000 0.000000 1.000000
vn 0.000000 0.000000 1.000000
vn 0.000000 0.000000 1.000000
vn 0.000000 0.000000 1.000000
vn 0.000000 0.000000 1.000000
vn 0.000000 0.000000 1.000000
vn 0.000000 0.000000 1.000000
vn 0.000000 0.000000 1.000000
vn 0.000000 0.000000 1.000000
vn 0.000000 0.000000 1.000000
vn 0.000000 0.000000 1.000000
vn 0.000000 0.000000 1.000000
vn 0.000000 0.000000 1.000000
vn 0.000000 0.000000 1.000000
vn 0.000000 0.000000 1.000000
vn 0.000000 0.000000 1.000000
vn 0.000000 0.000000 1.000000
vn 0.000000 0.000000 1.000000
vn 0.000000 0.000000 1.000000
vn 0.000000 0.000000 1.000000
vn 0.000000 0.000000 1.000000
vn 0.000000 0.000000 1.000000
vn 0.000000 0.000000 1.000000
vn 0.000000 0.000000 1.000000
vn 0.000000 0.000000 1.000000
vn 0.000000 0.000000 1.000000
vn 0.007347 -0.706431 0.707743
vn 0.007347 -0.706431 0.707743
vn 0.007347 -0.706431 0.707744
vn 0.007347 -0.706431 0.707744
vn 0.000000 -0.978783 0.204900
vn 0.000000 -0.978783 0.204900
vn 0.000000 -0.978783 0.204900
vn 0.000000 -0.978783 0.204900
vn 0.000000 -0.978783 0.204899
vn 0.000000 -0.978783 0.204899
vn 0.000000 -0.978783 0.204899
vn 0.000000 -0.978783 0.204899
vn 0.000000 -0.978783 0.204899
vn 0.000000 -0.978783 0.204899
vn 0.000000 -0.978783 0.204899
vn 0.000000 -0.978783 0.204899
vn 0.000000 0.000000 1.000000
vn 0.000000 0.000000 1.000000
vn 0.000000 0.000000 1.000000
vn 0.000000 0.000000 1.000000
vn 0.000000 0.000000 1.000000
vn 0.000000 0.000000 1.000000
vn 0.000000 0.000000 1.000000
vn 0.000000 0.000000 1.000000
vn 0.000000 0.000000 1.000000
vn 0.000000 0.000000 1.000000
vn 0.000000 0.000000 1.000000
vn 0.000000 0.000000 1.000000
s off
f 15/1/1 48/2/2 66/3/3 64/4/4
f 58/5/5 59/6/6 60/7/7 61/8/8
f 21/9/9 22/10/10 23/11/11 24/12/12
f 25/13/13 26/14/14 17/15/15
f 38/16/16 39/17/17 6/18/18 7/19/19
f 5/20/20 31/21/21 7/19/22
f 17/22/23 40/23/24 41/24/25 43/25/26 44/26/27 4/27/28 22/28/29 21/29/30
f 50/30/31 70/31/32 71/32/33 3/33/34
f 23/34/35 47/35/36 16/36/37 24/37/38
f 24/38/39 72/39/40 17/22/41 21/29/42
f 30/40/43 31/41/44 5/42/45 8/43/46
f 18/44/47 27/45/48 26/46/49 25/47/50
f 36/48/51 37/49/52 29/50/53 28/51/54
f 34/52/55 35/53/56 31/54/57 30/55/58
f 26/56/59 27/57/60 33/58/61 32/59/62
f 28/60/63 29/61/64 35/62/65 34/63/66
f 32/64/67 33/65/68 37/49/69 36/48/70
f 38/16/71 29/66/72 37/67/73
f 19/68/74 39/17/75 38/16/76 20/69/77
f 38/16/78 35/70/79 29/66/80
f 7/19/81 31/21/82 35/70/83 38/16/84
f 38/16/85 37/67/86 33/71/87 20/69/88
f 20/69/89 27/72/90 18/73/91
f 20/69/92 33/71/93 27/72/94
f 30/74/95 36/75/96 28/76/97 34/77/98
f 36/75/99 26/14/100 32/78/101
f 4/79/102 36/75/103 30/74/104 8/80/105
f 17/15/106 26/14/107 36/75/108 4/79/109 44/81/110 45/82/111 46/83/112 43/84/113 41/85/114 42/86/115 40/87/116
f 40/88/117 42/89/118 41/90/119
f 43/91/120 46/92/121 45/93/122 44/94/123
f 62/95/124 63/96/125 10/97/126 11/98/127
f 1/99/128 53/100/129 9/101/130
f 56/102/131 57/103/132 53/100/133 1/99/134
f 60/7/135 59/6/136 76/104/137 63/96/138 62/95/139
f 23/34/140 74/105/141 75/106/142 47/35/143
f 23/34/144 73/107/145 74/105/146
f 51/108/147 52/109/148 14/110/149
f 9/111/150 53/112/151 67/113/152 65/114/153
f 48/115/154 68/116/155 66/117/156
f 14/110/157 52/109/158 55/118/159 54/119/160
f 54/119/161 55/118/162 57/103/163 56/102/164
f 16/120/165 47/121/166 59/6/167 58/5/168
f 48/122/169 15/123/170 61/8/171 60/7/172
f 50/124/173 3/125/174 10/97/175 63/96/176
f 2/126/177 49/127/178 62/95/179 11/98/180
f 47/121/181 75/128/182 76/104/183 59/6/184
f 49/127/185 48/122/186 60/7/187 62/95/188
f 53/112/189 57/129/190 69/130/191 67/113/192
f 49/131/193 69/132/194 68/133/195 48/134/196
f 64/135/197 66/136/198 52/137/199 51/138/200
f 65/139/201 67/140/202 49/141/203 2/142/204
f 66/136/205 68/143/206 55/144/207 52/137/208
f 67/145/209 69/146/210 49/147/211
f 68/143/212 69/130/213 57/129/214 55/144/215
f 23/148/216 22/28/217 73/149/218
f 71/150/219 70/151/220 4/27/221
f 16/152/222 72/153/223 24/154/224
f 73/149/225 22/28/226 4/27/227 70/151/228
f 74/105/229 73/107/230 70/31/231 50/30/232
f 75/106/233 74/105/234 50/30/235
f 76/104/236 75/128/237 50/124/238 63/96/239
f 14/155/240 54/156/241 78/157/242 77/158/243
f 54/156/244 56/159/245 79/160/246 78/157/247
f 56/159/248 1/161/249 12/162/250 79/160/251
f 77/158/252 78/157/253 81/163/254 80/164/255
f 78/157/256 79/160/257 82/165/258 81/163/259
f 79/160/260 12/162/261 13/166/262 82/165/263
