# This file uses meters as units for non-parametric coordinates.

v 0.000000 0.000000 0.000000
v 500.001129 -0.000001 0.000000
v 0.000000 0.000000 0.000000
v 0.000000 -0.000001 -500.001526
v 281.590271 6.969654 0.000000
v 0.000000 6.969654 -281.590271
v 313.026428 6.969654 0.000000
v 0.000000 6.969654 -313.026428
v 271.430206 6.184101 0.000000
v 0.000000 6.184101 -271.430206
v 318.098450 -0.000001 0.000000
v 0.000000 -0.000001 -318.098450
v 0.000000 0.000001 -265.474701
v 265.474701 0.000001 0.000000
v 361.097717 -0.000001 0.000000
v 0.000000 -0.000001 -361.097717
v 0.000000 0.000000 0.000000
v 159.003830 0.000001 -232.030487
v 164.724350 6.184103 -243.166351
v 181.598663 6.969655 -259.922760
v 198.801804 6.969655 -272.226715
v 208.329391 -0.000001 -286.354797
v 209.930801 -0.000001 -355.559540
v 210.926056 3.420927 -364.554596
v 213.602448 -0.000001 -500.000000
v 200.662613 -0.000001 -287.073517
v 201.004028 1.080330 -355.510712
v 203.215790 -0.000001 -365.534973
v 205.792999 -0.000001 -500.000000
v 500.001129 -0.000001 -4.299927
v 367.646393 -0.000001 -8.129883
v 358.347687 -0.000001 -9.204865
v 320.349121 1.919349 -5.368042
v 315.215698 6.969655 -7.026672
v 283.779907 6.969655 -7.026672
v 273.619843 6.184103 -7.026672
v 267.664337 0.000001 -7.025909
v 3.359222 -0.000001 -500.001526
v 3.359222 2.436664 -363.769531
v 3.359222 -0.000001 -358.427429
v 5.513763 -0.000001 -318.098450
v 8.164978 6.969655 -314.126587
v 5.915451 6.969655 -281.590271
v 5.915451 6.184103 -271.430206
v 5.915451 0.000001 -265.474701
v 0.000000 0.000000 0.000000
v 229.344177 0.000001 -156.717682
v 239.657974 6.184103 -164.904022
v 252.767181 6.969655 -173.152161
v 270.898804 6.969655 -185.355377
v 282.195679 0.959674 -184.812927
v 357.664093 -0.000001 -351.409912
v 366.400146 1.710463 -362.465668
v 500.000000 0.000000 -500.000000
v 250.000000 0.000001 0.000000
v 500.000763 -0.000000 -183.811951
v 367.026520 0.850970 -184.415436
v 357.997528 -0.000001 -184.483337
v 283.922211 1.003102 -176.692963
v 358.016205 -0.000001 -175.193024
v 367.059692 0.805471 -174.990082
v 500.000763 -0.000000 -172.277832
vt 0.064095 0.209474
vt 0.102180 0.270814
vt 0.101972 0.250723
vt 0.102180 0.270814
vt 0.100542 0.278062
vt 0.101972 0.250723
vt 0.101973 0.250723
vt 0.100542 0.278062
vt 0.101973 0.250723
vt 0.101973 0.250723
vt 0.102180 0.270814
vt 0.102180 0.270814
vt 0.101973 0.250723
vt 0.101973 0.250723
vt 0.100542 0.278062
vt 0.100542 0.278062
vt 0.101973 0.250723
vt 0.101973 0.250723
vt 0.101973 0.250723
vt 0.101972 0.250723
vt 0.064095 0.209474
vt 0.102180 0.270814
vt 0.102180 0.270814
vt 0.102180 0.270814
vt 0.102180 0.270814
vt 0.101658 0.278970
vt 0.100542 0.278062
vt 0.101658 0.278970
vt 0.101973 0.273202
vt 0.101658 0.278970
vt 0.102180 0.270814
vt 0.102180 0.270814
vt 0.102180 0.270814
vt 0.101793 0.299061
vt 0.064095 0.209474
vt 0.101658 0.278970
vt 0.101973 0.273202
vt 0.102180 0.270814
vt 0.102180 0.270814
vt 0.102180 0.270814
vt 0.102180 0.270814
vt 0.102180 0.270814
vt 0.102180 0.270814
vt 0.101793 0.299061
vt 0.101658 0.278970
vt 0.101793 0.299061
vt 0.101658 0.278970
vt 0.101658 0.278970
vt 0.100542 0.278062
vt 0.101658 0.278970
vt 0.101658 0.278970
vt 0.100754 0.254209
vt 0.101658 0.278970
vt 0.064095 0.209474
vt 0.101793 0.299061
vt 0.102180 0.270814
vt 0.102180 0.270814
vt 0.101973 0.250723
vt 0.102180 0.270814
vt 0.101973 0.250723
vt 0.101973 0.250723
vt 0.100754 0.254209
vt 0.101973 0.250723
vt 0.101972 0.250723
vt 0.100754 0.254209
vt 0.064095 0.209474
vt 0.101972 0.250723
vt 0.101658 0.278970
vt 0.100754 0.254209
vt 0.101658 0.278970
vt 0.101658 0.278970
vt 0.064095 0.209474
vt 0.101658 0.278970
vt 0.101658 0.278970
vt 0.101793 0.299061
vt 0.101658 0.278970
vt 0.102180 0.270814
vt 0.102180 0.270814
vt 0.101793 0.299061
vt 0.102180 0.270814
vt 0.101793 0.299061
vt 0.102180 0.270814
vt 0.102180 0.270814
vt 0.102180 0.270814
vt 0.102180 0.270814
vt 0.101793 0.299061
vt 0.101972 0.250723
vt 0.064095 0.209474
vt 0.102180 0.270814
vt 0.101972 0.250723
vt 0.101973 0.250723
vt 0.102180 0.270814
vt 0.101973 0.250723
vt 0.101973 0.250723
vt 0.102180 0.270814
vt 0.101973 0.250723
vt 0.102180 0.270814
vt 0.102180 0.270814
vt 0.102180 0.270814
vt 0.101793 0.299061
vt 0.102180 0.270814
vt 0.102180 0.270814
vt 0.101793 0.299061
vt 0.101972 0.250723
vt 0.102180 0.270814
vt 0.102180 0.270814
vt 0.101793 0.299061
vt 0.102180 0.270814
vt 0.102180 0.270814
vt 0.101793 0.299061
vt 0.101793 0.299061
vt 0.101658 0.278970
vt 0.101793 0.299061
vt 0.101658 0.278970
vt 0.101658 0.278970
vt 0.064095 0.209474
vt 0.101658 0.278970
vt 0.101658 0.278970
vt 0.101658 0.278970
vt 0.102180 0.270814
vt 0.101793 0.299061
vt 0.102180 0.270814
vt 0.101658 0.278970
vt 0.102180 0.270814
vt 0.101973 0.273202
vt 0.101793 0.299061
vt 0.101658 0.278970
vt 0.100754 0.254209
vt 0.100754 0.254209
vt 0.100754 0.254209
vt 0.100754 0.254209
vt 0.064095 0.209474
vt 0.101658 0.278970
vt 0.064095 0.209474
vt 0.100542 0.278062
vt 0.101658 0.278970
vt 0.101658 0.278970
vt 0.100542 0.278062
vt 0.101658 0.278970
vt 0.101658 0.278970
vt 0.101793 0.299061
vt 0.101658 0.278970
vt 0.102180 0.270814
vt 0.101793 0.299061
vt 0.101793 0.299061
vt 0.102180 0.270814
vt 0.101793 0.299061
vt 0.064095 0.209474
vt 0.101793 0.299061
vt 0.101793 0.299061
vt 0.102180 0.270814
vt 0.102180 0.270814
vt 0.101793 0.299061
vt 0.101793 0.299061
vt 0.101658 0.278970
vt 0.102180 0.270814
vt 0.101793 0.299061
vt 0.101793 0.299061
vt 0.102180 0.270814
vt 0.101793 0.299061
vt 0.100060 0.278336
vt 0.100060 0.278336
vt 0.100060 0.278336
vt 0.100060 0.278336
vt 0.100060 0.278336
vt 0.100060 0.278336
vt 0.100060 0.278336
vt 0.100060 0.278336
vn -0.000000 0.000000 0.000000
vn -0.000000 0.000000 0.000000
vn -0.000000 1.000000 0.000000
vn -0.000000 1.000000 0.000000
vn 0.000000 1.000000 0.000000
vn 0.000000 1.000000 0.000000
vn 0.000000 1.000000 0.000000
vn 0.000000 1.000000 0.000000
vn 0.112376 0.796213 -0.594489
vn 0.112376 0.796213 -0.594489
vn 0.112376 0.796213 -0.594489
vn 0.112376 0.796213 -0.594489
vn -0.007956 0.998547 0.053297
vn -0.007956 0.998547 0.053297
vn -0.007956 0.998547 0.053297
vn -0.007956 0.998547 0.053297
vn 0.003143 0.996083 0.088373
vn 0.003143 0.996083 0.088373
vn 0.003143 0.996083 0.088373
vn 0.003143 0.996083 0.088373
vn -0.110427 0.822363 0.558144
vn -0.110427 0.822363 0.558144
vn -0.110427 0.822363 0.558144
vn -0.110427 0.822363 0.558144
vn 0.006017 0.999942 -0.008944
vn 0.006017 0.999942 -0.008944
vn 0.006017 0.999942 -0.008944
vn 0.006017 0.999942 -0.008944
vn -0.003614 0.999944 0.009992
vn -0.003614 0.999944 0.009992
vn -0.003614 0.999944 0.009992
vn -0.003614 0.999944 0.009992
vn -0.000000 1.000000 -0.000000
vn -0.000000 1.000000 -0.000000
vn 0.000000 1.000000 0.000000
vn -0.702813 0.676819 -0.219021
vn -0.702813 0.676819 -0.219021
vn -0.702813 0.676819 -0.219021
vn -0.702813 0.676819 -0.219021
vn -0.077065 0.996737 -0.024015
vn -0.077065 0.996737 -0.024015
vn -0.077065 0.996737 -0.024015
vn -0.077065 0.996737 -0.024015
vn 0.000000 1.000000 0.000000
vn 0.000000 1.000000 0.000000
vn 0.000000 1.000000 0.000000
vn 0.000000 1.000000 0.000000
vn 0.691175 0.634558 0.345851
vn 0.691175 0.634558 0.345851
vn 0.691175 0.634558 0.345851
vn 0.691175 0.634558 0.345851
vn 0.029622 0.991134 0.129524
vn 0.029622 0.991134 0.129524
vn 0.029622 0.991134 0.129524
vn 0.029622 0.991134 0.129524
vn 0.000000 1.000000 0.000000
vn 0.000000 1.000000 0.000000
vn 0.000000 1.000000 0.000000
vn 0.000000 1.000000 0.000000
vn 0.000000 1.000000 0.000000
vn 0.000000 1.000000 0.000000
vn 0.000000 1.000000 0.000000
vn 0.039424 0.906407 -0.420561
vn 0.039424 0.906407 -0.420561
vn 0.039424 0.906407 -0.420561
vn 0.064614 0.997872 0.008744
vn 0.064614 0.997872 0.008744
vn 0.064614 0.997872 0.008744
vn 0.064614 0.997872 0.008744
vn -0.418835 0.863185 0.281939
vn -0.418835 0.863185 0.281939
vn -0.418835 0.863185 0.281939
vn -0.214231 0.976643 -0.016548
vn -0.214231 0.976643 -0.016548
vn -0.214231 0.976643 -0.016548
vn -0.214231 0.976643 -0.016548
vn 0.003950 0.999851 -0.016823
vn 0.003950 0.999851 -0.016823
vn 0.007391 0.999948 -0.007072
vn 0.007304 0.999947 -0.007320
vn 0.000360 0.968736 0.248093
vn 0.000360 0.968736 0.248093
vn -0.074156 0.989839 0.121325
vn -0.059455 0.987382 0.146770
vn -0.000118 0.999992 -0.004121
vn -0.002067 0.999987 -0.004745
vn -0.002067 0.999987 -0.004745
vn 0.002941 0.999990 -0.003285
vn 0.364768 0.885731 -0.287096
vn 0.364768 0.885731 -0.287096
vn 0.445657 0.865261 -0.229594
vn 0.500439 0.845283 -0.187236
vn 0.000000 1.000000 -0.000000
vn 0.000000 1.000000 -0.000000
vn 0.000000 1.000000 -0.000000
vn 0.000000 1.000000 -0.000000
vn -0.030120 0.999191 0.026665
vn -0.046669 0.998719 0.019580
vn -0.044459 0.998800 0.020527
vn -0.030120 0.999191 0.026665
vn -0.463864 0.861450 0.206723
vn -0.439225 0.869693 0.225201
vn -0.322898 0.895790 0.305445
vn -0.322898 0.895790 0.305445
vn -0.000000 0.000000 0.000000
vn -0.000000 1.000000 0.000000
vn -0.000000 1.000000 0.000000
vn -0.000000 0.000000 0.000000
vn -0.343861 0.938984 -0.008316
vn -0.343861 0.938984 -0.008316
vn -0.343861 0.938984 -0.008316
vn -0.343861 0.938984 -0.008316
vn -0.313277 0.864025 0.394103
vn -0.313278 0.864025 0.394103
vn -0.313277 0.864025 0.394103
vn 0.000000 1.000000 0.000000
vn 0.000000 1.000000 0.000000
vn 0.000000 1.000000 0.000000
vn 0.000000 1.000000 0.000000
vn -0.066852 0.551982 -0.831172
vn -0.066852 0.551982 -0.831172
vn -0.066852 0.551982 -0.831172
vn -0.066852 0.551982 -0.831172
vn -0.000000 1.000000 0.000000
vn -0.000000 1.000000 0.000000
vn -0.000000 1.000000 0.000000
vn -0.000000 1.000000 0.000000
vn -0.000000 0.997024 0.077088
vn -0.000000 0.997024 0.077088
vn -0.000000 0.997024 0.077088
vn -0.000000 0.997024 0.077088
vn 0.000000 0.693669 0.720294
vn 0.000000 0.693669 0.720294
vn 0.000000 0.693669 0.720294
vn 0.000000 0.693669 0.720294
vn 0.000000 1.000000 0.000000
vn 0.000000 1.000000 0.000000
vn 0.000000 1.000000 0.000000
vn 0.119323 0.989601 -0.080323
vn 0.119323 0.989601 -0.080323
vn 0.119323 0.989601 -0.080323
vn -0.000000 0.000000 0.000000
vn -0.000000 1.000000 0.000000
vn -0.000000 1.000000 0.000000
vn -0.000000 0.000000 0.000000
vn -0.557364 0.819871 0.130986
vn -0.557364 0.819871 0.130986
vn -0.439225 0.869693 0.225201
vn -0.463864 0.861450 0.206723
vn -0.044459 0.998800 0.020527
vn -0.046669 0.998719 0.019580
vn -0.062908 0.997940 0.012615
vn -0.062908 0.997940 0.012615
vn 0.000000 1.000000 -0.000000
vn 0.000000 1.000000 -0.000000
vn 0.000000 1.000000 0.000000
vn 0.000000 1.000000 0.000000
vn 0.500439 0.845283 -0.187236
vn 0.445657 0.865261 -0.229594
vn 0.565655 0.813916 -0.132572
vn 0.565655 0.813916 -0.132572
vn 0.565655 0.813916 -0.132572
vn 0.024865 0.999676 -0.005397
vn 0.025145 0.999669 -0.005434
vn 0.012705 0.999919 -0.000381
vn 0.002941 0.999990 -0.003285
vn -0.138372 0.990376 0.002849
vn -0.138434 0.990368 0.002849
vn -0.046614 0.998910 0.002547
vn -0.046464 0.998917 0.002546
vn 0.010320 0.999945 0.001743
vn 0.010322 0.999945 0.001743
vn 0.003173 0.999992 0.002386
vn 0.003163 0.999992 0.002387
vn -0.000000 1.000000 -0.000000
vn -0.000000 1.000000 -0.000000
vn -0.000000 1.000000 -0.000000
vn 0.007304 0.999947 -0.007320
vn 0.007391 0.999948 -0.007072
vn 0.010322 0.999945 0.001743
vn 0.010320 0.999945 0.001743
vn -0.059455 0.987382 0.146770
vn -0.074156 0.989839 0.121325
vn -0.138434 0.990368 0.002849
vn -0.138372 0.990376 0.002849
vn 0.002941 0.999990 -0.003285
vn 0.012705 0.999919 -0.000381
vn -0.000118 0.999992 -0.004121
vn 0.025947 0.999648 -0.005543
vn 0.025145 0.999669 -0.005434
vn 0.024865 0.999676 -0.005397
vn 0.025947 0.999648 -0.005543
vn -0.046464 0.998917 0.002546
vn -0.046614 0.998910 0.002547
vn -0.044048 0.999026 0.002539
vn -0.044048 0.999026 0.002539
vn 0.003163 0.999992 0.002387
vn 0.003173 0.999992 0.002386
vn 0.002977 0.999993 0.002400
vn 0.002977 0.999993 0.002400
s off
f 3/1/1 17/21/2 18/35/3 45/54/4
f 42/74/5 43/71/6 20/117/7 21/114/8
f 41/76/9 42/73/10 21/115/11 26/112/12
f 20/16/13 43/5/14 44/8/15 19/15/16
f 39/82/17 40/78/18 27/39/19 28/109/20
f 18/36/21 19/118/22 44/70/23 45/68/24
f 38/55/25 39/81/26 28/110/27 29/111/28
f 27/86/29 40/79/30 41/75/31 26/113/32
f 37/116/33 55/148/34 14/88/35
f 36/90/36 37/87/37 14/104/38 9/3/39
f 35/52/40 36/62/41 9/65/42 5/69/43
f 34/94/44 35/91/45 5/17/46 7/9/47
f 33/96/48 34/93/49 7/18/50 11/13/51
f 11/11/52 15/25/53 32/99/54 33/95/55
f 31/102/56 32/98/57 15/22/58
f 30/42/59 31/101/60 15/89/61 2/2/62
f 26/37/63 21/29/64 22/125/65
f 23/122/66 27/85/67 26/38/68 22/31/69
f 28/108/70 23/32/71 24/105/72
f 29/41/73 28/40/74 24/106/75 25/124/76
f 25/34/77 24/107/78 53/145/79 54/147/80
f 24/33/81 23/120/82 52/143/83 53/146/84
f 52/144/85 23/121/86 22/126/87 51/141/88
f 22/30/89 21/127/90 50/139/91 51/142/92
f 21/28/93 20/119/94 49/137/95 50/140/96
f 19/15/97 48/135/98 49/138/99 20/16/100
f 47/133/101 48/136/102 19/26/103 18/123/104
f 46/132/105 47/134/106 18/35/107 17/21/108
f 16/23/109 39/80/110 38/83/111 4/4/112
f 16/24/113 40/77/114 39/56/115
f 40/57/116 16/92/117 12/12/118 41/59/119
f 8/10/120 42/61/121 41/58/122 12/14/123
f 6/7/124 43/63/125 42/60/126 8/19/127
f 10/128/128 44/129/129 43/130/130 6/131/131
f 13/20/132 45/67/133 44/64/134 10/6/135
f 3/1/136 45/54/137 13/72/138
f 28/108/139 27/84/140 23/32/141
f 1/66/142 37/116/143 47/134/144 46/132/145
f 37/53/146 36/51/147 48/136/148 47/133/149
f 49/138/150 48/135/151 36/49/152 35/27/153
f 50/140/154 49/137/155 35/50/156 34/47/157
f 51/142/158 50/139/159 34/48/160 33/45/161 59/155/162
f 59/161/163 60/162/164 58/163/165 51/164/166
f 57/151/167 58/152/168 60/156/169 61/159/170
f 56/165/171 57/166/172 61/167/173 62/168/174
f 1/66/175 55/148/176 37/116/177
f 54/147/178 53/145/179 57/150/180 56/149/181
f 53/146/182 52/143/183 58/152/184 57/151/185
f 51/141/186 58/153/187 52/144/188
f 32/44/189 60/157/190 59/154/191 33/46/192
f 61/159/193 60/156/194 32/97/195 31/43/196
f 62/160/197 61/158/198 31/100/199 30/103/200
