# This file uses meters as units for non-parametric coordinates.

v 13.546753 0.000001 -500.000000
v 13.546753 0.000001 0.000000
v 31.538391 0.000001 -500.000000
v 31.538391 0.000001 0.000000
v 49.287712 0.000001 -230.081177
v 18.059214 0.000001 -230.081177
v 486.453247 0.000001 -500.000000
v 486.453247 0.000001 0.000000
v 468.461609 0.000001 -500.000000
v 468.461609 0.000001 0.000000
v 486.595703 0.000001 -245.659958
v 456.071350 0.000001 -253.796387
v 398.116302 0.000001 -211.082458
v 105.691528 0.000001 -243.354034
v 94.867950 0.000001 -109.345032
v 398.116302 0.000001 -160.966492
v 214.034271 0.000001 -143.566895
v 182.590485 0.000001 -142.771149
v 193.048096 0.000037 -151.728058
v 398.116302 0.000001 -409.928131
v 104.080200 0.000001 -369.554138
v 106.188202 0.000001 -465.570435
v 398.116302 0.000001 -465.325928
v 174.465179 0.000001 -476.407623
v 204.456329 0.000001 -476.573944
v 189.654541 0.000037 -469.888306
v 393.185425 0.000001 -282.338715
v 393.185425 0.000001 -337.606445
v 272.090912 0.000001 -348.089600
v 324.706268 0.000001 -348.858643
v 308.161926 0.000037 -337.252808
v 0.000000 0.000001 -500.000000
v 0.000000 0.000001 0.000000
v 0.000000 0.000001 -243.052017
v 500.000000 0.000001 -500.000000
v 500.000000 0.000001 0.000000
v 500.000000 0.000001 -244.836777
v 317.484283 0.000001 0.000000
v 250.000000 0.000001 -500.000000
v 101.972198 0.000001 -25.914764
v 101.972198 0.000001 -68.797302
v 116.464996 0.000001 -83.882141
v 392.231750 0.000001 -77.342415
v 384.062592 0.000001 -14.560509
v 352.669525 0.000001 -12.991333
v 333.057404 0.000037 -21.710205
v 310.147858 0.000001 -12.491608
v 374.516296 0.000001 -268.124756
v 375.280762 0.000001 -350.880432
v 117.056656 0.000001 -347.409424
v 101.972198 0.000001 -337.402344
v 101.972198 0.000001 -276.482788
v 120.740128 0.000001 -265.413666
v 125.138092 0.000001 -221.611786
v 109.410858 0.000001 -210.771179
v 109.410858 0.000001 -147.271729
v 121.481705 0.000001 -139.856339
v 118.659973 0.000001 -11.633301
v 392.231750 0.000001 -29.588318
v 380.709839 0.000001 -90.459442
v 384.575653 0.000001 -396.066284
v 387.044159 0.000001 -476.764679
v 116.391373 0.000001 -475.344086
v 106.188202 0.000001 -404.390350
v 124.856949 0.000001 -392.053223
v 382.467285 0.000001 -223.521423
v 384.445953 0.000001 -146.372986
v 468.570709 0.000001 -404.460022
v 455.913177 0.000001 -392.327942
v 455.893829 0.000001 -93.520264
v 468.554871 0.000001 -84.195091
v 15.401631 0.000001 -94.576462
v 33.279690 0.000001 -88.770081
v 46.743572 0.000001 -100.382851
v 15.222127 0.000001 -399.785278
v 46.568398 0.000001 -392.712677
v 33.095791 0.000001 -406.857880
vt 0.024743 0.008014
vt 0.024743 0.008014
vt 0.024743 0.008014
vt 0.024743 0.008014
vt 0.024743 0.008014
vt 0.024743 0.008014
vt 0.024743 0.008014
vt 0.024743 0.008014
vt 0.024743 0.008014
vt 0.024743 0.008014
vt 0.024743 0.008014
vt 0.024743 0.008014
vt 0.301937 0.265206
vt 0.024743 0.008014
vt 0.301937 0.265206
vt 0.024743 0.008014
vt 0.024743 0.008014
vt 0.024743 0.008014
vt 0.024743 0.008014
vt 0.301937 0.265206
vt 0.024743 0.008014
vt 0.301937 0.265206
vt 0.024743 0.008014
vt 0.024743 0.008014
vt 0.024743 0.008014
vt 0.301937 0.265206
vt 0.982241 0.049627
vt 0.537280 0.078370
vt 0.512194 0.023533
vt 0.982241 0.023534
vt 0.015274 0.049627
vt 0.015274 0.023534
vt 0.982241 0.986623
vt 0.585612 0.986623
vt 0.583929 0.952407
vt 0.982241 0.960532
vt 0.015274 0.986623
vt 0.015274 0.960532
vt 0.982241 0.084283
vt 0.946005 0.219951
vt 0.849191 0.219951
vt 0.881020 0.157691
vt 0.301937 0.265206
vt 0.301937 0.265206
vt 0.301937 0.265206
vt 0.491417 0.910673
vt 0.449768 0.780880
vt 0.561882 0.790379
vt 0.982241 0.505078
vt 0.957117 0.702839
vt 0.958083 0.620935
vt 0.301937 0.265206
vt 0.301937 0.265206
vt 0.309059 0.547630
vt 0.307573 0.648978
vt 0.820020 0.247867
vt 0.706132 0.375235
vt 0.301937 0.265206
vt 0.015274 0.084283
vt 0.063318 0.228072
vt 0.060901 0.359584
vt 0.015274 0.505078
vt 0.015274 0.925875
vt 0.060187 0.790379
vt 0.301937 0.265206
vt 0.315805 0.780880
vt 0.684837 0.790379
vt 0.982241 0.925876
vt 0.953687 0.771175
vt 0.073508 0.388844
vt 0.060578 0.417354
vt 0.330016 0.617110
vt 0.704593 0.435803
vt 0.688809 0.395379
vt 0.940256 0.665062
vt 0.301937 0.265206
vt 0.024743 0.008014
vt 0.024743 0.008014
vt 0.301937 0.265206
vt 0.301937 0.265206
vt 0.024743 0.008014
vt 0.024743 0.008014
vt 0.024743 0.008014
vt 0.024743 0.008014
vt 0.024743 0.008014
vt 0.024743 0.008014
vt 0.429184 0.456079
vt 0.024743 0.008014
vt 0.429184 0.456079
vt 0.429184 0.456079
vt 0.301937 0.265206
vt 0.301937 0.265206
vt 0.301937 0.265206
vt 0.301937 0.265206
vt 0.024743 0.008014
vt 0.024743 0.008014
vt 0.301937 0.265206
vt 0.024743 0.008014
vt 0.301937 0.265206
vt 0.024743 0.008014
vt 0.301937 0.265206
vt 0.024743 0.008014
vt 0.301937 0.265206
vt 0.024743 0.008014
vt 0.301937 0.265206
vt 0.024743 0.008014
vt 0.301937 0.265206
vt 0.024743 0.008014
vt 0.301937 0.265206
vt 0.959743 0.252094
vt 0.024743 0.008014
vt 0.024743 0.008014
vt 0.024743 0.008014
vt 0.301937 0.265206
vt 0.024743 0.008014
vt 0.301937 0.265206
vt 0.024743 0.008014
vt 0.024743 0.008014
vt 0.301937 0.265206
vt 0.024743 0.008014
vt 0.301937 0.265206
vt 0.024743 0.008014
vt 0.301937 0.265206
vt 0.024743 0.008014
vt 0.024743 0.008014
vt 0.060209 0.769052
vt 0.024743 0.008014
vt 0.062957 0.247725
vt 0.024743 0.008014
vt 0.301937 0.265206
vt 0.024743 0.008014
vt 0.024743 0.008014
vt 0.301937 0.265206
vt 0.301937 0.265206
vt 0.301937 0.265206
vt 0.301937 0.265206
vt 0.301937 0.265206
vt 0.301937 0.265206
vt 0.024743 0.008014
vt 0.301937 0.265206
vt 0.024743 0.008014
vt 0.024743 0.008014
vt 0.024743 0.008014
vt 0.301937 0.265206
vt 0.201265 0.986623
vt 0.024743 0.008014
vt 0.200042 0.954632
vt 0.024743 0.008014
vt 0.301937 0.265206
vt 0.024743 0.008014
vt 0.301937 0.265206
vt 0.024743 0.008014
vt 0.301937 0.265206
vt 0.024743 0.008014
vt 0.301937 0.265206
vt 0.024743 0.008014
vt 0.799336 0.061442
vt 0.024743 0.008014
vt 0.301937 0.265206
vt 0.024743 0.008014
vt 0.301937 0.265206
vt 0.024743 0.008014
vt 0.209083 0.060299
vt 0.024743 0.008014
vt 0.301937 0.265206
vt 0.024743 0.008014
vt 0.301937 0.265206
vn 0.000000 1.000000 0.000000
vn 0.000000 1.000000 0.000000
vn 0.000000 1.000000 0.000000
vn 0.000000 1.000000 0.000000
vn 0.000000 1.000000 -0.000000
vn 0.000000 1.000000 -0.000000
vn 0.000000 1.000000 -0.000000
vn 0.000000 1.000000 -0.000000
vn 0.000000 1.000000 0.000000
vn 0.000000 1.000000 -0.000000
vn 0.000000 1.000000 0.000000
vn 0.000000 1.000000 0.000000
vn 0.000000 1.000000 -0.000000
vn 0.000000 1.000000 -0.000000
vn 0.000000 1.000000 0.000000
vn -0.000000 1.000000 0.000000
vn -0.000000 1.000000 0.000000
vn -0.000000 1.000000 0.000000
vn -0.000000 1.000000 0.000000
vn -0.000000 1.000000 0.000000
vn -0.000000 1.000000 -0.000000
vn -0.000000 1.000000 -0.000000
vn -0.000000 1.000000 -0.000000
vn -0.000000 1.000000 -0.000000
vn -0.000000 1.000000 -0.000000
vn -0.000000 1.000000 -0.000000
vn 0.000000 1.000000 0.000001
vn 0.000000 1.000000 0.000001
vn 0.000000 1.000000 0.000001
vn -0.000000 1.000000 -0.000000
vn -0.000000 1.000000 -0.000000
vn -0.000000 1.000000 -0.000000
vn -0.000000 1.000000 -0.000000
vn -0.000000 1.000000 -0.000000
vn -0.000000 1.000000 -0.000000
vn 0.000000 1.000000 0.000000
vn 0.000000 1.000000 0.000000
vn 0.000000 1.000000 0.000000
vn 0.000000 1.000000 -0.000000
vn 0.000000 1.000000 -0.000000
vn 0.000000 1.000000 -0.000000
vn 0.000000 1.000000 -0.000000
vn 0.000000 1.000000 0.000000
vn 0.000000 1.000000 0.000000
vn 0.000000 1.000000 0.000000
vn 0.000000 1.000000 0.000000
vn 0.000000 1.000000 0.000000
vn 0.000000 1.000000 0.000000
vn 0.000000 1.000000 0.000000
vn 0.000000 1.000000 0.000000
vn 0.000000 1.000000 0.000000
vn 0.000000 1.000000 0.000000
vn 0.000000 1.000000 0.000000
vn 0.000000 1.000000 0.000000
vn 0.000000 1.000000 0.000000
vn 0.000000 1.000000 0.000000
vn 0.000000 1.000000 0.000000
vn 0.000000 1.000000 0.000000
vn 0.000000 1.000000 0.000000
vn 0.000000 1.000000 0.000000
vn 0.000000 1.000000 0.000000
vn 0.000000 1.000000 0.000000
vn 0.000000 1.000000 0.000000
vn 0.000000 1.000000 0.000000
vn 0.000000 1.000000 0.000000
vn 0.000000 1.000000 0.000000
vn 0.000000 1.000000 0.000000
vn 0.000000 1.000000 0.000000
vn 0.000000 1.000000 0.000000
vn 0.000000 1.000000 0.000000
vn 0.000000 1.000000 0.000000
vn 0.000000 1.000000 0.000000
vn 0.000000 1.000000 0.000000
vn 0.000000 1.000000 0.000000
vn 0.000000 1.000000 0.000000
vn 0.000000 1.000000 0.000000
vn 0.000000 1.000000 0.000000
vn 0.000000 1.000000 0.000000
vn 0.000000 1.000000 0.000000
vn 0.000000 1.000000 -0.000000
vn 0.000000 1.000000 0.000000
vn 0.000000 1.000000 0.000000
vn 0.000000 1.000000 -0.000000
vn 0.000000 1.000000 -0.000000
vn 0.000000 1.000000 -0.000000
vn 0.000000 1.000000 -0.000000
vn 0.000000 1.000000 0.000000
vn 0.000000 1.000000 0.000000
vn 0.000000 1.000000 0.000000
vn 0.000000 1.000000 0.000000
vn 0.000000 1.000000 0.000000
vn 0.000000 1.000000 0.000000
vn 0.000000 1.000000 0.000000
vn 0.000000 1.000000 0.000000
vn 0.000000 1.000000 0.000000
vn 0.000000 1.000000 0.000000
vn 0.000000 1.000000 0.000000
vn 0.000000 1.000000 0.000000
vn 0.000000 1.000000 0.000000
vn 0.000000 1.000000 0.000000
vn -0.000000 1.000000 -0.000000
vn -0.000000 1.000000 -0.000000
vn -0.000000 1.000000 -0.000000
vn 0.000000 1.000000 0.000000
vn 0.000000 1.000000 0.000000
vn 0.000000 1.000000 0.000000
vn 0.000000 1.000000 0.000000
vn 0.000000 1.000000 -0.000000
vn 0.000000 1.000000 0.000000
vn 0.000000 1.000000 -0.000000
vn 0.000000 1.000000 -0.000000
vn 0.000000 1.000000 0.000000
vn 0.000000 1.000000 0.000000
vn 0.000000 1.000000 0.000000
vn -0.000000 1.000000 -0.000006
vn -0.000000 1.000000 -0.000006
vn -0.000000 1.000000 -0.000006
vn -0.000000 1.000000 -0.000003
vn -0.000000 1.000000 -0.000003
vn -0.000000 1.000000 -0.000003
vn 0.000000 1.000000 0.000004
vn 0.000000 1.000000 0.000004
vn 0.000000 1.000000 0.000004
vn 0.000000 1.000000 0.000004
vn 0.000000 1.000000 0.000004
vn 0.000000 1.000000 0.000004
vn 0.000000 1.000000 0.000000
vn 0.000000 1.000000 0.000000
vn 0.000000 1.000000 0.000000
vn 0.000000 1.000000 0.000000
vn 0.000000 1.000000 0.000000
vn 0.000000 1.000000 0.000000
vn 0.000000 1.000000 0.000000
vn 0.000000 1.000000 0.000000
vn 0.000000 1.000000 0.000000
vn 0.000000 1.000000 0.000000
vn 0.000000 1.000000 0.000000
vn 0.000000 1.000000 -0.000000
vn 0.000000 1.000000 -0.000000
vn 0.000000 1.000000 -0.000000
vn 0.000000 1.000000 0.000000
vn 0.000000 1.000000 0.000000
vn 0.000000 1.000000 0.000000
vn 0.000000 1.000000 0.000000
vn 0.000000 1.000000 0.000000
vn 0.000000 1.000000 0.000000
vn 0.000000 1.000000 0.000000
vn 0.000000 1.000000 0.000000
vn 0.000000 1.000000 0.000000
vn 0.000000 1.000000 0.000000
vn 0.000000 1.000000 -0.000000
vn 0.000000 1.000000 -0.000000
vn 0.000000 1.000000 -0.000000
vn 0.000000 1.000000 -0.000000
vn 0.000000 1.000000 -0.000000
vn 0.000000 1.000000 -0.000000
vn -0.000000 1.000000 -0.000000
vn -0.000000 1.000000 -0.000000
vn 0.000000 1.000000 -0.000000
vn 0.000000 1.000000 0.000000
vn -0.000000 1.000000 -0.000000
vn -0.000000 1.000000 -0.000000
vn 0.000000 1.000000 0.000000
vn -0.000000 1.000000 -0.000000
vn -0.000000 1.000000 -0.000000
vn 0.000000 1.000000 -0.000000
vn -0.000000 1.000000 0.000000
vn -0.000000 1.000000 0.000000
vn -0.000000 1.000000 0.000000
vn -0.000000 1.000000 0.000000
vn -0.000000 1.000000 0.000000
vn -0.000000 1.000000 0.000000
vn -0.000000 1.000000 0.000000
vn 0.000000 1.000000 0.000000
vn 0.000000 1.000000 0.000000
vn 0.000000 1.000000 0.000000
vn 0.000000 1.000000 -0.000001
vn 0.000000 1.000000 -0.000001
vn 0.000000 1.000000 -0.000001
vn 0.000000 1.000000 -0.000001
vn 0.000001 1.000000 0.000000
vn 0.000001 1.000000 0.000000
vn 0.000001 1.000000 0.000000
vn 0.000001 1.000000 0.000000
vn 0.000001 1.000000 0.000000
vn 0.000000 1.000000 -0.000000
vn 0.000000 1.000000 -0.000000
vn 0.000000 1.000000 -0.000000
vn 0.000000 1.000000 -0.000000
vn 0.000000 1.000000 -0.000000
vn 0.000000 1.000000 -0.000000
vn 0.000000 1.000000 0.000000
vn 0.000000 1.000000 0.000000
vn 0.000000 1.000000 0.000000
vn 0.000000 1.000000 0.000000
vn -0.000000 1.000000 -0.000000
vn -0.000000 1.000000 -0.000000
vn -0.000000 1.000000 -0.000000
vn -0.000000 1.000000 -0.000000
vn -0.000000 1.000000 -0.000000
vn -0.000000 1.000000 -0.000000
vn -0.000000 1.000000 -0.000000
vn 0.000000 1.000000 0.000000
vn 0.000000 1.000000 0.000000
vn 0.000000 1.000000 0.000000
vn 0.000000 1.000000 0.000000
vn 0.000000 1.000000 0.000000
vn 0.000000 1.000000 0.000000
vn 0.000000 1.000000 0.000000
vn 0.000000 1.000000 0.000000
vn 0.000000 1.000000 0.000000
vn 0.000000 1.000000 0.000000
vn 0.000000 1.000000 -0.000000
vn 0.000000 1.000000 0.000000
vn 0.000000 1.000000 0.000000
vn 0.000000 1.000000 0.000000
vn 0.000000 1.000000 0.000000
vn 0.000000 1.000000 0.000000
vn 0.000000 1.000000 0.000000
vn 0.000000 1.000000 -0.000000
vn 0.000000 1.000000 0.000000
vn 0.000000 1.000000 0.000000
vn 0.000000 1.000000 0.000000
vn 0.000000 1.000000 -0.000000
vn 0.000000 1.000000 0.000000
vn 0.000000 1.000000 -0.000000
vn 0.000000 1.000000 -0.000000
vn 0.000000 1.000000 0.000000
vn 0.000000 1.000000 0.000000
vn 0.000000 1.000000 0.000000
vn 0.000000 1.000000 0.000000
vn 0.000000 1.000000 0.000000
vn 0.000000 1.000000 0.000000
vn 0.000000 1.000000 0.000000
vn 0.000000 1.000000 0.000000
vn 0.000000 1.000000 -0.000000
vn 0.000000 1.000000 0.000000
vn 0.000000 1.000000 0.000000
vn 0.000000 1.000000 0.000000
vn 0.000000 1.000000 0.000000
vn 0.000000 1.000000 0.000000
vn 0.000000 1.000000 0.000000
vn 0.000000 1.000000 0.000000
vn 0.000000 1.000000 -0.000000
vn 0.000000 1.000000 -0.000000
vn 0.000000 1.000000 0.000000
vn 0.000000 1.000000 0.000000
vn 0.000000 1.000000 0.000000
vn 0.000000 1.000000 0.000000
vn 0.000000 1.000000 0.000000
vn 0.000000 1.000000 0.000000
vn 0.000000 1.000000 0.000000
vn 0.000000 1.000000 0.000000
vn 0.000000 1.000000 0.000000
vn 0.000000 1.000000 0.000000
vn 0.000000 1.000000 0.000000
vn 0.000000 1.000000 0.000000
vn 0.000000 1.000000 0.000000
vn 0.000000 1.000000 0.000000
vn 0.000000 1.000000 0.000000
vn 0.000000 1.000000 0.000000
vn 0.000000 1.000000 0.000000
vn 0.000000 1.000000 0.000000
vn 0.000000 1.000000 0.000000
vn 0.000000 1.000000 0.000000
vn 0.000000 1.000000 0.000000
vn 0.000000 1.000000 0.000000
vn 0.000000 1.000000 0.000000
vn 0.000000 1.000000 0.000000
vn 0.000000 1.000000 0.000000
vn 0.000000 1.000000 0.000000
vn 0.000000 1.000000 0.000000
vn 0.000000 1.000000 0.000000
vn 0.000000 1.000000 0.000000
vn 0.000000 1.000000 0.000000
vn 0.000000 1.000000 0.000000
vn -0.000000 1.000000 -0.000000
vn -0.000000 1.000000 -0.000000
vn -0.000000 1.000000 -0.000000
vn 0.000000 1.000000 -0.000000
vn 0.000000 1.000000 0.000000
vn 0.000000 1.000000 -0.000000
vn 0.000000 1.000000 0.000000
vn 0.000000 1.000000 0.000000
vn 0.000000 1.000000 0.000000
vn 0.000000 1.000000 -0.000000
vn 0.000000 1.000000 -0.000000
vn 0.000000 1.000000 0.000000
vn 0.000000 1.000000 -0.000000
vn 0.000000 1.000000 -0.000000
vn 0.000000 1.000000 -0.000000
vn 0.000000 1.000000 0.000000
vn 0.000000 1.000000 -0.000000
vn 0.000000 1.000000 -0.000000
vn 0.000000 1.000000 -0.000000
vn -0.000000 1.000000 -0.000000
vn -0.000000 1.000000 -0.000000
vn -0.000000 1.000000 -0.000000
vn 0.000000 1.000000 0.000000
vn 0.000000 1.000000 0.000000
vn 0.000000 1.000000 0.000000
vn 0.000000 1.000000 0.000000
vn 0.000000 1.000000 0.000000
vn 0.000000 1.000000 0.000000
s off
f 74/160/1 5/2/2 6/3/3 72/156/4
f 75/162/5 77/166/6 3/5/7 1/6/8
f 8/7/9 11/8/10 71/154/11 10/10/12
f 12/9/13 11/8/14 69/150/15
f 56/106/16 57/108/17 18/16/18 19/14/19 55/104/20
f 64/131/21 65/132/22 26/18/23 24/19/24 63/127/25 22/129/26
f 48/84/27 31/23/28 53/100/29
f 52/98/30 53/100/31 31/23/32 29/25/33 50/95/34 51/96/35
f 72/157/36 6/28/37 34/29/38
f 34/29/39 75/163/40 1/31/41 32/32/42
f 36/33/43 37/34/44 11/35/45 8/36/46
f 4/39/47 40/40/48 41/41/49
f 12/87/50 27/89/51 13/90/52
f 38/49/53 45/50/54 47/51/55
f 20/13/56 61/15/57 65/26/58 21/43/59 29/44/60 30/45/61 49/138/62
f 15/52/63 42/53/64 18/58/65 57/65/66
f 41/41/67 42/56/68 15/42/69
f 3/59/70 22/60/71 63/128/72
f 27/76/73 48/79/74 66/140/75 13/92/76
f 9/93/77 23/94/78 20/13/79
f 21/43/80 3/97/81 77/167/82
f 5/20/83 15/52/84 56/99/85 55/101/86
f 5/20/87 14/22/88 52/103/89 51/105/90 21/43/91
f 12/46/92 28/66/93 27/47/94
f 16/67/95 12/46/96 13/48/97
f 10/107/98 71/155/99 43/116/100
f 15/52/101 5/20/102 74/161/103
f 3/97/104 21/43/105 64/121/106 22/123/107
f 69/151/108 20/13/109 28/130/110 12/109/111
f 10/107/112 43/116/113 59/133/114
f 24/61/115 26/70/116 25/71/117
f 29/54/118 31/72/119 30/55/120
f 17/73/121 19/74/122 18/57/123
f 45/50/124 46/75/125 47/51/126
f 10/68/127 44/69/128 45/50/129 38/49/130
f 38/49/131 47/51/132 58/110/133 4/39/134
f 60/136/135 67/144/136 17/135/137
f 29/44/138 21/43/139 50/137/140
f 20/13/141 49/138/142 28/130/143
f 39/62/144 25/71/145 62/126/146 9/63/147
f 39/62/148 24/61/149 25/71/150
f 28/88/151 49/86/152 30/24/153 31/23/154 48/84/155 27/85/156
f 51/105/157 50/137/158 21/43/159
f 14/22/160 53/80/161 52/103/162
f 14/22/163 55/101/164 54/91/165
f 15/52/166 57/65/167 56/99/168
f 40/112/169 58/111/170 47/81/171 46/77/172 42/82/173
f 40/112/174 42/82/175 41/83/176
f 42/82/177 46/77/178 43/118/179 60/117/180
f 43/118/181 46/77/182 45/78/183 44/113/184 59/115/185
f 23/124/186 62/125/187 25/21/188 26/18/189 61/122/190 20/120/191
f 61/122/192 26/18/193 65/132/194
f 21/43/195 65/26/196 64/121/197
f 54/102/198 55/104/199 19/14/200 13/141/201 66/139/202
f 13/141/203 19/14/204 17/17/205 67/143/206 16/142/207
f 11/147/208 37/145/209 35/37/210 7/38/211
f 68/148/212 11/146/213 7/11/214 9/12/215
f 9/93/216 20/13/217 68/149/218
f 69/150/219 11/8/220 68/148/221
f 68/149/222 20/13/223 69/151/224
f 70/152/225 11/8/226 12/9/227
f 43/116/228 70/153/229 12/109/230 16/114/231
f 67/144/232 43/116/233 16/114/234
f 71/154/235 11/8/236 70/152/237
f 43/116/238 71/155/239 70/153/240
f 4/39/241 41/41/242 15/42/243
f 5/20/244 55/101/245 14/22/246
f 3/59/247 63/128/248 24/61/249 39/62/250
f 43/116/251 67/144/252 60/136/253
f 60/136/254 17/135/255 18/58/256 42/53/257
f 66/140/258 48/79/259 53/80/260 14/22/261 54/91/262
f 10/107/263 59/133/264 44/134/265
f 2/27/266 72/157/267 34/29/268 33/30/269
f 4/1/270 73/158/271 72/156/272 2/4/273
f 73/158/274 74/160/275 72/156/276
f 73/159/277 15/52/278 74/161/279
f 34/29/280 6/28/281 75/163/282
f 6/3/283 5/2/284 76/164/285 75/162/286
f 75/162/287 76/164/288 77/166/289
f 76/165/290 21/43/291 77/167/292
f 5/20/293 21/43/294 76/165/295
f 4/119/296 15/52/297 73/159/298
f 9/63/299 62/126/300 23/64/301
f 4/39/302 58/110/303 40/40/304
