# This file uses meters as units for non-parametric coordinates.

v 13.546753 0.000001 -500.000000
v 13.546753 0.000001 -0.000000
v 31.538391 0.000001 -500.000000
v 31.538391 0.000001 -0.000000
v 45.798901 0.000001 -225.489166
v 16.806580 0.000001 -226.652878
v 486.453247 0.000001 -500.000000
v 486.453247 0.000001 -0.000000
v 468.461609 0.000001 -500.000000
v 468.461609 0.000001 -0.000000
v 484.675537 0.000001 -222.301376
v 455.510895 0.000001 -220.851532
v 0.000000 0.000001 -500.000000
v 0.000000 0.000001 -0.000000
v -0.000000 0.000001 -224.103973
v 500.000000 0.000001 -500.000000
v 500.000000 0.000001 -0.000000
v 500.000000 0.000001 -224.103973
v 33.818851 0.000001 -87.792061
v 466.936371 0.000001 -85.257935
v 46.059895 0.000001 -100.233421
v 455.107605 0.000001 -97.235146
v 44.588459 0.000001 -391.471649
v 455.885712 0.000001 -388.956573
v 32.128513 0.000001 -407.322479
v 467.830566 0.000001 -405.282135
vt 0.024743 0.008014
vt 0.024743 0.008014
vt 0.024743 0.008014
vt 0.024743 0.008014
vt 0.024743 0.008014
vt 0.024743 0.008014
vt 0.024743 0.008014
vt 0.024743 0.008014
vt 0.024743 0.008014
vt 0.024743 0.008014
vt 0.024743 0.008014
vt 0.024743 0.008014
vt 0.041474 0.023534
vt 0.061870 0.545834
vt 0.015275 0.590593
vt 0.015275 0.023534
vt 0.041474 0.986624
vt 0.015275 0.986624
vt 0.982243 0.023534
vt 0.982243 0.590593
vt 0.945259 0.622243
vt 0.956044 0.023534
vt 0.982243 0.986624
vt 0.956044 0.986624
vt 0.921249 0.023534
vt 0.905987 0.646174
vt 0.105128 0.538054
vt 0.076268 0.023534
vt 0.921249 0.986624
vt 0.076268 0.986624
vt 0.024743 0.008014
vt 0.093074 0.323157
vt 0.024743 0.008014
vt 0.912361 0.386119
vt 0.024743 0.008014
vt 0.094926 0.356169
vt 0.024743 0.008014
vt 0.911382 0.426069
vt 0.024743 0.008014
vt 0.091919 0.743357
vt 0.024743 0.008014
vt 0.912972 0.801992
vt 0.024743 0.008014
vt 0.089805 0.776215
vt 0.024743 0.008014
vt 0.914090 0.826931
vn 0.000000 1.000000 0.000000
vn 0.000000 1.000000 0.000000
vn 0.000000 1.000000 0.000000
vn 0.000000 1.000000 0.000000
vn 0.000000 1.000000 0.000000
vn 0.000000 1.000000 0.000000
vn 0.000000 1.000000 0.000000
vn 0.000000 1.000000 0.000000
vn 0.000000 1.000000 0.000000
vn 0.000000 1.000000 0.000000
vn 0.000000 1.000000 0.000000
vn 0.000000 1.000000 -0.000000
vn 0.000000 1.000000 0.000000
vn 0.000000 1.000000 0.000000
vn 0.000000 1.000000 0.000000
vn 0.000000 1.000000 0.000000
vn 0.000000 1.000000 0.000000
vn 0.000000 1.000000 0.000000
vn 0.000000 1.000000 0.000000
vn 0.000000 1.000000 0.000000
vn 0.000000 1.000000 0.000000
vn 0.000000 1.000000 0.000000
vn 0.000000 1.000000 -0.000000
vn 0.000000 1.000000 0.000000
vn 0.000000 1.000000 0.000000
vn 0.000000 1.000000 -0.000000
vn 0.000000 1.000000 -0.000000
vn 0.000000 1.000000 -0.000000
vn 0.000000 1.000000 -0.000000
vn 0.000000 1.000000 -0.000000
vn 0.000000 1.000000 0.000000
vn 0.000000 1.000000 0.000000
vn 0.000000 1.000000 0.000000
vn 0.000000 1.000000 0.000000
vn 0.000000 1.000000 0.000000
vn 0.000000 1.000000 0.000000
vn 0.000000 1.000000 0.000000
vn 0.000000 1.000000 0.000000
vn 0.000000 1.000000 0.000000
vn 0.000000 1.000000 0.000000
vn 0.000000 1.000000 0.000000
vn 0.000000 1.000000 0.000000
vn 0.000000 1.000000 0.000000
vn 0.000000 1.000000 0.000000
vn 0.000000 1.000000 0.000000
vn 0.000000 1.000000 0.000000
vn 0.000000 1.000000 0.000000
vn 0.000000 1.000000 0.000000
vn 0.000000 1.000000 0.000000
vn 0.000000 1.000000 0.000000
vn 0.000000 1.000000 0.000000
vn 0.000000 1.000000 0.000000
vn 0.000000 1.000000 0.000000
vn 0.000000 1.000000 0.000000
vn 0.000000 1.000000 -0.000000
vn 0.000000 1.000000 -0.000000
vn 0.000000 1.000000 0.000000
vn 0.000000 1.000000 0.000000
vn 0.000000 1.000000 0.000000
vn 0.000000 1.000000 0.000000
vn 0.000000 1.000000 0.000000
vn 0.000000 1.000000 0.000000
vn 0.000000 1.000000 0.000000
vn 0.000000 1.000000 -0.000000
vn 0.000000 1.000000 -0.000000
vn 0.000000 1.000000 0.000000
vn 0.000000 1.000000 0.000000
vn 0.000000 1.000000 -0.000000
vn 0.000000 1.000000 -0.000000
vn 0.000000 1.000000 0.000000
vn 0.000000 1.000000 0.000000
vn 0.000000 1.000000 0.000000
vn 0.000000 1.000000 0.000000
vn 0.000000 1.000000 0.000000
vn 0.000000 1.000000 0.000000
vn 0.000000 1.000000 -0.000000
vn 0.000000 1.000000 -0.000000
vn 0.000000 1.000000 0.000000
vn 0.000000 1.000000 -0.000000
vn 0.000000 1.000000 0.000000
s off
f 21/35/1 5/2/2 6/3/3
f 6/3/4 25/43/5 3/5/6 1/6/7
f 11/8/8 12/9/9 22/37/10
f 26/45/11 11/8/12 7/11/13 9/12/14
f 15/15/15 6/14/16 1/17/17 13/18/18
f 11/21/19 18/20/20 16/23/21 7/24/22
f 22/38/23 12/26/24 5/27/25 21/36/26
f 25/44/27 26/46/28 9/29/29 3/30/30
f 2/13/31 6/14/32 15/15/33 14/16/34
f 4/1/35 19/31/36 6/3/37 2/4/38
f 10/25/39 20/34/40 19/32/41 4/28/42
f 8/7/43 11/8/44 20/33/45 10/10/46
f 17/19/47 18/20/48 11/21/49 8/22/50
f 19/31/51 21/35/52 6/3/53
f 20/34/54 22/38/55 21/36/56 19/32/57
f 11/8/58 22/37/59 20/33/60
f 6/3/61 5/2/62 23/39/63
f 5/27/64 12/26/65 24/42/66 23/40/67
f 12/9/68 11/8/69 24/41/70
f 6/3/71 23/39/72 25/43/73
f 23/40/74 24/42/75 26/46/76 25/44/77
f 24/41/78 11/8/79 26/45/80
