# This file uses meters as units for non-parametric coordinates.

v 0.000000 0.000000 0.000000
v 500.000000 0.000000 0.000000
v 0.000000 0.000000 -500.000000
v 500.000000 0.000000 -500.000000
v 0.000000 0.000000 -360.842896
v 500.000000 0.000000 -354.231262
v 253.379822 0.000000 -500.000000
v 249.266052 0.000000 -359.619904
v 247.523499 3.420928 -353.127289
v 246.991730 0.000000 0.000000
v 258.026123 1.080331 -361.337280
v 255.281067 0.000000 -353.604126
v 6.583405 0.000000 -356.146240
v 7.658386 0.000000 -362.937164
v 496.640015 2.436665 -351.222992
v 496.640778 0.000000 -357.238770
v 496.640015 0.084238 -6.222534
v 250.182343 0.000000 -6.304932
v 244.106293 0.118265 -6.288910
v 3.358459 0.000000 -3.950500
v 494.528198 0.000000 -496.047974
v 256.545258 0.021234 -493.815613
v 250.475311 0.000000 -493.782043
v 2.738953 1.881625 -493.897247
v 0.000000 0.000000 -197.219086
v 5.187225 0.000000 -196.265411
v 248.365021 1.991483 -192.194092
v 255.395508 0.000000 -192.471405
v 496.640015 1.418497 -194.456100
v 500.000000 0.000000 -193.469238
v 0.000000 0.000000 -189.311218
v 5.094910 0.000000 -188.605881
v 248.267365 1.896521 -184.688675
v 255.248260 -1.628447 -184.953018
v 496.640015 1.350857 -187.003708
v 500.000000 0.000000 -185.751343
vt 0.102266 0.271726
vt 0.102266 0.271726
vt 0.102266 0.271726
vt 0.102266 0.271726
vt 0.102266 0.271726
vt 0.102266 0.271726
vt 0.102266 0.271726
vt 0.102266 0.271726
vt 0.102266 0.271726
vt 0.102266 0.271726
vt 0.102266 0.271726
vt 0.099160 0.277301
vt 0.102266 0.271726
vt 0.102266 0.271726
vt 0.099160 0.277301
vt 0.102266 0.271726
vt 0.101879 0.299974
vt 0.099160 0.277301
vt 0.099160 0.277301
vt 0.102266 0.271726
vt 0.102266 0.271726
vt 0.102618 0.277301
vt 0.102266 0.271726
vt 0.102266 0.271726
vt 0.101879 0.299974
vt 0.102266 0.271726
vt 0.101879 0.299974
vt 0.102266 0.271726
vt 0.102266 0.271726
vt 0.102266 0.271726
vt 0.101879 0.299974
vt 0.102266 0.271726
vt 0.102266 0.271726
vt 0.102266 0.271726
vt 0.101879 0.299974
vt 0.102266 0.271726
vt 0.102266 0.271726
vt 0.099160 0.277301
vt 0.102266 0.271726
vt 0.102266 0.271726
vt 0.101879 0.299974
vt 0.102266 0.271726
vt 0.102266 0.271726
vt 0.101879 0.299974
vt 0.099160 0.277301
vt 0.102618 0.277301
vt 0.102266 0.271726
vt 0.101879 0.299974
vt 0.102266 0.271726
vt 0.099160 0.277301
vt 0.102266 0.271726
vt 0.102266 0.271726
vt 0.101879 0.299974
vt 0.102266 0.271726
vt 0.101879 0.299974
vt 0.102266 0.271726
vt 0.102266 0.271726
vt 0.101879 0.299974
vt 0.102266 0.271726
vt 0.101879 0.299974
vt 0.101879 0.299974
vt 0.102266 0.271726
vt 0.101879 0.299974
vt 0.102266 0.271726
vt 0.102266 0.271726
vt 0.099160 0.277301
vt 0.102266 0.271726
vt 0.099160 0.277301
vt 0.101879 0.299974
vt 0.101879 0.299974
vt 0.099160 0.277301
vt 0.099160 0.277301
vt 0.099160 0.277301
vt 0.099160 0.277301
vt 0.099160 0.277301
vt 0.099160 0.277301
vt 0.102618 0.277301
vt 0.102618 0.277301
vt 0.102266 0.271726
vt 0.101879 0.299974
vt 0.102266 0.271726
vt 0.102266 0.271726
vt 0.101879 0.299974
vt 0.101879 0.299974
vt 0.102266 0.271726
vt 0.102266 0.271726
vt 0.101879 0.299974
vt 0.102266 0.271726
vt 0.102266 0.271726
vt 0.101879 0.299974
vt 0.102266 0.271726
vt 0.102266 0.271726
vt 0.101879 0.299974
vt 0.101879 0.299974
vt 0.102266 0.271726
vt 0.102266 0.271726
vt 0.101879 0.299974
vt 0.102266 0.271726
vt 0.099380 0.278387
vt 0.099380 0.278387
vt 0.099380 0.278387
vt 0.099380 0.278387
vt 0.099380 0.278387
vt 0.099380 0.278387
vt 0.099380 0.278387
vt 0.099380 0.278387
vt 0.099380 0.278387
vt 0.099380 0.278387
vt 0.099380 0.278387
vt 0.099380 0.278387
vn -0.001483 0.995139 -0.098467
vn -0.001483 0.995139 -0.098467
vn -0.001483 0.995139 -0.098467
vn -0.001483 0.995139 -0.098467
vn -0.000170 0.999977 0.006726
vn -0.000170 0.999977 0.006726
vn -0.000170 0.999977 0.006726
vn -0.000170 0.999977 0.006726
vn 0.002327 0.999990 -0.003935
vn 0.002327 0.999990 -0.003935
vn 0.002327 0.999990 -0.003935
vn 0.002327 0.999990 -0.003935
vn -0.181862 0.983272 0.010162
vn -0.181862 0.983272 0.010162
vn -0.181862 0.983272 0.010162
vn -0.181862 0.983272 0.010162
vn 0.000000 1.000000 0.000000
vn 0.000000 1.000000 0.000000
vn 0.000000 1.000000 0.000000
vn -0.074531 0.997211 -0.003885
vn -0.074531 0.997211 -0.003885
vn -0.074531 0.997211 -0.003885
vn -0.074531 0.997211 -0.003885
vn 0.358201 0.862215 -0.358159
vn 0.358201 0.862215 -0.358159
vn 0.358201 0.862215 -0.358159
vn 0.019485 0.999762 0.009861
vn 0.019485 0.999762 0.009861
vn 0.019485 0.999762 0.009861
vn -0.000187 0.999933 0.011541
vn -0.000187 0.999933 0.011541
vn -0.000187 0.999933 0.011541
vn -0.000187 0.999933 0.011541
vn -0.003580 0.968212 -0.250104
vn -0.003580 0.968212 -0.250104
vn -0.003580 0.968212 -0.250104
vn -0.003580 0.968212 -0.250104
vn 0.003796 0.999968 0.007044
vn 0.003796 0.999968 0.007044
vn 0.003796 0.999968 0.007044
vn 0.003796 0.999968 0.007044
vn 0.318574 0.878580 -0.355819
vn 0.318574 0.878580 -0.355819
vn 0.318574 0.878580 -0.355819
vn 0.000000 1.000000 0.000000
vn 0.000000 1.000000 0.000000
vn 0.000000 1.000000 0.000000
vn 0.000000 1.000000 0.000000
vn -0.102032 0.989536 0.102020
vn -0.102032 0.989536 0.102020
vn -0.102032 0.989536 0.102020
vn 0.498237 0.867036 0.002780
vn 0.498237 0.867036 0.002780
vn 0.494722 0.869047 0.002822
vn 0.491470 0.870890 0.002861
vn -0.007998 0.999934 0.008261
vn -0.007998 0.999935 0.008103
vn -0.007991 0.999963 0.003206
vn -0.007991 0.999963 0.003206
vn 0.345014 0.938563 0.008049
vn 0.344937 0.938594 0.007727
vn 0.343841 0.939022 0.003147
vn 0.343841 0.939022 0.003147
vn -0.011102 0.999928 0.004513
vn -0.011099 0.999928 0.004515
vn -0.011244 0.999927 0.004436
vn -0.011244 0.999927 0.004436
vn 0.000000 1.000000 0.000000
vn 0.000000 1.000000 0.000000
vn 0.000000 1.000000 0.000000
vn 0.000000 1.000000 0.000000
vn 0.000034 0.999998 -0.002087
vn 0.000034 0.999998 -0.002087
vn 0.000034 0.999998 -0.002087
vn 0.000034 0.999998 -0.002087
vn -0.003507 0.999993 -0.001638
vn -0.003507 0.999993 -0.001638
vn -0.003507 0.999993 -0.001638
vn 0.003746 0.988539 -0.150920
vn 0.003746 0.988539 -0.150920
vn 0.003746 0.988539 -0.150920
vn 0.003746 0.988539 -0.150920
vn 0.000000 1.000000 0.000000
vn 0.000000 1.000000 0.000000
vn 0.000000 1.000000 0.000000
vn 0.000000 1.000000 0.000000
vn -0.004338 0.999979 0.004884
vn -0.004337 0.999979 0.004884
vn -0.011099 0.999928 0.004515
vn -0.011102 0.999928 0.004513
vn 0.273236 0.961875 0.011812
vn 0.273531 0.961787 0.012115
vn 0.344937 0.938594 0.007727
vn 0.345014 0.938563 0.008049
vn -0.006355 0.999975 0.003248
vn -0.006359 0.999974 0.003476
vn -0.007998 0.999935 0.008103
vn -0.007998 0.999934 0.008261
vn 0.491470 0.870890 0.002861
vn 0.494722 0.869047 0.002822
vn 0.216517 0.976273 0.003432
vn 0.210174 0.977658 0.003404
vn 0.000000 1.000000 0.000000
vn 0.000000 1.000000 0.000000
vn 0.000000 1.000000 0.000000
vn 0.000000 1.000000 0.000000
vn -0.004179 0.999980 0.004830
vn -0.004179 0.999980 0.004830
vn -0.004337 0.999979 0.004884
vn -0.004338 0.999979 0.004884
vn 0.268899 0.963140 0.007353
vn 0.268899 0.963140 0.007353
vn 0.273531 0.961787 0.012115
vn 0.273236 0.961875 0.011812
vn -0.006284 0.999980 -0.001095
vn -0.006284 0.999980 -0.001095
vn -0.006359 0.999974 0.003476
vn -0.006355 0.999975 0.003248
vn 0.210174 0.977658 0.003404
vn 0.216517 0.976273 0.003432
vn 0.205246 0.978705 0.003382
vn 0.205246 0.978705 0.003382
s off
f 15/28/1 16/24/2 11/13/3 12/43/4
f 2/19/5 17/76/6 18/74/7 10/45/8
f 16/25/9 21/61/10 22/63/11 11/31/12
f 14/34/13 24/67/14 3/3/15 5/8/16
f 13/37/17 14/33/18 5/5/19
f 11/30/20 22/64/21 23/65/22 8/49/23
f 12/42/24 8/10/25 9/39/26
f 10/15/27 18/75/28 19/71/29
f 10/12/30 19/72/31 20/73/32 1/38/33
f 9/11/34 8/47/35 14/32/36 13/16/37
f 8/48/38 23/69/39 24/70/40 14/17/41
f 6/7/42 16/23/43 15/20/44
f 4/4/45 21/62/46 16/21/47 6/51/48
f 12/42/49 11/29/50 8/10/51
f 6/6/52 15/26/53 29/86/54 30/88/55
f 28/84/56 29/87/57 15/27/58 12/44/59
f 27/82/60 28/85/61 12/14/62 9/40/63
f 26/80/64 27/83/65 9/41/66 13/35/67
f 25/79/68 26/81/69 13/36/70 5/52/71
f 22/22/72 21/46/73 4/77/74 7/78/75
f 23/65/76 22/64/77 7/9/78
f 24/68/79 23/66/80 7/50/81 3/18/82
f 31/99/83 32/100/84 26/101/85 25/102/86
f 32/100/87 33/103/88 27/104/89 26/101/90
f 33/103/91 34/105/92 28/106/93 27/104/94
f 34/105/95 35/107/96 29/108/97 28/106/98
f 30/109/99 29/108/100 35/107/101 36/110/102
f 1/1/103 20/59/104 32/91/105 31/89/106
f 20/60/107 19/58/108 33/93/109 32/90/110
f 19/57/111 18/56/112 34/95/113 33/92/114
f 18/55/115 17/53/116 35/97/117 34/94/118
f 36/98/119 35/96/120 17/54/121 2/2/122
