# This file uses meters as units for non-parametric coordinates.

v 0.000000 0.000000 0.000000
v 500.000000 0.000000 0.000000
v 0.000000 0.000000 -500.000000
v 500.000000 0.000000 -500.000000
v 15.744019 0.000000 -500.000000
v 15.744019 0.000000 0.000000
v 484.446716 0.000000 -500.000000
v 484.446716 0.000000 0.000000
v 484.446716 0.000000 -100.000000
v 15.744019 0.000000 -400.000763
v 127.043152 0.000000 -409.294891
v 172.752380 0.000000 -364.524078
v 150.321960 0.000000 -365.169525
v 392.472839 0.000000 -73.358154
v 247.286987 0.000000 -202.411652
v 296.858215 0.000000 -180.034637
v 15.744019 0.000000 -377.606567
v 15.744019 0.000000 -103.872681
v 30.382156 0.000000 -366.201019
v 31.206060 0.000000 -114.995949
v 484.446716 0.000000 -124.710083
v 484.446716 0.000000 -383.165375
v 469.463501 0.000000 -369.548004
v 468.926727 0.000000 -136.650848
vt 0.024743 0.008014
vt 0.024743 0.008014
vt 0.024743 0.008014
vt 0.024743 0.008014
vt 0.024743 0.008014
vt 0.024743 0.008014
vt 0.024743 0.008014
vt 0.024743 0.008014
vt 0.024743 0.008014
vt 0.024743 0.008014
vt 0.024743 0.008014
vt 0.024743 0.008014
vt 0.024743 0.008014
vt 0.024743 0.008014
vt 0.024743 0.008014
vt 0.024743 0.008014
vt 0.024743 0.008014
vt 0.024743 0.008014
vt 0.982241 0.986623
vt 0.251536 0.811908
vt 0.347525 0.725673
vt 0.982241 0.216151
vt 0.300422 0.726916
vt 0.037247 0.986623
vt 0.037247 0.302664
vt 0.808935 0.164834
vt 0.504047 0.413415
vt 0.026260 0.453018
vt 0.608146 0.370313
vt 0.037247 0.023534
vt 0.982241 0.023534
vt 0.037247 0.794007
vt 0.056466 0.450515
vt 0.074433 0.296022
vt 0.026117 0.008827
vt 0.026117 0.008827
vt 0.026117 0.008827
vt 0.026117 0.008827
vt 0.024743 0.008014
vt 0.982241 0.263747
vt 0.024743 0.008014
vt 0.982241 0.805027
vt 0.953247 0.801402
vt 0.950637 0.286747
vt 0.026117 0.008827
vt 0.026117 0.008827
vt 0.026117 0.008827
vt 0.026117 0.008827
vn 0.000000 1.000000 0.000000
vn 0.000000 1.000000 0.000000
vn 0.000000 1.000000 0.000000
vn 0.000000 1.000000 0.000000
vn 0.000000 1.000000 0.000000
vn 0.000000 1.000000 0.000000
vn 0.000000 1.000000 0.000000
vn 0.000000 1.000000 0.000000
vn 0.000000 1.000000 0.000000
vn 0.000000 1.000000 0.000000
vn 0.000000 1.000000 0.000000
vn 0.000000 1.000000 0.000000
vn 0.000000 1.000000 0.000000
vn 0.000000 1.000000 0.000000
vn 0.000000 1.000000 0.000000
vn 0.000000 1.000000 0.000000
vn 0.000000 1.000000 0.000000
vn 0.000000 1.000000 0.000000
vn 0.000000 1.000000 0.000000
vn 0.000000 1.000000 0.000000
vn 0.000000 1.000000 0.000000
vn 0.000000 1.000000 0.000000
vn 0.000000 1.000000 0.000000
vn 0.000000 1.000000 0.000000
vn 0.000000 1.000000 0.000000
vn 0.000000 1.000000 0.000000
vn 0.000000 1.000000 0.000000
vn 0.000000 1.000000 0.000000
vn 0.000000 1.000000 0.000000
vn 0.000000 1.000000 0.000000
vn 0.000000 1.000000 0.000000
vn 0.000000 1.000000 0.000000
vn 0.000000 1.000000 0.000000
vn 0.000000 1.000000 0.000000
vn 0.000000 1.000000 0.000000
vn 0.000000 1.000000 0.000000
vn 0.000000 1.000000 0.000000
vn 0.000000 1.000000 0.000000
vn 0.000000 1.000000 0.000000
vn 0.000000 1.000000 0.000000
vn 0.000000 1.000000 0.000000
vn 0.000000 1.000000 0.000000
vn 0.000000 1.000000 0.000000
vn 0.000000 1.000000 0.000000
vn 0.000000 1.000000 0.000000
vn 0.000000 1.000000 0.000000
vn 0.000000 1.000000 0.000000
vn 0.000000 1.000000 0.000000
vn 0.000000 1.000000 0.000000
vn 0.000000 1.000000 0.000000
vn 0.000000 1.000000 0.000000
vn 0.000000 1.000000 0.000000
vn 0.000000 1.000000 0.000000
vn 0.000000 1.000000 0.000000
vn 0.000000 1.000000 0.000000
vn 0.000000 1.000000 0.000000
vn 0.000000 1.000000 0.000000
vn 0.000000 1.000000 0.000000
vn 0.000000 1.000000 0.000000
vn 0.000000 1.000000 0.000000
vn 0.000000 1.000000 0.000000
vn 0.000000 1.000000 0.000000
vn 0.000000 1.000000 0.000000
vn 0.000000 1.000000 0.000000
vn 0.000000 1.000000 0.000000
vn 0.000000 1.000000 0.000000
vn 0.000000 1.000000 0.000000
vn 0.000000 1.000000 0.000000
vn 0.000000 1.000000 0.000000
vn 0.000000 1.000000 0.000000
vn 0.000000 1.000000 0.000000
vn 0.000000 1.000000 0.000000
vn 0.000000 1.000000 0.000000
vn 0.000000 1.000000 0.000000
vn 0.000000 1.000000 0.000000
vn 0.000000 1.000000 0.000000
vn 0.000000 1.000000 0.000000
vn 0.000000 1.000000 0.000000
vn 0.000000 1.000000 0.000000
vn 0.000000 1.000000 0.000000
vn 0.000000 1.000000 0.000000
vn 0.000000 1.000000 0.000000
vn 0.000000 1.000000 0.000000
vn 0.000000 1.000000 0.000000
vn 0.000000 1.000000 0.000000
vn 0.000000 1.000000 0.000000
s off
f 7/1/1 22/41/2 21/39/3 9/2/4 4/5/5
f 8/3/6 2/4/7 9/2/8
f 9/2/9 2/4/10 4/5/11
f 17/7/12 10/8/13 3/6/14
f 3/6/15 10/8/16 5/9/17
f 9/2/18 16/10/19 14/11/20 8/3/21
f 10/8/22 15/12/23 16/10/24 13/13/25
f 13/13/26 16/10/27 9/2/28 12/14/29
f 10/8/30 13/13/31 11/15/32 5/9/33
f 1/16/34 6/17/35 18/18/36 17/7/37
f 1/16/38 17/7/39 3/6/40
f 21/40/41 24/44/42 12/21/43 9/22/44
f 11/20/45 13/23/46 12/21/47
f 5/24/48 11/20/49 7/19/50
f 19/33/51 20/34/52 14/26/53 15/27/54
f 14/26/55 16/29/56 15/27/57
f 6/30/58 8/31/59 14/26/60
f 10/32/61 19/33/62 15/27/63
f 6/30/64 14/26/65 20/34/66 18/25/67
f 18/35/68 20/36/69 19/37/70 17/38/71
f 17/28/72 19/33/73 10/32/74
f 7/19/75 11/20/76 12/21/77 23/43/78 22/42/79
f 22/45/80 23/46/81 24/47/82 21/48/83
f 24/44/84 23/43/85 12/21/86
