# This file uses meters as units for non-parametric coordinates.

v 0.000000 0.000000 0.000763
v 500.000000 0.000000 0.000763
v 0.000000 0.000000 -499.999237
v 500.000000 0.000000 -499.999237
v 15.744019 0.000000 -499.999237
v 15.744019 -0.000001 0.000763
v 484.446716 0.000000 -499.999237
v 484.446716 0.000000 0.000763
v 484.446716 0.000000 -99.999237
v 15.744019 0.000000 -400.000000
v 139.224243 0.000000 -398.466492
v 280.090332 0.000000 -273.252106
v 205.415344 0.000000 -320.948029
v 400.578308 0.000000 -66.152954
v 347.050476 0.000000 -113.732147
v 366.586304 0.000000 -111.401367
v 486.874298 0.000000 -268.332275
v 15.744019 0.000000 -378.039185
v 32.548714 0.000000 -364.632813
v 33.357430 0.000000 -116.772079
v 15.744019 0.000000 -103.384018
v 484.515472 0.000000 -118.072128
v 468.073029 0.000000 -130.553818
v 468.146362 0.000000 -270.201111
v 468.266479 0.000000 -495.240387
v 468.208893 0.000000 -372.193512
v 484.693420 0.000000 -390.314484
vt 0.026629 0.006756
vt 0.026629 0.006756
vt 0.026629 0.006756
vt 0.026629 0.006756
vt 0.026629 0.006756
vt 0.026629 0.006756
vt 0.026629 0.006756
vt 0.026629 0.006756
vt 0.026629 0.006756
vt 0.026629 0.006756
vt 0.026629 0.006756
vt 0.026629 0.006756
vt 0.026629 0.006756
vt 0.026629 0.006756
vt 0.026629 0.006756
vt 0.026629 0.006756
vt 0.026629 0.006756
vt 0.015275 0.986623
vt 0.257724 0.791053
vt 0.970430 0.986623
vt 0.398218 0.641739
vt 0.556721 0.549867
vt 0.024902 0.007612
vt 0.970430 0.216151
vt 0.033743 0.029452
vt 0.970430 0.023534
vt 0.812466 0.150958
vt 0.698849 0.242603
vt 0.740315 0.238113
vt 0.015275 0.794007
vt 0.026629 0.006756
vt 0.015275 0.751707
vt 0.049948 0.725884
vt 0.051617 0.216400
vt 0.026629 0.006756
vt 0.015275 0.190612
vt 0.026117 0.007612
vt 0.026117 0.007612
vt 0.026117 0.007612
vt 0.026117 0.007612
vt 0.026629 0.006756
vt 0.970430 0.250963
vt 0.937154 0.275005
vt 0.936012 0.543991
vt 0.937025 0.977457
vt 0.936327 0.770976
vt 0.026629 0.006756
vt 0.970430 0.805880
vt 0.024902 0.007612
vt 0.024902 0.007612
vt 0.024902 0.007612
vt 0.024902 0.007612
vt 0.024902 0.007612
vn 0.000000 1.000000 0.000000
vn 0.000000 1.000000 0.000000
vn 0.000000 1.000000 0.000000
vn 0.000000 1.000000 0.000000
vn 0.000000 1.000000 0.000000
vn 0.000000 1.000000 0.000000
vn 0.000000 1.000000 0.000000
vn 0.000000 1.000000 0.000000
vn 0.000000 1.000000 0.000000
vn 0.000000 1.000000 0.000000
vn 0.000000 1.000000 0.000000
vn 0.000000 1.000000 0.000000
vn 0.000000 1.000000 0.000000
vn 0.000000 1.000000 0.000000
vn 0.000000 1.000000 0.000000
vn 0.000000 1.000000 0.000000
vn 0.000000 1.000000 0.000000
vn 0.000000 1.000000 0.000000
vn 0.000000 1.000000 0.000000
vn 0.000000 1.000000 0.000000
vn 0.000000 1.000000 0.000000
vn 0.000000 1.000000 0.000000
vn 0.000000 1.000000 0.000000
vn 0.000000 1.000000 0.000000
vn 0.000000 1.000000 0.000000
vn 0.000000 1.000000 0.000000
vn 0.000000 1.000000 0.000000
vn 0.000000 1.000000 0.000000
vn 0.000000 1.000000 0.000000
vn 0.000000 1.000000 0.000000
vn 0.000000 1.000000 0.000000
vn 0.000000 1.000000 0.000000
vn 0.000000 1.000000 0.000000
vn 0.000000 1.000000 0.000000
vn 0.000000 1.000000 0.000000
vn 0.000000 1.000000 0.000000
vn 0.000000 1.000000 0.000000
vn 0.000000 1.000000 0.000000
vn 0.000000 1.000000 0.000000
vn 0.000000 1.000000 0.000000
vn 0.000000 1.000000 0.000000
vn 0.000000 1.000000 0.000000
vn 0.000000 1.000000 0.000000
vn 0.000000 1.000000 0.000000
vn 0.000000 1.000000 0.000000
vn 0.000000 1.000000 0.000000
vn 0.000000 1.000000 0.000000
vn 0.000000 1.000000 0.000000
vn 0.000000 1.000000 0.000000
vn 0.000000 1.000000 0.000000
vn 0.000000 1.000000 0.000000
vn 0.000000 1.000000 0.000000
vn -0.000000 1.000000 0.000000
vn -0.000000 1.000000 0.000000
vn -0.000000 1.000000 0.000000
vn -0.000000 1.000000 0.000000
vn 0.000000 1.000000 0.000000
vn 0.000000 1.000000 0.000000
vn 0.000000 1.000000 0.000000
vn 0.000000 1.000000 0.000000
vn 0.000000 1.000000 0.000000
vn 0.000000 1.000000 0.000000
vn 0.000000 1.000000 0.000000
vn 0.000000 1.000000 0.000000
vn -0.000000 1.000000 0.000000
vn -0.000000 1.000000 0.000000
vn 0.000000 1.000000 0.000000
vn 0.000000 1.000000 0.000000
vn 0.000000 1.000000 0.000000
vn 0.000000 1.000000 0.000000
vn 0.000000 1.000000 0.000000
vn 0.000000 1.000000 0.000000
vn 0.000000 1.000000 0.000000
vn 0.000000 1.000000 0.000000
vn 0.000000 1.000000 0.000000
vn 0.000000 1.000000 0.000000
vn 0.000000 1.000000 0.000000
vn 0.000000 1.000000 0.000000
vn 0.000000 1.000000 0.000000
vn -0.000000 1.000000 0.000000
vn -0.000000 1.000000 0.000000
vn 0.000000 1.000000 0.000000
vn -0.000000 1.000000 0.000000
vn 0.000000 1.000000 0.000000
vn 0.000000 1.000000 0.000000
vn 0.000000 1.000000 0.000000
vn 0.000000 1.000000 0.000000
vn 0.000000 1.000000 0.000000
vn 0.000000 1.000000 0.000000
vn 0.000000 1.000000 0.000000
vn 0.000000 1.000000 0.000000
vn 0.000000 1.000000 0.000000
vn 0.000000 1.000000 0.000000
vn 0.000000 1.000000 0.000000
vn 0.000000 1.000000 0.000000
vn 0.000000 1.000000 0.000000
vn 0.000000 1.000000 0.000000
vn 0.000000 1.000000 0.000000
vn 0.000000 1.000000 0.000000
vn 0.000000 1.000000 0.000000
vn 0.000000 1.000000 0.000000
vn 0.000000 1.000000 0.000000
vn 0.000000 1.000000 0.000000
vn 0.000000 1.000000 0.000000
s off
f 4/1/1 17/2/2 2/3/3
f 21/35/4 1/4/5 6/5/6
f 5/7/7 3/8/8 10/6/9
f 9/9/10 16/10/11 14/11/12 8/12/13
f 10/6/14 15/13/15 16/10/16 13/14/17
f 13/14/18 16/10/19 9/9/20 12/15/21
f 10/6/22 13/14/23 11/16/24 5/7/25
f 7/17/26 27/47/27 4/1/28
f 17/2/29 22/41/30 9/9/31 2/3/32
f 2/3/33 9/9/34 8/12/35
f 5/18/36 11/19/37 25/45/38 7/20/39
f 11/19/40 13/21/41 12/22/42
f 24/44/43 11/19/44 12/22/45
f 22/42/46 23/43/47 12/22/48 9/24/49
f 24/44/50 26/46/51 11/19/52
f 6/25/53 8/26/54 14/27/55 15/28/56
f 14/27/57 16/29/58 15/28/59
f 18/32/60 19/33/61 10/30/62
f 19/33/63 20/34/64 15/28/65
f 6/25/66 20/34/67 21/36/68
f 21/37/69 20/38/70 19/39/71 18/40/72
f 3/8/73 1/4/74 21/35/75 18/31/76 10/6/77
f 10/30/78 19/33/79 15/28/80
f 15/28/81 20/34/82 6/25/83
f 23/43/84 24/44/85 12/22/86
f 17/23/87 24/49/88 23/50/89 22/51/90
f 7/20/91 25/45/92 26/46/93 27/48/94
f 27/52/95 26/53/96 24/49/97 17/23/98
f 4/1/99 27/47/100 17/2/101
f 11/19/102 26/46/103 25/45/104
