# This file uses meters as units for non-parametric coordinates.

v -186.696701 -60.698017 9.293953
v 186.696640 -60.698017 9.293953
v 186.696640 60.697998 9.293953
v -186.696701 60.697998 9.293953
v -192.328720 -64.713280 0.000063
v 192.328751 -64.713280 0.000063
v 192.328751 64.713257 0.000063
v -192.328720 64.713257 0.000063
v 191.964813 -55.926640 9.293953
v 191.964813 55.926674 9.293953
v 197.755920 -59.626282 0.000063
v 197.755920 59.626263 0.000063
v -191.964813 -55.926640 9.293953
v -191.964813 55.926674 9.293953
v -197.755905 59.626263 0.000063
v -197.755905 -59.626282 0.000063
vt 0.688712 0.755955
vt 0.988125 0.755955
vt 0.988125 0.850387
vt 0.688712 0.850387
vt 0.854580 0.647388
vt 0.854580 0.647388
vt 0.854580 0.647388
vt 0.854580 0.647388
vt 0.854580 0.647389
vt 0.854580 0.647388
vt 0.854580 0.647388
vt 0.854580 0.647388
vt 0.854580 0.647388
vt 0.854580 0.647388
vt 0.854580 0.647389
vt 0.854580 0.647389
vt 0.854580 0.647388
vt 0.854580 0.647389
vt 0.854580 0.647388
vt 0.854580 0.647388
vn 0.000000 0.000000 1.000000
vn 0.000000 0.000000 1.000000
vn 0.000000 0.000000 1.000000
vn 0.000000 0.000000 1.000000
vn 0.000000 -0.917991 0.396602
vn 0.000000 -0.917991 0.396602
vn 0.000000 -0.917991 0.396602
vn 0.000000 -0.917991 0.396602
vn 0.848719 0.000000 0.528844
vn 0.848719 0.000000 0.528844
vn 0.848719 0.000000 0.528844
vn 0.848719 0.000000 0.528844
vn 0.000000 0.917991 0.396601
vn 0.000000 0.917991 0.396601
vn 0.000000 0.917991 0.396601
vn 0.000000 0.917991 0.396601
vn -0.848719 0.000000 0.528843
vn -0.848719 0.000000 0.528843
vn -0.848719 0.000000 0.528843
vn -0.848719 0.000000 0.528843
vn -0.000000 0.000000 1.000000
vn -0.000000 0.000000 1.000000
vn -0.000000 0.000000 1.000000
vn -0.000000 0.000000 1.000000
vn 0.549575 -0.596233 0.585212
vn 0.549575 -0.596233 0.585212
vn 0.549575 -0.596233 0.585212
vn 0.549575 -0.596233 0.585212
vn 0.549574 0.596236 0.585211
vn 0.549574 0.596236 0.585211
vn 0.549574 0.596236 0.585211
vn 0.549574 0.596236 0.585211
vn 0.000000 0.000000 1.000000
vn 0.000000 0.000000 1.000000
vn 0.000000 0.000000 1.000000
vn 0.000000 0.000000 1.000000
vn -0.549577 0.596234 0.585210
vn -0.549577 0.596234 0.585210
vn -0.549577 0.596234 0.585210
vn -0.549577 0.596234 0.585210
vn -0.549577 -0.596232 0.585211
vn -0.549578 -0.596232 0.585211
vn -0.549577 -0.596232 0.585211
vn -0.549578 -0.596232 0.585211
vn -0.000000 0.000000 -1.000000
vn -0.000000 0.000000 -1.000000
vn -0.000000 0.000000 -1.000000
vn -0.000000 0.000000 -1.000000
vn -0.000000 0.000000 -1.000000
vn -0.000000 0.000000 -1.000000
vn -0.000000 0.000000 -1.000000
vn -0.000000 0.000000 -1.000000
s off
f 1/1/1 2/2/2 3/3/3 4/4/4
f 2/5/5 1/6/6 5/7/7 6/8/8
f 10/9/9 9/10/10 11/11/11 12/12/12
f 4/13/13 3/14/14 7/15/15 8/16/16
f 13/17/17 14/18/18 15/19/19 16/20/20
f 3/14/21 2/5/22 9/10/23 10/9/24
f 2/5/25 6/8/26 11/11/27 9/10/28
f 7/15/29 3/14/30 10/9/31 12/12/32
f 1/6/33 4/13/34 14/18/35 13/17/36
f 4/13/37 8/16/38 15/19/39 14/18/40
f 5/7/41 1/6/42 13/17/43 16/20/44
f 6/8/45 5/7/46 16/20/47 15/19/48 8/16/49 7/15/50 12/12/51 11/11/52
