# This file uses meters as units for non-parametric coordinates.

v 63.491539 0.952222 19.964218
v 209.927841 0.952222 19.964218
v 84.151649 23.783255 19.964218
v 189.267746 23.783255 19.964218
v 84.151649 23.783255 -19.964218
v 189.267746 23.783255 -19.964218
v 63.491539 0.952222 -19.964218
v 209.927841 0.952222 -19.964218
v -0.056553 0.952222 12.478256
v 499.943420 0.952222 12.478256
v -0.056553 32.406715 12.478256
v 499.943420 32.406715 12.478256
v -0.056553 32.406715 -12.480545
v 499.943420 32.406715 -12.480545
v -0.056553 0.952222 -12.480545
v 499.943420 0.952222 -12.480545
v -0.056553 42.023468 7.171631
v 499.943420 42.023468 7.171631
v 499.943420 42.023468 -7.175827
v -0.056553 42.023468 -7.175827
v -0.056553 91.721901 7.171631
v 499.943420 91.721901 7.171631
v 499.943420 91.721901 -7.175827
v -0.056553 91.721901 -7.175827
v -0.056553 95.098045 10.443497
v 499.943420 95.098045 10.443497
v 499.943420 95.098045 -10.447693
v -0.056553 95.098045 -10.447693
v -0.056553 109.414436 10.443497
v 499.943420 109.414436 10.443497
v 499.943420 109.414436 -10.447693
v -0.056553 109.414436 -10.447693
v -0.056553 112.471054 6.537247
v 499.943420 112.471054 6.537247
v 499.943420 112.471054 -6.541443
v -0.056553 112.471054 -6.541443
v -0.056553 -4.493556 -6.197739
v 499.943420 -4.493556 -6.197739
v 499.943420 -4.493556 6.195450
v -0.056553 -4.493556 6.195450
v 294.985077 0.952222 19.964218
v 441.421387 0.952222 19.964218
v 315.645203 23.783255 19.964218
v 420.761292 23.783255 19.964218
v 315.645203 23.783255 -19.964218
v 420.761292 23.783255 -19.964218
v 294.985077 0.952222 -19.964218
v 441.421387 0.952222 -19.964218
v 241.971115 -2.704838 18.206787
v 257.915771 -2.704838 18.206787
v 241.971115 30.812645 18.206787
v 257.915771 30.812645 18.206787
v 241.971115 30.812645 -16.005707
v 257.915771 30.812645 -16.005707
v 241.971115 -2.704838 -16.005707
v 257.915771 -2.704838 -16.005707
v 241.971115 45.135559 10.464859
v 257.915771 45.135559 10.464859
v 257.915771 45.135559 -10.469055
v 241.971115 45.135559 -10.469055
v 241.971115 89.057526 10.464859
v 257.915771 89.057526 10.464859
v 257.915771 89.057526 -10.469055
v 241.971115 89.057526 -10.469055
v 241.971115 92.655113 15.238571
v 257.915771 92.655113 15.238571
v 257.915771 92.655113 -15.242767
v 241.971115 92.655113 -15.242767
v 241.971115 112.871025 15.238571
v 257.915771 112.871025 15.238571
v 257.915771 112.871025 -15.242767
v 241.971115 112.871025 -15.242767
v 241.971115 116.128105 9.539413
v 257.915771 116.128105 9.539413
v 257.915771 116.128105 -9.543610
v 241.971115 116.128105 -9.543610
v 241.971115 -9.348259 -11.681747
v 257.915771 -9.348259 -11.681747
v 257.915771 -9.348259 11.679459
v 241.971115 -9.348259 11.679459
v 349.287506 107.937477 -10.705566
v 349.287506 98.204376 -10.447693
v 349.287506 91.721901 -7.175827
v 134.007645 39.455292 -7.175827
v 139.457123 29.502836 -12.480545
v 134.007645 0.952222 -12.480545
v 134.007645 -4.493556 -6.197739
v 134.007645 -4.493556 6.195450
v 134.007645 0.952222 12.478256
v 180.139252 30.266048 12.478256
v 134.007645 42.023472 7.171631
v 349.287506 91.721901 7.171631
v 349.287506 97.322868 10.443115
v 109.961418 105.929726 10.443115
v 109.961418 112.471054 5.505371
v 349.287506 112.471054 -4.740143
vt 0.244155 0.278008
vt 0.244155 0.278008
vt 0.244155 0.278008
vt 0.244155 0.278008
vt 0.244155 0.278008
vt 0.244155 0.278008
vt 0.244155 0.278008
vt 0.244155 0.278008
vt 0.244155 0.278008
vt 0.244155 0.278008
vt 0.244155 0.278008
vt 0.244155 0.278008
vt 0.244155 0.278008
vt 0.244155 0.278008
vt 0.254535 0.302228
vt 0.254535 0.302228
vt 0.245193 0.254826
vt 0.245193 0.254826
vt 0.254535 0.302228
vt 0.254535 0.302228
vt 0.254535 0.302228
vt 0.254535 0.302228
vt 0.245193 0.254826
vt 0.245193 0.254826
vt 0.254535 0.302228
vt 0.254535 0.302228
vt 0.254535 0.302228
vt 0.254535 0.302228
vt 0.254535 0.302228
vt 0.254535 0.302228
vt 0.254535 0.302228
vt 0.254535 0.302228
vt 0.254535 0.302228
vt 0.254535 0.302228
vt 0.245193 0.254826
vt 0.245193 0.254826
vt 0.245193 0.254826
vt 0.245193 0.254826
vt 0.245193 0.254826
vt 0.245193 0.254826
vt 0.245193 0.254826
vt 0.245193 0.254826
vt 0.254535 0.302228
vt 0.254535 0.302228
vt 0.254535 0.302228
vt 0.254535 0.302228
vt 0.254535 0.302228
vt 0.254535 0.302228
vt 0.254535 0.302228
vt 0.254535 0.302228
vt 0.254535 0.302228
vt 0.254535 0.302228
vt 0.244155 0.278008
vt 0.244155 0.278008
vt 0.244155 0.278008
vt 0.244155 0.278008
vt 0.244155 0.278008
vt 0.244155 0.278008
vt 0.244155 0.278008
vt 0.244155 0.278008
vt 0.244155 0.278008
vt 0.244155 0.278008
vt 0.244155 0.278008
vt 0.244155 0.278008
vt 0.244155 0.278008
vt 0.244155 0.278008
vt 0.244155 0.278008
vt 0.244155 0.278008
vt 0.244155 0.278008
vt 0.244155 0.278008
vt 0.244155 0.278008
vt 0.244155 0.278008
vt 0.244155 0.278008
vt 0.244155 0.278008
vt 0.244155 0.278008
vt 0.244155 0.278008
vt 0.244155 0.278008
vt 0.244155 0.278008
vt 0.244155 0.278008
vt 0.244155 0.278008
vt 0.244155 0.278008
vt 0.244155 0.278008
vt 0.244155 0.278008
vt 0.244155 0.278008
vt 0.244155 0.278008
vt 0.244155 0.278008
vt 0.244155 0.278008
vt 0.244155 0.278008
vt 0.244155 0.278008
vt 0.244155 0.278008
vt 0.244155 0.278008
vt 0.244155 0.278008
vt 0.244155 0.278008
vt 0.244155 0.278008
vt 0.244155 0.278008
vt 0.244155 0.278008
vt 0.244155 0.278008
vt 0.244155 0.278008
vt 0.244155 0.278008
vt 0.244155 0.278008
vt 0.244155 0.278008
vt 0.244155 0.278008
vt 0.244155 0.278008
vt 0.244155 0.278008
vt 0.244155 0.278008
vt 0.244155 0.278008
vt 0.244155 0.278008
vt 0.244155 0.278008
vt 0.244155 0.278008
vt 0.244155 0.278008
vt 0.244155 0.278008
vt 0.244155 0.278008
vt 0.244155 0.278008
vt 0.244155 0.278008
vt 0.244155 0.278008
vt 0.244155 0.278008
vt 0.244155 0.278008
vt 0.244155 0.278008
vt 0.244155 0.278008
vt 0.244155 0.278008
vt 0.244155 0.278008
vt 0.244155 0.278008
vt 0.244155 0.278008
vt 0.244155 0.278008
vt 0.244155 0.278008
vt 0.244155 0.278008
vt 0.244155 0.278008
vt 0.244155 0.278008
vt 0.244155 0.278008
vt 0.244155 0.278008
vt 0.244155 0.278008
vt 0.244155 0.278008
vt 0.244155 0.278008
vt 0.244155 0.278008
vt 0.244155 0.278008
vt 0.244155 0.278008
vt 0.244155 0.278008
vt 0.244155 0.278008
vt 0.244155 0.278008
vt 0.244155 0.278008
vt 0.244155 0.278008
vt 0.244155 0.278008
vt 0.244155 0.278008
vt 0.244155 0.278008
vt 0.244155 0.278008
vt 0.244155 0.278008
vt 0.244155 0.278008
vt 0.244155 0.278008
vt 0.244155 0.278008
vt 0.244155 0.278008
vt 0.244155 0.278008
vt 0.244155 0.278008
vt 0.244155 0.278008
vt 0.244155 0.278008
vt 0.244155 0.278008
vt 0.244155 0.278008
vt 0.244155 0.278008
vt 0.244155 0.278008
vt 0.244155 0.278008
vt 0.244155 0.278008
vt 0.244155 0.278008
vt 0.244155 0.278008
vt 0.244155 0.278008
vt 0.244155 0.278008
vt 0.244155 0.278008
vt 0.244155 0.278008
vt 0.244155 0.278008
vt 0.244155 0.278008
vt 0.244155 0.278008
vt 0.244155 0.278008
vt 0.244155 0.278008
vt 0.244155 0.278008
vt 0.244155 0.278008
vt 0.244155 0.278008
vt 0.244155 0.278008
vt 0.244155 0.278008
vt 0.244155 0.278008
vt 0.244155 0.278008
vt 0.244155 0.278008
vt 0.244155 0.278008
vt 0.244155 0.278008
vt 0.244155 0.278008
vt 0.244155 0.278008
vt 0.244155 0.278008
vt 0.244155 0.278008
vt 0.244155 0.278008
vt 0.244155 0.278008
vt 0.244155 0.278008
vt 0.244155 0.278008
vt 0.244155 0.278008
vt 0.244155 0.278008
vt 0.244155 0.278008
vt 0.244155 0.278008
vt 0.244155 0.278008
vt 0.244155 0.278008
vt 0.244155 0.278008
vt 0.244155 0.278008
vt 0.244155 0.278008
vt 0.244155 0.278008
vt 0.244155 0.278008
vt 0.244155 0.278008
vt 0.244155 0.278008
vt 0.244155 0.278008
vt 0.244155 0.278008
vt 0.244155 0.278008
vt 0.244155 0.278008
vt 0.245193 0.254826
vt 0.245193 0.254826
vt 0.245193 0.254826
vt 0.245193 0.254826
vt 0.245193 0.254826
vt 0.245193 0.254826
vt 0.245193 0.254826
vt 0.245193 0.254826
vt 0.245193 0.254826
vt 0.245193 0.254826
vt 0.245193 0.254826
vt 0.245193 0.254826
vt 0.245193 0.254826
vt 0.245193 0.254826
vt 0.245193 0.254826
vt 0.245193 0.254826
vt 0.245193 0.254826
vt 0.245193 0.254826
vt 0.245193 0.254826
vt 0.245193 0.254826
vt 0.245193 0.254826
vt 0.245193 0.254826
vt 0.245193 0.254826
vt 0.245193 0.254826
vt 0.245193 0.254826
vt 0.245193 0.254826
vt 0.245193 0.254826
vt 0.245193 0.254826
vt 0.245193 0.254826
vt 0.245193 0.254826
vt 0.245193 0.254826
vt 0.245193 0.254826
vt 0.254535 0.302228
vt 0.245193 0.254826
vt 0.254535 0.302228
vt 0.245193 0.254826
vt 0.254535 0.302228
vt 0.245193 0.254826
vt 0.254535 0.302228
vt 0.245193 0.254826
vt 0.254535 0.302228
vt 0.245193 0.254826
vt 0.254535 0.302228
vt 0.245193 0.254826
vt 0.245193 0.254826
vt 0.245193 0.254826
vt 0.245193 0.254826
vt 0.254535 0.302228
vt 0.245193 0.254826
vt 0.254535 0.302228
vt 0.254535 0.302228
vt 0.254535 0.302228
vt 0.254535 0.302228
vt 0.254535 0.302228
vt 0.245193 0.254826
vt 0.254535 0.302228
vt 0.245193 0.254826
vt 0.245193 0.254826
vt 0.245193 0.254826
vt 0.245193 0.254826
vt 0.254535 0.302228
vt 0.245193 0.254826
vt 0.254535 0.302228
vt 0.254535 0.302228
vt 0.254535 0.302228
vn 0.000000 0.000000 1.000000
vn 0.000000 0.000000 1.000000
vn 0.000000 0.000000 1.000000
vn 0.000000 0.000000 1.000000
vn 0.000000 1.000000 0.000000
vn 0.000000 1.000000 0.000000
vn 0.000000 1.000000 0.000000
vn 0.000000 1.000000 0.000000
vn 0.000000 0.000000 -1.000000
vn 0.000000 0.000000 -1.000000
vn 0.000000 0.000000 -1.000000
vn 0.000000 0.000000 -1.000000
vn 0.000000 -1.000000 0.000000
vn 0.000000 -1.000000 0.000000
vn 0.000000 -1.000000 0.000000
vn 0.000000 -1.000000 0.000000
vn 0.741480 0.670975 0.000000
vn 0.741480 0.670975 0.000000
vn 0.741480 0.670975 0.000000
vn 0.741480 0.670975 0.000000
vn -0.741480 0.670975 0.000000
vn -0.741480 0.670975 0.000000
vn -0.741480 0.670975 0.000000
vn -0.741480 0.670975 0.000000
vn 0.000000 0.000000 1.000000
vn -0.000000 0.000000 1.000000
vn -0.000000 0.000000 1.000000
vn 0.000000 0.000000 1.000000
vn 0.000000 1.000000 0.000000
vn 0.000000 1.000000 -0.000000
vn 0.000000 1.000000 -0.000001
vn 0.000000 1.000000 0.000000
vn 0.000000 0.000000 -1.000000
vn 0.000000 0.000000 -1.000000
vn 0.000000 0.000000 -1.000000
vn 0.000000 0.000000 -1.000000
vn 0.000000 -1.000000 0.000000
vn 0.000000 -1.000000 0.000000
vn 0.000000 -1.000000 0.000000
vn 0.000000 -1.000000 0.000000
vn 1.000000 0.000000 0.000000
vn 1.000000 0.000000 0.000000
vn 1.000000 0.000000 0.000000
vn 1.000000 0.000000 0.000000
vn -1.000000 0.000000 0.000000
vn -1.000000 0.000000 0.000000
vn -1.000000 0.000000 0.000000
vn -1.000000 0.000000 0.000000
vn 0.003066 0.450034 0.893006
vn -0.001205 0.442649 0.896694
vn 0.002291 0.448698 0.893681
vn 0.003066 0.450034 0.893006
vn 1.000000 0.000001 0.000000
vn 1.000000 0.000001 0.000000
vn 1.000000 0.000001 0.000000
vn 1.000000 0.000001 0.000000
vn -0.001346 0.476321 -0.879270
vn 0.009574 0.478649 -0.877954
vn 0.009574 0.478649 -0.877954
vn 0.001728 0.476982 -0.878911
vn -1.000000 -0.000000 0.000000
vn -1.000000 -0.000000 0.000000
vn -1.000000 -0.000000 0.000000
vn -1.000000 -0.000000 0.000000
vn 0.000000 0.000000 1.000000
vn 0.000000 0.000000 1.000000
vn 0.000000 0.000000 1.000000
vn 0.000000 0.000000 1.000000
vn 1.000000 0.000000 0.000000
vn 1.000000 0.000000 0.000000
vn 1.000000 0.000000 0.000000
vn 1.000000 0.000000 0.000000
vn 0.000000 0.000000 -1.000000
vn 0.000000 0.000000 -1.000000
vn 0.000000 0.000000 -1.000000
vn 0.000000 0.000000 -1.000000
vn -1.000000 0.000000 0.000000
vn -1.000000 0.000000 0.000000
vn -1.000000 0.000000 0.000000
vn -1.000000 0.000000 0.000000
vn 0.001876 -0.589026 0.808112
vn 0.000000 -0.589027 0.808113
vn 0.000006 -0.589028 0.808113
vn 0.001876 -0.589026 0.808112
vn 1.000000 -0.000004 0.000000
vn 1.000000 -0.000004 0.000000
vn 1.000000 -0.000004 0.000000
vn 1.000000 -0.000004 0.000000
vn 0.000000 -0.553021 -0.833168
vn 0.002459 -0.553019 -0.833165
vn 0.002459 -0.553019 -0.833165
vn 0.000012 -0.553021 -0.833168
vn -1.000000 0.000000 0.000000
vn -1.000000 0.000000 0.000000
vn -1.000000 0.000000 0.000000
vn -1.000000 0.000000 0.000000
vn 0.000002 0.000018 1.000000
vn -0.000001 -0.000014 1.000000
vn 0.000002 0.000017 1.000000
vn 0.000002 0.000018 1.000000
vn 1.000000 0.000000 0.000000
vn 1.000000 0.000000 0.000000
vn 1.000000 0.000000 0.000000
vn 1.000000 0.000000 0.000000
vn 0.000002 -0.010722 -0.999943
vn -0.000344 -0.010722 -0.999943
vn -0.000344 -0.010722 -0.999943
vn 0.000001 -0.010722 -0.999943
vn -1.000000 0.000000 0.000000
vn -1.000000 0.000000 0.000000
vn -1.000000 0.000000 0.000000
vn -1.000000 0.000000 0.000000
vn 0.014180 0.677564 0.735327
vn -0.000036 0.677632 0.735401
vn -0.000008 0.677632 0.735401
vn 0.014180 0.677564 0.735327
vn 1.000000 -0.000002 0.000000
vn 1.000000 -0.000002 0.000000
vn 1.000000 -0.000002 0.000000
vn 1.000000 -0.000002 0.000000
vn 0.000007 0.792756 -0.609539
vn 0.000006 0.792756 -0.609539
vn 0.003022 0.792753 -0.609536
vn 0.003022 0.792753 -0.609536
vn -1.000000 -0.000000 0.000000
vn -1.000000 -0.000000 0.000000
vn -1.000000 -0.000000 0.000000
vn -1.000000 -0.000000 0.000000
vn 0.000000 -0.755649 -0.654977
vn 0.000000 -0.755649 -0.654977
vn 0.000000 -0.755649 -0.654977
vn 0.000000 -0.755649 -0.654977
vn 1.000000 0.000002 0.000000
vn 1.000000 0.000002 0.000000
vn 1.000000 0.000002 0.000000
vn 1.000000 0.000002 0.000000
vn 0.000000 -0.755649 0.654977
vn 0.000000 -0.755649 0.654977
vn 0.000000 -0.755649 0.654977
vn 0.000000 -0.755649 0.654977
vn -1.000000 -0.000000 0.000000
vn -1.000000 -0.000000 0.000000
vn -1.000000 -0.000000 0.000000
vn -1.000000 -0.000000 0.000000
vn 0.000000 0.000000 1.000000
vn 0.000000 0.000000 1.000000
vn 0.000000 0.000000 1.000000
vn 0.000000 0.000000 1.000000
vn 0.000000 1.000000 0.000000
vn 0.000000 1.000000 0.000000
vn 0.000000 1.000000 0.000000
vn 0.000000 1.000000 0.000000
vn 0.000000 0.000000 -1.000000
vn 0.000000 0.000000 -1.000000
vn 0.000000 0.000000 -1.000000
vn 0.000000 0.000000 -1.000000
vn 0.000000 -1.000000 0.000000
vn 0.000000 -1.000000 0.000000
vn 0.000000 -1.000000 0.000000
vn 0.000000 -1.000000 0.000000
vn 0.741480 0.670975 0.000000
vn 0.741480 0.670975 0.000000
vn 0.741480 0.670975 0.000000
vn 0.741480 0.670975 0.000000
vn -0.741480 0.670976 0.000000
vn -0.741480 0.670976 0.000000
vn -0.741480 0.670976 0.000000
vn -0.741480 0.670976 0.000000
vn 0.000000 0.000000 1.000000
vn 0.000000 0.000000 1.000000
vn 0.000000 0.000000 1.000000
vn 0.000000 0.000000 1.000000
vn 0.000000 1.000000 0.000000
vn 0.000000 1.000000 0.000000
vn 0.000000 1.000000 0.000000
vn 0.000000 1.000000 0.000000
vn 0.000000 0.000000 -1.000000
vn 0.000000 0.000000 -1.000000
vn 0.000000 0.000000 -1.000000
vn 0.000000 0.000000 -1.000000
vn 0.000000 -1.000000 0.000000
vn 0.000000 -1.000000 0.000000
vn 0.000000 -1.000000 0.000000
vn 0.000000 -1.000000 0.000000
vn 1.000000 0.000000 0.000000
vn 1.000000 0.000000 0.000000
vn 1.000000 0.000000 0.000000
vn 1.000000 0.000000 0.000000
vn -1.000000 0.000000 0.000000
vn -1.000000 0.000000 0.000000
vn -1.000000 0.000000 0.000000
vn -1.000000 0.000000 0.000000
vn 0.000000 0.475508 0.879711
vn 0.000000 0.475508 0.879711
vn 0.000000 0.475508 0.879711
vn 0.000000 0.475508 0.879711
vn 1.000000 -0.000001 0.000000
vn 1.000000 -0.000001 0.000000
vn 1.000000 -0.000001 0.000000
vn 1.000000 -0.000001 0.000000
vn 0.000000 0.360558 -0.932737
vn 0.000000 0.360558 -0.932737
vn 0.000000 0.360558 -0.932737
vn 0.000000 0.360558 -0.932737
vn -1.000000 -0.000001 0.000000
vn -1.000000 -0.000001 0.000000
vn -1.000000 -0.000001 0.000000
vn -1.000000 -0.000001 0.000000
vn 0.000000 0.000000 1.000000
vn 0.000000 0.000000 1.000000
vn 0.000000 0.000000 1.000000
vn 0.000000 0.000000 1.000000
vn 1.000000 0.000000 0.000000
vn 1.000000 0.000000 0.000000
vn 1.000000 0.000000 0.000000
vn 1.000000 0.000000 0.000000
vn 0.000000 0.000000 -1.000000
vn 0.000000 0.000000 -1.000000
vn 0.000000 0.000000 -1.000000
vn 0.000000 0.000000 -1.000000
vn -1.000000 0.000000 0.000000
vn -1.000000 0.000000 0.000000
vn -1.000000 0.000000 0.000000
vn -1.000000 0.000000 0.000000
vn 0.000000 -0.798609 0.601850
vn 0.000000 -0.798609 0.601850
vn 0.000000 -0.798609 0.601850
vn 0.000000 -0.798609 0.601850
vn 1.000000 -0.000001 0.000000
vn 1.000000 -0.000001 0.000000
vn 1.000000 -0.000001 0.000000
vn 1.000000 -0.000001 0.000000
vn 0.000000 -0.798609 -0.601850
vn 0.000000 -0.798609 -0.601850
vn 0.000000 -0.798609 -0.601850
vn 0.000000 -0.798609 -0.601850
vn -1.000000 0.000001 0.000000
vn -1.000000 0.000001 0.000000
vn -1.000000 0.000001 0.000000
vn -1.000000 0.000001 0.000000
vn 0.000000 0.000000 1.000000
vn 0.000000 0.000000 1.000000
vn 0.000000 0.000000 1.000000
vn 0.000000 0.000000 1.000000
vn 1.000000 0.000000 0.000000
vn 1.000000 0.000000 0.000000
vn 1.000000 0.000000 0.000000
vn 1.000000 0.000000 0.000000
vn 0.000000 0.000000 -1.000000
vn 0.000000 0.000000 -1.000000
vn 0.000000 0.000000 -1.000000
vn 0.000000 0.000000 -1.000000
vn -1.000000 0.000000 0.000000
vn -1.000000 0.000000 0.000000
vn -1.000000 0.000000 0.000000
vn -1.000000 0.000000 0.000000
vn 0.000000 0.868216 0.496186
vn 0.000000 0.868216 0.496186
vn 0.000000 0.868216 0.496186
vn 0.000000 0.868216 0.496186
vn 1.000000 0.000002 0.000000
vn 1.000000 0.000002 0.000000
vn 1.000000 0.000002 0.000000
vn 1.000000 0.000002 0.000000
vn 0.000000 0.868216 -0.496186
vn 0.000000 0.868216 -0.496186
vn 0.000000 0.868216 -0.496186
vn 0.000000 0.868216 -0.496186
vn -1.000000 -0.000003 0.000000
vn -1.000000 -0.000003 0.000000
vn -1.000000 -0.000003 0.000000
vn -1.000000 -0.000003 0.000000
vn 0.000000 -0.545497 -0.838113
vn 0.000000 -0.545497 -0.838113
vn 0.000000 -0.545497 -0.838113
vn 0.000000 -0.545497 -0.838113
vn 1.000000 0.000003 0.000000
vn 1.000000 0.000003 0.000000
vn 1.000000 0.000003 0.000000
vn 1.000000 0.000003 0.000000
vn 0.000000 -0.700847 0.713312
vn 0.000000 -0.700847 0.713312
vn 0.000000 -0.700847 0.713312
vn 0.000000 -0.700847 0.713312
vn -1.000000 -0.000001 0.000000
vn -1.000000 -0.000001 0.000000
vn -1.000000 -0.000001 0.000000
vn -1.000000 -0.000001 0.000000
vn 0.000798 -0.010722 -0.999942
vn 0.000002 -0.010722 -0.999943
vn 0.000001 -0.010722 -0.999943
vn 0.000798 -0.010722 -0.999942
vn -0.005701 -0.553012 -0.833154
vn 0.000000 -0.553021 -0.833168
vn 0.000012 -0.553021 -0.833168
vn -0.005701 -0.553012 -0.833154
vn 0.000000 0.000000 -1.000000
vn 0.000000 0.000000 -1.000000
vn 0.000000 0.000000 -1.000000
vn 0.000000 0.000000 -1.000000
vn -0.003584 0.475837 -0.879526
vn -0.001346 0.476321 -0.879270
vn 0.001728 0.476982 -0.878911
vn -0.003584 0.475837 -0.879526
vn 0.000000 0.000000 -1.000000
vn 0.000000 0.000000 -1.000000
vn 0.000000 0.000000 -1.000000
vn 0.000000 0.000000 -1.000000
vn 0.000000 -0.755649 -0.654977
vn 0.000000 -0.755649 -0.654977
vn 0.000000 -0.755649 -0.654977
vn 0.000000 -0.755649 -0.654977
vn 0.000000 -1.000000 0.000000
vn 0.000000 -1.000000 0.000000
vn 0.000000 -1.000000 0.000000
vn 0.000000 -1.000000 0.000000
vn 0.000000 -0.755649 0.654977
vn 0.000000 -0.755649 0.654977
vn 0.000000 -0.755649 0.654977
vn 0.000000 -0.755649 0.654977
vn -0.000000 0.000000 1.000000
vn -0.000000 0.000000 1.000000
vn -0.000000 0.000000 1.000000
vn -0.000000 0.000000 1.000000
vn 0.002291 0.448698 0.893681
vn -0.001205 0.442649 0.896694
vn -0.001381 0.442344 0.896844
vn -0.001381 0.442344 0.896845
vn 0.000000 0.000000 1.000000
vn 0.000000 0.000000 1.000000
vn 0.000000 0.000000 1.000000
vn 0.000000 0.000000 1.000000
vn 0.000006 -0.589028 0.808113
vn 0.000000 -0.589027 0.808113
vn -0.004350 -0.589022 0.808105
vn -0.004350 -0.589022 0.808105
vn 0.000002 0.000017 1.000000
vn -0.000001 -0.000014 1.000000
vn -0.000001 -0.000014 1.000000
vn -0.000001 -0.000014 1.000000
vn -0.000008 0.677632 0.735401
vn -0.000036 0.677632 0.735401
vn -0.004001 0.677627 0.735395
vn -0.004001 0.677626 0.735395
vn 0.000000 1.000000 -0.000001
vn 0.000000 1.000000 -0.000000
vn 0.000000 1.000000 -0.000001
vn 0.000000 1.000000 -0.000001
vn -0.007008 0.792736 -0.609524
vn 0.000006 0.792756 -0.609539
vn 0.000007 0.792756 -0.609539
vn -0.007008 0.792736 -0.609524
s off
f 1/200/1 2/2/2 4/203/3 3/205/4
f 3/3/5 4/204/6 6/6/7 5/202/8
f 5/5/9 6/201/10 8/8/11 7/199/12
f 7/7/13 8/197/14 2/10/15 1/9/16
f 2/198/17 8/11/18 6/12/19 4/4/20
f 7/13/21 1/1/22 3/206/23 5/14/24
f 9/15/25 89/259/26 90/262/27 11/245/28
f 33/19/29 95/270/30 96/271/31 36/22/32
f 13/239/33 85/254/34 86/256/35 15/26/36
f 37/27/37 87/257/38 88/258/39 40/30/40
f 10/16/41 16/31/42 14/32/43 12/243/44
f 15/33/45 9/15/46 11/245/47 13/34/48
f 11/18/49 90/261/50 91/264/51 17/236/52
f 12/17/53 14/242/54 19/231/55 18/233/56
f 85/255/57 13/240/58 20/228/59 84/252/60
f 13/23/61 11/246/62 17/237/63 20/227/64
f 17/36/65 91/263/66 92/266/67 21/224/68
f 18/35/69 19/232/70 23/219/71 22/221/72
f 84/253/73 20/229/74 24/214/75 83/250/76
f 20/38/77 17/238/78 21/225/79 24/213/80
f 21/40/81 92/265/82 93/268/83 25/207/84
f 22/39/85 23/220/86 27/212/87 26/216/88
f 83/251/89 24/215/90 28/210/91 82/248/92
f 24/42/93 21/226/94 25/208/95 28/209/96
f 25/44/97 93/267/98 94/269/99 29/48/100
f 26/43/101 27/45/102 31/49/103 30/47/104
f 82/249/105 28/46/106 32/50/107 81/247/108
f 28/46/109 25/44/110 29/48/111 32/50/112
f 29/48/113 94/269/114 95/270/115 33/19/116
f 30/47/117 31/49/118 35/21/119 34/20/120
f 96/271/121 81/247/122 32/50/123 36/22/124
f 32/50/125 29/48/126 33/19/127 36/22/128
f 15/26/129 86/256/130 87/257/131 37/27/132
f 16/25/133 10/51/134 39/29/135 38/28/136
f 89/260/137 9/52/138 40/30/139 88/258/140
f 9/52/141 15/26/142 37/27/143 40/30/144
f 41/190/145 42/54/146 44/193/147 43/195/148
f 43/56/149 44/194/150 46/57/151 45/192/152
f 45/58/153 46/191/154 48/59/155 47/189/156
f 47/60/157 48/187/158 42/61/159 41/62/160
f 42/188/161 48/63/162 46/64/163 44/55/164
f 47/65/165 41/53/166 43/196/167 45/66/168
f 49/111/169 50/68/170 52/182/171 51/184/172
f 73/71/173 74/131/174 75/126/175 76/124/176
f 53/177/177 54/179/178 56/117/179 55/119/180
f 77/79/181 78/114/182 79/110/183 80/108/184
f 50/115/185 56/83/186 54/84/187 52/181/188
f 55/85/189 49/67/190 51/185/191 53/86/192
f 51/70/193 52/183/194 58/172/195 57/174/196
f 52/69/197 54/180/198 59/169/199 58/171/200
f 54/76/201 53/178/202 60/166/203 59/168/204
f 53/75/205 51/186/206 57/175/207 60/165/208
f 57/88/209 58/173/210 62/160/211 61/162/212
f 58/87/213 59/170/214 63/157/215 62/159/216
f 59/89/217 60/167/218 64/154/219 63/156/220
f 60/90/221 57/176/222 61/163/223 64/153/224
f 61/92/225 62/161/226 66/148/227 65/150/228
f 62/91/229 63/158/230 67/145/231 66/147/232
f 63/93/233 64/155/234 68/142/235 67/144/236
f 64/94/237 61/164/238 65/151/239 68/141/240
f 65/96/241 66/149/242 70/136/243 69/138/244
f 66/95/245 67/146/246 71/133/247 70/135/248
f 67/97/249 68/143/250 72/128/251 71/132/252
f 68/98/253 65/152/254 69/139/255 72/127/256
f 69/100/257 70/137/258 74/130/259 73/121/260
f 70/99/261 71/134/262 75/125/263 74/72/264
f 71/101/265 72/129/266 76/123/267 75/73/268
f 72/102/269 69/140/270 73/122/271 76/74/272
f 55/78/273 56/118/274 78/113/275 77/105/276
f 56/77/277 50/116/278 79/109/279 78/80/280
f 50/103/281 49/112/282 80/107/283 79/81/284
f 49/104/285 55/120/286 77/106/287 80/82/288
f 27/45/289 82/249/290 81/247/291 31/49/292
f 23/41/293 83/251/294 82/248/295 27/211/296
f 19/37/297 84/253/298 83/250/299 23/218/300
f 14/24/301 85/255/302 84/252/303 19/230/304
f 86/256/305 85/254/306 14/241/307 16/25/308
f 87/257/309 86/256/310 16/25/311 38/28/312
f 88/258/313 87/257/314 38/28/315 39/29/316
f 10/51/317 89/260/318 88/258/319 39/29/320
f 90/262/321 89/259/322 10/16/323 12/243/324
f 91/264/325 90/261/326 12/244/327 18/234/328
f 92/266/329 91/263/330 18/235/331 22/222/332
f 93/268/333 92/265/334 22/223/335 26/217/336
f 94/269/337 93/267/338 26/43/339 30/47/340
f 95/270/341 94/269/342 30/47/343 34/20/344
f 96/271/345 95/270/346 34/20/347 35/21/348
f 31/49/349 81/247/350 96/271/351 35/21/352
