# This file uses meters as units for non-parametric coordinates.

v 486.453247 0.000000 0.000024
v 486.453247 0.000000 -500.000000
v 468.461609 0.000000 0.000024
v 468.461609 0.000000 -500.000000
v 500.000000 0.000000 0.000024
v 500.000000 0.000000 -500.000000
v 0.000000 0.000000 0.000024
v 0.000000 0.000000 -500.000000
v 468.461609 0.000000 -84.512863
v 486.453247 0.000000 -90.557846
v 500.000000 0.000000 -90.557846
v 453.705627 0.000000 -96.602829
v 453.705627 0.000000 -388.944763
v 486.453247 0.000000 -396.666382
v 500.000000 0.000000 -396.666382
v 468.461609 0.000000 -404.388702
vt 0.026995 0.006992
vt 0.026995 0.006992
vt 0.026995 0.006992
vt 0.026995 0.006992
vt 0.956044 0.986624
vt 0.982243 0.986624
vt 0.956044 0.023534
vt 0.982243 0.023534
vt 0.015275 0.887105
vt 0.921251 0.986624
vt 0.015275 0.110749
vt 0.921251 0.023534
vt 0.026995 0.006992
vt 0.921251 0.186320
vt 0.026995 0.006992
vt 0.956044 0.197965
vt 0.982243 0.197965
vt 0.026995 0.006992
vt 0.921251 0.209609
vt 0.026995 0.006992
vt 0.921251 0.772712
vt 0.026995 0.006992
vt 0.956044 0.787585
vt 0.982243 0.787585
vt 0.026995 0.006992
vt 0.921251 0.802458
vn 0.000000 1.000000 0.000000
vn 0.000000 1.000000 0.000000
vn 0.000000 1.000000 0.000000
vn 0.000000 1.000000 0.000000
vn 0.000000 1.000000 0.000000
vn 0.000000 1.000000 0.000000
vn 0.000000 1.000000 0.000000
vn 0.000000 1.000000 0.000000
vn 0.000000 1.000000 0.000000
vn 0.000000 1.000000 0.000000
vn 0.000000 1.000000 0.000000
vn 0.000000 1.000000 0.000000
vn 0.000000 1.000000 0.000000
vn 0.000000 1.000000 0.000000
vn 0.000000 1.000000 0.000000
vn 0.000000 1.000000 0.000000
vn 0.000000 1.000000 0.000000
vn 0.000000 1.000000 0.000000
vn 0.000000 1.000000 0.000000
vn 0.000000 1.000000 0.000000
vn 0.000000 1.000000 0.000000
vn 0.000000 1.000000 0.000000
vn 0.000000 1.000000 0.000000
vn 0.000000 1.000000 0.000000
vn 0.000000 1.000000 0.000000
vn 0.000000 1.000000 0.000000
vn 0.000000 1.000000 0.000000
vn 0.000000 1.000000 0.000000
vn 0.000000 1.000000 0.000000
vn 0.000000 1.000000 0.000000
vn 0.000000 1.000000 0.000000
vn 0.000000 1.000000 0.000000
vn 0.000000 1.000000 0.000000
vn 0.000000 1.000000 0.000000
vn 0.000000 1.000000 0.000000
vn 0.000000 1.000000 0.000000
vn 0.000000 1.000000 0.000000
vn 0.000000 1.000000 0.000000
vn 0.000000 1.000000 0.000000
vn 0.000000 1.000000 0.000000
vn 0.000000 1.000000 0.000000
vn 0.000000 1.000000 0.000000
vn 0.000000 1.000000 0.000000
vn 0.000000 1.000000 0.000000
vn 0.000000 1.000000 0.000000
vn 0.000000 1.000000 0.000000
s off
f 2/2/1 4/1/2 16/25/3 14/22/4
f 15/24/5 6/6/6 2/5/7 14/23/8
f 16/26/9 4/10/10 8/9/11
f 3/12/12 9/14/13 7/11/14
f 10/15/15 9/13/16 3/3/17 1/4/18
f 5/8/19 11/17/20 10/16/21 1/7/22
f 9/14/23 12/19/24 7/11/25
f 10/15/26 12/18/27 9/13/28
f 12/19/29 13/21/30 8/9/31 7/11/32
f 14/22/33 13/20/34 12/18/35 10/15/36
f 11/17/37 15/24/38 14/23/39 10/16/40
f 13/21/41 16/26/42 8/9/43
f 14/22/44 16/25/45 13/20/46
