# This file uses meters as units for non-parametric coordinates.

v 499.999817 0.000001 -0.001526
v 500.000000 -0.000001 -500.000763
v 0.000191 0.000001 -0.001526
v 0.000191 -0.000001 -500.001129
v 500.000000 6.969654 -33.006287
v 0.000191 6.969654 -33.006287
v 500.000000 6.969654 -64.442444
v 0.000191 6.969654 -64.442444
v 500.000000 6.184101 -22.846222
v 0.000191 6.184101 -22.846222
v 500.000000 -0.000001 -69.514465
v 0.000191 -0.000001 -69.514465
v 0.000191 0.000001 -16.890717
v 500.000000 0.000001 -16.890717
v 500.000000 -0.000001 -361.098480
v 0.000191 -0.000001 -361.097717
v 246.992310 0.000001 -0.001526
v 218.609436 0.000001 -18.150330
v 251.454163 6.184103 -22.653198
v 251.454163 6.969655 -38.428497
v 237.889282 6.969655 -59.284210
v 250.000183 -0.000001 -71.874237
v 252.880951 -0.000001 -356.045532
v 254.622940 3.420927 -361.865234
v 250.000183 -0.000001 -500.000763
v 243.984604 -0.000001 -71.874237
v 244.120499 1.080330 -354.328918
v 246.865372 -0.000001 -361.387634
v 243.984604 -0.000001 -500.001129
v 497.359100 -0.000001 -500.001129
v 493.416229 -0.000001 -365.457153
v 492.341827 -0.000001 -356.158447
v 496.178619 1.919349 -69.575935
v 494.519806 6.969655 -64.442444
v 494.519806 6.969655 -33.006287
v 494.519806 6.184103 -22.846222
v 494.520355 0.000001 -16.890717
v 3.359413 -0.000001 -500.001129
v 3.359413 2.436664 -363.769531
v 3.359222 -0.000001 -358.427429
v 5.513763 -0.000001 -69.514465
v 8.164787 6.969655 -65.542603
v 5.915571 6.969655 -33.006287
v 5.915571 6.184103 -22.846222
v 5.915380 0.000001 -16.890717
v 111.120171 6.184103 -21.098709
v 108.808372 0.000001 -15.981293
v 378.832855 6.184103 -22.896576
v 380.104919 0.000001 -17.244720
v 0.000191 -0.000001 -192.280579
v 4.281187 -0.000001 -195.491028
v 247.555161 0.618049 -194.156647
v 255.141068 1.531216 -195.138550
v 494.488708 2.352520 -195.151520
v 500.000000 -0.000001 -192.281342
v 4.363537 2.834875 -186.116791
v 247.862152 2.950387 -187.824249
v 255.343063 -0.000001 -185.945892
v 494.680603 0.894699 -190.074921
vt 0.064095 0.209474
vt 0.102180 0.270814
vt 0.101972 0.250723
vt 0.102180 0.270814
vt 0.100542 0.278062
vt 0.101972 0.250723
vt 0.101973 0.250723
vt 0.100542 0.278062
vt 0.101973 0.250723
vt 0.101973 0.250723
vt 0.102180 0.270814
vt 0.102180 0.270814
vt 0.101973 0.250723
vt 0.101973 0.250723
vt 0.100542 0.278062
vt 0.100542 0.278062
vt 0.101973 0.250723
vt 0.101973 0.250723
vt 0.101973 0.250723
vt 0.101972 0.250723
vt 0.064095 0.209474
vt 0.102180 0.270814
vt 0.102180 0.270814
vt 0.102180 0.270814
vt 0.102180 0.270814
vt 0.101658 0.278970
vt 0.100542 0.278062
vt 0.101658 0.278970
vt 0.101973 0.273202
vt 0.101658 0.278970
vt 0.102180 0.270814
vt 0.102180 0.270814
vt 0.102180 0.270814
vt 0.101793 0.299061
vt 0.064095 0.209474
vt 0.101658 0.278970
vt 0.101973 0.273202
vt 0.102180 0.270814
vt 0.102180 0.270814
vt 0.102180 0.270814
vt 0.102180 0.270814
vt 0.102180 0.270814
vt 0.102180 0.270814
vt 0.101793 0.299061
vt 0.101658 0.278970
vt 0.101793 0.299061
vt 0.101658 0.278970
vt 0.101658 0.278970
vt 0.100542 0.278062
vt 0.101658 0.278970
vt 0.101658 0.278970
vt 0.100754 0.254209
vt 0.101658 0.278970
vt 0.064095 0.209474
vt 0.101793 0.299061
vt 0.102180 0.270814
vt 0.102180 0.270814
vt 0.101973 0.250723
vt 0.102180 0.270814
vt 0.101973 0.250723
vt 0.101973 0.250723
vt 0.100754 0.254209
vt 0.101973 0.250723
vt 0.101972 0.250723
vt 0.100754 0.254209
vt 0.064095 0.209474
vt 0.101972 0.250723
vt 0.101658 0.278970
vt 0.100754 0.254209
vt 0.101658 0.278970
vt 0.101658 0.278970
vt 0.064095 0.209474
vt 0.101658 0.278970
vt 0.101658 0.278970
vt 0.101793 0.299061
vt 0.101658 0.278970
vt 0.102180 0.270814
vt 0.102180 0.270814
vt 0.101793 0.299061
vt 0.102180 0.270814
vt 0.101793 0.299061
vt 0.102180 0.270814
vt 0.102180 0.270814
vt 0.102180 0.270814
vt 0.102180 0.270814
vt 0.101793 0.299061
vt 0.101972 0.250723
vt 0.064095 0.209474
vt 0.102180 0.270814
vt 0.101972 0.250723
vt 0.101973 0.250723
vt 0.102180 0.270814
vt 0.101973 0.250723
vt 0.101973 0.250723
vt 0.102180 0.270814
vt 0.101973 0.250723
vt 0.102180 0.270814
vt 0.102180 0.270814
vt 0.102180 0.270814
vt 0.101793 0.299061
vt 0.102180 0.270814
vt 0.102180 0.270814
vt 0.101793 0.299061
vt 0.101972 0.250723
vt 0.102180 0.270814
vt 0.102180 0.270814
vt 0.101793 0.299061
vt 0.102180 0.270814
vt 0.102180 0.270814
vt 0.101793 0.299061
vt 0.101793 0.299061
vt 0.101658 0.278970
vt 0.101793 0.299061
vt 0.101658 0.278970
vt 0.101658 0.278970
vt 0.064095 0.209474
vt 0.101658 0.278970
vt 0.101658 0.278970
vt 0.101658 0.278970
vt 0.102180 0.270814
vt 0.101793 0.299061
vt 0.102180 0.270814
vt 0.101658 0.278970
vt 0.102180 0.270814
vt 0.101973 0.273202
vt 0.101793 0.299061
vt 0.101658 0.278970
vt 0.100542 0.278062
vt 0.101658 0.278970
vt 0.101658 0.278970
vt 0.064095 0.209474
vt 0.100542 0.278062
vt 0.101658 0.278970
vt 0.101658 0.278970
vt 0.064095 0.209474
vt 0.102180 0.270814
vt 0.101793 0.299061
vt 0.102180 0.270814
vt 0.101793 0.299061
vt 0.102180 0.270814
vt 0.102180 0.270814
vt 0.101793 0.299061
vt 0.102180 0.270814
vt 0.101793 0.299061
vt 0.102180 0.270814
vt 0.102180 0.270814
vt 0.101793 0.299061
vt 0.102180 0.270814
vt 0.101793 0.299061
vt 0.102180 0.270814
vt 0.102180 0.270814
vt 0.101793 0.299061
vt 0.102180 0.270814
vt 0.101793 0.299061
vt 0.102180 0.270814
vt 0.101289 0.277078
vt 0.101289 0.277078
vt 0.101289 0.277078
vt 0.101289 0.277078
vt 0.101289 0.277078
vt 0.101289 0.277078
vt 0.101289 0.277078
vt 0.101289 0.277078
vt 0.101289 0.277078
vt 0.101289 0.277078
vt 0.101289 0.277078
vt 0.101289 0.277078
vt 0.101289 0.277078
vt 0.101289 0.277078
vt 0.101289 0.277078
vt 0.101289 0.277078
vt 0.101289 0.277078
vt 0.101289 0.277078
vt 0.100754 0.254209
vt 0.100754 0.254209
vt 0.100754 0.254209
vt 0.100754 0.254209
vn 0.000000 1.000000 -0.000000
vn 0.000000 1.000000 -0.000000
vn 0.000000 1.000000 -0.000000
vn 0.000000 1.000000 -0.000000
vn 0.000000 1.000000 0.000000
vn 0.000000 1.000000 0.000000
vn 0.000000 1.000000 0.000000
vn 0.000000 1.000000 0.000000
vn 0.005356 0.765620 -0.643270
vn 0.005356 0.765620 -0.643270
vn 0.005356 0.765620 -0.643270
vn 0.005356 0.765621 -0.643270
vn 0.000631 0.998182 0.060272
vn 0.000631 0.998182 0.060272
vn 0.000631 0.998182 0.060272
vn 0.000631 0.998182 0.060272
vn 0.001325 0.994039 0.109016
vn 0.001325 0.994039 0.109016
vn 0.001325 0.994039 0.109016
vn 0.001325 0.994039 0.109016
vn 0.011991 0.592461 0.805510
vn 0.011991 0.592461 0.805510
vn 0.011991 0.592461 0.805510
vn 0.011991 0.592461 0.805510
vn 0.005077 0.999947 -0.008918
vn 0.005077 0.999947 -0.008918
vn 0.005077 0.999947 -0.008918
vn 0.005077 0.999947 -0.008918
vn -0.003525 0.999993 0.001478
vn -0.003525 0.999993 0.001478
vn -0.003525 0.999993 0.001478
vn -0.003525 0.999993 0.001478
vn 0.000000 1.000000 -0.000000
vn 0.000000 1.000000 -0.000000
vn 0.000000 1.000000 -0.000000
vn 0.000000 0.693669 0.720294
vn 0.000000 0.693669 0.720294
vn 0.000000 0.693669 0.720294
vn 0.000000 0.693669 0.720294
vn 0.000000 0.997024 0.077087
vn 0.000000 0.997024 0.077087
vn 0.000000 0.997024 0.077087
vn 0.000000 0.997024 0.077087
vn 0.000000 1.000000 0.000000
vn 0.000000 1.000000 0.000000
vn 0.000000 1.000000 0.000000
vn 0.000000 1.000000 0.000000
vn 0.139466 0.652014 -0.745270
vn 0.139466 0.652014 -0.745270
vn 0.139466 0.652014 -0.745270
vn 0.139466 0.652014 -0.745270
vn 0.174603 0.984605 -0.008159
vn 0.174603 0.984605 -0.008159
vn 0.174603 0.984605 -0.008159
vn 0.174603 0.984605 -0.008159
vn 0.000000 1.000000 0.000000
vn 0.000000 1.000000 0.000000
vn 0.000000 1.000000 0.000000
vn 0.000000 1.000000 0.000000
vn 0.000000 1.000000 0.000000
vn 0.000000 1.000000 0.000000
vn 0.000000 1.000000 0.000000
vn 0.000000 0.874888 -0.484325
vn 0.000000 0.874888 -0.484325
vn 0.000000 0.874888 -0.484325
vn 0.009648 0.999947 -0.003500
vn 0.009648 0.999947 -0.003500
vn 0.009648 0.999947 -0.003500
vn 0.009648 0.999947 -0.003500
vn -0.350325 0.849499 0.394492
vn -0.350325 0.849499 0.394492
vn -0.350325 0.849499 0.394492
vn -0.241227 0.970453 -0.005455
vn -0.241227 0.970453 -0.005455
vn -0.241227 0.970453 -0.005455
vn -0.241227 0.970453 -0.005455
vn 0.006943 0.999897 -0.012562
vn 0.006943 0.999897 -0.012562
vn 0.006943 0.999897 -0.012562
vn 0.006943 0.999897 -0.012562
vn 0.008695 0.974956 0.222229
vn 0.008695 0.974956 0.222229
vn 0.008695 0.974956 0.222229
vn 0.008695 0.974956 0.222229
vn -0.001718 0.999926 -0.012040
vn -0.001718 0.999926 -0.012040
vn -0.001718 0.999926 -0.012040
vn -0.001718 0.999926 -0.012040
vn -0.006362 0.825302 -0.564656
vn -0.006362 0.825302 -0.564656
vn -0.006362 0.825302 -0.564656
vn -0.006362 0.825302 -0.564656
vn 0.000000 1.000000 0.000000
vn 0.000000 1.000000 0.000000
vn 0.000000 1.000000 0.000000
vn 0.000000 1.000000 0.000000
vn -0.001007 0.997818 0.066011
vn -0.001007 0.997818 0.066011
vn -0.001007 0.997818 0.066011
vn -0.001007 0.997818 0.066011
vn -0.001282 0.684252 0.729244
vn -0.001282 0.684252 0.729244
vn -0.001282 0.684252 0.729244
vn -0.001282 0.684252 0.729244
vn 0.000000 1.000000 -0.000000
vn 0.000000 1.000000 -0.000000
vn 0.000000 1.000000 -0.000000
vn -0.343860 0.938984 -0.008316
vn -0.343860 0.938984 -0.008316
vn -0.343860 0.938984 -0.008316
vn -0.343860 0.938984 -0.008316
vn -0.313287 0.864027 0.394093
vn -0.313287 0.864027 0.394093
vn -0.313287 0.864027 0.394093
vn 0.000000 1.000000 0.000000
vn 0.000000 1.000000 0.000000
vn 0.000000 1.000000 0.000000
vn 0.000000 1.000000 0.000000
vn -0.066853 0.551982 -0.831172
vn -0.066853 0.551982 -0.831172
vn -0.066853 0.551982 -0.831172
vn -0.066853 0.551982 -0.831172
vn -0.000000 1.000000 0.000000
vn -0.000000 1.000000 0.000000
vn -0.000000 1.000000 0.000000
vn -0.000000 1.000000 0.000000
vn -0.000000 0.997024 0.077088
vn -0.000000 0.997024 0.077088
vn -0.000000 0.997024 0.077088
vn -0.000000 0.997024 0.077088
vn -0.000000 0.693669 0.720294
vn -0.000000 0.693669 0.720294
vn -0.000000 0.693669 0.720294
vn -0.000000 0.693669 0.720294
vn 0.000000 1.000000 -0.000000
vn 0.000000 1.000000 -0.000000
vn 0.000000 1.000000 -0.000000
vn 0.099878 0.988623 -0.112469
vn 0.099878 0.988623 -0.112469
vn 0.099878 0.988623 -0.112469
vn -0.009501 0.667972 0.744126
vn -0.009501 0.667972 0.744126
vn -0.009501 0.667972 0.744126
vn -0.009501 0.667972 0.744126
vn -0.001767 0.637247 0.770658
vn -0.001767 0.637247 0.770658
vn -0.001767 0.637247 0.770658
vn -0.001767 0.637247 0.770658
vn 0.000000 1.000000 -0.000000
vn 0.000000 1.000000 -0.000000
vn 0.000000 1.000000 -0.000000
vn -0.000000 1.000000 -0.000000
vn -0.000000 1.000000 -0.000000
vn -0.000000 1.000000 -0.000000
vn -0.000000 1.000000 -0.000000
vn 0.000551 0.998762 0.049735
vn 0.000551 0.998762 0.049735
vn 0.000551 0.998762 0.049735
vn 0.000095 0.998762 0.049735
vn 0.000095 0.998763 0.049735
vn 0.000095 0.998762 0.049735
vn -0.210921 0.936167 -0.281255
vn -0.210921 0.936167 -0.281255
vn -0.210921 0.936167 -0.281255
vn -0.001671 0.949927 -0.312468
vn -0.001671 0.949927 -0.312468
vn -0.001671 0.949927 -0.312468
vn -0.001671 0.949927 -0.312468
vn 0.137030 0.989009 -0.055527
vn 0.137030 0.989009 -0.055527
vn 0.137030 0.989009 -0.055527
vn 0.137030 0.989009 -0.055527
vn -0.001734 0.978746 0.205070
vn -0.001734 0.978746 0.205070
vn -0.001734 0.978746 0.205070
vn -0.001734 0.978746 0.205070
vn 0.263045 0.929899 0.257092
vn 0.263045 0.929899 0.257092
vn 0.263045 0.929899 0.257092
vn -0.283184 0.958981 0.012718
vn -0.283184 0.958981 0.012718
vn -0.283184 0.958981 0.012718
vn -0.283184 0.958981 0.012718
vn -0.000030 0.999691 0.024869
vn -0.000030 0.999691 0.024869
vn -0.000030 0.999691 0.024869
vn -0.000030 0.999691 0.024869
vn 0.210725 0.977320 0.020983
vn 0.210725 0.977320 0.020983
vn 0.210725 0.977320 0.020983
vn 0.210725 0.977320 0.020983
vn -0.005813 0.999973 -0.004463
vn -0.005813 0.999973 -0.004463
vn -0.005813 0.999973 -0.004463
vn -0.005813 0.999973 -0.004463
vn 0.292975 0.956102 -0.005831
vn 0.292975 0.956102 -0.005831
vn 0.292975 0.956102 -0.005831
vn 0.292975 0.956102 -0.005831
s off
f 3/1/1 17/21/2 18/35/3 47/131/4
f 42/74/5 43/71/6 20/117/7 21/114/8
f 41/76/9 42/73/10 21/115/11 26/112/12
f 43/5/13 44/8/14 46/128/15 20/16/16
f 39/82/17 40/78/18 27/39/19 28/109/20
f 46/129/21 47/130/22 18/36/23 19/118/24
f 38/55/25 39/81/26 28/110/27 29/111/28
f 40/79/29 51/137/30 52/139/31 27/86/32
f 1/66/33 14/88/34 37/116/35
f 36/90/36 37/87/37 14/104/38 9/3/39
f 35/52/40 36/62/41 9/65/42 5/69/43
f 34/94/44 35/91/45 5/17/46 7/9/47
f 33/96/48 34/93/49 7/18/50 11/13/51
f 32/99/52 54/143/53 55/145/54 15/25/55
f 31/102/56 32/98/57 15/22/58
f 30/42/59 31/101/60 15/89/61 2/2/62
f 26/37/63 21/29/64 22/125/65
f 27/85/66 52/140/67 53/141/68 23/122/69
f 28/108/70 23/32/71 24/105/72
f 29/41/73 28/40/74 24/106/75 25/124/76
f 25/34/77 24/107/78 31/100/79 30/103/80
f 24/33/81 23/120/82 32/97/83 31/43/84
f 23/121/85 53/142/86 54/144/87 32/44/88
f 22/30/89 21/127/90 34/48/91 33/45/92
f 21/28/93 20/119/94 35/50/95 34/47/96
f 20/16/97 48/132/98 36/49/99 35/27/100
f 48/133/101 49/134/102 37/53/103 36/51/104
f 1/66/105 37/116/106 49/135/107
f 16/23/108 39/80/109 38/83/110 4/4/111
f 16/24/112 40/77/113 39/56/114
f 50/136/115 51/138/116 40/57/117 16/92/118
f 8/10/119 42/61/120 41/58/121 12/14/122
f 6/7/123 43/63/124 42/60/125 8/19/126
f 10/174/127 44/175/128 43/176/129 6/177/130
f 13/20/131 45/67/132 44/64/133 10/6/134
f 3/1/135 45/54/136 13/72/137
f 28/108/138 27/84/139 23/32/140
f 44/70/141 45/68/142 47/130/143 46/129/144
f 19/26/145 18/123/146 49/134/147 48/133/148
f 3/1/149 47/131/150 45/54/151
f 1/66/152 49/135/153 18/35/154 17/21/155
f 20/16/156 46/128/157 19/15/158
f 20/16/159 19/15/160 48/132/161
f 50/156/162 56/157/163 51/173/164
f 52/159/165 51/158/166 56/170/167 57/160/168
f 53/161/169 52/171/170 57/168/171 58/162/172
f 54/172/173 53/169/174 58/167/175 59/164/176
f 55/165/177 54/163/178 59/166/179
f 12/12/180 41/59/181 56/148/182 50/146/183
f 57/149/184 56/147/185 41/75/186 26/113/187
f 58/151/188 57/150/189 26/38/190 22/31/191
f 59/154/192 58/152/193 22/126/194 33/46/195
f 55/155/196 59/153/197 33/95/198 11/11/199
