# This file uses meters as units for non-parametric coordinates.

v -9.958282 -15.032572 2.416046
v 0.728371 4.500257 2.416046
v -3.282120 15.032572 2.416046
v 5.928551 15.032572 2.416046
v -3.282120 15.032572 -2.416045
v 5.928551 15.032572 -2.416045
v -9.958282 -15.032572 -2.416045
v 0.728371 4.500257 -2.416046
v -9.285545 0.552555 2.416046
v -9.285545 0.552555 -2.416045
v 9.578438 4.500257 2.416046
v 9.578438 4.500257 -2.416045
v -1.324242 0.552555 -2.416045
v -1.324242 0.552555 2.416046
v -4.197052 14.374302 -2.416045
v 6.199432 14.374302 -2.416045
v 6.199432 14.374302 2.416046
v -4.197052 14.374302 2.416046
v -9.712471 1.005276 -2.416045
v -9.712471 1.005276 2.416046
v 9.958275 4.129306 2.416046
v 9.958275 4.129306 -2.416045
vt 0.359055 0.025918
vt 0.360139 0.025918
vt 0.360139 0.027003
vt 0.359055 0.027003
vt 0.360139 0.028088
vt 0.359055 0.028088
vt 0.360139 0.029172
vt 0.359055 0.029172
vt 0.360139 0.030257
vt 0.359055 0.030257
vt 0.361224 0.025918
vt 0.361224 0.027003
vt 0.357970 0.025918
vt 0.357970 0.027003
vt 0.359055 0.026461
vt 0.357970 0.026461
vt 0.359055 0.028630
vt 0.359897 0.025918
vt 0.359897 0.030257
vt 0.359915 0.029172
vt 0.357970 0.026272
vt 0.359055 0.028819
vt 0.359055 0.026319
vt 0.357970 0.026969
vt 0.359055 0.028121
vt 0.360139 0.028155
vt 0.361224 0.026935
vt 0.360139 0.026935
vt 0.359055 0.026969
vt 0.357970 0.026477
vt 0.359055 0.028613
vt 0.359055 0.026496
vt 0.359881 0.025918
vt 0.359881 0.030257
vt 0.359877 0.029172
vn 0.000000 -0.000000 1.000000
vn 0.000000 -0.000000 1.000000
vn 0.000000 -0.000000 1.000000
vn 0.000000 -0.000000 1.000000
vn 0.000000 -0.000000 1.000000
vn 0.000000 1.000000 0.000000
vn 0.000000 1.000000 0.000000
vn 0.000000 1.000000 0.000000
vn 0.000000 1.000000 0.000000
vn 0.000000 -0.000000 -1.000000
vn 0.000000 -0.000000 -1.000000
vn 0.000000 -0.000000 -1.000000
vn -0.000000 1.000000 0.000000
vn -0.000000 1.000000 0.000000
vn -0.000000 1.000000 0.000000
vn -0.000000 1.000000 0.000000
vn 0.874703 -0.484660 0.000000
vn 0.874703 -0.484660 0.000000
vn 0.874703 -0.484660 0.000000
vn 0.874703 -0.484660 0.000000
vn -0.584023 0.811737 0.000000
vn -0.584023 0.811737 0.000000
vn -0.584023 0.811737 0.000000
vn -0.584023 0.811737 0.000000
vn 0.698689 0.715426 0.000000
vn 0.698689 0.715426 0.000000
vn 0.698689 0.715426 0.000000
vn 0.698689 0.715426 0.000000
vn -0.874737 0.484598 0.000000
vn -0.874737 0.484598 0.000000
vn -0.874737 0.484598 0.000000
vn -0.874737 0.484598 0.000000
vn 0.000000 0.000000 1.000000
vn 0.000000 0.000000 1.000000
vn 0.000000 0.000000 1.000000
vn 0.000000 0.000000 1.000000
vn -0.000000 0.000000 1.000000
vn -0.000000 0.000000 1.000000
vn -0.000000 0.000000 1.000000
vn 0.000000 0.000000 -1.000000
vn 0.000000 0.000000 -1.000000
vn 0.000000 0.000000 -1.000000
vn 0.000000 -0.000000 -1.000000
vn 0.000000 -0.000000 -1.000000
vn 0.000000 -0.000000 -1.000000
vn 0.000000 -0.000000 -1.000000
vn 0.000000 0.000000 -1.000000
vn 0.000000 0.000000 -1.000000
vn 0.000000 0.000000 -1.000000
vn 0.000000 0.000000 -1.000000
vn 0.924763 0.380545 0.000000
vn 0.924763 0.380545 0.000000
vn 0.924763 0.380545 0.000000
vn 0.924763 0.380545 0.000000
vn 0.000000 0.000000 1.000000
vn 0.000000 0.000000 1.000000
vn 0.000000 0.000000 1.000000
vn 0.000000 0.000000 1.000000
vn -0.924422 0.381372 0.000000
vn -0.924422 0.381372 0.000000
vn -0.924422 0.381372 0.000000
vn -0.924422 0.381372 0.000000
vn -0.000000 -1.000000 0.000000
vn -0.000000 -1.000000 0.000000
vn -0.000000 -1.000000 0.000000
vn -0.000000 -1.000000 0.000000
vn -0.727531 -0.686075 0.000000
vn -0.727531 -0.686075 0.000000
vn -0.727531 -0.686075 0.000000
vn -0.727531 -0.686075 0.000000
vn 0.693322 -0.720628 0.000000
vn 0.693322 -0.720628 0.000000
vn 0.693322 -0.720628 0.000000
vn 0.693322 -0.720628 0.000000
vn 0.000000 0.000000 1.000000
vn 0.000000 0.000000 1.000000
vn 0.000000 0.000000 1.000000
vn -0.000000 0.000000 -1.000000
vn -0.000000 0.000000 -1.000000
vn -0.000000 0.000000 -1.000000
vn -0.000000 0.000000 -1.000000
vn -0.000000 0.000000 -1.000000
vn -0.000000 0.000000 -1.000000
vn -0.000000 0.000000 -1.000000
s off
f 18/29/1 20/32/2 9/15/3 2/2/4 17/28/5
f 3/4/6 4/3/7 6/5/8 5/6/9
f 8/7/10 10/17/11 19/31/12
f 11/19/13 12/20/14 8/7/15 2/9/16
f 2/2/17 8/11/18 16/27/19 17/28/20
f 15/24/21 18/29/22 3/4/23 5/14/24
f 21/34/25 22/35/26 12/20/27 11/19/28
f 7/13/29 1/1/30 14/23/31 13/21/32
f 9/15/33 14/23/34 11/18/35 2/2/36
f 11/18/37 14/23/38 21/33/39
f 13/22/40 12/20/41 22/35/42
f 10/17/43 8/7/44 12/20/45 13/22/46
f 6/5/47 16/26/48 15/25/49 5/6/50
f 17/28/51 16/27/52 6/12/53 4/3/54
f 18/29/55 17/28/56 4/3/57 3/4/58
f 19/30/59 20/32/60 18/29/61 15/24/62
f 10/16/63 13/21/64 14/23/65 9/15/66
f 10/16/67 9/15/68 20/32/69 19/30/70
f 7/8/71 22/35/72 21/34/73 1/10/74
f 21/33/75 14/23/76 1/1/77
f 13/22/78 22/35/79 7/8/80
f 8/7/81 19/31/82 15/25/83 16/26/84
