# This file uses meters as units for non-parametric coordinates.

v -7.385849 -15.032572 2.340777
v -15.032578 -7.385848 2.340777
v -7.385849 -15.032572 -2.340777
v -15.032578 -7.385848 -2.340777
v -13.964874 -10.771332 2.340777
v -13.964874 -10.771332 -2.340777
v -7.682358 -4.158610 -2.340777
v -7.682358 -4.158610 2.340777
v -10.771339 -13.964869 2.340777
v -10.771339 -13.964869 -2.340777
v -4.158615 -7.682354 -2.340777
v -4.158615 -7.682354 2.340777
v -8.284279 -11.477810 -2.340777
v -4.043678 -11.690397 -2.340777
v -4.043678 -11.690397 2.340777
v -8.284279 -11.477810 2.340777
v -11.477818 -8.284273 2.340777
v -11.690407 -4.043672 2.340777
v -11.690407 -4.043672 -2.340777
v -11.477818 -8.284273 -2.340777
v -10.251244 -14.746885 2.340777
v -10.251244 -14.746885 -2.340777
v -14.746895 -10.251240 2.340777
v -14.746895 -10.251240 -2.340777
v 7.385834 15.032572 2.340777
v 15.032562 7.385842 2.340777
v 7.385834 15.032572 -2.340777
v 15.032562 7.385842 -2.340777
v 13.964859 10.771328 2.340777
v 13.964859 10.771328 -2.340777
v 7.682343 4.158607 -2.340777
v 7.682343 4.158607 2.340777
v 10.771324 13.964865 2.340777
v 10.771324 13.964865 -2.340777
v 4.158600 7.682351 -2.340777
v 4.158600 7.682351 2.340777
v 8.284264 11.477808 -2.340777
v 4.043663 11.690397 -2.340777
v 4.043663 11.690397 2.340777
v 8.284264 11.477808 2.340777
v 11.477798 8.284269 2.340777
v 11.690392 4.043671 2.340777
v 11.690392 4.043671 -2.340777
v 11.477798 8.284269 -2.340777
v 10.251228 14.746883 2.340777
v 10.251228 14.746883 -2.340777
v 14.746880 10.251232 2.340777
v 14.746880 10.251232 -2.340777
v -4.722122 -1.198370 2.340777
v -1.198380 -4.722114 2.340777
v -1.198380 -4.722114 -2.340777
v -4.722122 -1.198370 -2.340777
v 1.198357 4.722110 2.340777
v 4.722107 1.198366 2.340777
v 4.722107 1.198366 -2.340777
v 1.198357 4.722110 -2.340777
v 15.032570 -7.385845 2.340777
v 7.385841 -15.032572 2.340777
v 15.032570 -7.385845 -2.340777
v 7.385841 -15.032572 -2.340777
v 10.771324 -13.964868 2.340777
v 10.771324 -13.964868 -2.340777
v 4.158607 -7.682354 -2.340777
v 4.158607 -7.682354 2.340777
v 13.964867 -10.771332 2.340777
v 13.964867 -10.771332 -2.340777
v 7.682350 -4.158609 -2.340777
v 7.682350 -4.158609 2.340777
v 11.477806 -8.284272 -2.340777
v 11.690392 -4.043672 -2.340777
v 11.690392 -4.043672 2.340777
v 11.477806 -8.284272 2.340777
v 8.284271 -11.477810 2.340777
v 4.043671 -11.690399 2.340777
v 4.043671 -11.690399 -2.340777
v 8.284271 -11.477810 -2.340777
v 14.746880 -10.251237 2.340777
v 14.746880 -10.251237 -2.340777
v 10.251236 -14.746885 2.340777
v 10.251236 -14.746885 -2.340777
v -15.032578 7.385845 2.340777
v -7.385849 15.032572 2.340777
v -15.032578 7.385845 -2.340777
v -7.385849 15.032572 -2.340777
v -10.771332 13.964868 2.340777
v -10.771332 13.964868 -2.340777
v -4.158607 7.682353 -2.340777
v -4.158607 7.682353 2.340777
v -13.964867 10.771332 2.340777
v -13.964867 10.771332 -2.340777
v -7.682358 4.158607 -2.340777
v -7.682358 4.158607 2.340777
v -11.477814 8.284272 -2.340777
v -11.690399 4.043672 -2.340777
v -11.690399 4.043672 2.340777
v -11.477814 8.284272 2.340777
v -8.284271 11.477810 2.340777
v -4.043678 11.690398 2.340777
v -4.043678 11.690398 -2.340777
v -8.284271 11.477810 -2.340777
v -14.746887 10.251237 2.340777
v -14.746887 10.251237 -2.340777
v -10.251236 14.746885 2.340777
v -10.251236 14.746885 -2.340777
vt 0.359055 0.027003
vt 0.360139 0.027003
vt 0.359055 0.028088
vt 0.360139 0.028088
vt 0.361224 0.027003
vt 0.357970 0.027003
vt 0.359868 0.027003
vt 0.359868 0.028088
vt 0.359800 0.029172
vt 0.359800 0.025918
vt 0.359800 0.030257
vt 0.359326 0.027003
vt 0.359326 0.028088
vt 0.359394 0.029172
vt 0.359394 0.025918
vt 0.359394 0.030257
vt 0.359416 0.028449
vt 0.357970 0.026461
vt 0.359145 0.028585
vt 0.359055 0.026461
vt 0.359416 0.026641
vt 0.359778 0.026641
vt 0.360139 0.026461
vt 0.360049 0.028585
vt 0.361224 0.026461
vt 0.359778 0.028449
vt 0.359190 0.027003
vt 0.359190 0.028088
vt 0.360004 0.027003
vt 0.360004 0.028088
vt 0.359190 0.027003
vt 0.359055 0.027003
vt 0.359416 0.026641
vt 0.359326 0.027003
vt 0.359190 0.028088
vt 0.359055 0.028088
vt 0.359145 0.028585
vt 0.360139 0.026461
vt 0.361224 0.026461
vt 0.361224 0.027003
vt 0.360139 0.027003
vt 0.357970 0.026461
vt 0.359055 0.026461
vt 0.357970 0.027003
vt 0.359868 0.028088
vt 0.359868 0.027003
vt 0.360004 0.027003
vt 0.360004 0.028088
vt 0.360049 0.028585
vt 0.359778 0.028449
vt 0.359800 0.030257
vt 0.359800 0.029172
vt 0.359778 0.026641
vt 0.359326 0.028088
vt 0.359416 0.028449
vt 0.359438 0.029172
vt 0.359394 0.030257
vt 0.359394 0.025918
vt 0.359800 0.025918
vt 0.360139 0.028088
vt 0.359699 0.025918
vt 0.359699 0.030257
vt 0.359546 0.025918
vt 0.359540 0.029895
vt 0.359495 0.029172
vt 0.359710 0.029172
vt 0.359546 0.025918
vt 0.359528 0.029986
vt 0.359699 0.025918
vt 0.359699 0.030257
vt 0.359699 0.029172
vt 0.359528 0.029172
vt 0.359648 0.029715
vt 0.359190 0.027003
vt 0.359055 0.027003
vt 0.359416 0.026641
vt 0.359326 0.027003
vt 0.359190 0.028088
vt 0.359055 0.028088
vt 0.359145 0.028585
vt 0.360139 0.026461
vt 0.361224 0.026461
vt 0.361224 0.027003
vt 0.360139 0.027003
vt 0.357970 0.026461
vt 0.359055 0.026461
vt 0.357970 0.027003
vt 0.359868 0.028088
vt 0.359868 0.027003
vt 0.360004 0.027003
vt 0.360004 0.028088
vt 0.360049 0.028585
vt 0.359778 0.028449
vt 0.359800 0.030257
vt 0.359800 0.029172
vt 0.359778 0.026641
vt 0.359326 0.028088
vt 0.359416 0.028449
vt 0.359394 0.029172
vt 0.359394 0.030257
vt 0.359394 0.025918
vt 0.359800 0.025918
vt 0.359800 0.029172
vt 0.359800 0.030257
vt 0.359800 0.025918
vt 0.359394 0.025918
vt 0.360139 0.028088
vt 0.359190 0.027003
vt 0.359055 0.027003
vt 0.359416 0.026641
vt 0.359326 0.027003
vt 0.359190 0.028088
vt 0.359055 0.028088
vt 0.359145 0.028585
vt 0.360139 0.026461
vt 0.361224 0.026461
vt 0.361224 0.027003
vt 0.360139 0.027003
vt 0.357970 0.026461
vt 0.359055 0.026461
vt 0.357970 0.027003
vt 0.359868 0.028088
vt 0.359868 0.027003
vt 0.360004 0.027003
vt 0.360004 0.028088
vt 0.360049 0.028585
vt 0.359778 0.028449
vt 0.359778 0.026641
vt 0.359326 0.028088
vt 0.359416 0.028449
vt 0.359438 0.029172
vt 0.359394 0.030257
vt 0.360139 0.028088
vn 0.000000 -0.000000 1.000000
vn 0.000000 -0.000000 1.000000
vn 0.000000 -0.000000 1.000000
vn 0.000000 -0.000000 1.000000
vn -0.099210 -0.995066 0.000000
vn -0.099210 -0.995066 0.000000
vn -0.099210 -0.995066 0.000000
vn -0.099210 -0.995066 0.000000
vn 0.000000 0.000000 -1.000000
vn 0.000000 0.000000 -1.000000
vn 0.000000 0.000000 -1.000000
vn -0.707107 0.707106 0.000000
vn -0.707107 0.707106 0.000000
vn -0.707107 0.707106 0.000000
vn -0.707107 0.707106 0.000000
vn 0.707107 -0.707106 0.000000
vn 0.707107 -0.707106 0.000000
vn 0.707107 -0.707106 0.000000
vn 0.707107 -0.707106 0.000000
vn -0.553775 -0.832667 0.000000
vn -0.553775 -0.832667 0.000000
vn -0.553775 -0.832667 0.000000
vn -0.553775 -0.832667 0.000000
vn -0.000000 0.000000 -1.000000
vn -0.000000 0.000000 -1.000000
vn -0.000000 0.000000 -1.000000
vn -0.000000 0.000000 -1.000000
vn 0.028665 0.999589 0.000000
vn 0.028665 0.999589 0.000000
vn 0.028665 0.999589 0.000000
vn 0.028665 0.999589 0.000000
vn 0.000000 -0.000000 1.000000
vn 0.000000 -0.000000 1.000000
vn 0.000000 -0.000000 1.000000
vn 0.000000 -0.000000 1.000000
vn -0.707106 0.707107 0.000000
vn -0.707106 0.707107 0.000000
vn -0.707106 0.707107 0.000000
vn -0.707106 0.707107 0.000000
vn 0.000000 0.000000 -1.000000
vn 0.000000 0.000000 -1.000000
vn 0.000000 0.000000 -1.000000
vn 0.999589 0.028665 0.000000
vn 0.999589 0.028665 0.000000
vn 0.999589 0.028665 0.000000
vn 0.999589 0.028665 0.000000
vn -0.000000 0.000000 1.000000
vn -0.000000 0.000000 1.000000
vn -0.000000 0.000000 1.000000
vn 0.000000 0.000000 1.000000
vn 0.000000 0.000000 1.000000
vn 0.000000 0.000000 1.000000
vn -0.000000 0.000000 -1.000000
vn -0.000000 0.000000 -1.000000
vn -0.000000 0.000000 -1.000000
vn -0.707107 -0.707107 0.000000
vn -0.707107 -0.707107 0.000000
vn -0.707107 -0.707107 0.000000
vn -0.707107 -0.707107 0.000000
vn 0.707107 -0.707106 0.000000
vn 0.707107 -0.707106 0.000000
vn 0.707107 -0.707106 0.000000
vn 0.707107 -0.707106 0.000000
vn 0.000000 0.000000 1.000000
vn 0.000000 0.000000 1.000000
vn 0.000000 0.000000 1.000000
vn 0.000000 0.000000 1.000000
vn 0.707107 -0.707107 0.000000
vn 0.707107 -0.707107 0.000000
vn 0.707107 -0.707107 0.000000
vn 0.707107 -0.707107 0.000000
vn 0.000000 0.000000 1.000000
vn 0.000000 0.000000 1.000000
vn 0.000000 0.000000 1.000000
vn 0.000000 0.000000 1.000000
vn -0.832663 -0.553779 0.000000
vn -0.832663 -0.553779 0.000000
vn -0.832663 -0.553779 0.000000
vn -0.832663 -0.553779 0.000000
vn 0.000000 -0.000000 -1.000000
vn 0.000000 -0.000000 -1.000000
vn 0.000000 -0.000000 -1.000000
vn 0.000000 -0.000000 -1.000000
vn -0.995067 -0.099209 0.000000
vn -0.995067 -0.099209 0.000000
vn -0.995067 -0.099209 0.000000
vn -0.995067 -0.099209 0.000000
vn 0.000000 0.000000 -1.000000
vn 0.000000 0.000000 -1.000000
vn 0.000000 0.000000 -1.000000
vn 0.000000 -0.000000 1.000000
vn 0.000000 -0.000000 1.000000
vn 0.000000 -0.000000 1.000000
vn 0.000000 0.000000 1.000000
vn 0.000000 0.000000 1.000000
vn 0.000000 0.000000 1.000000
vn 0.000000 0.000000 1.000000
vn 0.000000 0.000000 1.000000
vn 0.000000 0.000000 1.000000
vn 0.000000 0.000000 1.000000
vn 0.099211 0.995066 0.000000
vn 0.099211 0.995066 0.000000
vn 0.099211 0.995066 0.000000
vn 0.099211 0.995066 0.000000
vn 0.000000 0.000000 -1.000000
vn 0.000000 0.000000 -1.000000
vn 0.000000 0.000000 -1.000000
vn 0.707107 -0.707107 0.000000
vn 0.707107 -0.707107 0.000000
vn 0.707107 -0.707107 0.000000
vn 0.707107 -0.707107 0.000000
vn -0.707107 0.707106 0.000000
vn -0.707107 0.707106 0.000000
vn -0.707107 0.707106 0.000000
vn -0.707107 0.707106 0.000000
vn 0.553778 0.832664 0.000000
vn 0.553778 0.832664 0.000000
vn 0.553778 0.832664 0.000000
vn 0.553778 0.832664 0.000000
vn -0.000000 -0.000000 -1.000000
vn -0.000000 -0.000000 -1.000000
vn -0.000000 -0.000000 -1.000000
vn -0.000000 -0.000000 -1.000000
vn -0.028664 -0.999589 0.000000
vn -0.028664 -0.999589 0.000000
vn -0.028664 -0.999589 0.000000
vn -0.028664 -0.999589 0.000000
vn 0.000000 0.000000 1.000000
vn 0.000000 0.000000 1.000000
vn 0.000000 0.000000 1.000000
vn 0.000000 0.000000 1.000000
vn 0.707106 -0.707107 0.000000
vn 0.707106 -0.707107 0.000000
vn 0.707106 -0.707107 0.000000
vn 0.707106 -0.707107 0.000000
vn -0.000000 -0.000000 -1.000000
vn -0.000000 -0.000000 -1.000000
vn -0.000000 -0.000000 -1.000000
vn -0.999589 -0.028665 0.000000
vn -0.999589 -0.028665 0.000000
vn -0.999589 -0.028665 0.000000
vn -0.999589 -0.028665 0.000000
vn -0.000000 -0.000000 1.000000
vn -0.000000 -0.000000 1.000000
vn -0.000000 -0.000000 1.000000
vn 0.000000 -0.000000 1.000000
vn 0.000000 -0.000000 1.000000
vn 0.000000 -0.000000 1.000000
vn -0.000000 -0.000000 -1.000000
vn -0.000000 -0.000000 -1.000000
vn -0.000000 -0.000000 -1.000000
vn 0.707107 0.707106 0.000000
vn 0.707107 0.707106 0.000000
vn 0.707107 0.707106 0.000000
vn 0.707107 0.707106 0.000000
vn 0.000000 0.000000 -1.000000
vn 0.000000 0.000000 -1.000000
vn 0.000000 0.000000 -1.000000
vn 0.000000 0.000000 -1.000000
vn -0.707106 0.707107 0.000000
vn -0.707106 0.707107 0.000000
vn -0.707106 0.707107 0.000000
vn -0.707106 0.707107 0.000000
vn -0.000000 -0.000000 1.000000
vn -0.000000 -0.000000 1.000000
vn -0.000000 -0.000000 1.000000
vn -0.000000 -0.000000 1.000000
vn -0.707106 0.707107 0.000000
vn -0.707106 0.707107 0.000000
vn -0.707106 0.707107 0.000000
vn -0.707106 0.707107 0.000000
vn 0.832664 0.553778 0.000000
vn 0.832664 0.553778 0.000000
vn 0.832664 0.553778 0.000000
vn 0.832664 0.553778 0.000000
vn 0.000000 0.000000 -1.000000
vn 0.000000 0.000000 -1.000000
vn 0.000000 0.000000 -1.000000
vn 0.000000 0.000000 -1.000000
vn 0.995067 0.099209 0.000000
vn 0.995067 0.099209 0.000000
vn 0.995067 0.099209 0.000000
vn 0.995067 0.099209 0.000000
vn 0.000000 0.000000 -1.000000
vn 0.000000 0.000000 -1.000000
vn 0.000000 0.000000 -1.000000
vn -0.000000 0.000000 1.000000
vn -0.000000 0.000000 1.000000
vn -0.000000 0.000000 1.000000
vn 0.000000 -0.000000 1.000000
vn 0.000000 -0.000000 1.000000
vn 0.000000 -0.000000 1.000000
vn -0.000000 -0.000000 -1.000000
vn -0.000000 -0.000000 -1.000000
vn -0.000000 -0.000000 -1.000000
vn -0.000000 -0.000000 -1.000000
vn 0.000000 0.000000 -1.000000
vn 0.000000 0.000000 -1.000000
vn 0.000000 0.000000 -1.000000
vn 0.000000 0.000000 -1.000000
vn 0.000000 0.000000 1.000000
vn 0.000000 0.000000 1.000000
vn 0.000000 0.000000 1.000000
vn 0.000000 0.000000 1.000000
vn 0.707107 -0.707106 0.000000
vn 0.707107 -0.707106 0.000000
vn 0.707107 -0.707106 0.000000
vn 0.707107 -0.707106 0.000000
vn 0.000000 0.000000 -1.000000
vn 0.000000 0.000000 -1.000000
vn 0.000000 0.000000 -1.000000
vn 0.000000 0.000000 -1.000000
vn -0.707107 0.707106 0.000000
vn -0.707107 0.707106 0.000000
vn -0.707107 0.707106 0.000000
vn -0.707107 0.707106 0.000000
vn -0.707106 -0.707107 0.000000
vn -0.707106 -0.707107 0.000000
vn -0.707106 -0.707107 0.000000
vn -0.707106 -0.707107 0.000000
vn 0.707107 0.707107 0.000000
vn 0.707107 0.707107 0.000000
vn 0.707107 0.707107 0.000000
vn 0.707107 0.707107 0.000000
vn -0.000000 -0.000000 1.000000
vn -0.000000 -0.000000 1.000000
vn -0.000000 -0.000000 1.000000
vn -0.000000 -0.000000 1.000000
vn 0.995066 -0.099212 0.000000
vn 0.995066 -0.099212 0.000000
vn 0.995066 -0.099212 0.000000
vn 0.995066 -0.099212 0.000000
vn -0.000000 0.000000 -1.000000
vn -0.000000 0.000000 -1.000000
vn -0.000000 0.000000 -1.000000
vn -0.707107 -0.707107 0.000000
vn -0.707107 -0.707107 0.000000
vn -0.707107 -0.707107 0.000000
vn -0.707107 -0.707107 0.000000
vn 0.707106 0.707107 0.000000
vn 0.707106 0.707107 0.000000
vn 0.707106 0.707107 0.000000
vn 0.707106 0.707107 0.000000
vn 0.832668 -0.553773 0.000000
vn 0.832668 -0.553773 0.000000
vn 0.832668 -0.553773 0.000000
vn 0.832668 -0.553773 0.000000
vn -0.000000 -0.000000 -1.000000
vn -0.000000 -0.000000 -1.000000
vn -0.000000 -0.000000 -1.000000
vn -0.000000 -0.000000 -1.000000
vn -0.999589 0.028665 0.000000
vn -0.999589 0.028665 0.000000
vn -0.999589 0.028665 0.000000
vn -0.999589 0.028665 0.000000
vn 0.000000 -0.000000 1.000000
vn 0.000000 -0.000000 1.000000
vn 0.000000 -0.000000 1.000000
vn 0.000000 -0.000000 1.000000
vn -0.707107 -0.707107 0.000000
vn -0.707107 -0.707107 0.000000
vn -0.707107 -0.707107 0.000000
vn -0.707107 -0.707107 0.000000
vn -0.000000 0.000000 -1.000000
vn -0.000000 0.000000 -1.000000
vn -0.000000 0.000000 -1.000000
vn -0.028665 0.999589 0.000000
vn -0.028665 0.999589 0.000000
vn -0.028665 0.999589 0.000000
vn -0.028665 0.999589 0.000000
vn 0.000000 0.000000 1.000000
vn 0.000000 0.000000 1.000000
vn 0.000000 0.000000 1.000000
vn 0.000000 0.000000 1.000000
vn 0.000000 0.000000 1.000000
vn 0.000000 0.000000 1.000000
vn 0.000000 0.000000 -1.000000
vn 0.000000 0.000000 -1.000000
vn 0.000000 0.000000 -1.000000
vn 0.707107 -0.707107 0.000000
vn 0.707107 -0.707107 0.000000
vn 0.707107 -0.707107 0.000000
vn 0.707107 -0.707107 0.000000
vn 0.707107 0.707107 0.000000
vn 0.707107 0.707107 0.000000
vn 0.707107 0.707107 0.000000
vn 0.707107 0.707107 0.000000
vn 0.000000 0.000000 1.000000
vn 0.000000 0.000000 1.000000
vn 0.000000 0.000000 1.000000
vn 0.000000 0.000000 1.000000
vn 0.707107 0.707106 0.000000
vn 0.707107 0.707106 0.000000
vn 0.707107 0.707106 0.000000
vn 0.707107 0.707106 0.000000
vn 0.000000 0.000000 1.000000
vn 0.000000 0.000000 1.000000
vn 0.000000 0.000000 1.000000
vn 0.000000 0.000000 1.000000
vn 0.553781 -0.832663 0.000000
vn 0.553781 -0.832663 0.000000
vn 0.553781 -0.832663 0.000000
vn 0.553781 -0.832663 0.000000
vn 0.000000 0.000000 -1.000000
vn 0.000000 0.000000 -1.000000
vn 0.000000 0.000000 -1.000000
vn 0.000000 0.000000 -1.000000
vn 0.099210 -0.995067 0.000000
vn 0.099210 -0.995067 0.000000
vn 0.099210 -0.995067 0.000000
vn 0.099210 -0.995067 0.000000
vn 0.000000 0.000000 -1.000000
vn 0.000000 0.000000 -1.000000
vn 0.000000 0.000000 -1.000000
vn 0.000000 0.000000 1.000000
vn 0.000000 0.000000 1.000000
vn 0.000000 0.000000 1.000000
vn -0.000000 -0.000000 1.000000
vn -0.000000 -0.000000 1.000000
vn -0.000000 -0.000000 1.000000
vn 0.000000 0.000000 1.000000
vn 0.000000 0.000000 1.000000
vn 0.000000 0.000000 1.000000
vn 0.000000 0.000000 1.000000
vn -0.995066 0.099212 0.000000
vn -0.995066 0.099212 0.000000
vn -0.995066 0.099212 0.000000
vn -0.995066 0.099212 0.000000
vn 0.000000 0.000000 -1.000000
vn 0.000000 0.000000 -1.000000
vn 0.000000 0.000000 -1.000000
vn 0.707107 0.707107 0.000000
vn 0.707107 0.707107 0.000000
vn 0.707107 0.707107 0.000000
vn 0.707107 0.707107 0.000000
vn -0.707106 -0.707107 0.000000
vn -0.707106 -0.707107 0.000000
vn -0.707106 -0.707107 0.000000
vn -0.707106 -0.707107 0.000000
vn -0.832664 0.553779 0.000000
vn -0.832664 0.553779 0.000000
vn -0.832664 0.553779 0.000000
vn -0.832664 0.553779 0.000000
vn -0.000000 0.000000 -1.000000
vn -0.000000 0.000000 -1.000000
vn -0.000000 0.000000 -1.000000
vn -0.000000 0.000000 -1.000000
vn 0.999589 -0.028663 0.000000
vn 0.999589 -0.028663 0.000000
vn 0.999589 -0.028663 0.000000
vn 0.999589 -0.028663 0.000000
vn -0.000000 0.000000 1.000000
vn -0.000000 0.000000 1.000000
vn -0.000000 0.000000 1.000000
vn -0.000000 0.000000 1.000000
vn 0.707108 0.707106 0.000000
vn 0.707108 0.707106 0.000000
vn 0.707108 0.707106 0.000000
vn 0.707108 0.707106 0.000000
vn 0.000000 -0.000000 -1.000000
vn 0.000000 -0.000000 -1.000000
vn 0.000000 -0.000000 -1.000000
vn 0.028664 -0.999589 0.000000
vn 0.028664 -0.999589 0.000000
vn 0.028664 -0.999589 0.000000
vn 0.028664 -0.999589 0.000000
vn 0.000000 -0.000000 1.000000
vn 0.000000 -0.000000 1.000000
vn 0.000000 -0.000000 1.000000
vn 0.000000 -0.000000 1.000000
vn 0.000000 -0.000000 1.000000
vn 0.000000 -0.000000 1.000000
vn 0.000000 -0.000000 -1.000000
vn 0.000000 -0.000000 -1.000000
vn 0.000000 -0.000000 -1.000000
vn -0.707106 0.707107 0.000000
vn -0.707106 0.707107 0.000000
vn -0.707106 0.707107 0.000000
vn -0.707106 0.707107 0.000000
vn 0.000000 0.000000 -1.000000
vn 0.000000 0.000000 -1.000000
vn 0.000000 0.000000 -1.000000
vn 0.000000 0.000000 -1.000000
vn -0.707107 -0.707107 0.000000
vn -0.707107 -0.707107 0.000000
vn -0.707107 -0.707107 0.000000
vn -0.707107 -0.707107 0.000000
vn 0.000000 -0.000000 1.000000
vn 0.000000 -0.000000 1.000000
vn 0.000000 -0.000000 1.000000
vn 0.000000 -0.000000 1.000000
vn -0.707106 -0.707107 0.000000
vn -0.707106 -0.707107 0.000000
vn -0.707106 -0.707107 0.000000
vn -0.707106 -0.707107 0.000000
vn -0.553777 0.832665 0.000000
vn -0.553777 0.832665 0.000000
vn -0.553777 0.832665 0.000000
vn -0.553777 0.832665 0.000000
vn 0.000000 -0.000000 -1.000000
vn 0.000000 -0.000000 -1.000000
vn 0.000000 -0.000000 -1.000000
vn 0.000000 -0.000000 -1.000000
vn -0.099211 0.995067 0.000000
vn -0.099211 0.995067 0.000000
vn -0.099211 0.995067 0.000000
vn -0.099211 0.995067 0.000000
vn 0.000000 0.000000 -1.000000
vn 0.000000 0.000000 -1.000000
vn 0.000000 0.000000 -1.000000
vn 0.000000 -0.000000 1.000000
vn 0.000000 -0.000000 1.000000
vn 0.000000 -0.000000 1.000000
vn 0.000000 0.000000 1.000000
vn 0.000000 0.000000 1.000000
vn 0.000000 0.000000 1.000000
vn 0.000000 -0.000000 -1.000000
vn 0.000000 -0.000000 -1.000000
vn 0.000000 -0.000000 -1.000000
vn 0.000000 -0.000000 -1.000000
vn 0.000000 0.000000 -1.000000
vn 0.000000 0.000000 -1.000000
vn 0.000000 0.000000 -1.000000
vn 0.000000 0.000000 -1.000000
s off
f 21/27/1 1/1/2 16/21/3 9/12/4
f 1/1/5 21/27/6 22/28/7 3/3/8
f 3/3/9 22/28/10 14/19/11
f 18/23/12 19/25/13 4/5/14 2/2/15
f 14/18/16 15/20/17 1/1/18 3/6/19
f 6/8/20 5/7/21 23/29/22 24/30/23
f 24/30/24 19/24/25 20/26/26 6/8/27
f 18/23/28 8/11/29 7/9/30 19/25/31
f 23/29/32 5/7/33 17/22/34 2/2/35
f 10/13/36 9/12/37 16/21/38 13/17/39
f 14/19/40 13/17/41 11/14/42
f 15/20/43 14/18/44 11/14/45 12/16/46
f 15/20/47 12/15/48 16/21/49
f 17/22/50 8/10/51 18/23/52
f 7/9/53 20/26/54 19/24/55
f 13/17/56 16/21/57 17/22/58 20/26/59
f 54/70/60 55/71/61 31/52/62 32/51/63
f 16/21/64 12/15/65 8/10/66 17/22/67
f 20/26/68 17/22/69 5/7/70 6/8/71
f 53/67/72 54/69/73 32/59/74 36/58/75
f 22/28/76 21/27/77 9/12/78 10/13/79
f 14/19/80 22/28/81 10/13/82 13/17/83
f 24/30/84 23/29/85 2/2/86 4/4/87
f 19/24/88 24/30/89 4/4/90
f 16/21/91 1/1/92 15/20/93
f 2/2/94 17/22/95 18/23/96
f 45/31/97 25/32/98 40/33/99 33/34/100
f 25/32/101 45/31/102 46/35/103 27/36/104
f 27/36/105 46/35/106 38/37/107
f 42/38/108 43/39/109 28/40/110 26/41/111
f 38/42/112 39/43/113 25/32/114 27/44/115
f 30/45/116 29/46/117 47/47/118 48/48/119
f 48/48/120 43/49/121 44/50/122 30/45/123
f 42/38/124 32/51/125 31/52/126 43/39/127
f 47/47/128 29/46/129 41/53/130 26/41/131
f 34/54/132 33/34/133 40/33/134 37/55/135
f 38/37/136 37/55/137 35/56/138
f 39/43/139 38/42/140 35/56/141 36/57/142
f 39/43/143 36/58/144 40/33/145
f 41/53/146 32/59/147 42/38/148
f 31/52/149 44/50/150 43/49/151
f 37/55/152 40/33/153 41/53/154 44/50/155
f 7/9/156 11/14/157 13/17/158 20/26/159
f 56/72/160 53/68/161 36/57/162 35/56/163
f 40/33/164 36/58/165 32/59/166 41/53/167
f 44/50/168 41/53/169 29/46/170 30/45/171
f 46/35/172 45/31/173 33/34/174 34/54/175
f 38/37/176 46/35/177 34/54/178 37/55/179
f 48/48/180 47/47/181 26/41/182 28/60/183
f 43/49/184 48/48/185 28/60/186
f 40/33/187 25/32/188 39/43/189
f 26/41/190 41/53/191 42/38/192
f 31/52/193 35/56/194 37/55/195 44/50/196
f 55/71/197 56/72/198 35/56/199 31/52/200
f 8/10/201 12/15/202 50/63/203 49/61/204
f 12/16/205 11/14/206 51/65/207 50/64/208
f 7/9/209 52/66/210 51/65/211 11/14/212
f 8/11/213 49/62/214 52/66/215 7/9/216
f 55/71/217 54/70/218 53/73/219 56/72/220
f 52/66/221 49/62/222 50/64/223 51/65/224
f 77/74/225 57/75/226 72/76/227 65/77/228
f 57/75/229 77/74/230 78/78/231 59/79/232
f 59/79/233 78/78/234 70/80/235
f 74/81/236 75/82/237 60/83/238 58/84/239
f 70/85/240 71/86/241 57/75/242 59/87/243
f 62/88/244 61/89/245 79/90/246 80/91/247
f 80/91/248 75/92/249 76/93/250 62/88/251
f 74/81/252 64/94/253 63/95/254 75/82/255
f 79/90/256 61/89/257 73/96/258 58/84/259
f 66/97/260 65/77/261 72/76/262 69/98/263
f 70/80/264 69/98/265 67/99/266
f 71/86/267 70/85/268 67/99/269 68/100/270
f 71/86/271 68/101/272 72/76/273
f 73/96/274 64/102/275 74/81/276
f 63/95/277 76/93/278 75/92/279
f 69/98/280 72/76/281 73/96/282 76/93/283
f 68/100/284 67/99/285 87/103/286 88/104/287
f 72/76/288 68/101/289 64/102/290 73/96/291
f 76/93/292 73/96/293 61/89/294 62/88/295
f 64/102/296 68/101/297 88/105/298 92/106/299
f 78/78/300 77/74/301 65/77/302 66/97/303
f 70/80/304 78/78/305 66/97/306 69/98/307
f 80/91/308 79/90/309 58/84/310 60/107/311
f 75/92/312 80/91/313 60/107/314
f 72/76/315 57/75/316 71/86/317
f 58/84/318 73/96/319 74/81/320
f 101/108/321 81/109/322 96/110/323 89/111/324
f 81/109/325 101/108/326 102/112/327 83/113/328
f 83/113/329 102/112/330 94/114/331
f 98/115/332 99/116/333 84/117/334 82/118/335
f 94/119/336 95/120/337 81/109/338 83/121/339
f 86/122/340 85/123/341 103/124/342 104/125/343
f 104/125/344 99/126/345 100/127/346 86/122/347
f 98/115/348 88/104/349 87/103/350 99/116/351
f 103/124/352 85/123/353 97/128/354 82/118/355
f 90/129/356 89/111/357 96/110/358 93/130/359
f 94/114/360 93/130/361 91/131/362
f 95/120/363 94/119/364 91/131/365 92/132/366
f 95/120/367 92/106/368 96/110/369
f 97/128/370 88/105/371 98/115/372
f 87/103/373 100/127/374 99/126/375
f 93/130/376 96/110/377 97/128/378 100/127/379
f 63/95/380 67/99/381 69/98/382 76/93/383
f 64/94/384 92/132/385 91/131/386 63/95/387
f 96/110/388 92/106/389 88/105/390 97/128/391
f 100/127/392 97/128/393 85/123/394 86/122/395
f 102/112/396 101/108/397 89/111/398 90/129/399
f 94/114/400 102/112/401 90/129/402 93/130/403
f 104/125/404 103/124/405 82/118/406 84/133/407
f 99/126/408 104/125/409 84/133/410
f 96/110/411 81/109/412 95/120/413
f 82/118/414 97/128/415 98/115/416
f 87/103/417 91/131/418 93/130/419 100/127/420
f 63/95/421 91/131/422 87/103/423 67/99/424
