# This file uses meters as units for non-parametric coordinates.

v -14.369102 -0.504354 2.416046
v -12.394333 -0.504354 2.416046
v -14.369102 8.402528 2.416046
v 13.758820 8.402528 2.416046
v -14.369102 8.402528 -2.416045
v 13.758820 8.402528 -2.416045
v -14.369102 -0.504354 -2.416045
v -12.394333 -0.504354 -2.416045
v 13.758820 2.480231 2.416046
v 13.758820 2.480231 -2.416045
v 4.594223 2.480231 2.416046
v 4.594223 2.480232 -2.416045
v -15.003906 -7.675521 2.416046
v -15.003906 -7.675521 -2.416045
v -10.942497 -9.856888 2.416046
v -10.942497 -9.856886 -2.416045
v -7.414352 -3.885961 2.416046
v -7.414345 -3.885959 -2.416045
v -3.103439 -3.310559 2.416046
v -3.103439 -3.310559 -2.416045
v -2.972931 -1.031242 2.416046
v -2.972931 -1.031242 -2.416045
v -1.586399 -0.947449 2.416046
v -1.586399 -0.947448 -2.416045
v 4.006882 -10.921202 2.416046
v 4.006882 -10.921202 -2.416045
v 8.533203 -7.044972 2.416046
v 8.533203 -7.044973 -2.416045
v 4.835861 -0.296053 2.416046
v -0.350052 -4.463912 2.416046
v -0.350052 -4.463912 -2.416045
v 4.835861 -0.296054 -2.416045
v 6.394516 -4.009647 2.416046
v 1.444931 -7.848245 2.416046
v 1.444931 -7.848245 -2.416045
v 6.394516 -4.009647 -2.416045
v 3.306046 -10.568695 2.416046
v 8.275955 -6.497628 2.416046
v 8.275955 -6.497629 -2.416045
v 3.306046 -10.568695 -2.416045
v -10.377640 -9.552298 -2.416045
v -10.377655 -9.552299 2.416046
v -15.032570 -7.033853 2.416046
v -15.032570 -7.033853 -2.416045
v -12.395126 8.402528 2.416046
v -12.395126 8.402528 -2.416045
v -8.172134 8.402528 2.416046
v -8.172134 8.402528 -2.416045
v -12.395126 10.766325 2.416046
v -12.395126 10.766325 -2.416045
v -8.172134 10.766325 2.416046
v -8.172134 10.766325 -2.416045
v 8.698349 2.480231 -2.416045
v 8.698349 2.480231 2.416046
v 10.845779 2.480231 -2.416045
v 10.845779 2.480231 2.416046
v 13.758820 4.447392 -2.416045
v 13.758820 4.447392 2.416046
v 13.758820 6.557224 -2.416045
v 13.758820 6.557224 2.416046
v 12.850586 8.402528 -2.416045
v 12.850586 8.402528 2.416046
v 10.704300 8.402528 -2.416045
v 10.704300 8.402528 2.416046
v 15.032562 4.447392 2.416046
v 15.032578 4.447392 -2.416045
v 15.032578 6.557224 2.416046
v 15.032578 6.557224 -2.416045
v 10.704300 10.921202 -2.416045
v 10.704300 10.921202 2.416046
v 12.850586 10.921202 -2.416045
v 12.850586 10.921202 2.416046
v 8.698349 -1.848806 2.416046
v 8.698349 -1.848806 -2.416045
v 10.845779 -1.848806 2.416046
v 10.845779 -1.848806 -2.416045
v -3.744591 -3.864369 2.416046
v -3.744583 -3.864368 -2.416045
v 9.110306 -2.186602 2.416046
v 9.110306 -2.186602 -2.416045
v 10.433823 -2.186602 2.416046
v 10.433823 -2.186602 -2.416045
v -6.373199 -1.031242 2.416046
v -7.078941 -3.236571 2.416046
v -4.188179 -3.224614 2.416046
v -3.833153 -2.914742 2.416046
v -3.760887 -1.031242 2.416046
v -6.373199 -1.031242 2.416046
v -7.078941 -3.236571 -2.416046
v -4.188179 -3.224614 -2.416046
v -3.833153 -2.914742 -2.416046
v -3.760887 -1.031242 -2.416046
v -6.373199 -1.031242 -2.416046
vt 0.359055 0.025918
vt 0.360139 0.025918
vt 0.360139 0.027003
vt 0.359055 0.027003
vt 0.360139 0.028088
vt 0.359055 0.028088
vt 0.360139 0.029172
vt 0.359055 0.029172
vt 0.360139 0.030257
vt 0.359055 0.030257
vt 0.361224 0.025918
vt 0.361224 0.027003
vt 0.357970 0.025918
vt 0.357970 0.027003
vt 0.360139 0.026413
vt 0.360139 0.028583
vt 0.361224 0.026508
vt 0.360139 0.026153
vt 0.360139 0.028890
vt 0.361224 0.026201
vt 0.360139 0.026009
vt 0.360139 0.029043
vt 0.361224 0.026047
vt 0.360139 0.026051
vt 0.360139 0.028983
vt 0.361224 0.026108
vt 0.360139 0.026093
vt 0.360139 0.028934
vt 0.361224 0.026156
vt 0.360139 0.026109
vt 0.361224 0.026170
vt 0.360139 0.026120
vt 0.360139 0.028905
vt 0.361224 0.026185
vt 0.360139 0.026131
vt 0.360139 0.028897
vt 0.361224 0.026194
vt 0.360139 0.026135
vt 0.360139 0.028895
vt 0.361224 0.026196
vt 0.360139 0.026148
vt 0.360139 0.028891
vt 0.361224 0.026199
vt 0.360139 0.026150
vt 0.360139 0.026133
vt 0.360139 0.028896
vt 0.361224 0.026195
vt 0.360139 0.028891
vt 0.361224 0.026200
vt 0.360139 0.026149
vt 0.360139 0.026134
vt 0.360139 0.028895
vt 0.361224 0.026195
vt 0.360139 0.028891
vt 0.361224 0.026199
vt 0.360139 0.026135
vt 0.360139 0.026149
vt 0.360139 0.028891
vt 0.361224 0.026199
vt 0.360139 0.028895
vt 0.361224 0.026196
vt 0.360139 0.028958
vt 0.361224 0.026132
vt 0.360139 0.026072
vt 0.360139 0.025963
vt 0.360139 0.029108
vt 0.361224 0.025983
vt 0.359232 0.027003
vt 0.359347 0.028088
vt 0.359455 0.027003
vt 0.359532 0.028088
vt 0.359285 0.027003
vt 0.359443 0.028088
vt 0.359349 0.027003
vt 0.359507 0.028088
vt 0.360139 0.028752
vt 0.361224 0.026338
vt 0.360139 0.026245
vt 0.360139 0.028680
vt 0.361224 0.026410
vt 0.360139 0.026373
vt 0.360139 0.028418
vt 0.361224 0.026672
vt 0.360139 0.026586
vt 0.360139 0.028242
vt 0.361224 0.026849
vt 0.360139 0.026805
vt 0.360108 0.028088
vt 0.360106 0.027003
vt 0.360029 0.028088
vt 0.360019 0.027003
vt 0.360139 0.026625
vt 0.360139 0.028341
vt 0.361224 0.026750
vt 0.360139 0.026742
vt 0.360139 0.028315
vt 0.361224 0.026776
vt 0.360069 0.028088
vt 0.360063 0.027003
vt 0.360088 0.028088
vt 0.360084 0.027003
vt 0.360139 0.026309
vt 0.360139 0.028716
vt 0.361224 0.026374
vt 0.360139 0.026341
vt 0.360139 0.028698
vt 0.361224 0.026392
vt 0.360139 0.026101
vt 0.361224 0.026163
vt 0.360139 0.026317
vt 0.360139 0.028712
vt 0.361224 0.026379
vt 0.360139 0.026333
vt 0.360139 0.028703
vt 0.361224 0.026388
vt 0.359943 0.026354
vt 0.360139 0.026093
vt 0.360139 0.026101
vt 0.360139 0.026109
vt 0.360139 0.026120
vt 0.359943 0.026354
vt 0.360139 0.026093
vt 0.360139 0.026101
vt 0.360139 0.026109
vt 0.360139 0.026120
vt 0.359943 0.026354
vt 0.360139 0.028921
vt 0.360139 0.028907
vt 0.360139 0.028932
vt 0.360139 0.028906
vt 0.360139 0.028907
vt 0.360139 0.028907
vt 0.360139 0.028907
vt 0.360139 0.028907
vt 0.360139 0.028907
vn 0.000000 0.000000 1.000000
vn 0.000000 0.000000 1.000000
vn 0.000000 0.000000 1.000000
vn 0.000000 0.000000 1.000000
vn 0.000000 1.000000 0.000000
vn 0.000000 1.000000 0.000000
vn 0.000000 1.000000 0.000000
vn 0.000000 1.000000 0.000000
vn -0.000000 0.000000 -1.000000
vn -0.000000 0.000000 -1.000000
vn -0.000000 0.000000 -1.000000
vn -0.000000 0.000000 -1.000000
vn 0.000000 -1.000000 0.000000
vn 0.000000 -1.000000 0.000000
vn 0.000000 -1.000000 0.000000
vn 0.000000 -1.000000 0.000000
vn 1.000000 0.000000 0.000000
vn 1.000000 0.000000 0.000000
vn 1.000000 0.000000 0.000000
vn 1.000000 0.000000 0.000000
vn -1.000000 0.000000 0.000000
vn -1.000000 0.000000 0.000000
vn -1.000000 0.000000 0.000000
vn -1.000000 0.000000 0.000000
vn -0.000000 -1.000000 -0.000000
vn -0.000000 -1.000000 -0.000000
vn -0.000000 -1.000000 -0.000000
vn -0.000000 -1.000000 -0.000000
vn 0.797616 0.603166 -0.000000
vn 0.797616 0.603166 -0.000000
vn 0.797616 0.603166 -0.000000
vn 0.797616 0.603166 -0.000000
vn -0.999004 -0.044626 0.000000
vn -0.999004 -0.044626 0.000000
vn -0.999004 -0.044626 0.000000
vn -0.999004 -0.044626 0.000000
vn -0.473167 -0.880973 -0.000000
vn -0.473167 -0.880973 -0.000000
vn -0.473167 -0.880973 -0.000000
vn -0.473167 -0.880973 -0.000000
vn 0.474629 -0.880186 0.000000
vn 0.474630 -0.880186 0.000000
vn 0.474630 -0.880186 0.000000
vn 0.474630 -0.880186 0.000000
vn 0.653681 -0.756770 0.000000
vn 0.653681 -0.756770 0.000000
vn 0.653681 -0.756770 0.000000
vn 0.653681 -0.756770 0.000000
vn 0.998365 -0.057164 0.000000
vn 0.998365 -0.057164 0.000000
vn 0.998365 -0.057164 0.000000
vn 0.998365 -0.057164 0.000000
vn 0.060324 -0.998179 -0.000000
vn 0.060324 -0.998179 -0.000000
vn 0.060324 -0.998179 -0.000000
vn 0.060324 -0.998179 -0.000000
vn -0.825342 -0.564633 0.000000
vn -0.825342 -0.564633 0.000000
vn -0.825342 -0.564633 0.000000
vn -0.825342 -0.564633 0.000000
vn 0.650455 -0.759545 0.000000
vn 0.650455 -0.759545 0.000000
vn 0.650455 -0.759545 0.000000
vn 0.650455 -0.759545 0.000000
vn -0.000000 0.000000 1.000000
vn -0.000000 0.000000 1.000000
vn -0.000000 0.000000 1.000000
vn -0.000000 0.000000 1.000000
vn 0.000000 0.000000 -1.000000
vn 0.000000 0.000000 -1.000000
vn 0.000000 0.000000 -1.000000
vn 0.000000 0.000000 1.000000
vn 0.000000 0.000000 1.000000
vn 0.000000 0.000000 1.000000
vn 0.000000 0.000000 1.000000
vn -0.943390 -0.331685 -0.000000
vn -0.943390 -0.331685 -0.000000
vn -0.943390 -0.331685 -0.000000
vn -0.943390 -0.331685 -0.000000
vn 0.000000 0.000000 -1.000000
vn 0.000000 0.000000 -1.000000
vn 0.000000 0.000000 -1.000000
vn 0.000000 0.000000 -1.000000
vn 0.996234 0.086709 0.000000
vn 0.996234 0.086709 0.000000
vn 0.996234 0.086709 0.000000
vn 0.996234 0.086709 0.000000
vn 0.000000 0.000000 1.000000
vn 0.000000 0.000000 1.000000
vn 0.000000 0.000000 1.000000
vn 0.000000 0.000000 1.000000
vn -0.883434 -0.468556 0.000000
vn -0.883434 -0.468556 0.000000
vn -0.883434 -0.468556 0.000000
vn -0.883434 -0.468556 0.000000
vn 0.000000 0.000000 -1.000000
vn 0.000000 0.000000 -1.000000
vn 0.000000 0.000000 -1.000000
vn 0.000000 0.000000 -1.000000
vn 0.922076 0.387010 -0.000000
vn 0.922076 0.387010 -0.000000
vn 0.922076 0.387010 -0.000000
vn 0.922076 0.387010 -0.000000
vn 0.000000 0.000000 1.000000
vn 0.000000 0.000000 1.000000
vn 0.000000 0.000000 1.000000
vn 0.000000 0.000000 1.000000
vn 0.905026 0.425356 -0.000000
vn 0.905026 0.425356 -0.000000
vn 0.905026 0.425356 -0.000000
vn 0.905026 0.425356 -0.000000
vn -0.000000 0.000000 -1.000000
vn -0.000000 0.000000 -1.000000
vn -0.000000 0.000000 -1.000000
vn -0.000000 0.000000 -1.000000
vn -0.449342 -0.893360 0.000000
vn -0.449342 -0.893360 0.000000
vn -0.449342 -0.893360 0.000000
vn -0.449342 -0.893360 0.000000
vn 0.000000 0.000000 1.000000
vn 0.000000 0.000000 1.000000
vn 0.000000 0.000000 1.000000
vn 0.000000 0.000000 1.000000
vn 0.886139 -0.463420 0.000002
vn 0.886139 -0.463420 0.000002
vn 0.886139 -0.463420 0.000002
vn 0.886139 -0.463420 0.000002
vn 0.000000 0.000000 1.000000
vn 0.000000 0.000000 1.000000
vn 0.000000 0.000000 1.000000
vn 0.000000 0.000000 1.000000
vn -0.927177 0.374625 0.000000
vn -0.927177 0.374625 0.000000
vn -0.927177 0.374625 0.000000
vn -0.927177 0.374625 0.000000
vn -1.000000 0.000000 0.000000
vn -1.000000 0.000000 0.000000
vn -1.000000 0.000000 0.000000
vn -1.000000 0.000000 0.000000
vn 0.000000 1.000000 0.000000
vn 0.000000 1.000000 0.000000
vn 0.000000 1.000000 0.000000
vn 0.000000 1.000000 0.000000
vn 0.000000 1.000000 0.000000
vn 0.000000 1.000000 0.000000
vn 0.000000 1.000000 0.000000
vn 0.000000 1.000000 0.000000
vn 1.000000 0.000000 0.000000
vn 1.000000 0.000000 0.000000
vn 1.000000 0.000000 0.000000
vn 1.000000 0.000000 0.000000
vn 0.000000 0.000000 1.000000
vn 0.000000 0.000000 1.000000
vn 0.000000 0.000000 1.000000
vn 0.000000 0.000000 1.000000
vn 0.000000 0.000000 1.000000
vn 0.000000 0.000000 1.000000
vn 0.000000 0.000000 1.000000
vn 0.000000 0.000000 1.000000
vn 1.000000 0.000000 0.000000
vn 1.000000 0.000000 0.000000
vn 1.000000 0.000000 0.000000
vn 1.000000 0.000000 0.000000
vn -0.000000 -1.000000 -0.000000
vn -0.000000 -1.000000 -0.000000
vn -0.000000 -1.000000 -0.000000
vn -0.000000 -1.000000 -0.000000
vn 0.000000 1.000000 0.000000
vn 0.000000 1.000000 0.000000
vn 0.000000 1.000000 0.000000
vn 0.000000 1.000000 0.000000
vn 1.000000 0.000000 0.000000
vn 1.000000 0.000000 0.000000
vn 1.000000 0.000000 0.000000
vn 1.000000 0.000000 0.000000
vn 1.000000 0.000000 0.000000
vn 1.000000 0.000000 0.000000
vn 1.000000 0.000000 0.000000
vn 1.000000 0.000000 0.000000
vn 0.000000 1.000000 0.000000
vn 0.000000 1.000000 0.000000
vn 0.000000 1.000000 0.000000
vn 0.000000 1.000000 0.000000
vn 0.000000 -1.000000 0.000000
vn 0.000000 -1.000000 0.000000
vn 0.000000 -1.000000 0.000000
vn 0.000000 -1.000000 0.000000
vn 1.000000 -0.000004 0.000002
vn 1.000000 -0.000004 0.000002
vn 1.000000 -0.000004 0.000002
vn 1.000000 -0.000004 0.000002
vn -1.000000 0.000000 0.000000
vn -1.000000 0.000000 0.000000
vn -1.000000 0.000000 0.000000
vn -1.000000 0.000000 0.000000
vn 0.000000 1.000000 0.000000
vn 0.000000 1.000000 0.000000
vn 0.000000 1.000000 0.000000
vn 0.000000 1.000000 0.000000
vn -1.000000 0.000000 0.000000
vn -1.000000 0.000000 0.000000
vn -1.000000 0.000000 0.000000
vn -1.000000 0.000000 0.000000
vn 0.634071 -0.773275 0.000000
vn 0.634071 -0.773275 0.000000
vn 0.634071 -0.773275 0.000000
vn 0.634071 -0.773275 0.000000
vn 0.000000 0.000000 1.000000
vn 0.000000 0.000000 1.000000
vn 0.000000 0.000000 1.000000
vn 0.000000 0.000000 1.000000
vn 0.000000 0.000000 1.000000
vn 0.000000 0.000000 1.000000
vn 0.000000 0.000000 1.000000
vn 0.000000 0.000000 1.000000
vn 0.000000 0.000000 1.000000
vn 0.000000 0.000000 1.000000
vn 0.000000 0.000000 1.000000
vn 0.000000 0.000000 1.000000
vn 0.000000 0.000000 1.000000
vn 0.000000 0.000000 1.000000
vn 0.000000 0.000000 1.000000
vn 0.000000 0.000000 1.000000
vn 0.000000 0.000000 -1.000000
vn 0.000000 0.000000 -1.000000
vn 0.000000 0.000000 -1.000000
vn 0.000000 0.000000 -1.000000
vn 0.000000 0.000000 -1.000000
vn 0.000000 0.000000 -1.000000
vn 0.000000 0.000000 -1.000000
vn 0.000000 0.000000 -1.000000
vn 0.000000 0.000000 -1.000000
vn 0.000000 0.000000 -1.000000
vn 0.000000 0.000000 -1.000000
vn 0.000000 0.000000 -1.000000
vn 0.000000 0.000000 -1.000000
vn 0.000000 0.000000 -1.000000
vn 0.000000 0.000000 -1.000000
vn 0.000000 0.000000 -1.000000
vn 0.000000 0.000000 -1.000000
vn 0.000000 0.000000 -1.000000
vn 0.000000 0.000000 -1.000000
vn 0.000000 0.000000 -1.000000
vn 0.000000 0.000000 -1.000000
vn 0.000000 0.000000 -1.000000
vn 0.000000 0.000000 -1.000000
vn 0.000000 0.000000 -1.000000
vn 0.000000 0.000000 -1.000000
vn 0.000000 0.000000 -1.000000
vn -0.000000 0.000000 1.000000
vn -0.000000 0.000000 1.000000
vn -0.000000 0.000000 1.000000
vn -0.000000 0.000000 1.000000
vn -0.000000 0.000000 1.000000
vn 0.000000 0.000000 1.000000
vn 0.000000 0.000000 1.000000
vn 0.000000 0.000000 1.000000
vn 0.000000 0.000000 1.000000
vn 0.000000 0.000000 1.000000
vn 0.000000 0.000000 1.000000
vn 0.000000 0.000000 1.000000
vn 0.000000 0.000000 1.000000
vn 0.000000 0.000000 1.000000
vn 0.000000 0.000000 1.000000
vn 0.000000 0.000000 1.000000
vn 0.000000 0.000000 1.000000
vn 0.000000 0.000000 1.000000
vn 0.000000 0.000000 1.000000
vn -0.000000 0.000000 -1.000000
vn -0.000000 0.000000 -1.000000
vn -0.000000 0.000000 -1.000000
vn -0.000000 0.000000 -1.000000
vn -0.000000 0.000000 -1.000000
vn -0.000000 0.000000 -1.000000
vn 0.000000 0.000000 -1.000000
vn 0.000000 0.000000 -1.000000
vn 0.000000 0.000000 -1.000000
vn 0.000000 0.000000 -1.000000
vn 0.000000 -0.000000 -1.000000
vn 0.000000 -0.000000 -1.000000
vn 0.000000 -0.000000 -1.000000
vn 0.000000 -0.000000 -1.000000
vn 0.000000 0.000000 -1.000000
vn 0.000000 0.000000 -1.000000
vn 0.000000 0.000000 -1.000000
vn 0.000000 0.000000 -1.000000
vn -0.000000 0.000000 -1.000000
vn -0.000000 0.000000 -1.000000
vn -0.000000 0.000000 -1.000000
vn 0.000000 0.000000 -1.000000
vn 0.000000 0.000000 -1.000000
vn 0.000000 0.000000 -1.000000
vn 0.000000 0.000000 1.000000
vn 0.000000 0.000000 1.000000
vn 0.000000 0.000000 1.000000
vn 0.000000 0.000000 1.000000
vn 0.000000 0.000000 1.000000
vn 0.000000 0.000000 1.000000
vn 0.005884 -0.999983 -0.000000
vn 0.005884 -0.999983 -0.000000
vn 0.005884 -0.999983 -0.000000
vn 0.005884 -0.999983 -0.000000
vn 0.000000 0.000000 1.000000
vn 0.000000 0.000000 1.000000
vn 0.000000 0.000000 1.000000
vn -0.634070 -0.773276 0.000000
vn -0.634070 -0.773276 0.000000
vn -0.634070 -0.773276 0.000000
vn -0.634070 -0.773276 0.000000
vn 0.000000 0.000000 -1.000000
vn 0.000000 0.000000 -1.000000
vn 0.000000 0.000000 -1.000000
vn 0.000000 -1.000000 0.000000
vn 0.000000 -1.000000 0.000000
vn 0.000000 -1.000000 0.000000
vn 0.000000 -1.000000 0.000000
vn 0.000000 0.000000 1.000000
vn 0.000000 0.000000 1.000000
vn 0.000000 0.000000 1.000000
vn 0.000000 0.000000 1.000000
vn -0.000000 0.000000 1.000000
vn -0.000000 0.000000 1.000000
vn -0.000000 0.000000 1.000000
vn -0.000000 0.000000 1.000000
vn 0.000000 0.000000 1.000000
vn 0.000000 0.000000 1.000000
vn 0.000000 0.000000 1.000000
vn 0.000000 0.000000 1.000000
vn 0.000000 0.000000 -0.000000
vn 0.000000 0.000000 -1.000000
vn 0.000000 0.000000 -1.000000
vn 0.000000 0.000000 -1.000000
vn 0.000001 0.000000 1.000000
vn 0.000001 0.000000 1.000000
vn 0.000001 0.000000 1.000000
vn 0.000001 0.000000 1.000000
vn -0.004136 0.999991 0.000000
vn -0.004136 0.999991 0.000000
vn -0.004136 0.999991 0.000000
vn -0.004136 0.999991 0.000000
vn -0.657573 0.753391 0.000000
vn -0.657573 0.753391 0.000000
vn -0.657573 0.753391 0.000000
vn -0.657573 0.753391 0.000000
vn -0.999265 0.038339 0.000000
vn -0.999265 0.038339 0.000000
vn -0.999265 0.038339 0.000000
vn -0.999265 0.038339 0.000000
vn 0.000000 -1.000000 0.000000
vn 0.000000 -1.000000 0.000000
vn 0.000000 -1.000000 0.000000
vn 0.000000 -1.000000 0.000000
vn 0.952420 -0.304790 0.000000
vn 0.952420 -0.304790 0.000000
vn 0.952420 -0.304790 0.000000
vn 0.952420 -0.304790 0.000000
vn -0.000000 -0.000000 -1.000000
vn -0.000000 -0.000000 -1.000000
vn -0.000000 -0.000000 -1.000000
vn 0.000000 0.000000 -1.000000
vn 0.000000 0.000000 -1.000000
vn 0.000000 0.000000 -1.000000
vn -0.000000 0.000000 -1.000000
vn -0.000000 0.000000 -1.000000
vn -0.000000 0.000000 -1.000000
vn -0.000000 0.000000 -1.000000
vn 0.000000 0.000000 -1.000000
vn 0.000000 0.000000 -1.000000
vn 0.000000 0.000000 -1.000000
vn 0.000000 -0.000000 -1.000000
vn 0.000000 -0.000000 -1.000000
vn 0.000000 -0.000000 -1.000000
vn 0.000000 -0.000000 -1.000000
vn 0.000001 0.000000 -1.000000
vn 0.000001 0.000000 -1.000000
vn 0.000001 0.000000 -1.000000
vn 0.000000 -0.000000 -1.000000
vn 0.000000 -0.000000 -1.000000
vn 0.000000 -0.000000 -1.000000
vn 0.000000 -0.000000 -1.000000
s off
f 42/64/1 43/65/2 13/21/3 15/24/4
f 3/4/5 45/68/6 46/69/7 5/6/8
f 35/52/9 36/54/10 39/58/11 40/60/12
f 7/8/13 8/7/14 2/9/15 1/10/16
f 9/15/17 10/17/18 57/83/19 58/84/20
f 7/13/21 1/1/22 3/4/23 5/14/24
f 11/18/25 12/20/26 53/77/27 54/78/28
f 38/57/29 39/59/30 36/55/31 33/50/32
f 43/65/33 44/67/34 14/23/35 13/21/36
f 13/21/37 14/23/38 16/26/39 15/24/40
f 15/24/41 16/26/42 41/63/43 42/64/44
f 77/108/45 78/109/46 20/31/47 19/30/48
f 19/30/49 20/31/50 22/34/51 21/32/52
f 21/32/53 22/34/54 24/37/55 23/35/56
f 34/51/57 35/53/58 40/61/59 37/56/60
f 25/38/61 26/40/62 28/43/63 27/41/64
f 33/50/65 34/51/66 37/56/67 38/57/68
f 59/85/69 61/88/70 6/5/71
f 11/18/72 23/35/73 30/45/74 29/44/75
f 23/35/76 24/37/77 31/47/78 30/45/79
f 24/36/80 12/19/81 32/48/82 31/46/83
f 29/44/84 32/49/85 12/20/86 11/18/87
f 29/44/88 30/45/89 34/51/90 33/50/91
f 30/45/92 31/47/93 35/53/94 34/51/95
f 31/46/96 32/48/97 36/54/98 35/52/99
f 33/50/100 36/55/101 32/49/102 29/44/103
f 38/57/104 37/56/105 25/38/106 27/41/107
f 27/41/108 28/43/109 39/59/110 38/57/111
f 40/60/112 39/58/113 28/42/114 26/39/115
f 37/56/116 40/61/117 26/40/118 25/38/119
f 45/68/120 47/70/121 51/74/122 49/72/123
f 42/64/124 41/63/125 18/29/126 17/27/127
f 17/27/128 2/2/129 43/65/130 42/64/131
f 2/2/132 8/11/133 44/67/134 43/65/135
f 46/69/136 45/68/137 49/72/138 50/73/139
f 61/88/140 62/89/141 4/3/142 6/5/143
f 50/73/144 49/72/145 51/74/146 52/75/147
f 52/75/148 51/74/149 47/70/150 48/71/151
f 1/1/152 2/2/153 45/68/154 3/4/155
f 64/91/156 62/89/157 72/101/158 70/99/159
f 75/105/160 76/107/161 55/80/162 56/81/163
f 56/81/164 55/80/165 10/17/166 9/15/167
f 67/95/168 68/97/169 59/86/170 60/87/171
f 60/87/172 59/86/173 6/12/174 4/3/175
f 71/100/176 72/101/177 62/89/178 61/88/179
f 48/71/180 47/70/181 64/91/182 63/90/183
f 58/84/184 57/83/185 66/94/186 65/92/187
f 65/92/188 66/94/189 68/97/190 67/95/191
f 63/90/192 64/91/193 70/99/194 69/98/195
f 69/98/196 70/99/197 72/101/198 71/100/199
f 54/78/200 53/77/201 74/104/202 73/102/203
f 81/113/204 82/115/205 76/107/206 75/105/207
f 79/110/208 81/113/209 75/105/210 56/81/211 54/78/212 73/102/213
f 60/87/214 58/84/215 65/92/216 67/95/217
f 62/89/218 60/87/219 4/3/220
f 58/84/221 56/81/222 9/15/223
f 57/82/224 59/85/225 68/96/226 66/93/227
f 61/88/228 63/90/229 69/98/230 71/100/231
f 55/79/232 57/82/233 10/16/234
f 53/76/235 55/79/236 76/106/237 82/114/238 80/111/239 74/103/240
f 55/79/241 63/90/242 61/88/243 59/85/244 57/82/245
f 12/19/246 48/71/247 63/90/248 53/76/249
f 64/91/250 56/81/251 58/84/252 60/87/253 62/89/254
f 64/91/255 11/18/256 54/78/257
f 47/70/258 21/32/259 23/35/260
f 45/68/261 2/2/262 17/27/263 83/116/264 47/70/265
f 47/70/266 83/116/267 21/32/268
f 8/7/269 18/28/270 41/62/271 16/25/272 14/22/273 44/66/274
f 5/6/275 46/69/276 8/7/277 7/8/278
f 92/128/279 22/33/280 20/130/281 91/131/282
f 48/71/283 46/69/284 50/73/285 52/75/286
f 24/36/287 48/71/288 12/19/289
f 22/33/290 48/71/291 24/36/292
f 47/70/293 23/35/294 11/18/295
f 47/70/296 11/18/297 64/91/298
f 17/27/299 18/29/300 78/109/301 77/108/302
f 56/81/303 64/91/304 54/78/305
f 73/102/306 74/104/307 80/112/308 79/110/309
f 53/76/310 63/90/311 55/79/312
f 80/112/313 82/115/314 81/113/315 79/110/316
f 17/27/317 77/108/318 85/118/319 84/117/320
f 77/108/321 19/30/322 86/119/323 85/118/324
f 19/30/325 21/32/326 87/120/327 86/119/328
f 21/32/329 83/116/330 88/121/331 87/120/332
f 83/116/333 17/27/334 84/117/335 88/121/336
f 84/117/337 85/118/338 90/123/339 89/122/340
f 85/118/341 86/119/342 91/124/343 90/123/344
f 86/119/345 87/120/346 92/125/347 91/124/348
f 87/120/349 88/121/350 93/126/351 92/125/352
f 88/121/353 84/117/354 89/122/355 93/126/356
f 8/7/357 89/129/358 18/28/359
f 8/7/360 93/127/361 89/129/362
f 48/71/363 93/127/364 8/7/365 46/69/366
f 48/71/367 92/128/368 93/127/369
f 91/131/370 20/130/371 78/132/372 90/133/373
f 48/71/374 22/33/375 92/128/376
f 90/133/377 78/132/378 18/134/379 89/135/380
