# This file uses meters as units for non-parametric coordinates.

v 3.939621 0.000000 -3.939636
v 0.000015 0.000000 -5.571289
v -3.939621 0.000000 -3.939636
v -5.571579 0.000000 0.000122
v -3.939621 0.000000 3.939575
v 0.000015 0.000000 5.571472
v 3.939621 0.000000 3.939575
v 5.571457 0.000000 0.000122
v 5.366104 17.073593 -5.365967
v 0.000015 17.073593 -7.588684
v -5.366104 17.073593 -5.365967
v -7.588852 17.073593 0.000000
v -5.366104 17.073593 5.366150
v 0.000015 17.073593 7.588806
v 5.366104 17.073593 5.366150
v 7.588860 17.073593 0.000000
v 0.000015 0.000000 0.000000
v -5.698410 15.723358 5.698181
v -8.058517 15.723358 0.000000
v -5.698410 15.723358 -5.698303
v 0.000015 15.723358 -8.058472
v 5.698288 15.723358 -5.698303
v 8.058517 15.723358 0.000000
v 5.698288 15.723358 5.698181
v 0.000015 15.723358 8.058594
v 4.552475 17.073593 -4.552551
v 0.000015 17.073593 -6.438171
v -4.552505 17.073593 -4.552551
v -6.438309 17.073593 0.000000
v -4.552505 17.073593 4.552490
v 0.000015 17.073593 6.438293
v 4.552475 17.073593 4.552490
v 6.438248 17.073593 0.000000
v 4.552475 15.471008 -4.552551
v 0.000015 15.471008 -6.438171
v -4.552505 15.471008 -4.552551
v -6.438309 15.471008 0.000000
v -4.552505 15.471008 4.552490
v 0.000015 15.471008 6.438293
v 4.552475 15.471008 4.552490
v 6.438248 15.471008 0.000000
v 0.000046 7.737503 1.010498
v -0.714432 7.737503 0.714600
v -1.010483 7.737503 0.000000
v -0.714432 7.737503 -0.714478
v 0.000046 7.737503 -1.010315
v 0.714432 7.737503 -0.714478
v 1.010483 7.737503 0.000000
v 0.714432 7.737503 0.714600
v 0.000015 12.675842 5.158264
v -3.647385 12.675842 3.647400
v -5.158127 12.675842 0.000000
v -3.647385 12.675842 -3.647400
v 0.000015 12.675842 -5.158020
v 3.647385 12.675842 -3.647400
v 5.158127 12.675842 0.000000
v 3.647385 12.675842 3.647400
v -0.680511 1.314331 0.680603
v -0.962296 1.314331 0.000000
v -0.680511 1.314331 -0.680420
v 0.000046 1.314331 -0.962219
v 0.680511 1.314331 -0.680420
v 0.962296 1.314331 0.000000
v 0.680511 1.314331 0.680603
v 0.000046 1.314331 0.962402
v -3.695374 0.657150 3.695374
v -5.226166 0.657150 -0.000061
v -3.695374 0.657150 -3.695496
v 0.000031 0.657150 -5.226013
v 3.695496 0.657150 -3.695496
v 5.226166 0.657150 -0.000061
v 3.695496 0.657150 3.695374
v 0.000031 0.657150 5.226135
vt 0.370753 0.472612
vt 0.370583 0.472612
vt 0.370583 0.473001
vt 0.370753 0.473002
vt 0.370464 0.472574
vt 0.370464 0.472963
vt 0.370467 0.472522
vt 0.370467 0.472911
vt 0.370589 0.472486
vt 0.370589 0.472875
vt 0.370760 0.472487
vt 0.370760 0.472876
vt 0.370879 0.472524
vt 0.370879 0.472913
vt 0.370876 0.472576
vt 0.370876 0.472965
vt 0.370671 0.472549
vt 0.370594 0.472915
vt 0.370479 0.472949
vt 0.370476 0.472998
vt 0.370588 0.473033
vt 0.370749 0.473034
vt 0.370864 0.472999
vt 0.370867 0.472950
vt 0.370755 0.472915
vt 0.370601 0.473024
vt 0.370737 0.473025
vt 0.370506 0.472994
vt 0.370508 0.472952
vt 0.370606 0.472924
vt 0.370742 0.472924
vt 0.370837 0.472954
vt 0.370835 0.472996
vt 0.372730 0.474444
vt 0.367416 0.474444
vt 0.367416 0.469130
vt 0.372730 0.469130
vt 0.372730 0.474444
vt 0.367416 0.474444
vt 0.367416 0.469130
vt 0.372730 0.469130
vt 0.372730 0.474444
vt 0.367416 0.474444
vt 0.367416 0.469130
vt 0.372730 0.469130
vt 0.372730 0.474444
vt 0.367416 0.474444
vt 0.367416 0.469130
vt 0.372730 0.469130
vt 0.372730 0.474444
vt 0.367416 0.474444
vt 0.367416 0.469130
vt 0.372730 0.469130
vt 0.372730 0.474444
vt 0.367416 0.474444
vt 0.367416 0.469130
vt 0.372730 0.469130
vt 0.372730 0.474444
vt 0.367416 0.474444
vt 0.367416 0.469130
vt 0.372730 0.469130
vt 0.372730 0.474444
vt 0.367416 0.474444
vt 0.367416 0.469130
vt 0.372730 0.469130
vt 0.370760 0.472681
vt 0.370589 0.472681
vt 0.370467 0.472717
vt 0.370464 0.472769
vt 0.370583 0.472806
vt 0.370753 0.472807
vt 0.370876 0.472771
vt 0.370879 0.472719
vt 0.370760 0.472779
vt 0.370589 0.472778
vt 0.370467 0.472814
vt 0.370464 0.472866
vt 0.370583 0.472904
vt 0.370753 0.472904
vt 0.370876 0.472868
vt 0.370879 0.472816
vt 0.370589 0.472583
vt 0.370467 0.472620
vt 0.370464 0.472672
vt 0.370583 0.472709
vt 0.370753 0.472710
vt 0.370876 0.472674
vt 0.370879 0.472622
vt 0.370760 0.472584
vt 0.370589 0.472535
vt 0.370467 0.472571
vt 0.370464 0.472623
vt 0.370583 0.472660
vt 0.370753 0.472661
vt 0.370876 0.472625
vt 0.370879 0.472573
vt 0.370760 0.472535
vn 0.344234 0.436678 -0.831153
vn 0.344234 0.436678 -0.831153
vn 0.344234 0.436678 -0.831153
vn 0.344234 0.436678 -0.831153
vn -0.344229 0.436710 -0.831138
vn -0.344229 0.436710 -0.831138
vn -0.344229 0.436710 -0.831138
vn -0.344229 0.436710 -0.831138
vn -0.831091 0.436771 -0.344266
vn -0.831091 0.436771 -0.344266
vn -0.831091 0.436771 -0.344266
vn -0.831091 0.436771 -0.344266
vn -0.831046 0.436861 0.344260
vn -0.831046 0.436861 0.344261
vn -0.831046 0.436861 0.344261
vn -0.831046 0.436861 0.344261
vn -0.344263 0.436773 0.831091
vn -0.344263 0.436773 0.831091
vn -0.344263 0.436773 0.831091
vn -0.344263 0.436773 0.831091
vn 0.344267 0.436741 0.831106
vn 0.344267 0.436741 0.831106
vn 0.344267 0.436741 0.831106
vn 0.344267 0.436741 0.831106
vn 0.831111 0.436736 0.344261
vn 0.831111 0.436736 0.344261
vn 0.831111 0.436736 0.344261
vn 0.831111 0.436736 0.344261
vn 0.831157 0.436646 -0.344266
vn 0.831157 0.436646 -0.344266
vn 0.831157 0.436646 -0.344266
vn 0.831157 0.436646 -0.344266
vn 0.000000 -1.000000 0.000000
vn 0.000000 -1.000000 0.000000
vn 0.000000 -1.000000 0.000000
vn 0.000000 -1.000000 0.000000
vn 0.000000 -1.000000 0.000000
vn 0.000000 -1.000000 0.000000
vn 0.000000 -1.000000 0.000000
vn 0.000000 -1.000000 0.000000
vn 0.000000 -1.000000 0.000000
vn 0.000000 -1.000000 0.000000
vn 0.000000 -1.000000 0.000000
vn 0.000000 -1.000000 0.000000
vn 0.000000 -1.000000 0.000000
vn 0.000000 -1.000000 0.000000
vn 0.000000 -1.000000 0.000000
vn 0.000000 -1.000000 0.000000
vn 0.000000 -1.000000 0.000000
vn 0.000000 -1.000000 0.000000
vn 0.000000 -1.000000 0.000000
vn 0.000000 -1.000000 0.000000
vn 0.000000 -1.000000 0.000000
vn 0.000000 -1.000000 0.000000
vn 0.000000 -1.000000 0.000000
vn 0.000000 -1.000000 0.000000
vn -0.879566 0.306003 0.364317
vn -0.879566 0.306003 0.364317
vn -0.879566 0.306003 0.364317
vn -0.879566 0.306003 0.364317
vn -0.879554 0.306040 -0.364314
vn -0.879554 0.306040 -0.364314
vn -0.879554 0.306040 -0.364314
vn -0.879554 0.306040 -0.364314
vn -0.364303 0.306081 -0.879544
vn -0.364303 0.306081 -0.879544
vn -0.364303 0.306081 -0.879544
vn -0.364303 0.306081 -0.879544
vn 0.364310 0.306067 -0.879546
vn 0.364310 0.306067 -0.879546
vn 0.364310 0.306067 -0.879546
vn 0.364310 0.306067 -0.879546
vn 0.879562 0.306002 -0.364327
vn 0.879562 0.306002 -0.364327
vn 0.879562 0.306002 -0.364327
vn 0.879562 0.306002 -0.364327
vn 0.879573 0.305964 0.364330
vn 0.879573 0.305964 0.364330
vn 0.879573 0.305964 0.364330
vn 0.879573 0.305964 0.364330
vn 0.364334 0.305976 0.879568
vn 0.364334 0.305976 0.879568
vn 0.364334 0.305976 0.879568
vn 0.364334 0.305976 0.879568
vn -0.364327 0.305991 0.879566
vn -0.364327 0.305991 0.879566
vn -0.364327 0.305991 0.879566
vn -0.364327 0.305991 0.879566
vn 0.000000 1.000000 -0.000000
vn 0.000000 1.000000 -0.000000
vn 0.000000 1.000000 -0.000000
vn 0.000000 1.000000 -0.000000
vn 0.000000 1.000000 0.000000
vn 0.000000 1.000000 0.000000
vn 0.000000 1.000000 0.000000
vn 0.000000 1.000000 0.000000
vn 0.000000 1.000000 -0.000000
vn 0.000000 1.000000 -0.000000
vn 0.000000 1.000000 -0.000000
vn 0.000000 1.000000 -0.000000
vn 0.000000 1.000000 0.000000
vn 0.000000 1.000000 0.000000
vn 0.000000 1.000000 0.000000
vn 0.000000 1.000000 0.000000
vn 0.000000 1.000000 0.000000
vn 0.000000 1.000000 0.000000
vn 0.000000 1.000000 0.000000
vn 0.000000 1.000000 0.000000
vn 0.000000 1.000000 0.000000
vn 0.000000 1.000000 0.000000
vn 0.000000 1.000000 0.000000
vn 0.000000 1.000000 0.000000
vn 0.000000 1.000000 0.000000
vn 0.000000 1.000000 0.000000
vn 0.000000 1.000000 0.000000
vn 0.000000 1.000000 0.000000
vn 0.000000 1.000000 0.000000
vn 0.000000 1.000000 0.000000
vn 0.000000 1.000000 0.000000
vn 0.000000 1.000000 0.000000
vn -0.382671 0.000000 0.923885
vn -0.382671 0.000000 0.923885
vn -0.382671 0.000000 0.923885
vn -0.382671 0.000000 0.923885
vn 0.382667 0.000000 0.923887
vn 0.382667 0.000000 0.923887
vn 0.382667 0.000000 0.923887
vn 0.382667 0.000000 0.923887
vn 0.923874 0.000000 0.382696
vn 0.923874 0.000000 0.382696
vn 0.923874 0.000000 0.382696
vn 0.923874 0.000000 0.382696
vn 0.923872 0.000000 -0.382701
vn 0.923872 0.000000 -0.382701
vn 0.923872 0.000000 -0.382701
vn 0.923872 0.000000 -0.382701
vn 0.382698 0.000000 -0.923873
vn 0.382698 0.000000 -0.923873
vn 0.382698 0.000000 -0.923873
vn 0.382698 0.000000 -0.923873
vn -0.382703 0.000000 -0.923871
vn -0.382703 0.000000 -0.923871
vn -0.382703 0.000000 -0.923871
vn -0.382703 0.000000 -0.923871
vn -0.923875 0.000000 -0.382695
vn -0.923875 0.000000 -0.382695
vn -0.923875 0.000000 -0.382695
vn -0.923875 0.000000 -0.382695
vn -0.923876 0.000000 0.382691
vn -0.923876 0.000000 0.382691
vn -0.923876 0.000000 0.382691
vn -0.923876 0.000000 0.382691
vn -0.302339 -0.613050 0.729905
vn -0.302339 -0.613050 0.729905
vn -0.302339 -0.613050 0.729905
vn -0.302339 -0.613050 0.729905
vn -0.729908 -0.613048 0.302337
vn -0.729908 -0.613048 0.302336
vn -0.729908 -0.613048 0.302337
vn -0.729908 -0.613048 0.302337
vn -0.729903 -0.613050 -0.302343
vn -0.729903 -0.613050 -0.302343
vn -0.729903 -0.613050 -0.302343
vn -0.729903 -0.613050 -0.302343
vn -0.302294 -0.613052 -0.729921
vn -0.302294 -0.613053 -0.729921
vn -0.302294 -0.613052 -0.729921
vn -0.302294 -0.613052 -0.729921
vn 0.302302 -0.613051 -0.729919
vn 0.302302 -0.613051 -0.729919
vn 0.302302 -0.613051 -0.729919
vn 0.302302 -0.613051 -0.729919
vn 0.729903 -0.613050 -0.302343
vn 0.729903 -0.613050 -0.302343
vn 0.729903 -0.613050 -0.302343
vn 0.729903 -0.613050 -0.302343
vn 0.729908 -0.613048 0.302337
vn 0.729908 -0.613048 0.302337
vn 0.729908 -0.613048 0.302337
vn 0.729908 -0.613048 0.302337
vn 0.302346 -0.613049 0.729903
vn 0.302346 -0.613049 0.729903
vn 0.302346 -0.613049 0.729903
vn 0.302346 -0.613049 0.729903
vn -0.287398 -0.660315 0.693820
vn -0.287398 -0.660315 0.693820
vn -0.287398 -0.660315 0.693820
vn -0.287398 -0.660315 0.693820
vn -0.693818 -0.660328 0.287373
vn -0.693818 -0.660328 0.287373
vn -0.693818 -0.660328 0.287373
vn -0.693818 -0.660328 0.287373
vn -0.693817 -0.660331 -0.287369
vn -0.693817 -0.660331 -0.287369
vn -0.693817 -0.660331 -0.287369
vn -0.693817 -0.660331 -0.287369
vn -0.287362 -0.660331 -0.693820
vn -0.287362 -0.660331 -0.693820
vn -0.287362 -0.660331 -0.693820
vn -0.287362 -0.660331 -0.693820
vn 0.287368 -0.660327 -0.693821
vn 0.287368 -0.660327 -0.693821
vn 0.287368 -0.660327 -0.693821
vn 0.287368 -0.660327 -0.693821
vn 0.693820 -0.660324 -0.287379
vn 0.693820 -0.660324 -0.287379
vn 0.693820 -0.660324 -0.287379
vn 0.693820 -0.660324 -0.287379
vn 0.693821 -0.660320 0.287383
vn 0.693821 -0.660320 0.287383
vn 0.693821 -0.660320 0.287383
vn 0.693821 -0.660320 0.287383
vn 0.287404 -0.660312 0.693821
vn 0.287404 -0.660312 0.693821
vn 0.287404 -0.660312 0.693821
vn 0.287404 -0.660312 0.693821
vn -0.923875 -0.006918 0.382631
vn -0.923875 -0.006918 0.382631
vn -0.923875 -0.006918 0.382631
vn -0.923875 -0.006918 0.382631
vn -0.923846 -0.006919 -0.382702
vn -0.923846 -0.006919 -0.382702
vn -0.923846 -0.006919 -0.382702
vn -0.923846 -0.006919 -0.382702
vn -0.382558 -0.006919 -0.923906
vn -0.382558 -0.006919 -0.923906
vn -0.382558 -0.006919 -0.923906
vn -0.382558 -0.006919 -0.923906
vn 0.382601 -0.006919 -0.923888
vn 0.382601 -0.006919 -0.923888
vn 0.382601 -0.006919 -0.923888
vn 0.382601 -0.006919 -0.923888
vn 0.923846 -0.006919 -0.382702
vn 0.923846 -0.006919 -0.382702
vn 0.923846 -0.006919 -0.382702
vn 0.923846 -0.006919 -0.382702
vn 0.923875 -0.006918 0.382631
vn 0.923875 -0.006918 0.382631
vn 0.923875 -0.006918 0.382631
vn 0.923875 -0.006918 0.382631
vn 0.382635 -0.006914 0.923874
vn 0.382635 -0.006914 0.923873
vn 0.382635 -0.006914 0.923873
vn 0.382635 -0.006914 0.923874
vn -0.382593 -0.006914 0.923891
vn -0.382593 -0.006914 0.923891
vn -0.382593 -0.006914 0.923891
vn -0.382593 -0.006914 0.923891
vn -0.152032 0.986368 0.062972
vn -0.152032 0.986368 0.062972
vn -0.152032 0.986367 0.062972
vn -0.152032 0.986368 0.062972
vn -0.152028 0.986368 -0.062973
vn -0.152028 0.986368 -0.062973
vn -0.152028 0.986368 -0.062973
vn -0.152028 0.986368 -0.062973
vn -0.062964 0.986368 -0.152031
vn -0.062964 0.986368 -0.152031
vn -0.062964 0.986368 -0.152031
vn -0.062964 0.986368 -0.152031
vn 0.062964 0.986368 -0.152030
vn 0.062964 0.986368 -0.152030
vn 0.062964 0.986368 -0.152030
vn 0.062964 0.986368 -0.152030
vn 0.152027 0.986368 -0.062969
vn 0.152027 0.986368 -0.062969
vn 0.152027 0.986368 -0.062969
vn 0.152027 0.986368 -0.062969
vn 0.152031 0.986368 0.062968
vn 0.152031 0.986368 0.062968
vn 0.152031 0.986368 0.062968
vn 0.152031 0.986368 0.062968
vn 0.062974 0.986367 0.152034
vn 0.062974 0.986367 0.152034
vn 0.062974 0.986367 0.152034
vn 0.062974 0.986367 0.152034
vn -0.062974 0.986367 0.152035
vn -0.062974 0.986367 0.152035
vn -0.062974 0.986367 0.152035
vn -0.062974 0.986367 0.152035
s off
f 1/1/1 2/2/2 69/93/3 70/94/4
f 2/2/5 3/5/6 68/92/7 69/93/8
f 3/5/9 4/7/10 67/91/11 68/92/12
f 4/7/13 5/9/14 66/90/15 67/91/16
f 5/9/17 6/11/18 73/97/19 66/90/20
f 6/11/21 7/13/22 72/96/23 73/97/24
f 7/13/25 8/15/26 71/95/27 72/96/28
f 8/15/29 1/1/30 70/94/31 71/95/32
f 2/2/33 1/1/34 17/17/35
f 3/5/36 2/2/37 17/17/38
f 4/7/39 3/5/40 17/17/41
f 5/9/42 4/7/43 17/17/44
f 6/11/45 5/9/46 17/17/47
f 7/13/48 6/11/49 17/17/50
f 8/15/51 7/13/52 17/17/53
f 1/1/54 8/15/55 17/17/56
f 19/8/57 18/10/58 13/18/59 12/19/60
f 20/6/61 19/8/62 12/19/63 11/20/64
f 21/3/65 20/6/66 11/20/67 10/21/68
f 22/4/69 21/3/70 10/21/71 9/22/72
f 23/16/73 22/4/74 9/22/75 16/23/76
f 24/14/77 23/16/78 16/23/79 15/24/80
f 25/12/81 24/14/82 15/24/83 14/25/84
f 18/10/85 25/12/86 14/25/87 13/18/88
f 9/22/89 10/21/90 27/26/91 26/27/92
f 10/21/93 11/20/94 28/28/95 27/26/96
f 11/20/97 12/19/98 29/29/99 28/28/100
f 12/19/101 13/18/102 30/30/103 29/29/104
f 13/18/105 14/25/106 31/31/107 30/30/108
f 14/25/109 15/24/110 32/32/111 31/31/112
f 15/24/113 16/23/114 33/33/115 32/32/116
f 16/23/117 9/22/118 26/27/119 33/33/120
f 26/34/121 27/35/122 35/36/123 34/37/124
f 27/38/125 28/39/126 36/40/127 35/41/128
f 28/42/129 29/43/130 37/44/131 36/45/132
f 29/46/133 30/47/134 38/48/135 37/49/136
f 30/50/137 31/51/138 39/52/139 38/53/140
f 31/54/141 32/55/142 40/56/143 39/57/144
f 32/58/145 33/59/146 41/60/147 40/61/148
f 33/62/149 26/63/150 34/64/151 41/65/152
f 43/67/153 42/66/154 50/74/155 51/75/156
f 44/68/157 43/67/158 51/75/159 52/76/160
f 45/69/161 44/68/162 52/76/163 53/77/164
f 46/70/165 45/69/166 53/77/167 54/78/168
f 47/71/169 46/70/170 54/78/171 55/79/172
f 48/72/173 47/71/174 55/79/175 56/80/176
f 49/73/177 48/72/178 56/80/179 57/81/180
f 42/66/181 49/73/182 57/81/183 50/74/184
f 51/75/185 50/74/186 25/12/187 18/10/188
f 52/76/189 51/75/190 18/10/191 19/8/192
f 53/77/193 52/76/194 19/8/195 20/6/196
f 54/78/197 53/77/198 20/6/199 21/3/200
f 55/79/201 54/78/202 21/3/203 22/4/204
f 56/80/205 55/79/206 22/4/207 23/16/208
f 57/81/209 56/80/210 23/16/211 24/14/212
f 50/74/213 57/81/214 24/14/215 25/12/216
f 59/83/217 58/82/218 43/67/219 44/68/220
f 60/84/221 59/83/222 44/68/223 45/69/224
f 61/85/225 60/84/226 45/69/227 46/70/228
f 62/86/229 61/85/230 46/70/231 47/71/232
f 63/87/233 62/86/234 47/71/235 48/72/236
f 64/88/237 63/87/238 48/72/239 49/73/240
f 65/89/241 64/88/242 49/73/243 42/66/244
f 58/82/245 65/89/246 42/66/247 43/67/248
f 67/91/249 66/90/250 58/82/251 59/83/252
f 68/92/253 67/91/254 59/83/255 60/84/256
f 69/93/257 68/92/258 60/84/259 61/85/260
f 70/94/261 69/93/262 61/85/263 62/86/264
f 71/95/265 70/94/266 62/86/267 63/87/268
f 72/96/269 71/95/270 63/87/271 64/88/272
f 73/97/273 72/96/274 64/88/275 65/89/276
f 66/90/277 73/97/278 65/89/279 58/82/280
v 4.552521 15.471008 -4.552490
v -0.000061 15.471008 -6.438171
v -4.552490 15.471008 -4.552490
v -6.438202 15.471008 0.000000
v -4.552490 15.471008 4.552551
v -0.000061 15.471008 6.438171
v 4.552551 15.471008 4.552551
v 6.438232 15.471008 0.000000
v 1.389771 10.048187 -1.389832
v -0.000092 10.048187 -1.965515
v -1.389801 10.048187 -1.389832
v -1.965393 10.048187 -0.000183
v -1.389801 10.048187 1.389648
v -0.000092 10.048187 1.965271
v 1.389771 10.048187 1.389648
v 1.965332 10.048187 -0.000183
v -0.000092 15.470993 0.000000
v 0.598480 9.216995 -0.598572
v -0.000092 9.216995 -0.846497
v -0.598511 9.216995 -0.598572
v -0.846466 9.216995 -0.000183
v -0.598511 9.216995 0.598450
v -0.000092 9.216995 0.846252
v 0.598480 9.216995 0.598450
v 0.846283 9.216995 -0.000183
vt 0.303604 0.288243
vt 0.303468 0.288242
vt 0.303373 0.288213
vt 0.303375 0.288171
vt 0.303473 0.288142
vt 0.303609 0.288143
vt 0.303704 0.288173
vt 0.303702 0.288214
vt 0.303468 0.288573
vt 0.303604 0.288573
vt 0.303373 0.288543
vt 0.303375 0.288501
vt 0.303473 0.288472
vt 0.303609 0.288473
vt 0.303704 0.288503
vt 0.303702 0.288544
vt 0.303538 0.288523
vt 0.303468 0.288242
vt 0.303604 0.288243
vt 0.303373 0.288213
vt 0.303375 0.288171
vt 0.303473 0.288142
vt 0.303609 0.288143
vt 0.303704 0.288173
vt 0.303702 0.288214
vn 0.000000 -1.000000 0.000000
vn 0.000000 -1.000000 0.000001
vn 0.000000 -1.000000 0.000001
vn 0.000000 -1.000000 0.000001
vn 0.000000 -1.000000 0.000000
vn 0.000000 -1.000000 0.000000
vn 0.000000 -1.000000 0.000000
vn 0.000000 -1.000000 -0.000000
vn 0.000000 -1.000000 -0.000000
vn 0.000000 -1.000000 -0.000000
vn 0.304376 -0.606095 -0.734850
vn 0.304376 -0.606095 -0.734850
vn 0.304376 -0.606095 -0.734850
vn 0.304376 -0.606095 -0.734850
vn -0.304389 -0.606092 -0.734846
vn -0.304390 -0.606092 -0.734846
vn -0.304390 -0.606092 -0.734846
vn -0.304390 -0.606092 -0.734846
vn -0.734846 -0.606097 -0.304382
vn -0.734846 -0.606097 -0.304382
vn -0.734846 -0.606097 -0.304382
vn -0.734846 -0.606097 -0.304382
vn -0.734842 -0.606108 0.304368
vn -0.734842 -0.606108 0.304368
vn -0.734842 -0.606108 0.304368
vn -0.734842 -0.606108 0.304368
vn -0.304371 -0.606113 0.734837
vn -0.304371 -0.606113 0.734837
vn -0.304371 -0.606113 0.734837
vn -0.304371 -0.606113 0.734837
vn 0.304355 -0.606116 0.734841
vn 0.304355 -0.606116 0.734841
vn 0.304355 -0.606116 0.734841
vn 0.304355 -0.606116 0.734841
vn 0.734839 -0.606116 0.304359
vn 0.734839 -0.606116 0.304359
vn 0.734839 -0.606116 0.304359
vn 0.734839 -0.606116 0.304359
vn 0.734842 -0.606104 -0.304377
vn 0.734842 -0.606104 -0.304377
vn 0.734842 -0.606104 -0.304377
vn 0.734842 -0.606104 -0.304377
vn -0.000001 1.000000 0.000002
vn -0.000001 1.000000 0.000002
vn -0.000001 1.000000 0.000002
vn 0.000001 1.000000 -0.000003
vn 0.000001 1.000000 -0.000003
vn 0.000001 1.000000 -0.000003
vn -0.000002 1.000000 0.000001
vn -0.000002 1.000000 0.000001
vn -0.000002 1.000000 0.000001
vn 0.000002 1.000000 0.000001
vn 0.000002 1.000000 0.000001
vn 0.000002 1.000000 0.000001
vn 0.239777 -0.779351 -0.578894
vn 0.239777 -0.779351 -0.578894
vn 0.239777 -0.779351 -0.578894
vn 0.239777 -0.779351 -0.578894
vn -0.239809 -0.779352 -0.578881
vn -0.239809 -0.779352 -0.578881
vn -0.239809 -0.779352 -0.578881
vn -0.239809 -0.779352 -0.578881
vn -0.578895 -0.779342 -0.239807
vn -0.578895 -0.779342 -0.239807
vn -0.578895 -0.779342 -0.239807
vn -0.578895 -0.779342 -0.239807
vn -0.578917 -0.779338 0.239765
vn -0.578917 -0.779338 0.239765
vn -0.578917 -0.779338 0.239765
vn -0.578917 -0.779338 0.239765
vn -0.239767 -0.779343 0.578909
vn -0.239767 -0.779343 0.578909
vn -0.239767 -0.779343 0.578909
vn -0.239767 -0.779343 0.578909
vn 0.239736 -0.779343 0.578922
vn 0.239736 -0.779343 0.578922
vn 0.239736 -0.779343 0.578922
vn 0.239736 -0.779343 0.578922
vn 0.578917 -0.779355 0.239712
vn 0.578917 -0.779355 0.239712
vn 0.578917 -0.779355 0.239712
vn 0.578917 -0.779355 0.239712
vn 0.578894 -0.779358 -0.239754
vn 0.578894 -0.779358 -0.239754
vn 0.578894 -0.779358 -0.239754
vn 0.578894 -0.779358 -0.239754
vn 0.000002 1.000000 -0.000001
vn 0.000002 1.000000 -0.000001
vn 0.000002 1.000000 -0.000001
vn 0.000001 1.000000 0.000003
vn 0.000001 1.000000 0.000003
vn 0.000001 1.000000 0.000003
vn -0.000002 1.000000 -0.000001
vn -0.000002 1.000000 -0.000001
vn -0.000002 1.000000 -0.000001
vn -0.000001 1.000000 -0.000003
vn -0.000001 1.000000 -0.000003
vn -0.000001 1.000000 -0.000003
s off
f 93/117/281 92/115/282 91/116/283 98/122/284 97/121/285
f 93/117/286 97/121/287 96/120/288 95/119/289 94/118/290
f 74/107/291 82/98/292 83/99/293 75/106/294
f 75/106/295 83/99/296 84/100/297 76/108/298
f 76/108/299 84/100/300 85/101/301 77/109/302
f 77/109/303 85/101/304 86/102/305 78/110/306
f 78/110/307 86/102/308 87/103/309 79/111/310
f 79/111/311 87/103/312 88/104/313 80/112/314
f 80/112/315 88/104/316 89/105/317 81/113/318
f 81/113/319 89/105/320 82/98/321 74/107/322
f 75/106/323 90/114/324 74/107/325
f 90/114/326 78/110/327 79/111/328
f 90/114/329 81/113/330 74/107/331
f 90/114/332 76/108/333 77/109/334
f 83/99/335 82/98/336 91/116/337 92/115/338
f 84/100/339 83/99/340 92/115/341 93/117/342
f 85/101/343 84/100/344 93/117/345 94/118/346
f 86/102/347 85/101/348 94/118/349 95/119/350
f 87/103/351 86/102/352 95/119/353 96/120/354
f 88/104/355 87/103/356 96/120/357 97/121/358
f 89/105/359 88/104/360 97/121/361 98/122/362
f 82/98/363 89/105/364 98/122/365 91/116/366
f 90/114/367 77/109/368 78/110/369
f 75/106/370 76/108/371 90/114/372
f 90/114/373 80/112/374 81/113/375
f 90/114/376 79/111/377 80/112/378
