# This file uses meters as units for non-parametric coordinates.

v -115.463974 75.428154 43.272259
v 115.207527 75.428154 43.272259
v 115.207527 75.428154 -43.988991
v -115.463974 75.428154 -43.988991
v -110.970451 85.970825 43.272259
v 115.207527 85.970825 43.272259
v 115.207527 86.306480 -43.988991
v -115.463974 86.306480 -43.988991
v -110.752823 86.777107 38.741348
v 110.497330 85.635178 -40.216633
v -110.752823 85.635178 -40.216633
v 110.497330 86.777107 38.741348
v -106.311279 76.972504 33.440304
v 106.055687 76.972504 33.440304
v 106.055687 76.972504 -36.990402
v -106.311279 76.972504 -36.990402
v -115.463974 82.183189 43.272259
v -112.335449 86.506233 40.263512
v -115.463974 86.566071 39.927246
v -78.979065 85.970825 43.272259
v -68.359398 81.166893 43.272259
v -64.290169 85.970825 43.272259
v -71.588066 85.970825 39.815762
vt 0.245520 0.304353
vt 0.245520 0.304353
vt 0.245520 0.304353
vt 0.245520 0.304353
vt 0.994321 0.303398
vt 0.994321 0.303398
vt 0.994321 0.303398
vt 0.994321 0.303398
vt 0.994321 0.303398
vt 0.994321 0.303398
vt 0.994321 0.303398
vt 0.994321 0.303398
vt 0.994321 0.303398
vt 0.994321 0.303398
vt 0.994321 0.303398
vt 0.994321 0.303398
vt 0.994321 0.303398
vt 0.245520 0.304353
vt 0.245520 0.304353
vt 0.245520 0.304353
vt 0.245520 0.304353
vt 0.994321 0.303398
vt 0.994321 0.303398
vt 0.994321 0.303398
vt 0.994321 0.303398
vt 0.994321 0.303398
vt 0.994321 0.303398
vt 0.994321 0.303398
vn 0.000000 1.000000 0.000000
vn 0.000000 1.000000 0.000000
vn 0.000000 1.000000 0.000000
vn 0.000000 1.000000 0.000000
vn 0.000000 -1.000000 0.000000
vn 0.000000 -1.000000 0.000000
vn 0.000000 -1.000000 0.000000
vn 0.000000 -1.000000 0.000000
vn 1.000000 0.000000 0.000000
vn 1.000000 0.000000 0.000000
vn 1.000000 0.000000 0.000000
vn 1.000000 0.000000 0.000000
vn 0.000000 0.000000 -1.000000
vn 0.000000 0.000000 -1.000000
vn 0.000000 0.000000 -1.000000
vn 0.000000 0.000000 -1.000000
vn -1.000000 0.000000 0.000000
vn -1.000000 0.000000 0.000000
vn -1.000000 0.000000 0.000000
vn -1.000000 0.000000 0.000000
vn -1.000000 0.000000 0.000000
vn 0.000000 0.984533 0.175200
vn 0.000000 0.984533 0.175200
vn 0.000000 0.984533 0.175200
vn 0.000000 0.984533 0.175200
vn 0.050793 0.998682 -0.007317
vn 0.050793 0.998682 -0.007317
vn 0.050793 0.998682 -0.007317
vn 0.050793 0.998682 -0.007317
vn 0.050793 0.998682 -0.007317
vn 0.014717 0.999880 -0.004850
vn 0.014717 0.999880 -0.004850
vn 0.014717 0.999880 -0.004850
vn 0.014717 0.999880 -0.004850
vn 0.000000 0.475605 -0.879659
vn 0.000000 0.475605 -0.879659
vn 0.000000 0.475605 -0.879659
vn 0.000000 0.475605 -0.879659
vn -0.901011 0.433784 -0.003316
vn -0.901011 0.433784 -0.003316
vn -0.901011 0.433784 -0.003316
vn -0.901011 0.433783 -0.003316
vn 0.000000 0.349010 0.937119
vn 0.000000 0.349010 0.937119
vn 0.000000 0.349010 0.937119
vn 0.000000 0.349010 0.937119
vn 0.901015 0.433776 -0.003316
vn 0.901015 0.433776 -0.003316
vn 0.901015 0.433776 -0.003316
vn 0.901015 0.433776 -0.003316
vn 0.000000 0.000000 1.000000
vn 0.000000 0.000000 1.000000
vn 0.000000 0.000000 1.000000
vn 0.002642 0.843679 0.536842
vn 0.002642 0.843679 0.536842
vn 0.002642 0.843679 0.536842
vn 0.002642 0.843679 0.536842
vn -0.455306 0.540161 0.707759
vn -0.455306 0.540161 0.707759
vn -0.455306 0.540161 0.707759
vn 0.000000 0.984535 0.175190
vn 0.000000 0.984535 0.175190
vn 0.000000 0.984535 0.175190
vn 0.000000 0.000000 1.000000
vn 0.000000 0.000000 1.000000
vn 0.000000 0.000000 1.000000
vn 0.000000 0.000000 1.000000
vn 0.000000 0.000000 1.000000
vn 0.000000 0.000000 1.000000
vn 0.000000 0.000000 1.000000
vn 0.000000 0.000000 1.000000
vn 0.000000 0.000000 1.000000
vn -0.000000 0.000000 1.000000
vn -0.000000 0.000000 1.000000
vn -0.000000 0.000000 1.000000
vn -0.000000 0.000000 1.000000
vn -0.402412 0.340867 0.849632
vn -0.402412 0.340867 0.849632
vn -0.402412 0.340867 0.849632
vn -0.001911 0.994651 0.103276
vn -0.001911 0.994651 0.103276
vn -0.001911 0.994651 0.103276
vn -0.001911 0.994651 0.103276
vn 0.309209 0.683544 0.661179
vn 0.309209 0.683544 0.661179
vn 0.309209 0.683544 0.661179
vn 0.007884 0.995927 0.089822
vn 0.007884 0.995927 0.089822
vn 0.007884 0.995927 0.089822
vn 0.007884 0.995927 0.089822
s off
f 14/2/1 15/3/2 16/4/3 13/1/4
f 3/7/5 2/5/6 1/6/7 4/8/8
f 3/7/9 7/11/10 6/9/11 2/5/12
f 7/11/13 3/7/14 4/8/15 8/12/16
f 8/12/17 4/8/18 1/6/19 17/22/20 19/24/21
f 10/14/22 7/11/23 8/12/24 11/13/25
f 11/16/26 8/12/27 19/24/28 18/23/29 9/15/30
f 7/11/31 10/14/32 12/17/33 6/9/34
f 14/2/35 13/1/36 9/18/37 12/19/38
f 15/3/39 14/2/40 12/19/41 10/20/42
f 15/3/43 10/20/44 11/21/45 16/4/46
f 16/4/47 11/21/48 9/18/49 13/1/50
f 2/5/51 6/9/52 22/27/53
f 23/28/54 12/17/55 9/15/56 18/23/57
f 19/24/58 17/22/59 5/10/60
f 18/23/61 19/24/62 5/10/63
f 2/5/64 21/26/65 1/6/66
f 2/5/67 22/27/68 21/26/69
f 17/22/70 20/25/71 5/10/72
f 1/6/73 21/26/74 20/25/75 17/22/76
f 22/27/77 23/28/78 21/26/79
f 6/9/80 12/17/81 23/28/82 22/27/83
f 21/26/84 23/28/85 20/25/86
f 23/28/87 18/23/88 5/10/89 20/25/90
