# This file uses meters as units for non-parametric coordinates.

v -5.390739 106.055450 3.107153
v -3.107262 106.055450 5.390472
v 3.107071 106.055450 5.390472
v 5.390549 106.055450 3.107153
v 5.390549 106.055450 -3.107619
v 3.107071 106.055450 -5.390845
v -3.107262 106.055450 -5.390845
v -5.390739 106.055450 -3.107619
v -4.325104 109.906792 2.041437
v -2.041626 109.906792 4.324663
v 4.324913 109.906792 2.041437
v 2.041435 109.906792 4.324663
v 2.041435 109.906792 -4.324849
v 4.324913 109.906792 -2.041623
v -4.325104 109.906792 -2.041623
v -2.041626 109.906792 -4.324849
v 5.390549 98.378868 3.107153
v 3.107071 98.378868 5.390472
v -3.107262 98.378868 5.390472
v -5.390739 98.378868 3.107153
v -5.390739 98.378868 -3.107619
v -3.107262 98.378868 -5.390845
v 3.107071 98.378868 -5.390845
v 5.390549 98.378868 -3.107619
v 5.390549 91.073517 3.107153
v 3.107071 91.073517 5.390472
v -3.107262 91.073517 5.390472
v -5.390739 91.073517 3.107153
v -5.390739 91.073517 -3.107619
v -3.107262 91.073517 -5.390845
v 3.107071 91.073517 -5.390845
v 5.390549 91.073517 -3.107619
v 3.655434 93.299339 2.107143
v 2.107048 93.299339 3.655601
v 3.655434 98.378853 2.107143
v 2.107048 98.378853 3.655601
v -2.107048 93.299339 3.655601
v -2.107048 98.378853 3.655601
v -3.655624 93.299339 2.107143
v -3.655624 98.378853 2.107143
v -3.655624 93.299339 -2.107329
v -3.655624 98.378853 -2.107329
v -2.107048 93.299339 -3.655880
v -2.107048 98.378853 -3.655880
v 2.107048 93.299339 -3.655880
v 2.107048 98.378853 -3.655880
v 3.655434 93.299339 -2.107329
v 3.655434 98.378853 -2.107329
v 3.107071 0.000000 5.390472
v 5.390549 0.000000 3.107153
v 5.390549 0.000000 -3.107619
v 3.107071 0.000000 -5.390845
v -3.107262 0.000000 -5.390845
v -5.390739 0.000000 -3.107619
v -5.390739 0.000000 3.107153
v -3.107262 0.000000 5.390472
v -1.537132 23.984617 5.390472
v 1.536942 23.984617 5.390472
v 1.536942 82.922531 5.390472
v -1.537132 82.922531 5.390472
v 5.390549 23.984617 1.537197
v 5.390549 23.984617 -1.537569
v 5.390549 82.922531 -1.537569
v 5.390549 82.922531 1.537197
v 1.536942 23.984617 -5.390845
v -1.537132 23.984617 -5.390845
v -1.537132 82.922531 -5.390845
v 1.536942 82.922531 -5.390845
v -5.390739 23.984617 -1.537569
v -5.390739 23.984617 1.537197
v -5.390739 82.922531 1.537197
v -5.390739 82.922531 -1.537569
v -1.115608 33.098637 4.394836
v 1.115417 33.098637 4.394836
v 1.115417 73.808502 4.394836
v -1.115608 73.808502 4.394836
v 4.394913 33.098637 1.115508
v 4.394913 33.098637 -1.115787
v 4.394913 73.808502 -1.115787
v 4.394913 73.808502 1.115508
v 1.115417 33.098637 -4.395209
v -1.115608 33.098637 -4.395209
v -1.115608 73.808502 -4.395209
v 1.115417 73.808502 -4.395209
v -4.395103 33.098637 -1.115787
v -4.395103 33.098637 1.115508
v -4.395103 73.808502 1.115508
v -4.395103 73.808502 -1.115787
vt 0.245717 0.251941
vt 0.245717 0.251941
vt 0.245717 0.251941
vt 0.245717 0.251941
vt 0.245717 0.251941
vt 0.245717 0.251941
vt 0.245717 0.251941
vt 0.245717 0.251941
vt 0.245717 0.251941
vt 0.245717 0.251941
vt 0.245717 0.251941
vt 0.245717 0.251941
vt 0.245717 0.251941
vt 0.245717 0.251941
vt 0.245717 0.251941
vt 0.245717 0.251941
vt 0.245717 0.251941
vt 0.245717 0.251941
vt 0.245717 0.251941
vt 0.245717 0.251941
vt 0.245717 0.251941
vt 0.245717 0.251941
vt 0.245717 0.251941
vt 0.245717 0.251941
vt 0.245717 0.251941
vt 0.245717 0.251941
vt 0.245717 0.251941
vt 0.245717 0.251941
vt 0.245717 0.251941
vt 0.245717 0.251941
vt 0.245717 0.251941
vt 0.245717 0.251941
vt 0.245717 0.251941
vt 0.245717 0.251941
vt 0.245717 0.251941
vt 0.245717 0.251941
vt 0.245717 0.251941
vt 0.245717 0.251941
vt 0.245717 0.251941
vt 0.245717 0.251941
vt 0.245717 0.251941
vt 0.245717 0.251941
vt 0.245717 0.251941
vt 0.245717 0.251941
vt 0.245717 0.251941
vt 0.245717 0.251941
vt 0.245717 0.251941
vt 0.245717 0.251941
vt 0.453543 0.028323
vt 0.453543 0.028323
vt 0.453543 0.028323
vt 0.453543 0.028323
vt 0.453543 0.028323
vt 0.453543 0.028323
vt 0.453543 0.028323
vt 0.453543 0.028323
vt 0.453543 0.028323
vt 0.453543 0.028323
vt 0.453543 0.028323
vt 0.453543 0.028323
vt 0.453543 0.028323
vt 0.453543 0.028323
vt 0.453543 0.028323
vt 0.453543 0.028323
vt 0.245717 0.251941
vt 0.245717 0.251941
vt 0.245717 0.251941
vt 0.245717 0.251941
vt 0.245717 0.251941
vt 0.245717 0.251941
vt 0.245717 0.251941
vt 0.245717 0.251941
vt 0.245717 0.251941
vt 0.245717 0.251941
vt 0.245717 0.251941
vt 0.245717 0.251941
vt 0.245717 0.251941
vt 0.245717 0.251941
vt 0.245717 0.251941
vt 0.245717 0.251941
vt 0.245717 0.251941
vt 0.245717 0.251941
vt 0.245717 0.251941
vt 0.245717 0.251941
vt 0.245717 0.251941
vt 0.245717 0.251941
vt 0.245717 0.251941
vt 0.245717 0.251941
vt 0.245717 0.251941
vt 0.245717 0.251941
vt 0.245717 0.251941
vt 0.245717 0.251941
vt 0.245717 0.251941
vt 0.245717 0.251941
vt 0.245717 0.251941
vt 0.245717 0.251941
vt 0.245717 0.251941
vt 0.245717 0.251941
vt 0.245717 0.251941
vt 0.245717 0.251941
vt 0.245717 0.251941
vt 0.245717 0.251941
vt 0.245717 0.251941
vt 0.245717 0.251941
vt 0.453361 0.029145
vt 0.453361 0.029145
vt 0.453361 0.029145
vt 0.453361 0.029145
vt 0.453361 0.029145
vt 0.453361 0.029145
vt 0.453361 0.029145
vt 0.453361 0.029145
vt 0.453361 0.029145
vt 0.453361 0.029145
vt 0.453361 0.029145
vt 0.453361 0.029145
vt 0.453361 0.029145
vt 0.453361 0.029145
vt 0.453361 0.029145
vt 0.453361 0.029145
vn 0.000000 1.000000 -0.000000
vn 0.000000 1.000000 -0.000000
vn 0.000000 1.000000 -0.000000
vn 0.000000 1.000000 -0.000000
vn 0.000000 1.000000 -0.000000
vn 0.000000 1.000000 -0.000000
vn 0.000000 1.000000 -0.000000
vn 0.000000 1.000000 -0.000000
vn -0.707082 0.000000 0.707131
vn -0.707082 0.000000 0.707131
vn -0.707082 0.000000 0.707131
vn -0.707082 0.000000 0.707131
vn 0.707082 0.000000 0.707131
vn 0.707082 0.000000 0.707131
vn 0.707082 0.000000 0.707131
vn 0.707082 0.000000 0.707131
vn 0.707068 0.000000 -0.707146
vn 0.707068 0.000000 -0.707146
vn 0.707068 0.000000 -0.707146
vn 0.707068 0.000000 -0.707146
vn -0.707068 0.000000 -0.707146
vn -0.707068 0.000000 -0.707146
vn -0.707068 0.000000 -0.707146
vn -0.707068 0.000000 -0.707146
vn -0.658454 0.364416 0.658513
vn -0.658454 0.364416 0.658513
vn -0.658454 0.364416 0.658513
vn -0.658454 0.364416 0.658513
vn 0.658454 0.364416 0.658513
vn 0.658454 0.364416 0.658513
vn 0.658454 0.364416 0.658513
vn 0.658454 0.364416 0.658513
vn 0.658438 0.364451 -0.658510
vn 0.658438 0.364451 -0.658510
vn 0.658438 0.364451 -0.658510
vn 0.658438 0.364451 -0.658510
vn -0.658438 0.364451 -0.658510
vn -0.658438 0.364451 -0.658510
vn -0.658438 0.364451 -0.658510
vn -0.658438 0.364451 -0.658510
vn 0.000000 0.023486 0.999724
vn 0.000000 0.023486 0.999724
vn 0.000000 -0.023486 0.999724
vn 0.000000 -0.023486 0.999724
vn 0.999724 0.023487 0.000000
vn 0.999724 0.023487 0.000000
vn 0.999724 -0.023487 0.000000
vn 0.999724 -0.023487 0.000000
vn 0.000000 0.023486 -0.999724
vn 0.000000 0.023486 -0.999724
vn 0.000000 -0.023486 -0.999724
vn 0.000000 -0.023486 -0.999724
vn -0.999724 0.023487 0.000000
vn -0.999724 0.023487 0.000000
vn -0.999724 -0.023487 0.000000
vn -0.999724 -0.023487 0.000000
vn 0.000000 0.266713 0.963776
vn 0.000000 0.266713 0.963776
vn 0.000000 0.266713 0.963776
vn 0.000000 0.266713 0.963776
vn 0.963787 0.266673 0.000000
vn 0.963787 0.266673 0.000000
vn 0.963787 0.266672 0.000000
vn 0.963787 0.266672 0.000000
vn 0.000000 0.266756 -0.963764
vn 0.000000 0.266756 -0.963764
vn 0.000000 0.266756 -0.963764
vn 0.000000 0.266756 -0.963764
vn -0.963787 0.266672 0.000000
vn -0.963787 0.266672 0.000000
vn -0.963787 0.266672 0.000000
vn -0.963787 0.266672 0.000000
vn 0.707082 0.000000 0.707131
vn 0.707082 0.000000 0.707131
vn 0.707082 0.000000 0.707131
vn 0.707082 0.000000 0.707131
vn 0.000000 0.000000 1.000000
vn 0.000000 0.000000 1.000000
vn 0.000000 0.000000 1.000000
vn 0.000000 0.000000 1.000000
vn -0.707082 0.000000 0.707131
vn -0.707082 0.000000 0.707131
vn -0.707082 0.000000 0.707131
vn -0.707082 0.000000 0.707131
vn -1.000000 0.000000 0.000000
vn -1.000000 0.000000 0.000000
vn -1.000000 0.000000 0.000000
vn -1.000000 0.000000 0.000000
vn -0.707068 0.000000 -0.707146
vn -0.707068 0.000000 -0.707146
vn -0.707068 0.000000 -0.707146
vn -0.707068 0.000000 -0.707146
vn 0.000000 0.000000 -1.000000
vn 0.000000 0.000000 -1.000000
vn 0.000000 0.000000 -1.000000
vn 0.000000 0.000000 -1.000000
vn 0.707068 0.000000 -0.707146
vn 0.707068 0.000000 -0.707146
vn 0.707068 0.000000 -0.707146
vn 0.707068 0.000000 -0.707146
vn 1.000000 0.000000 0.000000
vn 1.000000 0.000000 0.000000
vn 1.000000 0.000000 0.000000
vn 1.000000 0.000000 0.000000
vn 0.707123 0.000000 0.707091
vn 0.707123 0.000000 0.707091
vn 0.707123 0.000000 0.707091
vn 0.707123 0.000000 0.707091
vn 0.000000 0.000000 1.000000
vn 0.000000 0.000000 1.000000
vn 0.000000 0.000000 1.000000
vn 0.000000 0.000000 1.000000
vn -0.707080 0.000000 0.707134
vn -0.707080 0.000000 0.707134
vn -0.707080 0.000000 0.707134
vn -0.707080 0.000000 0.707134
vn -1.000000 0.000000 0.000000
vn -1.000000 0.000000 0.000000
vn -1.000000 0.000000 0.000000
vn -1.000000 0.000000 0.000000
vn -0.707101 0.000000 -0.707112
vn -0.707101 0.000000 -0.707112
vn -0.707101 0.000000 -0.707112
vn -0.707101 0.000000 -0.707112
vn 0.000000 0.000000 -1.000000
vn 0.000000 0.000000 -1.000000
vn 0.000000 0.000000 -1.000000
vn 0.000000 0.000000 -1.000000
vn 0.707144 0.000000 -0.707069
vn 0.707144 0.000000 -0.707069
vn 0.707144 0.000000 -0.707069
vn 0.707144 0.000000 -0.707069
vn 1.000000 0.000000 0.000000
vn 1.000000 0.000000 0.000000
vn 1.000000 0.000000 0.000000
vn 1.000000 0.000000 0.000000
vn 0.533765 0.655879 0.533777
vn 0.533765 0.655879 0.533777
vn 0.533765 0.655879 0.533777
vn 0.533765 0.655879 0.533777
vn 0.000006 -1.000000 0.000006
vn 0.000006 -1.000000 0.000006
vn 0.000006 -1.000000 0.000006
vn 0.000006 -1.000000 0.000006
vn 0.000000 0.614751 0.788721
vn 0.000000 0.614751 0.788721
vn 0.000000 0.614751 0.788721
vn 0.000000 0.614751 0.788721
vn 0.000000 -1.000000 0.000006
vn 0.000000 -1.000000 0.000006
vn 0.000000 -1.000000 0.000006
vn 0.000000 -1.000000 0.000006
vn -0.533743 0.655891 0.533784
vn -0.533743 0.655891 0.533784
vn -0.533743 0.655891 0.533784
vn -0.533743 0.655891 0.533784
vn -0.000006 -1.000000 0.000007
vn -0.000006 -1.000000 0.000007
vn -0.000006 -1.000000 0.000007
vn -0.000006 -1.000000 0.000007
vn -0.788679 0.614806 0.000000
vn -0.788679 0.614806 0.000000
vn -0.788679 0.614806 0.000000
vn -0.788679 0.614806 0.000000
vn -0.000009 -1.000000 0.000000
vn -0.000009 -1.000000 0.000000
vn -0.000009 -1.000000 0.000000
vn -0.000009 -1.000000 0.000000
vn -0.533728 0.655917 -0.533768
vn -0.533728 0.655917 -0.533768
vn -0.533728 0.655917 -0.533768
vn -0.533728 0.655917 -0.533768
vn -0.000006 -1.000000 -0.000006
vn -0.000006 -1.000000 -0.000006
vn -0.000006 -1.000000 -0.000006
vn -0.000006 -1.000000 -0.000006
vn 0.000000 0.614772 -0.788705
vn 0.000000 0.614772 -0.788705
vn 0.000000 0.614772 -0.788705
vn 0.000000 0.614772 -0.788705
vn 0.000000 -1.000000 -0.000009
vn 0.000000 -1.000000 -0.000009
vn 0.000000 -1.000000 -0.000009
vn 0.000000 -1.000000 -0.000009
vn 0.533749 0.655904 -0.533762
vn 0.533749 0.655904 -0.533762
vn 0.533749 0.655904 -0.533762
vn 0.533749 0.655904 -0.533762
vn 0.000006 -1.000000 -0.000007
vn 0.000006 -1.000000 -0.000007
vn 0.000006 -1.000000 -0.000007
vn 0.000006 -1.000000 -0.000007
vn 0.788679 0.614806 0.000000
vn 0.788679 0.614806 0.000000
vn 0.788679 0.614806 0.000000
vn 0.788679 0.614806 0.000000
vn 0.000009 -1.000000 0.000000
vn 0.000009 -1.000000 0.000000
vn 0.000009 -1.000000 0.000000
vn 0.000009 -1.000000 0.000000
vn 0.000000 0.000000 1.000000
vn -0.000000 0.000000 1.000000
vn -0.000000 0.006926 0.999976
vn 0.000000 0.006926 0.999976
vn -0.000000 0.000000 1.000000
vn -0.000000 0.000000 1.000000
vn -0.000000 -0.008927 0.999960
vn -0.000000 0.006926 0.999976
vn -0.000000 0.000000 1.000000
vn 0.000000 0.000000 1.000000
vn 0.000000 -0.008927 0.999960
vn -0.000000 -0.008927 0.999960
vn 0.000000 0.000000 1.000000
vn 0.000000 0.000000 1.000000
vn 0.000000 0.006926 0.999976
vn 0.000000 -0.008927 0.999960
vn 1.000000 0.000000 0.000000
vn 1.000000 0.000000 0.000000
vn 0.999976 0.006927 0.000000
vn 0.999976 0.006928 0.000000
vn 1.000000 0.000000 0.000000
vn 1.000000 -0.000000 0.000000
vn 0.999960 -0.008928 0.000000
vn 0.999976 0.006927 0.000000
vn 1.000000 -0.000000 0.000000
vn 1.000000 -0.000000 0.000000
vn 0.999960 -0.008929 0.000000
vn 0.999960 -0.008928 0.000000
vn 1.000000 -0.000000 0.000000
vn 1.000000 0.000000 0.000000
vn 0.999976 0.006928 0.000000
vn 0.999960 -0.008929 0.000000
vn 0.000000 0.000000 -1.000000
vn 0.000000 0.000000 -1.000000
vn 0.000000 0.006926 -0.999976
vn 0.000000 0.006926 -0.999976
vn 0.000000 0.000000 -1.000000
vn 0.000000 0.000000 -1.000000
vn 0.000000 -0.008927 -0.999960
vn 0.000000 0.006926 -0.999976
vn 0.000000 0.000000 -1.000000
vn 0.000000 0.000000 -1.000000
vn 0.000000 -0.008927 -0.999960
vn 0.000000 -0.008927 -0.999960
vn 0.000000 0.000000 -1.000000
vn 0.000000 0.000000 -1.000000
vn 0.000000 0.006926 -0.999976
vn 0.000000 -0.008927 -0.999960
vn -1.000000 -0.000000 0.000000
vn -1.000000 -0.000000 0.000000
vn -0.999976 0.006928 0.000000
vn -0.999976 0.006927 0.000000
vn -1.000000 -0.000000 0.000000
vn -1.000000 0.000000 0.000000
vn -0.999960 -0.008929 0.000000
vn -0.999976 0.006928 0.000000
vn -1.000000 0.000000 0.000000
vn -1.000000 0.000000 0.000000
vn -0.999960 -0.008928 0.000000
vn -0.999960 -0.008929 0.000000
vn -1.000000 0.000000 0.000000
vn -1.000000 -0.000000 0.000000
vn -0.999976 0.006927 0.000000
vn -0.999960 -0.008928 0.000000
vn 0.000000 0.006926 0.999976
vn -0.000000 0.006926 0.999976
vn 0.000000 0.023486 0.999724
vn 0.000000 0.023486 0.999724
vn -0.920870 0.000000 0.389870
vn -0.920870 0.000000 0.389870
vn -0.920870 0.000000 0.389870
vn -0.920870 0.000000 0.389870
vn -0.000000 -0.008927 0.999960
vn 0.000000 -0.008927 0.999960
vn 0.000000 -0.023486 0.999724
vn 0.000000 -0.023486 0.999724
vn 0.920870 0.000000 0.389870
vn 0.920870 0.000000 0.389870
vn 0.920870 0.000000 0.389870
vn 0.920870 0.000000 0.389870
vn 0.999976 0.006928 0.000000
vn 0.999976 0.006927 0.000000
vn 0.999724 0.023487 0.000000
vn 0.999724 0.023487 0.000000
vn 0.390073 0.000000 0.920784
vn 0.390073 0.000000 0.920784
vn 0.390073 0.000000 0.920784
vn 0.390073 0.000000 0.920784
vn 0.999960 -0.008928 0.000000
vn 0.999960 -0.008929 0.000000
vn 0.999724 -0.023487 0.000000
vn 0.999724 -0.023487 0.000000
vn 0.389999 0.000000 -0.920815
vn 0.389999 0.000000 -0.920815
vn 0.389999 0.000000 -0.920815
vn 0.389999 0.000000 -0.920815
vn 0.000000 0.006926 -0.999976
vn 0.000000 0.006926 -0.999976
vn 0.000000 0.023486 -0.999724
vn 0.000000 0.023486 -0.999724
vn 0.920870 0.000000 -0.389870
vn 0.920870 0.000000 -0.389870
vn 0.920870 0.000000 -0.389870
vn 0.920870 0.000000 -0.389870
vn 0.000000 -0.008927 -0.999960
vn 0.000000 -0.008927 -0.999960
vn 0.000000 -0.023486 -0.999724
vn 0.000000 -0.023486 -0.999724
vn -0.920870 0.000000 -0.389870
vn -0.920870 0.000000 -0.389870
vn -0.920870 0.000000 -0.389870
vn -0.920870 0.000000 -0.389870
vn -0.999976 0.006927 0.000000
vn -0.999976 0.006928 0.000000
vn -0.999724 0.023487 0.000000
vn -0.999724 0.023487 0.000000
vn -0.389999 0.000000 -0.920815
vn -0.389999 0.000000 -0.920815
vn -0.389999 0.000000 -0.920815
vn -0.389999 0.000000 -0.920815
vn -0.999960 -0.008929 0.000000
vn -0.999960 -0.008928 0.000000
vn -0.999724 -0.023487 0.000000
vn -0.999724 -0.023487 0.000000
vn -0.390073 0.000000 0.920784
vn -0.390073 0.000000 0.920784
vn -0.390073 0.000000 0.920784
vn -0.390073 0.000000 0.920784
s off
f 9/1/1 10/10/2 12/2/3 11/12/4 14/3/5 13/14/6 16/4/7 15/16/8
f 55/71/9 56/72/10 27/27/11 28/28/12
f 49/65/13 50/66/14 25/25/15 26/26/16
f 51/67/17 52/68/18 31/31/19 32/32/20
f 53/69/21 54/70/22 29/29/23 30/30/24
f 1/8/25 2/9/26 10/10/27 9/1/28
f 3/5/29 4/11/30 11/12/31 12/2/32
f 5/6/33 6/13/34 13/14/35 14/3/36
f 7/7/37 8/15/38 15/16/39 16/4/40
f 73/105/41 74/106/42 75/107/43 76/108/44
f 77/109/45 78/110/46 79/111/47 80/112/48
f 81/113/49 82/114/50 83/115/51 84/116/52
f 85/117/53 86/118/54 87/119/55 88/120/56
f 2/9/57 3/5/58 12/2/59 10/10/60
f 4/11/61 5/6/62 14/3/63 11/12/64
f 6/13/65 7/7/66 16/4/67 13/14/68
f 8/15/69 1/8/70 9/1/71 15/16/72
f 18/18/73 17/17/74 4/11/75 3/5/76
f 19/19/77 18/18/78 3/5/79 2/9/80
f 20/20/81 19/19/82 2/9/83 1/8/84
f 21/21/85 20/20/86 1/8/87 8/15/88
f 22/22/89 21/21/90 8/15/91 7/7/92
f 23/23/93 22/22/94 7/7/95 6/13/96
f 24/24/97 23/23/98 6/13/99 5/6/100
f 17/17/101 24/24/102 5/6/103 4/11/104
f 34/64/105 33/63/106 35/62/107 36/61/108
f 37/60/109 34/64/110 36/61/111 38/59/112
f 39/58/113 37/60/114 38/59/115 40/57/116
f 41/56/117 39/58/118 40/57/119 42/55/120
f 43/54/121 41/56/122 42/55/123 44/53/124
f 45/52/125 43/54/126 44/53/127 46/51/128
f 47/50/129 45/52/130 46/51/131 48/49/132
f 33/63/133 47/50/134 48/49/135 35/62/136
f 26/26/137 25/25/138 33/34/139 34/33/140
f 17/17/141 18/18/142 36/36/143 35/35/144
f 27/27/145 26/26/146 34/33/147 37/37/148
f 18/18/149 19/19/150 38/38/151 36/36/152
f 28/28/153 27/27/154 37/37/155 39/39/156
f 19/19/157 20/20/158 40/40/159 38/38/160
f 29/29/161 28/28/162 39/39/163 41/41/164
f 20/20/165 21/21/166 42/42/167 40/40/168
f 30/30/169 29/29/170 41/41/171 43/43/172
f 21/21/173 22/22/174 44/44/175 42/42/176
f 31/31/177 30/30/178 43/43/179 45/45/180
f 22/22/181 23/23/182 46/46/183 44/44/184
f 32/32/185 31/31/186 45/45/187 47/47/188
f 23/23/189 24/24/190 48/48/191 46/46/192
f 25/25/193 32/32/194 47/47/195 33/34/196
f 24/24/197 17/17/198 35/35/199 48/48/200
f 56/72/201 49/65/202 58/74/203 57/73/204
f 49/65/205 26/26/206 59/75/207 58/74/208
f 26/26/209 27/27/210 60/76/211 59/75/212
f 27/27/213 56/72/214 57/73/215 60/76/216
f 50/66/217 51/67/218 62/78/219 61/77/220
f 51/67/221 32/32/222 63/79/223 62/78/224
f 32/32/225 25/25/226 64/80/227 63/79/228
f 25/25/229 50/66/230 61/77/231 64/80/232
f 52/68/233 53/69/234 66/82/235 65/81/236
f 53/69/237 30/30/238 67/83/239 66/82/240
f 30/30/241 31/31/242 68/84/243 67/83/244
f 31/31/245 52/68/246 65/81/247 68/84/248
f 54/70/249 55/71/250 70/86/251 69/85/252
f 55/71/253 28/28/254 71/87/255 70/86/256
f 28/28/257 29/29/258 72/88/259 71/87/260
f 29/29/261 54/70/262 69/85/263 72/88/264
f 57/73/265 58/74/266 74/90/267 73/89/268
f 58/74/269 59/75/270 75/91/271 74/90/272
f 59/75/273 60/76/274 76/92/275 75/91/276
f 60/76/277 57/73/278 73/89/279 76/92/280
f 61/77/281 62/78/282 78/94/283 77/93/284
f 62/78/285 63/79/286 79/95/287 78/94/288
f 63/79/289 64/80/290 80/96/291 79/95/292
f 64/80/293 61/77/294 77/93/295 80/96/296
f 65/81/297 66/82/298 82/98/299 81/97/300
f 66/82/301 67/83/302 83/99/303 82/98/304
f 67/83/305 68/84/306 84/100/307 83/99/308
f 68/84/309 65/81/310 81/97/311 84/100/312
f 69/85/313 70/86/314 86/102/315 85/101/316
f 70/86/317 71/87/318 87/103/319 86/102/320
f 71/87/321 72/88/322 88/104/323 87/103/324
f 72/88/325 69/85/326 85/101/327 88/104/328
