# This file uses meters as units for non-parametric coordinates.

v -8.019954 26.753592 6.895894
v -6.895894 26.351606 8.019954
v 8.019954 26.753592 6.895894
v 6.895894 26.753592 8.019954
v -8.019954 26.753592 -6.895894
v -6.895894 26.753592 -8.019954
v 6.895894 26.753592 -8.019954
v 8.019954 26.260702 -6.895894
v -6.619369 2.231902 -5.361354
v -5.361354 2.231902 -6.619369
v 5.361354 2.231902 -6.619369
v 6.619369 2.231902 -5.361354
v 6.619369 2.231902 5.361354
v 5.361354 2.231902 6.619369
v -5.361354 2.231902 6.619369
v -6.619369 2.231902 5.361354
v -5.936967 0.000000 -4.729510
v -4.729510 0.000000 -5.936967
v 5.936967 0.000000 -4.729510
v 4.729510 0.000000 -5.936967
v 4.729510 0.000000 5.936967
v 5.936967 0.000000 4.729510
v -5.936967 0.000000 4.729510
v -4.729510 0.000000 5.936967
v -7.407508 5.426985 8.614962
v -6.942886 3.201309 8.112274
v -8.112274 3.201309 6.942886
v -8.614962 4.831046 7.407508
v 8.614962 5.426985 7.407508
v 8.112274 3.201309 6.942886
v 6.942886 3.201309 8.112274
v 7.407508 4.831046 8.614962
v -8.614962 4.831046 -7.407508
v -8.112274 3.201309 -6.942886
v -6.942886 3.797242 -8.112274
v -7.407508 5.426985 -8.614962
v 7.407508 4.831046 -8.614962
v 6.942886 3.201309 -8.112274
v 8.112274 3.201309 -6.942886
v 8.614962 4.831046 -7.407508
v -5.299888 27.628475 6.163792
v -6.163792 27.628475 5.299888
v 5.299888 27.628475 6.163792
v 6.163792 27.628475 5.299888
v 6.163792 27.628475 -5.299888
v 5.299888 27.628475 -6.163792
v -5.299888 27.628475 -6.163792
v -6.163792 27.628475 -5.299888
v 8.614962 24.461926 7.407508
v 7.407508 24.929173 8.614962
v -7.407508 24.527185 8.614962
v -8.614962 24.929173 7.407508
v -8.614962 24.527185 -7.407508
v -7.407508 24.929173 -8.614962
v 7.407508 24.929173 -8.614962
v 8.614962 24.929173 -7.407508
v 6.675846 18.582590 -8.614962
v 8.614962 18.582590 -6.616462
v 8.614962 11.616936 6.928636
v 6.552255 11.692122 8.614962
v -6.687780 17.576115 8.614962
v -8.614962 16.422865 6.616462
v -8.613881 11.278915 -6.790319
v -6.675846 11.623993 -8.614962
vt 0.544378 0.064411
vt 0.544378 0.064411
vt 0.544378 0.064411
vt 0.544378 0.064411
vt 0.544378 0.064411
vt 0.544378 0.064411
vt 0.544378 0.064411
vt 0.544378 0.064411
vt 0.544378 0.064411
vt 0.544378 0.064411
vt 0.544378 0.064411
vt 0.544378 0.064411
vt 0.544378 0.064411
vt 0.544378 0.064411
vt 0.544378 0.064411
vt 0.544378 0.064411
vt 0.544378 0.064411
vt 0.544378 0.064411
vt 0.544378 0.064411
vt 0.544378 0.064411
vt 0.544378 0.064411
vt 0.544378 0.064411
vt 0.544378 0.064411
vt 0.544378 0.064411
vt 0.544378 0.064411
vt 0.544378 0.064411
vt 0.544378 0.064411
vt 0.544378 0.064411
vt 0.544378 0.064411
vt 0.544378 0.064411
vt 0.544378 0.064411
vt 0.544378 0.064411
vt 0.544378 0.064411
vt 0.544378 0.064411
vt 0.544378 0.064411
vt 0.544378 0.064411
vt 0.544378 0.064411
vt 0.544378 0.064411
vt 0.544378 0.064411
vt 0.544378 0.064411
vt 0.544378 0.064411
vt 0.544378 0.064411
vt 0.544378 0.064411
vt 0.544378 0.064411
vt 0.544378 0.064411
vt 0.544378 0.064411
vt 0.544378 0.064411
vt 0.544378 0.064411
vt 0.544378 0.064411
vt 0.544378 0.064411
vt 0.544378 0.064411
vt 0.544378 0.064411
vt 0.544378 0.064411
vt 0.544378 0.064411
vt 0.544378 0.064411
vt 0.544378 0.064411
vt 0.544378 0.064411
vt 0.544378 0.064411
vt 0.544378 0.064411
vt 0.544378 0.064411
vt 0.544378 0.064411
vt 0.544378 0.064411
vt 0.544378 0.064411
vt 0.544378 0.064411
vn 0.000000 -1.000000 0.000000
vn 0.000000 -1.000000 0.000000
vn 0.000000 -1.000000 0.000000
vn 0.000000 -1.000000 0.000000
vn 0.000000 -1.000000 0.000000
vn 0.000000 -1.000000 0.000000
vn 0.000000 -1.000000 0.000000
vn 0.000000 -1.000000 0.000000
vn -0.652781 -0.384387 -0.652781
vn -0.652781 -0.384387 -0.652781
vn -0.652781 -0.384387 -0.652781
vn -0.652781 -0.384387 -0.652781
vn 0.652781 -0.384387 -0.652781
vn 0.652781 -0.384387 -0.652781
vn 0.652781 -0.384387 -0.652781
vn 0.652781 -0.384387 -0.652781
vn 0.652781 -0.384387 0.652781
vn 0.652781 -0.384387 0.652781
vn 0.652781 -0.384387 0.652781
vn 0.652781 -0.384387 0.652781
vn -0.652781 -0.384387 0.652781
vn -0.652781 -0.384387 0.652781
vn -0.652781 -0.384387 0.652781
vn -0.652781 -0.384387 0.652781
vn 0.000000 -0.292388 -0.956300
vn 0.000000 -0.292388 -0.956300
vn 0.000000 -0.292388 -0.956300
vn 0.000000 -0.292388 -0.956300
vn 0.956300 -0.292388 0.000000
vn 0.956300 -0.292388 0.000000
vn 0.956300 -0.292388 0.000000
vn 0.956300 -0.292388 0.000000
vn 0.000000 -0.292388 0.956300
vn 0.000000 -0.292388 0.956300
vn 0.000000 -0.292388 0.956300
vn 0.000000 -0.292388 0.956300
vn -0.956300 -0.292388 0.000000
vn -0.956300 -0.292388 0.000000
vn -0.956300 -0.292388 0.000000
vn -0.956300 -0.292388 0.000000
vn -0.005239 -0.252328 0.967628
vn -0.005239 -0.252328 0.967628
vn -0.005239 -0.252328 0.967628
vn -0.005239 -0.252328 0.967628
vn -0.623385 -0.333809 0.707080
vn -0.623385 -0.333809 0.707080
vn -0.623385 -0.333809 0.707080
vn -0.623385 -0.333809 0.707080
vn -0.955576 -0.294745 0.000000
vn -0.955576 -0.294745 0.000000
vn -0.955576 -0.294745 0.000000
vn -0.955576 -0.294745 0.000000
vn 0.967628 -0.252328 0.005239
vn 0.967628 -0.252328 0.005239
vn 0.967628 -0.252328 0.005239
vn 0.967628 -0.252328 0.005239
vn 0.707080 -0.333809 0.623385
vn 0.707080 -0.333809 0.623385
vn 0.707080 -0.333809 0.623385
vn 0.707080 -0.333809 0.623385
vn -0.549830 -0.383399 -0.742086
vn -0.549830 -0.383399 -0.742086
vn -0.549830 -0.383399 -0.742086
vn -0.549830 -0.383399 -0.742086
vn -0.012239 -0.294722 -0.955505
vn -0.012239 -0.294722 -0.955505
vn -0.012239 -0.294722 -0.955505
vn -0.012239 -0.294722 -0.955505
vn 0.652011 -0.386992 -0.652011
vn 0.652011 -0.386992 -0.652011
vn 0.652011 -0.386992 -0.652011
vn 0.652011 -0.386992 -0.652011
vn -0.287978 -0.913311 0.287978
vn -0.287978 -0.913311 0.287978
vn -0.287978 -0.913311 0.287978
vn -0.287978 -0.913311 0.287978
vn -0.726424 0.044872 0.685781
vn -0.726424 0.044872 0.685781
vn -0.726424 0.044872 0.685781
vn -0.726424 0.044872 0.685781
vn 0.287978 -0.913311 0.287978
vn 0.287978 -0.913311 0.287978
vn 0.287978 -0.913311 0.287978
vn 0.287978 -0.913311 0.287978
vn 0.654724 0.070519 0.752571
vn 0.654724 0.070519 0.752571
vn 0.654724 0.070519 0.752571
vn 0.654724 0.070519 0.752571
vn -0.703621 0.075261 -0.706578
vn -0.703622 0.075261 -0.706578
vn -0.703621 0.075261 -0.706578
vn -0.703621 0.075261 -0.706578
vn -0.247318 -0.854357 -0.457064
vn -0.247318 -0.854357 -0.457064
vn -0.247318 -0.854357 -0.457064
vn -0.247318 -0.854357 -0.457064
vn 0.713140 0.039103 -0.699930
vn 0.713140 0.039103 -0.699930
vn 0.713140 0.039103 -0.699930
vn 0.713140 0.039103 -0.699930
vn 0.287978 -0.913311 -0.287978
vn 0.287978 -0.913311 -0.287978
vn 0.287978 -0.913311 -0.287978
vn 0.287978 -0.913311 -0.287978
vn 0.000000 0.000000 1.000000
vn 0.000000 0.000000 1.000000
vn 0.000000 0.000000 1.000000
vn 0.000000 0.000000 1.000000
vn 0.000000 0.000000 -1.000000
vn 0.000000 0.000000 -1.000000
vn 0.000000 0.000000 -1.000000
vn 0.000000 0.000000 -1.000000
vn 1.000000 0.000000 0.000000
vn 1.000000 0.000000 0.000000
vn 1.000000 0.000000 0.000000
vn 1.000000 0.000000 0.000000
vn -1.000000 0.000059 -0.000049
vn -1.000000 0.000059 -0.000049
vn -1.000000 0.000059 -0.000049
vn -1.000000 0.000059 -0.000049
vn -0.018458 -0.762211 -0.647065
vn -0.018458 -0.762212 -0.647065
vn -0.018458 -0.762211 -0.647065
vn -0.018458 -0.762211 -0.647065
vn 0.544601 -0.838695 0.000000
vn 0.544601 -0.838695 0.000000
vn 0.544601 -0.838695 0.000000
vn 0.544601 -0.838695 0.000000
vn 0.000000 -0.838696 0.544601
vn 0.000000 -0.838696 0.544601
vn 0.000000 -0.838696 0.544601
vn 0.000000 -0.838696 0.544601
vn -0.544601 -0.838695 0.000000
vn -0.544601 -0.838695 0.000000
vn -0.544601 -0.838695 0.000000
vn -0.544601 -0.838695 0.000000
vn -0.191036 0.907331 0.374507
vn -0.191036 0.907331 0.374507
vn -0.191036 0.907331 0.374507
vn -0.191036 0.907331 0.374507
vn -0.014257 0.865084 0.501424
vn -0.014257 0.865085 0.501424
vn -0.014257 0.865084 0.501424
vn -0.014257 0.865085 0.501424
vn 0.238570 0.941365 0.238570
vn 0.238570 0.941365 0.238570
vn 0.238570 0.941365 0.238570
vn 0.238570 0.941365 0.238570
vn 0.517003 0.855809 -0.017294
vn 0.517004 0.855809 -0.017294
vn 0.517004 0.855809 -0.017294
vn 0.517004 0.855809 -0.017294
vn 0.402739 0.897393 -0.180241
vn 0.402739 0.897393 -0.180241
vn 0.402739 0.897393 -0.180241
vn 0.402739 0.897393 -0.180241
vn 0.000000 0.904556 -0.426354
vn 0.000000 0.904556 -0.426354
vn 0.000000 0.904556 -0.426354
vn 0.000000 0.904556 -0.426354
vn -0.238570 0.941365 -0.238570
vn -0.238570 0.941365 -0.238570
vn -0.238570 0.941365 -0.238570
vn -0.238570 0.941365 -0.238570
vn -0.426354 0.904557 0.000000
vn -0.426354 0.904557 0.000000
vn -0.426354 0.904557 0.000000
vn -0.426354 0.904557 0.000000
vn 0.695674 0.354944 0.624542
vn 0.695674 0.354944 0.624542
vn 0.695674 0.354944 0.624542
vn 0.695674 0.354944 0.624542
vn -0.008714 0.310051 0.950680
vn -0.008714 0.310051 0.950680
vn -0.008714 0.310051 0.950680
vn -0.008714 0.310051 0.950680
vn -0.579224 0.392369 0.714525
vn -0.579224 0.392369 0.714525
vn -0.579224 0.392369 0.714525
vn -0.579224 0.392369 0.714525
vn -0.959448 0.281858 -0.003961
vn -0.959448 0.281858 -0.003961
vn -0.959448 0.281858 -0.003961
vn -0.959448 0.281858 -0.003961
vn -0.689995 0.360034 -0.627920
vn -0.689995 0.360034 -0.627920
vn -0.689995 0.360034 -0.627920
vn -0.689995 0.360034 -0.627920
vn 0.000000 0.310063 -0.950716
vn 0.000000 0.310063 -0.950716
vn 0.000000 0.310063 -0.950716
vn 0.000000 0.310063 -0.950716
vn 0.678957 0.443288 -0.585245
vn 0.678957 0.443288 -0.585245
vn 0.678957 0.443288 -0.585245
vn 0.678957 0.443288 -0.585245
vn 0.950068 0.312044 -0.000280
vn 0.950068 0.312044 -0.000280
vn 0.950068 0.312044 -0.000280
vn 0.950068 0.312044 -0.000280
vn 0.711134 -0.084489 -0.697962
vn 0.711134 -0.084489 -0.697962
vn 0.711134 -0.084489 -0.697962
vn 0.711134 -0.084489 -0.697962
vn 1.000000 -0.000000 0.000000
vn 1.000000 -0.000000 0.000000
vn 1.000000 -0.000000 0.000000
vn 1.000000 -0.000000 0.000000
vn 0.658980 -0.035403 0.751327
vn 0.658980 -0.035403 0.751327
vn 0.658980 -0.035403 0.751327
vn 0.658980 -0.035403 0.751327
vn -0.000000 0.000000 1.000000
vn -0.000000 0.000000 1.000000
vn -0.000000 0.000000 1.000000
vn -0.000000 0.000000 1.000000
vn -0.705189 -0.068948 0.705659
vn -0.705189 -0.068948 0.705659
vn -0.705189 -0.068948 0.705659
vn -0.705189 -0.068948 0.705659
vn -1.000000 -0.000049 -0.000029
vn -1.000000 -0.000049 -0.000029
vn -1.000000 -0.000049 -0.000029
vn -1.000000 -0.000049 -0.000029
vn -0.689140 -0.035839 -0.723742
vn -0.689139 -0.035839 -0.723742
vn -0.689140 -0.035839 -0.723742
vn -0.689139 -0.035839 -0.723742
vn 0.000000 0.000000 -1.000000
vn 0.000000 0.000000 -1.000000
vn 0.000000 0.000000 -1.000000
vn 0.000000 0.000000 -1.000000
s off
f 17/1/1 18/2/2 20/3/3 19/4/4 22/5/5 21/6/6 24/7/7 23/8/8
f 9/9/9 10/10/10 18/2/11 17/1/12
f 11/11/13 12/12/14 19/4/15 20/3/16
f 13/13/17 14/14/18 21/6/19 22/5/20
f 15/15/21 16/16/22 23/8/23 24/7/24
f 10/10/25 11/11/26 20/3/27 18/2/28
f 12/12/29 13/13/30 22/5/31 19/4/32
f 14/14/33 15/15/34 24/7/35 21/6/36
f 16/16/37 9/9/38 17/1/39 23/8/40
f 25/17/41 26/18/42 31/19/43 32/20/44
f 26/18/45 25/17/46 28/21/47 27/22/48
f 27/22/49 28/21/50 33/23/51 34/24/52
f 29/25/53 30/26/54 39/27/55 40/28/56
f 30/26/57 29/25/58 32/20/59 31/19/60
f 34/24/61 33/23/62 36/29/63 35/30/64
f 35/30/65 36/29/66 37/31/67 38/32/68
f 38/32/69 37/31/70 40/28/71 39/27/72
f 26/18/73 27/22/74 16/16/75 15/15/76
f 28/21/77 25/17/78 61/33/79 62/34/80
f 30/26/81 31/19/82 14/14/83 13/13/84
f 32/20/85 29/25/86 59/35/87 60/36/88
f 63/37/89 64/38/90 36/29/91 33/23/92
f 34/24/93 35/30/94 10/10/95 9/9/96
f 57/39/97 58/40/98 40/28/99 37/31/100
f 38/32/101 39/27/102 12/12/103 11/11/104
f 25/17/105 32/20/106 60/36/107 61/33/108
f 36/29/109 64/38/110 57/39/111 37/31/112
f 29/25/113 40/28/114 58/40/115 59/35/116
f 33/23/117 28/21/118 62/34/119 63/37/120
f 35/30/121 38/32/122 11/11/123 10/10/124
f 39/27/125 30/26/126 13/13/127 12/12/128
f 31/19/129 26/18/130 15/15/131 14/14/132
f 27/22/133 34/24/134 9/9/135 16/16/136
f 1/41/137 2/42/138 41/43/139 42/44/140
f 2/42/141 4/45/142 43/46/143 41/43/144
f 4/45/145 3/47/146 44/48/147 43/46/148
f 3/47/149 8/49/150 45/50/151 44/48/152
f 8/49/153 7/51/154 46/52/155 45/50/156
f 7/51/157 6/53/158 47/54/159 46/52/160
f 6/53/161 5/55/162 48/56/163 47/54/164
f 5/55/165 1/41/166 42/44/167 48/56/168
f 50/57/169 49/58/170 3/47/171 4/45/172
f 51/59/173 50/57/174 4/45/175 2/42/176
f 52/60/177 51/59/178 2/42/179 1/41/180
f 53/61/181 52/60/182 1/41/183 5/55/184
f 5/55/185 6/53/186 54/62/187 53/61/188
f 55/63/189 54/62/190 6/53/191 7/51/192
f 7/51/193 8/49/194 56/64/195 55/63/196
f 49/58/197 56/64/198 8/49/199 3/47/200
f 58/40/201 57/39/202 55/63/203 56/64/204
f 49/58/205 59/35/206 58/40/207 56/64/208
f 60/36/209 59/35/210 49/58/211 50/57/212
f 51/59/213 61/33/214 60/36/215 50/57/216
f 62/34/217 61/33/218 51/59/219 52/60/220
f 53/61/221 63/37/222 62/34/223 52/60/224
f 64/38/225 63/37/226 53/61/227 54/62/228
f 55/63/229 57/39/230 64/38/231 54/62/232
v -6.012388 27.628475 6.992433
v -6.992433 27.628475 6.012388
v 6.012388 27.628475 6.992433
v 6.992433 27.628475 6.012388
v 6.992433 27.628475 -6.012388
v 6.012388 27.628475 -6.992433
v -6.012388 27.628475 -6.992433
v -6.992433 27.628475 -6.012388
v -5.758345 30.329857 6.992433
v -6.992433 30.642786 6.012388
v 6.012388 30.642786 6.992433
v 6.992433 30.642786 6.012388
v 6.992433 30.338135 -6.012388
v 6.012388 30.642786 -6.992433
v -6.012388 30.642786 -6.992433
v -7.267274 30.341854 -5.719832
v -5.075431 31.267885 5.902750
v -5.902750 31.267885 5.075431
v 5.075431 31.267885 5.902750
v 5.902750 31.267885 5.075431
v 5.902750 31.267885 -5.075431
v 5.075431 31.267885 -5.902750
v -4.507528 31.267885 -5.139514
v -5.902750 31.267885 -5.075431
v 0.000000 31.267885 0.000000
v 0.000000 27.628475 0.000000
vt 0.254341 0.256282
vt 0.254341 0.256282
vt 0.254341 0.256282
vt 0.254341 0.256282
vt 0.254341 0.256282
vt 0.254341 0.256282
vt 0.254341 0.256282
vt 0.254341 0.256282
vt 0.254341 0.256282
vt 0.254341 0.256282
vt 0.254341 0.256282
vt 0.254341 0.256282
vt 0.254341 0.256282
vt 0.254341 0.256282
vt 0.254341 0.256282
vt 0.254341 0.256282
vt 0.254341 0.256282
vt 0.254341 0.256282
vt 0.254341 0.256282
vt 0.254341 0.256282
vt 0.254341 0.256282
vt 0.254341 0.256282
vt 0.254341 0.256282
vt 0.254341 0.256282
vt 0.254341 0.256282
vt 0.254341 0.256282
vn 0.000000 -1.000000 0.000002
vn 0.000000 -1.000000 0.000002
vn 0.000000 -1.000000 0.000002
vn 0.000000 -1.000000 0.000000
vn 0.000000 -1.000000 0.000000
vn 0.000000 -1.000000 0.000000
vn 0.000000 -1.000000 0.000002
vn 0.000000 -1.000000 0.000002
vn 0.000000 -1.000000 0.000002
vn 0.000000 -1.000000 0.000000
vn 0.000000 -1.000000 0.000000
vn 0.000000 -1.000000 0.000000
vn 0.000000 -1.000000 -0.000002
vn 0.000000 -1.000000 -0.000002
vn 0.000000 -1.000000 -0.000002
vn 0.000000 -1.000000 0.000000
vn 0.000000 -1.000000 0.000000
vn 0.000000 -1.000000 0.000000
vn 0.000000 -1.000000 -0.000002
vn 0.000000 -1.000000 -0.000002
vn 0.000000 -1.000000 -0.000002
vn 0.000000 -1.000000 0.000000
vn 0.000000 -1.000000 0.000000
vn 0.000000 -1.000000 0.000000
vn -0.660232 0.029345 0.750488
vn -0.660232 0.029345 0.750488
vn -0.660232 0.029345 0.750488
vn -0.660232 0.029345 0.750488
vn 0.000000 0.000000 1.000000
vn 0.000000 0.000000 1.000000
vn 0.000000 0.000000 1.000000
vn 0.000000 0.000000 1.000000
vn 0.707107 0.000000 0.707107
vn 0.707107 0.000000 0.707107
vn 0.707107 0.000000 0.707107
vn 0.707107 0.000000 0.707107
vn 1.000000 0.000000 0.000000
vn 1.000000 0.000000 0.000000
vn 1.000000 0.000000 0.000000
vn 1.000000 0.000000 0.000000
vn 0.707107 0.000000 -0.707107
vn 0.707107 0.000000 -0.707107
vn 0.707107 0.000000 -0.707107
vn 0.707107 0.000000 -0.707107
vn 0.000000 0.000000 -1.000000
vn 0.000000 0.000000 -1.000000
vn 0.000000 0.000000 -1.000000
vn 0.000000 0.000000 -1.000000
vn -0.710018 0.001898 -0.704181
vn -0.710018 0.001898 -0.704181
vn -0.710018 0.001898 -0.704181
vn -0.710018 0.001898 -0.704181
vn -0.998747 -0.048546 0.012169
vn -0.998747 -0.048546 0.012169
vn -0.998747 -0.048546 0.012169
vn -0.998747 -0.048546 0.012169
vn -0.255468 0.860689 0.440398
vn -0.255468 0.860689 0.440398
vn -0.255468 0.860689 0.440398
vn -0.255468 0.860689 0.440398
vn -0.011590 0.811902 0.583678
vn -0.011590 0.811902 0.583678
vn -0.011590 0.811902 0.583678
vn -0.011590 0.811902 0.583678
vn 0.282715 0.916594 0.282716
vn 0.282715 0.916594 0.282716
vn 0.282715 0.916594 0.282716
vn 0.282715 0.916594 0.282716
vn 0.580746 0.814008 -0.011183
vn 0.580747 0.814008 -0.011183
vn 0.580746 0.814008 -0.011183
vn 0.580746 0.814008 -0.011183
vn 0.409024 0.874202 -0.261668
vn 0.409024 0.874202 -0.261668
vn 0.409024 0.874202 -0.261668
vn 0.409024 0.874202 -0.261668
vn -0.013732 0.921241 -0.388749
vn -0.013732 0.921241 -0.388749
vn -0.013732 0.921241 -0.388749
vn -0.013732 0.921241 -0.388749
vn -0.249881 0.924692 -0.287235
vn -0.249881 0.924692 -0.287235
vn -0.249881 0.924692 -0.287235
vn -0.249881 0.924692 -0.287235
vn -0.534676 0.845043 -0.004906
vn -0.534676 0.845043 -0.004906
vn -0.534676 0.845043 -0.004906
vn -0.534676 0.845043 -0.004906
vn 0.000000 1.000000 0.000003
vn 0.000000 1.000000 0.000003
vn 0.000000 1.000000 0.000003
vn 0.000000 1.000000 0.000000
vn 0.000000 1.000000 0.000000
vn 0.000000 1.000000 0.000000
vn 0.000000 1.000000 0.000003
vn 0.000000 1.000000 0.000003
vn 0.000000 1.000000 0.000003
vn 0.000000 1.000000 0.000000
vn 0.000000 1.000000 0.000000
vn 0.000000 1.000000 0.000000
vn 0.000000 1.000000 -0.000003
vn 0.000000 1.000000 -0.000003
vn 0.000000 1.000000 -0.000003
vn 0.000000 1.000000 0.000000
vn 0.000000 1.000000 0.000000
vn 0.000000 1.000000 0.000000
vn 0.000000 1.000000 -0.000004
vn 0.000000 1.000000 -0.000004
vn 0.000000 1.000000 -0.000004
vn 0.000000 1.000000 0.000000
vn 0.000000 1.000000 0.000000
vn 0.000000 1.000000 0.000000
s off
f 90/65/233 65/66/234 66/67/235
f 90/65/236 67/68/237 65/66/238
f 90/65/239 68/69/240 67/68/241
f 90/65/242 69/70/243 68/69/244
f 90/65/245 70/71/246 69/70/247
f 90/65/248 71/72/249 70/71/250
f 90/65/251 72/73/252 71/72/253
f 90/65/254 66/67/255 72/73/256
f 66/67/257 65/66/258 73/74/259 74/75/260
f 65/66/261 67/68/262 75/76/263 73/74/264
f 67/68/265 68/69/266 76/77/267 75/76/268
f 68/69/269 69/70/270 77/78/271 76/77/272
f 69/70/273 70/71/274 78/79/275 77/78/276
f 70/71/277 71/72/278 79/80/279 78/79/280
f 71/72/281 72/73/282 80/81/283 79/80/284
f 72/73/285 66/67/286 74/75/287 80/81/288
f 74/75/289 73/74/290 81/82/291 82/83/292
f 73/74/293 75/76/294 83/84/295 81/82/296
f 75/76/297 76/77/298 84/85/299 83/84/300
f 76/77/301 77/78/302 85/86/303 84/85/304
f 77/78/305 78/79/306 86/87/307 85/86/308
f 78/79/309 79/80/310 87/88/311 86/87/312
f 79/80/313 80/81/314 88/89/315 87/88/316
f 80/81/317 74/75/318 82/83/319 88/89/320
f 82/83/321 81/82/322 89/90/323
f 81/82/324 83/84/325 89/90/326
f 83/84/327 84/85/328 89/90/329
f 84/85/330 85/86/331 89/90/332
f 85/86/333 86/87/334 89/90/335
f 86/87/336 87/88/337 89/90/338
f 87/88/339 88/89/340 89/90/341
f 88/89/342 82/83/343 89/90/344
