# This file uses meters as units for non-parametric coordinates.

v -33.555222 0.000000 23.912571
v 33.556366 0.000000 23.912571
v -33.555222 0.000000 -23.912477
v 33.556366 0.000000 -23.912477
v 238.961029 379.642822 -23.912477
v 238.961029 379.642822 23.912571
v 264.774323 379.642822 -23.912477
v 264.774323 379.642822 23.912571
v -33.555222 13.781243 -23.912477
v -33.555222 13.781243 23.912571
v 16.230011 13.781243 23.912571
v 221.635056 390.980408 23.912571
v 264.774323 390.980408 23.912571
v 264.774323 390.980408 -23.912477
v 221.635056 390.980408 -23.912477
v 16.230011 13.781243 -23.912477
v -37.239456 13.781243 29.439306
v 16.230011 13.781243 29.439306
v -11.785507 37.881317 29.439304
v -37.809372 38.707565 29.439304
v -11.785507 37.881317 -29.439211
v -37.809372 38.707565 -29.439211
v 16.230011 13.781243 -29.439211
v -37.239456 13.781243 -29.439213
v 268.459320 390.980408 29.439306
v 268.459320 390.980408 -29.439213
v 269.029205 412.241272 -29.439211
v 269.029205 412.241272 29.439304
v 221.635056 390.980408 -29.439211
v 192.670441 413.020325 -29.439211
v 192.670441 413.020325 29.439304
v 221.635056 390.980408 29.439306
vt 0.049640 0.209871
vt 0.049640 0.209871
vt 0.245815 0.301124
vt 0.245815 0.301124
vt 0.245815 0.301124
vt 0.245815 0.301124
vt 0.049640 0.209871
vt 0.049640 0.209871
vt 0.049640 0.209870
vt 0.049640 0.209870
vt 0.049640 0.209870
vt 0.245815 0.301124
vt 0.049640 0.209870
vt 0.245815 0.301124
vt 0.049640 0.209871
vt 0.049640 0.209871
vt 0.245815 0.301124
vt 0.245815 0.301124
vt 0.049640 0.209871
vt 0.049640 0.209870
vt 0.245815 0.301124
vt 0.245815 0.301124
vt 0.245815 0.301124
vt 0.245815 0.301124
vt 0.245815 0.301124
vt 0.245815 0.301124
vt 0.245815 0.301124
vt 0.245815 0.301124
vt 0.245815 0.301124
vt 0.245815 0.301124
vt 0.245815 0.301124
vt 0.245815 0.301124
vt 0.049640 0.209870
vt 0.049640 0.209870
vt 0.049640 0.209870
vt 0.049640 0.209871
vt 0.245815 0.301124
vt 0.245815 0.301124
vt 0.245815 0.301124
vt 0.245815 0.301124
vt 0.245815 0.301124
vt 0.245815 0.301124
vt 0.245815 0.301124
vt 0.245815 0.301124
vt 0.245815 0.301124
vt 0.245815 0.301124
vn 0.000000 0.000000 1.000000
vn 0.000000 0.000000 1.000000
vn 0.000000 0.000000 1.000000
vn 0.000000 0.000000 1.000000
vn 0.031734 0.999496 0.000000
vn 0.031734 0.999496 0.000000
vn 0.031734 0.999496 0.000000
vn 0.031734 0.999496 0.000000
vn 0.000000 0.000000 -1.000000
vn 0.000000 0.000000 -1.000000
vn 0.000000 0.000000 -1.000000
vn 0.000000 0.000000 -1.000000
vn 0.000000 -1.000000 0.000000
vn 0.000000 -1.000000 0.000000
vn 0.000000 -1.000000 0.000000
vn 0.000000 -1.000000 0.000000
vn 0.999641 -0.026797 0.000000
vn 0.999641 -0.026797 0.000000
vn 0.999641 -0.026797 0.000000
vn 0.999641 -0.026797 0.000000
vn -0.999739 -0.022858 0.000000
vn -0.999739 -0.022858 0.000000
vn -0.999739 -0.022858 0.000000
vn -0.999739 -0.022858 0.000000
vn 0.879520 -0.475862 0.000000
vn 0.879520 -0.475862 0.000000
vn 0.879520 -0.475862 0.000000
vn 0.879520 -0.475862 0.000000
vn 0.000000 0.000000 -1.000000
vn 0.000000 0.000000 -1.000000
vn 0.000000 0.000000 -1.000000
vn 0.000000 0.000000 -1.000000
vn -0.878058 0.478554 0.000000
vn -0.878058 0.478554 0.000000
vn -0.878058 0.478554 0.000000
vn -0.878058 0.478554 0.000000
vn -0.000000 0.000000 1.000000
vn -0.000000 0.000000 1.000000
vn -0.000000 0.000000 1.000000
vn -0.000000 0.000000 1.000000
vn 0.000000 -1.000000 0.000000
vn 0.000000 -1.000000 0.000000
vn 0.000000 -1.000000 0.000000
vn 0.000000 -1.000000 0.000000
vn -0.000000 0.000000 -1.000000
vn -0.000000 0.000000 -1.000000
vn -0.000000 0.000000 -1.000000
vn -0.000000 0.000000 -1.000000
vn 0.010202 0.999948 0.000000
vn 0.010202 0.999948 0.000000
vn 0.010202 0.999948 0.000000
vn 0.010202 0.999948 0.000000
vn 0.000000 0.000000 1.000000
vn 0.000000 0.000000 1.000000
vn 0.000000 0.000000 1.000000
vn 0.000000 0.000000 1.000000
vn -1.000000 0.000000 0.000000
vn -1.000000 0.000000 0.000000
vn -1.000000 0.000000 0.000000
vn -1.000000 0.000000 0.000000
vn 0.000000 0.000000 1.000000
vn 0.000000 0.000000 1.000000
vn 0.000000 0.000000 1.000000
vn 0.000000 0.000000 1.000000
vn -0.000000 0.000000 1.000000
vn -0.000000 0.000000 1.000000
vn -0.000000 0.000000 1.000000
vn -0.000000 0.000000 1.000000
vn 0.000000 0.000000 1.000000
vn 0.000000 0.000000 1.000000
vn 0.000000 0.000000 1.000000
vn 0.000000 0.000000 1.000000
vn 1.000000 0.000000 0.000000
vn 1.000000 0.000000 0.000000
vn 1.000000 0.000000 0.000000
vn 1.000000 0.000000 0.000000
vn 0.000000 0.000000 -1.000000
vn 0.000000 0.000000 -1.000000
vn 0.000000 0.000000 -1.000000
vn 0.000000 0.000000 -1.000000
vn 0.000000 0.000000 -1.000000
vn 0.000000 0.000000 -1.000000
vn 0.000000 0.000000 -1.000000
vn 0.000000 0.000000 -1.000000
vn 0.000000 0.000000 -1.000000
vn 0.000000 0.000000 -1.000000
vn 0.000000 0.000000 -1.000000
vn 0.000000 0.000000 -1.000000
vn 0.000000 -1.000000 -0.000000
vn 0.000000 -1.000000 -0.000000
vn 0.000000 -1.000000 -0.000000
vn 0.000000 -1.000000 -0.000000
vn 0.000000 -1.000000 0.000000
vn 0.000000 -1.000000 0.000000
vn 0.000000 -1.000000 0.000000
vn 0.000000 -1.000000 0.000000
vn 0.000000 -1.000000 0.000000
vn 0.000000 -1.000000 0.000000
vn 0.000000 -1.000000 0.000000
vn 0.000000 -1.000000 0.000000
vn 0.000000 -1.000000 0.000000
vn 0.000000 -1.000000 -0.000000
vn 0.000000 -1.000000 -0.000000
vn 0.000000 -1.000000 0.000000
vn 0.878228 -0.478242 0.000000
vn 0.878228 -0.478242 0.000000
vn 0.878228 -0.478242 0.000000
vn 0.878228 -0.478242 0.000000
vn 0.878228 -0.478242 0.000000
vn 0.878228 -0.478242 0.000000
vn 0.878228 -0.478242 0.000000
vn 0.878228 -0.478242 0.000000
vn 0.000000 -1.000000 0.000000
vn 0.000000 -1.000000 0.000000
vn 0.000000 -1.000000 0.000000
vn 0.000000 -1.000000 0.000000
vn 0.000000 -1.000000 0.000000
vn 0.000000 -1.000000 0.000000
vn 0.000000 -1.000000 0.000000
vn 0.000000 -1.000000 0.000000
s off
f 17/37/1 18/38/2 19/4/3 20/3/4
f 20/3/5 19/4/6 21/6/7 22/5/8
f 22/5/9 21/6/10 23/39/11 24/40/12
f 3/1/13 4/2/14 2/7/15 1/8/16
f 25/41/17 26/42/18 27/21/19 28/22/20
f 24/43/21 17/37/22 20/3/23 22/14/24
f 2/7/25 4/2/26 5/9/27 6/10/28
f 29/44/29 23/45/30 21/12/31 30/17/32
f 21/12/33 19/4/34 31/18/35 30/17/36
f 19/4/37 18/38/38 32/46/39 31/18/40
f 6/10/41 5/9/42 7/11/43 8/13/44
f 26/42/45 29/44/46 30/17/47 27/21/48
f 30/17/49 31/18/50 28/22/51 27/21/52
f 31/18/53 32/46/54 25/41/55 28/22/56
f 3/1/57 1/8/58 10/15/59 9/16/60
f 1/8/61 2/7/62 11/19/63 10/15/64
f 12/20/65 11/19/66 2/7/67 6/10/68
f 13/33/69 12/20/70 6/10/71 8/13/72
f 8/13/73 7/11/74 14/34/75 13/33/76
f 5/9/77 15/35/78 14/34/79 7/11/80
f 4/2/81 16/36/82 15/35/83 5/9/84
f 9/16/85 16/36/86 4/2/87 3/1/88
f 10/25/89 11/26/90 18/38/91 17/37/92
f 16/31/93 9/24/94 24/40/95 23/39/96
f 13/28/97 14/29/98 26/42/99 25/41/100
f 9/23/101 10/25/102 17/37/103 24/43/104
f 15/30/105 16/32/106 23/45/107 29/44/108
f 11/26/109 12/27/110 32/46/111 18/38/112
f 14/29/113 15/30/114 29/44/115 26/42/116
f 12/27/117 13/28/118 25/41/119 32/46/120
