# This file uses meters as units for non-parametric coordinates.

v -22.398369 0.000000 -54.076008
v 22.399139 0.000000 -54.076008
v -22.398369 147.371994 -54.076008
v 22.399139 147.371994 -54.076008
v -54.075615 0.000000 -22.399139
v -54.075615 0.000000 22.398758
v -22.398369 0.000000 54.076385
v 22.399139 0.000000 54.076385
v 54.076385 0.000000 22.398758
v 54.076385 0.000000 -22.399139
v -54.075615 147.371994 -22.399139
v -54.075615 147.371994 22.398758
v -22.398369 147.371994 54.076385
v 22.399139 147.371994 54.076385
v 54.076385 147.371994 22.398758
v 54.076385 147.371994 -22.399139
v 18.618011 159.683762 -44.947430
v -18.618782 159.683762 -44.947430
v -44.947052 159.683762 -18.618011
v -44.948578 159.683762 18.617630
v -18.618782 159.683762 44.947052
v 18.618011 159.683762 44.947052
v 44.946289 159.683762 18.616867
v 44.947815 159.683762 -18.618011
v 18.618011 182.428818 -44.947430
v -18.618782 182.428818 -44.947430
v -44.947052 182.428818 -18.618011
v -44.948578 182.428818 18.617630
v -18.618782 182.428818 44.947052
v 18.618011 182.428818 44.947052
v 44.946289 182.428818 18.616867
v 44.947815 182.428818 -18.618011
v 14.559174 182.428818 -35.149006
v -14.558403 182.428818 -35.147858
v -35.147102 182.428818 -14.559551
v -35.148613 182.428818 14.559174
v -14.558403 182.428818 35.147095
v 14.559174 182.428818 35.147095
v 35.147858 182.428818 14.557648
v 35.147858 182.428818 -14.559551
v 14.559174 169.845764 -35.149006
v -14.558403 169.845764 -35.147858
v 0.000000 169.845764 0.000381
v -35.147102 169.845764 -14.559551
v -35.148613 169.845764 14.559174
v -14.558403 169.845764 35.147095
v 14.559174 169.845764 35.147095
v 35.147858 169.845764 14.557648
v 35.147858 169.845764 -14.559551
vt 0.244658 0.303578
vt 0.244658 0.303578
vt 0.244658 0.303578
vt 0.244658 0.303578
vt 0.244658 0.303578
vt 0.244658 0.303578
vt 0.244658 0.303578
vt 0.244658 0.303578
vt 0.244658 0.303578
vt 0.244658 0.303578
vt 0.244658 0.303578
vt 0.244658 0.303578
vt 0.244658 0.303578
vt 0.244658 0.303578
vt 0.244658 0.303578
vt 0.244658 0.303578
vt 0.152019 0.075413
vt 0.130134 0.084478
vt 0.130134 0.053528
vt 0.108249 0.075413
vt 0.099184 0.053528
vt 0.108249 0.031644
vt 0.130134 0.022579
vt 0.152019 0.031644
vt 0.161083 0.053528
vt 0.244658 0.303578
vt 0.244658 0.303578
vt 0.244658 0.303578
vt 0.244658 0.303578
vt 0.244658 0.303578
vt 0.244658 0.303578
vt 0.244658 0.303578
vt 0.244658 0.303578
vt 0.244658 0.303578
vt 0.244658 0.303578
vt 0.244658 0.303578
vt 0.244658 0.303578
vt 0.244658 0.303578
vt 0.244658 0.303578
vt 0.244658 0.303578
vt 0.244658 0.303578
vt 0.994330 0.303404
vt 0.994330 0.303404
vt 0.994330 0.303404
vt 0.994330 0.303404
vt 0.994330 0.303404
vt 0.994330 0.303404
vt 0.994330 0.303404
vt 0.994330 0.303404
vt 0.994330 0.303404
vt 0.994330 0.303404
vt 0.994330 0.303404
vt 0.994330 0.303404
vt 0.994330 0.303404
vt 0.994330 0.303404
vt 0.994330 0.303404
vt 0.994330 0.303404
vt 0.994330 0.303404
vt 0.994330 0.303404
vt 0.994330 0.303404
vt 0.994330 0.303404
vt 0.994330 0.303404
vt 0.994330 0.303404
vt 0.994330 0.303404
vt 0.994330 0.303404
vt 0.994330 0.303404
vt 0.994330 0.303404
vt 0.994330 0.303404
vt 0.994330 0.303404
vt 0.994330 0.303404
vt 0.994330 0.303404
vt 0.994330 0.303404
vt 0.994330 0.303404
vn -0.707103 0.000000 -0.707111
vn -0.707103 0.000000 -0.707111
vn -0.707103 0.000000 -0.707111
vn -0.707103 0.000000 -0.707111
vn -0.707111 0.000000 0.707103
vn -0.707111 0.000000 0.707103
vn -0.707111 0.000000 0.707103
vn -0.707111 0.000000 0.707103
vn 0.707111 0.000000 0.707103
vn 0.707111 0.000000 0.707103
vn 0.707111 0.000000 0.707103
vn 0.707111 0.000000 0.707103
vn 1.000000 0.000000 0.000000
vn 1.000000 0.000000 0.000000
vn 1.000000 0.000000 0.000000
vn 1.000000 0.000000 0.000000
vn 0.707103 0.000000 -0.707111
vn 0.707103 0.000000 -0.707111
vn 0.707103 0.000000 -0.707111
vn 0.707103 0.000000 -0.707111
vn 0.000000 1.000000 0.000000
vn 0.000000 1.000000 0.000000
vn 0.000000 1.000000 0.000000
vn 0.000000 1.000000 0.000000
vn 0.000000 1.000000 0.000000
vn 0.000000 1.000000 0.000000
vn 0.000000 1.000000 -0.000001
vn 0.000000 1.000000 -0.000001
vn 0.000000 1.000000 -0.000001
vn 0.000000 1.000000 0.000001
vn 0.000000 1.000000 0.000001
vn 0.000000 1.000000 0.000001
vn 0.000000 1.000000 0.000000
vn 0.000000 1.000000 0.000000
vn 0.000000 1.000000 0.000000
vn 0.000000 1.000000 0.000000
vn 0.000000 1.000000 0.000000
vn 0.000000 1.000000 0.000000
vn 0.000000 1.000000 0.000000
vn 0.000000 1.000000 0.000000
vn 0.000000 1.000000 0.000000
vn 0.000000 1.000000 0.000000
vn 0.000000 1.000000 0.000000
vn 0.000000 1.000000 0.000000
vn 0.000000 0.595596 -0.803284
vn 0.000000 0.595596 -0.803284
vn 0.000000 0.595596 -0.803284
vn 0.000000 0.595596 -0.803284
vn -0.568024 0.595571 -0.568017
vn -0.568024 0.595571 -0.568017
vn -0.568024 0.595571 -0.568017
vn -0.568024 0.595571 -0.568017
vn -0.803308 0.595563 -0.000015
vn -0.803308 0.595563 -0.000015
vn -0.803308 0.595563 -0.000015
vn -0.803308 0.595563 -0.000015
vn -0.568027 0.595560 0.568027
vn -0.568027 0.595560 0.568027
vn -0.568027 0.595560 0.568027
vn -0.568027 0.595560 0.568027
vn 0.000000 0.595628 0.803261
vn 0.000000 0.595628 0.803260
vn 0.000000 0.595628 0.803260
vn 0.000000 0.595628 0.803261
vn 0.567996 0.595640 0.567973
vn 0.567996 0.595640 0.567973
vn 0.567996 0.595640 0.567973
vn 0.567996 0.595640 0.567973
vn 0.803261 0.595628 0.000015
vn 0.803261 0.595628 0.000015
vn 0.803261 0.595628 0.000015
vn 0.803261 0.595628 0.000015
vn 0.568005 0.595595 -0.568012
vn 0.568005 0.595595 -0.568012
vn 0.568005 0.595595 -0.568012
vn 0.568005 0.595595 -0.568012
vn 0.000000 0.000000 -1.000000
vn 0.000000 0.000000 -1.000000
vn 0.000000 0.000000 -1.000000
vn 0.000000 0.000000 -1.000000
vn -0.707122 0.000000 -0.707091
vn -0.707122 0.000000 -0.707091
vn -0.707122 0.000000 -0.707091
vn -0.707122 0.000000 -0.707091
vn -1.000000 0.000000 -0.000041
vn -1.000000 0.000000 -0.000041
vn -1.000000 0.000000 -0.000041
vn -1.000000 0.000000 -0.000041
vn -0.707102 0.000000 0.707112
vn -0.707102 0.000000 0.707112
vn -0.707102 0.000000 0.707112
vn -0.707102 0.000000 0.707112
vn 0.000000 0.000000 1.000000
vn 0.000000 0.000000 1.000000
vn 0.000000 0.000000 1.000000
vn 0.000000 0.000000 1.000000
vn 0.707132 0.000000 0.707081
vn 0.707132 0.000000 0.707081
vn 0.707132 0.000000 0.707081
vn 0.707132 0.000000 0.707081
vn 1.000000 0.000000 0.000041
vn 1.000000 0.000000 0.000041
vn 1.000000 0.000000 0.000041
vn 1.000000 0.000000 0.000041
vn 0.707101 0.000000 -0.707112
vn 0.707101 0.000000 -0.707112
vn 0.707101 0.000000 -0.707112
vn 0.707101 0.000000 -0.707112
vn 0.000000 1.000000 0.000001
vn 0.000000 1.000000 0.000001
vn 0.000000 1.000000 0.000001
vn 0.000000 1.000000 0.000001
vn 0.000000 1.000000 -0.000000
vn 0.000000 1.000000 -0.000000
vn 0.000000 1.000000 -0.000000
vn 0.000000 1.000000 -0.000000
vn 0.000000 1.000000 -0.000000
vn 0.000000 1.000000 -0.000000
vn 0.000000 1.000000 -0.000000
vn 0.000000 1.000000 -0.000000
vn 0.000000 1.000000 0.000000
vn 0.000000 1.000000 0.000000
vn 0.000000 1.000000 0.000000
vn 0.000000 1.000000 0.000000
vn 0.000000 1.000000 0.000001
vn 0.000000 1.000000 0.000001
vn 0.000000 1.000000 0.000001
vn 0.000000 1.000000 0.000001
vn 0.000000 1.000000 -0.000001
vn 0.000000 1.000000 -0.000001
vn 0.000000 1.000000 -0.000001
vn 0.000000 1.000000 -0.000001
vn 0.000000 1.000000 0.000000
vn 0.000000 1.000000 0.000000
vn 0.000000 1.000000 0.000000
vn 0.000000 1.000000 0.000000
vn 0.000000 1.000000 -0.000001
vn 0.000000 1.000000 -0.000001
vn 0.000000 1.000000 -0.000001
vn 0.000000 1.000000 -0.000001
vn 0.000039 0.000000 1.000000
vn 0.000039 0.000000 1.000000
vn 0.000039 0.000000 1.000000
vn 0.000039 0.000000 1.000000
vn 0.707100 0.000000 0.707114
vn 0.707100 0.000000 0.707114
vn 0.707100 0.000000 0.707114
vn 0.707100 0.000000 0.707114
vn 1.000000 0.000000 0.000052
vn 1.000000 0.000000 0.000052
vn 1.000000 0.000000 0.000052
vn 1.000000 0.000000 0.000052
vn 0.707068 0.000000 -0.707146
vn 0.707068 0.000000 -0.707146
vn 0.707068 0.000000 -0.707146
vn 0.707068 0.000000 -0.707146
vn 0.000000 0.000000 -1.000000
vn 0.000000 0.000000 -1.000000
vn 0.000000 0.000000 -1.000000
vn 0.000000 0.000000 -1.000000
vn -0.707120 0.000000 -0.707093
vn -0.707120 0.000000 -0.707093
vn -0.707120 0.000000 -0.707093
vn -0.707120 0.000000 -0.707093
vn -1.000000 0.000000 0.000000
vn -1.000000 0.000000 0.000000
vn -1.000000 0.000000 0.000000
vn -1.000000 0.000000 0.000000
vn -0.707120 0.000000 0.707093
vn -0.707120 0.000000 0.707093
vn -0.707120 0.000000 0.707093
vn -0.707120 0.000000 0.707093
vn 0.000000 0.000000 -1.000000
vn 0.000000 0.000000 -1.000000
vn 0.000000 0.000000 -1.000000
vn 0.000000 0.000000 -1.000000
vn -1.000000 0.000000 0.000000
vn -1.000000 0.000000 0.000000
vn -1.000000 0.000000 0.000000
vn -1.000000 0.000000 0.000000
vn 0.000000 0.000000 1.000000
vn 0.000000 0.000000 1.000000
vn 0.000000 0.000000 1.000000
vn 0.000000 0.000000 1.000000
vn 0.000000 -1.000000 0.000000
vn 0.000000 -1.000000 0.000000
vn 0.000000 -1.000000 0.000000
vn 0.000000 -1.000000 0.000000
vn 0.000000 -1.000000 0.000000
vn 0.000000 -1.000000 0.000000
vn 0.000000 -1.000000 0.000000
vn 0.000000 -1.000000 0.000000
s off
f 1/1/1 5/2/2 11/3/3 3/4/4
f 6/5/5 7/6/6 13/7/7 12/8/8
f 8/9/9 9/10/10 15/11/11 14/12/12
f 9/10/13 10/13/14 16/14/15 15/11/16
f 10/13/17 2/15/18 4/16/19 16/14/20
f 41/17/21 42/18/22 43/19/23
f 42/18/24 44/20/25 43/19/26
f 44/20/27 45/21/28 43/19/29
f 45/21/30 46/22/31 43/19/32
f 46/22/33 47/23/34 43/19/35
f 47/23/36 48/24/37 43/19/38
f 48/24/39 49/25/40 43/19/41
f 49/25/42 41/17/43 43/19/44
f 4/26/45 3/27/46 18/28/47 17/29/48
f 3/27/49 11/30/50 19/31/51 18/28/52
f 11/30/53 12/32/54 20/33/55 19/31/56
f 12/32/57 13/34/58 21/35/59 20/33/60
f 13/34/61 14/36/62 22/37/63 21/35/64
f 14/36/65 15/38/66 23/39/67 22/37/68
f 15/38/69 16/40/70 24/41/71 23/39/72
f 16/40/73 4/26/74 17/29/75 24/41/76
f 17/42/77 18/43/78 26/44/79 25/45/80
f 18/43/81 19/46/82 27/47/83 26/44/84
f 19/46/85 20/48/86 28/49/87 27/47/88
f 20/48/89 21/50/90 29/51/91 28/49/92
f 21/50/93 22/52/94 30/53/95 29/51/96
f 22/52/97 23/54/98 31/55/99 30/53/100
f 23/54/101 24/56/102 32/57/103 31/55/104
f 24/56/105 17/42/106 25/45/107 32/57/108
f 25/45/109 26/44/110 34/58/111 33/59/112
f 26/44/113 27/47/114 35/60/115 34/58/116
f 27/47/117 28/49/118 36/61/119 35/60/120
f 28/49/121 29/51/122 37/62/123 36/61/124
f 29/51/125 30/53/126 38/63/127 37/62/128
f 30/53/129 31/55/130 39/64/131 38/63/132
f 31/55/133 32/57/134 40/65/135 39/64/136
f 32/57/137 25/45/138 33/59/139 40/65/140
f 33/59/141 34/58/142 42/66/143 41/67/144
f 34/58/145 35/60/146 44/68/147 42/66/148
f 35/60/149 36/61/150 45/69/151 44/68/152
f 36/61/153 37/62/154 46/70/155 45/69/156
f 37/62/157 38/63/158 47/71/159 46/70/160
f 38/63/161 39/64/162 48/72/163 47/71/164
f 39/64/165 40/65/166 49/73/167 48/72/168
f 40/65/169 33/59/170 41/67/171 49/73/172
f 4/16/173 2/15/174 1/1/175 3/27/176
f 5/2/177 6/5/178 12/32/179 11/3/180
f 7/6/181 8/9/182 14/36/183 13/7/184
f 1/1/185 2/15/186 10/13/187 9/10/188 8/9/189 7/6/190 6/5/191 5/2/192
