# This file uses meters as units for non-parametric coordinates.

v -11.790085 -47.325756 0.000000
v -11.790085 -47.325756 500.000000
v -11.790085 -36.285259 0.000000
v -11.790085 -36.285259 500.000000
v 11.790085 -36.285259 0.000000
v 11.790085 -36.285259 500.000000
v 11.790085 -47.325756 0.000000
v 11.790085 -47.325756 500.000000
v -11.790085 -39.965439 0.000000
v 11.790085 -39.965439 0.000000
v 11.790085 -39.965439 500.000000
v -11.790085 -39.965439 500.000000
v -11.790085 -43.645576 0.000000
v 11.790085 -43.645576 0.000000
v 11.790085 -43.645576 500.000000
v -11.790085 -43.645576 500.000000
v 27.661705 8.461928 0.000000
v 27.661896 8.461928 500.000000
v 27.661705 17.624260 0.000000
v 27.661896 17.624260 500.000000
v 23.028946 20.083618 0.000000
v 23.028946 20.083618 500.000000
v 23.028946 6.002569 0.000000
v 23.028946 6.002569 500.000000
v 23.028946 6.002569 306.632233
v 27.661705 10.440421 306.632233
v 27.661705 17.624260 306.632233
v 23.028946 20.083618 306.632233
v 23.028946 6.002569 101.501854
v 27.661705 8.461928 101.501846
v 27.661705 15.441179 101.501846
v 23.028946 20.083618 101.501854
v 27.661705 -16.306255 0.000000
v 27.661896 -16.306255 500.000000
v 27.661705 -7.143927 0.000000
v 27.661896 -7.143927 500.000000
v 23.028946 -4.684567 0.000000
v 23.028946 -4.684567 500.000000
v 23.028946 -18.765617 0.000000
v 23.028946 -18.765617 500.000000
v 23.028946 -18.765617 402.127838
v 27.661705 -13.858008 402.127838
v 27.661705 -7.143927 402.127838
v 23.028946 -4.684567 402.127838
v 23.028946 -18.765617 174.474915
v 27.661705 -16.306255 174.474915
v 27.661705 -9.556198 174.474915
v 23.028946 -4.684567 174.474915
v -27.661705 8.461928 0.000000
v -27.661896 8.461928 500.000000
v -27.661705 17.624260 0.000000
v -27.661896 17.624260 500.000000
v -23.028946 20.083618 0.000000
v -23.028946 20.083618 500.000000
v -23.028946 6.002569 0.000000
v -23.028946 6.002569 500.000000
v -23.028946 6.002569 306.632233
v -27.661705 10.440421 306.632233
v -27.661705 17.624260 306.632233
v -23.028946 20.083618 306.632233
v -23.028946 6.002569 101.501846
v -27.661705 8.461928 101.501854
v -27.661705 15.441179 101.501854
v -23.028946 20.083618 101.501846
v -27.661705 -16.306255 0.000000
v -27.661896 -16.306255 500.000000
v -27.661705 -7.143927 0.000000
v -27.661896 -7.143927 500.000000
v -23.028946 -4.684567 0.000000
v -23.028946 -4.684567 500.000000
v -23.028946 -18.765617 0.000000
v -23.028946 -18.765617 500.000000
v -23.028946 -18.765617 402.127838
v -27.661896 -13.858008 402.127838
v -27.661896 -7.143927 402.127838
v -23.028946 -4.684567 402.127838
v -23.028948 -18.765617 174.474915
v -27.661707 -16.306255 174.474899
v -27.661707 -9.556198 174.474899
v -23.028948 -4.684567 174.474915
v -23.028946 -27.545475 0.000000
v -23.028946 -27.545475 500.000000
v -23.028946 28.145409 0.000000
v -23.028946 28.145409 500.000000
v 23.028946 28.145409 0.000000
v 23.028946 28.145409 500.000000
v 23.028946 -27.545475 0.000000
v 23.028946 -27.545475 500.000000
v -18.903923 32.429359 0.000000
v -18.903923 32.429359 500.000000
v 18.903923 32.429359 500.000000
v 18.903923 32.429359 0.000000
v 18.903923 -31.829430 0.000000
v 18.903923 -31.829430 500.000000
v -18.903923 -31.829430 500.000000
v -18.903923 -31.829430 0.000000
v -13.305283 32.429359 377.436432
v 18.903923 32.429359 373.222748
v 23.028946 23.784733 376.974854
v 23.028946 -24.427319 373.222748
v 18.903923 -31.829430 373.222748
v -18.903923 -31.829430 373.222717
v -23.028946 -24.175001 373.222748
v -23.028946 28.145409 373.222748
v -18.903921 32.429359 166.666611
v 13.432503 32.429359 166.005905
v 23.028946 28.145409 166.666611
v 23.028946 -27.545475 166.666611
v 12.658119 -31.829430 166.205597
v -18.903921 -31.829430 166.666611
v -23.028944 -27.545475 166.666595
v -23.028948 26.111937 162.589844
vt 0.233557 0.329345
vt 0.233557 0.329345
vt 0.233557 0.329345
vt 0.233557 0.329345
vt 0.233557 0.329345
vt 0.233557 0.329345
vt 0.233557 0.329345
vt 0.233557 0.329345
vt 0.233557 0.329345
vt 0.233557 0.329345
vt 0.233557 0.329345
vt 0.233557 0.329345
vt 0.233557 0.329345
vt 0.233557 0.329345
vt 0.233557 0.329345
vt 0.233557 0.329345
vt 0.233557 0.329345
vt 0.233557 0.329345
vt 0.233557 0.329345
vt 0.233557 0.329345
vt 0.233557 0.329345
vt 0.233557 0.329345
vt 0.233557 0.329345
vt 0.233557 0.329345
vt 0.233557 0.329345
vt 0.233557 0.329345
vt 0.233027 0.255400
vt 0.233027 0.255400
vt 0.233027 0.255400
vt 0.233027 0.255400
vt 0.233027 0.255400
vt 0.233027 0.255400
vt 0.233027 0.255400
vt 0.233027 0.255400
vt 0.243628 0.304432
vt 0.243628 0.304432
vt 0.243628 0.304432
vt 0.243628 0.304432
vt 0.243628 0.304432
vt 0.243628 0.304432
vt 0.243628 0.304432
vt 0.243628 0.304432
vt 0.243628 0.304432
vt 0.243628 0.304432
vt 0.243628 0.304432
vt 0.243628 0.304432
vt 0.243628 0.304432
vt 0.243628 0.304432
vt 0.243628 0.304432
vt 0.243628 0.304432
vt 0.243628 0.304432
vt 0.243628 0.304432
vt 0.243628 0.304432
vt 0.243628 0.304432
vt 0.243628 0.304432
vt 0.243628 0.304432
vt 0.243628 0.304432
vt 0.243628 0.304432
vt 0.243628 0.304432
vt 0.243628 0.304432
vt 0.243628 0.304432
vt 0.243628 0.304432
vt 0.243628 0.304432
vt 0.243628 0.304432
vt 0.243628 0.304432
vt 0.243628 0.304432
vt 0.243628 0.304432
vt 0.243628 0.304432
vt 0.243628 0.304432
vt 0.243628 0.304432
vt 0.243628 0.304432
vt 0.243628 0.304432
vt 0.243628 0.304432
vt 0.243628 0.304432
vt 0.243628 0.304432
vt 0.243628 0.304432
vt 0.243628 0.304432
vt 0.243628 0.304432
vt 0.243628 0.304432
vt 0.243628 0.304432
vt 0.243628 0.304432
vt 0.243628 0.304432
vt 0.243628 0.304432
vt 0.243628 0.304432
vt 0.243628 0.304432
vt 0.243628 0.304432
vt 0.243628 0.304432
vt 0.243628 0.304432
vt 0.243628 0.304432
vt 0.243628 0.304432
vt 0.243628 0.304432
vt 0.243628 0.304432
vt 0.243628 0.304432
vt 0.243628 0.304432
vt 0.243628 0.304432
vt 0.243628 0.304432
vt 0.243628 0.304432
vt 0.243628 0.304432
vt 0.243628 0.304432
vt 0.243628 0.304432
vt 0.243628 0.304432
vt 0.243628 0.304432
vt 0.243628 0.304432
vt 0.243628 0.304432
vt 0.243628 0.304432
vt 0.243628 0.304432
vt 0.243628 0.304432
vt 0.243628 0.304432
vt 0.243628 0.304432
vt 0.243628 0.304432
vt 0.243628 0.304432
vt 0.243628 0.304432
vt 0.243628 0.304432
vt 0.243628 0.304432
vt 0.243628 0.304432
vt 0.243628 0.304432
vt 0.243628 0.304432
vt 0.243628 0.304432
vt 0.243628 0.304432
vt 0.243628 0.304432
vt 0.243628 0.304432
vt 0.243628 0.304432
vt 0.243628 0.304432
vt 0.243628 0.304432
vt 0.243628 0.304432
vt 0.243628 0.304432
vt 0.243628 0.304432
vt 0.243628 0.304432
vt 0.243628 0.304432
vt 0.243628 0.304432
vt 0.255820 0.278988
vt 0.255820 0.278988
vt 0.255820 0.278988
vt 0.255820 0.278988
vt 0.255820 0.278988
vt 0.255820 0.278988
vt 0.255820 0.278988
vt 0.255820 0.278988
vt 0.255820 0.278988
vt 0.255820 0.278988
vt 0.255820 0.278988
vt 0.255820 0.278988
vt 0.255820 0.278988
vt 0.255820 0.278988
vt 0.255820 0.278988
vt 0.255820 0.278988
vt 0.255820 0.278988
vt 0.255820 0.278988
vt 0.255820 0.278988
vt 0.255820 0.278988
vt 0.255820 0.278988
vt 0.255820 0.278988
vt 0.255820 0.278988
vt 0.255820 0.278988
vt 0.255820 0.278988
vt 0.255820 0.278988
vt 0.255820 0.278988
vt 0.255820 0.278988
vt 0.255820 0.278988
vt 0.255820 0.278988
vt 0.255820 0.278988
vt 0.255820 0.278988
vt 0.255820 0.278988
vt 0.255820 0.278988
vt 0.255820 0.278988
vt 0.255820 0.278988
vt 0.255820 0.278988
vt 0.255820 0.278988
vt 0.255820 0.278988
vt 0.255820 0.278988
vn -1.000000 0.000000 0.000000
vn -1.000000 0.000000 0.000000
vn -1.000000 0.000000 0.000000
vn -1.000000 0.000000 0.000000
vn 0.000000 1.000000 0.000000
vn 0.000000 1.000000 0.000000
vn 0.000000 1.000000 0.000000
vn 0.000000 1.000000 0.000000
vn 1.000000 0.000000 0.000000
vn 1.000000 0.000000 0.000000
vn 1.000000 0.000000 0.000000
vn 1.000000 0.000000 0.000000
vn 0.000000 -1.000000 0.000000
vn 0.000000 -1.000000 0.000000
vn 0.000000 -1.000000 0.000000
vn 0.000000 -1.000000 0.000000
vn 0.000000 0.000000 1.000000
vn 0.000000 0.000000 1.000000
vn 0.000000 0.000000 1.000000
vn 0.000000 0.000000 1.000000
vn 0.000000 0.000000 -1.000000
vn 0.000000 0.000000 -1.000000
vn 0.000000 0.000000 -1.000000
vn 0.000000 0.000000 -1.000000
vn 0.000000 0.000000 -1.000000
vn 0.000000 0.000000 -1.000000
vn 0.000000 0.000000 -1.000000
vn 0.000000 0.000000 -1.000000
vn 1.000000 0.000000 0.000000
vn 1.000000 0.000000 0.000000
vn 1.000000 0.000000 0.000000
vn 1.000000 0.000000 0.000000
vn 0.000000 0.000000 1.000000
vn 0.000000 0.000000 1.000000
vn 0.000000 0.000000 1.000000
vn 0.000000 0.000000 1.000000
vn -1.000000 0.000000 0.000000
vn -1.000000 0.000000 0.000000
vn -1.000000 0.000000 0.000000
vn -1.000000 0.000000 0.000000
vn 0.000000 0.000000 -1.000000
vn 0.000000 0.000000 -1.000000
vn 0.000000 0.000000 -1.000000
vn 0.000000 0.000000 -1.000000
vn 1.000000 0.000000 0.000000
vn 1.000000 0.000000 0.000000
vn 1.000000 0.000000 0.000000
vn 1.000000 0.000000 0.000000
vn 0.000000 0.000000 1.000000
vn 0.000000 0.000000 1.000000
vn 0.000000 0.000000 1.000000
vn 0.000000 0.000000 1.000000
vn -1.000000 0.000000 0.000000
vn -1.000000 0.000000 0.000000
vn -1.000000 0.000000 0.000000
vn -1.000000 0.000000 0.000000
vn 1.000000 0.000000 0.000000
vn 1.000000 0.000000 0.000000
vn 1.000000 0.000000 0.000000
vn 1.000000 0.000000 0.000000
vn 0.608314 0.793651 0.008535
vn 0.608314 0.793651 0.008535
vn 0.608336 0.793680 -0.000000
vn 0.608336 0.793680 -0.000014
vn 0.468888 -0.883257 0.000000
vn 0.468888 -0.883257 0.000000
vn 0.558814 -0.829289 0.002678
vn 0.558737 -0.829341 0.002676
vn -0.000007 0.000000 1.000000
vn -0.000007 0.000000 1.000000
vn -0.000007 0.000000 1.000000
vn -0.000007 0.000000 1.000000
vn 0.000000 0.000000 -1.000000
vn 0.000000 0.000000 -1.000000
vn 0.000000 0.000000 -1.000000
vn 0.000000 0.000000 -1.000000
vn 0.597115 -0.802156 -0.000000
vn 0.597115 -0.802156 0.000000
vn 0.597106 -0.802152 -0.004104
vn 0.597106 -0.802152 -0.004104
vn 1.000000 0.000000 -0.000001
vn 1.000000 0.000000 -0.000001
vn 1.000000 0.000000 -0.000001
vn 1.000000 0.000000 -0.000001
vn 0.546246 0.837622 -0.002294
vn 0.468881 0.883262 -0.000000
vn 0.468881 0.883262 -0.000000
vn 0.546356 0.837550 -0.002298
vn 0.558737 -0.829341 0.002676
vn 0.558814 -0.829289 0.002678
vn 0.597115 -0.802156 0.000000
vn 0.597115 -0.802156 -0.000000
vn 1.000000 0.000000 0.000000
vn 1.000000 0.000000 -0.000001
vn 1.000000 0.000000 -0.000001
vn 1.000000 0.000000 0.000000
vn 0.608336 0.793680 -0.000000
vn 0.546246 0.837622 -0.002294
vn 0.546356 0.837550 -0.002298
vn 0.608336 0.793680 -0.000014
vn 1.000000 0.000000 0.000000
vn 1.000000 0.000000 0.000000
vn 1.000000 0.000000 0.000000
vn 1.000000 0.000000 0.000000
vn 0.620475 0.784208 0.005421
vn 0.620475 0.784208 0.005421
vn 0.620484 0.784219 0.000000
vn 0.620484 0.784219 -0.000004
vn 0.468889 -0.883257 0.000000
vn 0.468889 -0.883257 0.000000
vn 0.562681 -0.826671 0.002520
vn 0.562563 -0.826751 0.002517
vn -0.000007 0.000000 1.000000
vn -0.000007 0.000000 1.000000
vn -0.000007 0.000000 1.000000
vn -0.000007 0.000000 1.000000
vn 0.000000 0.000000 -1.000000
vn 0.000000 0.000000 -1.000000
vn 0.000000 0.000000 -1.000000
vn 0.000000 0.000000 -1.000000
vn 0.622349 -0.782740 -0.000000
vn 0.622349 -0.782740 0.000019
vn 0.622314 -0.782707 -0.009790
vn 0.622314 -0.782707 -0.009790
vn 1.000000 0.000000 -0.000001
vn 1.000000 0.000000 -0.000002
vn 1.000000 0.000000 -0.000002
vn 1.000000 0.000000 -0.000001
vn 0.580505 0.814251 -0.003017
vn 0.468881 0.883261 -0.000000
vn 0.468881 0.883261 -0.000000
vn 0.580598 0.814185 -0.003020
vn 0.562563 -0.826751 0.002517
vn 0.562681 -0.826671 0.002520
vn 0.622349 -0.782740 0.000019
vn 0.622349 -0.782740 -0.000000
vn 1.000000 0.000000 0.000000
vn 1.000000 0.000000 -0.000001
vn 1.000000 0.000000 -0.000001
vn 1.000000 0.000000 0.000000
vn 0.620484 0.784219 0.000000
vn 0.580505 0.814251 -0.003017
vn 0.580598 0.814185 -0.003020
vn 0.620484 0.784219 -0.000004
vn -1.000000 0.000000 0.000000
vn -1.000000 0.000000 0.000000
vn -1.000000 0.000000 0.000000
vn -1.000000 0.000000 0.000000
vn -0.608314 0.793651 0.008535
vn -0.608336 0.793679 -0.000014
vn -0.608336 0.793679 0.000000
vn -0.608314 0.793651 0.008535
vn -0.468888 -0.883257 0.000000
vn -0.558737 -0.829341 0.002676
vn -0.558814 -0.829289 0.002678
vn -0.468888 -0.883257 0.000000
vn 0.000009 0.000000 1.000000
vn 0.000009 0.000000 1.000000
vn 0.000009 0.000000 1.000000
vn 0.000009 0.000000 1.000000
vn 0.000000 0.000000 -1.000000
vn 0.000000 0.000000 -1.000000
vn 0.000000 0.000000 -1.000000
vn 0.000000 0.000000 -1.000000
vn -0.597115 -0.802156 -0.000000
vn -0.597106 -0.802152 -0.004104
vn -0.597106 -0.802152 -0.004104
vn -0.597115 -0.802156 0.000000
vn -1.000000 0.000000 -0.000001
vn -1.000000 0.000000 -0.000001
vn -1.000000 0.000000 -0.000001
vn -1.000000 0.000000 -0.000001
vn -0.546247 0.837621 -0.002294
vn -0.546356 0.837550 -0.002298
vn -0.468881 0.883262 -0.000000
vn -0.468881 0.883262 -0.000000
vn -0.558737 -0.829341 0.002676
vn -0.597115 -0.802156 -0.000000
vn -0.597115 -0.802156 0.000000
vn -0.558814 -0.829289 0.002678
vn -1.000000 0.000000 0.000000
vn -1.000000 0.000000 0.000000
vn -1.000000 0.000000 -0.000001
vn -1.000000 0.000000 -0.000001
vn -0.608336 0.793679 0.000000
vn -0.608336 0.793679 -0.000014
vn -0.546356 0.837550 -0.002298
vn -0.546247 0.837621 -0.002294
vn -1.000000 0.000000 -0.000000
vn -1.000000 0.000000 -0.000000
vn -1.000000 0.000000 -0.000000
vn -1.000000 0.000000 -0.000000
vn -0.620475 0.784208 0.005421
vn -0.620479 0.784223 -0.000004
vn -0.620479 0.784223 -0.000000
vn -0.620475 0.784208 0.005421
vn -0.468889 -0.883257 -0.000000
vn -0.562559 -0.826754 0.002517
vn -0.562676 -0.826674 0.002520
vn -0.468889 -0.883257 -0.000000
vn 0.000009 0.000000 1.000000
vn 0.000009 0.000000 1.000000
vn 0.000009 0.000000 1.000000
vn 0.000009 0.000000 1.000000
vn 0.000000 0.000000 -1.000000
vn 0.000000 0.000000 -1.000000
vn 0.000000 0.000000 -1.000000
vn 0.000000 0.000000 -1.000000
vn -0.622341 -0.782746 -0.000000
vn -0.622306 -0.782713 -0.009790
vn -0.622306 -0.782713 -0.009790
vn -0.622341 -0.782746 0.000019
vn -1.000000 0.000000 -0.000001
vn -1.000000 0.000000 -0.000001
vn -1.000000 0.000000 0.000000
vn -1.000000 0.000000 0.000000
vn -0.580497 0.814257 -0.003017
vn -0.580590 0.814190 -0.003020
vn -0.468874 0.883265 0.000000
vn -0.468874 0.883265 0.000000
vn -0.562559 -0.826754 0.002517
vn -0.622341 -0.782746 -0.000000
vn -0.622341 -0.782746 0.000019
vn -0.562676 -0.826674 0.002520
vn -1.000000 0.000000 -0.000000
vn -1.000000 0.000000 -0.000000
vn -1.000000 0.000000 -0.000001
vn -1.000000 0.000000 -0.000001
vn -0.620479 0.784223 -0.000000
vn -0.620479 0.784223 -0.000004
vn -0.580590 0.814190 -0.003020
vn -0.580497 0.814257 -0.003017
vn -1.000000 0.000000 -0.000000
vn -1.000000 0.000000 0.000000
vn -1.000000 0.000000 0.000000
vn -1.000000 0.000000 -0.000000
vn 0.000000 1.000000 -0.000000
vn 0.000000 1.000000 -0.000000
vn 0.000000 1.000000 -0.000000
vn 0.000000 1.000000 -0.000000
vn 1.000000 0.000000 0.000000
vn 1.000000 0.000000 0.000000
vn 1.000000 0.000000 0.000000
vn 1.000000 0.000000 0.000000
vn 0.000000 -1.000000 0.000000
vn 0.000000 -1.000000 0.000000
vn 0.000000 -1.000000 0.000000
vn 0.000000 -1.000000 0.000000
vn 0.000000 0.000000 1.000000
vn 0.000000 0.000000 1.000000
vn 0.000000 0.000000 1.000000
vn 0.000000 0.000000 1.000000
vn 0.000000 0.000000 -1.000000
vn 0.000000 0.000000 -1.000000
vn 0.000000 0.000000 -1.000000
vn 0.000000 0.000000 -1.000000
vn -0.789888 0.613239 0.003787
vn -0.712436 0.701726 0.004043
vn -0.656403 0.754398 0.004181
vn -0.789889 0.613239 0.003787
vn 0.000000 0.000000 1.000000
vn 0.000000 0.000000 1.000000
vn 0.000000 0.000000 1.000000
vn 0.000000 0.000000 1.000000
vn 0.628332 0.777941 0.002526
vn 0.529321 0.848377 0.008706
vn 0.529321 0.848377 0.008706
vn 0.622250 0.782813 0.002924
vn 0.000000 0.000000 -1.000000
vn 0.000000 0.000000 -1.000000
vn 0.000000 0.000000 -1.000000
vn 0.000000 0.000000 -1.000000
vn 0.508577 -0.860964 0.009543
vn 0.580584 -0.814198 0.001760
vn 0.577561 -0.816345 0.002096
vn 0.508577 -0.860964 0.009543
vn 0.000000 0.000000 1.000000
vn 0.000000 0.000000 1.000000
vn 0.000000 0.000000 1.000000
vn 0.000000 0.000000 1.000000
vn -0.784574 -0.620029 0.002809
vn -0.720343 -0.693618 0.000000
vn -0.720343 -0.693618 0.000000
vn -0.784395 -0.620256 0.002801
vn 0.000000 0.000000 -1.000000
vn 0.000000 0.000000 -1.000000
vn 0.000000 0.000000 -1.000000
vn 0.000000 0.000000 -1.000000
vn 0.000000 1.000000 0.000000
vn 0.000000 1.000000 0.000000
vn 0.000000 1.000000 0.000000
vn 0.000000 1.000000 0.000000
vn 0.844181 0.535977 -0.009356
vn 0.761916 0.647657 -0.004958
vn 0.726532 0.687125 -0.003248
vn 0.844181 0.535977 -0.009356
vn 1.000000 0.000000 0.000000
vn 1.000000 0.000000 0.000000
vn 1.000000 0.000000 0.000000
vn 1.000000 0.000000 0.000000
vn 0.693691 -0.720257 -0.004758
vn 0.693864 -0.720091 -0.004761
vn 0.816913 -0.576718 -0.007092
vn 0.816913 -0.576718 -0.007092
vn 0.000000 -1.000000 -0.000000
vn 0.000000 -1.000000 -0.000000
vn 0.000000 -1.000000 0.000000
vn 0.000000 -1.000000 0.000000
vn -0.822652 -0.568495 -0.007557
vn -0.822675 -0.568511 0.000017
vn -0.822675 -0.568511 0.000000
vn -0.822652 -0.568495 -0.007557
vn -1.000000 0.000000 0.000000
vn -1.000000 0.000000 0.000000
vn -1.000000 0.000000 0.000000
vn -1.000000 0.000000 0.000000
vn -0.569266 0.822146 -0.003375
vn -0.588198 0.808717 0.000191
vn -0.523503 0.851943 -0.011755
vn -0.523503 0.851943 -0.011755
vn 0.000000 1.000000 -0.000000
vn 0.000000 1.000000 0.000000
vn 0.000000 1.000000 0.000000
vn 0.000000 1.000000 -0.000000
vn 0.761916 0.647657 -0.004958
vn 0.628332 0.777941 0.002526
vn 0.622250 0.782813 0.002924
vn 0.726532 0.687125 -0.003248
vn 1.000000 0.000000 0.000000
vn 1.000000 0.000000 0.000000
vn 1.000000 0.000000 0.000000
vn 1.000000 0.000000 0.000000
vn 0.577561 -0.816345 0.002096
vn 0.580584 -0.814198 0.001760
vn 0.693864 -0.720091 -0.004761
vn 0.693691 -0.720257 -0.004758
vn 0.000000 -1.000000 0.000000
vn 0.000000 -1.000000 0.000000
vn 0.000000 -1.000000 -0.000000
vn 0.000000 -1.000000 -0.000000
vn -0.822675 -0.568511 0.000017
vn -0.784574 -0.620029 0.002809
vn -0.784395 -0.620256 0.002801
vn -0.822675 -0.568511 0.000000
vn -1.000000 0.000000 0.000000
vn -1.000000 0.000000 0.000000
vn -1.000000 0.000000 0.000000
vn -1.000000 0.000000 0.000000
vn -0.656403 0.754398 0.004181
vn -0.712436 0.701726 0.004043
vn -0.588198 0.808717 0.000191
vn -0.569266 0.822146 -0.003375
s off
f 1/1/1 2/2/2 16/26/3 13/21/4
f 3/3/5 4/4/6 6/6/7 5/5/8
f 14/23/9 15/24/10 8/8/11 7/7/12
f 7/7/13 8/8/14 2/10/15 1/9/16
f 2/2/17 8/11/18 15/25/19 16/26/20
f 7/13/21 1/1/22 13/21/23 14/22/24
f 10/16/25 9/15/26 3/3/27 5/14/28
f 5/5/29 6/6/30 11/18/31 10/17/32
f 12/20/33 11/19/34 6/12/35 4/4/36
f 9/15/37 12/20/38 4/4/39 3/3/40
f 14/27/41 13/28/42 9/29/43 10/30/44
f 10/30/45 11/31/46 15/32/47 14/27/48
f 16/33/49 15/32/50 11/31/51 12/34/52
f 13/28/53 16/33/54 12/34/55 9/29/56
f 17/35/57 19/36/58 31/37/59 30/38/60
f 19/36/61 21/39/62 32/40/63 31/37/64
f 23/41/65 17/42/66 30/43/67 29/44/68
f 18/45/69 20/46/70 22/47/71 24/48/72
f 23/49/73 21/50/74 19/36/75 17/35/76
f 25/51/77 26/52/78 18/53/79 24/54/80
f 27/55/81 20/46/82 18/45/83 26/56/84
f 28/57/85 22/58/86 20/46/87 27/55/88
f 29/44/89 30/43/90 26/52/91 25/51/92
f 31/37/93 27/55/94 26/56/95 30/38/96
f 32/40/97 28/57/98 27/55/99 31/37/100
f 33/59/101 35/60/102 47/61/103 46/62/104
f 35/60/105 37/63/106 48/64/107 47/61/108
f 39/65/109 33/66/110 46/67/111 45/68/112
f 34/69/113 36/70/114 38/71/115 40/72/116
f 39/73/117 37/74/118 35/60/119 33/59/120
f 41/75/121 42/76/122 34/77/123 40/78/124
f 43/79/125 36/70/126 34/69/127 42/80/128
f 44/81/129 38/82/130 36/70/131 43/79/132
f 45/68/133 46/67/134 42/76/135 41/75/136
f 47/61/137 43/79/138 42/80/139 46/62/140
f 48/64/141 44/81/142 43/79/143 47/61/144
f 49/83/145 62/84/146 63/85/147 51/86/148
f 51/86/149 63/85/150 64/87/151 53/88/152
f 55/89/153 61/90/154 62/91/155 49/92/156
f 50/93/157 56/94/158 54/95/159 52/96/160
f 55/97/161 49/83/162 51/86/163 53/98/164
f 57/99/165 56/100/166 50/101/167 58/102/168
f 59/103/169 58/104/170 50/93/171 52/96/172
f 60/105/173 59/103/174 52/96/175 54/106/176
f 61/90/177 57/99/178 58/102/179 62/91/180
f 63/85/181 62/84/182 58/104/183 59/103/184
f 64/87/185 63/85/186 59/103/187 60/105/188
f 65/107/189 78/108/190 79/109/191 67/110/192
f 67/110/193 79/109/194 80/111/195 69/112/196
f 71/113/197 77/114/198 78/115/199 65/116/200
f 66/117/201 72/118/202 70/119/203 68/120/204
f 71/121/205 65/107/206 67/110/207 69/122/208
f 73/123/209 72/124/210 66/125/211 74/126/212
f 75/127/213 74/128/214 66/117/215 68/120/216
f 76/129/217 75/127/218 68/120/219 70/130/220
f 77/114/221 73/123/222 74/126/223 78/115/224
f 79/109/225 78/108/226 74/128/227 75/127/228
f 80/111/229 79/109/230 75/127/231 76/129/232
f 81/131/233 111/132/234 112/133/235 83/134/236
f 89/135/237 105/136/238 106/137/239 92/138/240
f 85/139/241 107/140/242 108/141/243 87/142/244
f 93/143/245 109/144/246 110/145/247 96/146/248
f 82/147/249 88/148/250 86/149/251 84/150/252
f 87/151/253 81/131/254 83/134/255 85/152/256
f 83/134/257 112/133/258 105/136/259 89/135/260
f 84/150/261 86/153/262 91/154/263 90/155/264
f 107/140/265 85/139/266 92/138/267 106/137/268
f 85/139/269 83/134/270 89/135/271 92/138/272
f 87/142/273 108/141/274 109/144/275 93/143/276
f 88/156/277 82/157/278 95/158/279 94/159/280
f 111/160/281 81/161/282 96/146/283 110/145/284
f 81/161/285 87/142/286 93/143/287 96/146/288
f 97/162/289 90/155/290 91/154/291 98/163/292
f 86/153/293 99/164/294 98/163/295 91/154/296
f 100/165/297 99/164/298 86/153/299 88/156/300
f 101/166/301 100/165/302 88/156/303 94/159/304
f 102/167/305 101/166/306 94/159/307 95/158/308
f 82/157/309 103/168/310 102/167/311 95/158/312
f 104/169/313 103/170/314 82/147/315 84/150/316
f 97/162/317 104/169/318 84/150/319 90/155/320
f 105/136/321 97/162/322 98/163/323 106/137/324
f 99/164/325 107/140/326 106/137/327 98/163/328
f 108/141/329 107/140/330 99/164/331 100/165/332
f 109/144/333 108/141/334 100/165/335 101/166/336
f 110/145/337 109/144/338 101/166/339 102/167/340
f 103/168/341 111/160/342 110/145/343 102/167/344
f 112/133/345 111/132/346 103/170/347 104/169/348
f 105/136/349 112/133/350 104/169/351 97/162/352
