# This file uses meters as units for non-parametric coordinates.

v -26.767862 4.473019 95.257759
v 26.767862 4.473019 95.257759
v -26.767862 4.473019 -95.257568
v 26.767862 4.473019 -95.257568
v -8.901596 86.529045 95.257759
v 8.901596 86.529045 95.257759
v 8.901596 86.529045 -95.257568
v -8.901596 86.529045 -95.257568
v -14.086580 28.494051 95.257759
v -12.784863 34.096684 95.257759
v 14.086580 28.494051 95.257759
v 12.784863 34.096684 95.257759
v -14.086580 28.494051 -95.257568
v -12.784863 34.096684 -95.257568
v 14.086580 28.494051 -95.257568
v 12.784863 34.096684 -95.257568
v -25.255310 0.000000 -95.257568
v 25.255310 0.000000 -95.257568
v 25.255310 0.000000 95.257759
v -25.255310 0.000000 95.257759
v -7.576275 90.290756 95.257759
v 7.576275 90.290756 95.257759
v 7.576275 90.290756 -95.257568
v -7.576275 90.290756 -95.257568
v -10.287428 27.279621 99.495895
v -10.867453 34.096684 99.495895
v 11.974001 28.494051 99.495895
v 10.867453 34.096684 99.495895
v -22.753477 4.473019 99.495895
v 22.753477 4.473019 99.495895
v 7.566643 86.529037 99.495895
v -7.566643 86.529037 99.495895
v -21.467812 0.000000 99.495895
v 21.467812 0.000000 99.495895
v 6.440020 88.691986 99.495895
v -6.440020 88.691986 99.495895
v -10.867453 34.096684 -99.495987
v -11.974001 28.494051 -99.495987
v 10.867453 34.096684 -99.495987
v 10.211802 26.538467 -99.495987
v 22.753477 4.473019 -99.495987
v -22.753477 4.473019 -99.495987
v -7.566643 86.529037 -99.495987
v 7.566643 86.529037 -99.495987
v 21.467812 0.000000 -99.495987
v -21.467812 0.000000 -99.495987
v -6.440020 88.691986 -99.495987
v 6.440020 88.691986 -99.495987
v 9.801054 74.384560 95.257759
v 8.331203 74.384552 99.495895
v -8.331203 74.384552 99.495895
v -9.801054 74.384560 95.257759
v -9.801054 74.384560 -95.257568
v -8.331203 74.384552 -99.495987
v 8.331203 74.384552 -99.495987
v 9.801054 74.384560 -95.257568
v 7.576275 90.290756 23.524183
v -7.576275 90.290756 -44.319828
v -8.901596 84.113495 -45.530231
v -9.801054 74.384560 23.524183
v -12.784863 34.096684 23.524183
v -14.086580 25.527851 26.391405
v -26.767862 4.473019 23.524183
v -25.255310 0.000000 23.524183
v 25.255310 0.000000 23.524183
v 26.767862 4.473019 23.524183
v 14.086580 25.788507 26.582426
v 12.784863 34.096684 23.524183
v 9.801054 74.384560 23.524183
v 8.901596 83.137772 26.982492
vt 0.994288 0.303407
vt 0.994288 0.303407
vt 0.994288 0.303407
vt 0.994288 0.303407
vt 0.994288 0.303407
vt 0.994288 0.303407
vt 0.994288 0.303407
vt 0.994288 0.303407
vt 0.994288 0.303407
vt 0.994288 0.303407
vt 0.994288 0.303407
vt 0.994288 0.303407
vt 0.994288 0.303407
vt 0.047686 0.210233
vt 0.994288 0.303407
vt 0.047686 0.210233
vt 0.994288 0.303407
vt 0.994288 0.303407
vt 0.994288 0.303407
vt 0.994288 0.303407
vt 0.994288 0.303407
vt 0.994288 0.303407
vt 0.047686 0.210233
vt 0.047686 0.210233
vt 0.994288 0.303407
vt 0.994288 0.303407
vt 0.994288 0.303407
vt 0.994288 0.303407
vt 0.994288 0.303407
vt 0.994288 0.303407
vt 0.994288 0.303407
vt 0.994288 0.303407
vt 0.994288 0.303407
vt 0.994288 0.303407
vt 0.994288 0.303407
vt 0.994288 0.303407
vt 0.994288 0.303407
vt 0.994288 0.303407
vt 0.047686 0.210233
vt 0.047686 0.210233
vt 0.994288 0.303407
vt 0.994288 0.303407
vt 0.994288 0.303407
vt 0.994288 0.303407
vt 0.994288 0.303407
vt 0.994288 0.303407
vt 0.047686 0.210233
vt 0.047686 0.210233
vt 0.994288 0.303407
vt 0.994288 0.303407
vt 0.994288 0.303407
vt 0.994288 0.303407
vt 0.994288 0.303407
vt 0.994288 0.303407
vt 0.994288 0.303407
vt 0.994288 0.303407
vt 0.994288 0.303407
vt 0.994288 0.303407
vt 0.994288 0.303407
vt 0.994288 0.303407
vt 0.994288 0.303407
vt 0.994288 0.303407
vt 0.994288 0.303407
vt 0.994288 0.303407
vt 0.047686 0.210233
vt 0.047686 0.210233
vt 0.047686 0.210233
vt 0.047686 0.210233
vt 0.047686 0.210233
vt 0.047686 0.210233
vt 0.047686 0.210233
vt 0.047686 0.210233
vt 0.047686 0.210233
vt 0.047686 0.210233
vt 0.047686 0.210233
vt 0.047686 0.210233
vt 0.047686 0.210233
vt 0.047686 0.210233
vt 0.047686 0.210233
vt 0.047686 0.210233
vt 0.047686 0.210233
vt 0.047686 0.210233
vt 0.047686 0.210233
vt 0.994288 0.303407
vt 0.047686 0.210233
vt 0.994288 0.303407
vt 0.994288 0.303407
vt 0.994288 0.303407
vt 0.994288 0.303407
vt 0.994288 0.303407
vt 0.994288 0.303407
vt 0.994288 0.303407
vt 0.994288 0.303407
vt 0.994288 0.303407
vt 0.047686 0.210233
vt 0.047686 0.210233
vt 0.994288 0.303407
vt 0.994288 0.303407
vt 0.994288 0.303407
vt 0.994288 0.303407
vt 0.994288 0.303407
vt 0.994288 0.303407
vt 0.994288 0.303407
vt 0.994288 0.303407
vt 0.994288 0.303407
vt 0.994288 0.303407
vt 0.994288 0.303407
vt 0.994288 0.303407
vt 0.994288 0.303407
vt 0.994288 0.303407
vt 0.994288 0.303407
vt 0.994288 0.303407
vt 0.994288 0.303407
vt 0.994288 0.303407
vt 0.994288 0.303407
vt 0.994288 0.303407
vt 0.994288 0.303407
vt 0.994288 0.303407
vt 0.994288 0.303407
vt 0.994288 0.303407
vt 0.994288 0.303407
vt 0.994288 0.303407
vt 0.994288 0.303407
vt 0.994288 0.303407
vt 0.994288 0.303407
vt 0.994288 0.303407
vt 0.994288 0.303407
vt 0.994288 0.303407
vt 0.994288 0.303407
vt 0.994288 0.303407
vt 0.994288 0.303407
vt 0.994288 0.303407
vt 0.994288 0.303407
vt 0.994288 0.303407
vt 0.994288 0.303407
vt 0.994288 0.303407
vt 0.994288 0.303407
vt 0.994288 0.303407
vt 0.994288 0.303407
vt 0.994288 0.303407
vt 0.994288 0.303407
vt 0.994288 0.303407
vt 0.994288 0.303407
vt 0.994288 0.303407
vt 0.994288 0.303407
vt 0.994288 0.303407
vn 0.000000 1.000000 0.000000
vn 0.000000 1.000000 0.000000
vn 0.000000 1.000000 0.000000
vn 0.000000 1.000000 0.000000
vn 0.000000 -1.000000 0.000000
vn 0.000000 -1.000000 0.000000
vn 0.000000 -1.000000 0.000000
vn 0.000000 -1.000000 0.000000
vn -0.983670 0.179942 -0.003796
vn -0.983670 0.179942 -0.003796
vn -0.983521 0.180792 0.000544
vn -0.983562 0.180569 -0.000599
vn -0.000000 0.000000 1.000000
vn -0.000000 0.000000 1.000000
vn -0.000000 0.000000 1.000000
vn -0.000000 0.000000 1.000000
vn 0.983068 0.183207 -0.003530
vn 0.983068 0.183207 -0.003530
vn 0.982958 0.183828 -0.000612
vn 0.982912 0.184074 0.000548
vn 0.000000 0.000000 -1.000000
vn 0.000000 0.000000 -1.000000
vn 0.000000 0.000000 -1.000000
vn 0.000000 0.000000 -1.000000
vn 0.000000 0.000000 1.000000
vn 0.000000 0.000000 1.000000
vn 0.000000 0.000000 1.000000
vn 0.000000 0.000000 1.000000
vn 0.000000 0.000000 -1.000000
vn 0.000000 0.000000 -1.000000
vn 0.000000 0.000000 -1.000000
vn 0.000000 0.000000 -1.000000
vn 0.872409 0.488686 -0.009417
vn 0.872734 0.488197 0.000531
vn 0.872702 0.488254 -0.000577
vn 0.872409 0.488686 -0.009417
vn -0.871529 0.490343 0.000554
vn -0.871186 0.490844 -0.010355
vn -0.871186 0.490844 -0.010355
vn -0.871498 0.490399 -0.000605
vn 0.000000 0.000000 1.000000
vn 0.000000 0.000000 1.000000
vn 0.000000 0.000000 1.000000
vn 0.000000 0.000000 1.000000
vn 0.997269 0.073860 0.000000
vn 0.997269 0.073860 0.000000
vn 0.997075 0.076425 0.000074
vn 0.997083 0.076329 -0.000420
vn 0.000000 0.000000 -1.000000
vn 0.000000 0.000000 -1.000000
vn 0.000000 0.000000 -1.000000
vn 0.000000 0.000000 -1.000000
vn -0.997269 0.073860 0.000000
vn -0.997269 0.073860 0.000000
vn -0.997152 0.075414 -0.000265
vn -0.997171 0.075163 -0.000196
vn 0.000000 0.000000 -1.000000
vn 0.000000 0.000000 -1.000000
vn 0.000000 0.000000 -1.000000
vn 0.000000 0.000000 -1.000000
vn 0.947306 -0.320331 0.000000
vn 0.947306 -0.320331 0.000000
vn 0.947306 -0.320331 0.000000
vn 0.947306 -0.320331 0.000000
vn 0.000000 0.000000 1.000000
vn 0.000000 0.000000 1.000000
vn 0.000000 0.000000 1.000000
vn 0.000000 0.000000 1.000000
vn -0.947306 -0.320331 0.000000
vn -0.947306 -0.320331 0.000000
vn -0.947306 -0.320331 0.000000
vn -0.947306 -0.320331 0.000000
vn 0.000000 0.000000 1.000000
vn 0.000000 0.000000 1.000000
vn 0.000000 0.000000 1.000000
vn 0.000000 0.000000 1.000000
vn 0.972150 0.234289 -0.005675
vn 0.971847 0.235608 -0.001281
vn 0.971674 0.236322 0.001106
vn 0.972150 0.234289 -0.005675
vn 0.000000 0.000000 -1.000000
vn 0.000000 0.000000 -1.000000
vn 0.000000 0.000000 -1.000000
vn 0.000000 0.000000 -1.000000
vn -0.966241 0.257641 0.000390
vn -0.966159 0.257937 -0.002222
vn -0.966159 0.257937 -0.002222
vn -0.966218 0.257728 -0.000373
vn -0.824922 0.047935 0.563211
vn -0.824922 0.047935 0.563211
vn -0.824922 0.047935 0.563211
vn -0.824922 0.047935 0.563211
vn 0.886576 0.190545 0.421516
vn 0.886576 0.190545 0.421516
vn 0.886576 0.190545 0.421516
vn 0.886576 0.190545 0.421516
vn 0.753572 0.367997 0.544709
vn 0.753572 0.367997 0.544709
vn 0.753572 0.367997 0.544709
vn 0.753572 0.367997 0.544709
vn -0.661411 0.355190 0.660587
vn -0.661411 0.355190 0.660587
vn -0.661411 0.355190 0.660587
vn -0.661411 0.355190 0.660587
vn 0.926726 0.063488 0.370335
vn 0.931611 0.063823 0.357808
vn 0.931828 0.063838 0.357242
vn 0.926726 0.063488 0.370335
vn -0.931611 0.063823 0.357808
vn -0.926726 0.063488 0.370336
vn -0.926726 0.063488 0.370336
vn -0.931828 0.063838 0.357242
vn -0.717027 -0.224278 0.659979
vn -0.717027 -0.224278 0.659979
vn -0.717027 -0.224278 0.659979
vn -0.717027 -0.224278 0.659979
vn 0.000000 -1.000000 0.000000
vn 0.000000 -1.000000 0.000000
vn 0.000000 -1.000000 0.000000
vn 0.000000 -1.000000 0.000000
vn 0.717027 -0.224278 0.659979
vn 0.717027 -0.224278 0.659979
vn 0.717027 -0.224278 0.659979
vn 0.717027 -0.224278 0.659979
vn 0.874411 0.361879 0.323186
vn 0.874411 0.361879 0.323186
vn 0.874411 0.361879 0.323186
vn 0.874411 0.361879 0.323186
vn 0.000000 0.935640 0.352955
vn 0.000000 0.935640 0.352955
vn 0.000000 0.935640 0.352955
vn 0.000000 0.935640 0.352955
vn -0.874411 0.361878 0.323186
vn -0.874411 0.361878 0.323186
vn -0.874411 0.361878 0.323186
vn -0.874411 0.361878 0.323186
vn -0.886586 0.190548 -0.421494
vn -0.886586 0.190548 -0.421494
vn -0.886586 0.190548 -0.421494
vn -0.886586 0.190548 -0.421494
vn 0.820635 0.040285 -0.570031
vn 0.820635 0.040285 -0.570031
vn 0.820635 0.040285 -0.570031
vn 0.820635 0.040285 -0.570031
vn 0.643271 0.352060 -0.679894
vn 0.643271 0.352060 -0.679894
vn 0.643271 0.352060 -0.679894
vn 0.643271 0.352060 -0.679894
vn -0.753587 0.368005 -0.544684
vn -0.753587 0.368005 -0.544684
vn -0.753587 0.368004 -0.544684
vn -0.753586 0.368005 -0.544684
vn -0.926735 0.063488 -0.370314
vn -0.931620 0.063823 -0.357787
vn -0.931836 0.063838 -0.357221
vn -0.926735 0.063488 -0.370314
vn 0.931620 0.063823 -0.357787
vn 0.926735 0.063488 -0.370314
vn 0.926735 0.063488 -0.370314
vn 0.931836 0.063838 -0.357221
vn 0.717048 -0.224284 -0.659954
vn 0.717048 -0.224284 -0.659954
vn 0.717048 -0.224284 -0.659954
vn 0.717048 -0.224284 -0.659954
vn 0.000000 -1.000000 0.000000
vn 0.000000 -1.000000 0.000000
vn 0.000000 -1.000000 0.000000
vn 0.000000 -1.000000 0.000000
vn -0.717048 -0.224284 -0.659954
vn -0.717048 -0.224284 -0.659954
vn -0.717048 -0.224284 -0.659954
vn -0.717048 -0.224284 -0.659954
vn -0.874417 0.361881 -0.323167
vn -0.874417 0.361881 -0.323167
vn -0.874417 0.361881 -0.323167
vn -0.874417 0.361881 -0.323167
vn 0.000000 0.935648 -0.352935
vn 0.000000 0.935648 -0.352935
vn 0.000000 0.935648 -0.352935
vn 0.000000 0.935648 -0.352935
vn 0.874418 0.361880 -0.323167
vn 0.874418 0.361880 -0.323167
vn 0.874417 0.361880 -0.323167
vn 0.874417 0.361880 -0.323167
vn 0.931611 0.063823 0.357808
vn 0.947372 0.064904 0.313486
vn 0.947372 0.064904 0.313486
vn 0.931828 0.063838 0.357242
vn 0.000000 0.000000 1.000000
vn 0.000000 0.000000 1.000000
vn 0.000000 0.000000 1.000000
vn 0.000000 0.000000 1.000000
vn -0.947372 0.064904 0.313486
vn -0.931611 0.063823 0.357808
vn -0.931828 0.063838 0.357242
vn -0.947372 0.064904 0.313486
vn -0.997171 0.075163 -0.000196
vn -0.997152 0.075414 -0.000265
vn -0.996863 0.079144 -0.000900
vn -0.996348 0.085382 0.001090
vn -0.931836 0.063838 -0.357221
vn -0.931620 0.063823 -0.357787
vn -0.947378 0.064904 -0.313467
vn -0.947378 0.064904 -0.313467
vn 0.000000 0.000000 -1.000000
vn 0.000000 0.000000 -1.000000
vn 0.000000 0.000000 -1.000000
vn 0.000000 0.000000 -1.000000
vn 0.947378 0.064904 -0.313467
vn 0.931620 0.063823 -0.357787
vn 0.931836 0.063838 -0.357221
vn 0.947378 0.064904 -0.313467
vn 0.997083 0.076329 -0.000420
vn 0.997075 0.076425 0.000074
vn 0.996310 0.085829 -0.000391
vn 0.996284 0.086107 -0.002086
vn 0.000000 1.000000 0.000000
vn 0.000000 1.000000 0.000000
vn 0.000000 1.000000 0.000000
vn 0.000000 1.000000 0.000000
vn -0.966397 0.256979 0.006166
vn -0.966241 0.257641 0.000390
vn -0.966218 0.257728 -0.000373
vn -0.966397 0.256979 0.006166
vn -0.997129 0.075720 0.000191
vn -0.997171 0.075163 -0.000196
vn -0.996348 0.085382 0.001090
vn -0.996310 0.085823 0.001230
vn -0.997269 0.073860 0.000000
vn -0.997269 0.073860 0.000000
vn -0.997171 0.075163 -0.000196
vn -0.997129 0.075720 0.000191
vn -0.983562 0.180569 -0.000599
vn -0.983521 0.180792 0.000544
vn -0.983458 0.181123 0.002235
vn -0.983458 0.181123 0.002235
vn -0.871663 0.490069 0.006046
vn -0.871529 0.490343 0.000554
vn -0.871498 0.490399 -0.000605
vn -0.871663 0.490069 0.006046
vn -0.947306 -0.320331 0.000000
vn -0.947306 -0.320331 0.000000
vn -0.947306 -0.320332 0.000000
vn -0.947306 -0.320332 0.000000
vn 0.000000 -1.000000 0.000000
vn 0.000000 -1.000000 0.000000
vn 0.000000 -1.000000 0.000000
vn 0.000000 -1.000000 0.000000
vn 0.947306 -0.320332 0.000000
vn 0.947306 -0.320331 0.000000
vn 0.947306 -0.320331 0.000000
vn 0.947306 -0.320332 0.000000
vn 0.872702 0.488254 -0.000577
vn 0.872734 0.488197 0.000531
vn 0.872863 0.487935 0.005486
vn 0.872863 0.487935 0.005486
vn 0.982912 0.184074 0.000548
vn 0.982958 0.183828 -0.000612
vn 0.982850 0.184398 0.002073
vn 0.982849 0.184398 0.002073
vn 0.997075 0.076425 0.000074
vn 0.997269 0.073860 0.000000
vn 0.997269 0.073860 0.000000
vn 0.997084 0.076306 0.000251
vn 0.996310 0.085829 -0.000391
vn 0.997075 0.076425 0.000074
vn 0.997084 0.076306 0.000251
vn 0.996332 0.085567 0.001204
vn 0.971674 0.236322 0.001106
vn 0.971847 0.235608 -0.001281
vn 0.971507 0.236988 0.003334
vn 0.971507 0.236988 0.003334
s off
f 21/14/1 22/16/2 57/81/3 58/82/4
f 64/89/5 65/90/6 19/19/7 20/20/8
f 9/2/9 10/15/10 61/86/11 62/87/12
f 26/25/13 25/26/14 27/27/15 28/28/16
f 12/9/17 11/6/18 67/92/19 68/93/20
f 38/29/21 37/30/22 39/31/23 40/32/24
f 29/34/25 30/33/26 27/27/27 25/26/28
f 38/29/29 40/32/30 41/35/31 42/36/32
f 2/1/33 66/91/34 67/92/35 11/6/36
f 63/88/37 1/7/38 9/2/39 62/87/40
f 26/25/41 28/28/42 50/51/43 51/53/44
f 12/9/45 68/93/46 69/94/47 49/50/48
f 39/31/49 37/30/50 54/59/51 55/62/52
f 61/86/53 10/15/54 52/56/55 60/84/56
f 42/36/57 41/35/58 45/41/59 46/42/60
f 66/91/61 2/1/62 19/19/63 65/90/64
f 30/33/65 29/34/66 33/43/67 34/44/68
f 1/7/69 63/88/70 64/89/71 20/20/72
f 32/39/73 31/40/74 35/47/75 36/48/76
f 6/65/77 70/96/78 57/81/79 22/16/80
f 44/67/81 43/68/82 47/69/83 48/70/84
f 59/83/85 5/72/86 21/14/87 58/82/88
f 10/15/89 9/2/90 25/26/91 26/25/92
f 11/6/93 12/9/94 28/28/95 27/27/96
f 2/8/97 11/13/98 27/97/99 30/98/100
f 9/11/101 1/3/102 29/99/103 25/100/104
f 12/101/105 49/49/106 50/52/107 28/102/108
f 52/55/109 10/103/110 26/104/111 51/54/112
f 1/3/113 20/5/114 33/105/115 29/106/116
f 20/4/117 19/107/118 34/108/119 33/109/120
f 19/110/121 2/12/122 30/37/123 34/111/124
f 6/65/125 22/16/126 35/47/127 31/40/128
f 22/16/129 21/14/130 36/48/131 35/47/132
f 21/14/133 5/72/134 32/39/135 36/48/136
f 13/112/137 14/18/138 37/113/139 38/114/140
f 16/115/141 15/17/142 40/116/143 39/117/144
f 15/17/145 4/118/146 41/119/147 40/120/148
f 3/121/149 13/122/150 38/123/151 42/124/152
f 14/125/153 53/57/154 54/60/155 37/126/156
f 56/64/157 16/127/158 39/128/159 55/61/160
f 4/129/161 18/22/162 45/45/163 41/130/164
f 18/22/165 17/21/166 46/46/167 45/45/168
f 17/21/169 3/10/170 42/38/171 46/46/172
f 8/71/173 24/24/174 47/69/175 43/68/176
f 24/24/177 23/23/178 48/70/179 47/69/180
f 23/23/181 7/66/182 44/67/183 48/70/184
f 49/73/185 6/65/186 31/40/187 50/74/188
f 51/75/189 50/74/190 31/40/191 32/39/192
f 5/72/193 52/76/194 51/75/195 32/39/196
f 60/85/197 52/76/198 5/72/199 59/83/200
f 54/78/201 53/77/202 8/71/203 43/68/204
f 55/79/205 54/78/206 43/68/207 44/67/208
f 7/66/209 56/80/210 55/79/211 44/67/212
f 49/73/213 69/95/214 70/96/215 6/65/216
f 58/82/217 57/81/218 23/23/219 24/24/220
f 8/71/221 59/83/222 58/82/223 24/24/224
f 53/77/225 60/85/226 59/83/227 8/71/228
f 14/131/229 61/86/230 60/84/231 53/58/232
f 62/87/233 61/86/234 14/132/235 13/133/236
f 3/134/237 63/88/238 62/87/239 13/135/240
f 64/89/241 63/88/242 3/136/243 17/137/244
f 17/138/245 18/139/246 65/90/247 64/89/248
f 4/140/249 66/91/250 65/90/251 18/141/252
f 67/92/253 66/91/254 4/142/255 15/143/256
f 68/93/257 67/92/258 15/144/259 16/145/260
f 69/94/261 68/93/262 16/146/263 56/63/264
f 70/96/265 69/95/266 56/80/267 7/66/268
f 57/81/269 70/96/270 7/66/271 23/23/272
