# This file uses meters as units for non-parametric coordinates.

v 22.656250 -4.195216 -21.798706
v 22.656250 -12.585643 -21.798706
v 22.656250 -16.780859 -14.533234
v 22.656250 -12.585643 -7.267761
v 22.656250 -4.195216 -7.267761
v 22.656250 0.000000 -14.533234
v 22.656250 -16.780859 0.000000
v 22.656250 -12.585643 7.265472
v 22.656250 -4.195216 7.265472
v 22.656250 0.000000 0.000000
v 22.656250 -16.780859 14.530945
v 22.656250 -12.585646 21.797180
v 22.656250 -4.195216 21.797180
v 22.656250 0.000000 14.530945
v 78.195953 -4.195216 -67.488091
v 78.195953 -12.585643 -67.488091
v 85.469055 -16.780859 -67.489624
v 92.734528 -12.585643 -67.489624
v 92.734528 -4.195216 -67.489624
v 85.469055 0.000000 -67.489624
v 100.000763 -16.780859 -67.489624
v 107.264709 -12.585643 -67.489624
v 107.264709 -4.195216 -67.489624
v 100.000763 0.000000 -67.489624
v 114.531708 -16.780859 -67.489624
v 121.795654 -12.585646 -67.489624
v 121.794128 -4.195216 -67.488091
v 114.531708 0.000000 -67.489624
v 78.195953 -4.195216 -99.999245
v 78.195953 -12.585643 -99.999245
v 85.469055 -16.780859 -100.000763
v 92.734528 -12.585643 -100.000763
v 92.734528 -4.195216 -100.000763
v 85.469055 0.000000 -100.000763
v 100.000763 -16.780859 -100.000763
v 107.264709 -12.585643 -100.000763
v 107.264709 -4.195216 -100.000763
v 100.000763 0.000000 -100.000763
v 114.531708 -16.780859 -100.000763
v 121.795654 -12.585646 -100.000763
v 121.794128 -4.195216 -99.999245
v 114.531708 0.000000 -100.000763
v 0.000000 -12.585643 -7.267761
v 0.000000 -4.195216 -7.267761
v 0.000000 0.000000 -14.533234
v 0.000000 -4.195216 -21.798706
v 0.000000 -12.585643 -21.798706
v 0.000000 -16.780859 -14.533234
v 0.000000 -16.780859 0.000000
v 0.000000 -12.585643 7.265472
v 0.000000 -4.195216 7.265472
v 0.000000 0.000000 0.000000
v 0.000000 -12.585646 21.797180
v 0.000000 -4.195216 21.797180
v 0.000000 0.000000 14.530945
v 0.000000 -16.780859 14.530945
v 59.125519 -12.585643 -2.911377
v 56.042480 -16.780859 -8.900452
v 52.959442 -12.585643 -14.889526
v 49.876404 -16.780859 -20.880127
v 46.794128 -12.585643 -26.867676
v 46.794128 -4.195216 -26.867676
v 49.876404 0.000000 -20.880127
v 52.959442 -4.195216 -14.889526
v 56.042480 0.000000 -8.900452
v 59.125519 -4.195216 -2.911377
v 62.206268 0.000000 3.077698
v 65.290833 -4.195216 9.066772
v 65.290833 -12.585646 9.066772
v 62.206268 -16.780859 3.077698
v 92.546082 -12.585643 -33.284760
v 86.557007 -16.780859 -36.366272
v 80.567932 -12.585643 -39.448547
v 74.578857 -16.780859 -42.533112
v 68.585968 -12.585643 -45.614624
v 68.585968 -4.195216 -45.614624
v 74.578857 0.000000 -42.533112
v 80.567932 -4.195216 -39.448547
v 86.557007 0.000000 -36.366272
v 92.546082 -4.195216 -33.284760
v 98.532867 0.000000 -30.200195
v 104.520416 -4.195216 -27.117920
v 104.521942 -12.585646 -27.119446
v 98.532867 -16.780859 -30.200195
vt 0.243552 0.305266
vt 0.243552 0.305266
vt 0.243552 0.305266
vt 0.243552 0.305266
vt 0.243552 0.305266
vt 0.243552 0.305266
vt 0.243552 0.305266
vt 0.243552 0.305266
vt 0.243552 0.305266
vt 0.243552 0.305266
vt 0.243552 0.305266
vt 0.243552 0.305266
vt 0.243552 0.305266
vt 0.243552 0.305266
vt 0.243552 0.305266
vt 0.243552 0.305266
vt 0.243552 0.305266
vt 0.243552 0.305266
vt 0.243552 0.305266
vt 0.243552 0.305266
vt 0.243552 0.305266
vt 0.243552 0.305266
vt 0.243552 0.305266
vt 0.243552 0.305266
vt 0.243552 0.305266
vt 0.243552 0.305266
vt 0.243552 0.305266
vt 0.243552 0.305266
vt 0.243552 0.305266
vt 0.243552 0.305266
vt 0.243552 0.305266
vt 0.243552 0.305266
vt 0.243552 0.305266
vt 0.243552 0.305266
vt 0.243552 0.305266
vt 0.243552 0.305266
vt 0.243552 0.305266
vt 0.243552 0.305266
vt 0.243552 0.305266
vt 0.243552 0.305266
vt 0.243552 0.305266
vt 0.243552 0.305266
vt 0.243552 0.305266
vt 0.243552 0.305266
vt 0.243552 0.305266
vt 0.243552 0.305266
vt 0.243552 0.305266
vt 0.243552 0.305266
vt 0.243552 0.305266
vt 0.243552 0.305266
vt 0.243552 0.305266
vt 0.243552 0.305266
vt 0.243552 0.305266
vt 0.243552 0.305266
vt 0.243552 0.305266
vt 0.243552 0.305266
vt 0.243552 0.305266
vt 0.243552 0.305266
vt 0.243552 0.305266
vt 0.243552 0.305266
vt 0.243552 0.305266
vt 0.243552 0.305266
vt 0.243552 0.305266
vt 0.243552 0.305266
vt 0.243552 0.305266
vt 0.243552 0.305266
vt 0.243552 0.305266
vt 0.243552 0.305266
vt 0.243552 0.305266
vt 0.243552 0.305266
vt 0.243552 0.305266
vt 0.243552 0.305266
vt 0.243552 0.305266
vt 0.243552 0.305266
vt 0.243552 0.305266
vt 0.243552 0.305266
vt 0.243552 0.305266
vt 0.243552 0.305266
vt 0.243552 0.305266
vt 0.243552 0.305266
vt 0.243552 0.305266
vt 0.243552 0.305266
vt 0.243552 0.305266
vt 0.243552 0.305266
vt 0.243552 0.305266
vt 0.243552 0.305266
vt 0.243552 0.305266
vt 0.243552 0.305266
vt 0.243552 0.305266
vt 0.243552 0.305266
vt 0.243552 0.305266
vt 0.243552 0.305266
vt 0.243552 0.305266
vt 0.243552 0.305266
vt 0.243552 0.305266
vt 0.243552 0.305266
vt 0.243552 0.305266
vt 0.243552 0.305266
vt 0.243552 0.305266
vt 0.243552 0.305266
vt 0.243552 0.305266
vt 0.243552 0.305266
vt 0.243552 0.305266
vt 0.243552 0.305266
vt 0.243552 0.305266
vt 0.243552 0.305266
vt 0.243552 0.305266
vt 0.243552 0.305266
vt 0.243552 0.305266
vt 0.243552 0.305266
vt 0.243552 0.305266
vt 0.243552 0.305266
vt 0.243552 0.305266
vt 0.243552 0.305266
vt 0.243552 0.305266
vt 0.243552 0.305266
vt 0.243552 0.305266
vt 0.243552 0.305266
vt 0.243552 0.305266
vt 0.243552 0.305266
vt 0.243552 0.305266
vt 0.243552 0.305266
vt 0.243552 0.305266
vt 0.243552 0.305266
vt 0.243552 0.305266
vt 0.243552 0.305266
vt 0.243552 0.305266
vt 0.243552 0.305266
vn -0.791159 0.000000 -0.611610
vn -0.460325 0.000000 -0.887751
vn -0.460325 0.000000 -0.887751
vn -0.791159 0.000000 -0.611610
vn -0.427225 -0.847935 -0.313823
vn -0.245993 -0.850791 -0.464372
vn -0.244945 -0.850862 -0.464797
vn -0.416176 -0.846838 -0.331153
vn 0.428702 -0.847812 0.312137
vn 0.251857 -0.850612 0.461549
vn 0.252648 -0.850557 0.461217
vn 0.418285 -0.846776 0.328645
vn 0.418285 0.846777 0.328645
vn 0.252648 0.850558 0.461217
vn 0.251857 0.850612 0.461549
vn 0.428702 0.847812 0.312137
vn -0.416176 0.846838 -0.331153
vn -0.244945 0.850862 -0.464797
vn -0.245993 0.850791 -0.464372
vn -0.427225 0.847935 -0.313823
vn -0.429896 -0.847730 -0.310713
vn -0.256596 -0.850374 -0.459373
vn -0.258756 -0.850222 -0.458440
vn -0.419936 -0.846719 -0.326682
vn 0.430866 -0.847656 0.309572
vn 0.260470 -0.850150 0.457602
vn 0.263709 -0.849922 0.456169
vn 0.421271 -0.846670 0.325086
vn 0.421270 0.846670 0.325086
vn 0.263709 0.849922 0.456169
vn 0.260470 0.850150 0.457602
vn 0.430866 0.847656 0.309572
vn -0.419936 0.846719 -0.326682
vn -0.258756 0.850223 -0.458440
vn -0.256596 0.850374 -0.459373
vn -0.429896 0.847730 -0.310713
vn -0.431603 -0.847621 -0.308638
vn -0.263659 -0.849957 -0.456134
vn -0.267794 -0.849663 -0.454268
vn -0.422353 -0.846655 -0.323719
vn 0.432285 -0.847578 0.307801
vn 0.266372 -0.849818 0.454813
vn 0.271148 -0.849477 0.452622
vn 0.423237 -0.846628 0.322631
vn 0.804561 0.000041 0.593870
vn 0.512929 -0.000003 0.858431
vn 0.512929 -0.000003 0.858431
vn 0.804600 0.000041 0.593817
vn 0.423261 0.846618 0.322627
vn 0.271146 0.849478 0.452622
vn 0.266370 0.849819 0.454813
vn 0.432292 0.847563 0.307831
vn -0.422353 0.846655 -0.323719
vn -0.267794 0.849663 -0.454267
vn -0.263659 0.849957 -0.456134
vn -0.431603 0.847621 -0.308638
vn -0.791159 0.000000 -0.611610
vn -0.791159 0.000000 -0.611610
vn -0.915536 0.000000 -0.402236
vn -0.915536 0.000000 -0.402236
vn -0.427225 -0.847935 -0.313823
vn -0.416176 -0.846838 -0.331153
vn -0.486480 -0.847340 -0.212960
vn -0.486480 -0.847340 -0.212960
vn 0.428702 -0.847812 0.312137
vn 0.418285 -0.846776 0.328645
vn 0.487041 -0.847286 0.211889
vn 0.487041 -0.847286 0.211889
vn 0.418285 0.846777 0.328645
vn 0.428702 0.847812 0.312137
vn 0.487041 0.847286 0.211889
vn 0.487041 0.847286 0.211889
vn -0.416176 0.846838 -0.331153
vn -0.427225 0.847935 -0.313823
vn -0.486480 0.847340 -0.212960
vn -0.486480 0.847340 -0.212960
vn -0.429896 -0.847730 -0.310713
vn -0.419936 -0.846719 -0.326682
vn -0.487318 -0.847363 -0.210944
vn -0.487318 -0.847363 -0.210944
vn 0.430866 -0.847656 0.309572
vn 0.421271 -0.846670 0.325086
vn 0.487601 -0.847385 0.210200
vn 0.487601 -0.847385 0.210200
vn 0.421270 0.846670 0.325086
vn 0.430866 0.847656 0.309572
vn 0.487601 0.847385 0.210200
vn 0.487601 0.847385 0.210200
vn -0.419936 0.846719 -0.326682
vn -0.429896 0.847730 -0.310713
vn -0.487318 0.847363 -0.210944
vn -0.487318 0.847363 -0.210944
vn -0.431603 -0.847621 -0.308638
vn -0.422353 -0.846655 -0.323719
vn -0.487730 -0.847471 -0.209553
vn -0.487730 -0.847471 -0.209553
vn 0.432285 -0.847578 0.307801
vn 0.423237 -0.846628 0.322631
vn 0.487937 -0.847475 0.209052
vn 0.487937 -0.847475 0.209052
vn 0.804561 0.000041 0.593870
vn 0.804600 0.000041 0.593817
vn 0.919374 0.000095 0.393385
vn 0.919374 0.000095 0.393384
vn 0.423261 0.846618 0.322627
vn 0.432292 0.847563 0.307831
vn 0.487980 0.847446 0.209070
vn 0.487980 0.847446 0.209070
vn -0.422353 0.846655 -0.323719
vn -0.431603 0.847621 -0.308638
vn -0.487730 0.847471 -0.209553
vn -0.487730 0.847471 -0.209553
vn -1.000000 0.000000 0.000000
vn -1.000000 0.000000 0.000000
vn -1.000000 0.000000 0.000000
vn -1.000000 0.000000 0.000000
vn -0.499651 -0.866227 0.000000
vn -0.499651 -0.866227 0.000000
vn -0.499651 -0.866227 0.000000
vn -0.499651 -0.866227 0.000000
vn 0.500044 -0.866000 0.000000
vn 0.500044 -0.866000 0.000000
vn 0.500044 -0.866000 0.000000
vn 0.500044 -0.866000 0.000000
vn 0.500044 0.866000 0.000000
vn 0.500044 0.866000 0.000000
vn 0.500044 0.866000 0.000000
vn 0.500044 0.866000 0.000000
vn -0.499651 0.866227 0.000000
vn -0.499651 0.866227 0.000000
vn -0.499651 0.866227 0.000000
vn -0.499651 0.866227 0.000000
vn -0.500005 -0.866023 0.000000
vn -0.500005 -0.866023 0.000000
vn -0.500005 -0.866023 0.000000
vn -0.500005 -0.866023 0.000000
vn 0.500123 -0.865954 0.000000
vn 0.500123 -0.865954 0.000000
vn 0.500123 -0.865954 0.000000
vn 0.500123 -0.865954 0.000000
vn 0.500123 0.865954 0.000000
vn 0.500123 0.865954 0.000000
vn 0.500123 0.865954 0.000000
vn 0.500123 0.865954 0.000000
vn -0.500005 0.866023 0.000000
vn -0.500005 0.866023 0.000000
vn -0.500005 0.866023 0.000000
vn -0.500005 0.866023 0.000000
vn -0.499965 -0.866045 0.000000
vn -0.499965 -0.866045 0.000000
vn -0.499965 -0.866045 0.000000
vn -0.499965 -0.866045 0.000000
vn 0.500123 -0.865955 0.000000
vn 0.500123 -0.865955 0.000000
vn 0.500123 -0.865955 0.000000
vn 0.500123 -0.865955 0.000000
vn 1.000000 0.000182 0.000000
vn 1.000000 0.000182 0.000000
vn 1.000000 0.000182 0.000000
vn 1.000000 0.000182 0.000000
vn 0.500201 0.865909 0.000000
vn 0.500201 0.865909 0.000000
vn 0.500201 0.865909 0.000000
vn 0.500201 0.865909 0.000000
vn -0.499965 0.866045 0.000000
vn -0.499965 0.866045 0.000000
vn -0.499965 0.866045 0.000000
vn -0.499965 0.866045 0.000000
vn 0.000000 0.866000 0.500044
vn 0.000000 0.866000 0.500044
vn 0.000000 0.866000 0.500044
vn 0.000000 0.866000 0.500044
vn 0.000000 0.866000 -0.500044
vn 0.000000 0.866000 -0.500044
vn 0.000000 0.866000 -0.500044
vn 0.000000 0.866000 -0.500044
vn 0.000000 0.000000 -1.000000
vn 0.000000 0.000000 -1.000000
vn 0.000000 0.000000 -1.000000
vn 0.000000 0.000000 -1.000000
vn 0.000000 -0.866000 -0.500044
vn 0.000000 -0.866000 -0.500044
vn 0.000000 -0.866000 -0.500044
vn 0.000000 -0.866000 -0.500044
vn 0.000000 -0.866000 0.500044
vn 0.000000 -0.866000 0.500044
vn 0.000000 -0.866000 0.500044
vn 0.000000 -0.866000 0.500044
vn 0.000000 -0.866000 0.500044
vn 0.000000 -0.866000 0.500044
vn 0.000000 -0.866000 0.500044
vn 0.000000 -0.866000 0.500044
vn 0.000000 0.866000 0.500044
vn 0.000000 0.866000 0.500044
vn 0.000000 0.866000 0.500044
vn 0.000000 0.866000 0.500044
vn 0.000000 0.866068 -0.499926
vn 0.000000 0.866068 -0.499926
vn 0.000000 0.866068 -0.499926
vn 0.000000 0.866068 -0.499926
vn 0.000000 -0.866068 -0.499926
vn 0.000000 -0.866068 -0.499926
vn 0.000000 -0.866068 -0.499926
vn 0.000000 -0.866068 -0.499926
vn 0.000000 0.000000 1.000000
vn 0.000000 0.000000 1.000000
vn 0.000000 0.000000 1.000000
vn 0.000000 0.000000 1.000000
vn 0.000000 0.866023 0.500005
vn 0.000000 0.866023 0.500005
vn 0.000000 0.866023 0.500005
vn 0.000000 0.866023 0.500005
vn 0.000000 0.866000 -0.500044
vn 0.000000 0.866000 -0.500044
vn 0.000000 0.866000 -0.500044
vn 0.000000 0.866000 -0.500044
vn 0.000000 -0.866000 -0.500044
vn 0.000000 -0.866000 -0.500044
vn 0.000000 -0.866000 -0.500044
vn 0.000000 -0.866000 -0.500044
vn 0.000000 -0.866023 0.500005
vn 0.000000 -0.866023 0.500005
vn 0.000000 -0.866023 0.500005
vn 0.000000 -0.866023 0.500005
vn 0.138337 -0.851040 0.506550
vn 0.138337 -0.851040 0.506550
vn 0.263709 -0.849922 0.456169
vn 0.260470 -0.850150 0.457602
vn -0.131802 -0.851173 -0.508067
vn -0.131802 -0.851173 -0.508067
vn -0.258756 -0.850222 -0.458440
vn -0.256596 -0.850374 -0.459373
vn 0.123841 -0.851225 0.509980
vn 0.123841 -0.851225 0.509980
vn 0.252648 -0.850557 0.461217
vn 0.251857 -0.850612 0.461549
vn -0.113893 -0.851170 -0.512384
vn -0.113893 -0.851170 -0.512384
vn -0.244945 -0.850862 -0.464797
vn -0.245993 -0.850791 -0.464372
vn -0.205518 0.000000 -0.978653
vn -0.205518 0.000000 -0.978653
vn -0.460325 0.000000 -0.887751
vn -0.460325 0.000000 -0.887751
vn -0.113893 0.851170 -0.512384
vn -0.113893 0.851170 -0.512384
vn -0.245993 0.850791 -0.464372
vn -0.244945 0.850862 -0.464797
vn 0.123841 0.851225 0.509980
vn 0.123841 0.851225 0.509980
vn 0.251857 0.850612 0.461549
vn 0.252648 0.850558 0.461217
vn -0.131802 0.851173 -0.508067
vn -0.131802 0.851173 -0.508067
vn -0.256596 0.850374 -0.459373
vn -0.258756 0.850223 -0.458440
vn 0.138337 0.851040 0.506550
vn 0.138337 0.851040 0.506550
vn 0.260470 0.850150 0.457602
vn 0.263709 0.849922 0.456169
vn -0.143758 0.850922 -0.505239
vn -0.143758 0.850921 -0.505239
vn -0.263659 0.849957 -0.456134
vn -0.267794 0.849663 -0.454267
vn 0.148323 0.850840 0.504055
vn 0.148323 0.850840 0.504055
vn 0.266370 0.849819 0.454813
vn 0.271146 0.849478 0.452622
vn 0.286111 0.000000 0.958196
vn 0.286111 0.000000 0.958196
vn 0.512929 -0.000003 0.858431
vn 0.512929 -0.000003 0.858431
vn 0.148323 -0.850840 0.504055
vn 0.148323 -0.850840 0.504055
vn 0.271148 -0.849477 0.452622
vn 0.266372 -0.849818 0.454813
vn -0.143758 -0.850921 -0.505239
vn -0.143758 -0.850921 -0.505239
vn -0.267794 -0.849663 -0.454268
vn -0.263659 -0.849957 -0.456134
s off
f 75/117/1 61/99/2 62/100/3 76/118/4
f 74/116/5 60/98/6 61/99/7 75/117/8
f 73/115/9 59/97/10 60/98/11 74/116/12
f 77/119/13 63/101/14 64/102/15 78/120/16
f 76/118/17 62/100/18 63/101/19 77/119/20
f 72/113/21 58/95/22 59/96/23 73/114/24
f 71/112/25 57/94/26 58/95/27 72/113/28
f 79/122/29 65/104/30 66/105/31 80/123/32
f 78/121/33 64/103/34 65/104/35 79/122/36
f 84/128/37 70/110/38 57/93/39 71/111/40
f 83/127/41 69/109/42 70/110/43 84/128/44
f 82/126/45 68/108/46 69/109/47 83/127/48
f 81/125/49 67/107/50 68/108/51 82/126/52
f 80/124/53 66/106/54 67/107/55 81/125/56
f 75/117/57 76/118/58 15/39/59 16/38/60
f 74/116/61 75/117/62 16/38/63 17/40/64
f 73/115/65 74/116/66 17/40/67 18/41/68
f 77/119/69 78/120/70 19/42/71 20/43/72
f 76/118/73 77/119/74 20/43/75 15/39/76
f 72/113/77 73/114/78 18/44/79 21/46/80
f 71/112/81 72/113/82 21/46/83 22/47/84
f 79/122/85 80/123/86 23/48/87 24/49/88
f 78/121/89 79/122/90 24/49/91 19/45/92
f 84/128/93 71/111/94 22/50/95 25/52/96
f 83/127/97 84/128/98 25/52/99 26/53/100
f 82/126/101 83/127/102 26/53/103 27/54/104
f 81/125/105 82/126/106 27/54/107 28/55/108
f 80/124/109 81/125/110 28/55/111 23/51/112
f 16/38/113 15/39/114 29/57/115 30/56/116
f 17/40/117 16/38/118 30/56/119 31/58/120
f 18/41/121 17/40/122 31/58/123 32/59/124
f 20/43/125 19/42/126 33/60/127 34/61/128
f 15/39/129 20/43/130 34/61/131 29/57/132
f 21/46/133 18/44/134 32/62/135 35/64/136
f 22/47/137 21/46/138 35/64/139 36/65/140
f 24/49/141 23/48/142 37/66/143 38/67/144
f 19/45/145 24/49/146 38/67/147 33/63/148
f 25/52/149 22/50/150 36/68/151 39/70/152
f 26/53/153 25/52/154 39/70/155 40/71/156
f 27/54/157 26/53/158 40/71/159 41/72/160
f 28/55/161 27/54/162 41/72/163 42/73/164
f 23/51/165 28/55/166 42/73/167 37/69/168
f 5/11/169 6/12/170 45/76/171 44/75/172
f 6/12/173 1/13/174 46/77/175 45/76/176
f 1/7/177 2/8/178 47/79/179 46/78/180
f 2/8/181 3/9/182 48/80/183 47/79/184
f 3/9/185 4/10/186 43/74/187 48/80/188
f 7/15/189 8/16/190 50/82/191 49/81/192
f 9/17/193 10/18/194 52/84/195 51/83/196
f 10/18/197 5/19/198 44/85/199 52/84/200
f 4/14/201 7/15/202 49/81/203 43/86/204
f 12/28/205 13/29/206 54/88/207 53/87/208
f 13/29/209 14/30/210 55/89/211 54/88/212
f 14/30/213 9/31/214 51/90/215 55/89/216
f 8/26/217 11/27/218 56/92/219 50/91/220
f 11/27/221 12/28/222 53/87/223 56/92/224
f 8/23/225 7/22/226 58/95/227 57/94/228
f 7/22/229 4/20/230 59/96/231 58/95/232
f 4/4/233 3/3/234 60/98/235 59/97/236
f 3/3/237 2/2/238 61/99/239 60/98/240
f 2/2/241 1/1/242 62/100/243 61/99/244
f 1/1/245 6/6/246 63/101/247 62/100/248
f 6/6/249 5/5/250 64/102/251 63/101/252
f 5/21/253 10/25/254 65/104/255 64/103/256
f 10/25/257 9/24/258 66/105/259 65/104/260
f 9/33/261 14/37/262 67/107/263 66/106/264
f 14/37/265 13/36/266 68/108/267 67/107/268
f 13/36/269 12/35/270 69/109/271 68/108/272
f 12/35/273 11/34/274 70/110/275 69/109/276
f 11/34/277 8/32/278 57/93/279 70/110/280
