# This file uses meters as units for non-parametric coordinates.

v -26.767801 4.473019 95.257759
v 26.767944 4.473019 95.257759
v -26.767801 4.473019 -95.257523
v 26.767944 4.473019 -95.257523
v -8.901525 86.529045 95.257759
v 8.901645 86.529045 95.257759
v 8.901645 86.529045 -95.257523
v -8.901525 86.529045 -95.257523
v -14.086533 28.494055 95.257759
v -12.784791 34.096691 95.257759
v 14.086652 28.494055 95.257759
v 12.784886 34.096691 95.257759
v -14.086533 28.494055 -95.257523
v -12.784791 34.096691 -95.257523
v 14.086652 28.494055 -95.257523
v 12.784886 34.096691 -95.257523
v -25.255226 0.000000 -95.257523
v 25.255371 0.000000 -95.257523
v 25.255371 0.000000 95.257759
v -25.255226 0.000000 95.257759
v -7.576227 90.290756 95.257759
v 7.576346 90.290756 95.257759
v 7.576346 90.290756 -95.257523
v -7.576227 90.290756 -95.257523
v -11.973929 28.494055 99.495895
v -10.867405 34.096691 99.495895
v 11.974049 28.494055 99.495895
v 10.867524 34.096691 99.495895
v -22.753407 4.473019 99.495895
v 22.753525 4.473019 99.495895
v 7.566690 86.529030 99.495895
v -7.566571 86.529030 99.495895
v -21.467710 0.000000 99.495895
v 21.467852 0.000000 99.495895
v 6.440067 88.691986 99.495895
v -6.439948 88.691986 99.495895
v -10.867405 34.096691 -99.495743
v -11.973929 28.494055 -99.495743
v 10.867524 34.096691 -99.495743
v 11.974049 28.494055 -99.495743
v 22.753525 4.473019 -99.495743
v -22.753407 4.473019 -99.495743
v -7.566571 86.529030 -99.495743
v 7.566690 86.529030 -99.495743
v 21.467852 0.000000 -99.495743
v -21.467710 0.000000 -99.495743
v -6.439948 88.691986 -99.495743
v 6.440067 88.691986 -99.495743
v 9.801102 74.384560 95.257759
v 8.331227 74.384560 99.495895
v -8.331132 74.384560 99.495895
v -9.801006 74.384560 95.257759
v -9.801006 74.384560 -95.257523
v -8.331132 74.384560 -99.495743
v 8.331227 74.384560 -99.495743
v 9.801102 74.384560 -95.257523
v 21.657372 14.153504 95.257759
v 14.787413 12.525501 100.199509
v -18.409298 14.153504 99.495895
v -21.657253 14.153504 95.257759
v -21.657253 14.153504 -95.257523
v -17.097713 11.713970 -100.304459
v 18.409370 14.153504 -99.495743
v 21.657372 14.153504 -95.257523
v -25.255226 0.000000 39.740562
v -26.767801 4.473019 39.740562
v -21.657253 14.153504 39.740562
v -14.086533 24.111551 39.740562
v -12.784791 34.096691 39.740562
v -9.801006 74.384560 39.740562
v -8.901525 86.529045 39.740562
v -7.576227 90.290756 39.740562
v 4.090452 90.290756 44.770050
v 8.901645 86.529045 39.740562
v 9.801102 78.373627 39.740562
v 12.784886 34.096691 39.740562
v 14.086652 28.494055 39.740562
v 21.657372 18.981529 39.740562
v 26.767944 4.473019 39.740562
v 25.255371 0.000000 39.740562
v 21.657372 14.153504 -41.920712
v 26.767944 4.473019 -41.920712
v 25.255371 0.000000 -41.920712
v -25.255226 0.000000 -41.920712
v -26.767801 4.473019 -41.920712
v -21.657253 18.981529 -41.920712
v -14.086533 28.494055 -41.920712
v -12.784791 34.096691 -41.920712
v -9.801006 78.373627 -41.920712
v -8.901525 86.529045 -41.920712
v -4.311776 90.290756 -43.849899
v 7.576346 90.290756 -41.920712
v 8.901645 86.529045 -41.920712
v 9.801102 74.384560 -41.920712
v 12.784886 34.096691 -41.920712
v 14.086652 24.582520 -41.957047
vt 0.994288 0.303407
vt 0.994288 0.303407
vt 0.994288 0.303407
vt 0.254844 0.301998
vt 0.994288 0.303407
vt 0.994288 0.303407
vt 0.994288 0.303407
vt 0.994288 0.303407
vt 0.994288 0.303407
vt 0.254844 0.301998
vt 0.994288 0.303407
vt 0.254844 0.301998
vt 0.994288 0.303407
vt 0.047686 0.210233
vt 0.994288 0.303407
vt 0.047686 0.210233
vt 0.994288 0.303407
vt 0.994288 0.303407
vt 0.254844 0.301998
vt 0.994288 0.303407
vt 0.254844 0.301998
vt 0.254844 0.301998
vt 0.047686 0.210233
vt 0.047686 0.210233
vt 0.994288 0.303407
vt 0.994288 0.303407
vt 0.994288 0.303407
vt 0.994288 0.303407
vt 0.994288 0.303407
vt 0.994288 0.303407
vt 0.994288 0.303407
vt 0.994288 0.303407
vt 0.994288 0.303407
vt 0.994288 0.303407
vt 0.994288 0.303407
vt 0.254844 0.301998
vt 0.254844 0.301998
vt 0.254844 0.301998
vt 0.047686 0.210233
vt 0.047686 0.210233
vt 0.994288 0.303407
vt 0.994288 0.303407
vt 0.994288 0.303407
vt 0.254844 0.301998
vt 0.254844 0.301998
vt 0.254844 0.301998
vt 0.047686 0.210233
vt 0.047686 0.210233
vt 0.994288 0.303407
vt 0.994288 0.303407
vt 0.994288 0.303407
vt 0.994288 0.303407
vt 0.994288 0.303407
vt 0.994288 0.303407
vt 0.994288 0.303407
vt 0.994288 0.303407
vt 0.994288 0.303407
vt 0.994288 0.303407
vt 0.994288 0.303407
vt 0.994288 0.303407
vt 0.994288 0.303407
vt 0.994288 0.303407
vt 0.994288 0.303407
vt 0.994288 0.303407
vt 0.047686 0.210233
vt 0.047686 0.210233
vt 0.047686 0.210233
vt 0.047686 0.210233
vt 0.047686 0.210233
vt 0.047686 0.210233
vt 0.047686 0.210233
vt 0.047686 0.210233
vt 0.047686 0.210233
vt 0.047686 0.210233
vt 0.047686 0.210233
vt 0.047686 0.210233
vt 0.047686 0.210233
vt 0.047686 0.210233
vt 0.047686 0.210233
vt 0.047686 0.210233
vt 0.994288 0.303407
vt 0.994288 0.303407
vt 0.994288 0.303407
vt 0.994288 0.303407
vt 0.994288 0.303407
vt 0.994288 0.303407
vt 0.994288 0.303407
vt 0.994288 0.303407
vt 0.994288 0.303407
vt 0.994288 0.303407
vt 0.994288 0.303407
vt 0.994288 0.303407
vt 0.994288 0.303407
vt 0.994288 0.303407
vt 0.994288 0.303407
vt 0.994288 0.303407
vt 0.254844 0.301998
vt 0.254844 0.301998
vt 0.994288 0.303407
vt 0.994288 0.303407
vt 0.994288 0.303407
vt 0.994288 0.303407
vt 0.047686 0.210233
vt 0.047686 0.210233
vt 0.047686 0.210233
vt 0.047686 0.210233
vt 0.047686 0.210233
vt 0.994288 0.303407
vt 0.047686 0.210233
vt 0.994288 0.303407
vt 0.994288 0.303407
vt 0.994288 0.303407
vt 0.254844 0.301998
vt 0.254844 0.301998
vt 0.994288 0.303407
vt 0.254844 0.301998
vt 0.254844 0.301998
vt 0.254844 0.301998
vt 0.254844 0.301998
vt 0.994288 0.303407
vt 0.994288 0.303407
vt 0.994288 0.303407
vt 0.994288 0.303407
vt 0.047686 0.210233
vt 0.047686 0.210233
vt 0.047686 0.210233
vt 0.047686 0.210233
vt 0.047686 0.210233
vt 0.994288 0.303407
vt 0.047686 0.210233
vt 0.994288 0.303407
vt 0.994288 0.303407
vt 0.254844 0.301998
vt 0.254844 0.301998
vt 0.254844 0.301998
vt 0.254844 0.301998
vt 0.254844 0.301998
vt 0.254844 0.301998
vt 0.254844 0.301998
vt 0.254844 0.301998
vt 0.254844 0.301998
vt 0.254844 0.301998
vt 0.254844 0.301998
vt 0.254844 0.301998
vt 0.254844 0.301998
vt 0.254844 0.301998
vt 0.254844 0.301998
vt 0.254844 0.301998
vt 0.994288 0.303407
vt 0.994288 0.303407
vt 0.994288 0.303407
vt 0.994288 0.303407
vt 0.994288 0.303407
vt 0.994288 0.303407
vt 0.994288 0.303407
vt 0.994288 0.303407
vt 0.994288 0.303407
vt 0.994288 0.303407
vn 0.000000 1.000000 -0.000000
vn 0.000000 1.000000 -0.000000
vn 0.000000 1.000000 -0.000000
vn 0.000000 1.000000 -0.000000
vn 0.000000 -1.000000 0.000000
vn 0.000000 -1.000000 0.000000
vn 0.000000 -1.000000 0.000000
vn 0.000000 -1.000000 0.000000
vn -0.982880 0.184221 0.003029
vn -0.982798 0.184660 0.002997
vn -0.974054 0.226316 0.000000
vn -0.974054 0.226316 0.000000
vn 0.000000 0.000000 1.000000
vn 0.000000 0.000000 1.000000
vn 0.000000 0.000000 1.000000
vn 0.000000 0.000000 1.000000
vn 0.985491 0.169729 -0.000012
vn 0.985491 0.169729 -0.000029
vn 0.985474 0.169711 0.006225
vn 0.985474 0.169711 0.006225
vn 0.000000 0.000000 -1.000000
vn 0.000000 0.000000 -1.000000
vn 0.000000 0.000000 -1.000000
vn 0.000000 0.000000 -1.000000
vn -0.009793 -0.041642 0.999085
vn -0.009793 -0.041642 0.999085
vn -0.010548 -0.014316 0.999842
vn -0.010589 -0.012825 0.999862
vn 0.011889 -0.017421 -0.999778
vn 0.011938 -0.013960 -0.999831
vn 0.011434 -0.048619 -0.998752
vn 0.011434 -0.048619 -0.998752
vn 0.908904 0.416940 -0.007456
vn 0.884331 0.466861 0.000000
vn 0.866957 0.498264 0.010910
vn 0.868149 0.496226 -0.008749
vn -0.920998 0.389169 -0.017614
vn -0.921141 0.389229 0.000000
vn -0.870902 0.491432 0.004868
vn -0.886101 0.463018 -0.020956
vn 0.000000 0.000000 1.000000
vn 0.000000 0.000000 1.000000
vn 0.000000 0.000000 1.000000
vn 0.000000 0.000000 1.000000
vn 0.997424 0.071723 -0.001060
vn 0.997269 0.073859 0.000000
vn 0.997269 0.073860 0.000000
vn 0.997276 0.073756 -0.001097
vn 0.000000 0.000000 -1.000000
vn 0.000000 0.000000 -1.000000
vn 0.000000 0.000000 -1.000000
vn 0.000000 0.000000 -1.000000
vn -0.997516 0.070393 -0.002632
vn -0.997519 0.070393 -0.000000
vn -0.997253 0.074074 0.000010
vn -0.997284 0.073602 -0.002752
vn 0.000000 0.000000 -1.000000
vn 0.000000 0.000000 -1.000000
vn 0.000000 0.000000 -1.000000
vn 0.000000 0.000000 -1.000000
vn 0.947304 -0.320335 0.000000
vn 0.947304 -0.320335 0.000000
vn 0.947304 -0.320335 0.000000
vn 0.947304 -0.320335 0.000000
vn 0.000000 0.000000 1.000000
vn 0.000000 0.000000 1.000000
vn 0.000000 0.000000 1.000000
vn 0.000000 0.000000 1.000000
vn -0.947304 -0.320336 0.000000
vn -0.947304 -0.320336 0.000000
vn -0.947304 -0.320336 0.000000
vn -0.947304 -0.320336 0.000000
vn 0.000000 0.000000 1.000000
vn 0.000000 0.000000 1.000000
vn 0.000000 0.000000 1.000000
vn 0.000000 0.000000 1.000000
vn 0.847010 0.531468 0.010736
vn 0.943176 0.332293 0.000000
vn 0.943176 0.332293 0.000000
vn 0.846666 0.532016 0.010767
vn 0.000000 0.000000 -1.000000
vn 0.000000 0.000000 -1.000000
vn 0.000000 0.000000 -1.000000
vn 0.000000 0.000000 -1.000000
vn -0.782843 0.621741 0.024398
vn -0.786575 0.617485 -0.003643
vn -0.785627 0.618688 0.003957
vn -0.782843 0.621741 0.024398
vn -0.886576 0.190545 0.421516
vn -0.886576 0.190545 0.421516
vn -0.886576 0.190545 0.421516
vn -0.886576 0.190545 0.421516
vn 0.886576 0.190547 0.421514
vn 0.886576 0.190547 0.421515
vn 0.886576 0.190547 0.421515
vn 0.886576 0.190547 0.421515
vn 0.560870 0.384505 0.733199
vn 0.620490 0.313698 0.718739
vn 0.635600 0.294179 0.713773
vn 0.560870 0.384505 0.733199
vn -0.747215 0.364893 0.555449
vn -0.712009 0.347700 0.610039
vn -0.712009 0.347700 0.610039
vn -0.758753 0.370528 0.535727
vn 0.926727 0.063488 0.370333
vn 0.931612 0.063823 0.357807
vn 0.931828 0.063838 0.357241
vn 0.926727 0.063488 0.370333
vn -0.931611 0.063823 0.357809
vn -0.926726 0.063488 0.370335
vn -0.926726 0.063488 0.370335
vn -0.931828 0.063838 0.357243
vn -0.717025 -0.224281 0.659979
vn -0.717025 -0.224281 0.659979
vn -0.717025 -0.224281 0.659979
vn -0.717025 -0.224281 0.659979
vn 0.000000 -1.000000 0.000000
vn 0.000000 -1.000000 0.000000
vn 0.000000 -1.000000 0.000000
vn 0.000000 -1.000000 0.000000
vn 0.717025 -0.224279 0.659981
vn 0.717024 -0.224279 0.659981
vn 0.717025 -0.224279 0.659981
vn 0.717025 -0.224279 0.659981
vn 0.874412 0.361875 0.323189
vn 0.874411 0.361875 0.323189
vn 0.874412 0.361875 0.323189
vn 0.874411 0.361875 0.323189
vn 0.000000 0.935640 0.352955
vn 0.000000 0.935640 0.352955
vn 0.000000 0.935640 0.352955
vn 0.000000 0.935640 0.352955
vn -0.874411 0.361875 0.323189
vn -0.874411 0.361875 0.323189
vn -0.874411 0.361875 0.323189
vn -0.874411 0.361875 0.323189
vn -0.886579 0.190546 -0.421509
vn -0.886579 0.190546 -0.421509
vn -0.886579 0.190546 -0.421509
vn -0.886579 0.190546 -0.421509
vn 0.886580 0.190547 -0.421507
vn 0.886580 0.190547 -0.421507
vn 0.886580 0.190547 -0.421507
vn 0.886580 0.190547 -0.421507
vn 0.747217 0.364895 -0.555445
vn 0.712011 0.347703 -0.610035
vn 0.712011 0.347703 -0.610035
vn 0.758755 0.370529 -0.535722
vn -0.632205 0.369697 -0.680912
vn -0.693537 0.336164 -0.637182
vn -0.693630 0.336109 -0.637109
vn -0.632205 0.369697 -0.680912
vn -0.926728 0.063488 -0.370329
vn -0.931614 0.063823 -0.357803
vn -0.931830 0.063838 -0.357237
vn -0.926728 0.063488 -0.370329
vn 0.931614 0.063823 -0.357801
vn 0.926729 0.063488 -0.370327
vn 0.926729 0.063488 -0.370327
vn 0.931831 0.063838 -0.357235
vn 0.717031 -0.224281 -0.659974
vn 0.717031 -0.224281 -0.659974
vn 0.717031 -0.224281 -0.659974
vn 0.717031 -0.224281 -0.659974
vn 0.000000 -1.000000 0.000000
vn 0.000000 -1.000000 0.000000
vn 0.000000 -1.000000 0.000000
vn 0.000000 -1.000000 0.000000
vn -0.717031 -0.224283 -0.659972
vn -0.717031 -0.224283 -0.659972
vn -0.717031 -0.224283 -0.659972
vn -0.717031 -0.224283 -0.659972
vn -0.874414 0.361875 -0.323182
vn -0.874414 0.361875 -0.323182
vn -0.874414 0.361876 -0.323182
vn -0.874414 0.361876 -0.323182
vn 0.000000 0.935643 -0.352949
vn 0.000000 0.935643 -0.352949
vn 0.000000 0.935643 -0.352949
vn 0.000000 0.935643 -0.352949
vn 0.874413 0.361876 -0.323183
vn 0.874413 0.361876 -0.323183
vn 0.874413 0.361876 -0.323183
vn 0.874413 0.361876 -0.323183
vn 0.931612 0.063823 0.357807
vn 0.947371 0.064903 0.313488
vn 0.947371 0.064903 0.313488
vn 0.931828 0.063838 0.357241
vn 0.000000 0.000000 1.000000
vn 0.000000 0.000000 1.000000
vn 0.000000 0.000000 1.000000
vn 0.000000 0.000000 1.000000
vn -0.947371 0.064905 0.313488
vn -0.931611 0.063823 0.357809
vn -0.931828 0.063838 0.357243
vn -0.947371 0.064905 0.313488
vn -0.997284 0.073602 -0.002752
vn -0.997253 0.074074 0.000010
vn -0.996096 0.088273 0.000000
vn -0.996091 0.088273 -0.003301
vn -0.931830 0.063838 -0.357237
vn -0.931614 0.063823 -0.357803
vn -0.947373 0.064905 -0.313483
vn -0.947373 0.064905 -0.313483
vn 0.000000 0.000000 -1.000000
vn 0.000000 0.000000 -1.000000
vn 0.000000 0.000000 -1.000000
vn 0.000000 0.000000 -1.000000
vn 0.947373 0.064903 -0.313483
vn 0.931614 0.063823 -0.357801
vn 0.931831 0.063838 -0.357235
vn 0.947373 0.064903 -0.313483
vn 0.997276 0.073756 -0.001097
vn 0.997269 0.073860 0.000000
vn 0.997269 0.073861 0.000000
vn 0.996635 0.081956 -0.001211
vn 0.620490 0.313698 0.718739
vn 0.670615 0.246003 0.699827
vn 0.670615 0.246003 0.699827
vn 0.635600 0.294179 0.713773
vn -0.010589 -0.012825 0.999862
vn -0.010548 -0.014316 0.999842
vn -0.011608 0.024593 0.999630
vn -0.011608 0.024593 0.999630
vn -0.781243 0.381511 0.494073
vn -0.747215 0.364893 0.555449
vn -0.758753 0.370528 0.535727
vn -0.781243 0.381511 0.494073
vn -0.886101 0.463018 -0.020956
vn -0.870902 0.491432 0.004868
vn -0.814121 0.580625 0.009042
vn -0.844019 0.535766 -0.024249
vn -0.693630 0.336109 -0.637109
vn -0.693537 0.336164 -0.637182
vn -0.730148 0.313612 -0.607068
vn -0.730148 0.313612 -0.607068
vn 0.012509 0.026502 -0.999571
vn 0.012509 0.026502 -0.999571
vn 0.011938 -0.013960 -0.999831
vn 0.011889 -0.017421 -0.999778
vn 0.781246 0.381511 -0.494069
vn 0.747217 0.364895 -0.555445
vn 0.758755 0.370529 -0.535722
vn 0.781246 0.381511 -0.494069
vn 0.822112 0.569239 -0.009980
vn 0.868149 0.496226 -0.008749
vn 0.866957 0.498264 0.010910
vn 0.853045 0.521487 0.019129
vn -0.947304 -0.320336 0.000000
vn -0.947304 -0.320336 0.000000
vn -0.947304 -0.320336 0.000000
vn -0.947304 -0.320336 0.000000
vn -0.865889 0.500161 0.008643
vn -0.908575 0.417657 0.007350
vn -0.884332 0.466859 0.000000
vn -0.864627 0.502275 -0.011835
vn -0.816781 0.576861 0.009987
vn -0.865889 0.500161 0.008643
vn -0.864627 0.502275 -0.011835
vn -0.848522 0.528748 -0.020870
vn -0.986316 0.164735 -0.006502
vn -0.986316 0.164735 -0.006502
vn -0.986337 0.164739 0.000000
vn -0.986337 0.164739 0.000044
vn -0.997276 0.073758 0.001080
vn -0.997422 0.071756 0.001043
vn -0.997269 0.073859 0.000000
vn -0.997269 0.073860 0.000000
vn -0.996647 0.081816 0.001190
vn -0.997276 0.073758 0.001080
vn -0.997269 0.073860 0.000000
vn -0.997268 0.073863 0.000000
vn -0.853791 0.520518 -0.010121
vn -0.854112 0.519991 -0.010092
vn -0.943176 0.332293 0.000000
vn -0.943176 0.332293 0.000000
vn 0.000000 1.000000 0.000000
vn 0.000000 1.000000 0.000000
vn 0.000000 1.000000 0.000000
vn 0.000000 1.000000 0.000000
vn 0.766354 0.641925 -0.025201
vn 0.777467 0.628874 0.007880
vn 0.771707 0.635905 -0.009666
vn 0.766354 0.641925 -0.025201
vn 0.997283 0.073612 0.002645
vn 0.997253 0.074070 -0.000009
vn 0.996097 0.088271 0.000000
vn 0.996091 0.088271 0.003171
vn 0.997516 0.070393 0.002529
vn 0.997519 0.070393 0.000000
vn 0.997253 0.074070 -0.000009
vn 0.997283 0.073612 0.002645
vn 0.974053 0.226320 0.000000
vn 0.974053 0.226320 0.000000
vn 0.982061 0.188544 -0.002719
vn 0.981990 0.188913 -0.002693
vn 0.886039 0.463173 0.020140
vn 0.872467 0.488655 -0.004251
vn 0.818177 0.574913 -0.007871
vn 0.844038 0.535778 0.023297
vn 0.921008 0.389175 0.016922
vn 0.921140 0.389231 0.000000
vn 0.872467 0.488655 -0.004251
vn 0.886039 0.463173 0.020140
vn 0.947304 -0.320335 0.000000
vn 0.947304 -0.320335 0.000000
vn 0.947304 -0.320335 0.000000
vn 0.947304 -0.320335 0.000000
vn 0.000000 -1.000000 0.000000
vn 0.000000 -1.000000 0.000000
vn 0.000000 -1.000000 0.000000
vn 0.000000 -1.000000 0.000000
vn 0.921140 0.389231 0.000000
vn 0.908904 0.416940 -0.007456
vn 0.868149 0.496226 -0.008749
vn 0.872467 0.488655 -0.004251
vn 0.947304 -0.320335 0.000000
vn 0.947304 -0.320335 0.000000
vn 0.947304 -0.320335 0.000000
vn 0.947304 -0.320335 0.000000
vn 0.000000 -1.000000 0.000000
vn 0.000000 -1.000000 0.000000
vn 0.000000 -1.000000 0.000000
vn 0.000000 -1.000000 0.000000
vn -0.947304 -0.320336 0.000000
vn -0.947304 -0.320336 0.000000
vn -0.947304 -0.320336 0.000000
vn -0.947304 -0.320336 0.000000
vn -0.870902 0.491432 0.004868
vn -0.921141 0.389229 0.000000
vn -0.908575 0.417657 0.007350
vn -0.865889 0.500161 0.008643
vn -0.814121 0.580625 0.009042
vn -0.870902 0.491432 0.004868
vn -0.865889 0.500161 0.008643
vn -0.816781 0.576861 0.009987
vn -0.986337 0.164739 0.000044
vn -0.986337 0.164739 0.000000
vn -0.982798 0.184660 0.002997
vn -0.982880 0.184221 0.003029
vn -0.997253 0.074074 0.000010
vn -0.997519 0.070393 -0.000000
vn -0.997422 0.071756 0.001043
vn -0.997276 0.073758 0.001080
vn -0.996096 0.088273 0.000000
vn -0.997253 0.074074 0.000010
vn -0.997276 0.073758 0.001080
vn -0.996647 0.081816 0.001190
vn -0.785627 0.618688 0.003957
vn -0.786575 0.617485 -0.003643
vn -0.854112 0.519991 -0.010092
vn -0.853791 0.520518 -0.010121
vn 0.000000 1.000000 0.000000
vn 0.000000 1.000000 0.000000
vn 0.000000 1.000000 -0.000000
vn 0.000000 1.000000 -0.000000
vn 0.777467 0.628874 0.007880
vn 0.847010 0.531468 0.010736
vn 0.846666 0.532016 0.010767
vn 0.771707 0.635905 -0.009666
vn 0.997253 0.074070 -0.000009
vn 0.997276 0.073756 -0.001097
vn 0.996635 0.081956 -0.001211
vn 0.996097 0.088271 0.000000
vn 0.997519 0.070393 0.000000
vn 0.997424 0.071723 -0.001060
vn 0.997276 0.073756 -0.001097
vn 0.997253 0.074070 -0.000009
vn 0.981990 0.188913 -0.002693
vn 0.982061 0.188544 -0.002719
vn 0.985491 0.169729 -0.000029
vn 0.985491 0.169729 -0.000012
vn 0.872467 0.488655 -0.004251
vn 0.868149 0.496226 -0.008749
vn 0.822112 0.569239 -0.009980
vn 0.818177 0.574913 -0.007871
s off
f 91/126/1 92/127/2 23/23/3 24/24/4
f 17/4/5 18/10/6 83/12/7 84/19/8
f 87/121/9 88/122/10 14/13/11 13/8/12
f 26/25/13 25/26/14 27/27/15 28/28/16
f 95/131/17 96/132/18 15/3/19 16/11/20
f 38/29/21 37/30/22 39/31/23 40/32/24
f 29/21/25 30/22/26 58/36/27 59/37/28
f 62/38/29 63/44/30 41/45/31 42/46/32
f 82/97/33 4/98/34 64/113/35 81/114/36
f 3/116/37 85/117/38 86/118/39 61/119/40
f 26/25/41 28/28/42 50/51/43 51/53/44
f 95/131/45 16/11/46 56/63/47 94/129/48
f 39/31/49 37/30/50 54/59/51 55/62/52
f 14/13/53 88/122/54 89/123/55 53/58/56
f 42/46/57 41/45/58 45/133/59 46/134/60
f 4/98/61 82/97/62 83/12/63 18/10/64
f 30/22/65 29/21/66 33/135/67 34/136/68
f 85/117/69 3/116/70 17/4/71 84/19/72
f 32/39/73 31/40/74 35/47/75 36/48/76
f 93/128/77 7/66/78 23/23/79 92/127/80
f 44/67/81 43/68/82 47/69/83 48/70/84
f 8/71/85 90/125/86 91/126/87 24/24/88
f 10/15/89 9/2/90 25/26/91 26/25/92
f 11/6/93 12/9/94 28/28/95 27/27/96
f 2/137/97 57/138/98 58/36/99 30/22/100
f 60/139/101 1/140/102 29/21/103 59/37/104
f 12/1/105 49/49/106 50/52/107 28/33/108
f 52/55/109 10/7/110 26/34/111 51/54/112
f 1/140/113 20/141/114 33/135/115 29/21/116
f 20/141/117 19/142/118 34/136/119 33/135/120
f 19/142/121 2/137/122 30/22/123 34/136/124
f 6/65/125 22/16/126 35/47/127 31/40/128
f 22/16/129 21/14/130 36/48/131 35/47/132
f 21/14/133 5/72/134 32/39/135 36/48/136
f 13/5/137 14/18/138 37/41/139 38/35/140
f 16/149/141 15/17/142 40/42/143 39/150/144
f 64/113/145 4/98/146 41/45/147 63/44/148
f 3/116/149 61/119/150 62/38/151 42/46/152
f 14/20/153 53/57/154 54/60/155 37/43/156
f 56/64/157 16/151/158 39/152/159 55/61/160
f 4/98/161 18/10/162 45/133/163 41/45/164
f 18/10/165 17/4/166 46/134/167 45/133/168
f 17/4/169 3/116/170 42/46/171 46/134/172
f 8/71/173 24/24/174 47/69/175 43/68/176
f 24/24/177 23/23/178 48/70/179 47/69/180
f 23/23/181 7/66/182 44/67/183 48/70/184
f 49/73/185 6/65/186 31/40/187 50/74/188
f 51/75/189 50/74/190 31/40/191 32/39/192
f 5/72/193 52/76/194 51/75/195 32/39/196
f 53/77/197 89/124/198 90/125/199 8/71/200
f 54/78/201 53/77/202 8/71/203 43/68/204
f 55/79/205 54/78/206 43/68/207 44/67/208
f 7/66/209 56/80/210 55/79/211 44/67/212
f 94/130/213 56/80/214 7/66/215 93/128/216
f 57/81/217 11/153/218 27/154/219 58/84/220
f 59/85/221 58/83/222 27/27/223 25/26/224
f 9/155/225 60/87/226 59/86/227 25/156/228
f 61/90/229 86/120/230 87/121/231 13/8/232
f 62/92/233 61/89/234 13/157/235 38/158/236
f 38/29/237 40/32/238 63/93/239 62/91/240
f 15/17/241 64/95/242 63/94/243 40/42/244
f 96/132/245 81/115/246 64/96/247 15/3/248
f 1/140/249 66/143/250 65/144/251 20/141/252
f 67/145/253 66/143/254 1/140/255 60/139/256
f 68/100/257 67/99/258 60/88/259 9/2/260
f 9/2/261 10/15/262 69/101/263 68/100/264
f 70/102/265 69/101/266 10/15/267 52/56/268
f 71/104/269 70/103/270 52/76/271 5/72/272
f 72/105/273 71/104/274 5/72/275 21/14/276
f 21/14/277 22/16/278 73/106/279 72/105/280
f 6/65/281 74/107/282 73/106/283 22/16/284
f 49/73/285 75/109/286 74/107/287 6/65/288
f 12/9/289 76/110/290 75/108/291 49/50/292
f 12/9/293 11/6/294 77/111/295 76/110/296
f 57/82/297 78/112/298 77/111/299 11/6/300
f 2/137/301 79/146/302 78/147/303 57/138/304
f 80/148/305 79/146/306 2/137/307 19/142/308
f 65/144/309 80/148/310 19/142/311 20/141/312
f 79/146/313 82/97/314 81/114/315 78/147/316
f 83/12/317 82/97/318 79/146/319 80/148/320
f 84/19/321 83/12/322 80/148/323 65/144/324
f 66/143/325 85/117/326 84/19/327 65/144/328
f 86/118/329 85/117/330 66/143/331 67/145/332
f 87/121/333 86/120/334 67/99/335 68/100/336
f 68/100/337 69/101/338 88/122/339 87/121/340
f 89/123/341 88/122/342 69/101/343 70/102/344
f 90/125/345 89/124/346 70/103/347 71/104/348
f 91/126/349 90/125/350 71/104/351 72/105/352
f 72/105/353 73/106/354 92/127/355 91/126/356
f 74/107/357 93/128/358 92/127/359 73/106/360
f 75/109/361 94/130/362 93/128/363 74/107/364
f 76/110/365 95/131/366 94/129/367 75/108/368
f 76/110/369 77/111/370 96/132/371 95/131/372
f 78/112/373 81/115/374 96/132/375 77/111/376
