# This file uses meters as units for non-parametric coordinates.

v 18.342590 11.071521 -31.786251
v -0.004578 6.069603 -41.452789
v -18.890381 6.069603 -31.350613
v -28.282166 11.270708 3.407288
v -18.890381 6.069603 30.078793
v 0.926208 12.648702 41.452789
v 18.881226 6.069603 30.078793
v 26.702881 6.069603 -0.051117
v 17.918396 52.148613 -26.314449
v -0.004578 58.093319 -34.541321
v -19.265747 53.624809 -24.194241
v -26.712036 58.081970 -0.047302
v -18.632507 55.660397 25.183773
v 0.564575 52.749577 36.297607
v 19.653320 48.543121 25.251675
v 26.895142 56.290619 0.576019
v 14.714813 0.000000 -24.461412
v -0.004578 0.000000 -31.865931
v -0.004578 0.000000 -0.085449
v -14.725494 0.000000 -24.461412
v -20.822525 0.000000 -0.085449
v -14.725494 0.000000 23.190355
v -0.004578 0.000000 30.594873
v 14.714813 0.000000 23.190355
v 20.813370 0.000000 -0.085449
v 2.500153 75.233093 -3.317118
v -0.436401 75.688240 -5.019474
v -3.328705 75.749016 -3.496408
v -4.492950 75.441887 0.338745
v -3.226471 74.775131 4.299021
v -0.280762 74.226105 6.034184
v 2.623749 74.055138 4.549265
v 3.771210 74.522133 0.658417
v 6.799316 88.673752 -9.068012
v -0.277710 88.920464 -12.924528
v -4.432401 86.731972 -5.190130
v -10.214996 88.636742 0.048065
v -3.426824 87.062782 7.312986
v -0.062561 86.905258 13.523436
v 7.003784 86.755371 9.805012
v 5.735785 85.914467 0.546935
v 4.917526 90.222130 -6.950474
v -0.526428 90.474518 -9.936810
v -2.719983 88.734947 -2.438588
v -8.163452 90.241837 0.039673
v -2.256094 89.094986 4.895612
v -0.375366 89.067238 10.343456
v 5.059433 88.897743 7.503605
v 3.853615 88.096596 0.415709
v -0.367737 76.576149 0.476074
v 20.818769 65.505974 0.897217
v 15.083689 62.888535 20.557642
v 0.564575 62.888535 28.324635
v -11.722178 69.156799 19.073725
v -20.504438 67.904015 0.063324
v -14.525217 68.232269 -18.801355
v -0.004578 68.232269 -26.568348
v 14.519114 68.184731 -18.784571
v 30.577469 30.825289 -0.017548
v 21.214699 34.260578 27.531727
v 0.169373 29.282103 39.999771
v -21.585487 30.570652 27.987965
v -30.577469 30.921478 -0.051117
v -21.623634 30.921478 -27.967365
v -0.004578 30.921478 -39.531326
v 21.612953 30.921478 -27.967365
vt 0.466923 0.340854
vt 0.466923 0.340854
vt 0.466923 0.340854
vt 0.466923 0.340854
vt 0.466923 0.340854
vt 0.466923 0.340854
vt 0.466923 0.340854
vt 0.466923 0.340854
vt 0.466923 0.340854
vt 0.466923 0.340854
vt 0.466923 0.340854
vt 0.466923 0.340854
vt 0.466923 0.340854
vt 0.466923 0.340854
vt 0.466923 0.340854
vt 0.466923 0.340854
vt 0.466923 0.340854
vt 0.466923 0.340854
vt 0.466923 0.340854
vt 0.466923 0.340854
vt 0.466923 0.340854
vt 0.466923 0.340854
vt 0.466923 0.340854
vt 0.466923 0.340854
vt 0.466923 0.340854
vt 0.466923 0.340854
vt 0.466923 0.340854
vt 0.466923 0.340854
vt 0.466923 0.340854
vt 0.466923 0.340854
vt 0.466923 0.340854
vt 0.466923 0.340854
vt 0.466923 0.340854
vt 0.466923 0.340854
vt 0.466923 0.340854
vt 0.466923 0.340854
vt 0.466923 0.340854
vt 0.466923 0.340854
vt 0.466923 0.340854
vt 0.466923 0.340854
vt 0.466923 0.340854
vt 0.466923 0.340854
vt 0.466923 0.340854
vt 0.466923 0.340854
vt 0.466923 0.340854
vt 0.466923 0.340854
vt 0.466923 0.340854
vt 0.466923 0.340854
vt 0.466923 0.340854
vt 0.466923 0.340854
vt 0.466923 0.340854
vt 0.466923 0.340854
vt 0.466923 0.340854
vt 0.466923 0.340854
vt 0.466923 0.340854
vt 0.466923 0.340854
vt 0.466923 0.340854
vt 0.466923 0.340854
vt 0.466923 0.340854
vt 0.466923 0.340854
vt 0.466923 0.340854
vt 0.466923 0.340854
vt 0.466923 0.340854
vt 0.466923 0.340854
vt 0.466923 0.340854
vt 0.466923 0.340854
vt 0.466923 0.340854
vt 0.466923 0.340854
vt 0.466923 0.340854
vt 0.466923 0.340854
vt 0.466923 0.340854
vt 0.466923 0.340854
vt 0.466923 0.340854
vt 0.466923 0.340854
vt 0.466923 0.340854
vt 0.466923 0.340854
vt 0.466923 0.340854
vt 0.466923 0.340854
vt 0.466923 0.340854
vt 0.466923 0.340854
vt 0.466923 0.340854
vt 0.466923 0.340854
vt 0.466923 0.340854
vt 0.466923 0.340854
vt 0.466923 0.340854
vn 0.459821 0.079930 -0.884407
vn 0.459821 0.079930 -0.884407
vn 0.459821 0.079930 -0.884407
vn 0.459821 0.079930 -0.884407
vn -0.470573 0.068014 -0.879736
vn -0.470573 0.068014 -0.879736
vn -0.470573 0.068014 -0.879736
vn -0.470573 0.068014 -0.879736
vn -0.956452 -0.108532 -0.270961
vn -0.956452 -0.108532 -0.270961
vn -0.956452 -0.108532 -0.270961
vn -0.956452 -0.108532 -0.270961
vn -0.947787 -0.067966 0.311577
vn -0.947787 -0.067966 0.311577
vn -0.947787 -0.067966 0.311577
vn -0.947787 -0.067966 0.311577
vn -0.493251 0.033495 0.869242
vn -0.493250 0.033495 0.869242
vn -0.493251 0.033495 0.869242
vn -0.493250 0.033495 0.869242
vn 0.522439 0.057543 0.850733
vn 0.522439 0.057543 0.850733
vn 0.522439 0.057543 0.850733
vn 0.522439 0.057543 0.850733
vn 0.952156 -0.097898 0.289508
vn 0.952156 -0.097898 0.289508
vn 0.952156 -0.097898 0.289508
vn 0.952156 -0.097898 0.289508
vn 0.949574 -0.127358 -0.286512
vn 0.949574 -0.127358 -0.286512
vn 0.949574 -0.127358 -0.286512
vn 0.949574 -0.127358 -0.286512
vn 0.000000 -1.000000 0.000000
vn 0.000000 -1.000000 0.000000
vn 0.000000 -1.000000 0.000000
vn 0.000000 -1.000000 0.000000
vn 0.000000 -1.000000 0.000000
vn 0.000000 -1.000000 0.000000
vn 0.000000 -1.000000 0.000000
vn 0.000000 -1.000000 0.000000
vn 0.000000 -1.000000 0.000000
vn 0.000000 -1.000000 0.000000
vn 0.000000 -1.000000 0.000000
vn 0.000000 -1.000000 0.000000
vn 0.000000 -1.000000 0.000000
vn 0.000000 -1.000000 0.000000
vn 0.000000 -1.000000 0.000000
vn 0.000000 -1.000000 0.000000
vn 0.000000 -1.000000 0.000000
vn 0.000000 -1.000000 0.000000
vn 0.000000 -1.000000 0.000000
vn 0.000000 -1.000000 0.000000
vn 0.000000 -1.000000 0.000000
vn 0.000000 -1.000000 0.000000
vn 0.000000 -1.000000 0.000000
vn 0.000000 -1.000000 0.000000
vn 0.414259 -0.682152 -0.602543
vn 0.414259 -0.682152 -0.602543
vn 0.414259 -0.682152 -0.602543
vn 0.414259 -0.682152 -0.602543
vn -0.273393 -0.806115 -0.524819
vn -0.273393 -0.806115 -0.524819
vn -0.273393 -0.806115 -0.524819
vn -0.273393 -0.806115 -0.524819
vn -0.805002 -0.571115 -0.160620
vn -0.805002 -0.571115 -0.160620
vn -0.805002 -0.571115 -0.160620
vn -0.805002 -0.571115 -0.160620
vn -0.766860 -0.617930 0.173460
vn -0.766860 -0.617930 0.173459
vn -0.766860 -0.617930 0.173460
vn -0.766860 -0.617930 0.173459
vn -0.240238 -0.689403 0.683380
vn -0.240238 -0.689403 0.683380
vn -0.240238 -0.689403 0.683380
vn -0.240238 -0.689403 0.683380
vn 0.243721 -0.701396 0.669808
vn 0.243721 -0.701396 0.669808
vn 0.243721 -0.701396 0.669808
vn 0.243721 -0.701396 0.669808
vn 0.703159 -0.687006 0.183278
vn 0.703159 -0.687006 0.183278
vn 0.703159 -0.687006 0.183278
vn 0.703159 -0.687006 0.183278
vn 0.795692 -0.549847 -0.254051
vn 0.795692 -0.549847 -0.254051
vn 0.795692 -0.549847 -0.254051
vn 0.795692 -0.549847 -0.254051
vn 0.456109 0.496612 -0.738472
vn 0.456109 0.496612 -0.738472
vn 0.456110 0.496612 -0.738472
vn 0.456110 0.496612 -0.738472
vn -0.461664 0.488392 -0.740500
vn -0.461664 0.488392 -0.740500
vn -0.461664 0.488392 -0.740500
vn -0.461664 0.488392 -0.740500
vn -0.841376 0.445871 -0.305426
vn -0.841376 0.445871 -0.305426
vn -0.841376 0.445871 -0.305426
vn -0.841376 0.445871 -0.305426
vn -0.790232 0.525611 0.315067
vn -0.790232 0.525611 0.315067
vn -0.790232 0.525611 0.315067
vn -0.790232 0.525611 0.315067
vn -0.333067 0.552605 0.763999
vn -0.333067 0.552605 0.763999
vn -0.333067 0.552605 0.763999
vn -0.333067 0.552605 0.763999
vn 0.474749 0.472692 0.742412
vn 0.474749 0.472692 0.742412
vn 0.474749 0.472692 0.742412
vn 0.474749 0.472692 0.742412
vn 0.829491 0.438913 0.345397
vn 0.829492 0.438913 0.345397
vn 0.829492 0.438913 0.345397
vn 0.829492 0.438913 0.345397
vn 0.860654 0.414788 -0.295340
vn 0.860654 0.414788 -0.295340
vn 0.860654 0.414788 -0.295340
vn 0.860654 0.414788 -0.295340
vn 0.403147 -0.469536 -0.785499
vn 0.403147 -0.469536 -0.785499
vn 0.403147 -0.469537 -0.785499
vn 0.403147 -0.469536 -0.785499
vn -0.733502 -0.275011 -0.621566
vn -0.733502 -0.275011 -0.621566
vn -0.733502 -0.275011 -0.621566
vn -0.733502 -0.275011 -0.621566
vn -0.787181 -0.267828 -0.555531
vn -0.787181 -0.267828 -0.555531
vn -0.787181 -0.267828 -0.555531
vn -0.787181 -0.267828 -0.555531
vn -0.810196 -0.245196 0.532411
vn -0.810196 -0.245196 0.532411
vn -0.810196 -0.245196 0.532411
vn -0.810196 -0.245196 0.532411
vn -0.769376 -0.247239 0.589011
vn -0.769376 -0.247239 0.589011
vn -0.769376 -0.247239 0.589011
vn -0.769376 -0.247239 0.589011
vn 0.396882 -0.468328 0.789401
vn 0.396882 -0.468327 0.789401
vn 0.396882 -0.468327 0.789401
vn 0.396882 -0.468328 0.789401
vn 0.967115 -0.254334 -0.001633
vn 0.967115 -0.254334 -0.001633
vn 0.967115 -0.254334 -0.001633
vn 0.967115 -0.254334 -0.001633
vn 0.961668 -0.261814 -0.081538
vn 0.961668 -0.261814 -0.081538
vn 0.961668 -0.261814 -0.081538
vn 0.961668 -0.261814 -0.081538
vn 0.263296 0.869276 -0.418372
vn 0.263296 0.869276 -0.418372
vn 0.263296 0.869276 -0.418372
vn 0.263296 0.869276 -0.418372
vn -0.782294 0.598803 -0.171610
vn -0.782294 0.598803 -0.171610
vn -0.782294 0.598803 -0.171610
vn -0.782294 0.598803 -0.171610
vn -0.224664 0.727365 -0.648434
vn -0.224664 0.727365 -0.648434
vn -0.224664 0.727365 -0.648434
vn -0.224664 0.727365 -0.648434
vn -0.388647 0.724200 0.569638
vn -0.388646 0.724200 0.569638
vn -0.388646 0.724200 0.569638
vn -0.388647 0.724200 0.569638
vn -0.727263 0.598101 0.336695
vn -0.727263 0.598101 0.336695
vn -0.727263 0.598101 0.336695
vn -0.727263 0.598101 0.336695
vn 0.290362 0.807041 0.514174
vn 0.290362 0.807041 0.514174
vn 0.290362 0.807041 0.514174
vn 0.290362 0.807041 0.514174
vn 0.784547 0.593855 -0.178390
vn 0.784547 0.593855 -0.178390
vn 0.784547 0.593855 -0.178390
vn 0.784547 0.593855 -0.178390
vn 0.745873 0.609459 0.268762
vn 0.745873 0.609459 0.268762
vn 0.745873 0.609459 0.268762
vn 0.745873 0.609459 0.268762
vn -0.381404 0.551481 0.741889
vn -0.381404 0.551481 0.741889
vn -0.381404 0.551481 0.741889
vn 0.910762 0.254203 0.325412
vn 0.910762 0.254203 0.325412
vn 0.910762 0.254203 0.325412
vn 0.461909 0.290264 0.838085
vn 0.461909 0.290264 0.838085
vn 0.461909 0.290264 0.838085
vn 0.635634 0.340478 -0.692852
vn 0.635634 0.340478 -0.692852
vn 0.635634 0.340478 -0.692852
vn 0.915802 0.249306 -0.314887
vn 0.915802 0.249306 -0.314887
vn 0.915802 0.249306 -0.314887
vn -0.363962 0.577225 -0.730988
vn -0.363962 0.577225 -0.730988
vn -0.363962 0.577225 -0.730988
vn -0.931976 0.342125 0.119881
vn -0.931976 0.342125 0.119881
vn -0.931976 0.342125 0.119881
vn -0.938391 0.343657 -0.036370
vn -0.938391 0.343657 -0.036370
vn -0.938391 0.343657 -0.036370
vn 0.452118 0.857802 0.244469
vn 0.452118 0.857802 0.244469
vn 0.452118 0.857802 0.244469
vn 0.452118 0.857802 0.244469
vn 0.236749 0.871355 0.429755
vn 0.236749 0.871355 0.429755
vn 0.236749 0.871355 0.429755
vn 0.236749 0.871355 0.429755
vn 0.091954 0.898196 0.429870
vn 0.091954 0.898196 0.429870
vn 0.091954 0.898196 0.429870
vn 0.091954 0.898196 0.429870
vn -0.396970 0.905399 0.150560
vn -0.396970 0.905399 0.150560
vn -0.396970 0.905399 0.150560
vn -0.396970 0.905399 0.150560
vn -0.431818 0.895125 -0.110835
vn -0.431818 0.895125 -0.110835
vn -0.431818 0.895125 -0.110835
vn -0.431818 0.895125 -0.110835
vn -0.171444 0.929192 -0.327428
vn -0.171444 0.929192 -0.327428
vn -0.171444 0.929192 -0.327428
vn -0.171444 0.929192 -0.327428
vn 0.190862 0.934070 -0.301804
vn 0.190862 0.934070 -0.301804
vn 0.190862 0.934070 -0.301804
vn 0.190862 0.934070 -0.301804
vn 0.473368 0.880501 -0.025323
vn 0.473368 0.880501 -0.025323
vn 0.473368 0.880501 -0.025323
vn 0.473368 0.880501 -0.025323
vn 0.940642 0.137264 0.310405
vn 0.940642 0.137264 0.310405
vn 0.940642 0.137264 0.310405
vn 0.940642 0.137264 0.310405
vn 0.497577 0.150739 0.854222
vn 0.497577 0.150739 0.854222
vn 0.497577 0.150739 0.854222
vn 0.497577 0.150739 0.854222
vn -0.474604 0.148965 0.867502
vn -0.474604 0.148965 0.867502
vn -0.474604 0.148965 0.867502
vn -0.474604 0.148965 0.867502
vn -0.940875 0.139329 0.308774
vn -0.940875 0.139329 0.308774
vn -0.940875 0.139329 0.308774
vn -0.940875 0.139329 0.308774
vn -0.940782 0.140775 -0.308402
vn -0.940782 0.140775 -0.308402
vn -0.940782 0.140776 -0.308402
vn -0.940782 0.140776 -0.308402
vn -0.479906 0.173780 -0.859937
vn -0.479906 0.173780 -0.859937
vn -0.479906 0.173780 -0.859937
vn -0.479906 0.173780 -0.859937
vn 0.460719 0.155113 -0.873887
vn 0.460719 0.155113 -0.873887
vn 0.460719 0.155113 -0.873887
vn 0.460719 0.155113 -0.873887
vn 0.934127 0.162863 -0.317619
vn 0.934127 0.162863 -0.317619
vn 0.934127 0.162863 -0.317619
vn 0.934127 0.162863 -0.317619
s off
f 1/9/1 2/10/2 65/83/3 66/85/4
f 2/10/5 3/11/6 64/82/7 65/83/8
f 3/11/9 4/12/10 63/81/11 64/82/12
f 4/12/13 5/13/14 62/80/15 63/81/16
f 5/13/17 6/14/18 61/79/19 62/80/20
f 6/14/21 7/15/22 60/78/23 61/79/24
f 7/15/25 8/16/26 59/77/27 60/78/28
f 8/16/29 1/17/30 66/84/31 59/77/32
f 18/37/33 17/38/34 19/35/35
f 20/39/36 18/37/37 19/35/38
f 21/40/39 20/39/40 19/35/41
f 22/41/42 21/40/43 19/35/44
f 23/42/45 22/41/46 19/35/47
f 24/43/48 23/42/49 19/35/50
f 25/44/51 24/43/52 19/35/53
f 17/38/54 25/44/55 19/35/56
f 2/2/57 1/1/58 17/38/59 18/37/60
f 3/3/61 2/2/62 18/37/63 20/39/64
f 4/4/65 3/3/66 20/39/67 21/40/68
f 5/5/69 4/4/70 21/40/71 22/41/72
f 6/6/73 5/5/74 22/41/75 23/42/76
f 7/7/77 6/6/78 23/42/79 24/43/80
f 8/8/81 7/7/82 24/43/83 25/44/84
f 1/1/85 8/8/86 25/44/87 17/38/88
f 9/33/89 10/32/90 57/75/91 58/76/92
f 10/32/93 11/31/94 56/74/95 57/75/96
f 11/31/97 12/30/98 55/73/99 56/74/100
f 12/30/101 13/29/102 54/72/103 55/73/104
f 13/29/105 14/28/106 53/71/107 54/72/108
f 14/28/109 15/27/110 52/70/111 53/71/112
f 15/27/113 16/34/114 51/69/115 52/70/116
f 16/34/117 9/33/118 58/76/119 51/69/120
f 26/45/121 27/46/122 35/54/123 34/53/124
f 27/46/125 28/47/126 36/55/127 35/54/128
f 28/47/129 29/48/130 37/56/131 36/55/132
f 29/48/133 30/49/134 38/57/135 37/56/136
f 30/49/137 31/50/138 39/58/139 38/57/140
f 31/50/141 32/51/142 40/59/143 39/58/144
f 32/51/145 33/52/146 41/60/147 40/59/148
f 33/52/149 26/45/150 34/53/151 41/60/152
f 34/53/153 35/54/154 43/62/155 42/61/156
f 35/54/157 36/55/158 44/63/159 43/62/160
f 36/55/161 37/56/162 45/64/163 44/63/164
f 37/56/165 38/57/166 46/65/167 45/64/168
f 38/57/169 39/58/170 47/66/171 46/65/172
f 39/58/173 40/59/174 48/67/175 47/66/176
f 40/59/177 41/60/178 49/68/179 48/67/180
f 41/60/181 34/53/182 42/61/183 49/68/184
f 42/61/185 43/62/186 50/36/187
f 43/62/188 44/63/189 50/36/190
f 44/63/191 45/64/192 50/36/193
f 45/64/194 46/65/195 50/36/196
f 46/65/197 47/66/198 50/36/199
f 47/66/200 48/67/201 50/36/202
f 48/67/203 49/68/204 50/36/205
f 49/68/206 42/61/207 50/36/208
f 52/70/209 51/69/210 33/52/211 32/51/212
f 53/71/213 52/70/214 32/51/215 31/50/216
f 54/72/217 53/71/218 31/50/219 30/49/220
f 55/73/221 54/72/222 30/49/223 29/48/224
f 56/74/225 55/73/226 29/48/227 28/47/228
f 57/75/229 56/74/230 28/47/231 27/46/232
f 58/76/233 57/75/234 27/46/235 26/45/236
f 51/69/237 58/76/238 26/45/239 33/52/240
f 60/78/241 59/77/242 16/25/243 15/24/244
f 61/79/245 60/78/246 15/24/247 14/23/248
f 62/80/249 61/79/250 14/23/251 13/22/252
f 63/81/253 62/80/254 13/22/255 12/21/256
f 64/82/257 63/81/258 12/21/259 11/20/260
f 65/83/261 64/82/262 11/20/263 10/19/264
f 66/85/265 65/83/266 10/19/267 9/18/268
f 59/77/269 66/84/270 9/26/271 16/25/272
