# This file uses meters as units for non-parametric coordinates.

v -30.298897 11.747458 32.987167
v 25.119495 11.747458 32.987167
v -30.298897 46.119698 32.987167
v 25.119495 36.996078 32.987167
v -30.298897 38.965191 -22.431183
v 25.119495 41.359493 -22.431183
v -30.298897 10.741659 -22.431183
v 25.119495 11.747458 -22.431183
v -27.215481 47.700481 29.903793
v 22.036171 39.069366 29.903793
v 22.036171 43.432781 -19.347813
v -27.215481 40.545979 -19.347813
v -26.127338 4.774312 28.815651
v 20.948029 4.774312 28.815651
v 20.948029 4.774312 -18.259670
v -26.127338 4.774312 -18.259670
v -5.322361 39.069366 29.903793
v -5.664635 39.069366 32.987167
v -5.664635 40.545979 -22.431183
v -5.322361 40.545979 -19.347813
v 22.036171 43.432781 5.745411
v 25.119495 41.359493 5.803967
v -30.298897 46.119698 5.803967
v -27.215574 47.700481 5.745411
v 37.308979 50.951164 4.703903
v 39.533997 48.446285 4.767561
v 39.533997 48.446285 -25.913239
v 37.308979 50.951164 -22.562790
v 35.989189 45.297485 34.305286
v 33.764172 47.802368 30.954838
v -40.518379 49.608826 5.803967
v -37.794971 42.992912 -22.431183
v -39.454365 51.934967 5.745411
v -36.730957 45.319073 -19.347813
v -40.518379 49.608826 32.987167
v -39.454365 51.934986 29.903793
v -30.298897 -0.000001 -22.431183
v 25.119495 -0.000001 -22.431183
v -30.298897 -0.000001 32.987167
v 25.119495 -0.000001 32.987167
v -2.589703 17.411911 32.987167
v 25.119495 8.012664 5.277967
v -2.589703 15.891304 -22.431183
v -30.298897 14.533109 0.630188
vt 0.049318 0.328739
vt 0.049318 0.328739
vt 0.049318 0.328739
vt 0.049318 0.328739
vt 0.049318 0.328739
vt 0.049318 0.328739
vt 0.049318 0.304101
vt 0.049318 0.304101
vt 0.049318 0.304101
vt 0.049318 0.304101
vt 0.049318 0.328739
vt 0.049318 0.328739
vt 0.049318 0.328739
vt 0.049318 0.328739
vt 0.049318 0.328739
vt 0.049318 0.328739
vt 0.049318 0.328739
vt 0.049318 0.328739
vt 0.049318 0.328739
vt 0.049318 0.328739
vt 0.049318 0.328739
vt 0.049318 0.328739
vt 0.049318 0.328739
vt 0.049318 0.328739
vt 0.049318 0.328739
vt 0.049318 0.328739
vt 0.049318 0.328739
vt 0.049318 0.328739
vt 0.049318 0.328739
vt 0.049318 0.328739
vt 0.049318 0.328739
vt 0.049318 0.328739
vt 0.049061 0.279574
vt 0.049061 0.279574
vt 0.049061 0.279574
vt 0.049061 0.279574
vt 0.049318 0.328739
vt 0.049318 0.328739
vt 0.049318 0.328739
vt 0.049318 0.328739
vt 0.049318 0.328739
vt 0.049318 0.328739
vt 0.049318 0.328739
vt 0.049318 0.328739
vt 0.049318 0.328739
vt 0.049318 0.328739
vt 0.049318 0.328739
vt 0.049318 0.328739
vt 0.049318 0.304101
vt 0.049318 0.304101
vt 0.049318 0.304101
vt 0.049318 0.304101
vt 0.049318 0.328739
vt 0.049318 0.304101
vt 0.049318 0.304101
vt 0.049318 0.328739
vt 0.049318 0.328739
vt 0.049318 0.328739
vt 0.049318 0.304101
vt 0.049318 0.304101
vt 0.049318 0.304101
vt 0.049318 0.304101
vt 0.049318 0.304101
vt 0.049318 0.304101
vt 0.049318 0.304101
vt 0.049318 0.304101
vt 0.049318 0.304101
vt 0.049318 0.304101
vt 0.049318 0.328739
vt 0.049318 0.304101
vt 0.049318 0.304101
vt 0.049318 0.304101
vt 0.049318 0.304101
vt 0.049318 0.304101
vt 0.049318 0.304101
vt 0.049318 0.304101
vt 0.049318 0.304101
vt 0.049318 0.304101
vt 0.049318 0.304101
vt 0.049318 0.304101
vt 0.049318 0.304101
vt 0.049318 0.304101
vt 0.049318 0.328739
vt 0.049318 0.304101
vn -0.000000 0.000000 1.000000
vn -0.000000 0.000000 1.000000
vn 0.000000 0.000000 1.000000
vn 0.000000 0.000000 1.000000
vn 0.000000 0.000000 -1.000000
vn 0.000000 0.000000 -1.000000
vn 0.000000 0.000000 -1.000000
vn 1.000000 0.000000 0.000000
vn 1.000000 0.000000 0.000000
vn 1.000000 0.000000 0.000000
vn -1.000000 -0.000000 0.000000
vn -1.000000 -0.000000 0.000000
vn -1.000000 -0.000000 0.000000
vn -1.000000 -0.000000 0.000000
vn 0.148000 0.927222 0.344029
vn 0.165944 0.922020 0.349774
vn 0.033939 0.951778 0.304906
vn 0.033939 0.951778 0.304906
vn 0.716716 0.692526 0.082006
vn 0.715877 0.693153 0.084020
vn 0.747638 0.664106 0.000000
vn 0.747638 0.664106 0.000000
vn -0.059687 0.937860 -0.341844
vn -0.047233 0.955809 -0.290168
vn -0.049074 0.953358 -0.297827
vn -0.059687 0.937860 -0.341843
vn -0.828683 0.517580 -0.213061
vn -0.875275 0.471196 -0.108944
vn -0.878719 0.466798 -0.099758
vn -0.828683 0.517580 -0.213061
vn 0.001700 0.030682 -0.999528
vn 0.001962 0.030524 -0.999532
vn 0.000000 0.031713 -0.999497
vn 0.000000 0.031713 -0.999497
vn -0.999578 0.029018 0.001478
vn -0.999577 0.029032 0.001502
vn -0.999604 0.028136 0.000000
vn -0.002978 0.028220 0.999597
vn -0.000501 0.030038 0.999549
vn -0.000690 0.029899 0.999553
vn 0.999637 0.026829 -0.002658
vn 0.999645 0.026567 -0.002191
vn 0.999643 0.026612 -0.002272
vn 0.999637 0.026829 -0.002658
vn 0.000000 1.000000 0.000000
vn 0.000000 1.000000 0.000000
vn 0.000000 1.000000 0.000000
vn 0.010091 0.025595 -0.999621
vn 0.001962 0.030524 -0.999532
vn 0.001700 0.030682 -0.999528
vn 0.294432 0.873589 0.387495
vn 0.165944 0.922020 0.349774
vn 0.148000 0.927222 0.344029
vn 0.294432 0.873589 0.387495
vn -0.000000 0.000000 1.000000
vn -0.000000 0.000000 1.000000
vn -0.000000 0.000000 1.000000
vn 0.000000 -1.000000 0.000000
vn 0.000000 -1.000000 0.000000
vn 0.000000 -1.000000 0.000000
vn 0.000000 0.000000 -1.000000
vn 0.000000 0.000000 -1.000000
vn 0.000000 0.000000 -1.000000
vn -0.049074 0.953358 -0.297827
vn -0.047233 0.955809 -0.290168
vn -0.033038 0.972413 -0.230917
vn -0.033038 0.972413 -0.230917
vn -0.000690 0.029899 0.999553
vn -0.000501 0.030038 0.999549
vn 0.000000 0.030405 0.999538
vn 0.000000 0.030405 0.999538
vn 0.000000 1.000000 0.000000
vn 0.000000 1.000000 0.000000
vn 0.000000 1.000000 0.000000
vn -0.999572 0.029203 0.001789
vn -0.999577 0.029032 0.001502
vn -0.999578 0.029018 0.001478
vn -0.999572 0.029203 0.001789
vn 0.677898 0.715944 0.166965
vn 0.715877 0.693153 0.084020
vn 0.716716 0.692526 0.082006
vn 0.677898 0.715945 0.166965
vn 1.000000 0.000000 0.000000
vn 1.000000 0.000000 0.000000
vn 1.000000 0.000000 0.000000
vn 1.000000 0.000000 0.000000
vn 0.000000 -1.000000 0.000000
vn 0.000000 -1.000000 0.000000
vn 0.000000 -1.000000 0.000000
vn -1.000000 -0.000000 0.000000
vn -1.000000 0.000000 0.000000
vn -1.000000 0.000000 0.000000
vn -0.878719 0.466798 -0.099758
vn -0.875275 0.471196 -0.108944
vn -0.909382 0.415963 -0.000000
vn -0.909382 0.415963 -0.000000
vn 0.999643 0.026612 -0.002272
vn 0.999645 0.026567 -0.002191
vn 0.999679 0.025341 -0.000004
vn 0.441204 -0.897407 0.000000
vn 0.441204 -0.897407 0.000000
vn 0.441204 -0.897407 0.000000
vn 0.441204 -0.897407 0.000000
vn -0.426828 0.532400 -0.731005
vn -0.426828 0.532400 -0.731005
vn -0.426828 0.532400 -0.731005
vn -0.426828 0.532400 -0.731005
vn -0.441659 0.897183 0.000000
vn -0.441659 0.897183 0.000000
vn -0.441659 0.897183 0.000000
vn -0.441659 0.897183 0.000000
vn 0.518867 -0.851076 -0.080291
vn 0.518867 -0.851076 -0.080291
vn 0.518867 -0.851076 -0.080291
vn 0.518867 -0.851076 -0.080291
vn -0.513565 0.853208 0.091034
vn -0.513565 0.853208 0.091034
vn -0.513565 0.853208 0.091034
vn -0.513565 0.853208 0.091034
vn -0.456094 0.502938 0.734188
vn -0.456094 0.502938 0.734188
vn -0.456094 0.502938 0.734188
vn -0.456094 0.502938 0.734188
vn -0.382595 -0.901692 0.201428
vn -0.382595 -0.901692 0.201428
vn -0.382595 -0.901692 0.201428
vn -0.382595 -0.901692 0.201428
vn 0.372603 0.899876 -0.226692
vn 0.372603 0.899876 -0.226692
vn 0.372603 0.899876 -0.226692
vn 0.372603 0.899876 -0.226692
vn 0.346364 0.669504 -0.657112
vn 0.346364 0.669504 -0.657112
vn 0.346364 0.669504 -0.657112
vn 0.346364 0.669504 -0.657112
vn -0.323106 -0.946363 0.000000
vn -0.323106 -0.946363 0.000000
vn -0.323106 -0.946363 0.000000
vn -0.323106 -0.946363 0.000000
vn 0.251745 0.732011 0.633076
vn 0.251745 0.732011 0.633075
vn 0.251745 0.732011 0.633075
vn 0.251745 0.732011 0.633076
vn 0.326971 0.945035 -0.000001
vn 0.326971 0.945034 -0.000001
vn 0.326971 0.945035 -0.000001
vn 0.326971 0.945034 -0.000001
vn 0.000000 0.000000 -1.000000
vn 0.000000 0.000000 -1.000000
vn 0.000000 0.000000 -1.000000
vn 0.000000 0.000000 -1.000000
vn -1.000000 0.000000 0.000000
vn -1.000000 0.000000 0.000000
vn -1.000000 0.000000 0.000000
vn 1.000000 -0.000000 0.000000
vn 1.000000 -0.000000 0.000000
vn 1.000000 0.000000 0.000000
vn 0.000000 0.000000 1.000000
vn 0.000000 0.000000 1.000000
vn 0.000000 0.000000 1.000000
vn 0.000000 0.000000 1.000000
vn 0.000000 0.000000 1.000000
vn 0.000000 0.000000 1.000000
vn 0.000000 0.000000 1.000000
vn 0.000000 0.000000 1.000000
vn 0.000000 0.000000 1.000000
vn 0.000000 0.000000 1.000000
vn 1.000000 -0.000000 0.000000
vn 1.000000 -0.000000 0.000000
vn 1.000000 -0.000000 0.000000
vn 1.000000 -0.000000 0.000000
vn 1.000000 0.000000 0.000000
vn 1.000000 0.000000 0.000000
vn 1.000000 0.000000 0.000000
vn 0.000000 0.000000 -1.000000
vn 0.000000 0.000000 -1.000000
vn 0.000000 0.000000 -1.000000
vn 0.000000 0.000000 -1.000000
vn 0.000000 0.000000 -1.000000
vn 0.000000 0.000000 -1.000000
vn 0.000000 0.000000 -1.000000
vn -1.000000 0.000000 0.000000
vn -1.000000 0.000000 0.000000
vn -1.000000 0.000000 0.000000
vn -1.000000 0.000000 0.000000
vn -1.000000 -0.000000 0.000000
vn -1.000000 -0.000000 0.000000
vn -1.000000 0.000000 0.000000
s off
f 18/24/1 1/1/2 41/53/3 4/4/4
f 8/69/5 19/25/6 6/6/7
f 22/29/8 8/11/9 6/12/10
f 7/13/11 44/58/12 23/30/13 5/14/14
f 17/23/15 18/24/16 4/4/17 10/16/18
f 25/40/19 26/37/20 27/38/21 28/39/22
f 6/6/23 19/25/24 20/26/25 11/17/26
f 32/43/27 31/44/28 33/45/29 34/46/30
f 13/19/31 17/23/32 10/16/33 14/20/34
f 15/21/35 21/27/36 11/17/37
f 11/17/38 20/26/39 15/21/40
f 12/18/41 24/32/42 13/19/43 16/22/44
f 13/33/45 15/34/46 16/35/47
f 9/15/48 17/23/49 13/19/50
f 3/3/51 18/24/52 17/23/53 9/15/54
f 1/1/55 18/24/56 3/3/57
f 37/60/58 38/81/59 39/76/60
f 43/57/61 19/25/62 8/69/63
f 20/26/64 19/25/65 5/5/66 12/18/67
f 15/21/68 20/26/69 12/18/70 16/22/71
f 15/34/72 13/33/73 14/36/74
f 10/16/75 21/27/76 15/21/77 14/20/78
f 29/41/79 26/37/80 25/40/81 30/42/82
f 2/2/83 42/56/84 22/29/85 4/4/86
f 39/75/87 38/82/88 40/70/89
f 23/30/90 1/1/91 3/3/92
f 33/45/93 31/44/94 35/47/95 36/48/96
f 13/19/97 24/32/98 9/15/99
f 22/28/100 6/6/101 27/38/102 26/37/103
f 6/6/104 11/17/105 28/39/106 27/38/107
f 11/17/108 21/27/109 25/40/110 28/39/111
f 4/4/112 22/28/113 26/37/114 29/41/115
f 21/27/116 10/16/117 30/42/118 25/40/119
f 10/16/120 4/4/121 29/41/122 30/42/123
f 5/5/124 23/31/125 31/44/126 32/43/127
f 24/32/128 12/18/129 34/46/130 33/45/131
f 12/18/132 5/5/133 32/43/134 34/46/135
f 23/31/136 3/3/137 35/47/138 31/44/139
f 3/3/140 9/15/141 36/48/142 35/47/143
f 9/15/144 24/32/145 33/45/146 36/48/147
f 37/61/148 43/67/149 8/8/150 38/80/151
f 37/63/152 44/64/153 7/84/154
f 40/72/155 42/73/156 2/10/157
f 39/78/158 41/79/159 1/9/160
f 2/74/161 41/54/162 39/51/163 40/71/164
f 4/4/165 41/53/166 2/2/167
f 8/68/168 42/55/169 40/52/170 38/50/171
f 22/29/172 42/56/173 8/11/174
f 7/7/175 43/66/176 37/62/177
f 5/5/178 19/25/179 43/57/180 7/83/181
f 1/65/182 44/59/183 37/49/184 39/77/185
f 23/30/186 44/58/187 1/1/188
