# This file uses meters as units for non-parametric coordinates.

v -6.000519 -0.000000 61.927795
v 6.001282 -0.000000 61.927795
v -6.000519 40.105331 102.375031
v 6.001282 40.105331 102.375031
v -6.000519 43.170284 97.127533
v 6.001282 43.170284 97.127533
v -6.000519 8.022088 60.295105
v 6.001282 8.022088 60.295105
v -6.000519 54.725742 102.375031
v 6.001282 54.725742 102.375031
v 6.001282 51.660778 97.127533
v -6.000519 51.660778 97.127533
v -6.000519 92.010178 13.893127
v 6.001282 92.010178 13.893127
v 6.001282 87.137436 13.893127
v -6.000519 87.137436 13.893127
v -9.322357 98.413155 13.893127
v 9.325409 98.413155 13.893127
v 9.325409 84.692871 13.893127
v -9.322357 84.692871 13.893127
v -9.322357 98.413155 -13.893127
v 9.325409 98.413155 -13.893127
v 9.325409 84.692871 -13.893127
v -9.322357 84.692871 -13.893127
v -6.000519 8.022088 -8.883667
v 6.001282 8.022088 -8.883667
v 6.001282 -0.000000 -0.562286
v -6.000519 -0.000000 -0.562286
v 16.145325 8.022088 -38.979340
v -16.145325 8.022088 -38.979340
v -38.979340 8.022088 -16.145325
v -38.979340 8.022088 16.145325
v -16.145325 8.022088 38.979340
v 16.145325 8.022088 38.979340
v 38.979340 8.022088 16.145325
v 38.979340 8.022088 -16.145325
v 12.969971 20.676929 -31.312561
v -12.969971 20.676929 -31.312561
v -31.312561 20.676929 -12.969971
v -31.312561 20.676929 12.969971
v -12.969971 20.676929 31.312561
v 12.969971 20.676929 31.312561
v 31.312561 20.676929 12.969971
v 31.312561 20.676929 -12.969971
v 0.000000 8.022088 0.000000
v 38.112640 47.138298 -92.012794
v -38.112640 47.138298 -92.012794
v -34.890747 49.365410 -84.233093
v 34.890747 49.365410 -84.233093
v -92.012787 47.138298 -38.112640
v -84.233101 49.365410 -34.889984
v -92.012787 47.138092 38.113403
v -84.233101 49.365200 34.890747
v -38.112640 47.138142 92.012787
v -34.890747 49.365246 84.233856
v 38.112640 47.138248 92.012787
v 34.890747 49.365353 84.233093
v 92.012787 47.138191 38.112640
v 84.233856 49.365307 34.890747
v 92.012787 47.138290 -38.112640
v 84.233093 49.365410 -34.890747
v 0.000000 20.676929 0.000000
v 24.694824 30.015541 59.617615
v -24.694824 30.015493 59.617615
v -59.616852 30.015469 24.694824
v -59.617622 30.015570 -24.694061
v -24.694824 30.015570 -59.617615
v 24.694824 30.015570 -59.617615
v 59.616852 30.015570 -24.694824
v 59.617615 30.015516 24.694824
v 28.466034 21.889894 -68.722534
v -28.466034 21.889894 -68.722534
v -68.722527 21.889894 -28.466034
v -68.723297 21.889795 28.466034
v -28.466034 21.889824 68.722534
v 28.466034 21.889872 68.722534
v 68.722534 21.889849 28.466034
v 68.723297 21.889889 -28.466034
v -14.642334 98.413155 -0.171661
v 14.645386 98.413155 -0.171661
v 14.645386 84.692871 -0.171661
v -14.642334 84.692871 -0.171661
vt 0.244263 0.379484
vt 0.244263 0.379484
vt 0.244263 0.379484
vt 0.244263 0.379484
vt 0.244263 0.379484
vt 0.244263 0.379484
vt 0.244263 0.379484
vt 0.244263 0.379484
vt 0.244263 0.379484
vt 0.244263 0.379484
vt 0.244263 0.379484
vt 0.244263 0.379484
vt 0.244263 0.379484
vt 0.244263 0.379484
vt 0.244263 0.379484
vt 0.244263 0.379484
vt 0.244263 0.379484
vt 0.244263 0.379484
vt 0.244263 0.379484
vt 0.244263 0.379484
vt 0.234268 0.301492
vt 0.234268 0.301492
vt 0.234268 0.301492
vt 0.234268 0.301492
vt 0.234268 0.301492
vt 0.234268 0.301492
vt 0.234268 0.301492
vt 0.234268 0.301492
vt 0.234268 0.301492
vt 0.234268 0.301492
vt 0.234268 0.301492
vt 0.234268 0.301492
vt 0.245547 0.325981
vt 0.245547 0.325981
vt 0.245547 0.325981
vt 0.245547 0.325981
vt 0.245547 0.325981
vt 0.245547 0.325981
vt 0.245547 0.325981
vt 0.245547 0.325981
vt 0.245547 0.325981
vt 0.245547 0.325981
vt 0.245547 0.325981
vt 0.245547 0.325981
vt 0.245547 0.325981
vt 0.245547 0.325981
vt 0.245547 0.325981
vt 0.245547 0.325981
vt 0.245547 0.325981
vt 0.245547 0.325981
vt 0.245547 0.325981
vt 0.245547 0.325981
vt 0.245547 0.325981
vt 0.245547 0.325981
vt 0.245547 0.325981
vt 0.245547 0.325981
vt 0.245547 0.325981
vt 0.245547 0.325981
vt 0.245547 0.325981
vt 0.245547 0.325981
vt 0.245547 0.325981
vt 0.245547 0.325981
vt 0.245547 0.325981
vt 0.245547 0.325981
vt 0.245547 0.325981
vt 0.245547 0.325981
vt 0.245547 0.325981
vt 0.245547 0.325981
vt 0.245547 0.325981
vt 0.245547 0.325981
vt 0.245547 0.325981
vt 0.245547 0.325981
vt 0.245547 0.325981
vt 0.245547 0.325981
vt 0.245547 0.325981
vt 0.245547 0.325981
vt 0.245547 0.325981
vt 0.245547 0.325981
vt 0.245547 0.325981
vt 0.245547 0.325981
vt 0.245547 0.325981
vt 0.245547 0.325981
vt 0.245547 0.325981
vt 0.245547 0.325981
vt 0.245547 0.325981
vt 0.245547 0.325981
vt 0.245547 0.325981
vt 0.245547 0.325981
vt 0.245547 0.325981
vt 0.245547 0.325981
vt 0.245547 0.325981
vt 0.245547 0.325981
vt 0.245547 0.325981
vt 0.245547 0.325981
vt 0.245547 0.325981
vt 0.245547 0.325981
vt 0.245547 0.325981
vt 0.245547 0.325981
vt 0.245547 0.325981
vt 0.245547 0.325981
vt 0.245547 0.325981
vt 0.245547 0.325981
vt 0.245547 0.325981
vt 0.245547 0.325981
vt 0.234268 0.301492
vt 0.234268 0.301492
vt 0.234268 0.301492
vt 0.234268 0.301492
vn 0.000000 -0.710102 0.704099
vn 0.000000 -0.710102 0.704099
vn 0.000000 -0.710102 0.704099
vn 0.000000 -0.710102 0.704099
vn 0.000000 0.000000 -1.000000
vn 0.000000 0.000000 -1.000000
vn 0.000000 0.000000 -1.000000
vn 0.000000 0.000000 -1.000000
vn 0.000000 0.723454 -0.690373
vn 0.000000 0.723454 -0.690373
vn 0.000000 0.723454 -0.690373
vn 0.000000 0.723454 -0.690373
vn 0.000000 -0.719935 -0.694041
vn 0.000000 -0.719935 -0.694041
vn 0.000000 -0.719935 -0.694041
vn 0.000000 -0.719935 -0.694041
vn 1.000000 0.000000 0.000000
vn 1.000000 0.000000 0.000000
vn 1.000000 0.000000 0.000000
vn 1.000000 0.000000 0.000000
vn -1.000000 0.000000 0.000000
vn -1.000000 0.000000 0.000000
vn -1.000000 0.000000 0.000000
vn -1.000000 0.000000 0.000000
vn 0.000000 0.000000 1.000000
vn 0.000000 0.000000 1.000000
vn 0.000000 0.000000 1.000000
vn 0.000000 0.000000 1.000000
vn 1.000000 0.000000 0.000000
vn 1.000000 0.000000 0.000000
vn 1.000000 0.000000 0.000000
vn 1.000000 0.000000 0.000000
vn 0.000000 0.000000 -1.000000
vn 0.000000 0.000000 -1.000000
vn 0.000000 0.000000 -1.000000
vn 0.000000 0.000000 -1.000000
vn -1.000000 0.000000 0.000000
vn -1.000000 0.000000 0.000000
vn -1.000000 0.000000 0.000000
vn -1.000000 0.000000 0.000000
vn 0.000000 0.921528 0.388313
vn 0.000000 0.921528 0.388313
vn 0.000000 0.921528 0.388313
vn 0.000000 0.921528 0.388313
vn 1.000000 0.000000 0.000000
vn 1.000000 0.000000 0.000000
vn 1.000000 0.000000 0.000000
vn 1.000000 0.000000 0.000000
vn 0.000000 -0.919925 -0.392096
vn 0.000000 -0.919925 -0.392096
vn 0.000000 -0.919925 -0.392096
vn 0.000000 -0.919925 -0.392096
vn -1.000000 0.000000 0.000000
vn -1.000000 0.000000 0.000000
vn -1.000000 0.000000 0.000000
vn -1.000000 0.000000 0.000000
vn 0.000000 0.000000 1.000000
vn 0.000000 0.000000 1.000000
vn 0.000000 0.000000 1.000000
vn 0.000000 0.000000 1.000000
vn 0.000000 0.000000 1.000000
vn 0.000000 0.000000 1.000000
vn 0.000000 0.000000 1.000000
vn 0.000000 0.000000 1.000000
vn 0.000000 0.000000 1.000000
vn 0.000000 0.000000 1.000000
vn 0.000000 0.000000 1.000000
vn 0.000000 0.000000 1.000000
vn -0.000000 0.000000 1.000000
vn -0.000000 0.000000 1.000000
vn -0.000000 0.000000 1.000000
vn -0.000000 0.000000 1.000000
vn 0.000000 1.000000 0.000000
vn 0.000000 1.000000 0.000000
vn 0.000000 1.000000 0.000000
vn 0.000000 1.000000 0.000000
vn 0.932375 0.000000 -0.361493
vn 0.932375 0.000000 -0.361493
vn 0.932375 0.000000 -0.361493
vn 0.932375 0.000000 -0.361493
vn 0.000000 -1.000000 0.000000
vn 0.000000 -1.000000 0.000000
vn 0.000000 -1.000000 0.000000
vn 0.000000 -1.000000 0.000000
vn -0.932375 0.000000 -0.361493
vn -0.932375 0.000000 -0.361493
vn -0.932375 0.000000 -0.361493
vn -0.932375 0.000000 -0.361493
vn 0.000000 1.000000 0.000000
vn 0.000000 1.000000 0.000000
vn 0.000000 1.000000 0.000000
vn 0.000000 1.000000 0.000000
vn 1.000000 0.000000 0.000000
vn 1.000000 0.000000 0.000000
vn 1.000000 0.000000 0.000000
vn 1.000000 0.000000 0.000000
vn 0.000000 -1.000000 0.000000
vn 0.000000 -1.000000 0.000000
vn 0.000000 -1.000000 0.000000
vn 0.000000 -1.000000 0.000000
vn -1.000000 0.000000 0.000000
vn -1.000000 0.000000 0.000000
vn -1.000000 0.000000 0.000000
vn -1.000000 0.000000 0.000000
vn 0.000000 0.961382 -0.275217
vn 0.000000 0.961382 -0.275217
vn 0.000000 0.961382 -0.275217
vn 0.000000 0.961382 -0.275217
vn -0.194612 0.961381 -0.194610
vn -0.194612 0.961381 -0.194610
vn -0.194612 0.961381 -0.194610
vn -0.194612 0.961381 -0.194610
vn -0.275217 0.961382 0.000003
vn -0.275217 0.961382 0.000003
vn -0.275217 0.961382 0.000003
vn -0.275217 0.961382 0.000003
vn -0.194617 0.961379 0.194617
vn -0.194617 0.961379 0.194617
vn -0.194617 0.961379 0.194617
vn -0.194617 0.961379 0.194617
vn 0.000000 0.961379 0.275229
vn 0.000000 0.961379 0.275229
vn 0.000000 0.961379 0.275229
vn 0.000000 0.961379 0.275229
vn 0.194623 0.961376 0.194623
vn 0.194623 0.961376 0.194623
vn 0.194623 0.961376 0.194623
vn 0.194623 0.961376 0.194623
vn 0.275230 0.961378 -0.000000
vn 0.275230 0.961378 -0.000000
vn 0.275230 0.961378 -0.000000
vn 0.275230 0.961378 -0.000000
vn 0.194617 0.961378 -0.194617
vn 0.194617 0.961378 -0.194617
vn 0.194617 0.961378 -0.194617
vn 0.194617 0.961378 -0.194617
vn 0.000000 -1.000000 0.000000
vn 0.000000 -1.000000 0.000000
vn 0.000000 -1.000000 0.000000
vn 0.000000 -1.000000 0.000000
vn 0.000000 -1.000000 0.000000
vn 0.000000 -1.000000 0.000000
vn 0.000000 -1.000000 0.000000
vn 0.000000 -1.000000 0.000000
vn 0.000000 -1.000000 0.000000
vn 0.000000 -1.000000 -0.000000
vn 0.000000 -1.000000 -0.000000
vn 0.000000 -1.000000 -0.000000
vn 0.000000 -1.000000 0.000000
vn 0.000000 -1.000000 0.000000
vn 0.000000 -1.000000 0.000000
vn 0.000000 -1.000000 -0.000000
vn 0.000000 -1.000000 -0.000000
vn 0.000000 -1.000000 -0.000000
vn 0.000000 -1.000000 0.000000
vn 0.000000 -1.000000 0.000000
vn 0.000000 -1.000000 0.000000
vn 0.000000 -1.000000 0.000000
vn 0.000000 -1.000000 0.000000
vn 0.000000 -1.000000 0.000000
vn 0.000000 -0.678029 -0.735035
vn 0.000000 -0.678029 -0.735035
vn 0.000000 -0.678029 -0.735035
vn 0.000000 -0.678029 -0.735035
vn 0.000000 0.786177 0.618001
vn 0.000000 0.786177 0.618001
vn 0.000000 0.786177 0.618001
vn 0.000000 0.786177 0.618001
vn -0.519752 -0.678023 -0.519752
vn -0.519752 -0.678023 -0.519752
vn -0.519752 -0.678023 -0.519752
vn -0.519752 -0.678023 -0.519752
vn 0.436998 0.786176 0.436990
vn 0.436998 0.786176 0.436990
vn 0.436998 0.786176 0.436990
vn 0.436998 0.786176 0.436990
vn -0.735040 -0.678024 -0.000006
vn -0.735040 -0.678024 -0.000006
vn -0.735040 -0.678024 -0.000006
vn -0.735040 -0.678024 -0.000006
vn 0.617994 0.786183 -0.000002
vn 0.617994 0.786182 -0.000002
vn 0.617994 0.786182 -0.000002
vn 0.617994 0.786182 -0.000002
vn -0.519747 -0.678025 0.519756
vn -0.519747 -0.678025 0.519756
vn -0.519747 -0.678025 0.519756
vn -0.519747 -0.678025 0.519756
vn 0.436990 0.786184 -0.436983
vn 0.436990 0.786184 -0.436983
vn 0.436990 0.786184 -0.436983
vn 0.436990 0.786184 -0.436983
vn 0.000001 -0.678030 0.735034
vn 0.000001 -0.678030 0.735034
vn 0.000001 -0.678030 0.735034
vn 0.000001 -0.678030 0.735034
vn -0.000005 0.786183 -0.617994
vn -0.000005 0.786183 -0.617994
vn -0.000005 0.786183 -0.617994
vn -0.000005 0.786183 -0.617994
vn 0.519751 -0.678024 0.519752
vn 0.519751 -0.678024 0.519752
vn 0.519751 -0.678024 0.519752
vn 0.519751 -0.678024 0.519752
vn -0.436988 0.786180 -0.436993
vn -0.436988 0.786180 -0.436993
vn -0.436988 0.786180 -0.436993
vn -0.436988 0.786180 -0.436993
vn 0.735040 -0.678024 0.000003
vn 0.735040 -0.678024 0.000003
vn 0.735040 -0.678024 0.000003
vn 0.735040 -0.678024 0.000003
vn -0.617989 0.786187 0.000009
vn -0.617989 0.786187 0.000009
vn -0.617989 0.786187 0.000009
vn -0.617989 0.786187 0.000009
vn 0.519753 -0.678019 -0.519757
vn 0.519753 -0.678019 -0.519757
vn 0.519753 -0.678019 -0.519757
vn 0.519753 -0.678019 -0.519757
vn -0.436993 0.786179 0.436989
vn -0.436993 0.786179 0.436989
vn -0.436993 0.786179 0.436989
vn -0.436993 0.786179 0.436989
vn 0.000000 1.000000 0.000000
vn 0.000000 1.000000 0.000000
vn 0.000000 1.000000 0.000000
vn 0.000000 1.000000 -0.000000
vn 0.000000 1.000000 -0.000000
vn 0.000000 1.000000 -0.000000
vn 0.000000 1.000000 0.000000
vn 0.000000 1.000000 0.000000
vn 0.000000 1.000000 0.000000
vn 0.000000 1.000000 0.000000
vn 0.000000 1.000000 0.000000
vn 0.000000 1.000000 0.000000
vn 0.000000 1.000000 0.000000
vn 0.000000 1.000000 0.000000
vn 0.000000 1.000000 0.000000
vn 0.000000 1.000000 0.000000
vn 0.000000 1.000000 0.000000
vn 0.000000 1.000000 0.000000
vn 0.000000 1.000000 0.000000
vn 0.000000 1.000000 0.000000
vn 0.000000 1.000000 0.000000
vn 0.000000 1.000000 0.000000
vn 0.000000 1.000000 0.000000
vn 0.000000 1.000000 0.000000
vn -0.000001 0.949649 -0.313315
vn -0.000001 0.949649 -0.313315
vn -0.000001 0.949649 -0.313315
vn -0.000001 0.949649 -0.313315
vn 0.221547 0.949650 -0.221544
vn 0.221547 0.949650 -0.221544
vn 0.221547 0.949650 -0.221544
vn 0.221547 0.949650 -0.221544
vn 0.313318 0.949648 -0.000002
vn 0.313318 0.949648 -0.000002
vn 0.313318 0.949648 -0.000002
vn 0.313318 0.949648 -0.000002
vn 0.221549 0.949649 0.221546
vn 0.221549 0.949649 0.221546
vn 0.221549 0.949649 0.221546
vn 0.221549 0.949649 0.221546
vn 0.000000 0.949649 0.313316
vn 0.000000 0.949649 0.313316
vn 0.000000 0.949649 0.313316
vn 0.000000 0.949649 0.313316
vn -0.221549 0.949649 0.221546
vn -0.221549 0.949649 0.221546
vn -0.221549 0.949649 0.221546
vn -0.221549 0.949649 0.221546
vn -0.313319 0.949648 0.000004
vn -0.313319 0.949648 0.000004
vn -0.313319 0.949648 0.000004
vn -0.313319 0.949648 0.000004
vn -0.221544 0.949651 -0.221545
vn -0.221544 0.949651 -0.221545
vn -0.221544 0.949651 -0.221545
vn -0.221544 0.949650 -0.221545
vn 0.000000 -0.906327 -0.422576
vn 0.000000 -0.906327 -0.422576
vn 0.000000 -0.906327 -0.422576
vn 0.000000 -0.906327 -0.422576
vn -0.298803 -0.906330 -0.298803
vn -0.298803 -0.906330 -0.298803
vn -0.298803 -0.906330 -0.298803
vn -0.298803 -0.906330 -0.298803
vn -0.422571 -0.906330 -0.000005
vn -0.422571 -0.906330 -0.000005
vn -0.422571 -0.906330 -0.000005
vn -0.422571 -0.906330 -0.000005
vn -0.298797 -0.906332 0.298801
vn -0.298797 -0.906332 0.298801
vn -0.298797 -0.906332 0.298801
vn -0.298797 -0.906332 0.298801
vn 0.000001 -0.906328 0.422575
vn 0.000001 -0.906328 0.422575
vn 0.000001 -0.906328 0.422575
vn 0.000001 -0.906328 0.422575
vn 0.298802 -0.906330 0.298802
vn 0.298802 -0.906330 0.298802
vn 0.298802 -0.906330 0.298802
vn 0.298802 -0.906330 0.298802
vn 0.422571 -0.906330 0.000003
vn 0.422571 -0.906330 0.000003
vn 0.422571 -0.906330 0.000003
vn 0.422571 -0.906330 0.000003
vn 0.298799 -0.906331 -0.298802
vn 0.298799 -0.906331 -0.298802
vn 0.298799 -0.906331 -0.298802
vn 0.298799 -0.906331 -0.298802
vn 0.000000 1.000000 -0.000000
vn 0.000000 1.000000 -0.000000
vn 0.000000 1.000000 -0.000000
vn 0.000000 1.000000 -0.000000
vn 0.935327 0.000000 0.353785
vn 0.935327 0.000000 0.353785
vn 0.935327 0.000000 0.353785
vn 0.935327 0.000000 0.353785
vn 0.000000 -1.000000 -0.000000
vn 0.000000 -1.000000 -0.000000
vn 0.000000 -1.000000 -0.000000
vn 0.000000 -1.000000 -0.000000
vn -0.935327 0.000000 0.353785
vn -0.935327 0.000000 0.353785
vn -0.935327 0.000000 0.353785
vn -0.935327 0.000000 0.353785
s off
f 1/1/1 2/2/2 4/3/3 3/4/4
f 21/23/5 22/24/6 23/25/7 24/26/8
f 5/5/9 6/6/10 8/7/11 7/8/12
f 25/9/13 26/10/14 27/11/15 28/12/16
f 2/2/17 8/7/18 6/6/19 4/3/20
f 7/8/21 1/1/22 3/4/23 5/5/24
f 3/4/25 4/3/26 10/13/27 9/14/28
f 4/3/29 6/6/30 11/15/31 10/13/32
f 6/6/33 5/5/34 12/16/35 11/15/36
f 5/5/37 3/4/38 9/14/39 12/16/40
f 9/14/41 10/13/42 14/17/43 13/18/44
f 10/13/45 11/15/46 15/19/47 14/17/48
f 11/15/49 12/16/50 16/20/51 15/19/52
f 12/16/53 9/14/54 13/18/55 16/20/56
f 13/27/57 14/28/58 18/29/59 17/30/60
f 14/28/61 15/32/62 19/31/63 18/29/64
f 15/32/65 16/22/66 20/21/67 19/31/68
f 16/22/69 13/27/70 17/30/71 20/21/72
f 79/105/73 80/106/74 22/24/75 21/23/76
f 80/106/77 81/107/78 23/25/79 22/24/80
f 81/107/81 82/108/82 24/26/83 23/25/84
f 82/108/85 79/105/86 21/23/87 24/26/88
f 7/8/89 8/7/90 26/10/91 25/9/92
f 8/7/93 2/2/94 27/11/95 26/10/96
f 2/2/97 1/1/98 28/12/99 27/11/100
f 1/1/101 7/8/102 25/9/103 28/12/104
f 46/35/105 47/36/106 48/37/107 49/38/108
f 47/36/109 50/39/110 51/40/111 48/37/112
f 50/39/113 52/41/114 53/42/115 51/40/116
f 52/41/117 54/43/118 55/44/119 53/42/120
f 54/43/121 56/45/122 57/46/123 55/44/124
f 56/45/125 58/47/126 59/48/127 57/46/128
f 58/47/129 60/49/130 61/50/131 59/48/132
f 60/49/133 46/51/134 49/52/135 61/50/136
f 30/53/137 29/54/138 45/55/139
f 31/56/140 30/53/141 45/55/142
f 32/57/143 31/56/144 45/55/145
f 33/58/146 32/57/147 45/55/148
f 34/59/149 33/58/150 45/55/151
f 35/60/152 34/59/153 45/55/154
f 36/61/155 35/60/156 45/55/157
f 29/54/158 36/61/159 45/55/160
f 71/97/161 72/98/162 47/36/163 46/35/164
f 67/91/165 68/92/166 49/38/167 48/37/168
f 72/98/169 73/99/170 50/39/171 47/36/172
f 66/90/173 67/91/174 48/37/175 51/40/176
f 73/99/177 74/100/178 52/41/179 50/39/180
f 65/89/181 66/90/182 51/40/183 53/42/184
f 74/100/185 75/101/186 54/43/187 52/41/188
f 64/88/189 65/89/190 53/42/191 55/44/192
f 75/101/193 76/102/194 56/45/195 54/43/196
f 63/87/197 64/88/198 55/44/199 57/46/200
f 76/102/201 77/103/202 58/47/203 56/45/204
f 70/95/205 63/87/206 57/46/207 59/48/208
f 77/103/209 78/104/210 60/49/211 58/47/212
f 69/94/213 70/95/214 59/48/215 61/50/216
f 78/104/217 71/96/218 46/51/219 60/49/220
f 68/93/221 69/94/222 61/50/223 49/52/224
f 37/80/225 38/81/226 62/82/227
f 38/81/228 39/83/229 62/82/230
f 39/83/231 40/84/232 62/82/233
f 40/84/234 41/85/235 62/82/236
f 41/85/237 42/86/238 62/82/239
f 42/86/240 43/34/241 62/82/242
f 43/34/243 44/33/244 62/82/245
f 44/33/246 37/80/247 62/82/248
f 42/73/249 41/71/250 64/88/251 63/87/252
f 41/71/253 40/69/254 65/89/255 64/88/256
f 40/69/257 39/67/258 66/90/259 65/89/260
f 39/67/261 38/64/262 67/91/263 66/90/264
f 38/64/265 37/65/266 68/92/267 67/91/268
f 37/79/269 44/77/270 69/94/271 68/93/272
f 44/77/273 43/75/274 70/95/275 69/94/276
f 43/75/277 42/73/278 63/87/279 70/95/280
f 29/62/281 30/63/282 72/98/283 71/97/284
f 30/63/285 31/66/286 73/99/287 72/98/288
f 31/66/289 32/68/290 74/100/291 73/99/292
f 32/68/293 33/70/294 75/101/295 74/100/296
f 33/70/297 34/72/298 76/102/299 75/101/300
f 34/72/301 35/74/302 77/103/303 76/102/304
f 35/74/305 36/76/306 78/104/307 77/103/308
f 36/76/309 29/78/310 71/96/311 78/104/312
f 17/30/313 18/29/314 80/106/315 79/105/316
f 18/29/317 19/31/318 81/107/319 80/106/320
f 19/31/321 20/21/322 82/108/323 81/107/324
f 20/21/325 17/30/326 79/105/327 82/108/328
