# This file uses meters as units for non-parametric coordinates.

v -24.647999 44.575062 -80.009552
v -42.202618 44.575062 -62.455177
v -24.647999 54.295982 -80.009552
v -42.202618 54.295982 -62.455177
v -24.648094 44.575062 80.009552
v -42.202618 44.575062 62.454987
v -24.648094 54.295982 80.009552
v -42.202618 54.295982 62.454987
v 24.647999 54.295982 -80.009552
v 42.202518 54.295982 -62.455177
v 24.647999 44.575062 -80.009552
v 42.202518 44.575062 -62.455177
v 42.202518 54.295982 62.455009
v 24.648094 54.295982 80.009552
v 24.648094 44.575062 80.009552
v 42.202518 44.575062 62.455009
v -36.370373 54.295982 -58.661171
v -21.241808 54.295982 -73.302986
v -36.370323 54.295982 58.661125
v -21.241903 54.295982 73.302887
v 21.241808 54.295982 73.302895
v 36.370422 54.295982 58.661102
v 36.370373 54.295982 -58.661171
v 21.241903 54.295982 -73.302979
v -34.477806 53.156746 -56.895020
v -20.136404 53.156746 -71.218582
v -34.477802 53.156746 56.895111
v -20.136404 53.156746 71.218590
v 20.136499 53.156746 71.218582
v 34.477806 53.156746 56.895111
v 34.477806 53.156746 -56.895020
v 20.136499 53.156746 -71.218590
v -41.324810 45.829929 -63.332844
v -25.525761 45.829929 -79.131836
v -41.324810 53.041119 -63.332844
v -25.525761 53.041119 -79.131836
v -25.525761 45.829929 79.131889
v -41.324757 45.829929 63.332794
v -25.525761 53.041119 79.131889
v -41.324757 53.041119 63.332794
v 41.324810 53.041119 -63.332844
v 25.525761 53.041119 -79.131844
v 41.324810 45.829929 -63.332844
v 25.525761 45.829929 -79.131844
v 25.525761 53.041119 79.131912
v 41.324856 53.041119 63.332794
v 25.525761 45.829929 79.131912
v 41.324856 45.829929 63.332794
v -41.309925 47.228958 -66.214561
v -28.407431 47.228958 -79.117058
v -41.309925 51.642097 -66.214561
v -28.407431 51.642097 -79.117058
v -28.407570 47.228958 79.117111
v -41.310024 47.228958 66.214561
v -28.407570 51.642097 79.117111
v -41.310024 51.642097 66.214561
v 41.309925 51.642097 -66.214561
v 28.407526 51.642097 -79.117065
v 41.309925 47.228958 -66.214561
v 28.407526 47.228958 -79.117065
v 28.407574 51.642097 79.117104
v 41.310024 51.642097 66.214561
v 28.407574 47.228958 79.117104
v 41.310024 47.228958 66.214561
v -11.979818 0.000000 -43.995808
v -20.512009 0.000000 -32.603737
v -11.979866 0.000000 43.995762
v -20.511913 0.000000 32.603554
v 11.979914 0.000000 -43.995808
v 20.512009 0.000000 -32.603741
v 11.979866 0.000000 43.995762
v 20.511913 0.000000 32.603550
v 11.687231 4.649049 -43.469955
v -11.687136 4.649049 -43.469955
v -20.010996 4.649049 -32.167816
v -20.010948 4.649049 32.167675
v -11.687182 4.649049 43.469906
v 11.687183 4.649049 43.469906
v 20.010948 4.649049 32.167671
v 20.010900 4.649049 -32.167816
v -25.195503 0.000000 20.259762
v -25.195599 0.000000 28.112745
v -18.752623 7.538623 21.587944
v -18.752527 7.538623 29.440975
v 18.752527 7.538623 21.587944
v 18.752623 7.538623 29.440973
v 25.195503 0.000000 20.259762
v 25.195599 0.000000 28.112745
v -40.025711 44.575062 28.149366
v -40.025806 44.575062 36.002396
v -31.545544 44.575062 36.002396
v -31.545448 44.575062 28.149366
v 31.545448 44.575062 28.149366
v 31.545544 44.575062 36.002399
v 40.025806 44.575062 36.002399
v 40.025711 44.575062 28.149366
v -25.195599 0.000000 -20.259762
v -25.195503 0.000000 -28.112745
v -18.752623 7.538623 -21.587944
v -18.752527 7.538623 -29.440973
v 18.752527 7.538623 -21.587944
v 18.752623 7.538623 -29.440975
v 25.195599 0.000000 -20.259762
v 25.195503 0.000000 -28.112745
v -40.025806 44.575062 -28.149366
v -40.025711 44.575062 -36.002399
v -31.545450 44.575062 -36.002399
v -31.545544 44.575062 -28.149366
v 31.545544 44.575062 -28.149366
v 31.545448 44.575062 -36.002396
v 40.025711 44.575062 -36.002396
v 40.025806 44.575062 -28.149366
vt 0.271315 0.305147
vt 0.271315 0.305147
vt 0.271315 0.305147
vt 0.271315 0.305147
vt 0.245116 0.281518
vt 0.245116 0.281518
vt 0.245116 0.281518
vt 0.245116 0.281518
vt 0.271315 0.305147
vt 0.271315 0.305147
vt 0.271315 0.305147
vt 0.271315 0.305147
vt 0.271315 0.305147
vt 0.271315 0.305147
vt 0.271315 0.305147
vt 0.271315 0.305147
vt 0.271315 0.305147
vt 0.271315 0.305147
vt 0.271315 0.305147
vt 0.271315 0.305147
vt 0.271315 0.305147
vt 0.271315 0.305147
vt 0.271315 0.305147
vt 0.271315 0.305147
vt 0.271315 0.305147
vt 0.271315 0.305147
vt 0.271315 0.305147
vt 0.271315 0.305147
vt 0.271315 0.305147
vt 0.271315 0.305147
vt 0.271315 0.305147
vt 0.271315 0.305147
vt 0.271315 0.305147
vt 0.271315 0.305147
vt 0.245116 0.281518
vt 0.271315 0.305147
vt 0.271315 0.305147
vt 0.271315 0.305147
vt 0.271315 0.305147
vt 0.271315 0.305147
vt 0.271315 0.305147
vt 0.271315 0.305147
vt 0.271315 0.305147
vt 0.271315 0.305147
vt 0.271315 0.305147
vt 0.271315 0.305147
vt 0.271315 0.305147
vt 0.271315 0.305147
vt 0.271315 0.305147
vt 0.271315 0.305147
vt 0.271315 0.305147
vt 0.271315 0.305147
vt 0.271315 0.305147
vt 0.271315 0.305147
vt 0.271315 0.305147
vt 0.271315 0.305147
vt 0.271315 0.305147
vt 0.271315 0.305147
vt 0.233371 0.279185
vt 0.233371 0.279185
vt 0.233371 0.279185
vt 0.233371 0.279185
vt 0.233371 0.279185
vt 0.233371 0.279185
vt 0.233371 0.279185
vt 0.233371 0.279185
vt 0.233371 0.279185
vt 0.233371 0.279185
vt 0.233371 0.279185
vt 0.233371 0.279185
vt 0.233371 0.279185
vt 0.233371 0.279185
vt 0.233371 0.279185
vt 0.233371 0.279185
vt 0.271315 0.305147
vt 0.271315 0.305147
vt 0.271315 0.305147
vt 0.271315 0.305147
vt 0.271315 0.305147
vt 0.271315 0.305147
vt 0.271315 0.305147
vt 0.271315 0.305147
vt 0.271315 0.305147
vt 0.271315 0.305147
vt 0.271315 0.305147
vt 0.271315 0.305147
vt 0.271315 0.305147
vt 0.271315 0.305147
vt 0.271315 0.305147
vt 0.271315 0.305147
vt 0.271315 0.305147
vt 0.271315 0.305147
vt 0.271315 0.305147
vt 0.271315 0.305147
vt 0.271315 0.305147
vt 0.271315 0.305147
vt 0.271315 0.305147
vt 0.271315 0.305147
vt 0.244022 0.353077
vt 0.244022 0.353077
vt 0.244022 0.353077
vt 0.244022 0.353077
vt 0.244022 0.353077
vt 0.244022 0.353077
vt 0.244022 0.353077
vt 0.244022 0.353077
vt 0.244022 0.353077
vt 0.244022 0.353077
vt 0.244022 0.353077
vt 0.244022 0.353077
vt 0.244022 0.353077
vt 0.244022 0.353077
vt 0.244022 0.353077
vt 0.244022 0.353077
vt 0.244022 0.353077
vt 0.244022 0.353077
vt 0.244022 0.353077
vt 0.244022 0.353077
vt 0.244022 0.353077
vt 0.244022 0.353077
vt 0.244022 0.353077
vt 0.244022 0.353077
vt 0.244022 0.353077
vt 0.244022 0.353077
vt 0.244022 0.353077
vt 0.244022 0.353077
vt 0.244022 0.353077
vt 0.244022 0.353077
vt 0.244022 0.353077
vt 0.244022 0.353077
vt 0.233371 0.279185
vt 0.233371 0.279185
vt 0.233371 0.279185
vt 0.233371 0.279185
vt 0.233371 0.279185
vt 0.233371 0.279185
vt 0.233371 0.279185
vt 0.233371 0.279185
vt 0.233371 0.279185
vt 0.233371 0.279185
vt 0.233371 0.279185
vt 0.233371 0.279185
vt 0.271315 0.305147
vt 0.245116 0.281518
vt 0.245116 0.281518
vt 0.245116 0.281518
vt 0.270650 0.228593
vt 0.270650 0.228593
vt 0.270650 0.228593
vt 0.270650 0.228593
vt 0.233371 0.279185
vt 0.233371 0.279185
vt 0.233371 0.279185
vt 0.233371 0.279185
vt 0.270650 0.228593
vt 0.270650 0.228593
vt 0.270650 0.228593
vt 0.270650 0.228593
vn -1.000000 0.000000 0.000000
vn -1.000000 0.000000 0.000000
vn -1.000000 0.000000 0.000000
vn -1.000000 0.000000 0.000000
vn 1.000000 0.000000 0.000000
vn 1.000000 0.000000 0.000000
vn 1.000000 0.000000 0.000000
vn 1.000000 0.000000 0.000000
vn 0.000000 0.000000 1.000000
vn 0.000000 0.000000 1.000000
vn 0.000000 0.000000 1.000000
vn 0.000000 0.000000 1.000000
vn 0.000000 0.000000 -1.000000
vn 0.000000 0.000000 -1.000000
vn 0.000000 0.000000 -1.000000
vn 0.000000 0.000000 -1.000000
vn 0.000000 1.000000 0.000000
vn 0.000000 1.000000 0.000000
vn 0.000000 1.000000 0.000000
vn 0.000000 1.000000 0.000000
vn 0.000000 1.000000 0.000000
vn 0.000000 1.000000 0.000000
vn 0.000000 1.000000 0.000000
vn 0.000000 1.000000 0.000000
vn 0.000000 -1.000000 0.000000
vn 0.000000 -1.000000 0.000000
vn 0.000000 -1.000000 0.000000
vn 0.000000 -1.000000 0.000000
vn 0.000000 -1.000000 0.000000
vn 0.000000 -1.000000 0.000000
vn 0.000000 -1.000000 0.000000
vn 0.000000 -1.000000 0.000000
vn -0.707107 0.000000 -0.707107
vn -0.707107 0.000000 -0.707107
vn -0.707107 0.000000 -0.707107
vn -0.707107 0.000000 -0.707107
vn -0.707110 0.000000 0.707104
vn -0.707110 0.000000 0.707104
vn -0.707110 0.000000 0.707104
vn -0.707110 0.000000 0.707104
vn 0.707110 0.000000 -0.707104
vn 0.707110 0.000000 -0.707104
vn 0.707110 0.000000 -0.707104
vn 0.707110 0.000000 -0.707104
vn 0.707109 0.000000 0.707104
vn 0.707109 0.000000 0.707104
vn 0.707109 0.000000 0.707104
vn 0.707109 0.000000 0.707104
vn 0.000000 1.000000 -0.000000
vn 0.000000 1.000000 -0.000000
vn 0.000000 1.000000 -0.000000
vn 0.000000 1.000000 -0.000000
vn 0.000000 1.000000 -0.000000
vn 0.000000 1.000000 -0.000000
vn 0.000000 1.000000 -0.000000
vn 0.000000 1.000000 -0.000000
vn 0.000000 1.000000 0.000000
vn 0.000000 1.000000 0.000000
vn 0.000000 1.000000 0.000000
vn 0.000000 1.000000 0.000000
vn 0.000000 1.000000 0.000000
vn 0.000000 1.000000 0.000000
vn 0.000000 1.000000 0.000000
vn 0.000000 1.000000 0.000000
vn 0.000000 1.000000 -0.000000
vn 0.000000 1.000000 -0.000000
vn 0.000000 1.000000 -0.000000
vn 0.000000 1.000000 -0.000000
vn 0.000000 1.000000 0.000000
vn 0.000000 1.000000 0.000000
vn 0.000000 1.000000 0.000000
vn 0.000000 1.000000 0.000000
vn 0.000000 1.000000 -0.000000
vn 0.000000 1.000000 -0.000000
vn 0.000000 1.000000 -0.000000
vn 0.000000 1.000000 -0.000000
vn 0.000000 1.000000 0.000001
vn 0.000000 1.000000 0.000001
vn 0.000000 1.000000 0.000001
vn 0.000000 1.000000 0.000001
vn 0.298175 0.905019 0.303369
vn 0.298175 0.905019 0.303369
vn 0.298175 0.905019 0.303369
vn 0.298175 0.905019 0.303369
vn 0.515731 0.856751 -0.000000
vn 0.515731 0.856751 -0.000000
vn 0.515731 0.856751 -0.000000
vn 0.515731 0.856751 -0.000000
vn 0.298182 0.905014 -0.303377
vn 0.298182 0.905014 -0.303377
vn 0.298182 0.905014 -0.303377
vn 0.298182 0.905014 -0.303377
vn 0.000000 0.877481 -0.479611
vn 0.000000 0.877481 -0.479611
vn 0.000000 0.877481 -0.479611
vn 0.000000 0.877481 -0.479611
vn -0.298186 0.905012 -0.303380
vn -0.298186 0.905012 -0.303380
vn -0.298186 0.905012 -0.303380
vn -0.298186 0.905012 -0.303380
vn -0.515720 0.856757 0.000000
vn -0.515720 0.856757 0.000000
vn -0.515720 0.856757 0.000000
vn -0.515720 0.856757 0.000000
vn -0.298177 0.905018 0.303369
vn -0.298177 0.905018 0.303369
vn -0.298177 0.905018 0.303369
vn -0.298177 0.905018 0.303369
vn 0.000000 0.877490 0.479594
vn 0.000000 0.877490 0.479594
vn 0.000000 0.877490 0.479594
vn 0.000000 0.877490 0.479594
vn -0.707099 0.000020 -0.707114
vn -0.707089 0.000020 -0.707124
vn -0.707089 0.000020 -0.707124
vn -0.707099 0.000020 -0.707114
vn -0.707089 0.000020 -0.707124
vn -0.707090 -0.000020 -0.707124
vn -0.707089 -0.000020 -0.707124
vn -0.707089 0.000020 -0.707124
vn -0.707090 -0.000020 -0.707124
vn -0.707100 -0.000020 -0.707114
vn -0.707099 -0.000020 -0.707114
vn -0.707089 -0.000020 -0.707124
vn -0.707100 -0.000020 -0.707114
vn -0.707099 0.000020 -0.707114
vn -0.707099 0.000020 -0.707114
vn -0.707099 -0.000020 -0.707114
vn -0.707103 0.000009 0.707111
vn -0.707107 0.000009 0.707106
vn -0.707107 0.000009 0.707106
vn -0.707103 0.000009 0.707111
vn -0.707107 0.000009 0.707106
vn -0.707108 -0.000010 0.707106
vn -0.707108 -0.000010 0.707106
vn -0.707107 0.000009 0.707106
vn -0.707108 -0.000010 0.707106
vn -0.707103 -0.000010 0.707111
vn -0.707103 -0.000010 0.707111
vn -0.707108 -0.000010 0.707106
vn -0.707103 -0.000010 0.707111
vn -0.707103 0.000009 0.707111
vn -0.707103 0.000009 0.707111
vn -0.707103 -0.000010 0.707111
vn 0.707099 0.000001 -0.707114
vn 0.707101 0.000001 -0.707113
vn 0.707101 0.000001 -0.707113
vn 0.707099 0.000001 -0.707114
vn 0.707101 0.000001 -0.707113
vn 0.707100 -0.000002 -0.707113
vn 0.707100 -0.000002 -0.707113
vn 0.707101 0.000001 -0.707113
vn 0.707100 -0.000002 -0.707113
vn 0.707099 -0.000002 -0.707115
vn 0.707099 -0.000002 -0.707115
vn 0.707100 -0.000002 -0.707113
vn 0.707099 -0.000002 -0.707115
vn 0.707099 0.000001 -0.707114
vn 0.707099 0.000001 -0.707114
vn 0.707099 -0.000002 -0.707115
vn 0.707121 0.000030 0.707092
vn 0.707106 0.000030 0.707108
vn 0.707106 0.000030 0.707108
vn 0.707121 0.000030 0.707092
vn 0.707106 0.000030 0.707108
vn 0.707105 -0.000031 0.707108
vn 0.707105 -0.000031 0.707108
vn 0.707106 0.000030 0.707108
vn 0.707105 -0.000031 0.707108
vn 0.707121 -0.000031 0.707093
vn 0.707121 -0.000031 0.707092
vn 0.707105 -0.000031 0.707108
vn 0.707121 -0.000031 0.707093
vn 0.707121 0.000030 0.707092
vn 0.707121 0.000030 0.707092
vn 0.707121 -0.000031 0.707092
vn -0.401637 -0.823028 -0.401638
vn -0.401637 -0.823028 -0.401637
vn -0.401637 -0.823028 -0.401637
vn -0.401637 -0.823028 -0.401637
vn -0.999987 0.000000 -0.005165
vn -0.999987 0.000000 -0.005165
vn -0.999987 0.000000 -0.005165
vn -0.999987 0.000000 -0.005165
vn -0.401636 0.823029 -0.401637
vn -0.401636 0.823029 -0.401637
vn -0.401636 0.823029 -0.401637
vn -0.401636 0.823029 -0.401637
vn -0.005127 0.000000 -0.999987
vn -0.005127 0.000000 -0.999987
vn -0.005127 0.000000 -0.999987
vn -0.005127 0.000000 -0.999987
vn -0.401623 -0.823043 0.401621
vn -0.401623 -0.823043 0.401621
vn -0.401623 -0.823043 0.401621
vn -0.401623 -0.823043 0.401621
vn -0.005127 0.000000 0.999987
vn -0.005127 0.000000 0.999987
vn -0.005127 0.000000 0.999987
vn -0.005127 0.000000 0.999987
vn -0.401621 0.823045 0.401618
vn -0.401621 0.823045 0.401618
vn -0.401621 0.823045 0.401618
vn -0.401621 0.823045 0.401618
vn -0.999987 0.000000 0.005112
vn -0.999987 0.000000 0.005112
vn -0.999987 0.000000 0.005112
vn -0.999987 0.000000 0.005112
vn 0.401631 0.823034 -0.401631
vn 0.401631 0.823034 -0.401631
vn 0.401631 0.823034 -0.401631
vn 0.401631 0.823034 -0.401631
vn 0.999987 0.000000 -0.005165
vn 0.999987 0.000000 -0.005165
vn 0.999987 0.000000 -0.005165
vn 0.999987 0.000000 -0.005165
vn 0.401633 -0.823032 -0.401632
vn 0.401633 -0.823032 -0.401632
vn 0.401633 -0.823032 -0.401632
vn 0.401633 -0.823032 -0.401632
vn 0.005129 0.000000 -0.999987
vn 0.005129 0.000000 -0.999987
vn 0.005129 0.000000 -0.999987
vn 0.005129 0.000000 -0.999987
vn 0.401627 0.823039 0.401625
vn 0.401627 0.823039 0.401625
vn 0.401627 0.823039 0.401625
vn 0.401627 0.823039 0.401625
vn 0.005136 0.000000 0.999987
vn 0.005136 0.000000 0.999987
vn 0.005136 0.000000 0.999987
vn 0.005136 0.000000 0.999987
vn 0.401628 -0.823037 0.401627
vn 0.401628 -0.823037 0.401627
vn 0.401628 -0.823037 0.401627
vn 0.401628 -0.823037 0.401627
vn 0.999987 0.000000 0.005147
vn 0.999987 0.000000 0.005147
vn 0.999987 0.000000 0.005147
vn 0.999987 0.000000 0.005147
vn 0.000000 1.000000 -0.000000
vn 0.000000 1.000000 -0.000000
vn 0.000000 1.000000 -0.000000
vn 0.000000 1.000000 -0.000000
vn 0.000000 1.000000 -0.000000
vn 0.000000 1.000000 -0.000000
vn 0.000000 1.000000 -0.000000
vn 0.000000 1.000000 -0.000000
vn 0.000000 -1.000000 0.000000
vn 0.000000 -1.000000 0.000000
vn 0.000000 -1.000000 0.000000
vn 0.000000 -1.000000 0.000000
vn 0.000000 -1.000000 0.000000
vn 0.000000 -1.000000 0.000000
vn 0.000000 -1.000000 0.000000
vn 0.000000 -1.000000 0.000000
vn 0.000000 0.112393 -0.993664
vn 0.000000 0.112393 -0.993664
vn 0.000000 0.112393 -0.993664
vn 0.000000 0.112393 -0.993664
vn -0.796067 0.129114 -0.591276
vn -0.796067 0.129113 -0.591276
vn -0.796067 0.129113 -0.591276
vn -0.796067 0.129113 -0.591276
vn -0.994244 0.107141 0.000001
vn -0.994244 0.107141 0.000001
vn -0.994244 0.107141 0.000001
vn -0.994244 0.107141 0.000001
vn -0.796075 0.129106 0.591267
vn -0.796075 0.129106 0.591267
vn -0.796075 0.129106 0.591267
vn -0.796075 0.129106 0.591267
vn 0.000000 0.112394 0.993664
vn 0.000000 0.112394 0.993664
vn 0.000000 0.112394 0.993664
vn 0.000000 0.112394 0.993664
vn 0.796075 0.129106 0.591267
vn 0.796075 0.129106 0.591267
vn 0.796075 0.129106 0.591267
vn 0.796075 0.129106 0.591267
vn 0.994243 0.107151 0.000000
vn 0.994243 0.107151 0.000000
vn 0.994243 0.107151 0.000000
vn 0.994243 0.107151 0.000000
vn 0.796071 0.129121 -0.591269
vn 0.796071 0.129121 -0.591269
vn 0.796071 0.129121 -0.591269
vn 0.796071 0.129121 -0.591269
vn 0.000000 1.000000 0.000000
vn 0.000000 1.000000 0.000000
vn 0.000000 1.000000 0.000000
vn 0.000000 1.000000 0.000000
vn 0.000000 -1.000000 0.000000
vn 0.000000 -1.000000 0.000000
vn 0.000000 -1.000000 0.000000
vn 0.000000 -1.000000 0.000000
vn 0.000000 -0.173517 0.984831
vn 0.000000 -0.173517 0.984831
vn 0.000000 -0.173517 0.984831
vn 0.000000 -0.173517 0.984831
vn 0.000000 0.173511 -0.984832
vn 0.000000 0.173511 -0.984832
vn 0.000000 0.173511 -0.984832
vn 0.000000 0.173511 -0.984832
vn -0.948864 -0.315687 -0.000011
vn -0.948864 -0.315687 -0.000011
vn -0.948864 -0.315687 -0.000011
vn -0.948864 -0.315687 -0.000011
vn 0.000375 -0.174236 0.984704
vn 0.000375 -0.174236 0.984704
vn 0.000375 -0.174236 0.984704
vn 0.000375 -0.174236 0.984704
vn 0.945202 0.326486 0.000000
vn 0.945202 0.326486 0.000000
vn 0.945202 0.326486 0.000000
vn 0.945202 0.326486 0.000000
vn -0.000377 0.174235 -0.984704
vn -0.000377 0.174235 -0.984704
vn -0.000377 0.174235 -0.984704
vn -0.000377 0.174235 -0.984704
vn -0.945203 0.326485 0.000011
vn -0.945203 0.326485 0.000011
vn -0.945203 0.326485 0.000011
vn -0.945203 0.326485 0.000011
vn -0.000375 -0.174236 0.984704
vn -0.000375 -0.174236 0.984704
vn -0.000375 -0.174236 0.984704
vn -0.000375 -0.174236 0.984704
vn 0.948864 -0.315687 -0.000011
vn 0.948864 -0.315687 -0.000011
vn 0.948864 -0.315687 -0.000011
vn 0.948864 -0.315687 -0.000011
vn 0.000377 0.174235 -0.984704
vn 0.000377 0.174235 -0.984704
vn 0.000377 0.174235 -0.984704
vn 0.000377 0.174235 -0.984704
vn 0.000000 1.000000 -0.000000
vn 0.000000 1.000000 -0.000000
vn 0.000000 1.000000 -0.000000
vn 0.000000 1.000000 -0.000000
vn 0.000000 -1.000000 0.000000
vn 0.000000 -1.000000 0.000000
vn 0.000000 -1.000000 0.000000
vn 0.000000 -1.000000 0.000000
vn 0.000000 -0.173517 -0.984831
vn 0.000000 -0.173517 -0.984831
vn 0.000000 -0.173517 -0.984831
vn 0.000000 -0.173517 -0.984831
vn 0.000000 0.173511 0.984832
vn 0.000000 0.173511 0.984832
vn 0.000000 0.173511 0.984832
vn 0.000000 0.173511 0.984832
vn -0.948862 -0.315690 -0.000011
vn -0.948862 -0.315690 -0.000011
vn -0.948862 -0.315690 -0.000011
vn -0.948862 -0.315690 -0.000011
vn 0.000374 -0.174236 -0.984704
vn 0.000374 -0.174236 -0.984704
vn 0.000374 -0.174236 -0.984704
vn 0.000374 -0.174236 -0.984704
vn 0.945201 0.326488 0.000011
vn 0.945201 0.326488 0.000011
vn 0.945201 0.326488 0.000011
vn 0.945201 0.326488 0.000011
vn -0.000377 0.174235 0.984704
vn -0.000377 0.174235 0.984704
vn -0.000377 0.174235 0.984704
vn -0.000377 0.174235 0.984704
vn -0.945202 0.326486 -0.000000
vn -0.945202 0.326486 -0.000000
vn -0.945202 0.326486 -0.000000
vn -0.945202 0.326486 -0.000000
vn -0.000374 -0.174236 -0.984704
vn -0.000374 -0.174236 -0.984704
vn -0.000374 -0.174236 -0.984704
vn -0.000374 -0.174236 -0.984704
vn 0.948862 -0.315690 -0.000011
vn 0.948862 -0.315690 -0.000011
vn 0.948862 -0.315690 -0.000011
vn 0.948862 -0.315690 -0.000011
vn 0.000377 0.174235 0.984704
vn 0.000377 0.174235 0.984704
vn 0.000377 0.174235 0.984704
vn 0.000377 0.174235 0.984704
s off
f 4/9/1 2/19/2 6/10/3 8/22/4
f 12/14/5 10/23/6 13/15/7 16/26/8
f 7/16/9 5/21/10 15/17/11 14/18/12
f 9/11/13 11/12/14 1/13/15 3/20/16
f 26/5/17 25/6/18 27/7/19 28/8/20 29/35/21 30/144/22 31/145/23 32/146/24
f 11/147/25 12/148/26 16/149/27 15/150/28 5/155/29 6/156/30 2/157/31 1/158/32
f 50/59/33 49/60/34 51/61/35 52/62/36
f 54/63/37 53/64/38 55/65/39 56/66/40
f 58/67/41 57/68/42 59/69/43 60/70/44
f 62/71/45 61/72/46 63/73/47 64/74/48
f 3/1/49 4/9/50 17/28/51 18/27/52
f 4/9/53 8/22/54 19/29/55 17/28/56
f 8/22/57 7/2/58 20/30/59 19/29/60
f 7/2/61 14/25/62 21/31/63 20/30/64
f 14/25/65 13/15/66 22/32/67 21/31/68
f 13/15/69 10/23/70 23/33/71 22/32/72
f 10/23/73 9/3/74 24/34/75 23/33/76
f 9/3/77 3/1/78 18/27/79 24/34/80
f 18/27/81 17/28/82 25/36/83 26/143/84
f 17/28/85 19/29/86 27/37/87 25/36/88
f 19/29/89 20/30/90 28/38/91 27/37/92
f 20/30/93 21/31/94 29/39/95 28/38/96
f 21/31/97 22/32/98 30/40/99 29/39/100
f 22/32/101 23/33/102 31/41/103 30/40/104
f 23/33/105 24/34/106 32/42/107 31/41/108
f 24/34/109 18/27/110 26/143/111 32/42/112
f 1/13/113 2/19/114 33/44/115 34/43/116
f 2/19/117 4/9/118 35/45/119 33/44/120
f 4/9/121 3/20/122 36/46/123 35/45/124
f 3/20/125 1/13/126 34/43/127 36/46/128
f 6/10/129 5/21/130 37/48/131 38/47/132
f 5/21/133 7/16/134 39/49/135 37/48/136
f 7/16/137 8/22/138 40/50/139 39/49/140
f 8/22/141 6/10/142 38/47/143 40/50/144
f 9/3/145 10/23/146 41/52/147 42/51/148
f 10/23/149 12/14/150 43/53/151 41/52/152
f 12/14/153 11/24/154 44/54/155 43/53/156
f 11/24/157 9/3/158 42/51/159 44/54/160
f 13/15/161 14/25/162 45/56/163 46/55/164
f 14/25/165 15/4/166 47/57/167 45/56/168
f 15/4/169 16/26/170 48/58/171 47/57/172
f 16/26/173 13/15/174 46/55/175 48/58/176
f 34/151/177 33/152/178 49/60/179 50/59/180
f 33/152/181 35/153/182 51/61/183 49/60/184
f 35/153/185 36/154/186 52/62/187 51/61/188
f 36/154/189 34/151/190 50/59/191 52/62/192
f 38/142/193 37/141/194 53/64/195 54/63/196
f 37/141/197 39/140/198 55/65/199 53/64/200
f 39/140/201 40/139/202 56/66/203 55/65/204
f 40/139/205 38/142/206 54/63/207 56/66/208
f 42/138/209 41/137/210 57/68/211 58/67/212
f 41/137/213 43/136/214 59/69/215 57/68/216
f 43/136/217 44/135/218 60/70/219 59/69/220
f 44/135/221 42/138/222 58/67/223 60/70/224
f 46/134/225 45/133/226 61/72/227 62/71/228
f 45/133/229 47/132/230 63/73/231 61/72/232
f 47/132/233 48/131/234 64/74/235 63/73/236
f 48/131/237 46/134/238 62/71/239 64/74/240
f 73/75/241 74/76/242 75/77/243 76/78/244 77/79/245 78/80/246 79/81/247 80/82/248
f 69/83/249 70/84/250 72/85/251 71/86/252 67/87/253 68/88/254 66/89/255 65/90/256
f 69/91/257 65/92/258 74/76/259 73/75/260
f 65/92/261 66/93/262 75/77/263 74/76/264
f 66/93/265 68/94/266 76/78/267 75/77/268
f 68/94/269 67/95/270 77/79/271 76/78/272
f 67/95/273 71/96/274 78/80/275 77/79/276
f 71/96/277 72/97/278 79/81/279 78/80/280
f 72/97/281 70/98/282 80/82/283 79/81/284
f 70/98/285 69/91/286 73/75/287 80/82/288
f 83/99/289 84/100/290 86/101/291 85/102/292
f 87/103/293 88/104/294 82/105/295 81/106/296
f 82/105/297 88/104/298 86/101/299 84/100/300
f 87/103/301 81/106/302 83/99/303 85/102/304
f 81/106/305 82/105/306 90/107/307 89/108/308
f 82/105/309 84/100/310 91/109/311 90/107/312
f 84/100/313 83/99/314 92/110/315 91/109/316
f 83/99/317 81/106/318 89/108/319 92/110/320
f 85/102/321 86/101/322 94/111/323 93/112/324
f 86/101/325 88/104/326 95/113/327 94/111/328
f 88/104/329 87/103/330 96/114/331 95/113/332
f 87/103/333 85/102/334 93/112/335 96/114/336
f 99/115/337 101/116/338 102/117/339 100/118/340
f 103/119/341 97/120/342 98/121/343 104/122/344
f 98/121/345 100/118/346 102/117/347 104/122/348
f 103/119/349 101/116/350 99/115/351 97/120/352
f 97/120/353 105/123/354 106/124/355 98/121/356
f 98/121/357 106/124/358 107/125/359 100/118/360
f 100/118/361 107/125/362 108/126/363 99/115/364
f 99/115/365 108/126/366 105/123/367 97/120/368
f 101/116/369 109/127/370 110/128/371 102/117/372
f 102/117/373 110/128/374 111/129/375 104/122/376
f 104/122/377 111/129/378 112/130/379 103/119/380
f 103/119/381 112/130/382 109/127/383 101/116/384
