# This file uses meters as units for non-parametric coordinates.

v -102.355957 3.567040 155.699448
v 103.532982 3.567040 153.876724
v -104.285049 3.567040 -169.887863
v 107.999329 3.567040 -167.551422
v -110.048103 3.567040 163.226074
v 111.056709 3.567040 161.570816
v -111.809731 3.567040 -177.581909
v 115.690613 3.567040 -175.078079
v -122.272209 3.567040 175.958023
v 122.998337 3.567040 174.568558
v -123.750687 3.567040 -190.579742
v 127.915192 3.567040 -187.809860
v -12.489414 3.567040 168.602600
v 105.498024 3.567040 59.704914
v -20.639324 3.567040 176.124176
v 113.184830 3.567040 52.609898
v -34.414959 3.567040 188.838913
v 125.393112 3.567040 41.342583
v 99.933533 9.730663 96.475258
v 107.616226 9.730663 89.687363
v 119.819923 9.730663 78.906822
v 20.040989 9.730663 164.641068
v 11.531353 9.730662 172.158676
v -2.853584 9.730663 184.866760
v 104.791069 3.567040 123.922958
v 112.469292 3.567040 117.598923
v 124.664307 3.567040 107.554932
v 49.712177 3.567040 169.287140
v 40.593243 3.567039 176.798080
v 25.177670 3.567040 189.494812
v -106.046669 3.567040 -9.823844
v -113.656235 3.567040 -9.808228
v -125.740616 3.567040 -9.783527
v 97.814850 3.567040 -5.778524
v 105.423927 3.567040 -5.794081
v 117.508789 3.567040 -5.818841
v -58.616737 3.567040 168.094864
v -48.141285 3.567040 -161.391968
v -58.799171 3.567040 175.704102
v -47.958755 3.567039 -169.001236
v -59.106541 3.567040 188.567184
v -47.651386 3.567040 -181.864227
v -54.353619 3.567040 -9.929583
v -101.837158 3.567040 -76.363808
v -109.444138 3.567040 -76.586388
v -121.281715 3.567040 -80.043686
v 106.972595 3.567040 -74.269020
v 114.578720 3.567040 -74.046417
v 126.659302 3.567040 -73.692863
v -52.700996 3.567040 -78.941605
v -102.355957 0.000001 155.699448
v -58.616737 0.000001 168.094864
v -54.353619 0.000001 -9.929583
v -106.046669 0.000001 -9.823844
v 49.712177 0.000001 169.287140
v 103.532982 0.000001 153.876724
v 40.593243 0.000000 176.798080
v 111.056709 0.000001 161.570816
v -113.656235 0.000001 -9.808228
v -110.048103 0.000001 163.226074
v 106.972595 0.000001 -74.269020
v 107.999329 0.000001 -167.551422
v 114.578720 0.000001 -74.046417
v 115.690613 0.000001 -175.078079
v -104.285049 0.000001 -169.887863
v -48.141285 0.000001 -161.391968
v -47.958755 0.000000 -169.001236
v -111.809731 0.000001 -177.581909
v 25.177670 0.000001 189.494812
v 122.998337 0.000001 174.568558
v -125.740616 0.000001 -9.783527
v -122.272209 0.000001 175.958023
v 126.659302 0.000001 -73.692863
v 127.915192 0.000001 -187.809860
v -47.651386 0.000001 -181.864227
v -123.750687 0.000001 -190.579742
v -12.489414 0.000001 168.602600
v 105.498024 0.000001 59.704914
v 20.040989 6.163625 164.641068
v 99.933533 6.163625 96.475258
v -20.639324 0.000001 176.124176
v -58.799171 0.000001 175.704102
v 113.184830 0.000001 52.609898
v 107.616226 6.163625 89.687363
v -34.414959 0.000001 188.838913
v -59.106541 0.000001 188.567184
v 125.393112 0.000001 41.342583
v 119.819923 6.163625 78.906822
v 11.531353 6.163624 172.158676
v -2.853584 6.163625 184.866760
v 104.791069 0.000001 123.922958
v 112.469292 0.000001 117.598923
v 124.664307 0.000001 107.554932
v -52.700996 0.000001 -78.941605
v -101.837158 0.000001 -76.363808
v -109.444138 0.000001 -76.586388
v 97.814850 0.000001 -5.778524
v 105.423927 0.000001 -5.794081
v -121.281715 0.000001 -80.043686
v 117.508789 0.000001 -5.818841
vt 0.522082 0.713349
vt 0.788832 0.713349
vt 0.522082 0.980099
vt 0.788832 0.980099
vt 0.218748 0.446629
vt 0.218748 0.446629
vt 0.218748 0.446629
vt 0.218748 0.446629
vt 0.218748 0.446629
vt 0.218748 0.446629
vt 0.218748 0.446629
vt 0.218748 0.446629
vt 0.651651 0.861593
vt 0.651651 0.861593
vt 0.651651 0.861593
vt 0.651651 0.861593
vt 0.651651 0.861593
vt 0.651651 0.861593
vt 0.651651 0.861593
vt 0.651651 0.861593
vt 0.642096 0.713349
vt 0.218748 0.446629
vt 0.788832 0.800450
vt 0.218748 0.446629
vt 0.218748 0.446629
vt 0.651651 0.861593
vt 0.218748 0.446629
vt 0.651651 0.861593
vt 0.651651 0.861593
vt 0.651651 0.861593
vt 0.788832 0.775042
vt 0.218748 0.446629
vt 0.218748 0.446629
vt 0.651651 0.861593
vt 0.651651 0.861593
vt 0.680262 0.713349
vt 0.218748 0.446629
vt 0.218748 0.446629
vt 0.651651 0.861593
vt 0.651651 0.861593
vt 0.788832 0.749685
vt 0.218748 0.446629
vt 0.218748 0.446629
vt 0.651651 0.861593
vt 0.651651 0.861593
vt 0.720258 0.713349
vt 0.218748 0.446629
vt 0.218748 0.446629
vt 0.651651 0.861593
vt 0.651651 0.861593
vt 0.218748 0.446629
vt 0.522082 0.853566
vt 0.651651 0.861593
vt 0.218748 0.446629
vt 0.651651 0.861593
vt 0.788832 0.855757
vt 0.218748 0.446629
vt 0.218748 0.446629
vt 0.651651 0.861593
vt 0.651651 0.861593
vt 0.584134 0.713349
vt 0.218748 0.446629
vt 0.218748 0.446629
vt 0.589619 0.980099
vt 0.218748 0.446629
vt 0.651651 0.861593
vt 0.651651 0.861593
vt 0.218748 0.446629
vt 0.651651 0.861593
vt 0.651651 0.861593
vt 0.587028 0.854100
vt 0.218748 0.446629
vt 0.522082 0.909421
vt 0.651651 0.861593
vt 0.218748 0.446629
vt 0.651651 0.861593
vt 0.788832 0.906358
vt 0.218748 0.446629
vt 0.218748 0.446629
vt 0.651651 0.861593
vt 0.651651 0.861593
vt 0.588150 0.908662
vt 0.522082 0.713349
vt 0.584134 0.713349
vt 0.587028 0.854100
vt 0.522082 0.853566
vt 0.218748 0.446629
vt 0.218748 0.446629
vt 0.218748 0.446629
vt 0.218748 0.446629
vt 0.218748 0.446629
vt 0.218748 0.446629
vt 0.218748 0.446629
vt 0.218748 0.446629
vt 0.218748 0.446629
vt 0.218748 0.446629
vt 0.218748 0.446629
vt 0.218748 0.446629
vt 0.218748 0.446629
vt 0.218748 0.446629
vt 0.218748 0.446629
vt 0.218748 0.446629
vt 0.651651 0.861593
vt 0.651651 0.861593
vt 0.651651 0.861593
vt 0.651651 0.861593
vt 0.651651 0.861593
vt 0.651651 0.861593
vt 0.651651 0.861593
vt 0.651651 0.861593
vt 0.651651 0.861593
vt 0.651651 0.861593
vt 0.651651 0.861593
vt 0.651651 0.861593
vt 0.651651 0.861593
vt 0.651651 0.861593
vt 0.651651 0.861593
vt 0.651651 0.861593
vt 0.788832 0.800450
vt 0.642096 0.713349
vt 0.680262 0.713349
vt 0.788832 0.775042
vt 0.218748 0.446629
vt 0.218748 0.446629
vt 0.218748 0.446629
vt 0.218748 0.446629
vt 0.218748 0.446629
vt 0.218748 0.446629
vt 0.218748 0.446629
vt 0.218748 0.446629
vt 0.651651 0.861593
vt 0.651651 0.861593
vt 0.651651 0.861593
vt 0.651651 0.861593
vt 0.651651 0.861593
vt 0.651651 0.861593
vt 0.651651 0.861593
vt 0.651651 0.861593
vt 0.218748 0.446629
vt 0.218748 0.446629
vt 0.651651 0.861593
vt 0.651651 0.861593
vt 0.720258 0.713349
vt 0.788832 0.749685
vt 0.218748 0.446629
vt 0.218748 0.446629
vt 0.651651 0.861593
vt 0.651651 0.861593
vt 0.788832 0.713349
vt 0.588150 0.908662
vt 0.522082 0.909421
vt 0.218748 0.446629
vt 0.218748 0.446629
vt 0.218748 0.446629
vt 0.218748 0.446629
vt 0.651651 0.861593
vt 0.651651 0.861593
vt 0.651651 0.861593
vt 0.651651 0.861593
vt 0.788832 0.855757
vt 0.589619 0.980099
vt 0.788832 0.906358
vt 0.788832 0.980099
vt 0.522082 0.980099
vt 0.651651 0.861593
vt 0.651651 0.861593
vt 0.651651 0.861593
vt 0.651651 0.861593
vt 0.651651 0.861593
vt 0.651651 0.861593
vt 0.651651 0.861593
vt 0.651651 0.861593
vt 0.651651 0.861593
vt 0.651651 0.861593
vt 0.651651 0.861593
vt 0.651651 0.861593
vt 0.651651 0.861593
vt 0.651651 0.861593
vt 0.651651 0.861593
vt 0.651651 0.861593
vn 0.000000 -1.000000 0.000000
vn 0.000000 -1.000000 0.000000
vn 0.000000 -1.000000 0.000000
vn 0.000000 -1.000000 -0.000000
vn -0.000000 -1.000000 -0.000000
vn -0.000000 -1.000000 -0.000000
vn -0.000000 -1.000000 -0.000000
vn -0.000000 -1.000000 -0.000000
vn 0.000000 -1.000000 -0.000000
vn 0.000000 -1.000000 -0.000000
vn 0.000000 -1.000000 -0.000000
vn 0.000000 -1.000000 -0.000000
vn 0.000000 -1.000000 0.000000
vn 0.000000 -1.000000 0.000000
vn 0.000000 -1.000000 -0.000000
vn 0.000000 -1.000000 -0.000000
vn -0.000000 -1.000000 0.000000
vn -0.000000 -1.000000 0.000000
vn -0.000000 -1.000000 0.000000
vn -0.000000 -1.000000 0.000000
vn 0.000000 -1.000000 0.000000
vn 0.000000 -1.000000 0.000000
vn 0.000000 -1.000000 0.000000
vn 0.000000 -1.000000 0.000000
vn 0.000000 -1.000000 0.000000
vn 0.000000 -1.000000 0.000000
vn 0.000000 -1.000000 0.000000
vn 0.000000 -1.000000 0.000000
vn 0.000000 -1.000000 -0.000000
vn 0.000000 -1.000000 -0.000000
vn 0.000000 -1.000000 0.000000
vn 0.000000 -1.000000 0.000000
vn -0.000000 -1.000000 -0.000000
vn -0.000000 -1.000000 -0.000000
vn 0.000000 -1.000000 -0.000000
vn 0.000000 -1.000000 -0.000000
vn 0.186035 -0.960295 0.207907
vn 0.186035 -0.960295 0.207907
vn 0.186035 -0.960295 0.207907
vn 0.186035 -0.960295 0.207907
vn 0.000000 -1.000000 -0.000000
vn 0.000000 -1.000000 -0.000000
vn 0.000000 -1.000000 0.000000
vn 0.000000 -1.000000 -0.000000
vn 0.168918 -0.967727 0.187006
vn 0.168918 -0.967727 0.187006
vn 0.168918 -0.967727 0.187006
vn 0.168918 -0.967727 0.187006
vn 0.000000 -1.000000 0.000000
vn 0.000000 -1.000000 0.000000
vn 0.000000 -1.000000 0.000000
vn 0.000000 -1.000000 0.000000
vn 0.166966 -0.968476 0.184869
vn 0.166966 -0.968476 0.184869
vn 0.166966 -0.968476 0.184869
vn 0.166966 -0.968476 0.184869
vn 0.209404 -0.949917 0.231965
vn 0.209404 -0.949917 0.231965
vn 0.209404 -0.949917 0.231966
vn 0.209404 -0.949917 0.231965
vn 0.212768 -0.948254 0.235680
vn 0.212768 -0.948254 0.235680
vn 0.212768 -0.948254 0.235680
vn 0.212768 -0.948254 0.235680
vn -0.164004 -0.966999 -0.194978
vn -0.164004 -0.966999 -0.194978
vn -0.164004 -0.966999 -0.194978
vn -0.164004 -0.966999 -0.194978
vn -0.160209 -0.969075 -0.187689
vn -0.160209 -0.969075 -0.187689
vn -0.160209 -0.969075 -0.187689
vn -0.160209 -0.969075 -0.187689
vn -0.157432 -0.970151 -0.184453
vn -0.157432 -0.970151 -0.184453
vn -0.157432 -0.970151 -0.184453
vn -0.157432 -0.970151 -0.184453
vn -0.170805 -0.964719 -0.200356
vn -0.170805 -0.964719 -0.200356
vn -0.170805 -0.964719 -0.200356
vn -0.170805 -0.964719 -0.200356
vn -0.174680 -0.963069 -0.204904
vn -0.174680 -0.963069 -0.204904
vn -0.174680 -0.963069 -0.204904
vn -0.174680 -0.963069 -0.204904
vn 0.000000 -1.000000 0.000000
vn 0.000000 -1.000000 0.000000
vn 0.000000 -1.000000 0.000000
vn 0.000000 -1.000000 0.000000
vn 0.000000 -1.000000 0.000000
vn 0.000000 -1.000000 0.000000
vn 0.000000 -1.000000 0.000000
vn 0.000000 -1.000000 0.000000
vn 0.000000 -1.000000 0.000000
vn 0.000000 -1.000000 0.000000
vn 0.000000 -1.000000 0.000000
vn 0.000000 -1.000000 0.000000
vn 0.000000 -1.000000 0.000000
vn 0.000000 -1.000000 0.000000
vn 0.000000 -1.000000 0.000000
vn 0.000000 -1.000000 -0.000000
vn 0.000000 -1.000000 -0.000000
vn 0.000000 -1.000000 -0.000000
vn 0.000000 -1.000000 -0.000000
vn 0.000000 -1.000000 -0.000000
vn 0.000000 -1.000000 0.000000
vn 0.000000 -1.000000 0.000000
vn 0.000000 -1.000000 -0.000000
vn 0.000000 -1.000000 0.000000
vn 0.000000 -1.000000 0.000000
vn 0.000000 -1.000000 0.000000
vn 0.000000 -1.000000 0.000000
vn 0.000000 -1.000000 0.000000
vn 0.000000 -1.000000 -0.000000
vn 0.000000 -1.000000 -0.000000
vn 0.000000 -1.000000 0.000000
vn 0.000000 -1.000000 0.000000
vn 0.000000 -1.000000 0.000000
vn 0.000000 -1.000000 -0.000000
vn 0.000000 -1.000000 -0.000000
vn 0.000000 -1.000000 -0.000000
vn -0.000000 -1.000000 0.000000
vn 0.000000 -1.000000 0.000000
vn 0.000000 -1.000000 0.000000
vn -0.000000 -1.000000 0.000000
vn 0.000000 -1.000000 -0.000000
vn 0.000000 -1.000000 -0.000000
vn 0.000000 -1.000000 -0.000000
vn 0.000000 -1.000000 -0.000000
vn 0.000000 -1.000000 -0.000000
vn 0.000000 -1.000000 0.000000
vn 0.000000 -1.000000 0.000000
vn 0.000000 -1.000000 0.000000
vn 0.000000 -1.000000 0.000000
vn 0.000000 -1.000000 0.000000
vn 0.000000 -1.000000 0.000000
vn 0.000000 -1.000000 0.000000
vn 0.000000 -1.000000 0.000000
vn 0.000000 -1.000000 0.000000
vn 0.000000 -1.000000 0.000000
vn 0.000000 -1.000000 0.000000
vn 0.000000 -1.000000 -0.000000
vn 0.000000 -1.000000 -0.000000
vn 0.000000 -1.000000 -0.000000
vn 0.000000 -1.000000 -0.000000
vn 0.000000 -1.000000 0.000000
vn 0.000000 -1.000000 0.000000
vn 0.000000 -1.000000 0.000000
vn 0.000000 -1.000000 0.000000
vn 0.000000 -1.000000 0.000000
vn 0.000000 -1.000000 0.000000
vn 0.000000 -1.000000 0.000000
vn 0.000000 -1.000000 0.000000
vn 0.000000 -1.000000 -0.000000
vn 0.000000 -1.000000 0.000000
vn 0.000000 -1.000000 0.000000
vn 0.000000 -1.000000 -0.000000
vn 0.000000 -1.000000 0.000000
vn 0.000000 -1.000000 0.000000
vn 0.000000 -1.000000 0.000000
vn 0.000000 -1.000000 0.000000
vn 0.000000 -1.000000 0.000000
vn 0.000000 -1.000000 0.000000
vn 0.000000 -1.000000 0.000000
vn 0.000000 -1.000000 0.000000
vn 0.000000 1.000000 0.000000
vn 0.000000 1.000000 -0.000000
vn 0.000000 1.000000 -0.000000
vn 0.000000 1.000000 0.000000
vn 0.000000 1.000000 0.000000
vn 0.000000 1.000000 0.000000
vn 0.000000 1.000000 0.000000
vn 0.000000 1.000000 0.000000
vn 0.000000 1.000000 -0.000000
vn 0.000000 1.000000 -0.000000
vn 0.000000 1.000000 -0.000000
vn 0.000000 1.000000 -0.000000
vn 0.000000 1.000000 0.000000
vn 0.000000 1.000000 0.000000
vn 0.000000 1.000000 0.000000
vn 0.000000 1.000000 0.000000
vn 0.000000 1.000000 -0.000000
vn 0.000000 1.000000 -0.000000
vn 0.000000 1.000000 -0.000000
vn 0.000000 1.000000 -0.000000
vn -0.000000 1.000000 -0.000000
vn -0.000000 1.000000 -0.000000
vn -0.000000 1.000000 -0.000000
vn -0.000000 1.000000 -0.000000
vn 0.000000 1.000000 0.000000
vn 0.000000 1.000000 0.000000
vn 0.000000 1.000000 0.000000
vn 0.000000 1.000000 0.000000
vn 0.000000 1.000000 0.000000
vn 0.000000 1.000000 0.000000
vn 0.000000 1.000000 0.000000
vn 0.000000 1.000000 0.000000
vn 0.000000 1.000000 0.000000
vn -0.000000 1.000000 0.000000
vn -0.000000 1.000000 0.000000
vn 0.000000 1.000000 0.000000
vn -0.186035 0.960295 -0.207907
vn -0.186035 0.960295 -0.207907
vn -0.186035 0.960295 -0.207907
vn -0.186035 0.960295 -0.207907
vn 0.000000 1.000000 0.000000
vn 0.000000 1.000000 0.000000
vn 0.000000 1.000000 -0.000000
vn 0.000000 1.000000 -0.000000
vn -0.168918 0.967727 -0.187006
vn -0.168918 0.967727 -0.187006
vn -0.168918 0.967727 -0.187006
vn -0.168918 0.967727 -0.187006
vn 0.000000 1.000000 0.000000
vn 0.000000 1.000000 0.000000
vn 0.000000 1.000000 -0.000000
vn 0.000000 1.000000 -0.000000
vn -0.166966 0.968476 -0.184869
vn -0.166966 0.968476 -0.184869
vn -0.166966 0.968476 -0.184869
vn -0.166966 0.968476 -0.184869
vn -0.209404 0.949917 -0.231966
vn -0.209404 0.949917 -0.231966
vn -0.209404 0.949917 -0.231966
vn -0.209404 0.949917 -0.231966
vn -0.212768 0.948254 -0.235680
vn -0.212768 0.948254 -0.235680
vn -0.212768 0.948254 -0.235680
vn -0.212768 0.948254 -0.235680
vn 0.164004 0.966999 0.194978
vn 0.164004 0.966999 0.194978
vn 0.164004 0.966999 0.194978
vn 0.164004 0.966999 0.194978
vn 0.160209 0.969075 0.187689
vn 0.160209 0.969075 0.187689
vn 0.160209 0.969075 0.187689
vn 0.160209 0.969075 0.187689
vn 0.157432 0.970151 0.184453
vn 0.157432 0.970151 0.184453
vn 0.157432 0.970151 0.184453
vn 0.157432 0.970151 0.184453
vn 0.170805 0.964719 0.200356
vn 0.170805 0.964719 0.200356
vn 0.170805 0.964719 0.200356
vn 0.170805 0.964719 0.200356
vn 0.174680 0.963069 0.204904
vn 0.174680 0.963069 0.204904
vn 0.174680 0.963069 0.204904
vn 0.174680 0.963069 0.204904
vn 0.000000 1.000000 0.000000
vn 0.000000 1.000000 0.000000
vn 0.000000 1.000000 0.000000
vn 0.000000 1.000000 0.000000
vn 0.000000 1.000000 0.000000
vn 0.000000 1.000000 0.000000
vn 0.000000 1.000000 0.000000
vn 0.000000 1.000000 0.000000
vn 0.000000 1.000000 0.000000
vn 0.000000 1.000000 0.000000
vn 0.000000 1.000000 0.000000
vn 0.000000 1.000000 0.000000
vn 0.000000 1.000000 -0.000000
vn 0.000000 1.000000 -0.000000
vn 0.000000 1.000000 0.000000
vn 0.000000 1.000000 -0.000000
vn 0.000000 1.000000 -0.000000
vn 0.000000 1.000000 -0.000000
vn 0.000000 1.000000 -0.000000
vn 0.000000 1.000000 0.000000
vn 0.000000 1.000000 0.000000
vn 0.000000 1.000000 0.000000
vn 0.000000 1.000000 0.000000
vn 0.000000 1.000000 0.000000
vn 0.000000 1.000000 0.000000
vn 0.000000 1.000000 0.000000
vn 0.000000 1.000000 0.000000
vn 0.000000 1.000000 0.000000
vn 0.000000 1.000000 0.000000
vn 0.000000 1.000000 0.000000
vn 0.000000 1.000000 0.000000
vn 0.000000 1.000000 -0.000000
vn 0.000000 1.000000 -0.000000
vn 0.000000 1.000000 -0.000000
vn 0.000000 1.000000 -0.000000
vn 0.000000 1.000000 -0.000000
vn 0.000000 1.000000 -0.000000
vn 0.000000 1.000000 -0.000000
vn -0.000000 1.000000 -0.000000
vn -0.000000 1.000000 -0.000000
vn -0.000000 1.000000 0.000000
vn -0.000000 1.000000 0.000000
vn -0.000000 1.000000 0.000000
vn -0.000000 1.000000 0.000000
vn 0.000000 1.000000 -0.000000
vn 0.000000 1.000000 -0.000000
vn 0.000000 1.000000 -0.000000
vn 0.000000 1.000000 -0.000000
vn 0.000000 1.000000 -0.000000
vn 0.000000 1.000000 -0.000000
vn 0.000000 1.000000 -0.000000
vn 0.000000 1.000000 -0.000000
vn 0.000000 1.000000 -0.000000
vn 0.000000 1.000000 -0.000000
vn 0.000000 1.000000 -0.000000
vn 0.000000 1.000000 -0.000000
vn 0.000000 1.000000 0.000000
vn 0.000000 1.000000 0.000000
vn 0.000000 1.000000 0.000000
vn 0.000000 1.000000 0.000000
vn 0.000000 1.000000 0.000000
vn 0.000000 1.000000 0.000000
vn 0.000000 1.000000 0.000000
vn 0.000000 1.000000 0.000000
vn 0.000000 1.000000 0.000000
vn 0.000000 1.000000 -0.000000
vn 0.000000 1.000000 -0.000000
vn 0.000000 1.000000 -0.000000
vn 0.000000 1.000000 -0.000000
vn 0.000000 1.000000 -0.000000
vn 0.000000 1.000000 -0.000000
vn 0.000000 1.000000 -0.000000
vn 0.000000 1.000000 0.000000
vn 0.000000 1.000000 0.000000
vn 0.000000 1.000000 0.000000
vn 0.000000 1.000000 0.000000
vn 0.000000 1.000000 -0.000000
vn 0.000000 1.000000 -0.000000
vn 0.000000 1.000000 -0.000000
vn 0.000000 1.000000 -0.000000
vn 0.150842 0.000000 0.988558
vn 0.150842 0.000000 0.988558
vn 0.150842 0.000000 0.988558
vn 0.150842 0.000000 0.988558
vn -0.999826 0.000000 0.018670
vn -0.999826 0.000000 0.018670
vn -0.999826 0.000000 0.018670
vn -0.999826 0.000000 0.018670
vn 0.999940 0.000000 0.011005
vn 0.999940 0.000000 0.011005
vn 0.999940 0.000000 0.011005
vn 0.999940 0.000000 0.011005
vn 0.113784 0.000000 -0.993506
vn 0.113784 0.000000 -0.993506
vn 0.113784 0.000000 -0.993506
vn 0.113784 0.000000 -0.993506
vn -0.011005 0.000000 0.999939
vn -0.011005 0.000000 0.999939
vn -0.011005 0.000000 0.999939
vn -0.011005 0.000000 0.999939
vn 0.989173 0.000000 0.146758
vn 0.989172 0.000000 0.146758
vn 0.989173 0.000000 0.146758
vn 0.989172 0.000000 0.146758
vn 0.124870 0.000000 0.992173
vn 0.124870 0.000000 0.992173
vn 0.124870 0.000000 0.992173
vn 0.124870 0.000000 0.992173
vn 0.986002 0.000000 -0.166733
vn 0.986002 0.000000 -0.166733
vn 0.986002 0.000000 -0.166733
vn 0.986002 0.000000 -0.166733
vn -0.162899 0.000000 0.986643
vn -0.162899 0.000000 0.986643
vn -0.162899 0.000000 0.986643
vn -0.162899 0.000000 0.986643
vn 0.999691 0.000000 0.024852
vn 0.999691 0.000000 0.024852
vn 0.999691 0.000000 0.024852
vn 0.999691 0.000000 0.024852
vn -0.997992 0.000000 -0.063335
vn -0.997992 0.000000 -0.063335
vn -0.997992 0.000000 -0.063335
vn -0.997992 0.000000 -0.063335
vn 0.986312 0.000000 -0.164889
vn 0.986312 0.000000 -0.164889
vn 0.986312 0.000000 -0.164889
vn 0.986312 0.000000 -0.164889
vn -0.033846 0.000000 -0.999427
vn -0.033846 0.000000 -0.999427
vn -0.033846 0.000000 -0.999427
vn -0.033846 0.000000 -0.999427
vn -0.195758 0.000000 0.980652
vn -0.195758 0.000000 0.980652
vn -0.195758 0.000000 0.980652
vn -0.195758 0.000000 0.980652
vn 0.991034 0.000000 0.133607
vn 0.991034 0.000000 0.133607
vn 0.991034 0.000000 0.133607
vn 0.991034 0.000000 0.133607
vn -0.999751 0.000000 0.022331
vn -0.999751 0.000000 0.022331
vn -0.999751 0.000000 0.022331
vn -0.999751 0.000000 0.022331
s off
f 51/1/1 54/52/2 53/71/3 52/61/4
f 56/5/5 58/8/6 57/48/7 55/47/8
f 51/6/9 60/7/10 59/54/11 54/51/12
f 62/11/13 64/12/14 63/79/15 61/78/16
f 65/9/17 68/10/18 67/68/19 66/63/20
f 58/20/21 70/166/22 69/165/23 57/49/24
f 60/19/25 72/168/26 71/167/27 59/53/28
f 64/14/29 74/170/30 73/169/31 63/80/32
f 68/16/33 76/172/34 75/171/35 67/67/36
f 78/23/37 80/31/38 79/36/39 77/21/40
f 81/25/41 82/65/42 52/62/43 77/22/44
f 83/27/45 84/33/46 80/32/47 78/24/48
f 85/174/49 86/173/50 82/66/51 81/26/52
f 87/176/53 88/175/54 84/34/55 83/28/56
f 89/38/57 81/25/58 77/22/59 79/37/60
f 90/177/61 85/174/62 81/26/63 89/39/64
f 80/31/65 91/41/66 55/46/67 79/36/68
f 84/33/69 92/43/70 91/42/71 80/32/72
f 88/175/73 93/178/74 92/44/75 84/34/76
f 57/48/77 89/38/78 79/37/79 55/47/80
f 69/165/81 90/177/82 89/39/83 57/49/84
f 91/41/85 56/2/86 55/46/87
f 92/43/88 58/8/89 56/5/90 91/42/91
f 93/178/92 70/166/93 58/20/94 92/44/95
f 54/52/96 95/73/97 94/82/98 53/71/99
f 59/54/100 96/75/101 95/72/102 54/51/103
f 98/58/104 83/27/105 78/24/106 97/57/107
f 71/167/108 99/179/109 96/74/110 59/53/111
f 100/180/112 87/176/113 83/28/114 98/59/115
f 53/71/116 97/56/117 78/23/118 77/21/119 52/61/120
f 67/68/121 64/12/122 62/11/123 66/63/124
f 75/171/125 74/170/126 64/14/127 67/67/128
f 82/65/129 60/7/130 51/6/131 52/62/132
f 86/173/133 72/168/134 60/19/135 82/66/136
f 66/64/137 62/4/138 61/77/139 94/82/140
f 63/79/141 98/58/142 97/57/143 61/78/144
f 73/169/145 100/180/146 98/59/147 63/80/148
f 95/73/149 65/3/150 66/64/151 94/82/152
f 96/75/153 68/10/154 65/9/155 95/72/156
f 99/179/157 76/172/158 68/16/159 96/74/160
f 61/77/161 97/56/162 53/71/163 94/82/164
f 1/83/165 37/84/166 43/85/167 31/86/168
f 2/87/169 28/88/170 29/89/171 6/90/172
f 1/91/173 31/92/174 32/93/175 5/94/176
f 4/95/177 47/96/178 48/97/179 8/98/180
f 3/99/181 38/100/182 40/101/183 7/102/184
f 6/103/185 29/104/186 30/105/187 10/106/188
f 5/107/189 32/108/190 33/109/191 9/110/192
f 8/111/193 48/112/194 49/113/195 12/114/196
f 7/115/197 40/116/198 42/117/199 11/118/200
f 14/119/201 13/120/202 22/121/203 19/122/204
f 15/123/205 13/124/206 37/125/207 39/126/208
f 16/127/209 14/128/210 19/129/211 20/130/212
f 17/131/213 15/132/214 39/133/215 41/134/216
f 18/135/217 16/136/218 20/137/219 21/138/220
f 23/139/221 22/140/222 13/124/223 15/123/224
f 24/141/225 23/142/226 15/132/227 17/131/228
f 19/122/229 22/121/230 28/143/231 25/144/232
f 20/130/233 19/129/234 25/145/235 26/146/236
f 21/138/237 20/137/238 26/147/239 27/148/240
f 29/89/241 28/88/242 22/140/243 23/139/244
f 30/105/245 29/104/246 23/142/247 24/141/248
f 25/144/249 28/143/250 2/149/251
f 26/146/252 25/145/253 2/87/254 6/90/255
f 27/148/256 26/147/257 6/103/258 10/106/259
f 31/86/260 43/85/261 50/150/262 44/151/263
f 32/93/264 31/92/265 44/152/266 45/153/267
f 35/154/268 34/155/269 14/128/270 16/127/271
f 33/109/272 32/108/273 45/156/274 46/157/275
f 36/158/276 35/159/277 16/136/278 18/135/279
f 43/85/280 37/84/281 13/120/282 14/119/283 34/160/284
f 40/101/285 38/100/286 4/95/287 8/98/288
f 42/117/289 40/116/290 8/111/291 12/114/292
f 39/126/293 37/125/294 1/91/295 5/94/296
f 41/134/297 39/133/298 5/107/299 9/110/300
f 38/161/301 50/150/302 47/162/303 4/163/304
f 48/97/305 47/96/306 34/155/307 35/154/308
f 49/113/309 48/112/310 35/159/311 36/158/312
f 44/151/313 50/150/314 38/161/315 3/164/316
f 45/153/317 44/152/318 3/99/319 7/102/320
f 46/157/321 45/156/322 7/115/323 11/118/324
f 47/162/325 50/150/326 43/85/327 34/160/328
f 30/50/329 69/165/330 70/166/331 10/17/332
f 33/55/333 71/167/334 72/168/335 9/18/336
f 49/81/337 73/169/338 74/170/339 12/13/340
f 42/70/341 75/171/342 76/172/343 11/15/344
f 41/69/345 86/173/346 85/174/347 17/29/348
f 21/35/349 88/175/350 87/176/351 18/30/352
f 17/29/353 85/174/354 90/177/355 24/40/356
f 27/45/357 93/178/358 88/175/359 21/35/360
f 24/40/361 90/177/362 69/165/363 30/50/364
f 10/17/365 70/166/366 93/178/367 27/45/368
f 46/76/369 99/179/370 71/167/371 33/55/372
f 18/30/373 87/176/374 100/180/375 36/60/376
f 12/13/377 74/170/378 75/171/379 42/70/380
f 9/18/381 72/168/382 86/173/383 41/69/384
f 36/60/385 100/180/386 73/169/387 49/81/388
f 11/15/389 76/172/390 99/179/391 46/76/392
