# This file uses meters as units for non-parametric coordinates.

v -46.225880 7.864704 3.559446
v 46.225895 7.864704 3.559446
v -35.740971 215.257080 3.559446
v 35.740971 215.257080 3.559446
v -35.740971 215.257080 -3.559446
v 35.740971 215.257080 -3.559446
v -46.225880 7.864704 -3.559446
v 46.225895 7.864704 -3.559446
v 46.225883 202.649338 -3.559446
v 46.225895 202.649323 3.559446
v -46.225880 202.649323 3.559446
v -46.225880 202.649338 -3.559446
v 39.810135 224.887711 3.559446
v 39.810135 224.887711 -3.559446
v -39.810135 224.887711 -3.559446
v -39.810135 224.887711 3.559446
v 54.164516 0.000001 -3.559446
v 54.164516 0.000001 3.559446
v -54.164505 0.000000 3.559446
v -54.164505 0.000003 -3.559446
v 54.164516 206.033325 -3.559446
v 54.164516 206.033325 3.559446
v -54.164505 206.033325 3.559446
v -54.164505 206.033356 -3.559446
v -46.225880 66.300095 -3.559446
v -54.164505 69.021172 -3.559446
v -54.164505 69.021172 3.559399
v -46.225880 66.300079 3.559446
v 46.225895 66.300079 3.559446
v 54.164516 69.021172 3.559399
v 54.164516 69.021172 -3.559446
v 46.225883 66.300095 -3.559446
v 46.225906 79.935005 3.559399
v -46.225880 79.935005 3.559399
v -46.225880 79.935028 -3.559446
v 46.225883 79.935028 -3.559446
v -27.535366 202.649323 3.559446
v -27.535366 79.935005 3.559446
v -27.535366 66.300079 3.559446
v -27.535366 66.300095 -3.559446
v -27.535366 79.935028 -3.559446
v -27.535366 202.649338 -3.559446
v 27.535391 79.935028 -3.559446
v 27.535391 66.300095 -3.559446
v 27.535391 66.300079 3.559446
v 27.535391 79.935005 3.559446
v 27.535391 202.649323 3.559446
v 27.535391 202.649338 -3.559446
v -19.198656 88.649445 -3.559446
v -19.198656 75.014511 -3.559446
v -19.198656 75.014503 3.559446
v -19.198656 88.649414 3.559446
v -19.198656 210.158279 3.559446
v -19.198656 210.158310 -3.559446
v 19.198658 88.649445 -3.559446
v 19.198658 210.158310 -3.559446
v 19.198658 210.158279 3.559446
v 19.198658 88.649414 3.559446
v 19.198658 75.014503 3.559446
v 19.198658 75.014511 -3.559446
v -27.535366 22.001509 -3.559446
v -46.225880 22.001509 -3.559446
v -46.225880 22.001497 3.559446
v -27.535378 22.001497 3.559446
v -19.198656 15.141111 3.559446
v 19.198658 15.141111 3.559446
v 27.535391 22.001497 3.559446
v 46.225895 22.001497 3.559446
v 46.225883 22.001509 -3.559446
v 27.535391 22.001509 -3.559446
v 19.198658 15.141124 -3.559446
v -19.198656 15.141124 -3.559446
vt 0.244575 0.303013
vt 0.244575 0.352473
vt 0.244575 0.303013
vt 0.244575 0.303013
vt 0.244575 0.303013
vt 0.244575 0.303013
vt 0.244575 0.352473
vt 0.244575 0.303013
vt 0.232422 0.225609
vt 0.232422 0.225609
vt 0.232422 0.225609
vt 0.232422 0.225609
vt 0.232422 0.225609
vt 0.232422 0.225609
vt 0.232422 0.225609
vt 0.232422 0.225609
vt 0.232422 0.225609
vt 0.232422 0.225609
vt 0.232422 0.225609
vt 0.232422 0.225609
vt 0.244615 0.377841
vt 0.244615 0.377841
vt 0.244615 0.377841
vt 0.244615 0.377841
vt 0.232422 0.225609
vt 0.232422 0.225609
vt 0.232422 0.225609
vt 0.232422 0.225609
vt 0.232422 0.225609
vt 0.232422 0.225609
vt 0.232422 0.225609
vt 0.232422 0.225609
vt 0.232422 0.225609
vt 0.232422 0.225609
vt 0.232422 0.225609
vt 0.232422 0.225609
vt 0.232422 0.225609
vt 0.244575 0.303013
vt 0.232422 0.225609
vt 0.232422 0.225609
vt 0.232422 0.225609
vt 0.244575 0.303013
vt 0.244575 0.303013
vt 0.232422 0.225609
vt 0.232422 0.225609
vt 0.232422 0.225609
vt 0.244575 0.303013
vt 0.232422 0.225609
vt 0.244615 0.377841
vt 0.232422 0.225609
vt 0.232422 0.225609
vt 0.244615 0.377841
vt 0.232422 0.225609
vt 0.244615 0.377841
vt 0.244615 0.377841
vt 0.232422 0.225609
vt 0.244575 0.303013
vt 0.244575 0.303013
vt 0.244615 0.377841
vt 0.244615 0.377841
vt 0.244575 0.303013
vt 0.244575 0.303013
vt 0.244575 0.352473
vt 0.244615 0.377841
vt 0.244615 0.377841
vt 0.244615 0.377841
vt 0.244575 0.303013
vt 0.244575 0.352473
vt 0.244575 0.303013
vt 0.244615 0.377841
vt 0.244615 0.377841
vt 0.244575 0.303013
vt 0.244615 0.377841
vt 0.244615 0.377841
vt 0.244575 0.303013
vt 0.244575 0.303013
vt 0.244575 0.352473
vt 0.244575 0.303013
vt 0.244615 0.377841
vt 0.244615 0.377841
vt 0.244575 0.303013
vt 0.244615 0.377841
vt 0.244615 0.377841
vt 0.244615 0.377841
vt 0.244575 0.303013
vt 0.244575 0.303013
vt 0.244615 0.377841
vt 0.244615 0.377841
vt 0.244575 0.303013
vt 0.244575 0.352473
vt 0.244575 0.303013
vt 0.244575 0.303013
vt 0.244575 0.303013
vt 0.244575 0.352473
vt 0.244575 0.352473
vt 0.244575 0.352473
vt 0.244575 0.352473
vt 0.244575 0.303013
vt 0.244575 0.352473
vt 0.244575 0.303013
vt 0.244575 0.352473
vt 0.244575 0.303013
vt 0.244575 0.303013
vt 0.244575 0.303013
vt 0.244575 0.303013
vt 0.244575 0.303013
vt 0.244575 0.303013
vt 0.244575 0.303013
vt 0.244575 0.303013
vt 0.244575 0.303013
vt 0.244575 0.303013
vt 0.244575 0.303013
vt 0.244575 0.303013
vt 0.244575 0.303013
vt 0.244575 0.303013
vt 0.244575 0.303013
vt 0.244575 0.303013
vt 0.244575 0.303013
vt 0.244575 0.303013
vt 0.244575 0.303013
vt 0.244575 0.303013
vt 0.244575 0.352473
vt 0.232422 0.225609
vt 0.244575 0.352473
vt 0.232422 0.225609
vt 0.244575 0.352473
vt 0.244575 0.352473
vt 0.244575 0.352473
vt 0.244575 0.352473
vt 0.244575 0.352473
vt 0.244575 0.352473
vt 0.232422 0.225609
vt 0.244575 0.352473
vt 0.232422 0.225609
vt 0.244575 0.352473
vt 0.244575 0.352473
vt 0.244575 0.352473
vt 0.244575 0.303013
vt 0.244575 0.303013
vt 0.244575 0.303013
vt 0.244575 0.303013
vt 0.244575 0.303013
vt 0.244575 0.303013
vt 0.244575 0.303013
vn 0.196713 0.980461 0.000000
vn 0.196713 0.980461 0.000000
vn -0.196712 0.980461 0.000001
vn -0.196712 0.980461 0.000001
vn 0.000000 0.000000 1.000000
vn 0.000001 -0.000000 1.000000
vn 0.000000 0.000000 1.000000
vn -0.000000 0.000000 1.000000
vn 0.000000 0.000000 -1.000000
vn -0.000000 0.000000 -1.000000
vn -0.000000 0.000000 -1.000000
vn 0.000000 0.000000 -1.000000
vn 0.995786 0.091706 0.000000
vn 0.995786 0.091706 0.000000
vn 0.196713 0.980461 0.000000
vn 0.196713 0.980461 0.000000
vn -0.000000 0.000000 1.000000
vn 0.000000 0.000000 1.000000
vn 0.000001 -0.000000 1.000000
vn -0.995786 0.091707 0.000000
vn -0.995786 0.091706 0.000000
vn -0.196712 0.980461 0.000001
vn -0.196712 0.980461 0.000001
vn -0.000000 0.000000 -1.000000
vn -0.000000 0.000000 -1.000000
vn -0.000000 0.000000 -1.000000
vn 0.000002 0.000000 1.000000
vn 0.000001 -0.000000 1.000000
vn 0.000001 0.000000 1.000000
vn -0.000000 0.000000 -1.000000
vn -0.000000 0.000000 -1.000000
vn 0.000000 0.000000 -1.000000
vn -0.000001 -0.000000 1.000000
vn -0.000002 0.000000 1.000000
vn -0.000001 0.000000 1.000000
vn 0.000000 0.000000 -1.000000
vn 0.000000 0.000000 -1.000000
vn 0.000000 0.000000 -1.000000
vn -0.000000 0.000000 1.000000
vn -0.000000 0.000000 1.000000
vn 0.000000 0.000000 1.000000
vn 0.000000 0.000000 1.000000
vn -0.000000 0.000000 -1.000000
vn -0.000000 0.000000 -1.000000
vn -0.000000 0.000000 -1.000000
vn -0.000000 0.000000 -1.000000
vn 0.000000 0.000000 -1.000000
vn -0.000000 0.000000 -1.000000
vn -0.000000 0.000000 -1.000000
vn 0.000000 0.000000 -1.000000
vn -0.000000 0.000000 1.000000
vn 0.000001 -0.000000 1.000000
vn -0.000000 -0.000000 1.000000
vn -0.000000 0.000000 1.000000
vn -0.000001 -0.000000 1.000000
vn 0.000000 0.000000 1.000000
vn 0.000000 0.000000 1.000000
vn 0.000000 -0.000000 1.000000
vn -0.000000 0.000000 -1.000000
vn -0.000000 0.000000 -1.000000
vn -0.000000 0.000000 -1.000000
vn -0.000000 0.000000 -1.000000
vn -0.000000 0.000000 -1.000000
vn 0.000000 0.000000 -1.000000
vn -0.000000 0.000000 -1.000000
vn -0.000000 0.000000 -1.000000
vn -0.537343 -0.843364 -0.000000
vn -0.537342 -0.843364 -0.000000
vn -1.000000 0.000000 0.000000
vn -1.000000 0.000000 0.000000
vn -0.000001 0.000000 1.000000
vn -0.000002 0.000000 1.000000
vn -0.000001 0.000000 1.000000
vn -0.000002 0.000000 1.000000
vn -0.000000 0.000000 1.000000
vn -0.000000 0.000000 1.000000
vn 0.000000 0.000000 1.000000
vn -0.000000 0.000000 1.000000
vn 0.000002 0.000000 1.000000
vn 0.000001 0.000000 1.000000
vn 0.000002 0.000000 1.000000
vn 0.000001 0.000000 1.000000
vn 0.537342 -0.843364 -0.000000
vn 0.537342 -0.843364 -0.000000
vn 1.000000 0.000000 0.000000
vn 1.000000 -0.000000 0.000000
vn 0.000000 0.000000 -1.000000
vn 0.000000 0.000000 -1.000000
vn 0.000000 0.000000 -1.000000
vn 0.000000 0.000000 -1.000000
vn 0.000000 0.000000 -1.000000
vn 0.000000 0.000000 -1.000000
vn 0.000000 0.000000 -1.000000
vn 0.000000 0.000000 -1.000000
vn 1.000000 -0.000000 0.000000
vn 1.000000 0.000000 0.000000
vn 0.995786 0.091706 0.000000
vn 0.995786 0.091706 0.000000
vn -0.000000 -0.000000 1.000000
vn 0.000001 -0.000000 1.000000
vn 0.000001 -0.000000 1.000000
vn 0.000002 0.000000 1.000000
vn 0.000001 -0.000000 1.000000
vn 0.000001 -0.000000 1.000000
vn 0.000000 0.000000 1.000000
vn 0.000000 0.000000 1.000000
vn 0.000000 -0.000000 1.000000
vn -0.000002 0.000000 1.000000
vn -0.000001 -0.000000 1.000000
vn -0.000001 -0.000000 1.000000
vn -1.000000 0.000000 0.000000
vn -1.000000 0.000000 0.000000
vn -0.995786 0.091706 0.000000
vn -0.995786 0.091707 0.000000
vn -0.000000 0.000000 -1.000000
vn -0.000000 0.000000 -1.000000
vn -0.000000 0.000000 -1.000000
vn -0.000000 0.000000 -1.000000
vn -0.000000 0.000000 -1.000000
vn -0.000000 0.000000 -1.000000
vn -0.000000 0.000000 -1.000000
vn -0.000000 0.000000 -1.000000
vn 0.000000 0.000000 -1.000000
vn 0.000000 0.000000 -1.000000
vn 0.000000 0.000000 -1.000000
vn 0.000000 0.000000 -1.000000
vn 0.000000 0.000000 1.000000
vn -0.000001 -0.000000 1.000000
vn -0.000000 0.000000 1.000000
vn -0.000000 0.000000 1.000000
vn -0.000000 0.000000 1.000000
vn -0.000001 -0.000000 1.000000
vn -0.000001 0.000000 1.000000
vn 0.000000 0.000000 1.000000
vn -0.000000 0.000000 1.000000
vn -0.000001 0.000000 1.000000
vn -0.000000 0.000000 1.000000
vn 0.000000 0.000000 1.000000
vn 0.000000 0.000000 1.000000
vn 0.000000 0.000000 1.000000
vn -0.000000 0.000000 1.000000
vn -0.000000 0.000000 1.000000
vn -0.000001 0.000000 1.000000
vn 0.000001 0.000000 1.000000
vn 0.000000 0.000000 1.000000
vn -0.537342 -0.843364 -0.000000
vn -0.537343 -0.843364 -0.000000
vn 0.537342 -0.843364 -0.000000
vn 0.537342 -0.843364 -0.000000
vn -0.000000 0.000000 -1.000000
vn -0.000000 0.000000 -1.000000
vn 0.000000 0.000000 -1.000000
vn 0.000000 0.000000 -1.000000
vn 0.000000 0.000000 -1.000000
vn 0.000000 0.000000 -1.000000
vn 0.000000 0.000000 -1.000000
vn 0.000000 0.000000 -1.000000
vn 0.000000 0.000000 -1.000000
vn 0.000000 0.000000 -1.000000
vn 0.000000 0.000000 -1.000000
vn 0.000000 0.000000 -1.000000
vn 0.000000 0.000000 -1.000000
vn 0.000000 0.000000 -1.000000
vn 0.000000 0.000000 -1.000000
vn 0.000000 0.000000 -1.000000
vn -0.000000 0.000000 -1.000000
vn 0.000000 0.000000 -1.000000
vn 0.000000 0.000000 -1.000000
vn 0.000000 0.000000 1.000000
vn -0.000001 -0.000000 1.000000
vn -0.000001 -0.000000 1.000000
vn -0.000001 0.000000 1.000000
vn -0.000001 -0.000000 1.000000
vn -0.000001 -0.000000 1.000000
vn -0.000001 -0.000000 1.000000
vn -0.000000 0.000000 1.000000
vn -0.000001 0.000000 1.000000
vn -0.000001 -0.000000 1.000000
vn -0.000001 0.000000 1.000000
vn -0.000002 0.000000 1.000000
vn 0.000000 0.000000 1.000000
vn -0.000000 0.000000 1.000000
vn -0.000001 0.000000 1.000000
vn 0.000000 0.000000 -1.000000
vn 0.000000 0.000000 -1.000000
vn 0.000000 0.000000 -1.000000
vn -0.000000 0.000000 -1.000000
vn -0.000000 0.000000 -1.000000
vn 0.000000 0.000000 -1.000000
vn 0.000000 0.000000 -1.000000
vn 0.000000 0.000000 -1.000000
vn -0.000000 0.000000 -1.000000
vn 0.000000 0.000000 -1.000000
vn 0.000000 0.000000 -1.000000
vn -0.000000 0.000000 -1.000000
vn -0.000000 0.000000 -1.000000
vn 0.000000 0.000000 -1.000000
vn -0.000000 0.000000 -1.000000
vn 0.000000 0.000000 -1.000000
vn -0.000000 0.000000 -1.000000
vn 0.000000 0.000000 -1.000000
vn 0.000000 0.000000 -1.000000
vn 0.000000 0.000000 -1.000000
vn 0.000000 0.000000 -1.000000
vn 0.000000 0.000000 -1.000000
vn 0.000000 0.000000 -1.000000
vn 0.000001 0.000000 1.000000
vn 0.000000 0.000000 1.000000
vn -0.000000 0.000000 1.000000
vn 0.000002 0.000000 1.000000
vn 0.000001 -0.000000 1.000000
vn 0.000001 -0.000000 1.000000
vn 0.000000 0.000000 1.000000
vn 0.000001 0.000000 1.000000
vn 0.000001 -0.000000 1.000000
vn 0.000001 -0.000000 1.000000
vn 0.000001 -0.000000 1.000000
vn 0.000001 -0.000000 1.000000
vn -0.000000 0.000000 1.000000
vn 0.000001 -0.000000 1.000000
vn 0.000001 -0.000000 1.000000
vn -0.000000 0.000000 -1.000000
vn 0.000000 0.000000 -1.000000
vn -0.000000 0.000000 -1.000000
vn -0.000000 0.000000 -1.000000
vn -0.000000 0.000000 -1.000000
vn 0.000000 0.000000 -1.000000
vn 0.000000 0.000000 -1.000000
vn -0.000000 0.000000 -1.000000
vn -0.000000 0.000000 -1.000000
vn 0.000000 0.000000 -1.000000
vn 0.000000 0.000000 -1.000000
vn -0.000000 0.000000 -1.000000
vn -0.000000 0.000000 -1.000000
vn 0.000000 0.000000 -1.000000
vn -0.000000 0.000000 -1.000000
vn -0.000000 0.000000 1.000000
vn 0.000000 0.000000 1.000000
vn -0.000000 0.000000 1.000000
vn 0.000000 0.000000 1.000000
vn -0.000000 0.000000 1.000000
vn 0.000000 0.000000 1.000000
vn 0.000000 0.000000 1.000000
vn -0.000000 0.000000 1.000000
vn -0.000000 0.000000 1.000000
vn 0.000000 0.000000 1.000000
vn -0.000000 0.000000 1.000000
vn 0.000000 0.000000 1.000000
vn 0.000000 0.000000 1.000000
vn -0.000000 0.000000 1.000000
vn -0.000000 0.000000 1.000000
vn 0.000000 0.000000 1.000000
vn 0.000000 0.000000 -1.000000
vn 0.000000 0.000000 -1.000000
vn 0.000000 0.000000 -1.000000
vn 0.000000 0.000000 -1.000000
vn -0.000000 0.000000 -1.000000
vn 0.000000 0.000000 -1.000000
vn 0.000000 0.000000 -1.000000
vn 0.000000 0.000000 -1.000000
vn -0.000000 0.000000 -1.000000
vn 0.000000 0.000000 -1.000000
vn -0.000000 0.000000 -1.000000
vn -0.000000 0.000000 -1.000000
vn -0.000000 0.000000 -1.000000
vn -0.000000 0.000000 -1.000000
vn -0.000002 0.000000 1.000000
vn -0.000001 0.000000 1.000000
vn -0.000000 0.000000 1.000000
vn -0.000000 0.000000 1.000000
vn 0.000000 0.000000 1.000000
vn -0.000002 0.000000 1.000000
vn -0.000000 0.000000 1.000000
vn 0.000000 0.000000 1.000000
vn 0.000000 0.000000 1.000000
vn 0.000000 0.000000 1.000000
vn -0.000000 0.000000 1.000000
vn 0.000000 0.000000 1.000000
vn -0.000000 0.000000 1.000000
vn 0.000000 0.000000 1.000000
vn -0.000000 0.000000 1.000000
vn -0.000000 0.000000 1.000000
vn 0.000002 0.000000 1.000000
vn -0.000000 0.000000 1.000000
vn 0.000000 0.000000 1.000000
vn 0.000001 0.000000 1.000000
vn 0.000002 0.000000 1.000000
vn 0.000000 0.000000 1.000000
vn 0.000000 0.000000 -1.000000
vn 0.000000 0.000000 -1.000000
vn 0.000000 0.000000 -1.000000
vn 0.000000 0.000000 -1.000000
vn 0.000000 0.000000 -1.000000
vn 0.000000 0.000000 -1.000000
vn 0.000000 0.000000 -1.000000
vn 0.000000 0.000000 -1.000000
vn 0.000000 0.000000 -1.000000
vn 0.000000 0.000000 -1.000000
vn 0.000000 0.000000 -1.000000
vn 0.000000 0.000000 -1.000000
vn -0.000000 0.000000 -1.000000
vn -0.000000 0.000000 -1.000000
vn 0.000000 0.000000 -1.000000
vn 0.000000 0.000000 -1.000000
s off
f 13/9/1 14/10/2 15/11/3 16/12/4
f 45/3/5 46/4/6 58/5/7 59/6/8
f 60/38/9 55/42/10 43/43/11 44/47/12
f 22/18/13 21/17/14 14/10/15 13/9/16
f 4/57/17 57/58/18 47/61/19
f 24/20/20 23/19/21 16/12/22 15/11/23
f 6/67/24 48/69/25 56/72/26
f 30/45/27 33/50/28 29/44/29
f 26/39/30 35/53/31 25/37/32
f 34/51/33 27/40/34 28/41/35
f 36/56/36 31/46/37 32/48/38
f 4/35/39 13/9/40 16/12/41 3/33/42
f 14/10/43 6/36/44 5/34/45 15/11/46
f 9/25/47 6/36/48 14/10/49 21/17/50
f 4/35/51 10/26/52 22/18/53 13/9/54
f 11/27/55 3/33/56 16/12/57 23/19/58
f 5/34/59 12/28/60 24/20/61 15/11/62
f 26/39/63 25/37/64 62/123/65 20/16/66
f 20/16/67 19/15/68 27/40/69 26/39/70
f 28/41/71 27/40/72 19/15/73 63/125/74
f 66/129/75 67/130/76 45/2/77 59/7/78
f 30/45/79 29/44/80 68/132/81 18/14/82
f 18/14/83 17/13/84 31/46/85 30/45/86
f 32/48/87 31/46/88 17/13/89 69/134/90
f 70/135/91 71/136/92 60/63/93 44/68/94
f 30/45/95 31/46/96 21/17/97 22/18/98
f 22/18/99 10/26/100 33/50/101 30/45/102
f 46/70/103 47/71/104 57/87/105 58/88/106
f 23/19/107 27/40/108 34/51/109 11/27/110
f 26/39/111 27/40/112 23/19/113 24/20/114
f 24/20/115 12/28/116 35/53/117 26/39/118
f 55/83/119 56/84/120 48/73/121 43/66/122
f 21/17/123 31/46/124 36/56/125 9/25/126
f 3/75/127 37/78/128 53/81/129
f 52/79/130 53/80/131 37/59/132 38/60/133
f 51/85/134 52/86/135 38/89/136 39/92/137
f 64/127/138 65/128/139 51/77/140 39/90/141
f 1/29/142 19/15/143 18/14/144 2/32/145
f 19/15/146 20/16/147 17/13/148 18/14/149
f 20/16/150 7/30/151 8/31/152 17/13/153
f 72/137/154 61/122/155 40/94/156 50/95/157
f 40/103/158 41/104/159 49/105/160 50/106/161
f 41/64/162 42/65/163 54/82/164 49/74/165
f 5/107/166 54/108/167 42/109/168
f 3/75/169 11/110/170 37/78/171
f 38/60/172 37/59/173 11/23/174 34/52/175
f 39/92/176 38/89/177 34/111/178 28/112/179
f 63/126/180 64/127/181 39/90/182 28/96/183
f 25/97/184 40/94/185 61/122/186 62/124/187
f 35/113/188 41/104/189 40/103/190 25/114/191
f 12/24/192 42/65/193 41/64/194 35/54/195
f 5/107/196 42/109/197 12/115/198
f 44/47/199 43/43/200 36/116/201 32/117/202
f 69/133/203 70/135/204 44/68/205 32/99/206
f 29/101/207 45/2/208 67/130/209 68/131/210
f 33/118/211 46/4/212 45/3/213 29/119/214
f 10/22/215 47/71/216 46/70/217 33/49/218
f 4/57/219 47/61/220 10/120/221
f 6/67/222 9/121/223 48/69/224
f 43/66/225 48/73/226 9/21/227 36/55/228
f 56/84/229 55/83/230 49/74/231 54/82/232
f 6/67/233 56/72/234 54/108/235 5/107/236
f 53/81/237 57/58/238 4/57/239 3/75/240
f 52/79/241 58/88/242 57/87/243 53/80/244
f 59/6/245 58/5/246 52/86/247 51/85/248
f 65/128/249 66/129/250 59/7/251 51/77/252
f 50/95/253 60/63/254 71/136/255 72/137/256
f 55/42/257 60/38/258 50/106/259 49/105/260
f 62/1/261 61/8/262 7/62/263
f 20/16/264 62/123/265 7/30/266
f 63/125/267 19/15/268 1/29/269
f 1/76/270 64/91/271 63/93/272
f 1/76/273 65/98/274 64/91/275
f 2/100/276 66/102/277 65/98/278 1/76/279
f 2/100/280 67/138/281 66/102/282
f 68/139/283 67/138/284 2/100/285
f 18/14/286 68/132/287 2/32/288
f 69/134/289 17/13/290 8/31/291
f 8/140/292 70/141/293 69/142/294
f 8/140/295 71/143/296 70/141/297
f 72/144/298 71/143/299 8/140/300 7/62/301
f 7/62/302 61/8/303 72/144/304
