# This file uses meters as units for non-parametric coordinates.

v 7.472642 21.440620 -7.472642
v 0.000002 21.440620 -10.567890
v -7.472639 21.440620 -7.472642
v -10.567890 21.440620 -0.000002
v -7.472639 21.440620 7.472639
v 0.000002 21.440620 10.567890
v 7.472642 21.440620 7.472639
v 10.567890 21.440620 -0.000002
v 6.638416 0.000000 -6.638416
v 0.000002 0.000000 -9.388169
v -6.638413 0.000000 -6.638416
v -9.388165 0.000000 -0.000002
v -6.638413 0.000000 6.638413
v 0.000002 0.000000 9.388165
v 6.638416 0.000000 6.638413
v 9.388169 0.000000 -0.000002
v 6.638416 25.046097 -6.638416
v 0.000002 25.046097 -9.388169
v -6.638413 25.046097 -6.638416
v -9.388165 25.046097 -0.000002
v -6.638413 25.046097 6.638413
v 0.000002 25.046097 9.388165
v 6.638416 25.046097 6.638413
v 9.388169 25.046097 -0.000002
v 5.213513 27.256632 -5.213513
v 0.000002 27.256632 -7.373010
v -5.213510 27.256632 -5.213513
v -7.373006 27.256632 -0.000002
v -5.213510 27.256632 5.213510
v 0.000002 27.256632 7.373006
v 5.213513 27.256632 5.213510
v 7.373010 27.256632 -0.000002
v 5.213513 29.165556 -5.213513
v 0.000002 29.165556 -7.373010
v -5.213510 29.165556 -5.213513
v -7.373006 29.165556 -0.000002
v -5.213510 29.165556 5.213510
v 0.000002 29.165556 7.373006
v 5.213513 29.165556 5.213510
v 7.373010 29.165556 -0.000002
v 5.276066 0.000000 -5.276066
v 0.000002 0.000000 -7.461488
v -5.276062 0.000000 -5.276066
v -7.461485 0.000000 -0.000002
v -5.276062 0.000000 5.276062
v 0.000002 0.000000 7.461485
v 5.276066 0.000000 5.276062
v 7.461488 0.000000 -0.000002
v 4.259247 0.858253 -4.259247
v 0.000002 0.858253 -6.023500
v 0.000002 0.858253 -0.000002
v -4.259243 0.858253 -4.259247
v -6.023498 0.858253 -0.000002
v -4.259243 0.858253 4.259243
v 0.000002 0.858253 6.023498
v 4.259247 0.858253 4.259243
v 6.023500 0.858253 -0.000002
v 0.000002 2.018902 10.373029
v 7.334846 2.018902 7.334842
v 10.373031 2.018902 -0.000002
v 7.334846 2.018902 -7.334846
v 0.000002 2.018902 -10.373031
v -7.334842 2.018902 -7.334846
v -10.373029 2.018902 -0.000002
v -7.334842 2.018902 7.334842
vt 0.547310 0.060535
vt 0.547310 0.060535
vt 0.547310 0.060535
vt 0.547310 0.060535
vt 0.547310 0.060535
vt 0.547310 0.060535
vt 0.547310 0.060535
vt 0.547310 0.060535
vt 0.547310 0.060535
vt 0.547310 0.060535
vt 0.547310 0.060535
vt 0.547310 0.060535
vt 0.547310 0.060535
vt 0.547310 0.060535
vt 0.547310 0.060535
vt 0.547310 0.060535
vt 0.547310 0.060535
vt 0.547310 0.060535
vt 0.552353 0.064873
vt 0.552353 0.064873
vt 0.552353 0.064873
vt 0.552353 0.064873
vt 0.552353 0.064873
vt 0.552353 0.064873
vt 0.552353 0.064873
vt 0.552353 0.064873
vt 0.552353 0.064873
vt 0.547310 0.060535
vt 0.547310 0.060535
vt 0.547310 0.060535
vt 0.547310 0.060535
vt 0.547310 0.060535
vt 0.547310 0.060535
vt 0.547310 0.060535
vt 0.547310 0.060535
vt 0.547310 0.060535
vt 0.547310 0.060535
vt 0.547310 0.060535
vt 0.547310 0.060535
vt 0.547310 0.060535
vt 0.547310 0.060535
vt 0.547310 0.060535
vt 0.547310 0.060535
vt 0.547310 0.060535
vt 0.547310 0.060535
vt 0.547310 0.060535
vt 0.547310 0.060535
vt 0.547310 0.060535
vt 0.547310 0.060535
vt 0.547310 0.060535
vt 0.547310 0.060535
vt 0.547310 0.060535
vt 0.547310 0.060535
vt 0.547310 0.060535
vt 0.552353 0.064873
vt 0.552353 0.064873
vt 0.552353 0.064873
vt 0.552353 0.064873
vt 0.552353 0.064873
vt 0.552353 0.064873
vt 0.552353 0.064873
vt 0.552353 0.064873
vt 0.552353 0.064873
vt 0.552353 0.064873
vt 0.552353 0.064873
vt 0.552353 0.064873
vt 0.552353 0.064873
vt 0.552353 0.064873
vt 0.552353 0.064873
vt 0.552353 0.064873
vt 0.547310 0.060535
vt 0.547310 0.060535
vt 0.547310 0.060535
vt 0.547310 0.060535
vt 0.547310 0.060535
vt 0.547310 0.060535
vt 0.547310 0.060535
vt 0.547310 0.060535
vt 0.547310 0.060535
vn 0.382665 -0.009269 -0.923840
vn 0.382665 -0.009269 -0.923840
vn 0.382666 -0.009269 -0.923841
vn 0.382666 -0.009269 -0.923841
vn -0.382666 -0.009269 -0.923840
vn -0.382665 -0.009269 -0.923840
vn -0.382665 -0.009269 -0.923840
vn -0.382665 -0.009269 -0.923840
vn -0.923840 -0.009269 -0.382666
vn -0.923840 -0.009269 -0.382666
vn -0.923840 -0.009269 -0.382666
vn -0.923840 -0.009269 -0.382666
vn -0.923840 -0.009269 0.382666
vn -0.923840 -0.009269 0.382666
vn -0.923840 -0.009269 0.382666
vn -0.923840 -0.009269 0.382666
vn -0.382666 -0.009269 0.923840
vn -0.382666 -0.009269 0.923840
vn -0.382666 -0.009269 0.923840
vn -0.382666 -0.009269 0.923840
vn 0.382666 -0.009269 0.923840
vn 0.382666 -0.009269 0.923840
vn 0.382666 -0.009269 0.923840
vn 0.382666 -0.009269 0.923840
vn 0.923840 -0.009269 0.382666
vn 0.923841 -0.009269 0.382666
vn 0.923841 -0.009269 0.382666
vn 0.923840 -0.009269 0.382665
vn 0.923840 -0.009269 -0.382665
vn 0.923841 -0.009269 -0.382665
vn 0.923841 -0.009269 -0.382665
vn 0.923841 -0.009269 -0.382666
vn 0.000000 -1.000000 0.000000
vn 0.000000 -1.000000 0.000000
vn 0.000000 -1.000000 0.000000
vn 0.000000 -1.000000 0.000000
vn 0.000000 -1.000000 0.000000
vn 0.000000 -1.000000 0.000000
vn 0.000000 -1.000000 0.000000
vn 0.000000 -1.000000 0.000000
vn 0.000000 -1.000000 0.000000
vn 0.000000 -1.000000 0.000000
vn 0.000000 -1.000000 0.000000
vn 0.000000 -1.000000 0.000000
vn 0.000000 -1.000000 0.000000
vn 0.000000 -1.000000 0.000000
vn 0.000000 -1.000000 0.000000
vn 0.000000 -1.000000 0.000000
vn 0.000000 -1.000000 0.000000
vn 0.000000 -1.000000 0.000000
vn 0.000000 -1.000000 0.000000
vn 0.000000 -1.000000 0.000000
vn 0.000000 -1.000000 0.000000
vn 0.000000 -1.000000 0.000000
vn 0.000000 -1.000000 0.000000
vn 0.000000 -1.000000 0.000000
vn 0.366312 0.289369 -0.884354
vn 0.366312 0.289369 -0.884354
vn 0.366312 0.289369 -0.884354
vn 0.366312 0.289369 -0.884354
vn -0.366312 0.289369 -0.884354
vn -0.366312 0.289369 -0.884354
vn -0.366312 0.289369 -0.884354
vn -0.366312 0.289369 -0.884353
vn -0.884353 0.289370 -0.366312
vn -0.884353 0.289369 -0.366312
vn -0.884353 0.289370 -0.366312
vn -0.884353 0.289369 -0.366312
vn -0.884353 0.289369 0.366312
vn -0.884353 0.289369 0.366312
vn -0.884353 0.289369 0.366312
vn -0.884353 0.289369 0.366312
vn -0.366312 0.289370 0.884353
vn -0.366312 0.289370 0.884353
vn -0.366312 0.289370 0.884353
vn -0.366312 0.289370 0.884353
vn 0.366312 0.289369 0.884353
vn 0.366312 0.289369 0.884354
vn 0.366312 0.289369 0.884354
vn 0.366312 0.289369 0.884353
vn 0.884354 0.289369 0.366312
vn 0.884353 0.289369 0.366312
vn 0.884353 0.289369 0.366312
vn 0.884353 0.289369 0.366312
vn 0.884353 0.289369 -0.366312
vn 0.884354 0.289369 -0.366312
vn 0.884354 0.289369 -0.366312
vn 0.884353 0.289369 -0.366312
vn 0.292704 0.644185 -0.706647
vn 0.292704 0.644185 -0.706647
vn 0.292704 0.644185 -0.706647
vn 0.292704 0.644185 -0.706647
vn -0.292704 0.644184 -0.706648
vn -0.292704 0.644184 -0.706648
vn -0.292704 0.644184 -0.706648
vn -0.292704 0.644184 -0.706648
vn -0.706647 0.644185 -0.292704
vn -0.706647 0.644185 -0.292704
vn -0.706647 0.644185 -0.292704
vn -0.706647 0.644185 -0.292704
vn -0.706647 0.644185 0.292704
vn -0.706647 0.644185 0.292704
vn -0.706647 0.644185 0.292704
vn -0.706647 0.644185 0.292704
vn -0.292704 0.644185 0.706648
vn -0.292704 0.644185 0.706648
vn -0.292704 0.644185 0.706648
vn -0.292704 0.644185 0.706648
vn 0.292704 0.644185 0.706647
vn 0.292704 0.644185 0.706647
vn 0.292704 0.644185 0.706647
vn 0.292704 0.644185 0.706647
vn 0.706647 0.644185 0.292704
vn 0.706647 0.644185 0.292704
vn 0.706647 0.644185 0.292704
vn 0.706647 0.644185 0.292704
vn 0.706647 0.644185 -0.292704
vn 0.706647 0.644185 -0.292704
vn 0.706647 0.644185 -0.292704
vn 0.706647 0.644185 -0.292704
vn 0.382682 0.000000 -0.923880
vn 0.382682 0.000000 -0.923880
vn 0.382682 0.000000 -0.923880
vn 0.382682 0.000000 -0.923880
vn -0.382682 0.000000 -0.923880
vn -0.382682 0.000000 -0.923880
vn -0.382682 0.000000 -0.923880
vn -0.382682 0.000000 -0.923880
vn -0.923880 0.000000 -0.382682
vn -0.923880 0.000000 -0.382682
vn -0.923880 0.000000 -0.382682
vn -0.923880 0.000000 -0.382682
vn -0.923880 0.000000 0.382682
vn -0.923880 0.000000 0.382682
vn -0.923880 0.000000 0.382682
vn -0.923880 0.000000 0.382682
vn -0.382682 0.000000 0.923880
vn -0.382682 0.000000 0.923880
vn -0.382682 0.000000 0.923880
vn -0.382682 0.000000 0.923880
vn 0.382682 0.000000 0.923880
vn 0.382682 0.000000 0.923880
vn 0.382682 0.000000 0.923880
vn 0.382682 0.000000 0.923880
vn 0.923880 0.000000 0.382682
vn 0.923880 0.000000 0.382682
vn 0.923880 0.000000 0.382682
vn 0.923880 0.000000 0.382682
vn 0.923880 0.000000 -0.382682
vn 0.923880 0.000000 -0.382682
vn 0.923880 0.000000 -0.382682
vn 0.923880 0.000000 -0.382682
vn 0.000000 -1.000000 0.000000
vn 0.000000 -1.000000 0.000000
vn 0.000000 -1.000000 0.000000
vn 0.000000 -1.000000 0.000000
vn 0.000000 -1.000000 0.000000
vn 0.000000 -1.000000 0.000000
vn 0.000000 -1.000000 0.000000
vn 0.000000 -1.000000 0.000000
vn 0.000000 -1.000000 0.000000
vn 0.000000 -1.000000 0.000000
vn 0.000000 -1.000000 0.000000
vn 0.000000 -1.000000 0.000000
vn 0.000000 -1.000000 0.000000
vn 0.000000 -1.000000 0.000000
vn 0.000000 -1.000000 0.000000
vn 0.000000 -1.000000 0.000000
vn 0.000000 -1.000000 0.000000
vn 0.000000 -1.000000 0.000000
vn 0.000000 -1.000000 0.000000
vn 0.000000 -1.000000 0.000000
vn 0.000000 -1.000000 0.000000
vn 0.000000 -1.000000 0.000000
vn 0.000000 -1.000000 0.000000
vn 0.000000 -1.000000 0.000000
vn 0.000000 -1.000000 0.000000
vn 0.000000 -1.000000 0.000000
vn 0.000000 -1.000000 0.000000
vn 0.000000 -1.000000 0.000000
vn 0.000000 -1.000000 0.000000
vn 0.000000 -1.000000 0.000000
vn 0.000000 -1.000000 0.000000
vn 0.000000 -1.000000 0.000000
vn -0.207658 -0.839970 0.501328
vn -0.207658 -0.839970 0.501328
vn -0.207658 -0.839969 0.501328
vn -0.207658 -0.839970 0.501328
vn 0.207658 -0.839970 0.501328
vn 0.207658 -0.839970 0.501328
vn 0.207658 -0.839970 0.501328
vn 0.207658 -0.839970 0.501328
vn 0.501328 -0.839969 0.207658
vn 0.501328 -0.839969 0.207658
vn 0.501328 -0.839970 0.207658
vn 0.501328 -0.839970 0.207658
vn 0.501328 -0.839970 -0.207658
vn 0.501328 -0.839970 -0.207658
vn 0.501328 -0.839970 -0.207658
vn 0.501328 -0.839970 -0.207658
vn 0.207658 -0.839970 -0.501328
vn 0.207658 -0.839970 -0.501328
vn 0.207658 -0.839970 -0.501328
vn 0.207658 -0.839970 -0.501328
vn -0.207658 -0.839970 -0.501328
vn -0.207658 -0.839970 -0.501328
vn -0.207658 -0.839970 -0.501328
vn -0.207658 -0.839970 -0.501328
vn -0.501328 -0.839969 -0.207658
vn -0.501328 -0.839969 -0.207658
vn -0.501328 -0.839970 -0.207658
vn -0.501328 -0.839969 -0.207658
vn -0.501328 -0.839970 0.207658
vn -0.501328 -0.839970 0.207658
vn -0.501328 -0.839970 0.207658
vn -0.501328 -0.839970 0.207658
vn 0.348888 -0.410893 0.842286
vn 0.348888 -0.410893 0.842285
vn 0.348888 -0.410893 0.842285
vn 0.348888 -0.410893 0.842286
vn 0.842285 -0.410893 0.348887
vn 0.842285 -0.410893 0.348887
vn 0.842285 -0.410893 0.348887
vn 0.842285 -0.410893 0.348888
vn 0.842285 -0.410893 -0.348887
vn 0.842285 -0.410893 -0.348887
vn 0.842285 -0.410893 -0.348887
vn 0.842285 -0.410893 -0.348887
vn 0.348888 -0.410892 -0.842285
vn 0.348888 -0.410892 -0.842286
vn 0.348888 -0.410892 -0.842285
vn 0.348888 -0.410892 -0.842285
vn -0.348888 -0.410892 -0.842286
vn -0.348888 -0.410892 -0.842286
vn -0.348888 -0.410892 -0.842286
vn -0.348888 -0.410892 -0.842286
vn -0.842286 -0.410892 -0.348888
vn -0.842286 -0.410892 -0.348888
vn -0.842286 -0.410892 -0.348888
vn -0.842286 -0.410892 -0.348888
vn -0.842286 -0.410892 0.348888
vn -0.842286 -0.410892 0.348888
vn -0.842286 -0.410892 0.348888
vn -0.842286 -0.410892 0.348888
vn -0.348888 -0.410892 0.842286
vn -0.348888 -0.410892 0.842286
vn -0.348888 -0.410892 0.842286
vn -0.348888 -0.410892 0.842286
s off
f 62/1/1 2/2/2 1/3/3 61/4/4
f 63/5/5 3/6/6 2/7/7 62/8/8
f 64/9/9 4/10/10 3/6/11 63/5/12
f 65/11/13 5/12/14 4/10/15 64/9/16
f 58/13/17 6/14/18 5/12/19 65/11/20
f 7/15/21 6/14/22 58/13/23 59/16/24
f 60/17/25 8/18/26 7/15/27 59/16/28
f 61/4/29 1/3/30 8/18/31 60/17/32
f 50/19/33 49/20/34 51/21/35
f 52/22/36 50/19/37 51/21/38
f 53/23/39 52/22/40 51/21/41
f 54/24/42 53/23/43 51/21/44
f 55/25/45 54/24/46 51/21/47
f 56/26/48 55/25/49 51/21/50
f 57/27/51 56/26/52 51/21/53
f 49/20/54 57/27/55 51/21/56
f 1/3/57 2/2/58 18/28/59 17/29/60
f 2/7/61 3/6/62 19/30/63 18/31/64
f 3/6/65 4/10/66 20/32/67 19/30/68
f 4/10/69 5/12/70 21/33/71 20/32/72
f 5/12/73 6/14/74 22/34/75 21/33/76
f 6/14/77 7/15/78 23/35/79 22/34/80
f 7/15/81 8/18/82 24/36/83 23/35/84
f 8/18/85 1/3/86 17/29/87 24/36/88
f 17/29/89 18/28/90 26/37/91 25/38/92
f 18/31/93 19/30/94 27/39/95 26/40/96
f 19/30/97 20/32/98 28/41/99 27/39/100
f 20/32/101 21/33/102 29/42/103 28/41/104
f 21/33/105 22/34/106 30/43/107 29/42/108
f 22/34/109 23/35/110 31/44/111 30/43/112
f 23/35/113 24/36/114 32/45/115 31/44/116
f 24/36/117 17/29/118 25/38/119 32/45/120
f 25/38/121 26/37/122 34/46/123 33/47/124
f 26/40/125 27/39/126 35/48/127 34/49/128
f 27/39/129 28/41/130 36/50/131 35/48/132
f 28/41/133 29/42/134 37/51/135 36/50/136
f 29/42/137 30/43/138 38/52/139 37/51/140
f 30/43/141 31/44/142 39/53/143 38/52/144
f 31/44/145 32/45/146 40/54/147 39/53/148
f 32/45/149 25/38/150 33/47/151 40/54/152
f 10/55/153 9/56/154 41/57/155 42/58/156
f 11/59/157 10/55/158 42/58/159 43/60/160
f 12/61/161 11/59/162 43/60/163 44/62/164
f 13/63/165 12/61/166 44/62/167 45/64/168
f 14/65/169 13/63/170 45/64/171 46/66/172
f 15/67/173 14/65/174 46/66/175 47/68/176
f 16/69/177 15/67/178 47/68/179 48/70/180
f 9/56/181 16/69/182 48/70/183 41/57/184
f 42/58/185 41/57/186 49/20/187 50/19/188
f 43/60/189 42/58/190 50/19/191 52/22/192
f 44/62/193 43/60/194 52/22/195 53/23/196
f 45/64/197 44/62/198 53/23/199 54/24/200
f 46/66/201 45/64/202 54/24/203 55/25/204
f 47/68/205 46/66/206 55/25/207 56/26/208
f 48/70/209 47/68/210 56/26/211 57/27/212
f 41/57/213 48/70/214 57/27/215 49/20/216
f 59/16/217 58/13/218 14/71/219 15/72/220
f 60/17/221 59/16/222 15/72/223 16/73/224
f 61/4/225 60/17/226 16/73/227 9/74/228
f 62/1/229 61/4/230 9/74/231 10/75/232
f 63/5/233 62/8/234 10/76/235 11/77/236
f 64/9/237 63/5/238 11/77/239 12/78/240
f 65/11/241 64/9/242 12/78/243 13/79/244
f 58/13/245 65/11/246 13/79/247 14/71/248
v 0.000002 29.165556 -0.000002
v 0.000002 29.165556 -8.311885
v 5.877398 29.165556 -5.877398
v -5.877397 29.165556 -5.877398
v -8.311882 29.165556 -0.000002
v -5.877397 29.165556 5.877397
v 0.000002 29.165556 8.311882
v 5.877398 29.165556 5.877397
v 8.311885 29.165556 -0.000002
v 0.000002 31.526093 -8.311885
v 5.877398 31.526093 -5.877398
v -5.877397 31.526093 -5.877398
v -8.311882 31.526093 -0.000002
v -5.877397 31.526093 5.877397
v 0.000002 31.526093 8.311882
v 5.877398 31.526093 5.877397
v 8.311885 31.526093 -0.000002
v 0.000002 32.521149 -5.861299
v 4.144569 32.521149 -4.144569
v -4.144567 32.521149 -4.144569
v -5.861296 32.521149 -0.000002
v -4.144567 32.521149 4.144567
v 0.000002 32.521149 5.861296
v 4.144569 32.521149 4.144567
v 5.861299 32.521149 -0.000002
v 0.000001 32.521149 -0.000001
vt 0.256251 0.275649
vt 0.256251 0.275648
vt 0.256251 0.275648
vt 0.256251 0.275649
vt 0.256251 0.275648
vt 0.256251 0.275648
vt 0.256251 0.275649
vt 0.256251 0.275648
vt 0.256251 0.275648
vt 0.256251 0.275649
vt 0.256251 0.275648
vt 0.256251 0.275648
vt 0.256251 0.275649
vt 0.256251 0.275648
vt 0.256251 0.275648
vt 0.256251 0.275649
vt 0.256251 0.275648
vt 0.256251 0.275648
vt 0.256251 0.275649
vt 0.256251 0.275648
vt 0.256251 0.275648
vt 0.256251 0.275649
vt 0.256251 0.275648
vt 0.256251 0.275648
vt 0.256251 0.275649
vt 0.256251 0.275649
vt 0.256251 0.275648
vt 0.256251 0.275648
vt 0.256251 0.275649
vt 0.256251 0.275649
vt 0.256251 0.275648
vt 0.256251 0.275648
vt 0.256251 0.275649
vt 0.256251 0.275649
vt 0.256251 0.275648
vt 0.256251 0.275648
vt 0.256251 0.275649
vt 0.256251 0.275649
vt 0.256251 0.275648
vt 0.256251 0.275648
vt 0.256251 0.275649
vt 0.256251 0.275649
vt 0.256251 0.275648
vt 0.256251 0.275648
vt 0.256251 0.275649
vt 0.256251 0.275649
vt 0.256251 0.275648
vt 0.256251 0.275648
vt 0.256251 0.275649
vt 0.256251 0.275649
vt 0.256251 0.275648
vt 0.256251 0.275648
vt 0.256251 0.275649
vt 0.256251 0.275649
vt 0.256251 0.275648
vt 0.256251 0.275648
vt 0.256251 0.275649
vt 0.256251 0.275649
vt 0.256251 0.275648
vt 0.256251 0.275648
vt 0.256251 0.275649
vt 0.256251 0.275649
vt 0.256251 0.275648
vt 0.256251 0.275648
vt 0.256251 0.275649
vt 0.256251 0.275649
vt 0.256251 0.275648
vt 0.256251 0.275648
vt 0.256251 0.275649
vt 0.256251 0.275649
vt 0.256251 0.275648
vt 0.256251 0.275648
vt 0.256251 0.275649
vt 0.256251 0.275649
vt 0.256251 0.275648
vt 0.256251 0.275648
vt 0.256251 0.275649
vt 0.256251 0.275649
vt 0.256251 0.275648
vt 0.256251 0.275648
vt 0.256251 0.275649
vt 0.256251 0.275649
vt 0.256251 0.275648
vt 0.256251 0.275648
vt 0.256251 0.275649
vt 0.256251 0.275649
vt 0.256251 0.275648
vt 0.256251 0.275648
vt 0.256251 0.275649
vt 0.256251 0.275649
vt 0.256251 0.275648
vt 0.256251 0.275649
vt 0.256251 0.275649
vt 0.256251 0.275648
vt 0.256251 0.275649
vt 0.256251 0.275649
vt 0.256251 0.275648
vt 0.256251 0.275649
vt 0.256251 0.275649
vt 0.256251 0.275648
vt 0.256251 0.275649
vt 0.256251 0.275649
vt 0.256251 0.275648
vt 0.256251 0.275649
vt 0.256251 0.275649
vt 0.256251 0.275648
vt 0.256251 0.275649
vt 0.256251 0.275649
vt 0.256251 0.275648
vt 0.256251 0.275649
vt 0.256251 0.275649
vt 0.256251 0.275648
vn 0.000000 -1.000000 0.000000
vn 0.000000 -1.000000 0.000000
vn 0.000000 -1.000000 0.000000
vn 0.000000 -1.000000 -0.000000
vn 0.000000 -1.000000 -0.000000
vn 0.000000 -1.000000 -0.000000
vn 0.000000 -1.000000 0.000001
vn 0.000000 -1.000000 0.000001
vn 0.000000 -1.000000 0.000001
vn 0.000000 -1.000000 0.000000
vn 0.000000 -1.000000 0.000000
vn 0.000000 -1.000000 0.000000
vn 0.000000 -1.000000 0.000000
vn 0.000000 -1.000000 0.000000
vn 0.000000 -1.000000 0.000000
vn 0.000000 -1.000000 -0.000000
vn 0.000000 -1.000000 -0.000000
vn 0.000000 -1.000000 -0.000000
vn 0.000000 -1.000000 0.000001
vn 0.000000 -1.000000 0.000001
vn 0.000000 -1.000000 0.000001
vn 0.000000 -1.000000 0.000000
vn 0.000000 -1.000000 0.000000
vn 0.000000 -1.000000 0.000000
vn 0.382682 0.000000 -0.923880
vn 0.382682 0.000000 -0.923880
vn 0.382682 0.000000 -0.923880
vn 0.382682 0.000000 -0.923880
vn -0.382682 0.000000 -0.923880
vn -0.382682 0.000000 -0.923880
vn -0.382682 0.000000 -0.923880
vn -0.382682 0.000000 -0.923880
vn -0.923880 0.000000 -0.382682
vn -0.923880 0.000000 -0.382682
vn -0.923880 0.000000 -0.382682
vn -0.923880 0.000000 -0.382682
vn -0.923880 0.000000 0.382682
vn -0.923880 0.000000 0.382682
vn -0.923880 0.000000 0.382682
vn -0.923880 0.000000 0.382682
vn -0.382681 0.000000 0.923880
vn -0.382681 0.000000 0.923880
vn -0.382681 0.000000 0.923880
vn -0.382681 0.000000 0.923880
vn 0.382682 0.000000 0.923880
vn 0.382682 0.000000 0.923880
vn 0.382682 0.000000 0.923880
vn 0.382682 0.000000 0.923880
vn 0.923880 0.000000 0.382682
vn 0.923880 0.000000 0.382682
vn 0.923880 0.000000 0.382682
vn 0.923880 0.000000 0.382682
vn 0.923880 0.000000 -0.382682
vn 0.923880 0.000000 -0.382682
vn 0.923880 0.000000 -0.382682
vn 0.923880 0.000000 -0.382682
vn 0.153975 0.915482 -0.371731
vn 0.153975 0.915482 -0.371731
vn 0.153975 0.915482 -0.371731
vn 0.153975 0.915482 -0.371731
vn -0.153975 0.915483 -0.371730
vn -0.153975 0.915483 -0.371730
vn -0.153975 0.915483 -0.371730
vn -0.153975 0.915483 -0.371730
vn -0.371730 0.915483 -0.153975
vn -0.371730 0.915483 -0.153975
vn -0.371730 0.915483 -0.153975
vn -0.371730 0.915483 -0.153975
vn -0.371730 0.915483 0.153974
vn -0.371730 0.915483 0.153974
vn -0.371730 0.915483 0.153974
vn -0.371730 0.915483 0.153974
vn -0.153975 0.915483 0.371729
vn -0.153975 0.915483 0.371729
vn -0.153975 0.915483 0.371729
vn -0.153975 0.915483 0.371729
vn 0.153975 0.915482 0.371731
vn 0.153975 0.915482 0.371731
vn 0.153975 0.915482 0.371731
vn 0.153975 0.915482 0.371731
vn 0.371730 0.915483 0.153975
vn 0.371730 0.915483 0.153975
vn 0.371730 0.915483 0.153975
vn 0.371730 0.915483 0.153975
vn 0.371730 0.915483 -0.153975
vn 0.371730 0.915483 -0.153975
vn 0.371730 0.915483 -0.153975
vn 0.371730 0.915483 -0.153975
vn 0.000000 1.000000 0.000000
vn 0.000000 1.000000 0.000000
vn 0.000000 1.000000 0.000000
vn 0.000000 1.000000 -0.000001
vn 0.000000 1.000000 -0.000001
vn 0.000000 1.000000 -0.000001
vn 0.000000 1.000000 0.000000
vn 0.000000 1.000000 0.000000
vn 0.000000 1.000000 0.000000
vn 0.000000 1.000000 0.000000
vn 0.000000 1.000000 0.000000
vn 0.000000 1.000000 0.000000
vn 0.000000 1.000000 0.000000
vn 0.000000 1.000000 0.000000
vn 0.000000 1.000000 0.000000
vn 0.000000 1.000000 -0.000001
vn 0.000000 1.000000 -0.000001
vn 0.000000 1.000000 -0.000001
vn 0.000000 1.000000 0.000000
vn 0.000000 1.000000 0.000000
vn 0.000000 1.000000 0.000000
vn 0.000000 1.000000 0.000000
vn 0.000000 1.000000 0.000000
vn 0.000000 1.000000 0.000000
s off
f 66/80/249 67/81/250 68/82/251
f 66/83/252 69/84/253 67/85/254
f 66/86/255 70/87/256 69/88/257
f 66/89/258 71/90/259 70/91/260
f 66/92/261 72/93/262 71/94/263
f 66/95/264 73/96/265 72/97/266
f 66/98/267 74/99/268 73/100/269
f 66/101/270 68/102/271 74/103/272
f 68/104/273 67/105/274 75/106/275 76/107/276
f 67/108/277 69/109/278 77/110/279 75/111/280
f 69/112/281 70/113/282 78/114/283 77/115/284
f 70/116/285 71/117/286 79/118/287 78/119/288
f 71/120/289 72/121/290 80/122/291 79/123/292
f 72/124/293 73/125/294 81/126/295 80/127/296
f 73/128/297 74/129/298 82/130/299 81/131/300
f 74/132/301 68/133/302 76/134/303 82/135/304
f 76/136/305 75/137/306 83/138/307 84/139/308
f 75/140/309 77/141/310 85/142/311 83/143/312
f 77/144/313 78/145/314 86/146/315 85/147/316
f 78/148/317 79/149/318 87/150/319 86/151/320
f 79/152/321 80/153/322 88/154/323 87/155/324
f 80/156/325 81/157/326 89/158/327 88/159/328
f 81/160/329 82/161/330 90/162/331 89/163/332
f 82/164/333 76/165/334 84/166/335 90/167/336
f 84/168/337 83/169/338 91/170/339
f 83/171/340 85/172/341 91/173/342
f 85/174/343 86/175/344 91/176/345
f 86/177/346 87/178/347 91/179/348
f 87/180/349 88/181/350 91/182/351
f 88/183/352 89/184/353 91/185/354
f 89/186/355 90/187/356 91/188/357
f 90/189/358 84/190/359 91/191/360
