# This file uses meters as units for non-parametric coordinates.

v -29.761028 8.938599 43.897057
v -29.761028 8.938599 -45.295715
v -42.757896 8.938599 42.628670
v -42.757896 8.938599 -45.295715
v -29.761028 4.469299 43.897057
v -29.761028 4.469299 -45.295715
v -42.757896 4.469299 42.628670
v -42.757896 4.469299 -45.295715
v -31.170750 8.938599 20.034409
v -31.170750 4.469299 18.988037
v 45.057392 8.938599 43.897057
v 45.057392 8.938599 -45.295715
v 34.203625 8.938599 43.897057
v 32.060528 8.938599 -45.295715
v 45.057392 4.469299 43.897057
v 45.057392 4.469299 -45.295715
v 34.203625 4.469299 43.897057
v 32.060528 4.469299 -45.295715
v -45.049286 4.469299 39.832115
v -45.057487 4.469299 26.835251
v 44.135284 4.469299 26.778793
v -45.049286 0.000000 39.832115
v 44.143486 0.000000 39.775658
v -45.057487 0.000000 26.835251
v 44.135284 0.000000 26.778793
v -15.834427 4.469299 38.403893
v -14.788055 0.000000 38.403130
v 39.033699 4.469299 39.658737
v 44.143486 2.662120 39.775658
v 44.141388 4.469299 36.599731
v -45.049286 4.469299 -27.251053
v -45.057487 4.469299 -40.247726
v 44.135284 4.469299 -40.304184
v -45.049286 0.000000 -27.251053
v 44.143486 0.000000 -27.307510
v -45.057487 0.000000 -40.247726
v 44.135284 0.000000 -40.304184
v -15.834427 4.469299 -28.679276
v -14.788055 0.000000 -28.679846
v 43.802643 4.469299 -27.610779
v -8.251859 8.938599 -43.545532
v -8.251859 8.938599 45.295906
v 2.601910 8.938599 -43.545532
v 4.745007 8.938599 43.897057
v -8.251859 4.469299 -43.545532
v -8.251859 4.469299 45.295906
v 2.601910 4.469299 -43.545532
v 4.745007 4.469299 43.897057
v 20.888805 8.938599 43.897057
v 20.888805 8.938599 -45.295715
v 10.035038 8.938599 43.897057
v 7.891941 8.938599 -45.295715
v 20.888805 4.469299 43.897057
v 20.888805 4.469299 -45.295715
v 10.035038 4.469299 43.897057
v 7.891941 4.469299 -45.295715
v -12.383652 8.938599 43.897247
v -12.383652 8.938599 -45.295525
v -23.237419 8.938599 43.897247
v -25.380516 8.938599 -45.295525
v -12.383652 4.469299 43.897247
v -12.383652 4.469299 -45.295525
v -23.237419 4.469299 43.897247
v -25.380516 4.469299 -45.295525
vt 0.221417 0.304003
vt 0.221417 0.304002
vt 0.221417 0.304001
vt 0.221417 0.304001
vt 0.221296 0.303836
vt 0.221845 0.303836
vt 0.221845 0.304385
vt 0.221296 0.304385
vt 0.221296 0.303836
vt 0.221845 0.303836
vt 0.221845 0.304385
vt 0.221296 0.304385
vt 0.221296 0.303836
vt 0.221845 0.303836
vt 0.221845 0.304385
vt 0.221296 0.304385
vt 0.221296 0.303836
vt 0.221845 0.303836
vt 0.221845 0.304385
vt 0.221296 0.304385
vt 0.221417 0.304002
vt 0.221583 0.303836
vt 0.221576 0.304385
vt 0.221296 0.304385
vt 0.221417 0.304003
vt 0.221417 0.304002
vt 0.221417 0.304001
vt 0.221417 0.304001
vt 0.221296 0.303836
vt 0.221845 0.303836
vt 0.221845 0.304385
vt 0.221296 0.304385
vt 0.221296 0.303836
vt 0.221845 0.303836
vt 0.221845 0.304385
vt 0.221296 0.304385
vt 0.221296 0.303836
vt 0.221845 0.303836
vt 0.221845 0.304385
vt 0.221296 0.304385
vt 0.221296 0.303836
vt 0.221845 0.303836
vt 0.221845 0.304385
vt 0.221296 0.304385
vt 0.221417 0.304003
vt 0.221321 0.303836
vt 0.221845 0.304058
vt 0.221296 0.303836
vt 0.221845 0.303836
vt 0.221845 0.304385
vt 0.221296 0.304385
vt 0.221296 0.303836
vt 0.221845 0.303836
vt 0.221845 0.304385
vt 0.221296 0.304385
vt 0.221296 0.304385
vt 0.221296 0.304385
vt 0.221296 0.304385
vt 0.221576 0.304385
vt 0.221583 0.303836
vt 0.221845 0.303836
vt 0.221845 0.304385
vt 0.221296 0.304058
vt 0.221296 0.303836
vt 0.221711 0.303836
vt 0.221845 0.304385
vt 0.221417 0.304002
vt 0.221417 0.304002
vt 0.221417 0.304001
vt 0.221417 0.304001
vt 0.221417 0.304002
vt 0.221296 0.303836
vt 0.221845 0.303836
vt 0.221845 0.304385
vt 0.221296 0.304385
vt 0.221296 0.303836
vt 0.221845 0.303836
vt 0.221845 0.304385
vt 0.221296 0.304385
vt 0.221296 0.304385
vt 0.221296 0.304385
vt 0.221296 0.304385
vt 0.221576 0.304385
vt 0.221583 0.303836
vt 0.221845 0.303836
vt 0.221845 0.304385
vt 0.221345 0.303966
vt 0.221296 0.303836
vt 0.221778 0.303947
vt 0.221845 0.304385
vt 0.221417 0.304002
vt 0.221417 0.304002
vt 0.221417 0.304001
vt 0.221417 0.304001
vt 0.221417 0.304002
vt 0.221417 0.304003
vt 0.221417 0.304002
vt 0.221417 0.304001
vt 0.221417 0.304001
vt 0.221296 0.303836
vt 0.221845 0.303836
vt 0.221845 0.304385
vt 0.221296 0.304385
vt 0.221296 0.303836
vt 0.221845 0.303836
vt 0.221845 0.304385
vt 0.221296 0.304385
vt 0.221296 0.303836
vt 0.221845 0.303836
vt 0.221845 0.304385
vt 0.221296 0.304385
vt 0.221296 0.303836
vt 0.221845 0.303836
vt 0.221845 0.304385
vt 0.221296 0.304385
vt 0.221417 0.304003
vt 0.221417 0.304002
vt 0.221417 0.304001
vt 0.221417 0.304001
vt 0.221296 0.303836
vt 0.221845 0.303836
vt 0.221845 0.304385
vt 0.221296 0.304385
vt 0.221296 0.303836
vt 0.221845 0.303836
vt 0.221845 0.304385
vt 0.221296 0.304385
vt 0.221296 0.303836
vt 0.221845 0.303836
vt 0.221845 0.304385
vt 0.221296 0.304385
vt 0.221296 0.303836
vt 0.221845 0.303836
vt 0.221845 0.304385
vt 0.221296 0.304385
vt 0.221417 0.304003
vt 0.221417 0.304002
vt 0.221417 0.304001
vt 0.221417 0.304001
vt 0.221296 0.303836
vt 0.221845 0.303836
vt 0.221845 0.304385
vt 0.221296 0.304385
vt 0.221296 0.303836
vt 0.221845 0.303836
vt 0.221845 0.304385
vt 0.221296 0.304385
vt 0.221296 0.303836
vt 0.221845 0.303836
vt 0.221845 0.304385
vt 0.221296 0.304385
vt 0.221296 0.303836
vt 0.221845 0.303836
vt 0.221845 0.304385
vt 0.221296 0.304385
vn 0.000000 1.000000 0.000000
vn 0.000000 1.000000 0.000000
vn 0.000000 1.000000 0.000000
vn 0.000000 1.000000 0.000000
vn 0.000000 1.000000 0.000000
vn 0.999760 -0.002546 0.021747
vn 0.999760 -0.002546 0.021747
vn 0.999760 -0.002546 0.021747
vn 0.999760 -0.002546 0.021747
vn -0.097130 0.000000 0.995272
vn -0.097130 0.000000 0.995272
vn -0.097130 0.000000 0.995272
vn -0.097130 0.000000 0.995272
vn 0.000000 0.000000 -1.000000
vn 0.000000 0.000000 -1.000000
vn 0.000000 0.000000 -1.000000
vn 0.000000 0.000000 -1.000000
vn -1.000000 0.000000 0.000000
vn -1.000000 0.000000 0.000000
vn -1.000000 0.000000 0.000000
vn -1.000000 0.000000 0.000000
vn 0.000000 -1.000000 -0.000000
vn 0.000000 -1.000000 -0.000000
vn 0.000000 -1.000000 -0.000000
vn 0.000000 -1.000000 -0.000000
vn 0.000000 -1.000000 -0.000000
vn 0.998311 0.006756 -0.057711
vn 0.998310 0.006756 -0.057711
vn 0.998310 0.006756 -0.057711
vn 0.998310 0.006756 -0.057711
vn 0.000000 1.000000 0.000000
vn 0.000000 1.000000 0.000000
vn 0.000000 1.000000 0.000000
vn 0.000000 1.000000 0.000000
vn 1.000000 0.000000 0.000000
vn 1.000000 0.000000 0.000000
vn 1.000000 0.000000 0.000000
vn 1.000000 0.000000 0.000000
vn 0.000000 0.000000 1.000000
vn 0.000000 0.000000 1.000000
vn 0.000000 0.000000 1.000000
vn 0.000000 0.000000 1.000000
vn 0.000000 0.000000 -1.000000
vn 0.000000 0.000000 -1.000000
vn 0.000000 0.000000 -1.000000
vn 0.000000 0.000000 -1.000000
vn -0.999712 0.000000 0.024021
vn -0.999712 0.000000 0.024021
vn -0.999712 0.000000 0.024021
vn -0.999712 0.000000 0.024021
vn 0.000000 -1.000000 0.000000
vn 0.000000 -1.000000 0.000000
vn 0.000000 -1.000000 0.000000
vn 0.000000 -1.000000 0.000000
vn 0.283921 0.833455 0.474070
vn 0.283921 0.833455 0.474070
vn 0.283921 0.833455 0.474070
vn -1.000000 0.000000 0.000631
vn -1.000000 0.000000 0.000631
vn -1.000000 0.000000 0.000631
vn -1.000000 0.000000 0.000631
vn -0.000633 0.000000 -1.000000
vn -0.000633 0.000000 -1.000000
vn -0.000633 0.000000 -1.000000
vn -0.000633 0.000000 -1.000000
vn 0.000000 -1.000000 0.000000
vn 0.000000 -1.000000 0.000000
vn 0.000000 -1.000000 0.000000
vn 0.000000 -1.000000 0.000000
vn 0.000000 -1.000000 0.000000
vn 0.047984 0.005532 0.998833
vn 0.047984 0.005532 0.998833
vn 0.047984 0.005532 0.998833
vn 0.047984 0.005532 0.998833
vn -0.023076 -0.002829 0.999730
vn -0.023076 -0.002829 0.999730
vn -0.023076 -0.002829 0.999730
vn -0.023076 -0.002829 0.999730
vn -0.023076 -0.002829 0.999730
vn 1.000000 0.000011 -0.000630
vn 1.000000 0.000011 -0.000630
vn 1.000000 0.000011 -0.000630
vn 1.000000 0.000011 -0.000630
vn 1.000000 0.000011 -0.000630
vn 0.000000 1.000000 0.000000
vn 0.000000 1.000000 0.000000
vn 0.000000 1.000000 0.000000
vn 0.000000 1.000000 0.000000
vn 0.000000 1.000000 0.000000
vn 0.000000 1.000000 0.000000
vn -1.000000 0.000000 0.000631
vn -1.000000 0.000000 0.000631
vn -1.000000 0.000000 0.000631
vn -1.000000 0.000000 0.000631
vn -0.000633 0.000000 -1.000000
vn -0.000633 0.000000 -1.000000
vn -0.000633 0.000000 -1.000000
vn -0.000633 0.000000 -1.000000
vn 0.000000 -1.000000 0.000000
vn 0.000000 -1.000000 0.000000
vn 0.000000 -1.000000 0.000000
vn 0.000000 -1.000000 0.000000
vn 0.000000 -1.000000 0.000000
vn 0.047980 0.005553 0.998833
vn 0.047980 0.005553 0.998833
vn 0.047980 0.005553 0.998833
vn 0.047980 0.005553 0.998833
vn -0.020572 0.030648 0.999319
vn -0.020572 0.030648 0.999319
vn -0.020572 0.030648 0.999319
vn -0.020572 0.030648 0.999319
vn 0.999178 0.038529 0.012619
vn 0.999178 0.038529 0.012619
vn 0.999178 0.038529 0.012619
vn 0.999178 0.038529 0.012619
vn 0.000000 1.000000 0.000000
vn 0.000000 1.000000 0.000000
vn 0.000000 1.000000 0.000000
vn 0.000000 1.000000 0.000000
vn 0.000000 1.000000 0.000000
vn 0.000000 1.000000 0.000000
vn 0.000000 1.000000 0.000000
vn 0.000000 1.000000 0.000000
vn 0.000000 1.000000 0.000000
vn -1.000000 0.000000 0.000000
vn -1.000000 0.000000 0.000000
vn -1.000000 0.000000 0.000000
vn -1.000000 0.000000 0.000000
vn 0.000000 0.000000 -1.000000
vn 0.000000 0.000000 -1.000000
vn 0.000000 0.000000 -1.000000
vn 0.000000 0.000000 -1.000000
vn 0.107012 0.000000 0.994258
vn 0.107012 0.000000 0.994258
vn 0.107012 0.000000 0.994258
vn 0.107012 0.000000 0.994258
vn 0.999700 0.000000 -0.024501
vn 0.999700 0.000000 -0.024501
vn 0.999700 0.000000 -0.024501
vn 0.999700 0.000000 -0.024501
vn 0.000000 -1.000000 -0.000000
vn 0.000000 -1.000000 -0.000000
vn 0.000000 -1.000000 -0.000000
vn 0.000000 -1.000000 -0.000000
vn 0.000000 1.000000 0.000000
vn 0.000000 1.000000 0.000000
vn 0.000000 1.000000 0.000000
vn 0.000000 1.000000 0.000000
vn 1.000000 0.000000 0.000000
vn 1.000000 0.000000 0.000000
vn 1.000000 0.000000 0.000000
vn 1.000000 0.000000 0.000000
vn 0.000000 0.000000 1.000000
vn 0.000000 0.000000 1.000000
vn 0.000000 0.000000 1.000000
vn 0.000000 0.000000 1.000000
vn 0.000000 0.000000 -1.000000
vn 0.000000 0.000000 -1.000000
vn 0.000000 0.000000 -1.000000
vn 0.000000 0.000000 -1.000000
vn -0.999712 0.000000 0.024021
vn -0.999712 0.000000 0.024021
vn -0.999712 0.000000 0.024021
vn -0.999712 0.000000 0.024021
vn 0.000000 -1.000000 0.000000
vn 0.000000 -1.000000 0.000000
vn 0.000000 -1.000000 0.000000
vn 0.000000 -1.000000 0.000000
vn 0.000000 1.000000 0.000000
vn 0.000000 1.000000 0.000000
vn 0.000000 1.000000 0.000000
vn 0.000000 1.000000 0.000000
vn 1.000000 0.000000 0.000000
vn 1.000000 0.000000 0.000000
vn 1.000000 0.000000 0.000000
vn 1.000000 0.000000 0.000000
vn 0.000000 0.000000 1.000000
vn 0.000000 0.000000 1.000000
vn 0.000000 0.000000 1.000000
vn 0.000000 0.000000 1.000000
vn 0.000000 0.000000 -1.000000
vn 0.000000 0.000000 -1.000000
vn 0.000000 0.000000 -1.000000
vn 0.000000 0.000000 -1.000000
vn -0.999712 0.000000 0.024021
vn -0.999712 0.000000 0.024021
vn -0.999712 0.000000 0.024021
vn -0.999712 0.000000 0.024021
vn 0.000000 -1.000000 0.000000
vn 0.000000 -1.000000 0.000000
vn 0.000000 -1.000000 0.000000
vn 0.000000 -1.000000 0.000000
s off
f 2/1/1 4/2/2 3/3/3 1/4/4 9/21/5
f 2/5/6 9/22/7 10/23/8 6/8/9
f 1/9/10 3/10/11 7/11/12 5/12/13
f 4/13/14 2/14/15 6/15/16 8/16/17
f 3/17/18 4/18/19 8/19/20 7/20/21
f 8/16/22 6/8/23 10/24/24 5/12/25 7/20/26
f 10/23/27 9/22/28 1/6/29 5/7/30
f 12/25/31 14/26/32 13/27/33 11/28/34
f 12/29/35 11/30/36 15/31/37 16/32/38
f 11/33/39 13/34/40 17/35/41 15/36/42
f 14/37/43 12/38/44 16/39/45 18/40/46
f 13/41/47 14/42/48 18/43/49 17/44/50
f 18/40/51 16/32/52 15/36/53 17/44/54
f 30/45/55 28/46/56 29/47/57
f 19/48/58 20/49/59 24/50/60 22/51/61
f 20/52/62 21/53/63 25/54/64 24/55/65
f 25/56/66 23/57/67 27/58/68 22/51/69 24/55/70
f 27/59/71 26/60/72 19/61/73 22/62/74
f 29/63/75 28/46/76 26/60/77 27/59/78 23/57/79
f 21/64/80 30/65/81 29/47/82 23/66/83 25/56/84
f 28/67/85 30/45/86 21/68/87 20/69/88 19/70/89 26/71/90
f 31/72/91 32/73/92 36/74/93 34/75/94
f 32/76/95 33/77/96 37/78/97 36/79/98
f 37/80/99 35/81/100 39/82/101 34/75/102 36/79/103
f 39/83/104 38/84/105 31/85/106 34/86/107
f 40/87/108 38/84/109 39/83/110 35/81/111
f 33/88/112 40/89/113 35/90/114 37/80/115
f 40/91/116 33/92/117 32/93/118 31/94/119 38/95/120
f 42/96/121 44/97/122 43/98/123 41/99/124
f 42/100/125 41/101/126 45/102/127 46/103/128
f 41/104/129 43/105/130 47/106/131 45/107/132
f 44/108/133 42/109/134 46/110/135 48/111/136
f 43/112/137 44/113/138 48/114/139 47/115/140
f 48/111/141 46/103/142 45/107/143 47/115/144
f 50/116/145 52/117/146 51/118/147 49/119/148
f 50/120/149 49/121/150 53/122/151 54/123/152
f 49/124/153 51/125/154 55/126/155 53/127/156
f 52/128/157 50/129/158 54/130/159 56/131/160
f 51/132/161 52/133/162 56/134/163 55/135/164
f 56/131/165 54/123/166 53/127/167 55/135/168
f 58/136/169 60/137/170 59/138/171 57/139/172
f 58/140/173 57/141/174 61/142/175 62/143/176
f 57/144/177 59/145/178 63/146/179 61/147/180
f 60/148/181 58/149/182 62/150/183 64/151/184
f 59/152/185 60/153/186 64/154/187 63/155/188
f 64/151/189 62/143/190 61/147/191 63/155/192
