# This file uses meters as units for non-parametric coordinates.

v 13.397646 0.000000 -7.735157
v 7.735109 0.000000 -13.397669
v 0.000000 0.000000 -15.470266
v -7.735109 0.000000 -13.397669
v -13.397646 0.000000 -7.735157
v -15.470266 0.000000 -0.000024
v -13.397646 0.000000 7.735133
v -7.735109 0.000000 13.397623
v 0.000000 0.000000 15.470243
v 7.735109 0.000000 13.397623
v 13.397646 0.000000 7.735133
v 15.470266 0.000000 -0.000024
v 13.397646 4.084987 -7.735157
v 7.735109 4.084987 -13.397669
v 0.000000 4.084987 -15.470266
v -7.735109 4.084987 -13.397669
v -13.397646 4.084987 -7.735157
v -15.470266 4.084987 -0.000024
v -13.397646 4.084987 7.735133
v -7.735109 4.084987 13.397623
v 0.000000 4.084987 15.470243
v 7.735109 4.084987 13.397623
v 13.397646 4.084987 7.735133
v 15.470266 4.084987 -0.000024
v 15.849400 0.000000 -10.186887
v 10.186863 0.000000 -15.849400
v 10.186863 4.084987 -15.849400
v 15.849400 4.084987 -10.186887
v -0.897408 0.000000 -18.819427
v -8.632517 0.000000 -16.746855
v -8.632517 4.084987 -16.746855
v -0.897408 4.084987 -18.819427
v -16.746805 0.000000 -8.632565
v -18.819427 0.000000 -0.897408
v -18.819427 4.084987 -0.897408
v -16.746805 4.084987 -8.632565
v -15.849400 0.000000 10.186887
v -10.186863 0.000000 15.849400
v -10.186863 4.084987 15.849400
v -15.849400 4.084987 10.186887
v 0.897408 0.000000 18.819427
v 8.632517 0.000000 16.746805
v 8.632517 4.084987 16.746805
v 0.897408 4.084987 18.819427
v 16.746805 0.000000 8.632517
v 18.819427 0.000000 0.897384
v 18.819427 4.084987 0.897384
v 16.746805 4.084987 8.632517
v 7.748699 0.000000 -4.473734
v 4.473686 0.000000 -7.748699
v 0.000000 0.000000 -8.947420
v -4.473686 0.000000 -7.748699
v -7.748699 0.000000 -4.473734
v -8.947420 0.000000 -0.000024
v -7.748699 0.000000 4.473710
v -4.473686 0.000000 7.748675
v 0.000000 0.000000 8.947397
v 4.473686 0.000000 7.748675
v 7.748699 0.000000 4.473710
v 8.947420 0.000000 -0.000024
v 7.748699 4.084987 -4.473734
v 4.473686 4.084987 -7.748699
v 0.000000 4.084987 -8.947420
v -4.473686 4.084987 -7.748699
v -7.748699 4.084987 -4.473734
v -8.947420 4.084987 -0.000024
v -7.748699 4.084987 4.473710
v -4.473686 4.084987 7.748675
v 0.000000 4.084987 8.947397
v 4.473686 4.084987 7.748675
v 7.748699 4.084987 4.473710
v 8.947420 4.084987 -0.000024
vt 0.245211 0.305292
vt 0.245211 0.305292
vt 0.245211 0.305292
vt 0.245211 0.305292
vt 0.245211 0.305292
vt 0.245211 0.305292
vt 0.245211 0.305292
vt 0.245211 0.305292
vt 0.245211 0.305292
vt 0.245211 0.305292
vt 0.245211 0.305292
vt 0.245211 0.305292
vt 0.245211 0.305292
vt 0.245211 0.305292
vt 0.245211 0.305292
vt 0.245211 0.305292
vt 0.245211 0.305292
vt 0.245211 0.305292
vt 0.245211 0.305292
vt 0.245211 0.305292
vt 0.245211 0.305292
vt 0.245211 0.305292
vt 0.245211 0.305292
vt 0.245211 0.305292
vt 0.245211 0.305292
vt 0.245211 0.305292
vt 0.245211 0.305292
vt 0.245211 0.305292
vt 0.245211 0.305292
vt 0.245211 0.305292
vt 0.245211 0.305292
vt 0.245211 0.305292
vt 0.245211 0.305292
vt 0.245211 0.305292
vt 0.245211 0.305292
vt 0.245211 0.305292
vt 0.245211 0.305292
vt 0.245211 0.305292
vt 0.245211 0.305292
vt 0.245211 0.305292
vt 0.245211 0.305292
vt 0.245211 0.305292
vt 0.245211 0.305292
vt 0.245211 0.305292
vt 0.245211 0.305292
vt 0.245211 0.305292
vt 0.245211 0.305292
vt 0.245211 0.305292
vt 0.245211 0.305292
vt 0.245211 0.305292
vt 0.245211 0.305292
vt 0.245211 0.305292
vt 0.245211 0.305292
vt 0.245211 0.305292
vt 0.245211 0.305292
vt 0.245211 0.305292
vt 0.245211 0.305292
vt 0.245211 0.305292
vt 0.245211 0.305292
vt 0.245211 0.305292
vt 0.245211 0.305292
vt 0.245211 0.305292
vt 0.245211 0.305292
vt 0.245211 0.305292
vt 0.245211 0.305292
vt 0.245211 0.305292
vt 0.245211 0.305292
vt 0.245211 0.305292
vt 0.245211 0.305292
vt 0.245211 0.305292
vt 0.245211 0.305292
vt 0.245211 0.305292
vt 0.245211 0.305292
vt 0.245211 0.305292
vt 0.245211 0.305292
vt 0.245211 0.305292
vt 0.245211 0.305292
vt 0.245211 0.305292
vt 0.245211 0.305292
vt 0.245211 0.305292
vt 0.245211 0.305292
vt 0.245211 0.305292
vt 0.245211 0.305292
vt 0.245211 0.305292
vt 0.245211 0.305292
vt 0.245211 0.305292
vt 0.245211 0.305292
vt 0.245211 0.305292
vt 0.245211 0.305292
vt 0.245211 0.305292
vt 0.245211 0.305292
vt 0.245211 0.305292
vt 0.245211 0.305292
vt 0.245211 0.305292
vt 0.245211 0.305292
vt 0.245211 0.305292
vt 0.245211 0.305292
vt 0.245211 0.305292
vt 0.245211 0.305292
vt 0.245211 0.305292
vt 0.245211 0.305292
vt 0.245211 0.305292
vt 0.245211 0.305292
vt 0.245211 0.305292
vt 0.245211 0.305292
vt 0.245211 0.305292
vt 0.245211 0.305292
vt 0.245211 0.305292
vt 0.245211 0.305292
vt 0.245211 0.305292
vn 0.707105 0.000000 -0.707108
vn 0.707105 0.000000 -0.707108
vn 0.707105 0.000000 -0.707108
vn 0.707105 0.000000 -0.707108
vn 0.258817 0.000000 -0.965926
vn 0.258817 0.000000 -0.965926
vn 0.258817 0.000000 -0.965926
vn 0.258817 0.000000 -0.965926
vn -0.258814 0.000000 -0.965927
vn -0.258814 0.000000 -0.965927
vn -0.258814 0.000000 -0.965927
vn -0.258814 0.000000 -0.965927
vn -0.707105 0.000000 -0.707108
vn -0.707105 0.000000 -0.707108
vn -0.707105 0.000000 -0.707108
vn -0.707105 0.000000 -0.707108
vn -0.965926 0.000000 -0.258818
vn -0.965926 0.000000 -0.258818
vn -0.965926 0.000000 -0.258818
vn -0.965926 0.000000 -0.258818
vn -0.965926 0.000000 0.258818
vn -0.965926 0.000000 0.258818
vn -0.965926 0.000000 0.258818
vn -0.965926 0.000000 0.258818
vn -0.707105 0.000000 0.707108
vn -0.707105 0.000000 0.707108
vn -0.707105 0.000000 0.707108
vn -0.707105 0.000000 0.707108
vn -0.258819 0.000000 0.965926
vn -0.258819 0.000000 0.965926
vn -0.258819 0.000000 0.965926
vn -0.258819 0.000000 0.965926
vn 0.258820 0.000000 0.965926
vn 0.258820 0.000000 0.965926
vn 0.258820 0.000000 0.965926
vn 0.258820 0.000000 0.965926
vn 0.707104 0.000000 0.707110
vn 0.707104 0.000000 0.707110
vn 0.707104 0.000000 0.707110
vn 0.707104 0.000000 0.707110
vn 0.965926 0.000000 0.258819
vn 0.965926 0.000000 0.258819
vn 0.965926 0.000000 0.258819
vn 0.965926 0.000000 0.258819
vn 0.965926 0.000000 -0.258819
vn 0.965926 0.000000 -0.258819
vn 0.965926 0.000000 -0.258819
vn 0.965926 0.000000 -0.258819
vn 0.000000 -1.000000 0.000000
vn 0.000000 -1.000000 0.000000
vn 0.000000 -1.000000 0.000000
vn 0.000000 -1.000000 0.000000
vn -0.707103 0.000000 -0.707110
vn -0.707103 0.000000 -0.707110
vn -0.707103 0.000000 -0.707110
vn -0.707103 0.000000 -0.707110
vn 0.000000 1.000000 0.000000
vn 0.000000 1.000000 0.000000
vn 0.000000 1.000000 0.000000
vn 0.000000 1.000000 0.000000
vn 0.707103 0.000000 0.707110
vn 0.707103 0.000000 0.707110
vn 0.707103 0.000000 0.707110
vn 0.707103 0.000000 0.707110
vn 0.000000 -1.000000 0.000000
vn 0.000000 -1.000000 0.000000
vn 0.000000 -1.000000 0.000000
vn 0.000000 -1.000000 0.000000
vn -0.965926 0.000000 0.258818
vn -0.965926 0.000000 0.258818
vn -0.965926 0.000000 0.258818
vn -0.965926 0.000000 0.258818
vn 0.000000 1.000000 -0.000000
vn 0.000000 1.000000 -0.000000
vn 0.000000 1.000000 -0.000000
vn 0.000000 1.000000 -0.000000
vn 0.965926 0.000000 -0.258820
vn 0.965926 0.000000 -0.258820
vn 0.965926 0.000000 -0.258820
vn 0.965926 0.000000 -0.258820
vn 0.000000 -1.000000 0.000000
vn 0.000000 -1.000000 0.000000
vn 0.000000 -1.000000 0.000000
vn 0.000000 -1.000000 0.000000
vn -0.258813 0.000000 0.965927
vn -0.258813 0.000000 0.965927
vn -0.258813 0.000000 0.965927
vn -0.258813 0.000000 0.965927
vn 0.000000 1.000000 0.000000
vn 0.000000 1.000000 0.000000
vn 0.000000 1.000000 0.000000
vn 0.000000 1.000000 0.000000
vn 0.258820 0.000000 -0.965926
vn 0.258820 0.000000 -0.965926
vn 0.258820 0.000000 -0.965926
vn 0.258820 0.000000 -0.965926
vn 0.000000 -1.000000 0.000000
vn 0.000000 -1.000000 0.000000
vn 0.000000 -1.000000 0.000000
vn 0.000000 -1.000000 0.000000
vn 0.707110 0.000000 0.707104
vn 0.707110 0.000000 0.707104
vn 0.707110 0.000000 0.707104
vn 0.707110 0.000000 0.707104
vn 0.000000 1.000000 0.000000
vn 0.000000 1.000000 0.000000
vn 0.000000 1.000000 0.000000
vn 0.000000 1.000000 0.000000
vn -0.707107 0.000000 -0.707107
vn -0.707107 0.000000 -0.707107
vn -0.707107 0.000000 -0.707107
vn -0.707107 0.000000 -0.707107
vn 0.000000 -1.000000 0.000000
vn 0.000000 -1.000000 0.000000
vn 0.000000 -1.000000 0.000000
vn 0.000000 -1.000000 0.000000
vn 0.965926 0.000000 -0.258818
vn 0.965926 0.000000 -0.258818
vn 0.965926 0.000000 -0.258818
vn 0.965926 0.000000 -0.258818
vn 0.000000 1.000000 0.000000
vn 0.000000 1.000000 0.000000
vn 0.000000 1.000000 0.000000
vn 0.000000 1.000000 0.000000
vn -0.965926 0.000000 0.258818
vn -0.965926 0.000000 0.258818
vn -0.965926 0.000000 0.258818
vn -0.965926 0.000000 0.258818
vn 0.000000 -1.000000 0.000000
vn 0.000000 -1.000000 0.000000
vn 0.000000 -1.000000 0.000000
vn 0.000000 -1.000000 0.000000
vn 0.258820 0.000000 -0.965926
vn 0.258820 0.000000 -0.965926
vn 0.258820 0.000000 -0.965926
vn 0.258820 0.000000 -0.965926
vn 0.000000 1.000000 0.000000
vn 0.000000 1.000000 0.000000
vn 0.000000 1.000000 0.000000
vn 0.000000 1.000000 0.000000
vn -0.258814 0.000000 0.965927
vn -0.258814 0.000000 0.965927
vn -0.258814 0.000000 0.965927
vn -0.258814 0.000000 0.965927
vn 0.000000 -1.000000 0.000000
vn 0.000000 -1.000000 0.000000
vn 0.000000 -1.000000 0.000000
vn 0.000000 -1.000000 0.000000
vn 0.000000 -1.000000 0.000000
vn 0.000000 -1.000000 0.000000
vn 0.000000 -1.000000 0.000000
vn 0.000000 -1.000000 0.000000
vn 0.000000 -1.000000 0.000000
vn 0.000000 -1.000000 0.000000
vn 0.000000 -1.000000 0.000000
vn 0.000000 -1.000000 0.000000
vn 0.000000 -1.000000 0.000000
vn 0.000000 -1.000000 0.000000
vn 0.000000 -1.000000 0.000000
vn 0.000000 -1.000000 0.000000
vn 0.000000 -1.000000 0.000000
vn 0.000000 -1.000000 0.000000
vn 0.000000 -1.000000 0.000000
vn 0.000000 -1.000000 0.000000
vn 0.000000 -1.000000 0.000000
vn 0.000000 -1.000000 0.000000
vn 0.000000 -1.000000 0.000000
vn 0.000000 -1.000000 0.000000
vn 0.000000 -1.000000 0.000000
vn 0.000000 -1.000000 0.000000
vn 0.000000 -1.000000 0.000000
vn 0.000000 -1.000000 0.000000
vn 0.000000 -1.000000 0.000000
vn 0.000000 -1.000000 0.000000
vn 0.000000 -1.000000 0.000000
vn 0.000000 -1.000000 0.000000
vn 0.000000 -1.000000 0.000000
vn 0.000000 -1.000000 0.000000
vn 0.000000 -1.000000 0.000000
vn 0.000000 -1.000000 0.000000
vn 0.000000 -1.000000 0.000000
vn 0.000000 -1.000000 0.000000
vn 0.000000 -1.000000 0.000000
vn 0.000000 -1.000000 0.000000
vn 0.000000 -1.000000 0.000000
vn 0.000000 -1.000000 0.000000
vn 0.000000 -1.000000 0.000000
vn 0.000000 -1.000000 0.000000
vn 0.000000 -1.000000 0.000000
vn 0.000000 -1.000000 0.000000
vn 0.000000 -1.000000 0.000000
vn 0.000000 -1.000000 0.000000
vn 0.000000 1.000000 -0.000000
vn 0.000000 1.000000 -0.000000
vn 0.000000 1.000000 -0.000000
vn 0.000000 1.000000 -0.000000
vn 0.000000 1.000000 0.000000
vn 0.000000 1.000000 0.000000
vn 0.000000 1.000000 0.000000
vn 0.000000 1.000000 0.000000
vn 0.000000 1.000000 0.000000
vn 0.000000 1.000000 0.000000
vn 0.000000 1.000000 0.000000
vn 0.000000 1.000000 0.000000
vn 0.000000 1.000000 -0.000000
vn 0.000000 1.000000 -0.000000
vn 0.000000 1.000000 -0.000000
vn 0.000000 1.000000 -0.000000
vn 0.000000 1.000000 0.000000
vn 0.000000 1.000000 0.000000
vn 0.000000 1.000000 0.000000
vn 0.000000 1.000000 0.000000
vn 0.000000 1.000000 0.000000
vn 0.000000 1.000000 0.000000
vn 0.000000 1.000000 0.000000
vn 0.000000 1.000000 0.000000
vn 0.000000 1.000000 0.000000
vn 0.000000 1.000000 0.000000
vn 0.000000 1.000000 0.000000
vn 0.000000 1.000000 0.000000
vn 0.000000 1.000000 0.000000
vn 0.000000 1.000000 0.000000
vn 0.000000 1.000000 0.000000
vn 0.000000 1.000000 0.000000
vn 0.000000 1.000000 0.000000
vn 0.000000 1.000000 0.000000
vn 0.000000 1.000000 0.000000
vn 0.000000 1.000000 0.000000
vn 0.000000 1.000000 0.000000
vn 0.000000 1.000000 0.000000
vn 0.000000 1.000000 0.000000
vn 0.000000 1.000000 0.000000
vn 0.000000 1.000000 0.000000
vn 0.000000 1.000000 0.000000
vn 0.000000 1.000000 0.000000
vn 0.000000 1.000000 0.000000
vn 0.000000 1.000000 0.000000
vn 0.000000 1.000000 0.000000
vn 0.000000 1.000000 0.000000
vn 0.000000 1.000000 0.000000
vn -0.707102 0.000000 0.707112
vn -0.707102 0.000000 0.707112
vn -0.707102 0.000000 0.707112
vn -0.707102 0.000000 0.707112
vn -0.258819 0.000000 0.965926
vn -0.258819 0.000000 0.965926
vn -0.258819 0.000000 0.965926
vn -0.258819 0.000000 0.965926
vn 0.258819 0.000000 0.965926
vn 0.258819 0.000000 0.965926
vn 0.258819 0.000000 0.965926
vn 0.258819 0.000000 0.965926
vn 0.707102 0.000000 0.707112
vn 0.707102 0.000000 0.707112
vn 0.707102 0.000000 0.707112
vn 0.707102 0.000000 0.707112
vn 0.965926 0.000000 0.258818
vn 0.965926 0.000000 0.258818
vn 0.965926 0.000000 0.258818
vn 0.965926 0.000000 0.258818
vn 0.965927 0.000000 -0.258817
vn 0.965927 0.000000 -0.258817
vn 0.965927 0.000000 -0.258817
vn 0.965927 0.000000 -0.258817
vn 0.707102 0.000000 -0.707112
vn 0.707102 0.000000 -0.707112
vn 0.707102 0.000000 -0.707112
vn 0.707102 0.000000 -0.707112
vn 0.258819 0.000000 -0.965926
vn 0.258819 0.000000 -0.965926
vn 0.258819 0.000000 -0.965926
vn 0.258819 0.000000 -0.965926
vn -0.258819 0.000000 -0.965926
vn -0.258819 0.000000 -0.965926
vn -0.258819 0.000000 -0.965926
vn -0.258819 0.000000 -0.965926
vn -0.707102 0.000000 -0.707112
vn -0.707102 0.000000 -0.707112
vn -0.707102 0.000000 -0.707112
vn -0.707102 0.000000 -0.707112
vn -0.965927 0.000000 -0.258817
vn -0.965927 0.000000 -0.258817
vn -0.965927 0.000000 -0.258817
vn -0.965927 0.000000 -0.258817
vn -0.965926 0.000000 0.258818
vn -0.965926 0.000000 0.258818
vn -0.965926 0.000000 0.258818
vn -0.965926 0.000000 0.258818
s off
f 25/51/1 26/52/2 27/53/3 28/54/4
f 2/14/5 3/15/6 15/28/7 14/27/8
f 29/55/9 30/56/10 31/57/11 32/58/12
f 4/16/13 5/17/14 17/30/15 16/29/16
f 33/59/17 34/60/18 35/61/19 36/62/20
f 6/18/21 7/19/22 19/32/23 18/31/24
f 37/63/25 38/64/26 39/65/27 40/66/28
f 8/20/29 9/21/30 21/34/31 20/33/32
f 41/67/33 42/68/34 43/69/35 44/70/36
f 10/22/37 11/23/38 23/36/39 22/35/40
f 45/71/41 46/72/42 47/73/43 48/74/44
f 12/24/45 1/25/46 13/38/47 24/37/48
f 1/13/49 2/14/50 26/52/51 25/51/52
f 2/14/53 14/27/54 27/53/55 26/52/56
f 14/27/57 13/26/58 28/54/59 27/53/60
f 13/26/61 1/13/62 25/51/63 28/54/64
f 3/15/65 4/16/66 30/56/67 29/55/68
f 4/16/69 16/29/70 31/57/71 30/56/72
f 16/29/73 15/28/74 32/58/75 31/57/76
f 15/28/77 3/15/78 29/55/79 32/58/80
f 5/17/81 6/18/82 34/60/83 33/59/84
f 6/18/85 18/31/86 35/61/87 34/60/88
f 18/31/89 17/30/90 36/62/91 35/61/92
f 17/30/93 5/17/94 33/59/95 36/62/96
f 7/19/97 8/20/98 38/64/99 37/63/100
f 8/20/101 20/33/102 39/65/103 38/64/104
f 20/33/105 19/32/106 40/66/107 39/65/108
f 19/32/109 7/19/110 37/63/111 40/66/112
f 9/21/113 10/22/114 42/68/115 41/67/116
f 10/22/117 22/35/118 43/69/119 42/68/120
f 22/35/121 21/34/122 44/70/123 43/69/124
f 21/34/125 9/21/126 41/67/127 44/70/128
f 11/23/129 12/24/130 46/72/131 45/71/132
f 12/24/133 24/37/134 47/73/135 46/72/136
f 24/37/137 23/36/138 48/74/139 47/73/140
f 23/36/141 11/23/142 45/71/143 48/74/144
f 2/2/145 1/1/146 49/76/147 50/75/148
f 3/3/149 2/2/150 50/75/151 51/77/152
f 4/4/153 3/3/154 51/77/155 52/78/156
f 5/5/157 4/4/158 52/78/159 53/79/160
f 6/6/161 5/5/162 53/79/163 54/80/164
f 7/7/165 6/6/166 54/80/167 55/81/168
f 8/8/169 7/7/170 55/81/171 56/82/172
f 9/9/173 8/8/174 56/82/175 57/83/176
f 10/10/177 9/9/178 57/83/179 58/84/180
f 11/11/181 10/10/182 58/84/183 59/85/184
f 12/12/185 11/11/186 59/85/187 60/86/188
f 1/1/189 12/12/190 60/86/191 49/76/192
f 13/49/193 14/48/194 62/88/195 61/87/196
f 14/48/197 15/47/198 63/89/199 62/88/200
f 15/47/201 16/46/202 64/90/203 63/89/204
f 16/46/205 17/45/206 65/91/207 64/90/208
f 17/45/209 18/44/210 66/92/211 65/91/212
f 18/44/213 19/43/214 67/93/215 66/92/216
f 19/43/217 20/42/218 68/94/219 67/93/220
f 20/42/221 21/41/222 69/95/223 68/94/224
f 21/41/225 22/40/226 70/96/227 69/95/228
f 22/40/229 23/39/230 71/97/231 70/96/232
f 23/39/233 24/50/234 72/98/235 71/97/236
f 24/50/237 13/49/238 61/87/239 72/98/240
f 50/75/241 49/76/242 61/100/243 62/99/244
f 51/77/245 50/75/246 62/99/247 63/101/248
f 52/78/249 51/77/250 63/101/251 64/102/252
f 53/79/253 52/78/254 64/102/255 65/103/256
f 54/80/257 53/79/258 65/103/259 66/104/260
f 55/81/261 54/80/262 66/104/263 67/105/264
f 56/82/265 55/81/266 67/105/267 68/106/268
f 57/83/269 56/82/270 68/106/271 69/107/272
f 58/84/273 57/83/274 69/107/275 70/108/276
f 59/85/277 58/84/278 70/108/279 71/109/280
f 60/86/281 59/85/282 71/109/283 72/110/284
f 49/76/285 60/86/286 72/110/287 61/100/288
