# This file uses meters as units for non-parametric coordinates.

v -11.931550 -0.000000 16.161472
v 11.931550 1.907079 16.161472
v -11.931550 1.694401 -15.633872
v 11.931550 1.694401 -15.633872
v 2.650976 -0.000000 16.161472
v 11.931550 -0.000000 11.101187
v -11.931550 0.000000 -9.186020
v 11.931550 0.000000 -9.066175
vt 0.923892 0.422983
vt 0.994997 0.422983
vt 0.923892 0.523143
vt 0.994997 0.523143
vt 0.967344 0.422983
vt 0.994997 0.438663
vt 0.923892 0.501528
vt 0.994997 0.501157
vn -0.188830 0.918918 -0.346314
vn -0.188830 0.918918 -0.346314
vn -0.188830 0.918918 -0.346314
vn -0.000633 0.967736 0.251965
vn -0.000633 0.967736 0.251965
vn -0.000633 0.967736 0.251965
vn -0.000633 0.967736 0.251965
vn -0.000000 1.000000 0.000000
vn -0.000000 1.000000 0.000000
vn -0.000000 1.000000 0.000000
vn -0.000000 1.000000 0.000000
vn -0.000000 1.000000 0.000000
s off
f 6/6/1 5/5/2 2/2/3
f 7/7/4 8/8/5 4/4/6 3/3/7
f 1/1/8 5/5/9 6/6/10 8/8/11 7/7/12
