# This file uses meters as units for non-parametric coordinates.

v 41.181587 -0.000000 58.170288
v 85.151459 0.000000 -27.159702
v 60.664658 -0.000000 35.661579
v 35.917130 9.950263 37.070679
v 61.872452 0.000000 -47.216606
v 61.490852 7.710515 -24.749226
v -64.974037 10.031293 -18.637444
v -67.755013 0.160799 -47.216606
v 0.443493 0.000000 -61.082947
v -17.469986 10.121099 -31.057896
v 52.469719 -0.000000 53.708397
v 76.505798 0.000000 -40.602150
v 42.056168 10.941607 2.596272
v 64.790970 0.000000 4.494646
v 79.870758 0.000000 -8.784893
v 24.326805 0.000000 -47.216606
v -28.886650 0.000000 -61.221161
v -48.190437 0.000000 -58.941498
v 13.874104 5.565052 29.460022
v 24.117287 -0.000000 51.685093
v 21.868847 6.506866 -17.255684
v 19.176918 7.156261 1.241688
v -8.325994 6.170543 4.678873
v -58.948635 -12.341900 15.361809
v -73.075027 -12.341902 -29.189911
v -99.581741 -12.341902 -22.015594
v -76.895920 10.977962 -14.562424
v -85.536972 10.977962 -12.223251
v -76.895920 10.977962 -0.066574
v -85.536972 10.977962 -2.404984
v -73.075027 -12.341902 15.279297
v -99.581741 -12.341902 8.104973
v -71.950546 10.977962 -6.175430
v -57.905769 -12.341902 -3.461548
v 67.402908 -12.555299 -12.634136
v 45.242813 -12.555299 -6.635460
v 63.996582 6.016935 0.726871
v 57.762909 6.016935 2.413288
v 63.996582 6.016935 11.182941
v 57.762909 6.016935 9.495655
v 67.402908 -12.555299 24.543081
v 45.242813 -12.555299 18.544407
v 67.564484 6.016935 6.776451
v 80.084579 -12.555299 8.874470
v 27.684044 -12.555300 -30.817516
v 40.083984 -12.555300 -49.710022
v 22.578678 5.584692 -43.612999
v 26.100266 5.584692 -48.978310
v 15.682068 5.584692 -51.387215
v 21.428898 5.584692 -54.244560
v 3.398544 -12.555300 -58.193230
v 23.634773 -12.555300 -68.252274
v 15.935886 5.584692 -45.757896
v 4.295036 -12.555300 -38.372444
v -88.173401 -12.341902 -31.478683
v 42.319855 -12.555299 69.693001
v 63.024239 -12.555299 58.866203
v -71.458107 -12.375411 -54.027626
v 72.191025 -12.555299 38.679192
v 76.806671 -12.555299 3.816128
v 73.542053 -12.555299 -54.027626
v 89.910782 -12.555299 -46.628761
v -49.573345 -12.555299 -67.142998
v 4.828148 -12.555299 -69.538399
v 31.543823 -12.555299 -54.027626
v 4.345650 -12.555299 33.614552
v 99.581741 -12.555299 -31.592152
v 93.674805 -12.555299 -11.038250
v -27.980295 -12.555299 -69.693001
v 18.123917 -12.555299 61.023766
v 22.518791 -1.053444 -61.119553
v 9.666653 -1.053444 -54.730492
v 10.235458 -1.053444 -42.141861
v 25.090389 -1.053444 -37.344131
v 32.965775 -1.053444 -49.342911
v 72.628624 0.155219 7.625025
v 65.374352 0.155219 -4.677372
v 52.698769 0.155219 -1.246792
v 52.698769 0.155219 13.155602
v 65.374352 0.155219 16.586750
v -92.419632 0.610358 -17.197899
v -92.419632 0.610358 2.569397
v -75.023506 0.610358 7.277588
v -65.067879 0.610358 -5.021500
v -75.023506 0.610358 -21.906586
v -80.552155 2.219113 -21.556038
v -87.390190 2.218997 -19.705078
v 10.419556 12.850481 16.559235
v -5.749189 -12.341901 21.391825
v -30.385937 9.222108 0.299805
v -45.579666 4.653640 0.104042
v -37.678791 -12.341900 21.871405
v -77.748703 -12.341899 -11.568398
v -5.749189 -12.341900 21.391825
vt 0.907627 0.106337
vt 0.906866 0.084548
vt 0.910655 0.126807
vt 0.889191 0.077444
vt 0.862598 0.130432
vt 0.866415 0.101980
vt 0.872752 0.077601
vt 0.839151 0.130502
vt 0.834897 0.116510
vt 0.848156 0.080605
vt 0.846637 0.151730
vt 0.800849 0.114649
vt 0.820100 0.133810
vt 0.829610 0.093656
vt 0.828958 0.159778
vt 0.841469 0.180037
vt 0.852951 0.174131
vt 0.798111 0.097370
vt 0.787150 0.128777
vt 0.801232 0.137523
vt 0.808052 0.161136
vt 0.786550 0.103916
vt 0.780741 0.115134
vt 0.828450 0.181229
vt 0.816865 0.174236
vt 0.867513 0.125290
vt 0.867513 0.125290
vt 0.867513 0.125290
vt 0.867513 0.125290
vt 0.867513 0.125290
vt 0.867513 0.125290
vt 0.867513 0.125290
vt 0.867513 0.125290
vt 0.867513 0.125290
vt 0.867512 0.125290
vt 0.867512 0.125290
vt 0.867513 0.125290
vt 0.867513 0.125290
vt 0.867513 0.125290
vt 0.867513 0.125290
vt 0.867513 0.125290
vt 0.867513 0.125290
vt 0.867513 0.125290
vt 0.867513 0.125290
vt 0.867513 0.125290
vt 0.867513 0.125290
vt 0.867513 0.125290
vt 0.867513 0.125290
vt 0.867513 0.125290
vt 0.867513 0.125290
vt 0.867512 0.125290
vt 0.867512 0.125290
vt 0.867513 0.125290
vt 0.867513 0.125290
vt 0.867513 0.125290
vt 0.867513 0.125290
vt 0.867513 0.125290
vt 0.867513 0.125290
vt 0.867513 0.125290
vt 0.867513 0.125290
vt 0.867512 0.125290
vt 0.867513 0.125290
vt 0.867513 0.125290
vt 0.867512 0.125290
vt 0.867513 0.125290
vt 0.799997 0.162456
vt 0.793500 0.140967
vt 0.867513 0.125290
vt 0.867513 0.125290
vt 0.867513 0.125290
vt 0.867513 0.125290
vt 0.777420 0.115169
vt 0.853093 0.178889
vt 0.889241 0.076684
vt 0.793301 0.083921
vt 0.828021 0.183153
vt 0.814277 0.177099
vt 0.823850 0.080190
vt 0.842167 0.182497
vt 0.783783 0.131021
vt 0.847030 0.078251
vt 0.906725 0.082506
vt 0.872502 0.076833
vt 0.793301 0.083921
vt 0.780452 0.098780
vt 0.867512 0.125290
vt 0.867513 0.125290
vt 0.867513 0.125290
vt 0.867513 0.125290
vt 0.867513 0.125290
vt 0.867513 0.125290
vt 0.867513 0.125290
vt 0.867513 0.125290
vt 0.867513 0.125290
vt 0.867513 0.125290
vt 0.867512 0.125290
vt 0.867513 0.125290
vt 0.867513 0.125290
vt 0.867513 0.125290
vt 0.867513 0.125290
vt 0.867512 0.125290
vt 0.867513 0.125290
vt 0.867513 0.125290
vt 0.867513 0.125290
vt 0.867513 0.125290
vt 0.867513 0.125290
vt 0.867513 0.125290
vt 0.843078 0.141638
vt 0.868705 0.142102
vt 0.881516 0.129005
vt 0.893093 0.128132
vt 0.886130 0.131565
vt 0.909071 0.116097
vt 0.908377 0.111405
vt 0.907964 0.108614
vt 0.853018 0.176395
vt 0.852983 0.175206
vt 0.889928 0.129692
vn 0.375923 0.910792 0.170704
vn 0.375923 0.910792 0.170704
vn 0.375923 0.910792 0.170704
vn 0.144201 0.936714 -0.319019
vn 0.144201 0.936714 -0.319019
vn 0.144201 0.936714 -0.319019
vn 0.316931 0.944065 0.091082
vn 0.316931 0.944065 0.091082
vn 0.316931 0.944065 0.091082
vn 0.158068 0.967544 -0.197162
vn 0.158068 0.967544 -0.197162
vn 0.158068 0.967544 -0.197162
vn 0.001501 0.947880 -0.318624
vn 0.001501 0.947880 -0.318624
vn 0.001501 0.947880 -0.318624
vn 0.154053 0.907949 0.389739
vn 0.154053 0.907949 0.389738
vn 0.154053 0.907949 0.389738
vn 0.287427 0.939794 -0.184862
vn 0.287427 0.939794 -0.184862
vn 0.287427 0.939794 -0.184862
vn 0.400893 0.912927 0.076481
vn 0.400893 0.912927 0.076481
vn 0.400893 0.912927 0.076481
vn 0.400893 0.912927 0.076481
vn 0.328678 0.921718 0.205932
vn 0.328678 0.921717 0.205932
vn 0.328678 0.921718 0.205932
vn 0.328678 0.921717 0.205932
vn 0.139625 0.960557 -0.240490
vn 0.139625 0.960557 -0.240490
vn 0.139625 0.960557 -0.240490
vn -0.062640 0.958296 -0.278826
vn -0.062640 0.958296 -0.278826
vn -0.062640 0.958296 -0.278826
vn -0.062640 0.958296 -0.278826
vn -0.175724 0.935657 -0.306052
vn -0.175724 0.935656 -0.306052
vn -0.175724 0.935657 -0.306052
vn -0.172950 0.873494 0.455079
vn -0.172950 0.873494 0.455079
vn -0.172950 0.873494 0.455079
vn -0.299908 0.883644 0.359483
vn -0.299908 0.883644 0.359483
vn -0.299908 0.883644 0.359483
vn -0.337691 0.778004 0.529787
vn -0.337691 0.778004 0.529787
vn -0.337691 0.778004 0.529787
vn -0.040626 0.963788 -0.263558
vn -0.040626 0.963788 -0.263558
vn -0.040626 0.963788 -0.263558
vn -0.040626 0.963788 -0.263558
vn -0.091375 0.987595 -0.127701
vn -0.091375 0.987595 -0.127701
vn -0.091375 0.987595 -0.127701
vn -0.091375 0.987595 -0.127701
vn 0.030384 0.997904 0.057126
vn 0.030384 0.997904 0.057126
vn 0.030384 0.997905 0.057126
vn 0.030384 0.997905 0.057126
vn -0.255081 0.826865 0.501226
vn -0.255081 0.826865 0.501226
vn -0.255081 0.826865 0.501226
vn -0.218508 0.548241 -0.807271
vn -0.196180 0.660543 -0.724705
vn -0.196180 0.660543 -0.724705
vn -0.218508 0.548241 -0.807271
vn 0.000000 1.000000 -0.000000
vn 0.000000 1.000000 -0.000000
vn 0.000000 1.000000 -0.000000
vn 0.000000 1.000000 -0.000000
vn -0.218490 0.548220 0.807290
vn -0.218490 0.548220 0.807290
vn -0.220375 0.537006 0.814285
vn -0.220375 0.537006 0.814285
vn -0.833127 0.553082 0.000000
vn -0.833127 0.553082 0.000000
vn -0.825551 0.564327 0.000000
vn -0.825551 0.564327 0.000000
vn 0.765712 0.458093 -0.451482
vn 0.765712 0.458093 -0.451482
vn 0.760915 0.468750 -0.448644
vn 0.760915 0.468750 -0.448644
vn 0.670586 0.505617 0.542831
vn 0.670586 0.505617 0.542831
vn 0.665484 0.516673 0.538683
vn 0.665484 0.516673 0.538683
vn 0.000000 1.000000 0.000000
vn 0.000000 1.000000 0.000000
vn 0.000000 1.000000 0.000000
vn -0.201149 0.637973 -0.743323
vn -0.201149 0.637973 -0.743323
vn -0.205104 0.619365 -0.757839
vn -0.205104 0.619365 -0.757839
vn 0.000000 1.000000 0.000000
vn 0.000000 1.000000 0.000000
vn 0.000000 1.000000 0.000000
vn 0.000000 1.000000 0.000000
vn -0.205144 0.619334 0.757853
vn -0.205144 0.619334 0.757853
vn -0.201206 0.637955 0.743323
vn -0.201206 0.637955 0.743323
vn -0.756711 0.653749 0.000000
vn -0.756711 0.653749 0.000000
vn -0.772294 0.635265 0.000000
vn -0.772294 0.635265 0.000000
vn 0.715375 0.557023 -0.421857
vn 0.715375 0.557023 -0.421857
vn 0.725972 0.538252 -0.428076
vn 0.725972 0.538252 -0.428076
vn 0.618015 0.606421 0.500311
vn 0.618015 0.606421 0.500311
vn 0.628933 0.587585 0.509104
vn 0.628933 0.587585 0.509104
vn 0.000000 1.000000 0.000000
vn 0.000000 1.000000 0.000000
vn 0.000000 1.000000 0.000000
vn 0.641867 0.640718 0.421291
vn 0.641867 0.640718 0.421291
vn 0.623584 0.666056 0.409283
vn 0.623584 0.666056 0.409283
vn 0.000000 1.000000 0.000000
vn 0.000000 1.000000 0.000000
vn 0.000000 1.000000 0.000000
vn 0.000000 1.000000 0.000000
vn -0.332055 0.666025 -0.667944
vn -0.332055 0.666025 -0.667944
vn -0.338463 0.649567 -0.680812
vn -0.338463 0.649567 -0.680812
vn 0.581270 0.629484 -0.515631
vn 0.581270 0.629484 -0.515631
vn 0.547488 0.681452 -0.485674
vn 0.547488 0.681452 -0.485674
vn -0.242047 0.616175 0.749494
vn -0.242047 0.616175 0.749494
vn -0.249070 0.585844 0.771201
vn -0.249070 0.585844 0.771201
vn -0.749022 0.661681 0.033822
vn -0.749022 0.661681 0.033822
vn -0.771703 0.635027 0.034865
vn -0.771703 0.635027 0.034865
vn 0.000000 1.000000 0.000000
vn 0.000000 1.000000 0.000000
vn 0.000000 1.000000 0.000000
vn 0.120461 0.588226 -0.799675
vn 0.120461 0.588226 -0.799675
vn -0.218508 0.548241 -0.807271
vn -0.218508 0.548241 -0.807271
vn -0.499624 0.621311 -0.603613
vn -0.499624 0.621311 -0.603613
vn 0.336671 0.624761 0.704504
vn 0.336671 0.624761 0.704504
vn 0.336671 0.624761 0.704504
vn 0.336671 0.624761 0.704504
vn 0.721730 0.685548 0.095553
vn 0.721730 0.685548 0.095553
vn 0.721730 0.685548 0.095553
vn 0.721730 0.685548 0.095553
vn 0.309646 0.659424 -0.685039
vn 0.309646 0.659424 -0.685039
vn 0.309646 0.659424 -0.685039
vn 0.309646 0.659424 -0.685039
vn -0.434104 0.525698 -0.731571
vn -0.434104 0.525698 -0.731570
vn -0.434104 0.525698 -0.731570
vn -0.434104 0.525698 -0.731570
vn 0.400183 0.603951 -0.689273
vn 0.400183 0.603951 -0.689273
vn 0.400183 0.603951 -0.689273
vn 0.400183 0.603951 -0.689273
vn 0.664997 0.683077 0.301971
vn 0.664997 0.683077 0.301971
vn 0.664996 0.683077 0.301971
vn 0.664997 0.683077 0.301971
vn 0.549806 0.756750 -0.353614
vn 0.549806 0.756750 -0.353614
vn 0.549806 0.756750 -0.353614
vn 0.549806 0.756750 -0.353614
vn 0.568723 0.509379 0.645823
vn 0.568723 0.509379 0.645823
vn 0.568723 0.509379 0.645823
vn 0.568723 0.509379 0.645823
vn 0.677185 0.709609 0.194615
vn 0.677185 0.709609 0.194615
vn 0.677185 0.709609 0.194615
vn 0.677185 0.709609 0.194615
vn 0.000000 0.476837 -0.878992
vn 0.000000 0.476837 -0.878992
vn 0.000000 0.476837 -0.878992
vn 0.000000 0.476837 -0.878992
vn 0.003906 0.559527 -0.828803
vn 0.003906 0.559527 -0.828803
vn 0.003906 0.559527 -0.828803
vn 0.003906 0.559527 -0.828803
vn -0.097808 0.551794 -0.828225
vn -0.097808 0.551794 -0.828225
vn -0.097808 0.551794 -0.828225
vn -0.097808 0.551794 -0.828225
vn -0.682254 0.512888 0.521033
vn -0.682254 0.512888 0.521033
vn -0.682254 0.512888 0.521033
vn -0.682254 0.512888 0.521033
vn -0.263147 0.646098 0.716458
vn -0.263147 0.646098 0.716457
vn -0.263147 0.646098 0.716458
vn -0.263147 0.646098 0.716458
vn -0.396195 0.455841 -0.797019
vn -0.396195 0.455841 -0.797019
vn -0.332055 0.666025 -0.667944
vn -0.332055 0.666025 -0.667944
vn -0.771703 0.635026 0.034865
vn -0.771703 0.635027 0.034865
vn -0.882386 0.468832 0.039895
vn -0.882386 0.468832 0.039895
vn -0.249070 0.585844 0.771201
vn -0.249070 0.585844 0.771201
vn -0.278101 0.425830 0.861004
vn -0.278101 0.425830 0.861004
vn 0.623584 0.666056 0.409283
vn 0.623584 0.666056 0.409283
vn 0.747788 0.447125 0.490807
vn 0.747788 0.447126 0.490807
vn 0.547488 0.681452 -0.485674
vn 0.547488 0.681452 -0.485674
vn 0.673313 0.435750 -0.597303
vn 0.673313 0.435750 -0.597303
vn 0.725972 0.538252 -0.428076
vn 0.725972 0.538252 -0.428076
vn 0.783945 0.414448 -0.462237
vn 0.783945 0.414448 -0.462237
vn -0.205104 0.619365 -0.757839
vn -0.205104 0.619365 -0.757839
vn -0.227719 0.490276 -0.841292
vn -0.227719 0.490276 -0.841292
vn -0.772294 0.635265 0.000000
vn -0.772294 0.635265 0.000000
vn -0.862551 0.505970 0.000000
vn -0.862551 0.505970 0.000000
vn -0.227733 0.490270 0.841293
vn -0.227733 0.490270 0.841293
vn -0.205144 0.619334 0.757853
vn -0.205144 0.619334 0.757853
vn 0.628933 0.587585 0.509104
vn 0.628933 0.587585 0.509104
vn 0.690234 0.459840 0.558680
vn 0.690235 0.459840 0.558680
vn -0.825551 0.564327 0.000000
vn -0.825551 0.564327 0.000000
vn -0.875119 0.483908 0.000000
vn -0.875119 0.483908 0.000000
vn -0.228236 0.486617 0.843275
vn -0.228236 0.486617 0.843275
vn -0.218490 0.548220 0.807290
vn -0.218490 0.548220 0.807290
vn 0.665484 0.516673 0.538683
vn 0.665484 0.516673 0.538683
vn 0.693658 0.451205 0.561473
vn 0.693658 0.451205 0.561473
vn 0.760915 0.468750 -0.448644
vn 0.760915 0.468750 -0.448644
vn 0.795578 0.383441 -0.469073
vn 0.795578 0.383441 -0.469073
vn -0.218508 0.548241 -0.807271
vn 0.119783 0.508536 -0.852669
vn 0.119783 0.508535 -0.852669
vn 0.119783 0.508535 -0.852669
vn -0.204581 0.622086 -0.755748
vn -0.204581 0.622086 -0.755748
vn -0.204581 0.622086 -0.755748
vn -0.527700 0.545193 -0.651381
vn -0.527700 0.545193 -0.651381
vn -0.527700 0.545193 -0.651381
vn -0.218508 0.548241 -0.807271
vn 0.021401 0.995920 -0.087663
vn 0.021401 0.995920 -0.087663
vn 0.021401 0.995920 -0.087663
vn 0.021401 0.995920 -0.087663
vn -0.081376 0.918130 -0.387834
vn -0.081376 0.918130 -0.387834
vn -0.081376 0.918130 -0.387834
vn -0.055923 0.664762 0.744959
vn -0.055923 0.664762 0.744959
vn -0.055923 0.664762 0.744959
vn 0.010645 0.705389 0.708740
vn 0.010645 0.705389 0.708740
vn 0.010645 0.705389 0.708740
vn -0.210856 0.731890 0.647979
vn -0.210856 0.731890 0.647979
vn -0.210856 0.731890 0.647979
vn -0.210856 0.731890 0.647979
vn 0.121329 0.989516 0.078343
vn 0.121329 0.989516 0.078343
vn 0.121329 0.989516 0.078343
vn 0.006279 0.999492 0.031241
vn 0.006279 0.999492 0.031241
vn 0.006279 0.999492 0.031241
vn -0.538528 0.656895 0.527708
vn -0.538528 0.656895 0.527708
vn -0.538528 0.656895 0.527708
vn -0.538528 0.656895 0.527708
vn -0.899754 0.423933 -0.103556
vn -0.899754 0.423933 -0.103556
vn -0.899754 0.423932 -0.103556
vn -0.899754 0.423932 -0.103556
vn -0.726380 0.549269 0.413130
vn -0.726380 0.549269 0.413130
vn -0.726380 0.549269 0.413130
vn -0.726380 0.549269 0.413130
vn -0.583854 0.497756 0.641368
vn -0.583854 0.497756 0.641368
vn -0.583854 0.497756 0.641368
s off
f 3/21/1 4/15/2 11/25/3
f 5/18/4 6/12/5 12/22/6
f 2/23/7 6/12/8 15/19/9
f 16/14/10 10/6/11 21/9/12
f 17/7/13 10/6/14 9/10/15
f 11/25/16 4/15/17 1/24/18
f 12/22/19 6/12/20 2/23/21
f 14/20/22 13/13/23 4/15/24 3/21/25
f 15/19/26 6/12/27 13/13/28 14/20/29
f 9/10/30 10/6/31 16/14/32
f 18/4/33 7/1/34 10/6/35 17/7/36
f 8/2/37 7/1/38 18/4/39
f 1/24/40 4/15/41 20/16/42
f 20/16/43 4/15/44 19/11/45
f 4/15/46 88/108/47 19/11/48
f 16/14/49 21/9/50 6/12/51 5/18/52
f 6/12/53 21/9/54 22/8/55 13/13/56
f 23/5/57 22/8/58 21/9/59 10/6/60
f 7/1/61 91/111/62 90/110/63
f 27/26/64 86/106/65 87/107/66 28/28/67
f 27/26/68 28/28/69 30/29/70 33/30/71
f 29/31/72 30/29/73 82/100/74 83/102/75
f 81/99/76 82/101/77 30/36/78 28/28/79
f 84/104/80 85/105/81 27/26/82 33/39/83
f 83/103/84 84/104/85 33/39/86 29/41/87
f 33/30/88 30/29/89 29/31/90
f 77/93/91 78/94/92 38/44/93 37/45/94
f 37/45/95 38/44/96 40/46/97 43/47/98
f 39/48/99 40/46/100 79/95/101 80/97/102
f 78/94/103 79/96/104 40/52/105 38/44/106
f 76/92/107 77/93/108 37/45/109 43/54/110
f 80/98/111 76/92/112 43/54/113 39/56/114
f 43/47/115 40/46/116 39/48/117
f 74/90/118 75/91/119 48/59/120 47/60/121
f 47/60/122 48/59/123 50/61/124 53/62/125
f 49/63/126 50/61/127 71/86/128 72/87/129
f 75/91/130 71/86/131 50/61/132 48/59/133
f 73/89/134 74/90/135 47/60/136 53/69/137
f 72/88/138 73/89/139 53/69/140 49/71/141
f 53/62/142 50/61/143 49/63/144
f 85/105/145 86/106/146 27/26/147
f 28/28/148 87/107/149 81/99/150
f 11/25/151 1/24/152 56/76/153 57/77/154
f 14/20/155 3/21/156 59/66/157 60/67/158
f 5/18/159 12/22/160 62/85/161 61/84/162
f 8/2/163 18/4/164 63/74/165 58/82/166
f 9/10/167 16/14/168 65/78/169 64/81/170
f 3/21/171 11/25/172 57/77/173 59/66/174
f 12/22/175 2/23/176 67/72/177 62/85/178
f 15/19/179 14/20/180 60/67/181 68/80/182
f 2/23/183 15/19/184 68/80/185 67/72/186
f 16/14/187 5/18/188 61/75/189 65/78/190
f 17/7/191 9/10/192 64/81/193 69/83/194
f 18/4/195 17/7/196 69/83/197 63/74/198
f 66/73/199 19/17/200 88/117/201 94/116/202
f 1/24/203 20/16/204 70/79/205 56/76/206
f 72/87/207 71/86/208 52/64/209 51/65/210
f 51/70/211 54/68/212 73/89/213 72/88/214
f 54/68/215 45/57/216 74/90/217 73/89/218
f 45/57/219 46/58/220 75/91/221 74/90/222
f 46/58/223 52/64/224 71/86/225 75/91/226
f 44/53/227 35/42/228 77/93/229 76/92/230
f 35/42/231 36/43/232 78/94/233 77/93/234
f 36/43/235 42/51/236 79/96/237 78/94/238
f 80/97/239 79/95/240 42/49/241 41/50/242
f 41/55/243 44/53/244 76/92/245 80/98/246
f 26/34/247 32/35/248 82/101/249 81/99/250
f 83/102/251 82/100/252 32/32/253 31/33/254
f 31/40/255 34/37/256 84/104/257 83/103/258
f 34/37/259 25/38/260 85/105/261 84/104/262
f 25/38/263 55/27/264 86/106/265 85/105/266
f 87/107/267 86/106/268 55/27/269
f 81/99/270 87/107/271 55/27/272 26/34/273
f 13/13/274 22/8/275 88/108/276 4/15/277
f 23/5/278 88/108/279 22/8/280
f 90/110/281 89/109/282 23/5/283
f 92/112/284 89/109/285 90/110/286
f 91/111/287 24/118/288 92/112/289 90/110/290
f 10/6/291 90/110/292 23/5/293
f 7/1/294 90/110/295 10/6/296
f 24/3/297 91/111/298 7/1/299 93/113/300
f 93/113/301 7/1/302 8/115/303 58/114/304
f 20/16/305 19/17/306 66/73/307 70/79/308
f 89/109/309 88/108/310 23/5/311
