# This file uses meters as units for non-parametric coordinates.

v 3645.283203 -1085.507202 30.820623
v 3645.283203 -1111.491089 31.717077
v 3645.283203 -1111.491089 3.026739
v 3645.283203 -1085.507202 3.923193
v 7290.566406 0.000000 34.761208
v 7290.566406 0.000000 -0.017389
v 7301.846680 -27.604105 6.040350
v 7301.846680 -27.604105 28.703466
v 5589.692871 -828.445190 30.687109
v 5598.159668 -853.909302 31.827703
v 5598.159668 -853.909302 2.916113
v 5589.692871 -828.445190 4.056707
v 4540.263672 -1031.097412 31.053320
v 4543.683594 -1057.045288 31.495825
v 4543.683594 -1057.045288 3.247992
v 4540.263672 -1031.097412 3.690496
v 6518.617676 -473.874207 30.793921
v 6530.623535 -500.183197 31.747595
v 6530.623535 -500.183197 2.992407
v 6518.618164 -473.873444 3.949896
v 0.000000 0.000000 34.761208
v 0.000000 0.000000 -0.017389
v -11.280060 -27.604105 6.040350
v -11.280060 -27.604105 28.703466
v 1700.874023 -828.445190 30.687109
v 1692.406982 -853.909302 31.827703
v 1692.406982 -853.909302 2.916113
v 1700.874023 -828.445190 4.056707
v 2750.302734 -1031.097412 31.053320
v 2746.882813 -1057.045288 31.495825
v 2746.882813 -1057.045288 3.247992
v 2750.302734 -1031.097412 3.690496
v 771.949707 -473.874207 30.793921
v 759.943420 -500.183197 31.747595
v 759.943420 -500.183197 2.992407
v 771.949036 -473.873444 3.949896
vt 0.236208 0.253579
vt 0.236208 0.253579
vt 0.236208 0.253579
vt 0.236208 0.253579
vt 0.236208 0.253579
vt 0.236208 0.253579
vt 0.236208 0.253579
vt 0.236208 0.253579
vt 0.236208 0.253579
vt 0.236208 0.253579
vt 0.236208 0.253579
vt 0.236208 0.253579
vt 0.236208 0.253579
vt 0.236208 0.253579
vt 0.236208 0.253579
vt 0.236208 0.253579
vt 0.236208 0.253579
vt 0.236208 0.253579
vt 0.236208 0.253579
vt 0.236208 0.253579
vt 0.236208 0.253579
vt 0.236208 0.253579
vt 0.236208 0.253579
vt 0.236208 0.253579
vt 0.236208 0.253579
vt 0.236208 0.253579
vt 0.236208 0.253579
vt 0.236208 0.253579
vt 0.236208 0.253579
vt 0.236208 0.253579
vt 0.236208 0.253579
vt 0.236208 0.253579
vt 0.236208 0.253579
vt 0.236208 0.253579
vt 0.236208 0.253579
vt 0.236208 0.253579
vt 0.236208 0.253579
vt 0.236208 0.253579
vt 0.236208 0.253579
vt 0.236208 0.253579
vn -0.001565 0.025671 0.999669
vn -0.001565 0.025671 0.999669
vn -0.001565 0.025671 0.999669
vn -0.001565 0.025671 0.999669
vn 0.060492 -0.998169 0.000000
vn 0.060492 -0.998169 0.000000
vn 0.060492 -0.998169 0.000000
vn 0.060492 -0.998169 0.000000
vn -0.001565 0.025671 -0.999669
vn -0.001565 0.025671 -0.999669
vn -0.001565 0.025671 -0.999669
vn -0.001565 0.025671 -0.999669
vn -0.060682 0.998157 0.000000
vn -0.060682 0.998157 0.000000
vn -0.060682 0.998157 0.000000
vn -0.060682 0.998157 0.000000
vn -0.013382 0.035131 0.999293
vn -0.013382 0.035131 0.999293
vn -0.013382 0.035131 0.999293
vn -0.013382 0.035131 0.999293
vn 0.354683 -0.934987 0.000000
vn 0.354683 -0.934987 0.000000
vn 0.354683 -0.934987 0.000000
vn 0.354683 -0.934987 0.000000
vn -0.013408 0.035193 -0.999291
vn -0.013408 0.035193 -0.999291
vn -0.013408 0.035193 -0.999291
vn -0.013408 0.035193 -0.999291
vn -0.356606 0.934255 0.000009
vn -0.356606 0.934255 0.000009
vn -0.356606 0.934255 0.000009
vn -0.356606 0.934255 0.000009
vn -0.005667 0.029468 0.999550
vn -0.005667 0.029468 0.999550
vn -0.005667 0.029468 0.999550
vn -0.005667 0.029468 0.999550
vn 0.189164 -0.981946 0.000000
vn 0.189164 -0.981946 0.000000
vn 0.189164 -0.981946 0.000000
vn 0.189164 -0.981946 0.000000
vn -0.005667 0.029468 -0.999550
vn -0.005667 0.029468 -0.999550
vn -0.005667 0.029468 -0.999550
vn -0.005667 0.029468 -0.999550
vn -0.189604 0.981861 0.000000
vn -0.189604 0.981861 0.000000
vn -0.189604 0.981861 0.000000
vn -0.189604 0.981861 0.000000
vn 0.045257 -0.074762 0.996174
vn 0.045257 -0.074762 0.996174
vn 0.045257 -0.074762 0.996174
vn 0.045257 -0.074762 0.996174
vn 0.522477 -0.852654 0.000000
vn 0.522477 -0.852654 0.000000
vn 0.522477 -0.852654 0.000000
vn 0.522477 -0.852654 0.000000
vn 0.045225 -0.074706 -0.996180
vn 0.045225 -0.074706 -0.996180
vn 0.045225 -0.074706 -0.996180
vn 0.045225 -0.074706 -0.996180
vn -0.523160 0.852235 0.000006
vn -0.523160 0.852235 0.000006
vn -0.523160 0.852235 0.000006
vn -0.523160 0.852235 0.000006
vn 0.001565 0.025671 0.999669
vn 0.001565 0.025671 0.999669
vn 0.001565 0.025671 0.999669
vn 0.001565 0.025671 0.999669
vn -0.060492 -0.998169 0.000000
vn -0.060492 -0.998169 0.000000
vn -0.060492 -0.998169 0.000000
vn -0.060492 -0.998169 0.000000
vn 0.001565 0.025671 -0.999669
vn 0.001565 0.025671 -0.999669
vn 0.001565 0.025671 -0.999669
vn 0.001565 0.025671 -0.999669
vn 0.060682 0.998157 0.000000
vn 0.060682 0.998157 0.000000
vn 0.060682 0.998157 0.000000
vn 0.060682 0.998157 0.000000
vn 0.013382 0.035130 0.999293
vn 0.013382 0.035130 0.999293
vn 0.013382 0.035130 0.999293
vn 0.013382 0.035130 0.999293
vn -0.354683 -0.934987 0.000000
vn -0.354683 -0.934987 0.000000
vn -0.354683 -0.934987 0.000000
vn -0.354683 -0.934987 0.000000
vn 0.013408 0.035193 -0.999291
vn 0.013408 0.035193 -0.999291
vn 0.013408 0.035193 -0.999291
vn 0.013408 0.035193 -0.999291
vn 0.356606 0.934255 0.000009
vn 0.356606 0.934255 0.000009
vn 0.356606 0.934255 0.000009
vn 0.356606 0.934255 0.000009
vn 0.005667 0.029468 0.999550
vn 0.005667 0.029468 0.999550
vn 0.005667 0.029468 0.999550
vn 0.005667 0.029468 0.999550
vn -0.189164 -0.981946 0.000000
vn -0.189164 -0.981946 0.000000
vn -0.189164 -0.981946 0.000000
vn -0.189164 -0.981946 0.000000
vn 0.005667 0.029468 -0.999550
vn 0.005667 0.029468 -0.999550
vn 0.005667 0.029468 -0.999550
vn 0.005667 0.029468 -0.999550
vn 0.189604 0.981861 0.000000
vn 0.189604 0.981861 0.000000
vn 0.189604 0.981861 0.000000
vn 0.189604 0.981861 0.000000
vn -0.045257 -0.074762 0.996174
vn -0.045257 -0.074762 0.996174
vn -0.045257 -0.074762 0.996174
vn -0.045257 -0.074762 0.996174
vn -0.522477 -0.852654 0.000000
vn -0.522477 -0.852654 0.000000
vn -0.522477 -0.852654 0.000000
vn -0.522477 -0.852654 0.000000
vn -0.045225 -0.074706 -0.996180
vn -0.045225 -0.074706 -0.996180
vn -0.045225 -0.074706 -0.996180
vn -0.045225 -0.074706 -0.996180
vn 0.523159 0.852235 0.000005
vn 0.523159 0.852235 0.000005
vn 0.523159 0.852235 0.000005
vn 0.523159 0.852235 0.000005
s off
f 2/1/1 14/4/2 13/3/3 1/2/4
f 3/5/5 15/6/6 14/4/7 2/1/8
f 4/7/9 16/8/10 15/6/11 3/5/12
f 16/8/13 4/7/14 1/2/15 13/3/16
f 10/9/17 18/12/18 17/11/19 9/10/20
f 11/13/21 19/14/22 18/12/23 10/9/24
f 12/15/25 20/16/26 19/14/27 11/13/28
f 20/16/29 12/15/30 9/10/31 17/11/32
f 14/4/33 10/9/34 9/10/35 13/3/36
f 15/6/37 11/13/38 10/9/39 14/4/40
f 16/8/41 12/15/42 11/13/43 15/6/44
f 12/15/45 16/8/46 13/3/47 9/10/48
f 18/12/49 8/18/50 5/17/51 17/11/52
f 19/14/53 7/19/54 8/18/55 18/12/56
f 20/16/57 6/20/58 7/19/59 19/14/60
f 5/17/61 6/20/62 20/16/63 17/11/64
f 2/21/65 1/24/66 29/23/67 30/22/68
f 3/25/69 2/21/70 30/22/71 31/26/72
f 4/27/73 3/25/74 31/26/75 32/28/76
f 32/28/77 29/23/78 1/24/79 4/27/80
f 26/29/81 25/32/82 33/31/83 34/30/84
f 27/33/85 26/29/86 34/30/87 35/34/88
f 28/35/89 27/33/90 35/34/91 36/36/92
f 36/36/93 33/31/94 25/32/95 28/35/96
f 30/22/97 29/23/98 25/32/99 26/29/100
f 31/26/101 30/22/102 26/29/103 27/33/104
f 32/28/105 31/26/106 27/33/107 28/35/108
f 28/35/109 25/32/110 29/23/111 32/28/112
f 34/30/113 33/31/114 21/38/115 24/37/116
f 35/34/117 34/30/118 24/37/119 23/39/120
f 36/36/121 35/34/122 23/39/123 22/40/124
f 21/38/125 33/31/126 36/36/127 22/40/128
