# This file uses meters as units for non-parametric coordinates.

v -5.508112 0.449723 -5.001151
v -5.498878 0.005524 5.690605
v -6.462305 12.673132 -5.991821
v -6.467394 12.721108 6.678917
v 6.174294 12.643180 -5.983109
v 6.174568 12.688244 6.677534
v 5.189194 0.449723 -5.001151
v 5.189194 0.000000 5.696586
v -4.893700 13.242575 -4.405280
v -4.925694 13.259157 5.095647
v 4.585009 13.227422 5.090392
v 4.565799 13.212933 -4.393729
v -4.523293 11.261732 -4.026379
v -4.523293 11.261732 4.722591
v 4.225673 11.261732 4.722581
v 4.225673 11.261732 -4.026379
v -7.990500 15.527017 -5.103337
v -8.062750 14.837702 5.741950
v -6.408794 15.571230 4.985868
v -6.395165 16.232790 -4.246997
v 7.663509 16.204216 -5.110307
v 7.719808 15.524166 5.773887
v 6.064645 16.859732 -4.260186
v 6.072527 16.202620 5.003649
v -5.224174 15.538406 8.231261
v 4.942158 15.818335 8.207216
v 4.168095 16.485054 6.574980
v -4.484872 16.216652 6.578493
v -5.206938 16.178936 -8.231261
v 4.980666 16.005585 -7.495753
v -4.476404 16.857473 -6.601486
v 4.188142 16.696558 -5.869362
v -3.716209 12.399994 -3.219304
v -3.716209 12.399994 3.915513
v 3.418613 12.399994 3.915513
v 3.418613 12.399994 -3.219304
v -0.166937 9.586498 -3.382115
v -1.049109 10.640251 -2.526237
v -0.477620 10.657114 -1.011545
v 0.757791 9.613768 -0.931287
v 0.949783 8.952089 -2.396394
v 10.276653 21.651623 -7.293039
v 9.497688 22.582125 -6.537285
v 10.002342 22.597008 -5.199760
v 11.093229 21.675732 -5.128895
v 11.262778 21.091457 -6.422626
v 10.636530 22.161938 -6.198245
v 0.830045 8.309647 1.436767
v -0.486362 9.249578 1.505776
v -0.421622 10.100979 2.881318
v 0.934812 9.687239 3.662418
v 1.708383 8.580147 2.769631
v 8.926297 20.375061 -6.231950
v 7.763830 21.205050 -6.171013
v 7.820993 21.956850 -4.956372
v 9.018757 21.591511 -4.266617
v 9.701842 20.613895 -5.054988
v 8.810207 21.389471 -5.493073
v 4.541313 2.624820 6.206086
v -4.838956 2.624824 6.206086
v 5.368184 10.409325 6.758359
v -5.665751 10.409325 6.758359
vt 0.101999 0.376299
vt 0.101999 0.376299
vt 0.101999 0.376299
vt 0.101999 0.376299
vt 0.101999 0.376299
vt 0.101999 0.376299
vt 0.101999 0.376299
vt 0.101999 0.376299
vt 0.101999 0.376299
vt 0.101999 0.376299
vt 0.101999 0.376299
vt 0.101999 0.376299
vt 0.101999 0.376299
vt 0.101999 0.376299
vt 0.101999 0.376299
vt 0.101999 0.376299
vt 0.101999 0.376299
vt 0.101999 0.376299
vt 0.101999 0.376299
vt 0.101999 0.376299
vt 0.101999 0.376299
vt 0.101999 0.376299
vt 0.101999 0.376299
vt 0.101999 0.376299
vt 0.101999 0.376299
vt 0.101999 0.376299
vt 0.101999 0.376299
vt 0.101999 0.376299
vt 0.101999 0.376299
vt 0.101999 0.376299
vt 0.101999 0.376299
vt 0.101999 0.376299
vt 0.101999 0.376299
vt 0.101999 0.376299
vt 0.101999 0.376299
vt 0.101999 0.376299
vt 0.101999 0.376299
vt 0.101999 0.376299
vt 0.209146 0.331221
vt 0.209146 0.331221
vt 0.209146 0.331221
vt 0.209146 0.331221
vt 0.209146 0.331221
vt 0.209146 0.331221
vt 0.209146 0.331221
vt 0.209146 0.331221
vt 0.006590 0.324275
vt 0.006590 0.324275
vt 0.006590 0.324275
vt 0.006590 0.324275
vt 0.006590 0.324275
vt 0.006590 0.324275
vt 0.006590 0.324275
vt 0.006590 0.324275
vt 0.006590 0.324275
vt 0.006590 0.324275
vt 0.006590 0.324275
vt 0.006590 0.324275
vt 0.006590 0.324275
vt 0.006590 0.324275
vt 0.006590 0.324275
vt 0.006590 0.324275
vt 0.006590 0.324275
vt 0.006590 0.324275
vt 0.006590 0.324275
vt 0.006590 0.324275
vt 0.006590 0.324275
vt 0.006590 0.324275
vt 0.761386 0.520972
vt 0.834099 0.520972
vt 0.828650 0.482141
vt 0.766835 0.482141
vt 0.101999 0.376299
vt 0.101999 0.376299
vt 0.101999 0.376299
vt 0.101999 0.376299
vn -0.997401 -0.072031 -0.001453
vn -0.997401 -0.072031 -0.001453
vn -0.987818 -0.155562 -0.004124
vn -0.987299 -0.158815 -0.004229
vn 0.000000 1.000000 0.000000
vn 0.000000 1.000000 0.000000
vn 0.000000 1.000000 0.000000
vn 0.000000 1.000000 0.000000
vn 0.988765 -0.149474 -0.001246
vn 0.989051 -0.147569 -0.001172
vn 0.997607 -0.069117 0.001897
vn 0.997607 -0.069117 0.001897
vn -0.051744 -0.998629 0.007905
vn -0.051744 -0.998629 0.007905
vn -0.051744 -0.998629 0.007905
vn -0.051744 -0.998629 0.007905
vn 0.000000 -0.070767 0.997493
vn 0.000000 -0.070767 0.997493
vn 0.000000 -0.070767 0.997493
vn 0.000000 -0.070767 0.997493
vn -0.003349 -0.070324 -0.997519
vn -0.003349 -0.070324 -0.997519
vn -0.003349 -0.070324 -0.997519
vn -0.003349 -0.070324 -0.997519
vn -0.369491 0.926949 0.065133
vn -0.369491 0.926949 0.065133
vn -0.369491 0.926949 0.065133
vn -0.369491 0.926949 0.065133
vn -0.028199 0.928552 0.370129
vn -0.028199 0.928552 0.370129
vn -0.028199 0.928552 0.370130
vn -0.028199 0.928552 0.370129
vn 0.369512 0.927003 0.064230
vn 0.369512 0.927003 0.064230
vn 0.369512 0.927003 0.064230
vn 0.369512 0.927003 0.064230
vn 0.044289 0.928010 -0.369914
vn 0.044289 0.928010 -0.369914
vn 0.044289 0.928010 -0.369914
vn 0.044289 0.928010 -0.369914
vn 0.930172 0.366998 0.009601
vn 0.931192 0.364407 0.009450
vn 0.979964 0.199173 0.000000
vn 0.979964 0.199173 0.000000
vn 0.000000 0.199173 -0.979964
vn 0.000000 0.199173 -0.979964
vn 0.000000 0.199173 -0.979964
vn 0.000000 0.199173 -0.979964
vn -0.944878 0.327314 0.008444
vn -0.944442 0.328568 0.008527
vn -0.979961 0.199192 0.000000
vn -0.979961 0.199192 0.000000
vn 0.000000 0.199194 0.979960
vn 0.000000 0.199194 0.979960
vn 0.000000 0.199194 0.979960
vn 0.000000 0.199194 0.979960
vn -0.987299 -0.158815 -0.004229
vn -0.987818 -0.155562 -0.004124
vn -0.815865 -0.577970 -0.017738
vn -0.815865 -0.577970 -0.017738
vn 0.432542 0.581254 0.689240
vn 0.432542 0.581254 0.689240
vn 0.432542 0.581254 0.689239
vn 0.432542 0.581254 0.689239
vn 0.931192 0.364407 0.009450
vn 0.930172 0.366998 0.009601
vn 0.873350 0.486807 0.016689
vn 0.873350 0.486807 0.016689
vn 0.486837 0.481842 -0.728573
vn 0.486837 0.481842 -0.728573
vn 0.486837 0.481842 -0.728573
vn 0.486837 0.481842 -0.728573
vn 0.989051 -0.147569 -0.001172
vn 0.988765 -0.149474 -0.001246
vn 0.876868 -0.480512 -0.014541
vn 0.876868 -0.480512 -0.014541
vn -0.520384 0.408826 -0.749708
vn -0.520384 0.408826 -0.749708
vn -0.520384 0.408826 -0.749708
vn -0.520384 0.408826 -0.749708
vn -0.944442 0.328568 0.008527
vn -0.944878 0.327314 0.008444
vn -0.914104 0.405248 0.013699
vn -0.914104 0.405248 0.013699
vn -0.486834 0.481839 0.728577
vn -0.486834 0.481839 0.728577
vn -0.486834 0.481839 0.728577
vn -0.486834 0.481839 0.728577
vn 0.006468 -0.506196 0.862394
vn 0.006468 -0.506196 0.862394
vn 0.006468 -0.506196 0.862394
vn 0.006468 -0.506196 0.862394
vn 0.728880 0.503229 -0.464214
vn 0.728880 0.503229 -0.464214
vn 0.728880 0.503229 -0.464214
vn 0.728880 0.503229 -0.464214
vn -0.006088 0.426561 -0.904438
vn -0.006088 0.426561 -0.904438
vn -0.006088 0.426561 -0.904438
vn -0.006088 0.426561 -0.904438
vn -0.715744 0.537200 -0.446236
vn -0.715744 0.537200 -0.446236
vn -0.715744 0.537200 -0.446236
vn -0.715744 0.537200 -0.446236
vn 0.024850 -0.525574 -0.850385
vn 0.024850 -0.525574 -0.850385
vn 0.024849 -0.525574 -0.850385
vn 0.024849 -0.525574 -0.850385
vn -0.718044 0.531529 0.449322
vn -0.718044 0.531529 0.449322
vn -0.718044 0.531529 0.449322
vn -0.718043 0.531529 0.449322
vn -0.029713 0.457132 0.888902
vn -0.029713 0.457132 0.888902
vn -0.029713 0.457132 0.888902
vn -0.029713 0.457132 0.888902
vn 0.737905 0.477323 0.477136
vn 0.737905 0.477323 0.477136
vn 0.737905 0.477323 0.477136
vn 0.737905 0.477323 0.477136
vn -0.595051 0.803688 0.000000
vn -0.595051 0.803688 0.000000
vn -0.595051 0.803688 0.000000
vn -0.595051 0.803688 0.000000
vn 0.000000 0.803689 0.595049
vn 0.000000 0.803689 0.595049
vn 0.000000 0.803689 0.595049
vn 0.000000 0.803689 0.595049
vn 0.595051 0.803688 0.000000
vn 0.595051 0.803688 0.000000
vn 0.595051 0.803688 0.000000
vn 0.595051 0.803688 0.000000
vn 0.000000 0.803688 -0.595051
vn 0.000000 0.803688 -0.595051
vn 0.000000 0.803688 -0.595051
vn 0.000000 0.803688 -0.595051
vn -0.548204 0.200529 -0.811948
vn -0.548204 0.200530 -0.811948
vn -0.548204 0.200529 -0.811948
vn -0.548204 0.200529 -0.811948
vn -0.687629 0.680979 0.251861
vn -0.687629 0.680979 0.251861
vn -0.687629 0.680979 0.251861
vn -0.687629 0.680979 0.251861
vn 0.123230 0.220335 0.967609
vn 0.123230 0.220335 0.967609
vn 0.123230 0.220335 0.967609
vn 0.123230 0.220335 0.967609
vn 0.763786 -0.544803 0.346152
vn 0.763786 -0.544803 0.346152
vn 0.763786 -0.544803 0.346152
vn 0.763786 -0.544803 0.346152
vn 0.348816 -0.557043 -0.753678
vn 0.348816 -0.557043 -0.753678
vn 0.348816 -0.557043 -0.753678
vn 0.348816 -0.557043 -0.753678
vn 0.634481 0.732225 -0.247548
vn 0.634477 0.732231 -0.247543
vn 0.634480 0.732228 -0.247544
vn 0.634477 0.732231 -0.247543
vn 0.634476 0.732233 -0.247538
vn 0.634480 0.732228 -0.247544
vn 0.634476 0.732233 -0.247538
vn 0.634481 0.732227 -0.247543
vn 0.634480 0.732228 -0.247544
vn 0.634481 0.732227 -0.247543
vn 0.634484 0.732222 -0.247548
vn 0.634480 0.732228 -0.247544
vn 0.634484 0.732222 -0.247548
vn 0.634481 0.732225 -0.247548
vn 0.634480 0.732228 -0.247544
vn -0.306227 -0.364314 -0.879489
vn -0.306227 -0.364314 -0.879489
vn -0.306227 -0.364314 -0.879489
vn -0.306227 -0.364314 -0.879489
vn -0.867937 0.439564 -0.231233
vn -0.867937 0.439564 -0.231233
vn -0.867937 0.439564 -0.231233
vn -0.867937 0.439564 -0.231233
vn -0.230183 0.635976 0.736580
vn -0.230183 0.635976 0.736580
vn -0.230183 0.635976 0.736580
vn -0.230183 0.635976 0.736580
vn 0.725674 -0.046507 0.686465
vn 0.725674 -0.046507 0.686465
vn 0.725674 -0.046507 0.686465
vn 0.725674 -0.046507 0.686465
vn 0.678678 -0.664720 -0.312320
vn 0.678678 -0.664720 -0.312320
vn 0.678678 -0.664720 -0.312319
vn 0.678678 -0.664720 -0.312319
vn 0.495068 0.728164 -0.474009
vn 0.495064 0.728169 -0.474006
vn 0.495068 0.728170 -0.474000
vn 0.495064 0.728169 -0.474006
vn 0.495065 0.728176 -0.473994
vn 0.495068 0.728170 -0.474000
vn 0.495065 0.728176 -0.473994
vn 0.495071 0.728174 -0.473991
vn 0.495068 0.728170 -0.474000
vn 0.495071 0.728174 -0.473991
vn 0.495072 0.728168 -0.473999
vn 0.495068 0.728170 -0.474000
vn 0.495072 0.728168 -0.473999
vn 0.495068 0.728164 -0.474009
vn 0.495068 0.728170 -0.474000
vn 0.000000 -0.070762 0.997493
vn 0.000000 -0.070762 0.997493
vn 0.000000 -0.070762 0.997493
vn 0.000000 -0.070762 0.997493
vn -0.000001 -0.070766 0.997493
vn -0.000001 -0.070766 0.997493
vn -0.000001 -0.070766 0.997493
vn -0.000001 -0.070766 0.997493
vn 0.000000 -0.070762 0.997493
vn 0.000000 -0.070762 0.997493
vn 0.000000 -0.070762 0.997493
vn 0.000000 -0.070762 0.997493
vn -0.000001 -0.070766 0.997493
vn -0.000001 -0.070766 0.997493
vn -0.000001 -0.070766 0.997493
vn -0.000001 -0.070766 0.997493
s off
f 1/1/1 2/2/2 4/4/3 3/3/4
f 33/39/5 34/40/6 35/41/7 36/42/8
f 5/5/9 6/6/10 8/8/11 7/7/12
f 7/7/13 8/8/14 2/10/15 1/9/16
f 60/72/17 59/71/18 61/70/19 62/69/20
f 7/13/21 1/1/22 3/3/23 5/14/24
f 17/23/25 18/24/26 19/25/27 20/26/28
f 25/31/29 26/32/30 27/33/31 28/34/32
f 22/27/33 21/28/34 23/29/35 24/30/36
f 30/35/37 29/36/38 31/37/39 32/38/40
f 9/15/41 10/16/42 14/20/43 13/19/44
f 10/16/45 11/17/46 15/21/47 14/20/48
f 11/17/49 12/18/50 16/22/51 15/21/52
f 12/18/53 9/15/54 13/19/55 16/22/56
f 3/3/57 4/4/58 18/24/59 17/23/60
f 4/4/61 10/16/62 19/25/63 18/24/64
f 10/16/65 9/15/66 20/26/67 19/25/68
f 9/15/69 3/3/70 17/23/71 20/26/72
f 6/6/73 5/5/74 21/28/75 22/27/76
f 5/5/77 12/18/78 23/29/79 21/28/80
f 12/18/81 11/17/82 24/30/83 23/29/84
f 11/17/85 6/6/86 22/27/87 24/30/88
f 4/4/89 6/6/90 26/32/91 25/31/92
f 6/6/93 11/17/94 27/33/95 26/32/96
f 11/17/97 10/16/98 28/34/99 27/33/100
f 10/16/101 4/4/102 25/31/103 28/34/104
f 5/5/105 3/3/106 29/36/107 30/35/108
f 3/3/109 9/15/110 31/37/111 29/36/112
f 9/15/113 12/18/114 32/38/115 31/37/116
f 12/18/117 5/5/118 30/35/119 32/38/120
f 13/43/121 14/44/122 34/40/123 33/39/124
f 14/44/125 15/45/126 35/41/127 34/40/128
f 15/45/129 16/46/130 36/42/131 35/41/132
f 16/46/133 13/43/134 33/39/135 36/42/136
f 37/47/137 38/48/138 43/49/139 42/50/140
f 38/48/141 39/51/142 44/52/143 43/49/144
f 39/51/145 40/53/146 45/54/147 44/52/148
f 40/53/149 41/55/150 46/56/151 45/54/152
f 41/55/153 37/47/154 42/50/155 46/56/156
f 42/50/157 43/49/158 47/57/159
f 43/49/160 44/52/161 47/57/162
f 44/52/163 45/54/164 47/57/165
f 45/54/166 46/56/167 47/57/168
f 46/56/169 42/50/170 47/57/171
f 48/58/172 49/59/173 54/60/174 53/61/175
f 49/59/176 50/62/177 55/63/178 54/60/179
f 50/62/180 51/64/181 56/65/182 55/63/183
f 51/64/184 52/66/185 57/67/186 56/65/187
f 52/66/188 48/58/189 53/61/190 57/67/191
f 53/61/192 54/60/193 58/68/194
f 54/60/195 55/63/196 58/68/197
f 55/63/198 56/65/199 58/68/200
f 56/65/201 57/67/202 58/68/203
f 57/67/204 53/61/205 58/68/206
f 2/2/207 8/11/208 59/75/209 60/76/210
f 8/11/211 6/12/212 61/74/213 59/75/214
f 6/12/215 4/4/216 62/73/217 61/74/218
f 4/4/219 2/2/220 60/76/221 62/73/222
