# This file uses meters as units for non-parametric coordinates.

v -97.788910 -96.317619 10.519815
v -97.788910 -96.317619 50.053833
v -97.788910 -90.943604 10.519815
v -97.788910 -90.943604 50.053833
v 97.788963 -90.943604 10.519815
v 97.788963 -90.943604 50.053833
v 97.788963 -96.317619 10.519815
v 97.788963 -96.317619 50.053833
v -97.788910 -37.159107 10.519815
v -97.788910 -37.159107 50.053833
v -97.788910 -31.785093 10.519815
v -97.788910 -31.785093 50.053833
v 97.788963 -31.785093 10.519815
v 97.788963 -31.785093 50.053833
v 97.788963 -37.159107 10.519815
v 97.788963 -37.159107 50.053833
v -79.679878 -31.785093 10.519815
v -79.679970 -31.785093 50.053833
v -79.679970 -37.159107 50.053833
v -79.679878 -37.159107 10.519815
v -79.679878 -90.943604 10.519815
v -79.679970 -90.943604 50.053833
v -79.679970 -96.317619 50.053833
v -79.679878 -96.317619 10.519815
v 79.679970 -37.159107 50.053833
v 79.679970 -31.785093 50.053833
v 79.679970 -31.785093 10.519815
v 79.679970 -37.159107 10.519815
v 79.679970 -96.317619 50.053833
v 79.679970 -90.943604 50.053833
v 79.679970 -90.943604 10.519815
v 79.679970 -96.317619 10.519815
v 65.897278 -90.943604 18.323233
v 65.897232 -90.943604 57.265163
v 65.897232 -96.317627 57.265163
v 65.897232 -96.317627 18.323158
v 65.897278 -31.785093 18.323233
v 65.897232 -31.785093 57.265163
v 65.897232 -37.159107 57.265163
v 65.897232 -37.159107 18.323158
v -65.897224 -96.317619 57.265255
v -65.897224 -90.943604 57.265255
v -65.897224 -90.943604 18.323233
v -65.897186 -96.317619 18.323303
v -65.897224 -37.159107 57.265255
v -65.897224 -31.785093 57.265255
v -65.897224 -31.785093 18.323233
v -65.897186 -37.159107 18.323303
v -93.229012 -109.962166 42.505791
v -93.229012 -109.962166 48.669197
v -86.871918 -109.962166 48.669197
v -86.871918 -109.962166 42.505791
v -78.751282 -117.590332 0.000000
v -78.751282 -117.590332 56.789825
v -101.349731 -117.590332 56.789825
v -101.349731 -117.590332 0.000000
v -100.261688 -109.962166 55.701874
v -100.261688 -109.962166 0.000000
v -79.839233 -109.962166 55.701874
v -79.839233 -109.962166 0.000000
v 86.872009 -109.962166 42.505791
v 86.872009 -109.962166 48.669197
v 93.229118 -109.962166 48.669197
v 93.229118 -109.962166 42.505791
v 101.349731 -117.590332 0.000000
v 101.349731 -117.590332 56.789803
v 78.751282 -117.590332 56.789825
v 78.751282 -117.590332 0.000000
v 79.839287 -109.962166 55.701874
v 79.839287 -109.962166 0.000000
v 100.261780 -109.962166 55.701851
v 100.261780 -109.962166 0.000000
v -93.229012 -7.628179 42.505791
v -93.229012 -7.628179 48.669197
v -86.871918 -7.628179 48.669197
v -86.871918 -7.628179 42.505791
v -78.751282 0.000000 0.000000
v -78.751282 0.000000 56.789825
v -101.349731 0.000000 56.789825
v -101.349731 0.000000 0.000000
v -100.261688 -7.628179 55.701874
v -100.261688 -7.628179 0.000000
v -79.839233 -7.628179 55.701874
v -79.839233 -7.628179 0.000000
v 86.872009 -7.628179 42.505791
v 86.872009 -7.628179 48.669197
v 93.229118 -7.628179 48.669197
v 93.229118 -7.628179 42.505791
v 101.349731 0.000000 0.000000
v 101.349731 0.000000 56.789803
v 78.751282 0.000000 56.789825
v 78.751282 0.000000 0.000000
v 79.839287 -7.628179 55.701874
v 79.839287 -7.628179 0.000000
v 100.261780 -7.628179 55.701851
v 100.261780 -7.628179 0.000000
vt 0.273017 0.300674
vt 0.273017 0.300674
vt 0.273017 0.300674
vt 0.273017 0.300674
vt 0.273017 0.300674
vt 0.273017 0.300674
vt 0.273017 0.300674
vt 0.273017 0.300674
vt 0.273017 0.300674
vt 0.273017 0.300674
vt 0.273017 0.300674
vt 0.273017 0.300674
vt 0.273017 0.300674
vt 0.273017 0.300674
vt 0.273017 0.300674
vt 0.273017 0.300674
vt 0.273017 0.300674
vt 0.273017 0.300674
vt 0.273017 0.300674
vt 0.273017 0.300674
vt 0.273017 0.300674
vt 0.273017 0.300674
vt 0.273017 0.300674
vt 0.273017 0.300674
vt 0.273017 0.300674
vt 0.273017 0.300674
vt 0.273017 0.300674
vt 0.273017 0.300674
vt 0.273017 0.300674
vt 0.273017 0.300674
vt 0.273017 0.300674
vt 0.273017 0.300674
vt 0.273017 0.300674
vt 0.273017 0.300674
vt 0.273017 0.300674
vt 0.273017 0.300674
vt 0.273017 0.300674
vt 0.273017 0.300674
vt 0.273017 0.300674
vt 0.273017 0.300674
vt 0.273017 0.300674
vt 0.273017 0.300674
vt 0.273017 0.300674
vt 0.273017 0.300674
vt 0.273017 0.300674
vt 0.273017 0.300674
vt 0.273017 0.300674
vt 0.273017 0.300674
vt 0.245734 0.303402
vt 0.245734 0.303402
vt 0.245734 0.303402
vt 0.245734 0.303402
vt 0.245734 0.303402
vt 0.245734 0.303402
vt 0.245734 0.303402
vt 0.245734 0.303402
vt 0.245734 0.303402
vt 0.245734 0.303402
vt 0.245734 0.303402
vt 0.245734 0.303402
vt 0.245734 0.303402
vt 0.245734 0.303402
vt 0.245734 0.303402
vt 0.245734 0.303402
vt 0.245734 0.303402
vt 0.245734 0.303402
vt 0.245734 0.303402
vt 0.245734 0.303402
vt 0.245734 0.303402
vt 0.245734 0.303402
vt 0.245734 0.303402
vt 0.245734 0.303402
vt 0.245734 0.303402
vt 0.245734 0.303402
vt 0.245734 0.303402
vt 0.245734 0.303402
vt 0.245734 0.303402
vt 0.245734 0.303402
vt 0.245734 0.303402
vt 0.245734 0.303402
vt 0.245734 0.303402
vt 0.245734 0.303402
vt 0.245734 0.303402
vt 0.245734 0.303402
vt 0.245734 0.303402
vt 0.245734 0.303402
vt 0.245734 0.303402
vt 0.245734 0.303402
vt 0.245734 0.303402
vt 0.245734 0.303402
vt 0.245734 0.303402
vt 0.245734 0.303402
vt 0.245734 0.303402
vt 0.245734 0.303402
vt 0.245734 0.303402
vt 0.245734 0.303402
vt 0.245734 0.303402
vt 0.245734 0.303402
vt 0.245734 0.303402
vt 0.245734 0.303402
vt 0.245734 0.303402
vt 0.245734 0.303402
vt 0.245734 0.303402
vt 0.245734 0.303402
vt 0.245734 0.303402
vt 0.245734 0.303402
vt 0.245734 0.303402
vt 0.245734 0.303402
vt 0.245734 0.303402
vt 0.245734 0.303402
vt 0.245734 0.303402
vt 0.245734 0.303402
vt 0.245734 0.303402
vt 0.245734 0.303402
vt 0.245734 0.303402
vt 0.245734 0.303402
vt 0.245734 0.303402
vt 0.245734 0.303402
vt 0.245734 0.303402
vt 0.245734 0.303402
vt 0.245734 0.303402
vt 0.245734 0.303402
vt 0.245734 0.303402
vt 0.245734 0.303402
vt 0.245734 0.303402
vt 0.245734 0.303402
vt 0.245734 0.303402
vt 0.245734 0.303402
vt 0.245734 0.303402
vt 0.245734 0.303402
vt 0.245734 0.303402
vt 0.245734 0.303402
vt 0.245734 0.303402
vt 0.245734 0.303402
vt 0.245734 0.303402
vt 0.245734 0.303402
vt 0.245734 0.303402
vt 0.245734 0.303402
vt 0.245734 0.303402
vt 0.245734 0.303402
vt 0.245734 0.303402
vt 0.245734 0.303402
vt 0.245734 0.303402
vt 0.245734 0.303402
vt 0.245734 0.303402
vt 0.245734 0.303402
vt 0.245734 0.303402
vt 0.245734 0.303402
vt 0.245734 0.303402
vt 0.245734 0.303402
vt 0.245734 0.303402
vt 0.245734 0.303402
vn -1.000000 0.000000 0.000000
vn -1.000000 0.000000 0.000000
vn -1.000000 0.000000 0.000000
vn -1.000000 0.000000 0.000000
vn 0.000000 1.000000 0.000000
vn 0.000000 1.000000 0.000000
vn 0.000000 1.000000 0.000000
vn 0.000000 1.000000 0.000000
vn 1.000000 0.000000 0.000000
vn 1.000000 0.000000 0.000000
vn 1.000000 0.000000 0.000000
vn 1.000000 0.000000 0.000000
vn 0.000001 -1.000000 0.000000
vn 0.000001 -1.000000 0.000000
vn 0.000001 -1.000000 0.000000
vn 0.000001 -1.000000 0.000000
vn 0.463593 0.000000 0.886048
vn 0.463593 0.000000 0.886048
vn 0.463593 0.000000 0.886048
vn 0.463593 0.000000 0.886048
vn -0.492686 0.000008 -0.870207
vn -0.492686 0.000008 -0.870207
vn -0.492686 0.000008 -0.870207
vn -0.492686 0.000008 -0.870207
vn -1.000000 0.000000 0.000000
vn -1.000000 0.000000 0.000000
vn -1.000000 0.000000 0.000000
vn -1.000000 0.000000 0.000000
vn 0.000000 1.000000 0.000000
vn 0.000000 1.000000 0.000000
vn 0.000000 1.000000 0.000000
vn 0.000000 1.000000 0.000000
vn 1.000000 0.000000 0.000000
vn 1.000000 0.000000 0.000000
vn 1.000000 0.000000 0.000000
vn 1.000000 0.000000 0.000000
vn 0.000000 -1.000000 0.000000
vn 0.000000 -1.000000 0.000000
vn 0.000000 -1.000000 0.000000
vn 0.000000 -1.000000 0.000000
vn 0.463593 0.000000 0.886048
vn 0.463593 0.000000 0.886048
vn 0.463593 0.000000 0.886048
vn 0.463593 0.000000 0.886048
vn -0.492686 0.000008 -0.870207
vn -0.492686 0.000008 -0.870207
vn -0.492686 0.000008 -0.870207
vn -0.492686 0.000008 -0.870207
vn 0.000000 1.000000 0.000000
vn 0.000000 1.000000 0.000000
vn 0.000000 1.000000 0.000000
vn 0.000000 1.000000 0.000000
vn -0.463598 0.000000 0.886046
vn -0.463598 0.000000 0.886046
vn -0.463598 0.000000 0.886046
vn -0.463598 0.000000 0.886046
vn 0.000000 -1.000000 0.000000
vn 0.000000 -1.000000 0.000000
vn 0.000000 -1.000000 0.000000
vn 0.000000 -1.000000 0.000000
vn 0.492691 -0.000004 -0.870204
vn 0.492691 -0.000004 -0.870204
vn 0.492691 -0.000004 -0.870204
vn 0.492691 -0.000004 -0.870204
vn 0.000000 1.000000 0.000000
vn 0.000000 1.000000 0.000000
vn 0.000000 1.000000 0.000000
vn 0.000000 1.000000 0.000000
vn -0.463598 0.000000 0.886046
vn -0.463598 0.000000 0.886046
vn -0.463598 0.000000 0.886046
vn -0.463598 0.000000 0.886046
vn 0.000000 -1.000000 0.000000
vn 0.000000 -1.000000 0.000000
vn 0.000000 -1.000000 0.000000
vn 0.000000 -1.000000 0.000000
vn 0.492691 -0.000004 -0.870205
vn 0.492691 -0.000004 -0.870205
vn 0.492691 -0.000004 -0.870205
vn 0.492691 -0.000004 -0.870205
vn 0.000000 1.000000 0.000000
vn 0.000000 1.000000 0.000000
vn 0.000000 1.000000 0.000000
vn 0.000000 1.000000 0.000000
vn 0.000000 0.000000 1.000000
vn 0.000000 0.000000 1.000000
vn 0.000000 0.000000 1.000000
vn 0.000000 0.000000 1.000000
vn 0.000000 -1.000000 0.000000
vn 0.000000 -1.000000 0.000000
vn 0.000000 -1.000000 0.000000
vn 0.000000 -1.000000 0.000000
vn 0.000000 0.000000 -1.000000
vn 0.000000 0.000000 -1.000000
vn 0.000000 0.000000 -1.000000
vn 0.000000 0.000000 -1.000000
vn 0.000000 1.000000 -0.000000
vn 0.000000 1.000000 -0.000000
vn 0.000000 1.000000 -0.000000
vn 0.000000 1.000000 -0.000000
vn 0.000000 0.000000 1.000000
vn 0.000000 0.000000 1.000000
vn 0.000000 0.000000 1.000000
vn 0.000000 0.000000 1.000000
vn 0.000000 -1.000000 0.000000
vn 0.000000 -1.000000 0.000000
vn 0.000000 -1.000000 0.000000
vn 0.000000 -1.000000 0.000000
vn 0.000000 0.000000 -1.000000
vn 0.000000 0.000000 -1.000000
vn 0.000000 0.000000 -1.000000
vn 0.000000 0.000000 -1.000000
vn 0.000000 0.000000 1.000000
vn 0.000000 0.000000 1.000000
vn 0.000000 0.000000 1.000000
vn 0.000000 0.000000 1.000000
vn 0.000000 1.000000 0.000000
vn 0.000000 1.000000 0.000000
vn 0.000000 1.000000 0.000000
vn 0.000000 1.000000 0.000000
vn 0.000000 0.000000 -1.000000
vn 0.000000 0.000000 -1.000000
vn 0.000000 0.000000 -1.000000
vn 0.000000 0.000000 -1.000000
vn 0.000000 -1.000000 0.000000
vn 0.000000 -1.000000 0.000000
vn 0.000000 -1.000000 0.000000
vn 0.000000 -1.000000 0.000000
vn 0.000000 0.000000 1.000000
vn 0.000000 0.000000 1.000000
vn 0.000000 0.000000 1.000000
vn 0.000000 0.000000 1.000000
vn 0.000000 1.000000 0.000000
vn 0.000000 1.000000 0.000000
vn 0.000000 1.000000 0.000000
vn 0.000000 1.000000 0.000000
vn 0.000000 0.000000 -1.000000
vn 0.000000 0.000000 -1.000000
vn 0.000000 0.000000 -1.000000
vn 0.000000 0.000000 -1.000000
vn 0.000000 -1.000000 0.000000
vn 0.000000 -1.000000 0.000000
vn 0.000000 -1.000000 0.000000
vn 0.000000 -1.000000 0.000000
vn 0.000000 1.000000 0.000000
vn 0.000000 1.000000 0.000000
vn 0.000000 1.000000 0.000000
vn 0.000000 1.000000 0.000000
vn 0.000001 0.000000 1.000000
vn 0.000001 0.000000 1.000000
vn 0.000001 0.000000 1.000000
vn 0.000001 0.000000 1.000000
vn -0.000000 -1.000000 -0.000000
vn -0.000000 -1.000000 -0.000000
vn -0.000000 -1.000000 -0.000000
vn -0.000000 -1.000000 -0.000000
vn -0.000001 0.000000 -1.000000
vn -0.000001 0.000000 -1.000000
vn -0.000001 0.000000 -1.000000
vn -0.000001 0.000000 -1.000000
vn 0.000000 1.000000 0.000000
vn 0.000000 1.000000 0.000000
vn 0.000000 1.000000 0.000000
vn 0.000000 1.000000 0.000000
vn 0.000001 0.000000 1.000000
vn 0.000001 0.000000 1.000000
vn 0.000001 0.000000 1.000000
vn 0.000001 0.000000 1.000000
vn 0.000000 -1.000000 -0.000000
vn 0.000000 -1.000000 -0.000000
vn 0.000000 -1.000000 -0.000000
vn 0.000000 -1.000000 -0.000000
vn -0.000001 0.000000 -1.000000
vn -0.000001 0.000000 -1.000000
vn -0.000001 0.000000 -1.000000
vn -0.000001 0.000000 -1.000000
vn 1.000000 0.000000 0.000000
vn 1.000000 0.000000 0.000000
vn 1.000000 0.000000 0.000000
vn 1.000000 0.000000 0.000000
vn 0.000000 -1.000000 0.000000
vn 0.000000 -1.000000 0.000000
vn 0.000000 -1.000000 0.000000
vn 0.000000 -1.000000 0.000000
vn 0.000000 0.000000 -1.000000
vn 0.000000 0.000000 -1.000000
vn 0.000000 0.000000 -1.000000
vn 0.000000 0.000000 -1.000000
vn -0.989980 0.141207 0.000000
vn -0.989980 0.141207 0.000000
vn -0.989980 0.141207 0.000000
vn -0.989980 0.141207 0.000000
vn 0.000000 0.141194 0.989982
vn 0.000000 0.141194 0.989982
vn 0.000000 0.141194 0.989982
vn 0.000000 0.141194 0.989982
vn 0.989982 0.141194 0.000000
vn 0.989982 0.141194 0.000000
vn 0.989982 0.141194 0.000000
vn 0.989982 0.141194 0.000000
vn 0.000000 0.000000 -1.000000
vn 0.000000 0.000000 -1.000000
vn 0.000000 0.000000 -1.000000
vn 0.000000 0.000000 -1.000000
vn 0.000000 1.000000 -0.000000
vn 0.000000 1.000000 0.000000
vn 0.000000 1.000000 0.000000
vn 0.000000 1.000000 -0.000000
vn 0.000000 1.000000 -0.000000
vn 0.000000 1.000000 -0.000000
vn 0.000000 1.000000 -0.000000
vn 0.000000 1.000000 -0.000000
vn 0.000000 1.000000 0.000000
vn 0.000000 1.000000 -0.000000
vn 0.000000 1.000000 -0.000000
vn 0.000000 1.000000 0.000000
vn 0.000000 1.000000 0.000000
vn 0.000000 1.000000 0.000000
vn 0.000000 1.000000 0.000000
vn 0.000000 1.000000 0.000000
vn 1.000000 0.000000 0.000000
vn 1.000000 0.000000 0.000000
vn 1.000000 0.000000 0.000000
vn 1.000000 0.000000 0.000000
vn 0.000000 -1.000000 0.000000
vn 0.000000 -1.000000 0.000000
vn 0.000000 -1.000000 0.000000
vn 0.000000 -1.000000 0.000000
vn 0.000000 0.000000 -1.000000
vn 0.000000 0.000000 -1.000000
vn 0.000000 0.000000 -1.000000
vn 0.000000 0.000000 -1.000000
vn -0.989981 0.141201 0.000000
vn -0.989981 0.141201 0.000000
vn -0.989981 0.141201 0.000000
vn -0.989981 0.141201 0.000000
vn 0.000001 0.141194 0.989982
vn 0.000001 0.141194 0.989982
vn 0.000001 0.141194 0.989982
vn 0.000001 0.141194 0.989982
vn 0.989982 0.141194 0.000000
vn 0.989982 0.141194 0.000000
vn 0.989982 0.141194 0.000000
vn 0.989982 0.141194 0.000000
vn 0.000000 0.000000 -1.000000
vn 0.000000 0.000000 -1.000000
vn 0.000000 0.000000 -1.000000
vn 0.000000 0.000000 -1.000000
vn 0.000000 1.000000 0.000000
vn 0.000000 1.000000 -0.000000
vn 0.000000 1.000000 -0.000000
vn 0.000000 1.000000 0.000000
vn 0.000000 1.000000 0.000000
vn 0.000000 1.000000 0.000000
vn 0.000000 1.000000 0.000000
vn 0.000000 1.000000 0.000000
vn 0.000000 1.000000 -0.000000
vn 0.000000 1.000000 0.000000
vn 0.000000 1.000000 0.000000
vn 0.000000 1.000000 -0.000000
vn 0.000000 1.000000 -0.000000
vn 0.000000 1.000000 -0.000000
vn 0.000000 1.000000 -0.000000
vn 0.000000 1.000000 -0.000000
vn -1.000000 0.000000 0.000000
vn -1.000000 0.000000 0.000000
vn -1.000000 0.000000 0.000000
vn -1.000000 0.000000 0.000000
vn 0.000000 1.000000 0.000000
vn 0.000000 1.000000 0.000000
vn 0.000000 1.000000 0.000000
vn 0.000000 1.000000 0.000000
vn 0.000000 0.000000 1.000000
vn 0.000000 0.000000 1.000000
vn 0.000000 0.000000 1.000000
vn 0.000000 0.000000 1.000000
vn -0.989980 -0.141206 0.000000
vn -0.989980 -0.141206 0.000000
vn -0.989980 -0.141206 0.000000
vn -0.989980 -0.141206 0.000000
vn 0.000000 -0.141194 0.989982
vn 0.000000 -0.141194 0.989982
vn 0.000000 -0.141194 0.989982
vn 0.000000 -0.141194 0.989982
vn 0.989982 -0.141194 0.000000
vn 0.989982 -0.141194 0.000000
vn 0.989982 -0.141194 0.000000
vn 0.989982 -0.141194 0.000000
vn 0.000000 0.000000 -1.000000
vn 0.000000 0.000000 -1.000000
vn 0.000000 0.000000 -1.000000
vn 0.000000 0.000000 -1.000000
vn 0.000000 -1.000000 -0.000000
vn 0.000000 -1.000000 -0.000000
vn 0.000000 -1.000000 0.000000
vn 0.000000 -1.000000 0.000000
vn 0.000000 -1.000000 -0.000000
vn 0.000000 -1.000000 -0.000000
vn 0.000000 -1.000000 -0.000000
vn 0.000000 -1.000000 -0.000000
vn 0.000000 -1.000000 0.000000
vn 0.000000 -1.000000 0.000000
vn 0.000000 -1.000000 -0.000000
vn 0.000000 -1.000000 -0.000000
vn 0.000000 -1.000000 0.000000
vn 0.000000 -1.000000 0.000000
vn 0.000000 -1.000000 0.000000
vn 0.000000 -1.000000 0.000000
vn -1.000000 0.000000 0.000000
vn -1.000000 0.000000 0.000000
vn -1.000000 0.000000 0.000000
vn -1.000000 0.000000 0.000000
vn 0.000000 1.000000 0.000000
vn 0.000000 1.000000 0.000000
vn 0.000000 1.000000 0.000000
vn 0.000000 1.000000 0.000000
vn 0.000000 0.000000 1.000000
vn 0.000000 0.000000 1.000000
vn 0.000000 0.000000 1.000000
vn 0.000000 0.000000 1.000000
vn -0.989981 -0.141201 0.000000
vn -0.989981 -0.141201 0.000000
vn -0.989981 -0.141201 0.000000
vn -0.989981 -0.141201 0.000000
vn 0.000001 -0.141194 0.989982
vn 0.000001 -0.141194 0.989982
vn 0.000001 -0.141194 0.989982
vn 0.000001 -0.141194 0.989982
vn 0.989982 -0.141194 0.000000
vn 0.989982 -0.141194 0.000000
vn 0.989982 -0.141194 0.000000
vn 0.989982 -0.141194 0.000000
vn 0.000000 0.000000 -1.000000
vn 0.000000 0.000000 -1.000000
vn 0.000000 0.000000 -1.000000
vn 0.000000 0.000000 -1.000000
vn 0.000000 -1.000000 -0.000000
vn 0.000000 -1.000000 -0.000000
vn 0.000000 -1.000000 0.000000
vn 0.000000 -1.000000 0.000000
vn 0.000000 -1.000000 -0.000000
vn 0.000000 -1.000000 -0.000000
vn 0.000000 -1.000000 -0.000000
vn 0.000000 -1.000000 -0.000000
vn 0.000000 -1.000000 0.000000
vn 0.000000 -1.000000 0.000000
vn 0.000000 -1.000000 -0.000000
vn 0.000000 -1.000000 -0.000000
vn 0.000000 -1.000000 0.000000
vn 0.000000 -1.000000 0.000000
vn 0.000000 -1.000000 0.000000
vn 0.000000 -1.000000 0.000000
s off
f 1/1/1 2/2/2 4/3/3 3/4/4
f 33/33/5 34/34/6 30/30/7 31/31/8
f 5/6/9 6/5/10 8/7/11 7/8/12
f 32/32/13 29/29/14 35/35/15 36/36/16
f 34/34/17 35/35/18 29/29/19 30/30/20
f 31/31/21 32/32/22 36/36/23 33/33/24
f 9/9/25 10/10/26 12/11/27 11/12/28
f 37/37/29 38/38/30 26/26/31 27/27/32
f 13/14/33 14/13/34 16/15/35 15/16/36
f 28/28/37 25/25/38 39/39/39 40/40/40
f 38/38/41 39/39/42 25/25/43 26/26/44
f 27/27/45 28/28/46 40/40/47 37/37/48
f 17/17/49 18/18/50 46/46/51 47/47/52
f 18/18/53 19/19/54 45/45/55 46/46/56
f 48/48/57 45/45/58 19/19/59 20/20/60
f 47/47/61 48/48/62 20/20/63 17/17/64
f 21/21/65 22/22/66 42/42/67 43/43/68
f 22/22/69 23/23/70 41/41/71 42/42/72
f 44/44/73 41/41/74 23/23/75 24/24/76
f 43/43/77 44/44/78 24/24/79 21/21/80
f 11/12/81 12/11/82 18/18/83 17/17/84
f 10/10/85 19/19/86 18/18/87 12/11/88
f 20/20/89 19/19/90 10/10/91 9/9/92
f 17/17/93 20/20/94 9/9/95 11/12/96
f 3/4/97 4/3/98 22/22/99 21/21/100
f 2/2/101 23/23/102 22/22/103 4/3/104
f 24/24/105 23/23/106 2/2/107 1/1/108
f 21/21/109 24/24/110 1/1/111 3/4/112
f 26/26/113 25/25/114 16/15/115 14/13/116
f 27/27/117 26/26/118 14/13/119 13/14/120
f 15/16/121 28/28/122 27/27/123 13/14/124
f 15/16/125 16/15/126 25/25/127 28/28/128
f 30/30/129 29/29/130 8/7/131 6/5/132
f 31/31/133 30/30/134 6/5/135 5/6/136
f 7/8/137 32/32/138 31/31/139 5/6/140
f 7/8/141 8/7/142 29/29/143 32/32/144
f 34/34/145 33/33/146 43/43/147 42/42/148
f 41/41/149 35/35/150 34/34/151 42/42/152
f 44/44/153 36/36/154 35/35/155 41/41/156
f 33/33/157 36/36/158 44/44/159 43/43/160
f 38/38/161 37/37/162 47/47/163 46/46/164
f 45/45/165 39/39/166 38/38/167 46/46/168
f 48/48/169 40/40/170 39/39/171 45/45/172
f 37/37/173 40/40/174 48/48/175 47/47/176
f 51/49/177 52/50/178 76/51/179 75/52/180
f 53/53/181 54/54/182 55/55/183 56/56/184
f 52/57/185 49/58/186 73/59/187 76/60/188
f 56/61/189 55/62/190 57/63/191 58/64/192
f 55/62/193 54/65/194 59/66/195 57/63/196
f 60/67/197 59/68/198 54/54/199 53/53/200
f 53/69/201 56/61/202 58/64/203 60/70/204
f 50/71/205 49/72/206 58/73/207 57/74/208
f 51/75/209 50/71/210 57/74/211 59/76/212
f 52/77/213 51/78/214 59/79/215 60/80/216
f 49/72/217 52/81/218 60/82/219 58/73/220
f 63/83/221 64/84/222 88/85/223 87/86/224
f 65/87/225 66/88/226 67/89/227 68/90/228
f 64/91/229 61/92/230 85/93/231 88/94/232
f 68/95/233 67/96/234 69/97/235 70/98/236
f 67/96/237 66/99/238 71/100/239 69/97/240
f 72/101/241 71/102/242 66/88/243 65/87/244
f 65/103/245 68/95/246 70/98/247 72/104/248
f 62/105/249 61/92/250 70/98/251 69/97/252
f 63/106/253 62/105/254 69/97/255 71/100/256
f 64/84/257 63/83/258 71/102/259 72/101/260
f 61/92/261 64/91/262 72/104/263 70/98/264
f 50/107/265 74/108/266 73/59/267 49/58/268
f 77/109/269 80/110/270 79/111/271 78/112/272
f 51/113/273 75/114/274 74/108/275 50/107/276
f 80/115/277 82/116/278 81/117/279 79/118/280
f 79/118/281 81/117/282 83/119/283 78/120/284
f 84/121/285 77/109/286 78/112/287 83/122/288
f 77/123/289 84/124/290 82/116/291 80/115/292
f 74/125/293 81/126/294 82/127/295 73/128/296
f 75/129/297 83/130/298 81/126/299 74/125/300
f 76/131/301 84/132/302 83/133/303 75/134/304
f 73/128/305 82/127/306 84/135/307 76/136/308
f 62/105/309 86/137/310 85/93/311 61/92/312
f 89/138/313 92/139/314 91/140/315 90/141/316
f 63/106/317 87/142/318 86/137/319 62/105/320
f 92/143/321 94/144/322 93/145/323 91/146/324
f 91/146/325 93/145/326 95/147/327 90/148/328
f 96/149/329 89/138/330 90/141/331 95/150/332
f 89/151/333 96/152/334 94/144/335 92/143/336
f 86/137/337 93/145/338 94/144/339 85/93/340
f 87/142/341 95/147/342 93/145/343 86/137/344
f 88/85/345 96/149/346 95/150/347 87/86/348
f 85/93/349 94/144/350 96/152/351 88/94/352
