# This file uses meters as units for non-parametric coordinates.

v -110.991760 0.000000 -26.980019
v -110.991760 39.190105 -26.980019
v -124.851944 39.190105 -29.837227
v -124.851944 45.945141 -29.837227
v -100.249199 5.826867 -26.980019
v -100.249199 30.721626 -26.980019
v -100.249199 5.826867 -18.566130
v -100.249199 30.721626 -18.566130
v -108.468536 45.866039 -25.306322
v -100.249199 0.000000 -26.980019
v -99.740410 5.550930 -18.566130
v -99.740410 5.550930 -25.968361
v -99.740509 0.000000 -25.968361
v -110.991760 30.721626 -18.566130
v -110.991760 0.000000 -18.566130
v -100.177483 -0.000001 -18.566130
v -110.991760 5.826867 -18.566130
v -100.431870 5.308670 -18.204496
v -110.991760 5.308670 -18.204496
v -110.991760 0.000000 26.979828
v -110.991760 39.190105 26.979828
v -124.851944 39.190105 29.837036
v -124.851944 45.945141 29.837036
v -100.249199 5.826867 26.979828
v -100.249199 30.721626 26.979828
v -100.249199 5.826867 18.565941
v -100.249199 30.721626 18.565941
v -108.468536 45.866039 25.306129
v -100.249199 0.000000 26.979828
v -99.740410 5.550930 18.565941
v -99.740410 5.550930 25.968170
v -99.740509 0.000000 25.968170
v -110.991760 30.721626 18.565941
v -110.991760 0.000000 18.565941
v -100.177483 -0.000001 18.565941
v -110.991760 5.826867 18.565941
v -100.431870 5.308670 18.204308
v -110.991760 5.308670 18.204308
v 110.991669 0.000000 -26.980019
v 110.991669 39.190105 -26.980019
v 124.851898 39.190105 -29.837227
v 124.851898 45.945141 -29.837227
v 100.249100 5.826867 -26.980019
v 100.249100 30.721626 -26.980019
v 100.249100 5.826867 -18.566130
v 100.249100 30.721626 -18.566130
v 108.468437 45.866039 -25.306322
v 100.249100 0.000000 -26.980019
v 99.740311 5.550930 -18.566130
v 99.740311 5.550930 -25.968361
v 99.740410 0.000000 -25.968361
v 110.991669 30.721626 -18.566130
v 110.991669 0.000000 -18.566130
v 100.177383 -0.000001 -18.566130
v 110.991669 5.826867 -18.566130
v 100.431732 5.308670 -18.204496
v 110.991669 5.308670 -18.204496
v 110.991669 0.000000 26.979828
v 110.991669 39.190105 26.979828
v 124.851898 39.190105 29.837036
v 124.851898 45.945141 29.837036
v 100.249100 5.826867 26.979828
v 100.249100 30.721626 26.979828
v 100.249100 5.826867 18.565941
v 100.249100 30.721626 18.565941
v 108.468437 45.866039 25.306129
v 100.249100 0.000000 26.979828
v 99.740311 5.550930 18.565941
v 99.740311 5.550930 25.968170
v 99.740410 0.000000 25.968170
v 110.991669 30.721626 18.565941
v 110.991669 0.000000 18.565941
v 100.177383 -0.000001 18.565941
v 110.991669 5.826867 18.565941
v 100.431732 5.308670 18.204308
v 110.991669 5.308670 18.204308
v 5.371237 0.000000 25.368690
v 5.371237 34.955868 25.368690
v -5.371332 0.000000 25.368690
v -5.371332 34.955868 25.368690
v -5.371332 0.000000 18.811989
v -5.371332 34.955868 18.811989
v 5.371237 34.955868 18.811989
v 5.371237 0.000000 18.811989
v 5.371237 0.000000 -18.949888
v 5.371237 34.955868 -18.949888
v -5.371332 0.000000 -18.949888
v -5.371332 34.955868 -18.949888
v -5.371332 0.000000 -25.506783
v -5.371332 34.955868 -25.506783
v 5.371237 34.955868 -25.506783
v 5.371237 0.000000 -25.506783
v -0.000048 45.866039 25.306129
v -0.000048 45.866039 -25.306322
v 0.000000 45.945141 -29.837227
v 0.000000 39.190105 -29.837227
v -0.000048 39.190105 -26.980019
v -0.000048 30.721626 -26.980019
v -0.000048 30.721626 -18.566130
v -0.000048 30.721626 18.565941
v -0.000048 30.721626 26.979828
v -0.000048 39.190105 26.979828
v 0.000000 39.190105 29.837036
v 0.000000 45.945141 29.837036
vt 0.219026 0.302691
vt 0.219026 0.300144
vt 0.219459 0.300481
vt 0.219459 0.302498
vt 0.219292 0.300673
vt 0.219292 0.302690
vt 0.219094 0.303004
vt 0.218979 0.302846
vt 0.218979 0.302596
vt 0.219313 0.300669
vt 0.219460 0.300500
vt 0.219460 0.300294
vt 0.218859 0.302570
vt 0.219459 0.300265
vt 0.218859 0.300337
vt 0.219292 0.300458
vt 0.221250 0.303377
vt 0.221250 0.303377
vt 0.221250 0.301678
vt 0.221250 0.303377
vt 0.219551 0.303377
vt 0.220400 0.301678
vt 0.218859 0.301453
vt 0.219292 0.300673
vt 0.218859 0.301453
vt 0.219026 0.302691
vt 0.219026 0.300144
vt 0.219459 0.300481
vt 0.219459 0.302498
vt 0.219292 0.300673
vt 0.219292 0.302690
vt 0.218859 0.302570
vt 0.218979 0.302596
vt 0.218979 0.302846
vt 0.219094 0.303004
vt 0.219459 0.300265
vt 0.219460 0.300500
vt 0.219313 0.300669
vt 0.219460 0.300294
vt 0.218859 0.301453
vt 0.218859 0.300337
vt 0.221250 0.303377
vt 0.221250 0.301678
vt 0.221250 0.303377
vt 0.221250 0.303377
vt 0.219551 0.303377
vt 0.220400 0.301678
vt 0.218859 0.301453
vt 0.219292 0.300673
vt 0.219292 0.300458
vt 0.219026 0.302691
vt 0.219459 0.302498
vt 0.219459 0.300481
vt 0.219026 0.300144
vt 0.219292 0.302690
vt 0.219292 0.300673
vt 0.218859 0.302570
vt 0.218859 0.302570
vt 0.219026 0.302691
vt 0.218979 0.302596
vt 0.218979 0.302596
vt 0.218979 0.302846
vt 0.218979 0.302846
vt 0.219094 0.303004
vt 0.219094 0.303004
vt 0.219459 0.300265
vt 0.219460 0.300500
vt 0.219313 0.300669
vt 0.219460 0.300294
vt 0.218859 0.300337
vt 0.218859 0.301453
vt 0.221250 0.303377
vt 0.221250 0.301678
vt 0.221250 0.303377
vt 0.220400 0.301678
vt 0.219551 0.303377
vt 0.218859 0.301453
vt 0.219292 0.300673
vt 0.219292 0.300458
vt 0.219292 0.300673
vt 0.219292 0.300458
vt 0.219026 0.300144
vt 0.219459 0.300481
vt 0.219459 0.302498
vt 0.219292 0.300673
vt 0.219292 0.302690
vt 0.219459 0.300265
vt 0.219460 0.300500
vt 0.219313 0.300669
vt 0.219460 0.300294
vt 0.218859 0.301453
vt 0.218859 0.300337
vt 0.221250 0.301678
vt 0.221250 0.303377
vt 0.221250 0.303377
vt 0.219551 0.303377
vt 0.220400 0.301678
vt 0.218859 0.301453
vt 0.221250 0.303377
vt 0.221250 0.303377
vt 0.219026 0.302691
vt 0.219459 0.302498
vt 0.219459 0.300481
vt 0.219026 0.300144
vt 0.219292 0.302690
vt 0.219292 0.300673
vt 0.218859 0.300895
vt 0.218859 0.302570
vt 0.219026 0.302691
vt 0.219459 0.302498
vt 0.219459 0.300481
vt 0.219026 0.300144
vt 0.219292 0.302690
vt 0.219292 0.300673
vt 0.218859 0.300895
vt 0.218859 0.302570
vt 0.219094 0.303004
vt 0.219094 0.303004
vt 0.218979 0.302846
vt 0.218979 0.302596
vt 0.219026 0.302691
vt 0.219459 0.302498
vt 0.221250 0.303377
vt 0.219292 0.302690
vt 0.219292 0.302690
vt 0.221250 0.303377
vt 0.219459 0.302498
vt 0.219026 0.302691
vt 0.218979 0.302596
vt 0.218979 0.302846
vn 0.000000 0.000000 -1.000000
vn 0.000000 0.000000 -1.000000
vn 0.000000 0.000000 -1.000000
vn 0.000000 0.000000 -1.000000
vn 1.000000 0.000000 0.000000
vn 1.000000 0.000000 0.000000
vn 1.000000 0.000000 0.000000
vn 1.000000 0.000000 0.000000
vn -1.000000 0.000001 0.000000
vn -1.000000 0.000001 0.000000
vn -1.000000 0.000001 0.000000
vn -1.000000 0.000001 0.000000
vn 0.000000 -1.000000 0.000000
vn 0.000000 -1.000000 0.000000
vn 0.000000 -1.000000 0.000000
vn 0.000000 -1.000000 0.000000
vn -1.000000 0.000000 0.000000
vn -1.000000 0.000000 0.000000
vn -1.000000 0.000000 0.000000
vn -1.000000 0.000000 0.000000
vn 0.004828 0.999988 0.000000
vn 0.004828 0.999988 0.000000
vn 0.004828 0.999988 0.000000
vn 0.004828 0.999988 0.000000
vn 0.000000 0.000000 -1.000000
vn 0.000000 0.000000 -1.000000
vn 0.000000 0.000000 -1.000000
vn 0.476745 0.879042 0.000000
vn 0.476745 0.879042 0.000000
vn 0.476745 0.879042 0.000000
vn 0.476745 0.879042 0.000000
vn 0.893396 -0.000008 -0.449270
vn 0.893396 -0.000008 -0.449270
vn 0.893396 -0.000008 -0.449270
vn 0.893396 -0.000008 -0.449270
vn -1.000000 0.000000 0.000000
vn -1.000000 0.000000 0.000000
vn -1.000000 0.000000 0.000000
vn -1.000000 0.000000 0.000000
vn -1.000000 0.000000 0.000000
vn 0.000000 0.000000 1.000000
vn 0.000000 0.000000 1.000000
vn 0.000000 0.000000 1.000000
vn 0.000000 0.000000 1.000000
vn 0.000000 0.000000 1.000000
vn 0.000000 0.000000 1.000000
vn 0.000000 0.000000 1.000000
vn 0.000000 0.000000 1.000000
vn -0.000001 0.000000 1.000000
vn -0.000001 0.000000 1.000000
vn -0.000001 0.000000 1.000000
vn -1.000000 0.000000 0.000000
vn -1.000000 0.000000 0.000000
vn -1.000000 0.000000 0.000000
vn 0.000000 0.572289 0.820052
vn 0.000000 0.572289 0.820052
vn 0.000000 0.572289 0.820052
vn 0.000000 0.572289 0.820052
vn 0.886160 0.010906 0.463251
vn 0.886160 0.010906 0.463251
vn 0.886160 0.010906 0.463251
vn 0.998854 0.047863 0.000000
vn 0.998854 0.047863 0.000000
vn 0.998854 0.047863 0.000000
vn 0.998854 0.047863 0.000000
vn 0.000000 1.000000 0.000000
vn 0.000000 1.000000 0.000000
vn 0.000000 1.000000 0.000000
vn 0.000000 1.000000 0.000000
vn 0.000000 0.000000 -1.000000
vn 0.000000 0.000000 -1.000000
vn 0.000000 0.000000 -1.000000
vn 0.000000 0.000000 -1.000000
vn -0.000000 0.000000 1.000000
vn -0.000000 0.000000 1.000000
vn -0.000000 0.000000 1.000000
vn -0.000000 0.000000 1.000000
vn 1.000000 0.000000 0.000000
vn 1.000000 0.000000 0.000000
vn 1.000000 0.000000 0.000000
vn 1.000000 0.000000 0.000000
vn 0.000000 0.000000 1.000000
vn 0.000000 0.000000 1.000000
vn 0.000000 0.000000 1.000000
vn 0.476744 0.879042 0.000000
vn 0.476744 0.879042 0.000000
vn 0.476744 0.879042 0.000000
vn 0.476744 0.879042 0.000000
vn 0.893396 -0.000008 0.449269
vn 0.893396 -0.000008 0.449269
vn 0.893396 -0.000008 0.449269
vn 0.893396 -0.000008 0.449269
vn -1.000000 0.000000 0.000000
vn -1.000000 0.000000 0.000000
vn -1.000000 0.000000 0.000000
vn -1.000000 0.000000 0.000000
vn -1.000000 0.000000 0.000000
vn 0.000000 -1.000000 0.000000
vn 0.000000 -1.000000 0.000000
vn 0.000000 -1.000000 0.000000
vn 0.000000 -1.000000 0.000000
vn 0.000000 0.000000 -1.000000
vn 0.000000 0.000000 -1.000000
vn 0.000000 0.000000 -1.000000
vn 0.000000 0.000000 -1.000000
vn 0.000000 0.000000 -1.000000
vn 0.000000 0.000000 -1.000000
vn 0.000000 0.000000 -1.000000
vn 0.000000 0.000000 -1.000000
vn 0.000000 0.000000 -1.000000
vn 0.000000 0.000000 -1.000000
vn 0.000000 0.000000 -1.000000
vn -1.000000 0.000000 0.000000
vn -1.000000 0.000000 0.000000
vn -1.000000 0.000000 0.000000
vn 0.000000 0.572289 -0.820052
vn 0.000000 0.572289 -0.820052
vn 0.000000 0.572289 -0.820052
vn 0.000000 0.572289 -0.820052
vn 0.886160 0.010906 -0.463251
vn 0.886160 0.010906 -0.463251
vn 0.886160 0.010906 -0.463251
vn -0.000000 -1.000000 0.000000
vn -0.000000 -1.000000 0.000000
vn -0.000000 -1.000000 0.000000
vn -0.000000 -1.000000 0.000000
vn 0.000000 1.000000 0.000000
vn 0.000000 1.000000 0.000000
vn 0.000000 1.000000 0.000000
vn 0.000000 1.000000 0.000000
vn -1.000000 -0.000001 0.000000
vn -1.000000 -0.000001 0.000000
vn -1.000000 -0.000001 0.000000
vn -1.000000 -0.000001 0.000000
vn 0.000000 1.000000 0.000000
vn 0.000000 1.000000 0.000000
vn 0.000000 1.000000 0.000000
vn 0.000000 1.000000 0.000000
vn 0.000000 0.000000 1.000000
vn 0.000000 0.000000 1.000000
vn 0.000000 0.000000 1.000000
vn 0.000000 0.000000 1.000000
vn 0.000000 0.000000 -1.000000
vn 0.000000 0.000000 -1.000000
vn 0.000000 0.000000 -1.000000
vn 0.000000 0.000000 -1.000000
vn -1.000000 0.000000 0.000000
vn -1.000000 0.000000 0.000000
vn -1.000000 0.000000 0.000000
vn -1.000000 0.000000 0.000000
vn 1.000000 0.000001 0.000000
vn 1.000000 0.000001 0.000000
vn 1.000000 0.000001 0.000000
vn 1.000000 0.000001 0.000000
vn 0.000000 -1.000000 0.000000
vn 0.000000 -1.000000 0.000000
vn 0.000000 -1.000000 0.000000
vn 0.000000 -1.000000 0.000000
vn 1.000000 0.000000 0.000000
vn 1.000000 0.000000 0.000000
vn 1.000000 0.000000 0.000000
vn 1.000000 0.000000 0.000000
vn -0.004828 0.999988 0.000000
vn -0.004828 0.999988 0.000000
vn -0.004828 0.999988 0.000000
vn -0.004828 0.999988 0.000000
vn 0.000000 0.000000 -1.000000
vn 0.000000 0.000000 -1.000000
vn 0.000000 0.000000 -1.000000
vn -0.476740 0.879044 0.000000
vn -0.476740 0.879044 0.000000
vn -0.476740 0.879044 0.000000
vn -0.476740 0.879044 0.000000
vn -0.893396 -0.000007 -0.449270
vn -0.893396 -0.000007 -0.449270
vn -0.893396 -0.000007 -0.449270
vn -0.893396 -0.000007 -0.449270
vn 1.000000 0.000000 0.000000
vn 1.000000 0.000000 0.000000
vn 1.000000 0.000000 0.000000
vn 1.000000 0.000000 0.000000
vn 1.000000 0.000000 0.000000
vn 0.000000 0.000000 1.000000
vn 0.000000 0.000000 1.000000
vn 0.000000 0.000000 1.000000
vn 0.000000 0.000000 1.000000
vn 0.000000 0.000000 1.000000
vn 0.000000 0.000000 1.000000
vn 0.000000 0.000000 1.000000
vn 1.000000 0.000000 0.000000
vn 1.000000 0.000000 0.000000
vn 1.000000 0.000000 0.000000
vn 0.000000 0.572289 0.820052
vn 0.000000 0.572289 0.820052
vn 0.000000 0.572289 0.820052
vn 0.000000 0.572289 0.820052
vn -0.886198 0.010906 0.463177
vn -0.886199 0.010906 0.463177
vn -0.886198 0.010906 0.463177
vn -0.998854 0.047856 0.000000
vn -0.998854 0.047856 0.000000
vn -0.998854 0.047856 0.000000
vn -0.998854 0.047856 0.000000
vn 0.000000 0.000000 1.000000
vn 0.000000 0.000000 1.000000
vn 0.000000 0.000000 1.000000
vn 0.000000 0.000000 1.000000
vn -1.000000 0.000000 0.000000
vn -1.000000 0.000000 0.000000
vn -1.000000 0.000000 0.000000
vn -1.000000 0.000000 0.000000
vn 0.000000 0.000000 1.000000
vn 0.000000 0.000000 1.000000
vn 0.000000 0.000000 1.000000
vn -0.476739 0.879045 0.000000
vn -0.476739 0.879045 0.000000
vn -0.476739 0.879045 0.000000
vn -0.476739 0.879045 0.000000
vn -0.893396 -0.000007 0.449270
vn -0.893396 -0.000007 0.449270
vn -0.893396 -0.000007 0.449270
vn -0.893396 -0.000007 0.449270
vn 1.000000 0.000000 0.000000
vn 1.000000 0.000000 0.000000
vn 1.000000 0.000000 0.000000
vn 1.000000 0.000000 0.000000
vn 1.000000 0.000000 0.000000
vn 0.000000 -1.000000 0.000000
vn 0.000000 -1.000000 0.000000
vn 0.000000 -1.000000 0.000000
vn 0.000000 -1.000000 0.000000
vn 0.000000 0.000000 -1.000000
vn 0.000000 0.000000 -1.000000
vn 0.000000 0.000000 -1.000000
vn 0.000000 0.000000 -1.000000
vn 0.000000 0.000000 -1.000000
vn 0.000000 0.000000 -1.000000
vn 0.000000 0.000000 -1.000000
vn 1.000000 0.000000 0.000000
vn 1.000000 0.000000 0.000000
vn 1.000000 0.000000 0.000000
vn 0.000000 0.572289 -0.820052
vn 0.000000 0.572289 -0.820052
vn 0.000000 0.572289 -0.820052
vn 0.000000 0.572289 -0.820052
vn -0.886198 0.010906 -0.463177
vn -0.886198 0.010906 -0.463177
vn -0.886199 0.010906 -0.463177
vn 0.000000 -1.000000 0.000000
vn 0.000000 -1.000000 0.000000
vn 0.000000 -1.000000 0.000000
vn 0.000000 -1.000000 0.000000
vn 0.000000 1.000000 0.000000
vn 0.000000 1.000000 0.000000
vn 0.000000 1.000000 0.000000
vn 0.000000 1.000000 0.000000
vn 1.000000 0.000000 0.000000
vn 1.000000 0.000000 0.000000
vn 1.000000 0.000000 0.000000
vn 1.000000 0.000000 0.000000
vn 0.000000 0.000000 1.000000
vn 0.000000 0.000000 1.000000
vn 0.000000 0.000000 1.000000
vn 0.000000 0.000000 1.000000
vn 0.000000 -1.000000 0.000000
vn 0.000000 -1.000000 0.000000
vn 0.000000 -1.000000 0.000000
vn 0.000000 -1.000000 0.000000
vn 0.000000 0.000000 1.000000
vn 0.000000 0.000000 1.000000
vn 0.000000 0.000000 1.000000
vn 0.000000 0.000000 1.000000
vn 0.000000 -1.000000 0.000000
vn 0.000000 -1.000000 0.000000
vn 0.000000 -1.000000 0.000000
vn 0.000000 -1.000000 0.000000
vn 0.000000 -1.000000 0.000000
vn 0.000000 -1.000000 0.000000
vn 0.000000 -1.000000 0.000000
vn 0.000000 -1.000000 0.000000
vn 0.000000 -1.000000 0.000000
vn 0.000000 -1.000000 0.000000
vn 0.000000 -1.000000 0.000000
vn 0.000000 -1.000000 0.000000
vn 0.000000 0.000000 -1.000000
vn 0.000000 0.000000 -1.000000
vn 0.000000 0.000000 -1.000000
vn 0.000000 0.000000 -1.000000
vn 0.000000 -1.000000 0.000000
vn 0.000000 -1.000000 0.000000
vn 0.000000 -1.000000 0.000000
vn 0.000000 -1.000000 0.000000
vn 0.000000 0.000000 -1.000000
vn 0.000000 0.000000 -1.000000
vn 0.000000 0.000000 -1.000000
vn 0.000000 0.000000 -1.000000
vn 0.000000 0.999848 0.017457
vn 0.000000 0.999848 0.017457
vn 0.000000 0.999848 0.017457
vn 0.000000 0.999848 0.017457
vn 0.000000 1.000000 0.000000
vn 0.000000 1.000000 0.000000
vn 0.000000 1.000000 0.000000
vn 0.000000 1.000000 0.000000
vn 0.000000 0.999848 -0.017457
vn 0.000000 0.999848 -0.017457
vn 0.000000 0.999848 -0.017457
vn 0.000000 0.999848 -0.017457
vn 0.000000 0.000000 1.000000
vn 0.000000 0.000000 1.000000
vn 0.000000 0.000000 1.000000
vn 0.000000 0.000000 1.000000
vn -1.000000 0.000000 0.000000
vn -1.000000 0.000000 0.000000
vn -1.000000 0.000000 0.000000
vn -1.000000 0.000000 0.000000
vn 1.000000 0.000000 0.000000
vn 1.000000 0.000000 0.000000
vn 1.000000 0.000000 0.000000
vn 1.000000 0.000000 0.000000
vn 0.000000 0.000000 -1.000000
vn 0.000000 0.000000 -1.000000
vn 0.000000 0.000000 -1.000000
vn 0.000000 0.000000 -1.000000
vn 0.000000 0.000000 1.000000
vn 0.000000 0.000000 1.000000
vn 0.000000 0.000000 1.000000
vn 0.000000 0.000000 1.000000
vn -1.000000 0.000000 0.000000
vn -1.000000 0.000000 0.000000
vn -1.000000 0.000000 0.000000
vn -1.000000 0.000000 0.000000
vn 1.000000 0.000000 0.000000
vn 1.000000 0.000000 0.000000
vn 1.000000 0.000000 0.000000
vn 1.000000 0.000000 0.000000
vn 0.000000 0.000000 -1.000000
vn 0.000000 0.000000 -1.000000
vn 0.000000 0.000000 -1.000000
vn 0.000000 0.000000 -1.000000
vn 0.000000 1.000000 0.000000
vn 0.000000 1.000000 0.000000
vn 0.000000 1.000000 0.000000
vn 0.000000 1.000000 0.000000
vn 0.000000 0.999848 0.017456
vn 0.000000 0.999848 0.017456
vn 0.000000 0.999848 0.017456
vn 0.000000 0.999848 0.017456
vn 0.000000 0.000000 -1.000000
vn 0.000000 0.000000 -1.000000
vn 0.000000 0.000000 -1.000000
vn 0.000000 0.000000 -1.000000
vn 0.000000 -1.000000 -0.000001
vn 0.000000 -1.000000 -0.000001
vn 0.000000 -1.000000 -0.000001
vn 0.000000 -1.000000 -0.000001
vn 0.000000 0.000000 -1.000000
vn 0.000000 0.000000 -1.000000
vn 0.000000 0.000000 -1.000000
vn 0.000000 0.000000 -1.000000
vn 0.000000 -1.000000 0.000000
vn 0.000000 -1.000000 0.000000
vn 0.000000 -1.000000 0.000000
vn 0.000000 -1.000000 0.000000
vn 0.000000 -1.000000 0.000000
vn 0.000000 -1.000000 0.000000
vn 0.000000 -1.000000 0.000000
vn 0.000000 -1.000000 0.000000
vn 0.000000 -1.000000 0.000000
vn 0.000000 -1.000000 0.000000
vn 0.000000 -1.000000 0.000000
vn 0.000000 -1.000000 0.000000
vn 0.000000 0.000000 1.000000
vn 0.000000 0.000000 1.000000
vn 0.000000 0.000000 1.000000
vn 0.000000 0.000000 1.000000
vn 0.000000 -1.000000 0.000000
vn 0.000000 -1.000000 0.000000
vn 0.000000 -1.000000 0.000000
vn 0.000000 -1.000000 0.000000
vn 0.000000 0.000000 1.000000
vn 0.000000 0.000000 1.000000
vn 0.000000 0.000000 1.000000
vn 0.000000 0.000000 1.000000
vn 0.000000 0.999848 -0.017455
vn 0.000000 0.999848 -0.017455
vn 0.000000 0.999848 -0.017455
vn 0.000000 0.999848 -0.017455
s off
f 2/1/1 6/4/2 5/3/3 1/2/4
f 6/4/5 8/6/6 7/5/7 5/3/8
f 2/1/9 14/13/10 33/32/11 21/26/12
f 3/9/13 2/1/14 21/26/15 22/33/16
f 4/8/17 3/9/18 22/33/19 23/34/20
f 9/7/21 4/8/22 23/34/23 28/35/24
f 1/2/25 5/3/26 10/14/27
f 12/11/28 5/3/29 7/5/30 11/10/31
f 5/3/32 12/11/33 13/12/34 10/14/35
f 2/1/36 1/2/37 15/15/38 17/23/39 14/13/40
f 7/5/41 8/6/42 14/13/43 17/23/44
f 11/18/45 16/19/46 54/73/47 49/72/48
f 7/20/49 16/22/50 11/21/51
f 15/15/52 19/25/53 17/23/54
f 17/23/55 19/25/56 18/24/57 7/5/58
f 7/5/59 18/24/60 16/16/61
f 16/16/62 18/24/63 37/49/64 35/50/65
f 12/11/66 11/10/67 49/68/68 50/67/69
f 51/69/70 13/12/71 12/11/72 50/67/73
f 21/26/74 20/27/75 24/28/76 25/29/77
f 25/29/78 24/28/79 26/30/80 27/31/81
f 20/27/82 29/36/83 24/28/84
f 31/37/85 30/38/86 26/30/87 24/28/88
f 24/28/89 29/36/90 32/39/91 31/37/92
f 21/26/93 33/32/94 36/40/95 34/41/96 20/27/97
f 8/6/98 27/31/99 33/32/100 14/13/101
f 26/30/102 36/40/103 33/32/104 27/31/105
f 73/93/106 35/43/107 30/44/108 68/94/109
f 26/45/110 30/46/111 35/47/112
f 34/41/113 36/40/114 38/48/115
f 36/40/116 26/30/117 37/49/118 38/48/119
f 26/30/120 35/50/121 37/49/122
f 16/16/123 35/50/124 34/41/125 15/15/126
f 19/25/127 38/48/128 37/49/129 18/24/130
f 15/15/131 34/41/132 38/48/133 19/25/134
f 30/38/135 31/37/136 69/88/137 68/89/138
f 31/37/139 32/39/140 70/90/141 69/88/142
f 40/51/143 39/54/144 43/53/145 44/52/146
f 44/52/147 43/53/148 45/56/149 46/55/150
f 40/51/151 59/59/152 71/58/153 52/57/154
f 41/60/155 60/61/156 59/59/157 40/51/158
f 42/62/159 61/63/160 60/61/161 41/60/162
f 47/64/163 66/65/164 61/63/165 42/62/166
f 39/54/167 48/66/168 43/53/169
f 50/67/170 49/68/171 45/56/172 43/53/173
f 43/53/174 48/66/175 51/69/176 50/67/177
f 40/51/178 52/57/179 55/71/180 53/70/181 39/54/182
f 45/56/183 55/71/184 52/57/185 46/55/186
f 45/74/187 49/76/188 54/75/189
f 53/70/190 55/71/191 57/77/192
f 55/71/193 45/56/194 56/78/195 57/77/196
f 45/56/197 54/79/198 56/78/199
f 54/79/200 73/81/201 75/80/202 56/78/203
f 59/59/204 63/84/205 62/83/206 58/82/207
f 63/84/208 65/86/209 64/85/210 62/83/211
f 58/82/212 62/83/213 67/87/214
f 69/88/215 62/83/216 64/85/217 68/89/218
f 62/83/219 69/88/220 70/90/221 67/87/222
f 59/59/223 58/82/224 72/92/225 74/91/226 71/58/227
f 46/55/228 52/57/229 71/58/230 65/86/231
f 64/85/232 65/86/233 71/58/234 74/91/235
f 64/95/236 73/97/237 68/96/238
f 72/92/239 76/98/240 74/91/241
f 74/91/242 76/98/243 75/80/244 64/85/245
f 64/85/246 75/80/247 73/81/248
f 54/79/249 53/70/250 72/92/251 73/81/252
f 57/77/253 56/78/254 75/80/255 76/98/256
f 53/70/257 57/77/258 76/98/259 72/92/260
f 103/129/261 104/130/262 23/34/263 22/33/264
f 22/33/265 21/26/266 102/128/267 103/129/268
f 21/26/269 25/29/270 101/127/271 102/128/272
f 25/29/273 27/31/274 100/125/275 101/127/276
f 27/42/277 8/17/278 99/123/279 100/126/280
f 8/6/281 6/4/282 98/122/283 99/124/284
f 6/4/285 2/1/286 97/121/287 98/122/288
f 2/1/289 3/9/290 96/120/291 97/121/292
f 3/9/293 4/8/294 95/119/295 96/120/296
f 4/8/297 9/7/298 94/118/299 95/119/300
f 9/7/301 28/35/302 93/117/303 94/118/304
f 104/130/305 93/117/306 28/35/307 23/34/308
f 78/101/309 80/102/310 79/103/311 77/104/312
f 80/102/313 82/105/314 81/106/315 79/103/316
f 78/101/317 77/104/318 84/107/319 83/108/320
f 81/106/321 82/105/322 83/108/323 84/107/324
f 86/109/325 88/110/326 87/111/327 85/112/328
f 88/110/329 90/113/330 89/114/331 87/111/332
f 86/109/333 85/112/334 92/115/335 91/116/336
f 89/114/337 90/113/338 91/116/339 92/115/340
f 94/118/341 93/117/342 66/65/343 47/64/344
f 95/119/345 94/118/346 47/64/347 42/62/348
f 96/120/349 95/119/350 42/62/351 41/60/352
f 97/121/353 96/120/354 41/60/355 40/51/356
f 98/122/357 97/121/358 40/51/359 44/52/360
f 99/124/361 98/122/362 44/52/363 46/55/364
f 100/126/365 99/123/366 46/99/367 65/100/368
f 101/127/369 100/125/370 65/86/371 63/84/372
f 102/128/373 101/127/374 63/84/375 59/59/376
f 103/129/377 102/128/378 59/59/379 60/61/380
f 61/63/381 104/130/382 103/129/383 60/61/384
f 66/65/385 93/117/386 104/130/387 61/63/388
