# This file uses meters as units for non-parametric coordinates.

v 73.120316 0.000000 -58.683659
v -73.120689 0.000000 -58.683659
v 73.120316 146.241470 -58.683659
v -73.120689 146.241470 -58.683659
v 73.120316 146.241470 58.683670
v -73.120689 146.241470 58.683670
v 73.120316 0.000000 58.683670
v -73.120689 0.000000 58.683670
v 39.499378 195.085800 -58.683659
v -39.499378 195.085800 -58.683659
v -39.499378 195.085800 58.683670
v 39.499378 195.085800 58.683670
v 39.499378 568.589783 -58.683659
v -39.499378 568.589783 -58.683659
v -39.499378 568.589783 58.683670
v 39.499378 568.589783 58.683670
v 64.425087 614.709961 -58.683659
v -64.425468 614.709961 -58.683659
v -64.425468 614.709961 58.683670
v 64.425087 614.709961 58.683670
v 64.425087 756.773193 -58.683659
v -64.425468 756.773193 -58.683659
v -64.425468 756.773193 58.683670
v 64.425087 756.773193 58.683670
v 60.324482 141.562439 58.683670
v -60.324478 141.562439 58.683670
v -60.324478 12.796140 58.683670
v 60.324482 12.796140 58.683670
v 28.276920 181.253860 58.683670
v -28.276920 181.253860 58.683670
v 28.276920 582.206360 58.683670
v -28.276920 582.206360 58.683670
v 53.150940 619.229248 58.683670
v -53.150940 619.229248 58.683670
v 53.150940 744.342590 58.683670
v -53.150940 744.342590 58.683670
v 57.311821 153.625946 -41.384483
v -57.311821 153.625946 -41.384483
v 57.311821 650.440857 -41.384483
v -57.311821 650.440857 -41.384483
v 57.311821 650.440857 41.384865
v -57.311821 650.440857 41.384865
v 57.311821 153.625946 41.384865
v -57.311821 153.625946 41.384865
v 49.652863 135.147049 66.727852
v -49.652290 135.147049 66.727852
v -49.652290 21.793268 66.727852
v 49.652195 21.793268 66.727852
v 18.675327 174.383209 66.727852
v -18.675327 174.383209 66.727852
v 18.675327 588.917725 66.727852
v -18.675327 588.917725 66.727852
v 43.748093 625.542114 66.727852
v -43.748093 625.542114 66.727852
v 43.748093 735.680420 66.727852
v -43.748093 735.680420 66.727852
vt 0.081025 0.304597
vt 0.081025 0.304597
vt 0.081025 0.304597
vt 0.081025 0.304597
vt 0.081025 0.304597
vt 0.081025 0.304597
vt 0.081025 0.304597
vt 0.081025 0.304597
vt 0.081025 0.304597
vt 0.081025 0.304597
vt 0.081025 0.304597
vt 0.081025 0.304597
vt 0.081025 0.304597
vt 0.081025 0.304597
vt 0.081025 0.304597
vt 0.081025 0.304597
vt 0.081025 0.304597
vt 0.081025 0.304597
vt 0.081025 0.304597
vt 0.081025 0.304597
vt 0.081025 0.304597
vt 0.081025 0.304597
vt 0.081025 0.304597
vt 0.081025 0.304597
vt 0.081025 0.304597
vt 0.081025 0.304597
vt 0.081025 0.304597
vt 0.081025 0.304597
vt 0.081025 0.304597
vt 0.081025 0.304597
vt 0.092396 0.327338
vt 0.081025 0.304597
vt 0.081025 0.304597
vt 0.081025 0.304597
vt 0.081025 0.304597
vt 0.092396 0.327338
vt 0.081025 0.304597
vt 0.092396 0.327338
vt 0.081025 0.304597
vt 0.092396 0.327338
vt 0.081025 0.304597
vt 0.081025 0.304597
vt 0.092396 0.327338
vt 0.081025 0.304597
vt 0.092396 0.327338
vt 0.092396 0.327338
vt 0.092396 0.327338
vt 0.092396 0.327338
vt 0.092396 0.327338
vt 0.081025 0.304597
vt 0.092396 0.327338
vt 0.092396 0.327338
vt 0.092396 0.327338
vt 0.081025 0.304597
vt 0.092396 0.327338
vt 0.092396 0.327338
vt 0.092396 0.327338
vt 0.081025 0.304597
vt 0.092396 0.327338
vt 0.092396 0.327338
vt 0.092396 0.327337
vt 0.092396 0.327337
vt 0.089959 0.328150
vt 0.089959 0.328150
vt 0.089959 0.328150
vt 0.089959 0.328150
vt 0.089959 0.328150
vt 0.089959 0.328150
vt 0.089959 0.328150
vt 0.089959 0.328150
vt 0.089959 0.328150
vt 0.089959 0.328150
vt 0.089959 0.328150
vt 0.089959 0.328150
vt 0.089959 0.328150
vt 0.089959 0.328150
vt 0.092396 0.327338
vt 0.092396 0.327337
vt 0.092396 0.327337
vt 0.092396 0.327338
vt 0.092396 0.327338
vt 0.092396 0.327338
vt 0.092396 0.327338
vt 0.092396 0.327338
vt 0.092396 0.327338
vt 0.092396 0.327338
vt 0.092396 0.327338
vt 0.092396 0.327338
vt 0.092396 0.327338
vt 0.092396 0.327338
vt 0.092396 0.327338
vt 0.092396 0.327338
vt 0.092396 0.327338
vt 0.092396 0.327338
vt 0.092396 0.327338
vt 0.092396 0.327338
vt 0.092396 0.327338
vt 0.092396 0.327338
vt 0.092396 0.327338
vt 0.092396 0.327338
vt 0.092396 0.327338
vt 0.092396 0.327338
vt 0.092396 0.327338
vt 0.092396 0.327338
vt 0.092396 0.327338
vt 0.092396 0.327338
vt 0.092396 0.327338
vt 0.092396 0.327338
vt 0.092396 0.327338
vt 0.092396 0.327338
vt 0.092396 0.327338
vt 0.092396 0.327338
vt 0.092396 0.327338
vt 0.092396 0.327338
vt 0.092396 0.327338
vt 0.092396 0.327338
vt 0.092396 0.327338
vt 0.092396 0.327338
vt 0.092396 0.327337
vt 0.092396 0.327337
vt 0.092396 0.327337
vt 0.092396 0.327337
vt 0.092396 0.327337
vt 0.092396 0.327337
vn 0.000000 0.000000 -1.000000
vn 0.000000 0.000000 -1.000000
vn 0.000000 0.000000 -1.000000
vn 0.000000 0.000000 -1.000000
vn 0.000000 1.000000 0.000000
vn 0.000000 1.000000 0.000000
vn 0.000000 1.000000 0.000000
vn 0.000000 1.000000 0.000000
vn 0.000000 0.000000 1.000000
vn 0.000000 0.000000 1.000000
vn 0.000000 0.000000 1.000000
vn 0.000000 0.000000 1.000000
vn 0.000000 -1.000000 0.000000
vn 0.000000 -1.000000 0.000000
vn 0.000000 -1.000000 0.000000
vn 0.000000 -1.000000 0.000000
vn -1.000000 0.000000 0.000000
vn -1.000000 0.000000 0.000000
vn -1.000000 0.000000 0.000000
vn -1.000000 0.000000 0.000000
vn 1.000000 0.000000 0.000000
vn 1.000000 0.000000 0.000000
vn 1.000000 0.000000 0.000000
vn 1.000000 0.000000 0.000000
vn 0.000000 0.000000 -1.000000
vn 0.000000 0.000000 -1.000000
vn 0.000000 0.000000 -1.000000
vn 0.000000 0.000000 -1.000000
vn -0.823720 0.566996 0.000000
vn -0.823720 0.566996 0.000000
vn -0.823720 0.566996 0.000000
vn -0.823720 0.566996 0.000000
vn 0.000000 0.000000 1.000000
vn 0.000000 0.000000 1.000000
vn 0.000000 0.000000 1.000000
vn 0.000000 0.000000 1.000000
vn 0.823723 0.566992 0.000000
vn 0.823723 0.566992 0.000000
vn 0.823723 0.566992 0.000000
vn 0.823723 0.566992 0.000000
vn 0.000000 0.000000 -1.000000
vn 0.000000 0.000000 -1.000000
vn 0.000000 0.000000 -1.000000
vn 0.000000 0.000000 -1.000000
vn -1.000000 0.000000 0.000000
vn -1.000000 0.000000 0.000000
vn -1.000000 0.000000 0.000000
vn -1.000000 0.000000 0.000000
vn 0.000000 0.000000 1.000000
vn 0.000000 0.000000 1.000000
vn 0.000000 0.000000 1.000000
vn 0.000000 0.000000 1.000000
vn 1.000000 0.000000 0.000000
vn 1.000000 0.000000 0.000000
vn 1.000000 0.000000 0.000000
vn 1.000000 0.000000 0.000000
vn 0.000000 0.000000 -1.000000
vn 0.000000 0.000000 -1.000000
vn 0.000000 0.000000 -1.000000
vn 0.000000 0.000000 -1.000000
vn -0.879736 -0.475462 0.000000
vn -0.879736 -0.475462 0.000000
vn -0.879736 -0.475462 0.000000
vn -0.879736 -0.475462 0.000000
vn 0.000000 0.000000 1.000000
vn 0.000000 0.000000 1.000000
vn 0.000000 0.000000 1.000000
vn 0.000000 0.000000 1.000000
vn 0.879739 -0.475456 0.000000
vn 0.879739 -0.475456 0.000000
vn 0.879739 -0.475456 0.000000
vn 0.879739 -0.475456 0.000000
vn 0.000000 0.000000 -1.000000
vn 0.000000 0.000000 -1.000000
vn 0.000000 0.000000 -1.000000
vn 0.000000 0.000000 -1.000000
vn -1.000000 0.000000 0.000000
vn -1.000000 0.000000 0.000000
vn -1.000000 0.000000 0.000000
vn -1.000000 0.000000 0.000000
vn 0.000000 0.000000 1.000000
vn 0.000000 0.000000 1.000000
vn 0.000000 0.000000 1.000000
vn 0.000000 0.000000 1.000000
vn 1.000000 0.000000 0.000000
vn 1.000000 0.000000 0.000000
vn 1.000000 0.000000 0.000000
vn 1.000000 0.000000 0.000000
vn 0.000000 0.000000 1.000000
vn 0.000000 0.000000 1.000000
vn 0.000000 0.000000 1.000000
vn 0.000000 0.000000 1.000000
vn 0.000000 0.000000 1.000000
vn 0.000000 0.000000 1.000000
vn 0.000000 0.000000 1.000000
vn 0.000000 0.000000 1.000000
vn 0.000000 0.000000 1.000000
vn 0.000000 0.000000 1.000000
vn 0.000000 0.000000 1.000000
vn 0.000000 0.000000 1.000000
vn 0.000000 0.000000 1.000000
vn 0.000000 0.000000 1.000000
vn 0.000000 0.000000 1.000000
vn 0.000000 0.000000 1.000000
vn -0.000000 0.000000 1.000000
vn 0.000000 0.000000 1.000000
vn 0.000000 0.000000 1.000000
vn -0.000000 0.000000 1.000000
vn 0.000000 0.000000 1.000000
vn 0.000000 0.000000 1.000000
vn 0.000000 0.000000 1.000000
vn 0.000000 0.000000 1.000000
vn -0.000000 0.000000 1.000000
vn -0.000000 0.000000 1.000000
vn -0.000000 0.000000 1.000000
vn -0.000000 0.000000 1.000000
vn 0.000000 0.000000 1.000000
vn 0.000000 0.000000 1.000000
vn 0.000000 0.000000 1.000000
vn 0.000000 0.000000 1.000000
vn 0.000000 0.000000 1.000000
vn -0.000000 0.000000 1.000000
vn -0.000000 0.000000 1.000000
vn 0.000000 0.000000 1.000000
vn 0.000000 0.000000 1.000000
vn -0.000000 0.000000 1.000000
vn -0.000000 0.000000 1.000000
vn 0.000000 0.000000 1.000000
vn -0.000000 0.000000 1.000000
vn 0.000000 0.000000 1.000000
vn 0.000000 0.000000 1.000000
vn -0.000000 0.000000 1.000000
vn 0.000000 0.000000 1.000000
vn 0.000000 0.000000 1.000000
vn 0.000000 0.000000 1.000000
vn 0.000000 0.000000 1.000000
vn 0.000000 0.000000 -1.000000
vn 0.000000 0.000000 -1.000000
vn 0.000000 0.000000 -1.000000
vn 0.000000 0.000000 -1.000000
vn 0.000000 1.000000 0.000000
vn 0.000000 1.000000 0.000000
vn 0.000000 1.000000 0.000000
vn 0.000000 1.000000 0.000000
vn 0.000000 0.000000 1.000000
vn 0.000000 0.000000 1.000000
vn 0.000000 0.000000 1.000000
vn 0.000000 0.000000 1.000000
vn 0.000000 -1.000000 0.000000
vn 0.000000 -1.000000 0.000000
vn 0.000000 -1.000000 0.000000
vn 0.000000 -1.000000 0.000000
vn -1.000000 0.000000 0.000000
vn -1.000000 0.000000 0.000000
vn -1.000000 0.000000 0.000000
vn -1.000000 0.000000 0.000000
vn 1.000000 0.000000 0.000000
vn 1.000000 0.000000 0.000000
vn 1.000000 0.000000 0.000000
vn 1.000000 0.000000 0.000000
vn -0.549287 0.130222 0.825425
vn -0.601916 0.000000 0.798559
vn -0.601916 0.000000 0.798559
vn -0.564295 0.096054 0.819966
vn 0.000000 -0.666524 0.745483
vn 0.000000 -0.666524 0.745483
vn 0.000000 -0.666524 0.745483
vn 0.000000 -0.666524 0.745483
vn 0.601924 -0.000002 0.798553
vn 0.549294 0.130226 0.825420
vn 0.564303 0.096054 0.819961
vn 0.601924 -0.000002 0.798553
vn 0.549294 0.130226 0.825420
vn 0.625947 0.035131 0.779074
vn 0.613945 0.059705 0.787087
vn 0.564303 0.096054 0.819961
vn -0.625947 0.035131 0.779074
vn -0.549287 0.130222 0.825425
vn -0.564295 0.096054 0.819966
vn -0.613944 0.059704 0.787088
vn 0.625947 0.035131 0.779074
vn 0.631266 -0.027299 0.775086
vn 0.622038 -0.049243 0.781437
vn 0.613945 0.059705 0.787087
vn -0.631266 -0.027299 0.775086
vn -0.625947 0.035131 0.779074
vn -0.613944 0.059704 0.787088
vn -0.622038 -0.049243 0.781437
vn 0.631266 -0.027299 0.775086
vn 0.592764 -0.124254 0.795734
vn 0.614139 -0.081123 0.785017
vn 0.622038 -0.049243 0.781437
vn -0.592763 -0.124253 0.795734
vn -0.631266 -0.027299 0.775086
vn -0.622038 -0.049243 0.781437
vn -0.614139 -0.081123 0.785018
vn 0.592764 -0.124254 0.795734
vn 0.650074 0.000000 0.759871
vn 0.650074 0.000000 0.759871
vn 0.614139 -0.081123 0.785017
vn 0.000000 0.680487 0.732761
vn 0.000000 0.680487 0.732761
vn 0.000000 0.680487 0.732761
vn 0.000000 0.680487 0.732761
vn -0.650074 0.000000 0.759871
vn -0.592763 -0.124253 0.795734
vn -0.614139 -0.081123 0.785018
vn -0.650074 0.000000 0.759871
s off
f 1/1/1 2/2/2 4/4/3 3/3/4
f 21/27/5 22/28/6 23/29/7 24/30/8
f 45/117/9 46/77/10 47/122/11 48/120/12
f 7/7/13 8/8/14 2/10/15 1/9/16
f 2/2/17 8/11/18 6/12/19 4/4/20
f 7/13/21 1/1/22 3/3/23 5/14/24
f 3/3/25 4/4/26 10/16/27 9/15/28
f 4/4/29 6/6/30 11/17/31 10/16/32
f 46/84/33 45/118/34 49/113/35 50/83/36
f 5/5/37 3/3/38 9/15/39 12/18/40
f 9/15/41 10/16/42 14/20/43 13/19/44
f 10/16/45 11/17/46 15/21/47 14/20/48
f 50/88/49 49/114/50 51/109/51 52/87/52
f 12/18/53 9/15/54 13/19/55 16/22/56
f 13/19/57 14/20/58 18/24/59 17/23/60
f 14/20/61 15/21/62 19/25/63 18/24/64
f 52/92/65 51/110/66 53/104/67 54/91/68
f 16/22/69 13/19/70 17/23/71 20/26/72
f 17/23/73 18/24/74 22/28/75 21/27/76
f 18/24/77 19/25/78 23/29/79 22/28/80
f 54/96/81 53/105/82 55/102/83 56/100/84
f 20/26/85 17/23/86 21/27/87 24/30/88
f 6/6/89 8/8/90 27/32/91 26/58/92
f 8/8/93 7/7/94 28/33/95 27/32/96
f 7/7/97 5/5/98 25/34/99 28/33/100
f 5/5/101 12/18/102 29/35/103 25/34/104
f 11/17/105 6/6/106 26/58/107 30/54/108
f 12/18/109 16/22/110 31/37/111 29/35/112
f 15/21/113 11/17/114 30/54/115 32/50/116
f 16/22/117 20/26/118 33/39/119 31/37/120
f 19/25/121 15/21/122 32/50/123 34/44/124
f 20/26/125 24/30/126 35/41/127 33/39/128
f 24/30/129 23/29/130 36/42/131 35/41/132
f 23/29/133 19/25/134 34/44/135 36/42/136
f 37/63/137 38/64/138 40/65/139 39/66/140
f 39/66/141 40/65/142 42/67/143 41/68/144
f 41/68/145 42/67/146 44/69/147 43/70/148
f 43/70/149 44/69/150 38/71/151 37/72/152
f 38/64/153 44/73/154 42/74/155 40/65/156
f 43/75/157 37/63/158 39/66/159 41/76/160
f 26/57/161 27/124/162 47/121/163 46/115/164
f 27/62/165 28/123/166 48/119/167 47/78/168
f 28/61/169 25/59/170 45/80/171 48/79/172
f 25/60/173 29/55/174 49/82/175 45/81/176
f 30/53/177 26/31/178 46/116/179 50/111/180
f 29/56/181 31/51/182 51/86/183 49/85/184
f 32/49/185 30/36/186 50/112/187 52/107/188
f 31/52/189 33/47/190 53/90/191 51/89/192
f 34/43/193 32/38/194 52/108/195 54/97/196
f 33/48/197 35/106/198 55/101/199 53/93/200
f 35/46/201 36/103/202 56/99/203 55/94/204
f 36/45/205 34/40/206 54/98/207 56/95/208
