# This file uses meters as units for non-parametric coordinates.

v -20.960594 -41.425159 -9.307003
v -19.584202 -38.704967 16.671896
v -20.960594 41.425156 -9.307003
v -19.584202 38.704956 16.671896
v 20.959972 41.425156 -9.307003
v 19.583632 38.704956 16.671848
v 20.959972 -41.425159 -9.307003
v 19.583632 -38.704967 16.671848
v -16.322590 45.951725 -9.307003
v -15.250801 42.934296 16.671848
v 15.250182 42.934296 16.671848
v 16.322065 45.951725 -9.307003
v 16.322065 -45.951725 -9.307003
v 15.250182 -42.934299 16.671848
v -15.250801 -42.934299 16.671848
v -16.322590 -45.951725 -9.307003
v 14.117838 -34.823345 16.671850
v -14.118408 -34.823345 16.671896
v 14.117838 34.823322 16.671850
v -14.118408 34.823322 16.671896
v 14.117862 -34.823345 10.435200
v -14.118384 -34.823345 10.435200
v 14.117862 34.823322 10.435200
v -14.118384 34.823322 10.435200
v 6.516552 -45.187176 4.224252
v 6.088638 -43.698837 12.447691
v -6.089211 -43.698837 12.447691
v -6.517172 -45.187176 4.224300
v 6.516552 -65.180168 4.224252
v 6.088638 -63.691833 12.447691
v -6.089211 -63.691833 12.447691
v -6.517172 -65.180168 4.224300
v 3.917265 -66.502937 5.864286
v 3.659987 -65.608246 10.807706
v -3.660607 -65.608246 10.807751
v -3.917837 -66.502937 5.864239
v 3.917265 -70.778221 5.864286
v 3.659987 -69.883507 10.807706
v -3.660607 -69.883507 10.807751
v -3.917837 -70.778221 5.864239
vt 0.245339 0.326994
vt 0.245339 0.326994
vt 0.245339 0.326994
vt 0.245339 0.326994
vt 0.245339 0.326994
vt 0.245339 0.326994
vt 0.245339 0.326994
vt 0.245339 0.326994
vt 0.245339 0.326994
vt 0.245339 0.326994
vt 0.245338 0.326994
vt 0.245338 0.326994
vt 0.245339 0.326994
vt 0.245339 0.326994
vt 0.245339 0.326994
vt 0.245339 0.326994
vt 0.245339 0.326994
vt 0.245339 0.326994
vt 0.245339 0.326994
vt 0.245339 0.326994
vt 0.245339 0.326994
vt 0.245339 0.326994
vt 0.245339 0.326994
vt 0.245338 0.326994
vt 0.245338 0.326994
vt 0.245339 0.326994
vt 0.245339 0.326994
vt 0.245338 0.326994
vt 0.245338 0.326994
vt 0.245339 0.326994
vt 0.181940 0.028880
vt 0.197387 0.028880
vt 0.197387 0.077846
vt 0.181940 0.077846
vt 0.245339 0.326994
vt 0.245339 0.326994
vt 0.245339 0.326994
vt 0.245339 0.326994
vt 0.235754 0.304768
vt 0.235754 0.304768
vt 0.235754 0.304768
vt 0.235754 0.304768
vt 0.245339 0.326994
vt 0.245339 0.326994
vt 0.245339 0.326994
vt 0.245339 0.326994
vt 0.245339 0.326994
vt 0.245339 0.326994
vt 0.245339 0.326994
vt 0.245339 0.326994
vt 0.235754 0.304768
vt 0.235754 0.304768
vt 0.235754 0.304768
vt 0.235754 0.304768
vt 0.235754 0.304768
vt 0.235754 0.304768
vt 0.235754 0.304768
vt 0.235754 0.304768
vn -0.998599 0.000000 0.052907
vn -0.998600 0.000000 0.052907
vn -0.998599 0.000000 0.052907
vn -0.998600 0.000000 0.052907
vn 0.000000 0.993322 0.115374
vn 0.000000 0.993322 0.115374
vn 0.000000 0.993322 0.115374
vn 0.000000 0.993322 0.115374
vn 0.998600 0.000000 0.052905
vn 0.998600 0.000000 0.052905
vn 0.998600 0.000000 0.052905
vn 0.998600 0.000000 0.052905
vn -0.000000 -0.984013 0.178095
vn -0.000000 -0.984013 0.178095
vn -0.000000 -0.984013 0.178095
vn -0.000000 -0.984013 0.178095
vn 0.000000 0.000000 1.000000
vn 0.000000 0.000000 1.000000
vn 0.000000 0.000000 1.000000
vn 0.000000 0.000000 1.000000
vn 0.000000 0.000000 -1.000000
vn 0.000000 0.000000 -1.000000
vn 0.000000 0.000000 -1.000000
vn 0.000000 0.000000 -1.000000
vn -0.694124 0.711208 0.111244
vn -0.694124 0.711208 0.111244
vn -0.694124 0.711208 0.111244
vn -0.694124 0.711208 0.111244
vn 0.000001 0.000006 1.000000
vn 0.000001 0.000006 1.000000
vn 0.000001 0.000006 1.000000
vn 0.000001 0.000006 1.000000
vn 0.694126 0.711206 0.111244
vn 0.694126 0.711206 0.111244
vn 0.694126 0.711206 0.111244
vn 0.694126 0.711206 0.111244
vn 0.000000 0.000000 -1.000000
vn 0.000000 0.000000 -1.000000
vn 0.000000 0.000000 -1.000000
vn 0.000000 0.000000 -1.000000
vn 0.694126 -0.711206 0.111244
vn 0.694126 -0.711206 0.111244
vn 0.694126 -0.711206 0.111244
vn 0.694126 -0.711206 0.111244
vn 0.000001 -0.000006 1.000000
vn 0.000001 -0.000006 1.000000
vn 0.000001 -0.000006 1.000000
vn 0.000001 -0.000006 1.000000
vn -0.694123 -0.711209 0.111244
vn -0.694123 -0.711209 0.111244
vn -0.694123 -0.711209 0.111244
vn -0.694123 -0.711209 0.111244
vn 0.000000 0.000000 -1.000000
vn 0.000000 0.000000 -1.000000
vn 0.000000 0.000000 -1.000000
vn 0.000000 0.000000 -1.000000
vn 0.000001 -0.000000 1.000000
vn 0.000001 -0.000000 1.000000
vn 0.000001 -0.000000 1.000000
vn 0.000001 -0.000000 1.000000
vn 0.000000 0.000000 1.000000
vn 0.000000 0.000000 1.000000
vn 0.000000 0.000000 1.000000
vn 0.000000 0.000000 1.000000
vn 0.000001 0.000000 1.000000
vn 0.000001 0.000000 1.000000
vn 0.000001 0.000000 1.000000
vn 0.000001 0.000000 1.000000
vn 0.000000 0.000000 1.000000
vn 0.000000 0.000000 1.000000
vn 0.000000 0.000000 1.000000
vn 0.000000 0.000000 1.000000
vn 0.000000 1.000000 0.000000
vn 0.000000 1.000000 0.000000
vn 0.000000 1.000000 0.000000
vn 0.000000 1.000000 0.000000
vn -1.000000 0.000000 -0.000004
vn -1.000000 0.000000 -0.000004
vn -1.000000 0.000000 -0.000004
vn -1.000000 0.000000 -0.000004
vn 0.000000 -1.000000 -0.000000
vn 0.000000 -1.000000 -0.000000
vn 0.000000 -1.000000 -0.000000
vn 0.000000 -1.000000 -0.000000
vn 1.000000 0.000000 0.000004
vn 1.000000 0.000000 0.000004
vn 1.000000 0.000000 0.000004
vn 1.000000 0.000000 0.000004
vn 0.065334 -0.988941 0.133147
vn 0.065334 -0.988941 0.133147
vn 0.065334 -0.988941 0.133147
vn 0.065334 -0.988941 0.133147
vn 0.000000 -0.984013 0.178098
vn 0.000000 -0.984013 0.178098
vn 0.000000 -0.984013 0.178098
vn 0.000000 -0.984013 0.178098
vn -0.065335 -0.988940 0.133147
vn -0.065335 -0.988941 0.133147
vn -0.065335 -0.988941 0.133147
vn -0.065335 -0.988941 0.133147
vn 0.000000 -0.998408 0.056412
vn 0.000000 -0.998408 0.056412
vn 0.000000 -0.998408 0.056412
vn 0.000000 -0.998408 0.056412
vn 0.998649 0.000000 0.051966
vn 0.998649 0.000000 0.051966
vn 0.998649 0.000000 0.051966
vn 0.998649 0.000000 0.051966
vn 0.000000 0.000000 1.000000
vn 0.000000 0.000000 1.000000
vn 0.000000 0.000000 1.000000
vn 0.000000 0.000000 1.000000
vn -0.998649 0.000000 0.051972
vn -0.998649 0.000000 0.051972
vn -0.998649 0.000000 0.051972
vn -0.998649 0.000000 0.051972
vn -0.000004 0.000000 -1.000000
vn -0.000004 0.000000 -1.000000
vn -0.000004 0.000000 -1.000000
vn -0.000004 0.000000 -1.000000
vn 0.532983 -0.827306 0.177467
vn 0.532983 -0.827306 0.177467
vn 0.532983 -0.827306 0.177467
vn 0.532983 -0.827306 0.177467
vn 0.000002 -0.650178 0.759782
vn 0.000002 -0.650178 0.759781
vn 0.000002 -0.650178 0.759782
vn 0.000002 -0.650178 0.759782
vn -0.532981 -0.827307 0.177467
vn -0.532981 -0.827307 0.177467
vn -0.532981 -0.827307 0.177467
vn -0.532981 -0.827307 0.177467
vn 0.000000 -0.778365 -0.627812
vn 0.000000 -0.778365 -0.627812
vn 0.000000 -0.778365 -0.627812
vn 0.000000 -0.778365 -0.627812
vn 0.998649 0.000000 0.051974
vn 0.998649 0.000000 0.051974
vn 0.998649 0.000000 0.051974
vn 0.998649 0.000000 0.051974
vn 0.000006 0.000000 1.000000
vn 0.000006 0.000000 1.000000
vn 0.000006 0.000000 1.000000
vn 0.000006 0.000000 1.000000
vn -0.998649 0.000000 0.051964
vn -0.998649 0.000000 0.051964
vn -0.998649 0.000000 0.051964
vn -0.998649 0.000000 0.051964
vn 0.000006 0.000000 -1.000000
vn 0.000006 0.000000 -1.000000
vn 0.000006 0.000000 -1.000000
vn 0.000006 0.000000 -1.000000
s off
f 1/1/1 2/2/2 4/4/3 3/3/4
f 9/15/5 10/16/6 11/17/7 12/18/8
f 5/5/9 6/6/10 8/8/11 7/7/12
f 37/47/13 38/48/14 39/49/15 40/50/16
f 22/31/17 21/32/18 23/33/19 24/34/20
f 7/13/21 1/1/22 3/3/23 5/14/24
f 3/3/25 4/4/26 10/16/27 9/15/28
f 4/4/29 6/6/30 11/17/31 10/16/32
f 6/6/33 5/5/34 12/18/35 11/17/36
f 5/5/37 3/3/38 9/15/39 12/18/40
f 7/7/41 8/8/42 14/20/43 13/19/44
f 8/8/45 2/10/46 15/21/47 14/20/48
f 2/10/49 1/9/50 16/22/51 15/21/52
f 1/9/53 7/7/54 13/19/55 16/22/56
f 2/2/57 8/11/58 17/24/59 18/23/60
f 8/11/61 6/12/62 19/25/63 17/24/64
f 6/12/65 4/4/66 20/26/67 19/25/68
f 4/4/69 2/2/70 18/23/71 20/26/72
f 18/23/73 17/24/74 21/28/75 22/27/76
f 17/24/77 19/25/78 23/29/79 21/28/80
f 19/25/81 20/26/82 24/30/83 23/29/84
f 20/26/85 18/23/86 22/27/87 24/30/88
f 13/19/89 14/20/90 26/36/91 25/35/92
f 14/20/93 15/21/94 27/37/95 26/36/96
f 15/21/97 16/22/98 28/38/99 27/37/100
f 16/22/101 13/19/102 25/35/103 28/38/104
f 25/39/105 26/40/106 30/41/107 29/42/108
f 26/40/109 27/51/110 31/52/111 30/41/112
f 27/51/113 28/53/114 32/54/115 31/52/116
f 28/53/117 25/39/118 29/42/119 32/54/120
f 29/42/121 30/41/122 34/55/123 33/56/124
f 30/41/125 31/52/126 35/57/127 34/55/128
f 31/52/129 32/54/130 36/58/131 35/57/132
f 32/54/133 29/42/134 33/56/135 36/58/136
f 33/43/137 34/44/138 38/48/139 37/47/140
f 34/44/141 35/45/142 39/49/143 38/48/144
f 35/45/145 36/46/146 40/50/147 39/49/148
f 36/46/149 33/43/150 37/47/151 40/50/152
