# This file uses meters as units for non-parametric coordinates.

v 14.194489 0.000000 -34.783077
v -14.558029 0.000000 -34.632683
v -34.783363 0.000000 -14.195061
v -34.632874 0.000000 14.557457
v -14.195251 0.000000 34.782791
v 14.557838 0.000000 34.632587
v 34.782410 0.000000 14.194679
v 34.631729 0.000000 -14.558315
v 12.398148 9.772968 -30.381680
v -12.716103 9.772968 -30.250835
v -30.381966 9.772968 -12.398815
v -30.251122 9.772968 12.715530
v -12.398720 9.772968 30.382442
v 12.715721 9.772968 30.250263
v 30.381584 9.772968 12.399578
v 30.249977 9.772968 -12.716389
v -0.000381 0.000000 -0.000572
v 11.008835 9.772968 -26.977062
v -11.290741 9.772968 -26.859760
v -26.976776 9.772968 -11.009598
v -26.861191 9.772968 11.290550
v -11.008644 9.772968 26.977539
v 11.291504 9.772968 26.861858
v 26.976967 9.772968 11.010170
v 26.861000 9.772968 -11.291885
v 8.496666 6.350016 -20.820332
v -8.713722 6.350016 -20.729256
v -20.819855 6.350016 -8.496952
v -20.730591 6.350016 8.713531
v -8.496094 6.350016 20.820618
v 8.714485 6.350016 20.731354
v 20.820427 6.350016 8.497238
v 20.730591 6.350016 -8.714867
v 7.505226 10.532528 -18.390656
v -7.697487 10.532528 -18.311691
v -18.390656 10.532528 -7.505226
v -18.312454 10.532528 7.697105
v -7.504463 10.532528 18.392754
v 7.698250 10.532528 18.313789
v 18.391418 10.532528 7.507324
v 18.311310 10.532528 -7.697964
v 4.796791 10.532528 -11.754799
v -4.919624 10.532528 -11.703587
v -11.755180 10.532528 -4.796982
v -11.705399 10.532528 4.921532
v -4.796600 10.532528 11.757088
v 4.920769 10.532528 11.706161
v 11.755371 10.532528 4.799271
v 11.705589 10.532528 -4.919434
v 2.922440 6.270867 -7.159042
v -2.996063 6.270867 -7.127762
v 0.000381 6.270867 0.001049
v -7.160187 6.270867 -2.920723
v -7.128906 6.270867 2.997780
v -2.922249 6.270867 7.161045
v 2.997398 6.270867 7.130241
v 7.160378 6.270867 2.922916
v 7.128906 6.270867 -2.995682
vt 0.243346 0.302072
vt 0.243346 0.302072
vt 0.243346 0.302072
vt 0.243346 0.302072
vt 0.243346 0.302072
vt 0.243346 0.302072
vt 0.243346 0.302072
vt 0.243346 0.302072
vt 0.243346 0.302072
vt 0.243346 0.302072
vt 0.243346 0.302072
vt 0.243346 0.302072
vt 0.243346 0.302072
vt 0.243346 0.302072
vt 0.243346 0.302072
vt 0.243346 0.302072
vt 0.243346 0.302072
vt 0.243346 0.302072
vt 0.243346 0.302072
vt 0.243346 0.302072
vt 0.243346 0.302072
vt 0.243346 0.302072
vt 0.243346 0.302072
vt 0.243346 0.302072
vt 0.243346 0.302072
vt 0.243346 0.302072
vt 0.243346 0.302072
vt 0.243346 0.302072
vt 0.243346 0.302072
vt 0.243346 0.302072
vt 0.243346 0.302072
vt 0.243346 0.302072
vt 0.243346 0.302072
vt 0.243346 0.302072
vt 0.243346 0.302072
vt 0.010300 0.011091
vt 0.243346 0.302072
vt 0.243346 0.302072
vt 0.243346 0.302072
vt 0.243346 0.302072
vt 0.243346 0.302072
vt 0.243346 0.302072
vt 0.243346 0.302072
vt 0.243346 0.302072
vt 0.244662 0.354080
vt 0.244663 0.354080
vt 0.244663 0.354080
vt 0.244663 0.354080
vt 0.244663 0.354080
vt 0.244663 0.354080
vt 0.244662 0.354080
vt 0.244662 0.354080
vt 0.244662 0.354080
vt 0.244663 0.354080
vt 0.244663 0.354080
vt 0.244663 0.354080
vt 0.244663 0.354080
vt 0.244663 0.354080
vt 0.244662 0.354080
vt 0.244662 0.354080
vt 0.244662 0.354080
vt 0.244663 0.354080
vt 0.244663 0.354080
vt 0.244663 0.354080
vt 0.244663 0.354080
vt 0.244663 0.354080
vt 0.244662 0.354080
vt 0.244662 0.354080
vt 0.244662 0.354080
vt 0.244663 0.354080
vt 0.244663 0.354080
vt 0.244663 0.354080
vt 0.244663 0.354080
vt 0.244663 0.354080
vt 0.244662 0.354080
vt 0.244662 0.354080
vt 0.010300 0.011091
vt 0.010300 0.011091
vt 0.010300 0.011091
vt 0.010300 0.011091
vt 0.010300 0.011091
vt 0.010300 0.011091
vt 0.010300 0.011091
vt 0.010300 0.011091
vt 0.244662 0.354080
vt 0.244662 0.354080
vt 0.244662 0.354080
vt 0.244662 0.354080
vt 0.244662 0.354080
vt 0.244662 0.354080
vt 0.244663 0.354080
vt 0.244662 0.354080
vt 0.244662 0.354080
vt 0.244662 0.354080
vt 0.244663 0.354080
vt 0.244663 0.354080
vt 0.244663 0.354080
vt 0.244663 0.354080
vt 0.244663 0.354080
vt 0.244663 0.354080
vt 0.244663 0.354080
vt 0.244663 0.354080
vt 0.244663 0.354080
vt 0.244663 0.354080
vt 0.244663 0.354080
vt 0.244663 0.354080
vt 0.244663 0.354080
vt 0.244663 0.354080
vt 0.244663 0.354080
vt 0.244663 0.354080
vt 0.244663 0.354080
vt 0.244663 0.354080
vt 0.244663 0.354080
vt 0.244662 0.354080
vt 0.244662 0.354080
vt 0.244662 0.354080
vt 0.244662 0.354080
vt 0.244662 0.354080
vt 0.244662 0.354080
vt 0.244662 0.354080
vt 0.244662 0.354080
vt 0.244662 0.354080
vt 0.244663 0.354080
vt 0.244663 0.354080
vt 0.244663 0.354080
vt 0.244663 0.354080
vt 0.244663 0.354080
vt 0.244663 0.354080
vt 0.244663 0.354080
vt 0.244663 0.354080
vt 0.244663 0.354080
vt 0.244663 0.354080
vt 0.244663 0.354080
vt 0.244663 0.354080
vt 0.244663 0.354080
vt 0.244663 0.354080
vt 0.244663 0.354080
vt 0.244662 0.354080
vt 0.244662 0.354080
vt 0.244662 0.354080
vt 0.243346 0.302072
vt 0.244662 0.354080
vt 0.243346 0.302072
vt 0.244662 0.354080
vt 0.243346 0.302072
vt 0.244663 0.354080
vt 0.243346 0.302072
vt 0.244663 0.354080
vt 0.243346 0.302072
vt 0.244663 0.354080
vt 0.243346 0.302072
vt 0.244663 0.354080
vt 0.243346 0.302072
vt 0.244663 0.354080
vt 0.243346 0.302072
vt 0.244662 0.354080
vn -0.004762 0.409887 -0.912124
vn -0.004762 0.409887 -0.912124
vn -0.004762 0.409887 -0.912124
vn -0.004762 0.409887 -0.912124
vn -0.648342 0.409888 -0.641595
vn -0.648342 0.409888 -0.641595
vn -0.648342 0.409888 -0.641595
vn -0.648342 0.409888 -0.641595
vn -0.912126 0.409883 0.004764
vn -0.912126 0.409883 0.004764
vn -0.912126 0.409883 0.004764
vn -0.912126 0.409883 0.004764
vn -0.641609 0.409864 0.648344
vn -0.641609 0.409864 0.648344
vn -0.641609 0.409864 0.648344
vn -0.641609 0.409864 0.648344
vn 0.004782 0.409865 0.912134
vn 0.004782 0.409865 0.912134
vn 0.004782 0.409865 0.912134
vn 0.004782 0.409865 0.912134
vn 0.648349 0.409859 0.641607
vn 0.648349 0.409859 0.641607
vn 0.648349 0.409859 0.641607
vn 0.648349 0.409859 0.641607
vn 0.912135 0.409861 -0.004780
vn 0.912135 0.409861 -0.004780
vn 0.912135 0.409861 -0.004780
vn 0.912135 0.409861 -0.004780
vn 0.641590 0.409888 -0.648347
vn 0.641590 0.409888 -0.648347
vn 0.641590 0.409888 -0.648347
vn 0.641590 0.409888 -0.648347
vn 0.000000 -1.000000 0.000000
vn 0.000000 -1.000000 0.000000
vn 0.000000 -1.000000 0.000000
vn 0.000000 -1.000000 0.000000
vn 0.000000 -1.000000 0.000000
vn 0.000000 -1.000000 0.000000
vn 0.000000 -1.000000 0.000000
vn 0.000000 -1.000000 0.000000
vn 0.000000 -1.000000 0.000000
vn 0.000000 -1.000000 0.000000
vn 0.000000 -1.000000 0.000000
vn 0.000000 -1.000000 0.000000
vn 0.000000 -1.000000 0.000000
vn 0.000000 -1.000000 0.000000
vn 0.000000 -1.000000 0.000000
vn 0.000000 -1.000000 0.000000
vn 0.000000 -1.000000 0.000000
vn 0.000000 -1.000000 0.000000
vn 0.000000 -1.000000 0.000000
vn 0.000000 -1.000000 0.000000
vn 0.000000 -1.000000 0.000000
vn 0.000000 -1.000000 0.000000
vn 0.000000 -1.000000 0.000000
vn 0.000000 -1.000000 0.000000
vn 0.000000 1.000000 0.000000
vn 0.000000 1.000000 0.000000
vn 0.000000 1.000000 0.000000
vn 0.000000 1.000000 0.000000
vn 0.000000 1.000000 0.000000
vn 0.000000 1.000000 0.000000
vn 0.000000 1.000000 0.000000
vn 0.000000 1.000000 0.000000
vn 0.000000 1.000000 0.000000
vn 0.000000 1.000000 0.000000
vn 0.000000 1.000000 0.000000
vn 0.000000 1.000000 0.000000
vn 0.000000 1.000000 0.000000
vn 0.000000 1.000000 -0.000000
vn 0.000000 1.000000 0.000000
vn 0.000000 1.000000 -0.000000
vn 0.000000 1.000000 0.000000
vn 0.000000 1.000000 0.000000
vn 0.000000 1.000000 0.000000
vn 0.000000 1.000000 0.000000
vn 0.000000 1.000000 0.000000
vn 0.000000 1.000000 0.000000
vn 0.000000 1.000000 0.000000
vn 0.000000 1.000000 0.000000
vn 0.000000 1.000000 0.000000
vn 0.000000 1.000000 0.000000
vn 0.000000 1.000000 0.000000
vn 0.000000 1.000000 0.000000
vn 0.000000 1.000000 0.000000
vn 0.000000 1.000000 0.000000
vn 0.000000 1.000000 0.000000
vn 0.000000 1.000000 0.000000
vn 0.000000 1.000000 0.000000
vn 0.000000 1.000000 0.000000
vn 0.000000 1.000000 0.000000
vn 0.000000 1.000000 0.000000
vn 0.000000 1.000000 0.000000
vn 0.000000 1.000000 0.000000
vn 0.000000 1.000000 0.000000
vn 0.000000 1.000000 0.000000
vn 0.000000 1.000000 -0.000000
vn 0.000000 1.000000 -0.000000
vn 0.000000 1.000000 -0.000000
vn 0.000000 1.000000 -0.000000
vn 0.000000 1.000000 0.000000
vn 0.000000 1.000000 0.000000
vn 0.000000 1.000000 0.000000
vn 0.000000 1.000000 0.000000
vn 0.000000 1.000000 0.000000
vn 0.000000 1.000000 0.000000
vn 0.000000 1.000000 0.000000
vn 0.000000 1.000000 0.000000
vn 0.000000 1.000000 -0.000000
vn 0.000000 1.000000 -0.000000
vn 0.000000 1.000000 -0.000000
vn 0.000000 1.000000 -0.000000
vn 0.002567 0.873566 0.486699
vn 0.002567 0.873566 0.486699
vn 0.002567 0.873566 0.486699
vn 0.002567 0.873566 0.486699
vn 0.345931 0.873570 0.342355
vn 0.345931 0.873570 0.342355
vn 0.345932 0.873570 0.342355
vn 0.345931 0.873570 0.342355
vn 0.486691 0.873571 -0.002523
vn 0.486691 0.873571 -0.002523
vn 0.486691 0.873571 -0.002523
vn 0.486691 0.873571 -0.002523
vn 0.342339 0.873570 -0.345948
vn 0.342339 0.873570 -0.345948
vn 0.342339 0.873570 -0.345948
vn 0.342339 0.873570 -0.345948
vn -0.002525 0.873569 -0.486693
vn -0.002525 0.873569 -0.486693
vn -0.002525 0.873569 -0.486693
vn -0.002525 0.873569 -0.486693
vn -0.345958 0.873569 -0.342332
vn -0.345958 0.873569 -0.342332
vn -0.345958 0.873569 -0.342332
vn -0.345958 0.873569 -0.342332
vn -0.486708 0.873561 0.002535
vn -0.486708 0.873561 0.002535
vn -0.486708 0.873561 0.002535
vn -0.486708 0.873561 0.002535
vn -0.342335 0.873561 0.345975
vn -0.342335 0.873561 0.345975
vn -0.342335 0.873561 0.345975
vn -0.342335 0.873561 0.345975
vn -0.004539 0.501377 -0.865217
vn -0.004539 0.501377 -0.865217
vn -0.004539 0.501377 -0.865217
vn -0.004539 0.501377 -0.865217
vn -0.615004 0.501360 -0.608612
vn -0.615004 0.501360 -0.608612
vn -0.615004 0.501360 -0.608612
vn -0.615004 0.501360 -0.608612
vn -0.865213 0.501384 0.004470
vn -0.865213 0.501384 0.004470
vn -0.865213 0.501384 0.004470
vn -0.865213 0.501384 0.004470
vn -0.608623 0.501323 0.615022
vn -0.608623 0.501323 0.615022
vn -0.608623 0.501323 0.615022
vn -0.608623 0.501323 0.615023
vn 0.004491 0.501236 0.865299
vn 0.004491 0.501236 0.865299
vn 0.004491 0.501236 0.865299
vn 0.004491 0.501236 0.865299
vn 0.615076 0.501251 0.608629
vn 0.615076 0.501251 0.608629
vn 0.615076 0.501251 0.608629
vn 0.615076 0.501251 0.608629
vn 0.865170 0.501459 -0.004536
vn 0.865170 0.501459 -0.004536
vn 0.865170 0.501459 -0.004536
vn 0.865170 0.501459 -0.004536
vn 0.608522 0.501501 -0.614978
vn 0.608522 0.501501 -0.614978
vn 0.608522 0.501501 -0.614978
vn 0.608522 0.501501 -0.614978
vn 0.000000 1.000000 -0.000000
vn 0.000000 1.000000 -0.000000
vn 0.000000 1.000000 -0.000000
vn 0.000000 1.000000 -0.000000
vn 0.000000 1.000000 0.000000
vn 0.000000 1.000000 0.000000
vn 0.000000 1.000000 0.000000
vn 0.000000 1.000000 0.000000
vn 0.000000 1.000000 0.000000
vn 0.000000 1.000000 0.000000
vn 0.000000 1.000000 0.000000
vn 0.000000 1.000000 0.000000
vn 0.000000 1.000000 0.000000
vn 0.000000 1.000000 0.000000
vn 0.000000 1.000000 0.000000
vn 0.000000 1.000000 0.000000
vn 0.000000 1.000000 -0.000000
vn 0.000000 1.000000 -0.000000
vn 0.000000 1.000000 -0.000000
vn 0.000000 1.000000 -0.000000
vn 0.000000 1.000000 0.000000
vn 0.000000 1.000000 0.000000
vn 0.000000 1.000000 0.000000
vn 0.000000 1.000000 0.000000
vn 0.000000 1.000000 0.000000
vn 0.000000 1.000000 0.000000
vn 0.000000 1.000000 0.000000
vn 0.000000 1.000000 0.000000
vn 0.000000 1.000000 -0.000000
vn 0.000000 1.000000 -0.000000
vn 0.000000 1.000000 -0.000000
vn 0.000000 1.000000 -0.000000
vn 0.003592 0.732525 0.680730
vn 0.003592 0.732525 0.680730
vn 0.003592 0.732525 0.680730
vn 0.003592 0.732525 0.680730
vn 0.483829 0.732527 0.478868
vn 0.483829 0.732527 0.478868
vn 0.483829 0.732527 0.478868
vn 0.483829 0.732527 0.478868
vn 0.680735 0.732522 -0.003529
vn 0.680735 0.732522 -0.003529
vn 0.680735 0.732522 -0.003529
vn 0.680735 0.732522 -0.003529
vn 0.478809 0.732527 -0.483887
vn 0.478809 0.732527 -0.483887
vn 0.478809 0.732527 -0.483887
vn 0.478809 0.732527 -0.483887
vn -0.003558 0.732539 -0.680715
vn -0.003558 0.732539 -0.680715
vn -0.003558 0.732539 -0.680715
vn -0.003558 0.732539 -0.680715
vn -0.483887 0.732527 -0.478809
vn -0.483887 0.732527 -0.478809
vn -0.483887 0.732527 -0.478809
vn -0.483887 0.732527 -0.478809
vn -0.680727 0.732529 0.003537
vn -0.680727 0.732529 0.003537
vn -0.680727 0.732529 0.003537
vn -0.680727 0.732529 0.003537
vn -0.478813 0.732524 0.483886
vn -0.478813 0.732524 0.483886
vn -0.478813 0.732524 0.483886
vn -0.478813 0.732524 0.483886
s off
f 1/9/1 2/10/2 10/19/3 9/18/4
f 2/10/5 3/11/6 11/20/7 10/19/8
f 3/11/9 4/12/10 12/21/11 11/20/12
f 4/12/13 5/13/14 13/22/15 12/21/16
f 5/13/17 6/14/18 14/23/19 13/22/20
f 6/14/21 7/15/22 15/24/23 14/23/24
f 7/15/25 8/16/26 16/25/27 15/24/28
f 8/16/29 1/17/30 9/26/31 16/25/32
f 2/2/33 1/1/34 17/35/35
f 3/3/36 2/2/37 17/35/38
f 4/4/39 3/3/40 17/35/41
f 5/5/42 4/4/43 17/35/44
f 6/6/45 5/5/46 17/35/47
f 7/7/48 6/6/49 17/35/50
f 8/8/51 7/7/52 17/35/53
f 1/1/54 8/8/55 17/35/56
f 50/36/57 51/77/58 52/78/59
f 51/77/60 53/79/61 52/78/62
f 53/79/63 54/80/64 52/78/65
f 54/80/66 55/81/67 52/78/68
f 55/81/69 56/82/70 52/78/71
f 56/82/72 57/83/73 52/78/74
f 57/83/75 58/84/76 52/78/77
f 58/84/78 50/36/79 52/78/80
f 9/33/81 10/32/82 19/38/83 18/37/84
f 10/32/85 11/31/86 20/39/87 19/38/88
f 11/31/89 12/30/90 21/40/91 20/39/92
f 12/30/93 13/29/94 22/41/95 21/40/96
f 13/29/97 14/28/98 23/42/99 22/41/100
f 14/28/101 15/27/102 24/43/103 23/42/104
f 15/27/105 16/34/106 25/44/107 24/43/108
f 16/34/109 9/33/110 18/37/111 25/44/112
f 18/37/113 19/38/114 27/153/115 26/155/116
f 19/38/117 20/39/118 28/151/119 27/153/120
f 20/39/121 21/40/122 29/149/123 28/151/124
f 21/40/125 22/41/126 30/147/127 29/149/128
f 22/41/129 23/42/130 31/145/131 30/147/132
f 23/42/133 24/43/134 32/143/135 31/145/136
f 24/43/137 25/44/138 33/141/139 32/143/140
f 25/44/141 18/37/142 26/155/143 33/141/144
f 26/45/145 27/154/146 35/136/147 34/138/148
f 27/46/149 28/152/150 36/133/151 35/135/152
f 28/47/153 29/150/154 37/130/155 36/132/156
f 29/48/157 30/148/158 38/127/159 37/129/160
f 30/49/161 31/146/162 39/124/163 38/126/164
f 31/50/165 32/144/166 40/121/167 39/123/168
f 32/51/169 33/142/170 41/118/171 40/120/172
f 33/52/173 26/156/174 34/139/175 41/117/176
f 34/53/177 35/137/178 43/112/179 42/114/180
f 35/54/181 36/134/182 44/109/183 43/111/184
f 36/55/185 37/131/186 45/105/187 44/108/188
f 37/56/189 38/128/190 46/101/191 45/104/192
f 38/57/193 39/125/194 47/97/195 46/100/196
f 39/58/197 40/122/198 48/93/199 47/96/200
f 40/59/201 41/119/202 49/89/203 48/92/204
f 41/60/205 34/140/206 42/115/207 49/88/208
f 42/61/209 43/113/210 51/107/211 50/69/212
f 43/62/213 44/110/214 53/103/215 51/70/216
f 44/63/217 45/106/218 54/99/219 53/71/220
f 45/64/221 46/102/222 55/95/223 54/72/224
f 46/65/225 47/98/226 56/91/227 55/73/228
f 47/66/229 48/94/230 57/87/231 56/74/232
f 48/67/233 49/90/234 58/85/235 57/75/236
f 49/68/237 42/116/238 50/86/239 58/76/240
