# This file uses meters as units for non-parametric coordinates.

v 6.475925 0.000000 -6.476021
v 0.000000 0.000000 -9.158421
v -6.476021 0.000000 -6.476021
v -9.158468 0.000000 -0.000048
v -6.476021 0.000000 6.475973
v 0.000000 0.000000 9.158421
v 6.475925 0.000000 6.475973
v 9.158421 0.000000 -0.000048
v 6.475925 4.084985 -6.476021
v 0.000000 4.084985 -9.158421
v -6.476021 4.084985 -6.476021
v -9.158468 4.084985 -0.000048
v -6.476021 4.084985 6.475973
v 0.000000 4.084985 9.158421
v 6.475925 4.084985 6.475973
v 9.158421 4.084985 -0.000048
v -1.184273 0.000000 -12.017441
v -7.660198 0.000000 -9.335041
v -7.660198 4.084985 -9.335041
v -1.184273 4.084985 -12.017441
v -12.017393 0.000000 1.184225
v -9.334993 0.000000 7.660198
v -9.334993 4.084985 7.660198
v -12.017393 4.084985 1.184225
v 1.184273 0.000000 12.017441
v 7.660198 0.000000 9.334946
v 7.660198 4.084985 9.334946
v 1.184273 4.084985 12.017441
v 12.017345 0.000000 -1.184273
v 9.334946 0.000000 -7.660246
v 9.334946 4.084985 -7.660246
v 12.017345 4.084985 -1.184273
v 3.260708 0.000000 -3.260708
v 0.000000 0.000000 -4.611349
v -3.260708 0.000000 -3.260708
v -4.611301 0.000000 -0.000048
v -3.260708 0.000000 3.260660
v 0.000000 0.000000 4.611301
v 3.260708 0.000000 3.260660
v 4.611301 0.000000 -0.000048
v 3.260708 4.084985 -3.260708
v 0.000000 4.084985 -4.611349
v -3.260708 4.084985 -3.260708
v -4.611301 4.084985 -0.000048
v -3.260708 4.084985 3.260660
v 0.000000 4.084985 4.611301
v 3.260708 4.084985 3.260660
v 4.611301 4.084985 -0.000048
vt 0.245211 0.304536
vt 0.245211 0.304536
vt 0.245211 0.304536
vt 0.245211 0.304536
vt 0.245211 0.304536
vt 0.245211 0.304536
vt 0.245211 0.304536
vt 0.245211 0.304536
vt 0.245211 0.304536
vt 0.245211 0.304536
vt 0.245211 0.304536
vt 0.245211 0.304536
vt 0.245211 0.304536
vt 0.245211 0.304536
vt 0.245211 0.304536
vt 0.245211 0.304536
vt 0.245211 0.304536
vt 0.245211 0.304536
vt 0.245211 0.304536
vt 0.245211 0.304536
vt 0.245211 0.304536
vt 0.245211 0.304536
vt 0.245211 0.304536
vt 0.245211 0.304536
vt 0.245211 0.304536
vt 0.245211 0.304536
vt 0.245211 0.304536
vt 0.245211 0.304536
vt 0.245211 0.304536
vt 0.245211 0.304536
vt 0.245211 0.304536
vt 0.245211 0.304536
vt 0.245211 0.304536
vt 0.245211 0.304536
vt 0.245211 0.304536
vt 0.245211 0.304536
vt 0.245211 0.304536
vt 0.245211 0.304536
vt 0.245211 0.304536
vt 0.245211 0.304536
vt 0.245211 0.304536
vt 0.245211 0.304536
vt 0.245211 0.304536
vt 0.245211 0.304536
vt 0.245211 0.304536
vt 0.245211 0.304536
vt 0.245211 0.304536
vt 0.245211 0.304536
vt 0.245211 0.304536
vt 0.245211 0.304536
vt 0.245211 0.304536
vt 0.245211 0.304536
vt 0.245211 0.304536
vt 0.245211 0.304536
vt 0.245211 0.304536
vt 0.245211 0.304536
vt 0.245211 0.304536
vt 0.245211 0.304536
vt 0.245211 0.304536
vt 0.245211 0.304536
vt 0.245211 0.304536
vt 0.245211 0.304536
vt 0.245211 0.304536
vt 0.245211 0.304536
vt 0.245211 0.304536
vt 0.245211 0.304536
vt 0.245211 0.304536
vt 0.245211 0.304536
vt 0.245211 0.304536
vt 0.245211 0.304536
vt 0.245211 0.304536
vt 0.245211 0.304536
vt 0.245211 0.304536
vt 0.245211 0.304536
vn 0.382682 0.000000 -0.923880
vn 0.382682 0.000000 -0.923880
vn 0.382682 0.000000 -0.923880
vn 0.382682 0.000000 -0.923880
vn -0.382682 0.000000 -0.923880
vn -0.382682 0.000000 -0.923880
vn -0.382682 0.000000 -0.923880
vn -0.382682 0.000000 -0.923880
vn -0.923879 0.000000 -0.382685
vn -0.923879 0.000000 -0.382685
vn -0.923879 0.000000 -0.382685
vn -0.923879 0.000000 -0.382685
vn -0.923881 0.000000 0.382679
vn -0.923881 0.000000 0.382679
vn -0.923881 0.000000 0.382679
vn -0.923881 0.000000 0.382679
vn -0.382682 0.000000 0.923880
vn -0.382682 0.000000 0.923880
vn -0.382682 0.000000 0.923880
vn -0.382682 0.000000 0.923880
vn 0.382693 0.000000 0.923876
vn 0.382693 0.000000 0.923876
vn 0.382693 0.000000 0.923876
vn 0.382693 0.000000 0.923876
vn 0.923878 0.000000 0.382688
vn 0.923878 0.000000 0.382688
vn 0.923878 0.000000 0.382688
vn 0.923878 0.000000 0.382688
vn 0.923881 0.000000 -0.382679
vn 0.923881 0.000000 -0.382679
vn 0.923881 0.000000 -0.382679
vn 0.923881 0.000000 -0.382679
vn 0.000000 -1.000000 0.000000
vn 0.000000 -1.000000 0.000000
vn 0.000000 -1.000000 0.000000
vn 0.000000 -1.000000 0.000000
vn -0.923887 0.000000 0.382665
vn -0.923887 0.000000 0.382665
vn -0.923887 0.000000 0.382665
vn -0.923887 0.000000 0.382665
vn 0.000000 1.000000 0.000000
vn 0.000000 1.000000 0.000000
vn 0.000000 1.000000 0.000000
vn 0.000000 1.000000 0.000000
vn 0.923876 0.000000 -0.382691
vn 0.923876 0.000000 -0.382691
vn 0.923876 0.000000 -0.382691
vn 0.923876 0.000000 -0.382691
vn 0.000000 -1.000000 0.000000
vn 0.000000 -1.000000 0.000000
vn 0.000000 -1.000000 0.000000
vn 0.000000 -1.000000 0.000000
vn 0.382683 0.000000 0.923880
vn 0.382683 0.000000 0.923880
vn 0.382683 0.000000 0.923880
vn 0.382683 0.000000 0.923880
vn 0.000000 1.000000 -0.000000
vn 0.000000 1.000000 -0.000000
vn 0.000000 1.000000 -0.000000
vn 0.000000 1.000000 -0.000000
vn -0.382702 0.000000 -0.923872
vn -0.382702 0.000000 -0.923872
vn -0.382702 0.000000 -0.923872
vn -0.382702 0.000000 -0.923872
vn 0.000000 -1.000000 0.000000
vn 0.000000 -1.000000 0.000000
vn 0.000000 -1.000000 0.000000
vn 0.000000 -1.000000 0.000000
vn 0.923874 0.000000 -0.382697
vn 0.923874 0.000000 -0.382697
vn 0.923874 0.000000 -0.382697
vn 0.923874 0.000000 -0.382697
vn 0.000000 1.000000 0.000000
vn 0.000000 1.000000 0.000000
vn 0.000000 1.000000 0.000000
vn 0.000000 1.000000 0.000000
vn -0.923876 0.000000 0.382691
vn -0.923876 0.000000 0.382691
vn -0.923876 0.000000 0.382691
vn -0.923876 0.000000 0.382691
vn 0.000000 -1.000000 0.000000
vn 0.000000 -1.000000 0.000000
vn 0.000000 -1.000000 0.000000
vn 0.000000 -1.000000 0.000000
vn -0.382678 0.000000 -0.923882
vn -0.382678 0.000000 -0.923882
vn -0.382678 0.000000 -0.923882
vn -0.382678 0.000000 -0.923882
vn 0.000000 1.000000 0.000000
vn 0.000000 1.000000 0.000000
vn 0.000000 1.000000 0.000000
vn 0.000000 1.000000 0.000000
vn 0.382689 0.000000 0.923877
vn 0.382689 0.000000 0.923877
vn 0.382689 0.000000 0.923877
vn 0.382689 0.000000 0.923877
vn 0.000000 -1.000000 0.000000
vn 0.000000 -1.000000 0.000000
vn 0.000000 -1.000000 0.000000
vn 0.000000 -1.000000 0.000000
vn 0.000000 -1.000000 0.000000
vn 0.000000 -1.000000 0.000000
vn 0.000000 -1.000000 0.000000
vn 0.000000 -1.000000 0.000000
vn 0.000000 -1.000000 0.000000
vn 0.000000 -1.000000 0.000000
vn 0.000000 -1.000000 0.000000
vn 0.000000 -1.000000 0.000000
vn 0.000000 -1.000000 0.000000
vn 0.000000 -1.000000 0.000000
vn 0.000000 -1.000000 0.000000
vn 0.000000 -1.000000 0.000000
vn 0.000000 -1.000000 0.000000
vn 0.000000 -1.000000 0.000000
vn 0.000000 -1.000000 0.000000
vn 0.000000 -1.000000 0.000000
vn 0.000000 -1.000000 0.000000
vn 0.000000 -1.000000 0.000000
vn 0.000000 -1.000000 0.000000
vn 0.000000 -1.000000 0.000000
vn 0.000000 -1.000000 0.000000
vn 0.000000 -1.000000 0.000000
vn 0.000000 -1.000000 0.000000
vn 0.000000 -1.000000 0.000000
vn 0.000000 -1.000000 0.000000
vn 0.000000 -1.000000 0.000000
vn 0.000000 -1.000000 0.000000
vn 0.000000 -1.000000 0.000000
vn 0.000000 1.000000 0.000000
vn 0.000000 1.000000 0.000000
vn 0.000000 1.000000 0.000000
vn 0.000000 1.000000 0.000000
vn 0.000000 1.000000 0.000000
vn 0.000000 1.000000 0.000000
vn 0.000000 1.000000 0.000000
vn 0.000000 1.000000 0.000000
vn 0.000000 1.000000 0.000000
vn 0.000000 1.000000 0.000000
vn 0.000000 1.000000 0.000000
vn 0.000000 1.000000 0.000000
vn 0.000000 1.000000 0.000000
vn 0.000000 1.000000 0.000000
vn 0.000000 1.000000 0.000000
vn 0.000000 1.000000 0.000000
vn 0.000000 1.000000 -0.000000
vn 0.000000 1.000000 -0.000000
vn 0.000000 1.000000 -0.000000
vn 0.000000 1.000000 -0.000000
vn 0.000000 1.000000 -0.000000
vn 0.000000 1.000000 -0.000000
vn 0.000000 1.000000 -0.000000
vn 0.000000 1.000000 -0.000000
vn 0.000000 1.000000 0.000000
vn 0.000000 1.000000 0.000000
vn 0.000000 1.000000 0.000000
vn 0.000000 1.000000 0.000000
vn 0.000000 1.000000 0.000000
vn 0.000000 1.000000 0.000000
vn 0.000000 1.000000 0.000000
vn 0.000000 1.000000 0.000000
vn -0.382686 0.000000 0.923878
vn -0.382686 0.000000 0.923878
vn -0.382686 0.000000 0.923878
vn -0.382686 0.000000 0.923878
vn 0.382686 0.000000 0.923878
vn 0.382686 0.000000 0.923878
vn 0.382686 0.000000 0.923878
vn 0.382686 0.000000 0.923878
vn 0.923881 0.000000 0.382680
vn 0.923881 0.000000 0.382680
vn 0.923881 0.000000 0.382680
vn 0.923881 0.000000 0.382680
vn 0.923883 0.000000 -0.382675
vn 0.923883 0.000000 -0.382675
vn 0.923883 0.000000 -0.382675
vn 0.923883 0.000000 -0.382675
vn 0.382686 0.000000 -0.923878
vn 0.382686 0.000000 -0.923878
vn 0.382686 0.000000 -0.923878
vn 0.382686 0.000000 -0.923878
vn -0.382686 0.000000 -0.923878
vn -0.382686 0.000000 -0.923878
vn -0.382686 0.000000 -0.923878
vn -0.382686 0.000000 -0.923878
vn -0.923883 0.000000 -0.382675
vn -0.923883 0.000000 -0.382675
vn -0.923883 0.000000 -0.382675
vn -0.923883 0.000000 -0.382675
vn -0.923881 0.000000 0.382680
vn -0.923881 0.000000 0.382680
vn -0.923881 0.000000 0.382680
vn -0.923881 0.000000 0.382680
s off
f 1/9/1 2/10/2 10/19/3 9/18/4
f 17/35/5 18/36/6 19/37/7 20/38/8
f 3/11/9 4/12/10 12/21/11 11/20/12
f 21/39/13 22/40/14 23/41/15 24/42/16
f 5/13/17 6/14/18 14/23/19 13/22/20
f 25/43/21 26/44/22 27/45/23 28/46/24
f 7/15/25 8/16/26 16/25/27 15/24/28
f 29/47/29 30/48/30 31/49/31 32/50/32
f 2/10/33 3/11/34 18/36/35 17/35/36
f 3/11/37 11/20/38 19/37/39 18/36/40
f 11/20/41 10/19/42 20/38/43 19/37/44
f 10/19/45 2/10/46 17/35/47 20/38/48
f 4/12/49 5/13/50 22/40/51 21/39/52
f 5/13/53 13/22/54 23/41/55 22/40/56
f 13/22/57 12/21/58 24/42/59 23/41/60
f 12/21/61 4/12/62 21/39/63 24/42/64
f 6/14/65 7/15/66 26/44/67 25/43/68
f 7/15/69 15/24/70 27/45/71 26/44/72
f 15/24/73 14/23/74 28/46/75 27/45/76
f 14/23/77 6/14/78 25/43/79 28/46/80
f 8/16/81 1/17/82 30/48/83 29/47/84
f 1/17/85 9/26/86 31/49/87 30/48/88
f 9/26/89 16/25/90 32/50/91 31/49/92
f 16/25/93 8/16/94 29/47/95 32/50/96
f 2/2/97 1/1/98 33/52/99 34/51/100
f 3/3/101 2/2/102 34/51/103 35/53/104
f 4/4/105 3/3/106 35/53/107 36/54/108
f 5/5/109 4/4/110 36/54/111 37/55/112
f 6/6/113 5/5/114 37/55/115 38/56/116
f 7/7/117 6/6/118 38/56/119 39/57/120
f 8/8/121 7/7/122 39/57/123 40/58/124
f 1/1/125 8/8/126 40/58/127 33/52/128
f 9/33/129 10/32/130 42/60/131 41/59/132
f 10/32/133 11/31/134 43/61/135 42/60/136
f 11/31/137 12/30/138 44/62/139 43/61/140
f 12/30/141 13/29/142 45/63/143 44/62/144
f 13/29/145 14/28/146 46/64/147 45/63/148
f 14/28/149 15/27/150 47/65/151 46/64/152
f 15/27/153 16/34/154 48/66/155 47/65/156
f 16/34/157 9/33/158 41/59/159 48/66/160
f 34/51/161 33/52/162 41/68/163 42/67/164
f 35/53/165 34/51/166 42/67/167 43/69/168
f 36/54/169 35/53/170 43/69/171 44/70/172
f 37/55/173 36/54/174 44/70/175 45/71/176
f 38/56/177 37/55/178 45/71/179 46/72/180
f 39/57/181 38/56/182 46/72/183 47/73/184
f 40/58/185 39/57/186 47/73/187 48/74/188
f 33/52/189 40/58/190 48/74/191 41/68/192
