# This file uses meters as units for non-parametric coordinates.

v 21.017647 0.000000 -20.288992
v -20.225096 0.000000 -20.288992
v 4.819202 61.069546 -4.090595
v -4.026700 61.069546 -4.090595
v 4.819202 61.069546 4.755306
v -4.026700 61.069546 4.755306
v 21.017647 0.000000 20.953751
v -20.225096 0.000000 20.953751
v 21.017647 7.183582 -20.288992
v -20.225096 7.183582 -20.288992
v -20.225096 7.183582 20.953751
v 21.017647 7.183582 20.953751
v -6.056691 11.279088 6.785345
v -6.056691 11.279112 -6.120586
v 6.849241 11.279112 -6.120586
v 6.849241 11.279088 6.785345
v 10.634041 61.069546 -9.905529
v -9.841728 61.069546 -9.905529
v -9.841728 61.069546 10.570240
v 10.634041 61.069546 10.570240
v 14.801598 73.806877 -14.073038
v -14.009237 73.806877 -14.073038
v -14.009237 73.806877 14.737415
v 14.801598 73.806877 14.737415
v 20.178843 73.806877 -19.703913
v -19.386482 73.806877 -19.703913
v -19.386482 73.806877 19.482756
v 20.178843 73.806877 19.482756
v 20.178843 82.361282 -19.703913
v -19.386482 82.361282 -19.703913
v -19.386482 82.361282 19.482756
v 20.178843 82.361282 19.482756
v 25.602341 76.859200 -39.239262
v -24.810028 76.859200 -39.239262
v -24.810028 85.105659 -36.964703
v 25.602341 85.105659 -36.964703
v 12.724495 70.790085 36.073925
v -11.932182 70.790085 36.073925
v 12.724495 77.711136 38.990303
v -11.932182 77.711136 38.990303
v 18.030405 87.454338 -17.065287
v -17.238138 87.454338 -17.065287
v -17.238138 87.454338 16.844082
v 18.030405 87.454338 16.844082
v 22.865011 88.943375 -31.723928
v -22.072697 88.943375 -31.723928
v -10.593319 83.014656 36.936470
v 11.385584 83.014656 36.936470
v 21.316147 80.919281 -49.595165
v -20.523884 80.919281 -49.595165
v -20.523884 87.763458 -47.707367
v 21.316147 87.763458 -47.707367
v -18.251991 90.948601 -43.357895
v 19.044304 90.948601 -43.357895
v 6.849241 32.910648 -6.120586
v -6.056691 32.910648 -6.120586
v -6.056691 32.910656 6.785345
v 6.849241 32.910656 6.785345
v -4.026700 34.733459 4.755306
v -4.026700 34.733475 -4.090595
v 4.819202 34.733475 -4.090595
v 4.819202 34.733459 4.755306
v -11.027527 64.693596 -3.454685
v -11.027527 64.693596 4.119205
v -13.054133 70.887817 5.660725
v -13.054133 70.887817 -4.996252
v -14.725925 66.613625 -1.655530
v -14.725925 66.613625 2.320004
v -15.789701 68.967781 3.129148
v -15.789701 68.967781 -2.464676
v -26.942923 66.613625 -1.655530
v -26.942923 66.613625 2.320004
v -26.942923 68.967781 3.129148
v -26.942923 68.967781 -2.464676
v -28.546047 65.903351 -2.855015
v -28.546047 65.903351 3.519487
v -28.546047 69.678062 4.816914
v -28.546047 69.678062 -4.152441
v -37.180710 65.903351 -2.855015
v -37.180710 65.903351 3.519487
v -37.180710 69.678062 4.816914
v -37.180710 69.678062 -4.152441
vt 0.244570 0.301600
vt 0.244570 0.301600
vt 0.244570 0.301600
vt 0.244570 0.301600
vt 0.244570 0.301600
vt 0.244570 0.301600
vt 0.244570 0.301600
vt 0.244570 0.301600
vt 0.244570 0.301600
vt 0.244570 0.301600
vt 0.244570 0.301600
vt 0.271095 0.300983
vt 0.244570 0.301600
vt 0.271095 0.300983
vt 0.244570 0.301600
vt 0.244570 0.301600
vt 0.244570 0.301600
vt 0.244570 0.301600
vt 0.244570 0.301600
vt 0.244570 0.301600
vt 0.244570 0.301600
vt 0.244570 0.301600
vt 0.244570 0.301600
vt 0.244570 0.301600
vt 0.244570 0.301600
vt 0.244570 0.301600
vt 0.244570 0.301600
vt 0.244570 0.301600
vt 0.244570 0.301600
vt 0.244570 0.301600
vt 0.244570 0.301600
vt 0.244570 0.301600
vt 0.244570 0.301600
vt 0.244570 0.301600
vt 0.037310 0.327266
vt 0.037310 0.327266
vt 0.037310 0.327266
vt 0.037310 0.327266
vt 0.037310 0.327266
vt 0.037310 0.327266
vt 0.037310 0.327266
vt 0.037310 0.327266
vt 0.037310 0.327266
vt 0.037310 0.327266
vt 0.037310 0.327266
vt 0.037310 0.327266
vt 0.037310 0.327266
vt 0.037310 0.327266
vt 0.037310 0.327266
vt 0.037310 0.327266
vt 0.037310 0.327266
vt 0.037310 0.327266
vt 0.037310 0.327266
vt 0.037310 0.327266
vt 0.037310 0.327266
vt 0.037310 0.327266
vt 0.037310 0.327266
vt 0.037310 0.327266
vt 0.037310 0.327266
vt 0.037310 0.327266
vt 0.037310 0.327266
vt 0.037310 0.327266
vt 0.037310 0.327266
vt 0.037310 0.327266
vt 0.244570 0.301600
vt 0.244570 0.301600
vt 0.244570 0.301600
vt 0.244570 0.301600
vt 0.244570 0.301600
vt 0.244570 0.301600
vt 0.244570 0.301600
vt 0.244570 0.301600
vt 0.244570 0.301600
vt 0.244570 0.301600
vt 0.244570 0.301600
vt 0.244570 0.301600
vt 0.271095 0.300983
vt 0.271095 0.300983
vt 0.271095 0.300983
vt 0.271095 0.300983
vt 0.271095 0.300983
vt 0.271095 0.300983
vt 0.037310 0.327266
vt 0.037310 0.327266
vt 0.037310 0.327266
vt 0.037310 0.327266
vt 0.244570 0.301600
vt 0.244570 0.301600
vt 0.244570 0.301600
vt 0.244570 0.301600
vt 0.244570 0.301600
vt 0.244570 0.301600
vt 0.244570 0.301600
vt 0.244570 0.301600
vt 0.244570 0.301600
vt 0.244570 0.301600
vt 0.244570 0.301600
vt 0.244570 0.301600
vt 0.244570 0.301600
vt 0.244570 0.301600
vt 0.244570 0.301600
vt 0.244570 0.301600
vt 0.244570 0.301600
vt 0.244570 0.301600
vt 0.244570 0.301600
vt 0.244570 0.301600
vn 0.000000 0.960670 -0.277692
vn 0.000000 0.960670 -0.277692
vn 0.000000 0.960670 -0.277692
vn 0.000000 0.960670 -0.277692
vn 0.000000 0.999289 0.037697
vn 0.000000 0.999289 0.037697
vn 0.000000 0.998117 0.061338
vn 0.000000 0.998117 0.061338
vn 0.000000 0.960671 0.277690
vn 0.000000 0.960671 0.277690
vn 0.000000 0.960671 0.277690
vn 0.000000 0.960671 0.277690
vn 0.000000 -1.000000 0.000000
vn 0.000000 -1.000000 0.000000
vn 0.000000 -1.000000 0.000000
vn 0.000000 -1.000000 0.000000
vn -0.277691 0.960670 0.000000
vn -0.277691 0.960670 0.000000
vn -0.277691 0.960670 0.000000
vn -0.277691 0.960670 0.000000
vn 0.277691 0.960670 0.000000
vn 0.277691 0.960670 0.000000
vn 0.277691 0.960670 0.000000
vn 0.277691 0.960670 0.000000
vn 0.000000 0.000000 -1.000000
vn 0.000000 0.000000 -1.000000
vn 0.000000 0.000000 -1.000000
vn 0.000000 0.000000 -1.000000
vn -1.000000 0.000000 0.000000
vn -1.000000 0.000000 0.000000
vn -1.000000 0.000000 0.000000
vn -1.000000 0.000000 0.000000
vn 0.000000 0.000000 1.000000
vn 0.000000 0.000000 1.000000
vn 0.000000 0.000000 1.000000
vn 0.000000 0.000000 1.000000
vn 1.000000 0.000000 0.000000
vn 1.000000 0.000000 0.000000
vn 1.000000 0.000000 0.000000
vn 1.000000 0.000000 0.000000
vn -0.998990 0.044939 0.000000
vn -0.998990 0.044938 0.000000
vn -0.992982 0.118265 0.000000
vn -0.992982 0.118264 0.000000
vn 0.000000 0.044938 -0.998990
vn 0.000000 0.044939 -0.998990
vn 0.000000 0.118264 -0.992982
vn 0.000000 0.118265 -0.992982
vn 0.998990 0.044939 0.000000
vn 0.998990 0.044940 0.000000
vn 0.992982 0.118266 0.000000
vn 0.992982 0.118267 0.000000
vn 0.000000 0.118267 0.992982
vn 0.000000 0.118267 0.992982
vn 0.000000 0.044940 0.998990
vn 0.000000 0.044939 0.998990
vn 0.000000 -1.000000 -0.000000
vn 0.000000 -1.000000 -0.000000
vn 0.000000 -1.000000 -0.000000
vn 0.000000 -1.000000 -0.000000
vn 0.000000 -1.000000 0.000000
vn 0.000000 -1.000000 0.000000
vn 0.000000 -1.000000 0.000000
vn 0.000000 -1.000000 0.000000
vn 0.000000 -1.000000 0.000001
vn 0.000000 -1.000000 0.000001
vn 0.000000 -1.000000 0.000001
vn 0.000000 -1.000000 0.000001
vn 0.000000 -1.000000 0.000000
vn 0.000000 -1.000000 0.000000
vn 0.000000 -1.000000 0.000000
vn 0.000000 -1.000000 0.000000
vn 0.000000 -0.310967 -0.950421
vn 0.000000 -0.310967 -0.950421
vn 0.000000 -0.310967 -0.950421
vn 0.000000 -0.310967 -0.950421
vn -1.000000 -0.000001 0.000000
vn -1.000000 -0.000001 0.000000
vn -1.000000 -0.000001 0.000000
vn -1.000000 -0.000001 0.000000
vn 0.000000 -0.310944 0.950428
vn 0.000000 -0.310944 0.950428
vn 0.000000 -0.310944 0.950428
vn 0.000000 -0.310944 0.950428
vn 0.950420 -0.310970 0.000000
vn 0.950420 -0.310970 0.000000
vn 0.950420 -0.310970 0.000000
vn 0.950420 -0.310970 0.000000
vn 0.000000 -1.000000 0.000001
vn 0.000000 -1.000000 0.000001
vn 0.000000 -0.989996 -0.141093
vn 0.000000 -0.989996 -0.141093
vn 0.000000 -1.000000 0.000000
vn 0.000000 -1.000000 0.000000
vn 0.000000 -1.000000 0.000000
vn 0.000000 -1.000000 0.000000
vn 0.000000 -1.000000 -0.000001
vn 0.000000 -1.000000 -0.000001
vn 0.000000 -0.988540 -0.150959
vn 0.000000 -0.988540 -0.150959
vn 0.000000 -1.000000 0.000000
vn 0.000000 -1.000000 0.000000
vn 0.000000 -1.000000 0.000000
vn 0.000000 -1.000000 0.000000
vn 0.000000 0.265896 -0.964002
vn 0.000000 0.265896 -0.964002
vn 0.000000 0.265896 -0.964002
vn 0.000000 0.265896 -0.964002
vn -0.996235 -0.011631 0.085913
vn -0.991553 -0.024020 0.127457
vn -0.994031 -0.020203 0.107207
vn -0.995122 -0.013236 0.097763
vn 0.000000 -0.388312 0.921528
vn 0.000000 -0.388312 0.921528
vn 0.000000 -0.388312 0.921528
vn 0.000000 -0.388312 0.921528
vn 0.991553 -0.024020 0.127458
vn 0.996235 -0.011631 0.085912
vn 0.995122 -0.013235 0.097763
vn 0.994031 -0.020204 0.107208
vn 0.000000 -0.989996 -0.141093
vn 0.000000 -0.989996 -0.141093
vn 0.000000 -0.988013 -0.154373
vn 0.000000 -0.988013 -0.154373
vn -0.996235 -0.011631 0.085913
vn -0.995122 -0.013236 0.097763
vn -0.960103 -0.037517 0.277118
vn -0.960103 -0.037517 0.277118
vn 0.000000 0.999289 0.037697
vn 0.000000 0.999289 0.037697
vn 0.000000 0.994880 0.101060
vn 0.000000 0.994880 0.101060
vn 0.995122 -0.013235 0.097763
vn 0.996235 -0.011631 0.085912
vn 0.960104 -0.037517 0.277115
vn 0.960104 -0.037517 0.277115
vn 0.000000 -0.988540 -0.150959
vn 0.000000 -0.988540 -0.150959
vn 0.000000 -0.983868 -0.178898
vn 0.000000 -0.983868 -0.178898
vn 0.991553 -0.024020 0.127458
vn 0.994031 -0.020204 0.107208
vn 0.927162 -0.069384 0.368180
vn 0.927162 -0.069384 0.368180
vn 0.000000 0.998117 0.061338
vn 0.000000 0.998117 0.061338
vn 0.000000 0.976447 0.215759
vn 0.000000 0.976447 0.215759
vn -0.994031 -0.020203 0.107207
vn -0.991553 -0.024020 0.127457
vn -0.927163 -0.069384 0.368178
vn -0.927163 -0.069384 0.368178
vn -0.921383 0.388656 0.000000
vn -0.921383 0.388656 0.000000
vn -0.921383 0.388656 0.000000
vn -0.921383 0.388656 0.000000
vn 0.921377 0.388670 0.000000
vn 0.921377 0.388671 0.000000
vn 0.921377 0.388670 0.000000
vn 0.921377 0.388671 0.000000
vn 0.920562 0.217182 0.324650
vn 0.920562 0.217182 0.324650
vn 0.920562 0.217182 0.324650
vn 0.920562 0.217182 0.324650
vn 0.000000 0.806800 -0.590824
vn 0.000000 0.806800 -0.590824
vn 0.000000 0.806800 -0.590824
vn 0.000000 0.806800 -0.590824
vn -0.920564 0.217174 0.324649
vn -0.920564 0.217174 0.324649
vn -0.920564 0.217174 0.324649
vn -0.920564 0.217174 0.324649
vn -0.805906 0.446035 0.389317
vn -0.805906 0.446035 0.389317
vn -0.805906 0.446035 0.389317
vn -0.805906 0.446035 0.389317
vn 0.000000 0.361125 0.932517
vn 0.000000 0.361125 0.932517
vn 0.000000 0.361125 0.932517
vn 0.000000 0.361125 0.932517
vn 0.805900 0.446044 0.389318
vn 0.805900 0.446044 0.389319
vn 0.805900 0.446044 0.389319
vn 0.805900 0.446044 0.389318
vn 0.000000 -0.931006 -0.365005
vn 0.000000 -0.931005 -0.365005
vn 0.000000 -0.931005 -0.365005
vn 0.000000 -0.931006 -0.365005
vn -0.932460 0.096061 -0.348269
vn -0.932459 0.096061 -0.348269
vn -0.932459 0.096061 -0.348269
vn -0.932459 0.096061 -0.348269
vn 0.932458 0.096062 -0.348273
vn 0.932458 0.096062 -0.348273
vn 0.932458 0.096062 -0.348273
vn 0.932458 0.096062 -0.348273
vn -0.723193 0.680091 -0.120283
vn -0.723193 0.680091 -0.120283
vn -0.723193 0.680091 -0.120283
vn -0.723193 0.680091 -0.120283
vn 0.000000 0.985469 0.169856
vn 0.000000 0.985469 0.169856
vn 0.000000 0.985469 0.169856
vn 0.000000 0.985469 0.169855
vn 0.723194 0.680089 -0.120286
vn 0.723194 0.680090 -0.120286
vn 0.723194 0.680090 -0.120286
vn 0.723194 0.680089 -0.120286
vn 0.000000 0.000000 -1.000000
vn 0.000000 0.000000 -1.000000
vn 0.000000 0.044939 -0.998990
vn 0.000000 0.044938 -0.998990
vn -1.000000 0.000000 0.000000
vn -1.000000 0.000000 0.000000
vn -0.998990 0.044938 0.000000
vn -0.998990 0.044939 0.000000
vn 0.000000 0.044939 0.998990
vn 0.000000 0.044940 0.998990
vn 0.000000 0.000000 1.000000
vn 0.000000 0.000000 1.000000
vn 1.000000 0.000000 0.000000
vn 1.000000 0.000000 0.000000
vn 0.998990 0.044940 0.000000
vn 0.998990 0.044939 0.000000
vn -0.992982 0.118264 0.000000
vn -0.992982 0.118265 0.000000
vn -1.000000 0.000000 0.000000
vn -1.000000 0.000000 0.000000
vn 0.000000 0.118265 -0.992982
vn 0.000000 0.118264 -0.992982
vn 0.000000 0.000000 -1.000000
vn 0.000000 0.000000 -1.000000
vn 0.992982 0.118267 0.000000
vn 0.992982 0.118266 0.000000
vn 1.000000 0.000000 0.000000
vn 1.000000 0.000000 0.000000
vn 0.000000 0.000000 1.000000
vn 0.000000 0.000000 1.000000
vn 0.000000 0.118267 0.992982
vn 0.000000 0.118267 0.992982
vn -0.950421 -0.310967 -0.000001
vn -0.950421 -0.310967 0.000001
vn -0.950419 -0.310971 0.000001
vn -0.950419 -0.310971 -0.000001
vn -0.950421 -0.310967 0.000001
vn -0.950421 -0.310966 0.000001
vn -0.950420 -0.310969 0.000001
vn -0.950419 -0.310971 0.000001
vn -0.950421 -0.310966 0.000001
vn -0.950421 -0.310966 -0.000001
vn -0.950420 -0.310969 -0.000001
vn -0.950420 -0.310969 0.000001
vn -0.950421 -0.310966 -0.000001
vn -0.950421 -0.310967 -0.000001
vn -0.950419 -0.310971 -0.000001
vn -0.950420 -0.310969 -0.000001
vn -0.460760 -0.887525 0.000000
vn -0.460760 -0.887525 0.000000
vn -0.460760 -0.887525 0.000000
vn -0.460760 -0.887525 0.000000
vn -0.512983 -0.395019 0.762108
vn -0.512983 -0.395019 0.762108
vn -0.512983 -0.395019 0.762108
vn -0.512983 -0.395019 0.762108
vn -0.574494 0.818509 0.000000
vn -0.574494 0.818509 0.000000
vn -0.574494 0.818509 0.000000
vn -0.574494 0.818509 0.000000
vn -0.512979 -0.395022 -0.762109
vn -0.512979 -0.395022 -0.762109
vn -0.512979 -0.395022 -0.762109
vn -0.512978 -0.395022 -0.762109
vn 0.000000 -1.000000 0.000000
vn 0.000000 -1.000000 0.000000
vn 0.000000 -1.000000 0.000000
vn 0.000000 -1.000000 0.000000
vn 0.000000 -0.325045 0.945698
vn 0.000000 -0.325045 0.945698
vn 0.000000 -0.325045 0.945698
vn 0.000000 -0.325045 0.945698
vn 0.000000 1.000000 0.000000
vn 0.000000 1.000000 0.000000
vn 0.000000 1.000000 0.000000
vn 0.000000 1.000000 0.000000
vn 0.000000 -0.325046 -0.945698
vn 0.000000 -0.325046 -0.945698
vn 0.000000 -0.325046 -0.945698
vn 0.000000 -0.325046 -0.945698
vn 0.405078 -0.914282 0.000000
vn 0.405078 -0.914282 0.000000
vn 0.405078 -0.914282 0.000000
vn 0.405078 -0.914282 0.000000
vn 0.648357 -0.247471 0.719994
vn 0.648357 -0.247471 0.719994
vn 0.648357 -0.247471 0.719994
vn 0.648357 -0.247471 0.719994
vn 0.405081 0.914281 0.000000
vn 0.405081 0.914281 0.000000
vn 0.405081 0.914281 0.000000
vn 0.405081 0.914281 0.000000
vn 0.648357 -0.247471 -0.719994
vn 0.648357 -0.247471 -0.719994
vn 0.648357 -0.247471 -0.719994
vn 0.648357 -0.247471 -0.719994
vn 0.000000 -1.000000 0.000000
vn 0.000000 -1.000000 0.000000
vn 0.000000 -1.000000 0.000000
vn 0.000000 -1.000000 0.000000
vn 0.000000 -0.325051 0.945697
vn 0.000000 -0.325051 0.945697
vn 0.000000 -0.325051 0.945697
vn 0.000000 -0.325051 0.945697
vn 0.000000 1.000000 0.000000
vn 0.000000 1.000000 0.000000
vn 0.000000 1.000000 0.000000
vn 0.000000 1.000000 0.000000
vn 0.000000 -0.325051 -0.945697
vn 0.000000 -0.325051 -0.945697
vn 0.000000 -0.325051 -0.945697
vn 0.000000 -0.325051 -0.945697
s off
f 9/15/1 10/16/2 14/23/3 15/24/4
f 41/35/5 42/36/6 43/37/7 44/38/8
f 16/26/9 13/21/10 11/17/11 12/20/12
f 7/7/13 8/8/14 2/10/15 1/9/16
f 10/16/17 11/18/18 13/22/19 14/23/20
f 12/19/21 9/15/22 15/24/23 16/25/24
f 1/1/25 2/2/26 10/16/27 9/15/28
f 2/2/29 8/11/30 11/18/31 10/16/32
f 12/20/33 11/17/34 8/8/35 7/7/36
f 7/13/37 1/1/38 9/15/39 12/19/40
f 56/66/41 57/68/42 59/72/43 60/73/44
f 55/65/45 56/66/46 60/73/47 61/74/48
f 58/69/49 55/65/50 61/74/51 62/75/52
f 62/76/53 59/71/54 57/67/55 58/70/56
f 3/3/57 4/4/58 18/28/59 17/27/60
f 4/4/61 6/6/62 19/29/63 18/28/64
f 6/6/65 5/5/66 20/30/67 19/29/68
f 5/5/69 3/3/70 17/27/71 20/30/72
f 17/27/73 18/28/74 22/32/75 21/31/76
f 79/103/77 80/104/78 81/105/79 82/106/80
f 19/29/81 20/30/82 24/34/83 23/33/84
f 20/30/85 17/27/86 21/31/87 24/34/88
f 21/39/89 22/40/90 26/41/91 25/42/92
f 22/40/93 23/43/94 27/44/95 26/41/96
f 23/43/97 24/45/98 28/46/99 27/44/100
f 24/45/101 21/39/102 25/42/103 28/46/104
f 49/47/105 50/48/106 51/49/107 52/50/108
f 26/41/109 27/44/110 31/51/111 30/52/112
f 38/53/113 37/54/114 39/55/115 40/56/116
f 28/46/117 25/42/118 29/57/119 32/58/120
f 25/42/121 26/41/122 34/59/123 33/60/124
f 26/41/125 30/52/126 35/61/127 34/59/128
f 42/36/129 41/35/130 45/62/131 46/63/132
f 29/57/133 25/42/134 33/60/135 36/64/136
f 27/44/137 28/46/138 37/54/139 38/53/140
f 28/46/141 32/58/142 39/55/143 37/54/144
f 44/38/145 43/37/146 47/83/147 48/84/148
f 31/51/149 27/44/150 38/53/151 40/56/152
f 30/52/153 31/51/154 43/37/155 42/36/156
f 32/58/157 29/57/158 41/35/159 44/38/160
f 29/57/161 36/64/162 45/62/163 41/35/164
f 52/50/165 51/49/166 53/85/167 54/86/168
f 35/61/169 30/52/170 42/36/171 46/63/172
f 31/51/173 40/56/174 47/83/175 43/37/176
f 40/56/177 39/55/178 48/84/179 47/83/180
f 39/55/181 32/58/182 44/38/183 48/84/184
f 33/60/185 34/59/186 50/48/187 49/47/188
f 34/59/189 35/61/190 51/49/191 50/48/192
f 36/64/193 33/60/194 49/47/195 52/50/196
f 35/61/197 46/63/198 53/85/199 51/49/200
f 46/63/201 45/62/202 54/86/203 53/85/204
f 45/62/205 36/64/206 52/50/207 54/86/208
f 15/24/209 14/23/210 56/66/211 55/65/212
f 14/23/213 13/22/214 57/68/215 56/66/216
f 58/70/217 57/67/218 13/21/219 16/26/220
f 16/25/221 15/24/222 55/65/223 58/69/224
f 60/12/225 59/14/226 6/77/227 4/78/228
f 61/79/229 60/12/230 4/78/231 3/80/232
f 62/81/233 61/79/234 3/80/235 5/82/236
f 5/82/237 6/77/238 59/14/239 62/81/240
f 18/28/241 19/29/242 64/88/243 63/87/244
f 19/29/245 23/33/246 65/89/247 64/88/248
f 23/33/249 22/32/250 66/90/251 65/89/252
f 22/32/253 18/28/254 63/87/255 66/90/256
f 63/87/257 64/88/258 68/92/259 67/91/260
f 64/88/261 65/89/262 69/93/263 68/92/264
f 65/89/265 66/90/266 70/94/267 69/93/268
f 66/90/269 63/87/270 67/91/271 70/94/272
f 67/91/273 68/92/274 72/96/275 71/95/276
f 68/92/277 69/93/278 73/97/279 72/96/280
f 69/93/281 70/94/282 74/98/283 73/97/284
f 70/94/285 67/91/286 71/95/287 74/98/288
f 71/95/289 72/96/290 76/100/291 75/99/292
f 72/96/293 73/97/294 77/101/295 76/100/296
f 73/97/297 74/98/298 78/102/299 77/101/300
f 74/98/301 71/95/302 75/99/303 78/102/304
f 75/99/305 76/100/306 80/104/307 79/103/308
f 76/100/309 77/101/310 81/105/311 80/104/312
f 77/101/313 78/102/314 82/106/315 81/105/316
f 78/102/317 75/99/318 79/103/319 82/106/320
