# This file uses meters as units for non-parametric coordinates.

v 2.566528 0.000000 -9.734726
v -15.620422 0.000000 -4.812241
v 0.524902 10.977962 -1.726913
v -8.116150 10.977962 0.612259
v 0.524902 10.977962 12.768936
v -8.116150 10.977962 10.430527
v 2.566528 0.000000 20.776749
v -15.620422 0.000000 15.854263
v 5.470276 10.977962 6.660080
v 12.974548 0.000000 7.918167
v 35.023499 0.000000 7.571793
v 24.150085 0.000000 10.515213
v 33.802795 5.453752 12.360001
v 28.636169 5.453752 13.757706
v 33.802795 5.453752 21.026230
v 28.636169 5.453752 19.627762
v 35.023499 0.000000 25.813675
v 24.150085 0.000000 22.870255
v 36.759949 5.453752 17.374039
v 41.246033 0.000000 18.125534
v -22.515488 0.000000 7.014465
v -31.661606 0.000000 0.437164
v -27.001572 5.453752 9.088898
v -31.344223 5.453752 5.963898
v -33.723068 5.453752 14.558411
v -35.898972 5.453752 9.668732
v -36.666489 0.000000 18.526459
v -41.245651 0.000000 8.234406
v -29.024887 5.453752 14.546967
v -26.775742 0.000000 18.502045
v 21.021271 0.000000 -10.646439
v 26.045227 0.000000 -18.301010
v 19.181061 3.916422 -14.216232
v 21.567913 3.916422 -17.852783
v 14.506531 3.916422 -19.485474
v 18.401714 3.916422 -21.422195
v 11.181641 0.000000 -21.738052
v 19.380573 0.000000 -25.813675
v 14.678574 3.916422 -15.670013
v 11.544800 0.000000 -13.707352
vt 0.433734 0.476507
vt 0.433734 0.476507
vt 0.433734 0.476507
vt 0.433734 0.476507
vt 0.433734 0.476507
vt 0.433734 0.476507
vt 0.433734 0.476507
vt 0.433734 0.476507
vt 0.433734 0.476507
vt 0.433734 0.476507
vt 0.433734 0.476507
vt 0.433734 0.476507
vt 0.433734 0.476507
vt 0.433734 0.476507
vt 0.433734 0.476507
vt 0.433734 0.476507
vt 0.433734 0.476507
vt 0.433734 0.476507
vt 0.433734 0.476507
vt 0.433734 0.476507
vt 0.433734 0.476507
vt 0.433734 0.476507
vt 0.433734 0.476507
vt 0.433734 0.476507
vt 0.433734 0.476507
vt 0.433734 0.476507
vt 0.433734 0.476507
vt 0.433734 0.476507
vt 0.433734 0.476507
vt 0.433734 0.476507
vt 0.433734 0.476507
vt 0.433734 0.476507
vt 0.433734 0.476507
vt 0.433734 0.476507
vt 0.433734 0.476507
vt 0.433734 0.476507
vt 0.433734 0.476507
vt 0.433734 0.476507
vt 0.433734 0.476507
vt 0.433734 0.476507
vt 0.433734 0.476507
vt 0.433734 0.476507
vt 0.433734 0.476507
vt 0.433734 0.476507
vt 0.433734 0.476507
vt 0.433734 0.476507
vt 0.433734 0.476507
vt 0.433734 0.476507
vt 0.433734 0.476507
vt 0.433734 0.476507
vt 0.433734 0.476507
vt 0.433734 0.476507
vt 0.433734 0.476507
vt 0.433734 0.476507
vt 0.433734 0.476507
vt 0.433734 0.476507
vt 0.433734 0.476507
vt 0.433734 0.476507
vt 0.433734 0.476507
vt 0.433734 0.476507
vn -0.218508 0.548241 -0.807271
vn -0.218508 0.548241 -0.807271
vn -0.218508 0.548241 -0.807271
vn -0.218508 0.548241 -0.807271
vn 0.000000 1.000000 -0.000000
vn 0.000000 1.000000 -0.000000
vn 0.000000 1.000000 -0.000000
vn 0.000000 1.000000 -0.000000
vn -0.218490 0.548220 0.807290
vn -0.218490 0.548220 0.807290
vn -0.218490 0.548220 0.807290
vn -0.218490 0.548220 0.807290
vn -0.825551 0.564327 0.000000
vn -0.825551 0.564327 0.000000
vn -0.825551 0.564327 0.000000
vn -0.825551 0.564327 0.000000
vn 0.760915 0.468750 -0.448644
vn 0.760915 0.468750 -0.448644
vn 0.760915 0.468750 -0.448644
vn 0.760915 0.468750 -0.448644
vn 0.665484 0.516673 0.538683
vn 0.665484 0.516673 0.538683
vn 0.665484 0.516673 0.538683
vn 0.665484 0.516673 0.538683
vn 0.000000 1.000000 0.000000
vn 0.000000 1.000000 0.000000
vn 0.000000 1.000000 0.000000
vn -0.205104 0.619365 -0.757839
vn -0.205104 0.619365 -0.757839
vn -0.205104 0.619365 -0.757839
vn -0.205104 0.619365 -0.757839
vn 0.000000 1.000000 0.000000
vn 0.000000 1.000000 0.000000
vn 0.000000 1.000000 0.000000
vn 0.000000 1.000000 0.000000
vn -0.205144 0.619334 0.757853
vn -0.205144 0.619334 0.757853
vn -0.205144 0.619334 0.757853
vn -0.205144 0.619334 0.757853
vn -0.772294 0.635265 0.000000
vn -0.772294 0.635265 0.000000
vn -0.772294 0.635265 0.000000
vn -0.772294 0.635265 0.000000
vn 0.725972 0.538252 -0.428076
vn 0.725972 0.538252 -0.428076
vn 0.725972 0.538252 -0.428076
vn 0.725972 0.538252 -0.428076
vn 0.628933 0.587585 0.509104
vn 0.628933 0.587585 0.509104
vn 0.628933 0.587585 0.509104
vn 0.628933 0.587585 0.509104
vn 0.000000 1.000000 0.000000
vn 0.000000 1.000000 0.000000
vn 0.000000 1.000000 0.000000
vn 0.458440 0.619365 -0.637353
vn 0.458440 0.619365 -0.637353
vn 0.458440 0.619365 -0.637353
vn 0.458440 0.619365 -0.637353
vn 0.000000 1.000000 0.000000
vn 0.000000 1.000000 0.000000
vn 0.000000 1.000000 0.000000
vn 0.000000 1.000000 0.000000
vn -0.717325 0.619334 0.319171
vn -0.717325 0.619334 0.319171
vn -0.717325 0.619334 0.319171
vn -0.717325 0.619334 0.319171
vn -0.487321 0.635355 -0.599034
vn -0.487322 0.635355 -0.599034
vn -0.487322 0.635355 -0.599034
vn -0.487321 0.635355 -0.599034
vn 0.790118 0.538402 0.292981
vn 0.790118 0.538402 0.292981
vn 0.790118 0.538402 0.292981
vn 0.790118 0.538402 0.292981
vn 0.001989 0.587622 0.809133
vn 0.001989 0.587622 0.809134
vn 0.001989 0.587622 0.809134
vn 0.001989 0.587622 0.809133
vn 0.000000 1.000000 -0.000000
vn 0.000000 1.000000 -0.000000
vn 0.000000 1.000000 -0.000000
vn 0.623584 0.666056 0.409283
vn 0.623584 0.666056 0.409283
vn 0.623584 0.666056 0.409283
vn 0.623584 0.666056 0.409283
vn 0.000000 1.000000 0.000000
vn 0.000000 1.000000 0.000000
vn 0.000000 1.000000 0.000000
vn 0.000000 1.000000 0.000000
vn -0.332055 0.666025 -0.667944
vn -0.332055 0.666025 -0.667944
vn -0.332055 0.666025 -0.667944
vn -0.332055 0.666025 -0.667944
vn 0.547488 0.681452 -0.485674
vn 0.547488 0.681452 -0.485674
vn 0.547488 0.681452 -0.485674
vn 0.547488 0.681452 -0.485674
vn -0.249070 0.585844 0.771201
vn -0.249070 0.585844 0.771201
vn -0.249070 0.585844 0.771201
vn -0.249070 0.585844 0.771201
vn -0.771703 0.635026 0.034865
vn -0.771703 0.635027 0.034865
vn -0.771703 0.635027 0.034865
vn -0.771703 0.635027 0.034865
vn 0.000000 1.000000 0.000000
vn 0.000000 1.000000 0.000000
vn 0.000000 1.000000 0.000000
s off
f 1/1/1 2/2/2 4/3/3 3/4/4
f 3/4/5 4/3/6 6/5/7 9/6/8
f 5/7/9 6/5/10 8/8/11 7/9/12
f 2/2/13 8/10/14 6/11/15 4/3/16
f 10/12/17 1/1/18 3/4/19 9/13/20
f 7/14/21 10/12/22 9/13/23 5/15/24
f 9/6/25 6/5/26 5/7/27
f 11/16/28 12/17/29 14/18/30 13/19/31
f 13/19/32 14/18/33 16/20/34 19/21/35
f 15/22/36 16/20/37 18/23/38 17/24/39
f 12/17/40 18/25/41 16/26/42 14/18/43
f 20/27/44 11/16/45 13/19/46 19/28/47
f 17/29/48 20/27/49 19/28/50 15/30/51
f 19/21/52 16/20/53 15/22/54
f 21/31/55 22/32/56 24/33/57 23/34/58
f 23/34/59 24/33/60 26/35/61 29/36/62
f 25/37/63 26/35/64 28/38/65 27/39/66
f 22/32/67 28/40/68 26/41/69 24/33/70
f 30/42/71 21/31/72 23/34/73 29/43/74
f 27/44/75 30/42/76 29/43/77 25/45/78
f 29/36/79 26/35/80 25/37/81
f 31/46/82 32/47/83 34/48/84 33/49/85
f 33/49/86 34/48/87 36/50/88 39/51/89
f 35/52/90 36/50/91 38/53/92 37/54/93
f 32/47/94 38/55/95 36/56/96 34/48/97
f 40/57/98 31/46/99 33/49/100 39/58/101
f 37/59/102 40/57/103 39/58/104 35/60/105
f 39/51/106 36/50/107 35/52/108
