# This file uses meters as units for non-parametric coordinates.

v -11.931550 -0.000000 16.161472
v 10.713272 0.007992 15.030190
v -11.931550 2.292166 -16.161472
v 11.931550 0.000000 -16.161472
v -4.948825 -0.000000 16.161472
v 11.931550 -0.000000 0.077736
v 5.162873 2.437273 14.990117
v 11.715159 2.437273 7.887892
v 3.135587 0.000000 -16.161472
v -11.931550 0.000000 -7.022192
vt 0.844511 0.422983
vt 0.920196 0.422983
vt 0.844511 0.523143
vt 0.920196 0.523143
vt 0.866657 0.422983
vt 0.920196 0.472822
vt 0.899414 0.422983
vt 0.920196 0.444991
vt 0.892298 0.523143
vt 0.844511 0.494823
vn -0.000000 1.000000 0.000000
vn -0.000000 1.000000 0.000000
vn -0.000000 1.000000 0.000000
vn -0.000000 1.000000 0.000000
vn -0.000000 1.000000 0.000000
vn -0.000000 1.000000 0.000000
vn -0.270913 0.922844 -0.273796
vn -0.270913 0.922844 -0.273796
vn -0.270913 0.922844 -0.273796
vn -0.270913 0.922844 -0.273796
vn 0.374210 0.860686 0.345234
vn 0.374210 0.860686 0.345234
vn 0.374210 0.860686 0.345234
vn 0.145979 0.959568 0.240663
vn 0.145979 0.959568 0.240663
vn 0.145979 0.959568 0.240663
s off
f 1/1/1 5/5/2 6/6/3 4/4/4 9/9/5 10/10/6
f 6/6/7 5/5/8 7/7/9 8/8/10
f 8/8/11 7/7/12 2/2/13
f 10/10/14 9/9/15 3/3/16
