# This file uses meters as units for non-parametric coordinates.

v 22.807693 55.062832 0.000000
v -22.807690 55.062878 0.000000
v -55.062866 22.807802 0.000000
v -55.062866 -22.807835 0.000000
v -22.807690 -55.062889 0.000000
v 22.807693 -55.062901 0.000000
v 55.062866 -22.807835 0.000000
v 55.062866 22.807802 0.000000
v 22.807693 55.062832 24.314022
v -20.185471 48.892284 24.314022
v -55.062866 22.807802 24.314022
v -55.062866 -22.807835 24.314022
v -22.807690 -55.062889 24.314022
v 22.807693 -55.062901 24.314022
v 50.272369 -20.823586 24.314022
v 55.062866 22.807802 24.314022
v 18.433380 44.502125 0.000000
v -18.433380 44.502148 0.000000
v -44.502258 18.433392 0.000000
v -44.502258 -18.433439 0.000000
v -18.433380 -44.502174 0.000000
v 18.433380 -44.502174 0.000000
v 44.502258 -18.433439 0.000000
v 44.502258 18.433392 0.000000
v 18.433380 44.502125 24.314022
v -18.433380 44.502148 24.314022
v -44.502258 18.433392 24.314022
v -44.502258 -18.433439 24.314022
v -20.172882 -48.701847 24.314022
v 18.433380 -44.502174 24.314022
v 44.502258 -18.433439 24.314022
v 44.502258 18.433392 24.314022
v 18.433380 44.502125 12.026787
v -18.433380 44.502148 12.026787
v 0.000000 -0.000024 12.026787
v -44.502258 18.433392 12.026787
v -44.502258 -18.433439 12.026787
v -18.433380 -44.502174 12.026787
v 18.433380 -44.502174 12.026787
v 44.502258 -18.433439 12.026787
v 44.502258 18.433392 12.026787
v 18.433380 44.502125 17.324829
v -18.433380 44.502148 17.324829
v 0.000000 -0.000024 17.324829
v -44.502258 18.433392 17.324829
v -44.502258 -18.433439 17.324829
v -18.433380 -44.502174 17.324829
v 18.433380 -44.502174 17.324829
v 44.502258 -18.433439 17.324829
v 44.502258 18.433392 17.324829
v -22.807690 55.062878 14.184189
v -35.054016 42.816628 24.314022
v -15.173340 55.062878 24.314022
v 55.062485 -16.725218 24.314022
v 47.558212 -30.312527 24.314022
v 55.062866 -22.807846 16.375446
v -24.716949 -38.218723 24.314022
v -9.506226 -44.502174 24.314022
vt 0.245111 0.281278
vt 0.245111 0.281278
vt 0.245111 0.281278
vt 0.245111 0.281278
vt 0.245111 0.281278
vt 0.245111 0.281278
vt 0.245111 0.281278
vt 0.245111 0.281278
vt 0.245111 0.281278
vt 0.245111 0.281278
vt 0.245111 0.281278
vt 0.245111 0.281278
vt 0.245111 0.281278
vt 0.245111 0.281278
vt 0.245111 0.281278
vt 0.245111 0.281278
vt 0.245111 0.281278
vt 0.245111 0.281278
vt 0.245111 0.281278
vt 0.245111 0.281278
vt 0.245111 0.281278
vt 0.245111 0.281278
vt 0.245111 0.281278
vt 0.245111 0.281278
vt 0.245111 0.281278
vt 0.245111 0.281278
vt 0.245111 0.281278
vt 0.245111 0.281278
vt 0.245111 0.281278
vt 0.245111 0.281278
vt 0.245111 0.281278
vt 0.245111 0.281278
vt 0.245111 0.281278
vt 0.245111 0.281278
vt 0.566088 0.121489
vt 0.566043 0.121489
vt 0.245111 0.281278
vt 0.245111 0.281278
vt 0.245111 0.281278
vt 0.245111 0.281278
vt 0.245111 0.281278
vt 0.245111 0.281278
vt 0.245111 0.281278
vt 0.245111 0.281278
vt 0.245111 0.281278
vt 0.245111 0.281278
vt 0.245111 0.281278
vt 0.245111 0.281278
vt 0.245111 0.281278
vt 0.245111 0.281278
vt 0.245111 0.281278
vt 0.245111 0.281278
vt 0.245111 0.281278
vt 0.245111 0.281278
vt 0.245111 0.281278
vt 0.245111 0.281278
vt 0.245111 0.281278
vt 0.245111 0.281278
vt 0.245111 0.281278
vt 0.245111 0.281278
vt 0.245111 0.281278
vt 0.245111 0.281278
vt 0.245111 0.281278
vt 0.245111 0.281278
vt 0.245111 0.281278
vt 0.245111 0.281278
vt 0.245111 0.281278
vt 0.245111 0.281278
vt 0.529131 0.121489
vt 0.547587 0.062251
vt 0.501039 0.086788
vt 0.501039 0.037713
vt 0.529131 0.001685
vt 0.566043 0.001685
vt 0.592144 0.037713
vt 0.592144 0.086788
vt 0.529086 0.121489
vt 0.547587 0.062251
vt 0.592252 0.086788
vt 0.592252 0.037713
vt 0.566088 0.001685
vt 0.529086 0.001685
vt 0.500931 0.037713
vt 0.500931 0.086788
vt 0.245111 0.281278
vt 0.245111 0.281278
vt 0.245111 0.281278
vt 0.245111 0.281278
vt 0.245111 0.281278
vt 0.245111 0.281278
vt 0.245111 0.281278
vt 0.245111 0.281278
vt 0.245111 0.281278
vt 0.245111 0.281278
vt 0.245111 0.281278
vt 0.245111 0.281278
vn -0.669987 0.544204 0.504935
vn -0.669987 0.544204 0.504935
vn -0.669987 0.544204 0.504935
vn -0.315440 0.771955 0.551891
vn -0.315440 0.771955 0.551891
vn -0.315440 0.771955 0.551891
vn -1.000000 0.000000 0.000000
vn -1.000000 0.000000 0.000000
vn -1.000000 0.000000 0.000000
vn -1.000000 0.000000 0.000000
vn -0.707105 -0.707108 0.000000
vn -0.707105 -0.707108 0.000000
vn -0.707105 -0.707108 0.000000
vn -0.707105 -0.707108 0.000000
vn -0.000000 -1.000000 0.000000
vn -0.000000 -1.000000 0.000000
vn -0.000000 -1.000000 0.000000
vn -0.000000 -1.000000 0.000000
vn 0.806515 -0.230690 0.544349
vn 0.806515 -0.230690 0.544349
vn 0.806515 -0.230690 0.544349
vn 0.561821 -0.656649 0.503159
vn 0.561821 -0.656649 0.503159
vn 0.561821 -0.656649 0.503159
vn 0.707105 0.707108 0.000000
vn 0.707105 0.707108 0.000000
vn 0.707105 0.707108 0.000000
vn 0.707105 0.707108 0.000000
vn 0.000000 0.000000 -1.000000
vn 0.000000 0.000000 -1.000000
vn 0.000000 0.000000 -1.000000
vn 0.000000 0.000000 -1.000000
vn 0.000000 0.000000 -1.000000
vn 0.000000 0.000000 -1.000000
vn 0.000000 0.000000 -1.000000
vn 0.000000 0.000000 -1.000000
vn 0.000000 0.000000 -1.000000
vn 0.000000 0.000000 -1.000000
vn 0.000000 0.000000 -1.000000
vn 0.000000 0.000000 -1.000000
vn 0.000000 0.000000 -1.000000
vn 0.000000 0.000000 -1.000000
vn 0.000000 0.000000 -1.000000
vn -0.000000 0.000000 -1.000000
vn -0.000000 0.000000 -1.000000
vn -0.000000 0.000000 -1.000000
vn 0.000000 0.000000 -1.000000
vn 0.000000 0.000000 -1.000000
vn 0.000000 0.000000 -1.000000
vn 0.000000 0.000000 -1.000000
vn 0.000000 0.000000 -1.000000
vn 0.000000 0.000000 -1.000000
vn 0.000000 0.000000 1.000000
vn 0.000000 0.000000 1.000000
vn 0.000000 0.000000 1.000000
vn 0.000000 0.000000 1.000000
vn 0.000000 0.000000 1.000000
vn 0.000000 0.000000 1.000000
vn 0.000000 0.000000 1.000000
vn 0.000000 0.000000 1.000000
vn 0.000000 0.000000 1.000000
vn -0.000000 0.000000 1.000000
vn -0.000000 0.000000 1.000000
vn -0.000000 0.000000 1.000000
vn 0.000000 0.000000 1.000000
vn 0.000000 0.000000 1.000000
vn 0.000000 0.000000 1.000000
vn 0.000000 0.000000 1.000000
vn 0.000000 0.000000 1.000000
vn 0.000000 0.000000 1.000000
vn 0.000000 0.000000 1.000000
vn 0.000000 0.000000 1.000000
vn 0.000000 0.000000 1.000000
vn 0.000000 0.000000 1.000000
vn 0.000000 0.000000 1.000000
vn 0.000000 0.000000 1.000000
vn 0.000000 0.000000 -1.000000
vn 0.000000 0.000000 -1.000000
vn 0.000000 0.000000 -1.000000
vn 0.000000 0.000000 -1.000000
vn 0.000000 0.000000 -1.000000
vn 0.000000 0.000000 -1.000000
vn 0.000000 0.000000 -1.000000
vn 0.000000 0.000000 -1.000000
vn 0.000000 0.000000 -1.000000
vn 0.000000 0.000000 -1.000000
vn 0.000000 0.000000 -1.000000
vn 0.000000 0.000000 -1.000000
vn 0.000000 0.000000 -1.000000
vn 0.000000 0.000000 -1.000000
vn 0.000000 0.000000 -1.000000
vn 0.000000 0.000000 -1.000000
vn 0.000000 0.000000 -1.000000
vn 0.000000 0.000000 -1.000000
vn 0.000000 0.000000 -1.000000
vn 0.000000 0.000000 -1.000000
vn 0.000000 0.000000 -1.000000
vn 0.000000 0.000000 -1.000000
vn 0.000000 0.000000 -1.000000
vn 0.000000 0.000000 -1.000000
vn 0.000000 0.000000 -1.000000
vn 0.000000 0.000000 -1.000000
vn 0.000000 0.000000 -1.000000
vn 0.000000 0.000000 -1.000000
vn 0.000000 0.000000 -1.000000
vn 0.000000 0.000000 -1.000000
vn 0.000000 0.000000 -1.000000
vn 0.000000 0.000000 -1.000000
vn 0.000000 0.000000 1.000000
vn 0.000000 0.000000 1.000000
vn 0.000000 0.000000 1.000000
vn 0.000000 0.000000 1.000000
vn -0.000000 0.000000 1.000000
vn -0.000000 0.000000 1.000000
vn -0.000000 0.000000 1.000000
vn -0.000000 0.000000 1.000000
vn -0.000000 0.000000 1.000000
vn -0.000000 0.000000 1.000000
vn -0.000000 0.000000 1.000000
vn -0.000000 0.000000 1.000000
vn -0.000000 0.000000 1.000000
vn -0.000000 0.000000 1.000000
vn 0.000000 0.000000 1.000000
vn 0.000000 0.000000 1.000000
vn 0.000000 0.000000 1.000000
vn 0.000000 0.000000 1.000000
vn -0.000001 -1.000000 0.000000
vn -0.000001 -1.000000 0.000000
vn -0.000001 -1.000000 0.000000
vn -0.000001 -1.000000 0.000000
vn 0.707105 -0.707108 0.000000
vn 0.707105 -0.707108 0.000000
vn 0.707105 -0.707108 0.000000
vn 0.707105 -0.707108 0.000000
vn 1.000000 0.000000 0.000000
vn 1.000000 0.000000 0.000000
vn 1.000000 0.000000 0.000000
vn 1.000000 0.000000 0.000000
vn 0.707105 0.707109 0.000000
vn 0.707105 0.707109 0.000000
vn 0.707105 0.707109 0.000000
vn 0.707105 0.707109 0.000000
vn 0.000000 1.000000 0.000000
vn 0.000000 1.000000 0.000000
vn 0.000000 1.000000 0.000000
vn 0.000000 1.000000 0.000000
vn -0.707105 0.707109 0.000000
vn -0.707105 0.707109 0.000000
vn -0.707105 0.707109 0.000000
vn -0.707105 0.707109 0.000000
vn -1.000000 0.000000 0.000000
vn -1.000000 0.000000 0.000000
vn -1.000000 0.000000 0.000000
vn -1.000000 0.000000 0.000000
vn -0.707105 -0.707109 0.000000
vn -0.707105 -0.707109 0.000000
vn -0.707105 -0.707109 0.000000
vn -0.707105 -0.707109 0.000000
vn -0.000001 -1.000000 0.000000
vn -0.000001 -1.000000 0.000000
vn -0.000001 -1.000000 0.000000
vn -0.000001 -1.000000 0.000000
vn 0.707105 -0.707108 0.000000
vn 0.707105 -0.707108 0.000000
vn 0.707105 -0.707108 0.000000
vn 0.707105 -0.707108 0.000000
vn 1.000000 0.000000 0.000000
vn 1.000000 0.000000 0.000000
vn 1.000000 0.000000 0.000000
vn 1.000000 0.000000 0.000000
vn 0.707106 0.707108 0.000005
vn 0.707106 0.707108 0.000005
vn 0.707106 0.707108 0.000005
vn 0.707106 0.707108 0.000005
vn 0.000000 1.000000 0.000000
vn 0.000000 1.000000 0.000000
vn 0.000000 1.000000 0.000000
vn 0.000000 1.000000 0.000000
vn -0.707105 0.707109 0.000000
vn -0.707105 0.707109 0.000000
vn -0.707105 0.707109 0.000000
vn -0.707105 0.707109 0.000000
vn -1.000000 0.000000 0.000000
vn -1.000000 0.000000 0.000000
vn -1.000000 0.000000 0.000000
vn -1.000000 0.000000 0.000000
vn -0.707105 -0.707109 0.000000
vn -0.707105 -0.707109 0.000000
vn -0.707105 -0.707109 0.000000
vn -0.707105 -0.707109 0.000000
vn -0.707106 0.707108 -0.000000
vn -0.707106 0.707108 -0.000000
vn -0.707106 0.707108 -0.000000
vn -0.707106 0.707108 -0.000000
vn -0.707106 0.707108 -0.000000
vn 0.000000 0.000000 1.000000
vn 0.000000 0.000000 1.000000
vn 0.000000 0.000000 1.000000
vn 0.000000 0.000000 1.000000
vn 0.000000 0.000000 1.000000
vn 0.000000 0.000000 1.000000
vn 0.000000 0.000000 1.000000
vn 0.000000 0.000000 1.000000
vn 0.000000 0.000000 1.000000
vn 0.000000 0.000000 1.000000
vn 0.000001 1.000000 -0.000000
vn 0.000001 1.000000 -0.000000
vn 0.000001 1.000000 -0.000000
vn 0.000001 1.000000 -0.000000
vn 0.000001 1.000000 -0.000000
vn -0.000000 0.000000 1.000000
vn -0.000000 0.000000 1.000000
vn -0.000000 0.000000 1.000000
vn -0.000000 0.000000 1.000000
vn -0.000000 0.000000 1.000000
vn 0.000000 0.000000 1.000000
vn 0.000000 0.000000 1.000000
vn 0.000000 0.000000 1.000000
vn 0.000000 0.000000 1.000000
vn 0.000000 0.000000 1.000000
vn 0.707105 -0.707108 -0.000001
vn 0.707105 -0.707108 -0.000001
vn 0.707105 -0.707108 -0.000001
vn 0.707105 -0.707108 -0.000001
vn 0.707105 -0.707108 -0.000001
vn 1.000000 -0.000001 0.000008
vn 1.000000 -0.000001 0.000008
vn 1.000000 -0.000001 0.000008
vn 1.000000 -0.000001 0.000008
vn 1.000000 -0.000001 0.000008
vn 0.831222 0.360305 0.423379
vn 0.831222 0.360305 0.423379
vn 0.831222 0.360305 0.423379
vn -0.331817 0.842776 0.423823
vn -0.331817 0.842776 0.423823
vn -0.331817 0.842776 0.423823
s off
f 53/89/1 51/85/2 10/19/3
f 51/85/4 52/87/5 10/19/6
f 3/11/7 4/12/8 12/21/9 11/20/10
f 4/12/11 5/13/12 13/22/13 12/21/14
f 5/13/15 6/14/16 14/23/17 13/22/18
f 55/93/19 56/94/20 15/24/21
f 56/94/22 54/91/23 15/24/24
f 8/16/25 1/17/26 9/26/27 16/25/28
f 34/35/29 33/77/30 35/78/31
f 36/79/32 34/35/33 35/78/34
f 37/80/35 36/79/36 35/78/37
f 38/81/38 37/80/39 35/78/40
f 39/82/41 38/81/42 35/78/43
f 40/83/44 39/82/45 35/78/46
f 41/84/47 40/83/48 35/78/49
f 33/77/50 41/84/51 35/78/52
f 42/36/53 43/69/54 44/70/55
f 43/69/56 45/71/57 44/70/58
f 45/71/59 46/72/60 44/70/61
f 46/72/62 47/73/63 44/70/64
f 47/73/65 48/74/66 44/70/67
f 48/74/68 49/75/69 44/70/70
f 49/75/71 50/76/72 44/70/73
f 50/76/74 42/36/75 44/70/76
f 2/2/77 1/1/78 17/38/79 18/37/80
f 3/3/81 2/2/82 18/37/83 19/39/84
f 4/4/85 3/3/86 19/39/87 20/40/88
f 5/5/89 4/4/90 20/40/91 21/41/92
f 6/6/93 5/5/94 21/41/95 22/42/96
f 7/7/97 6/6/98 22/42/99 23/43/100
f 8/8/101 7/7/102 23/43/103 24/44/104
f 1/1/105 8/8/106 24/44/107 17/38/108
f 11/31/109 12/30/110 28/48/111 27/47/112
f 12/30/113 13/29/114 29/49/115 57/95/116 28/48/117
f 13/29/118 14/28/119 30/50/120 58/96/121 29/49/122
f 16/34/123 9/33/124 25/45/125 32/52/126
f 18/37/127 17/38/128 33/54/129 34/53/130
f 19/39/131 18/37/132 34/53/133 36/55/134
f 20/40/135 19/39/136 36/55/137 37/56/138
f 21/41/139 20/40/140 37/56/141 38/57/142
f 22/42/143 21/41/144 38/57/145 39/58/146
f 23/43/147 22/42/148 39/58/149 40/59/150
f 24/44/151 23/43/152 40/59/153 41/60/154
f 17/38/155 24/44/156 41/60/157 33/54/158
f 25/45/159 26/46/160 43/62/161 42/61/162
f 26/46/163 27/47/164 45/63/165 43/62/166
f 27/47/167 28/48/168 46/64/169 45/63/170
f 28/48/171 57/95/172 47/65/173 46/64/174
f 47/65/175 58/96/176 30/50/177 48/66/178
f 30/50/179 31/51/180 49/67/181 48/66/182
f 31/51/183 32/52/184 50/68/185 49/67/186
f 32/52/187 25/45/188 42/61/189 50/68/190
f 2/10/191 3/11/192 11/20/193 52/87/194 51/85/195
f 10/32/196 52/86/197 11/31/198 27/47/199 26/46/200
f 9/33/201 53/88/202 10/32/203 26/46/204 25/45/205
f 1/9/206 2/10/207 51/85/208 53/89/209 9/18/210
f 15/27/211 54/90/212 16/34/213 32/52/214 31/51/215
f 14/28/216 55/92/217 15/27/218 31/51/219 30/50/220
f 6/14/221 7/15/222 56/94/223 55/93/224 14/23/225
f 7/15/226 8/16/227 16/25/228 54/91/229 56/94/230
f 47/65/231 57/95/232 29/49/233
f 29/49/234 58/96/235 47/65/236
