# This file uses meters as units for non-parametric coordinates.

v 17.577744 9.634975 -17.576599
v -17.566299 9.713640 -17.560196
v 17.506790 9.740208 17.347717
v -17.576981 9.634975 17.576981
v 21.719742 7.840700 21.719742
v -21.718979 7.840700 21.719742
v -21.718979 7.840700 -21.718597
v 21.719742 7.840700 -21.718597
v 21.719742 1.936740 21.719742
v -21.718979 1.936740 21.719742
v -21.718979 1.936740 -21.718597
v 21.719742 1.936740 -21.718597
v 13.032150 6.644906 21.719742
v -13.031387 6.974599 21.719742
v -13.031387 1.936738 21.719742
v 13.032150 1.936738 21.719742
v -21.718979 6.974599 13.032150
v -21.718979 6.675471 -13.031006
v -21.718979 1.936738 -13.031006
v -21.718979 1.936738 13.032150
v 13.032150 6.974599 -21.718597
v -13.031387 6.974599 -21.718597
v 13.032150 1.936738 -21.718597
v -13.031387 1.936738 -21.718597
v 21.719742 6.974599 13.032150
v 21.719742 6.974599 -13.031006
v 21.719742 1.936738 13.032150
v 21.719742 1.936738 -13.031006
v 10.743332 5.349623 34.830860
v -10.742569 5.679319 34.830860
v -10.742569 1.936738 34.830860
v 10.743332 1.936738 34.830860
v -34.830093 5.679319 10.743332
v -34.830093 5.380191 -10.742188
v -34.830093 1.936738 -10.742188
v -34.830093 1.936738 10.743332
v 10.743332 5.367702 -34.829712
v -10.742569 5.679319 -34.829712
v 10.743332 1.936738 -34.829712
v -10.742569 1.936738 -34.829712
v 34.830856 5.679319 10.743332
v 34.830856 5.679319 -10.742188
v 34.830856 1.936738 10.743332
v 34.830856 1.936738 -10.742188
v -15.923691 9.636952 15.923691
v -15.913773 9.712663 -15.908432
v 15.860367 9.738232 15.715790
v 15.924454 9.636952 -15.923309
v -15.304947 8.041861 15.304565
v -15.295029 8.116464 -15.290070
v 15.243530 8.141661 15.104675
v 15.304947 8.041861 -15.304184
v -13.599586 8.043180 13.599014
v -13.590813 8.115812 -13.586044
v 13.544750 8.140342 13.421631
v 13.599968 8.043180 -13.598633
v -11.859989 10.361061 11.859894
v -11.852169 10.430446 -11.848450
v 11.812115 10.453879 11.704636
v 11.860275 10.361061 -11.859512
vt 0.245885 0.279046
vt 0.245885 0.279046
vt 0.245885 0.279046
vt 0.245885 0.279046
vt 0.245885 0.279046
vt 0.245885 0.279046
vt 0.245885 0.279046
vt 0.245885 0.279046
vt 0.245885 0.279046
vt 0.245885 0.279046
vt 0.245885 0.279046
vt 0.245193 0.324026
vt 0.245193 0.324026
vt 0.245885 0.279046
vt 0.245193 0.324026
vt 0.245193 0.324026
vt 0.245193 0.324026
vt 0.245193 0.324026
vt 0.245885 0.279046
vt 0.245193 0.324026
vt 0.245193 0.324026
vt 0.245885 0.279046
vt 0.245193 0.324026
vt 0.245193 0.324026
vt 0.245193 0.324026
vt 0.245193 0.324026
vt 0.245193 0.324026
vt 0.245193 0.324026
vt 0.245193 0.324026
vt 0.245193 0.324026
vt 0.245193 0.324026
vt 0.245193 0.324026
vt 0.245193 0.324026
vt 0.245193 0.324026
vt 0.245193 0.324026
vt 0.245885 0.279046
vt 0.245193 0.324026
vt 0.245193 0.324026
vt 0.245193 0.324026
vt 0.245193 0.324026
vt 0.245193 0.324026
vt 0.245193 0.324026
vt 0.245885 0.279046
vt 0.245193 0.324026
vt 0.245193 0.324026
vt 0.245193 0.324026
vt 0.245193 0.324026
vt 0.245193 0.324026
vt 0.245193 0.324026
vt 0.245885 0.279046
vt 0.245885 0.279046
vt 0.245885 0.279046
vt 0.245193 0.324026
vt 0.245193 0.324026
vt 0.245193 0.324026
vt 0.245193 0.324026
vt 0.245193 0.324026
vt 0.245193 0.324026
vt 0.245885 0.279046
vt 0.245193 0.324026
vt 0.245193 0.324026
vt 0.245193 0.324026
vt 0.245193 0.324026
vt 0.245193 0.324026
vt 0.245885 0.279046
vt 0.245193 0.324026
vt 0.245885 0.279046
vt 0.245193 0.324026
vt 0.245193 0.324026
vt 0.245193 0.324026
vt 0.245193 0.324026
vt 0.245193 0.324026
vt 0.245885 0.279046
vt 0.245193 0.324026
vt 0.245885 0.279046
vt 0.245193 0.324026
vt 0.245193 0.324026
vt 0.245193 0.324026
vt 0.245193 0.324026
vt 0.245193 0.324026
vt 0.245885 0.279046
vt 0.245193 0.324026
vt 0.245885 0.279046
vt 0.245193 0.324026
vt 0.245193 0.324026
vt 0.245193 0.324026
vt 0.245193 0.324026
vt 0.245193 0.324026
vt 0.245885 0.279046
vt 0.245193 0.324026
vt 0.245885 0.279046
vt 0.245193 0.324026
vt 0.245885 0.279046
vt 0.245885 0.279046
vt 0.245885 0.279046
vt 0.245885 0.279046
vt 0.245885 0.279046
vt 0.245885 0.279046
vt 0.245885 0.279046
vt 0.245885 0.279046
vt 0.245885 0.279046
vt 0.245885 0.279046
vt 0.245885 0.279046
vt 0.245885 0.279046
vt 0.245885 0.279046
vt 0.245885 0.279046
vt 0.245885 0.279046
vt 0.245885 0.279046
vt 0.081398 0.231631
vt 0.081398 0.231631
vt 0.081398 0.231631
vt 0.081398 0.231631
vt 0.081398 0.231631
vt 0.081398 0.231631
vt 0.081398 0.231631
vt 0.081398 0.231631
vn -0.000067 0.917397 0.397974
vn -0.000067 0.917397 0.397974
vn -0.000067 0.917396 0.397974
vn -0.000067 0.917397 0.397974
vn -0.404361 0.914599 0.000861
vn -0.404361 0.914599 0.000861
vn -0.404361 0.914599 0.000861
vn -0.404361 0.914599 0.000861
vn 0.000831 0.914702 -0.404127
vn 0.000831 0.914702 -0.404127
vn 0.000831 0.914702 -0.404127
vn 0.000831 0.914702 -0.404127
vn 0.404372 0.914594 -0.000862
vn 0.404372 0.914594 -0.000862
vn 0.404372 0.914594 -0.000862
vn 0.404372 0.914594 -0.000862
vn 0.000000 0.000000 1.000000
vn 0.000000 0.000000 1.000000
vn 0.000000 0.000000 1.000000
vn 0.000000 0.000000 1.000000
vn -1.000000 0.000000 0.000000
vn -1.000000 0.000000 0.000000
vn -1.000000 0.000000 0.000000
vn -1.000000 0.000000 0.000000
vn 0.000000 0.000000 -1.000000
vn 0.000000 0.000000 -1.000000
vn 0.000000 0.000000 -1.000000
vn 0.000000 0.000000 -1.000000
vn 1.000000 0.000000 0.000000
vn 1.000000 0.000000 0.000000
vn 1.000000 0.000000 0.000000
vn 1.000000 0.000000 0.000000
vn -0.000000 0.000000 1.000000
vn 0.000000 0.000000 1.000000
vn 0.000000 0.000000 1.000000
vn -0.000000 0.000000 1.000000
vn 0.000000 0.000000 1.000000
vn 0.000000 0.000000 1.000000
vn 0.000000 0.000000 1.000000
vn 0.000000 0.000000 1.000000
vn -0.000000 0.000000 1.000000
vn -0.000000 0.000000 1.000000
vn -0.000000 0.000000 1.000000
vn -0.000000 0.000000 1.000000
vn -1.000000 -0.000000 0.000000
vn -1.000000 -0.000000 0.000000
vn -1.000000 -0.000001 0.000000
vn -1.000000 -0.000001 0.000000
vn -1.000000 -0.000000 0.000000
vn -1.000000 0.000000 0.000000
vn -1.000000 0.000000 0.000000
vn -1.000000 -0.000001 0.000000
vn -1.000000 0.000000 0.000000
vn -1.000000 -0.000000 0.000000
vn -1.000000 -0.000001 0.000000
vn -1.000000 0.000000 0.000000
vn 0.000000 0.000000 -1.000000
vn -0.000000 0.000000 -1.000000
vn -0.000000 0.000000 -1.000000
vn 0.000000 0.000000 -1.000000
vn -0.000000 0.000000 -1.000000
vn -0.000000 0.000000 -1.000000
vn -0.000000 0.000000 -1.000000
vn -0.000000 0.000000 -1.000000
vn 0.000000 0.000000 -1.000000
vn 0.000000 0.000000 -1.000000
vn 0.000000 0.000000 -1.000000
vn 0.000000 0.000000 -1.000000
vn 1.000000 -0.000000 0.000000
vn 1.000000 -0.000000 0.000000
vn 1.000000 -0.000000 0.000000
vn 1.000000 -0.000000 0.000000
vn 1.000000 -0.000000 0.000000
vn 1.000000 0.000000 0.000000
vn 1.000000 0.000000 0.000000
vn 1.000000 -0.000000 0.000000
vn 1.000000 0.000000 0.000000
vn 1.000000 -0.000000 0.000000
vn 1.000000 -0.000000 0.000000
vn 1.000000 0.000000 0.000000
vn 0.013799 0.995061 0.098305
vn 0.013799 0.995061 0.098305
vn 0.013799 0.995061 0.098305
vn 0.013799 0.995061 0.098305
vn -0.985102 0.000000 0.171970
vn -0.985102 0.000000 0.171970
vn -0.985102 0.000000 0.171970
vn -0.985102 0.000000 0.171970
vn 0.985102 0.000000 0.171970
vn 0.985102 0.000000 0.171970
vn 0.985102 0.000000 0.171970
vn 0.985102 0.000000 0.171970
vn -0.098306 0.995077 -0.012520
vn -0.098306 0.995077 -0.012520
vn -0.098306 0.995077 -0.012520
vn -0.098306 0.995077 -0.012520
vn -0.171970 0.000000 -0.985102
vn -0.171970 0.000000 -0.985102
vn -0.171970 0.000000 -0.985102
vn -0.171970 0.000000 -0.985102
vn -0.171970 0.000000 0.985102
vn -0.171970 0.000000 0.985102
vn -0.171970 0.000000 0.985102
vn -0.171970 0.000000 0.985102
vn 0.006514 0.993910 -0.110002
vn 0.006514 0.993910 -0.110002
vn 0.006514 0.993910 -0.110002
vn 0.006514 0.993910 -0.110002
vn 0.985102 0.000000 -0.171970
vn 0.985102 0.000000 -0.171970
vn 0.985102 0.000000 -0.171970
vn 0.985102 0.000000 -0.171970
vn -0.985102 0.000000 -0.171970
vn -0.985102 0.000000 -0.171970
vn -0.985102 0.000000 -0.171970
vn -0.985102 0.000000 -0.171970
vn 0.098314 0.995155 0.000000
vn 0.098314 0.995155 0.000000
vn 0.098314 0.995156 0.000000
vn 0.098314 0.995156 0.000000
vn 0.171970 0.000000 0.985102
vn 0.171970 0.000000 0.985102
vn 0.171970 0.000000 0.985102
vn 0.171970 0.000000 0.985102
vn 0.171970 0.000000 -0.985102
vn 0.171970 0.000000 -0.985102
vn 0.171970 0.000000 -0.985102
vn 0.171970 0.000000 -0.985102
vn -0.000496 1.000000 -0.000496
vn -0.000496 1.000000 -0.000496
vn -0.000496 1.000000 -0.000496
vn -0.000496 1.000000 -0.000496
vn -0.000301 0.999997 0.002305
vn -0.000301 0.999997 0.002305
vn -0.000301 0.999997 0.002305
vn -0.000301 0.999997 0.002305
vn -0.003088 0.999995 -0.000006
vn -0.003088 0.999995 -0.000006
vn -0.003088 0.999995 -0.000006
vn -0.003088 0.999995 -0.000006
vn -0.000020 0.999995 -0.003103
vn -0.000020 0.999995 -0.003103
vn -0.000020 0.999995 -0.003103
vn -0.000020 0.999995 -0.003103
vn 0.002305 0.999997 -0.000302
vn 0.002305 0.999997 -0.000302
vn 0.002305 0.999997 -0.000302
vn 0.002305 0.999997 -0.000302
vn 0.932356 0.361540 0.001167
vn 0.932356 0.361540 0.001167
vn 0.932356 0.361540 0.001167
vn 0.932356 0.361540 0.001167
vn -0.007264 0.359648 -0.933060
vn -0.007264 0.359648 -0.933060
vn -0.007264 0.359648 -0.933060
vn -0.007264 0.359648 -0.933060
vn -0.932482 0.361204 -0.003057
vn -0.932482 0.361205 -0.003057
vn -0.932482 0.361205 -0.003057
vn -0.932482 0.361205 -0.003057
vn 0.001303 0.361540 0.932356
vn 0.001303 0.361540 0.932356
vn 0.001303 0.361540 0.932356
vn 0.001303 0.361540 0.932356
vn -0.000195 0.999997 0.002548
vn -0.000195 0.999997 0.002548
vn -0.000195 0.999997 0.002548
vn -0.000195 0.999997 0.002548
vn -0.003414 0.999994 -0.000006
vn -0.003414 0.999994 -0.000006
vn -0.003414 0.999994 -0.000006
vn -0.003414 0.999994 -0.000006
vn -0.000022 0.999994 -0.003430
vn -0.000022 0.999994 -0.003430
vn -0.000022 0.999994 -0.003430
vn -0.000022 0.999994 -0.003430
vn 0.002548 0.999997 -0.000195
vn 0.002548 0.999997 -0.000195
vn 0.002548 0.999997 -0.000195
vn 0.002548 0.999997 -0.000195
vn -0.799679 0.600426 0.001415
vn -0.799679 0.600426 0.001415
vn -0.799679 0.600426 0.001415
vn -0.799679 0.600426 0.001415
vn 0.003010 0.598060 0.801446
vn 0.003010 0.598060 0.801446
vn 0.003010 0.598060 0.801446
vn 0.003010 0.598060 0.801446
vn 0.800101 0.599865 -0.000618
vn 0.800101 0.599865 -0.000618
vn 0.800101 0.599865 -0.000618
vn 0.800101 0.599865 -0.000618
vn 0.001303 0.600257 -0.799806
vn 0.001303 0.600257 -0.799806
vn 0.001303 0.600257 -0.799806
vn 0.001303 0.600257 -0.799806
s off
f 3/2/1 4/1/2 6/6/3 5/7/4
f 4/1/5 2/8/6 7/9/7 6/6/8
f 2/8/9 1/10/10 8/11/11 7/9/12
f 1/10/13 3/2/14 5/7/15 8/11/16
f 29/23/17 30/88/18 31/32/19 32/33/20
f 33/25/21 34/80/22 35/55/23 36/56/24
f 38/27/25 37/72/26 39/46/27 40/47/28
f 42/29/29 41/64/30 43/39/31 44/40/32
f 5/7/33 6/6/34 14/89/35 13/91/36
f 6/6/37 10/4/38 15/14/39 14/89/40
f 9/3/41 5/7/42 13/91/43 16/36/44
f 6/6/45 7/9/46 18/81/47 17/83/48
f 7/9/49 11/51/50 19/52/51 18/81/52
f 10/4/53 6/6/54 17/83/55 20/59/56
f 7/9/57 8/11/58 21/75/59 22/73/60
f 8/11/61 12/5/62 23/19/63 21/75/64
f 11/51/65 7/9/66 22/73/67 24/50/68
f 8/11/69 5/7/70 25/67/71 26/65/72
f 5/7/73 9/3/74 27/22/75 25/67/76
f 12/5/77 8/11/78 26/65/79 28/43/80
f 13/12/81 14/90/82 30/87/83 29/85/84
f 14/13/85 15/60/86 31/31/87 30/24/88
f 16/35/89 13/92/90 29/86/91 32/34/92
f 17/15/93 18/82/94 34/79/95 33/77/96
f 18/16/97 19/53/98 35/54/99 34/26/100
f 20/58/101 17/84/102 33/78/103 36/57/104
f 22/17/105 21/76/106 37/71/107 38/69/108
f 21/18/109 23/44/110 39/45/111 37/28/112
f 24/49/113 22/74/114 38/70/115 40/48/116
f 26/20/117 25/68/118 41/63/119 42/61/120
f 25/21/121 27/37/122 43/38/123 41/30/124
f 28/42/125 26/66/126 42/62/127 44/41/128
f 58/105/129 57/106/130 59/107/131 60/108/132
f 2/8/133 4/1/134 45/94/135 46/93/136
f 4/1/137 3/2/138 47/95/139 45/94/140
f 3/2/141 1/10/142 48/96/143 47/95/144
f 1/10/145 2/8/146 46/93/147 48/96/148
f 46/93/149 45/94/150 49/98/151 50/97/152
f 45/94/153 47/95/154 51/99/155 49/98/156
f 47/95/157 48/96/158 52/100/159 51/99/160
f 48/96/161 46/93/162 50/97/163 52/100/164
f 50/109/165 49/110/166 53/111/167 54/112/168
f 49/110/169 51/113/170 55/114/171 53/111/172
f 51/113/173 52/115/174 56/116/175 55/114/176
f 52/115/177 50/109/178 54/112/179 56/116/180
f 54/101/181 53/102/182 57/106/183 58/105/184
f 53/102/185 55/103/186 59/107/187 57/106/188
f 55/103/189 56/104/190 60/108/191 59/107/192
f 56/104/193 54/101/194 58/105/195 60/108/196
