# This file uses meters as units for non-parametric coordinates.

v 22.708511 80.500023 27.647400
v 33.056068 80.500023 27.647400
v 33.056068 70.176552 27.647400
v 22.708511 70.176552 27.647400
v 23.674774 71.140724 31.984711
v 23.675156 79.535767 31.984711
v 32.089233 71.140724 31.984711
v 32.089615 79.535767 31.984711
v 22.708511 92.782173 27.647400
v 33.056068 92.782173 27.647400
v 33.056068 82.458611 27.647400
v 22.708511 82.458611 27.647400
v 23.674774 83.422874 31.984711
v 23.674774 91.817749 31.984711
v 32.089233 83.422874 31.984711
v 32.089233 91.817749 31.984711
v 22.708511 105.165588 27.647400
v 33.056068 105.165588 27.647400
v 33.056068 94.842026 27.647400
v 22.708511 94.842026 27.647400
v 23.675156 95.806366 31.984711
v 23.674774 104.201248 31.984711
v 32.089615 95.806366 31.984711
v 32.089233 104.201248 31.984711
v 25.123215 72.585556 31.984711
v 25.123215 78.091103 31.984711
v 30.641556 72.585556 31.984711
v 30.641556 78.091103 31.984711
v 25.122833 84.867554 31.984711
v 25.122833 90.373085 31.984711
v 30.641174 84.867554 31.984711
v 30.641174 90.373085 31.984711
v 25.123215 97.251038 31.984711
v 25.123215 102.756569 31.984711
v 30.641556 97.251038 31.984711
v 30.641556 102.756569 31.984711
v -37.861252 5.103844 29.154205
v 37.861443 5.103844 29.154205
v -37.861252 161.854294 29.154205
v 37.861443 161.854294 29.154205
v -37.861252 161.854294 -31.984711
v 37.861443 161.854294 -31.984711
v -37.861252 5.103844 -31.984711
v 37.861443 5.103844 -31.984711
v -37.861252 161.854294 15.924263
v -37.861252 5.103844 15.924263
v 37.861443 5.103844 15.924263
v 37.861443 161.854294 15.924263
v -37.861252 161.854294 17.965508
v -37.861252 5.103844 17.965508
v 37.861443 5.103844 17.965508
v 37.861443 161.854294 17.965508
v 26.572990 161.854294 29.154205
v 17.975807 161.854294 17.965508
v 17.975807 161.854294 15.924263
v 17.975807 161.854294 -31.984711
v 17.975807 5.103844 -31.984711
v 26.572990 5.103844 29.154205
v -30.076410 34.723564 29.154205
v 10.190964 34.723564 29.154205
v 10.190964 51.033474 29.154205
v -30.076410 51.033474 29.154205
v -22.890854 34.330933 29.154205
v 3.005409 34.330933 29.154205
v 3.005409 51.426098 29.154205
v -22.890854 51.426098 29.154205
v -22.245026 34.757175 24.088478
v 2.359581 34.757175 24.088478
v 2.359581 50.999855 24.088478
v -22.245026 50.999855 24.088478
v -34.782791 5.103844 16.721916
v 16.514206 5.103844 27.192497
v -34.782791 5.103844 27.192497
v 15.438652 5.103844 -27.669907
v -34.782791 5.103844 14.811707
v -34.782791 5.103844 -30.023005
v 34.782982 5.103844 14.811707
v 34.782982 5.103844 -30.023005
v 34.782982 5.103844 16.721916
v 34.782982 5.103844 27.192497
v -34.782791 0.000000 16.721916
v 16.514206 0.000000 16.721916
v 16.514206 0.000000 27.192497
v -34.782791 0.000000 27.192497
v 16.514206 0.000000 -30.023005
v 16.514206 0.000000 14.811707
v -34.782791 0.000000 14.811707
v -34.782791 0.000000 -30.023005
v 34.782982 0.000000 14.811707
v 34.782982 0.000000 -30.023005
v 34.782982 0.000000 16.721916
v 34.782982 0.000000 27.192497
v 17.975998 64.325249 29.154205
v 17.975998 113.692497 29.154205
v 26.573181 56.288040 29.154205
v 26.573181 122.283791 29.154205
v -25.739100 31.047810 29.154205
v -25.739100 54.709221 29.154205
v 5.853653 54.709221 29.154205
v 5.853653 31.047810 29.154205
v -26.909826 37.111443 29.154205
v -26.063726 37.399025 24.088478
v -26.909826 48.645599 29.154205
v -26.063726 48.358002 24.088478
v 7.024384 48.645599 29.154205
v 6.178284 48.358002 24.088478
v 6.178284 37.399025 24.088478
v 7.024384 37.111443 29.154205
vt 0.423936 0.026957
vt 0.423936 0.026957
vt 0.423936 0.026957
vt 0.423936 0.026957
vt 0.245683 0.324586
vt 0.245683 0.324586
vt 0.245683 0.324586
vt 0.245683 0.324586
vt 0.245683 0.324586
vt 0.245683 0.324586
vt 0.245683 0.324586
vt 0.245683 0.324586
vt 0.233182 0.273540
vt 0.233182 0.273540
vt 0.233182 0.273540
vt 0.233182 0.273540
vt 0.245683 0.324586
vt 0.245683 0.324586
vt 0.245683 0.324586
vt 0.245683 0.324586
vt 0.245683 0.324586
vt 0.245683 0.324586
vt 0.245683 0.324586
vt 0.245683 0.324586
vt 0.233182 0.273540
vt 0.233182 0.273540
vt 0.233182 0.273540
vt 0.233182 0.273540
vt 0.245683 0.324586
vt 0.245683 0.324586
vt 0.245683 0.324586
vt 0.245683 0.324586
vt 0.245683 0.324586
vt 0.245683 0.324586
vt 0.245683 0.324586
vt 0.245683 0.324586
vt 0.245683 0.324586
vt 0.245683 0.324586
vt 0.245683 0.324586
vt 0.245683 0.324586
vt 0.245683 0.324586
vt 0.245683 0.324586
vt 0.245683 0.324586
vt 0.245683 0.324586
vt 0.245683 0.324586
vt 0.245683 0.324586
vt 0.245683 0.324586
vt 0.245683 0.324586
vt 0.139361 0.010114
vt 0.143773 0.010092
vt 0.143773 0.012175
vt 0.139361 0.012197
vt 0.455056 0.028699
vt 0.454790 0.028728
vt 0.454784 0.028678
vt 0.455050 0.028650
vt 0.248535 0.085380
vt 0.065871 0.085380
vt 0.065871 0.021903
vt 0.248535 0.021903
vt 0.112784 0.008660
vt 0.108405 0.008586
vt 0.108420 0.007735
vt 0.112800 0.007809
vt 0.235715 0.278756
vt 0.235731 0.278881
vt 0.235731 0.279605
vt 0.235715 0.279480
vt 0.455050 0.028937
vt 0.455056 0.028986
vt 0.234824 0.279000
vt 0.234824 0.279724
vt 0.234891 0.280256
vt 0.234891 0.279532
vt 0.108337 0.012385
vt 0.108402 0.008741
vt 0.112782 0.008816
vt 0.112716 0.012459
vt 0.235800 0.280159
vt 0.235733 0.279627
vt 0.235733 0.278903
vt 0.235800 0.279435
vt 0.235495 0.279653
vt 0.235561 0.280184
vt 0.074260 0.009561
vt 0.074260 0.012424
vt 0.074230 0.012424
vt 0.074230 0.009560
vt 0.073421 0.009577
vt 0.073421 0.012440
vt 0.073451 0.012441
vt 0.073451 0.009578
vt 0.073633 0.009573
vt 0.073664 0.009573
vt 0.235492 0.279630
vt 0.235476 0.279506
vt 0.000818 0.085380
vt 0.000818 0.021903
vt 0.106843 0.008715
vt 0.106777 0.012359
vt 0.106845 0.008560
vt 0.106861 0.007709
vt 0.235476 0.278782
vt 0.454790 0.029015
vt 0.454790 0.029015
vt 0.455056 0.028986
vt 0.454790 0.028728
vt 0.455056 0.028699
vt 0.138407 0.009733
vt 0.144795 0.009702
vt 0.143923 0.010118
vt 0.139279 0.010141
vt 0.144795 0.012717
vt 0.143923 0.012310
vt 0.138407 0.012749
vt 0.139279 0.012333
vt 0.108420 0.007735
vt 0.112800 0.007809
vt 0.112800 0.007809
vt 0.108420 0.007735
vt 0.112784 0.008660
vt 0.112784 0.008660
vt 0.112782 0.008816
vt 0.112716 0.012459
vt 0.112716 0.012459
vt 0.112782 0.008816
vt 0.108337 0.012385
vt 0.108337 0.012385
vt 0.106777 0.012359
vt 0.106777 0.012359
vt 0.106843 0.008715
vt 0.106843 0.008715
vt 0.106845 0.008560
vt 0.106845 0.008560
vt 0.106861 0.007709
vt 0.106861 0.007709
vt 0.454790 0.028906
vt 0.235476 0.279055
vt 0.454790 0.028816
vt 0.235476 0.279283
vt 0.454790 0.028921
vt 0.235476 0.279018
vt 0.454790 0.028800
vt 0.235476 0.279323
vt 0.139585 0.009728
vt 0.455007 0.028992
vt 0.455002 0.028705
vt 0.139705 0.012743
vt 0.454847 0.028721
vt 0.143418 0.012724
vt 0.143609 0.009708
vt 0.454839 0.029010
vt 0.139279 0.010689
vt 0.139361 0.010634
vt 0.139279 0.011785
vt 0.139361 0.011676
vt 0.143923 0.011762
vt 0.143773 0.011654
vt 0.143773 0.010613
vt 0.143923 0.010666
vn 0.000000 0.000000 1.000000
vn 0.000000 0.000000 1.000000
vn -0.000000 0.000000 1.000000
vn -0.000000 0.000000 1.000000
vn -0.976063 0.000020 0.217490
vn -0.976063 0.000020 0.217490
vn -0.976063 0.000020 0.217490
vn -0.976063 0.000020 0.217490
vn 0.000000 -0.976172 0.217000
vn 0.000000 -0.976172 0.217000
vn 0.000000 -0.976172 0.217000
vn 0.000000 -0.976172 0.217000
vn 0.976054 -0.000020 0.217531
vn 0.976054 -0.000020 0.217531
vn 0.976054 -0.000020 0.217531
vn 0.976054 -0.000020 0.217530
vn 0.000000 0.976168 0.217018
vn 0.000000 0.976168 0.217018
vn 0.000000 0.976168 0.217018
vn 0.000000 0.976168 0.217018
vn 0.000000 0.000000 1.000000
vn 0.000000 0.000000 1.000000
vn -0.000000 0.000000 1.000000
vn -0.000000 0.000000 1.000000
vn -0.976072 0.000000 0.217449
vn -0.976072 0.000000 0.217449
vn -0.976072 0.000000 0.217449
vn -0.976072 0.000000 0.217449
vn 0.000000 -0.976167 0.217020
vn 0.000000 -0.976167 0.217020
vn 0.000000 -0.976167 0.217020
vn 0.000000 -0.976167 0.217020
vn 0.976044 0.000000 0.217571
vn 0.976044 0.000000 0.217571
vn 0.976044 0.000000 0.217571
vn 0.976044 0.000000 0.217571
vn 0.000000 0.976159 0.217055
vn 0.000000 0.976159 0.217055
vn 0.000000 0.976159 0.217055
vn 0.000000 0.976159 0.217055
vn 0.000000 0.000000 1.000000
vn 0.000000 0.000000 1.000000
vn -0.000000 0.000000 1.000000
vn -0.000000 0.000000 1.000000
vn -0.976063 -0.000020 0.217490
vn -0.976063 -0.000020 0.217490
vn -0.976063 -0.000020 0.217490
vn -0.976063 -0.000020 0.217490
vn 0.000000 -0.976164 0.217035
vn 0.000000 -0.976164 0.217035
vn 0.000000 -0.976164 0.217035
vn 0.000000 -0.976164 0.217035
vn 0.976054 0.000020 0.217530
vn 0.976054 0.000020 0.217530
vn 0.976054 0.000020 0.217530
vn 0.976054 0.000020 0.217530
vn 0.000000 0.976164 0.217036
vn 0.000000 0.976164 0.217036
vn 0.000000 0.976164 0.217036
vn 0.000000 0.976164 0.217036
vn 0.000000 0.000000 1.000000
vn 0.000000 0.000000 1.000000
vn 0.000000 0.000000 1.000000
vn 0.000000 0.000000 1.000000
vn 0.000000 0.000000 1.000000
vn -0.000001 0.000000 1.000000
vn -0.000000 0.000000 1.000000
vn 0.000000 0.000000 1.000000
vn -0.000001 0.000000 1.000000
vn -0.000001 0.000000 1.000000
vn -0.000000 0.000000 1.000000
vn -0.000000 0.000000 1.000000
vn -0.000001 0.000000 1.000000
vn 0.000000 0.000000 1.000000
vn 0.000000 0.000000 1.000000
vn -0.000000 0.000000 1.000000
vn 0.000000 0.000000 1.000000
vn 0.000000 0.000000 1.000000
vn 0.000000 0.000000 1.000000
vn 0.000000 0.000000 1.000000
vn 0.000000 0.000000 1.000000
vn -0.000000 0.000000 1.000000
vn -0.000000 0.000000 1.000000
vn 0.000000 0.000000 1.000000
vn -0.000000 0.000000 1.000000
vn -0.000000 0.000000 1.000000
vn -0.000000 0.000000 1.000000
vn -0.000000 0.000000 1.000000
vn -0.000000 0.000000 1.000000
vn 0.000000 0.000000 1.000000
vn 0.000000 0.000000 1.000000
vn -0.000000 0.000000 1.000000
vn 0.000000 0.000000 1.000000
vn 0.000000 0.000000 1.000000
vn 0.000000 0.000000 1.000000
vn 0.000000 0.000000 1.000000
vn 0.000000 0.000000 1.000000
vn -0.000000 0.000000 1.000000
vn -0.000000 0.000000 1.000000
vn 0.000000 0.000000 1.000000
vn -0.000000 0.000000 1.000000
vn -0.000000 0.000000 1.000000
vn -0.000000 0.000000 1.000000
vn -0.000000 0.000000 1.000000
vn -0.000000 0.000000 1.000000
vn 0.000000 0.000000 1.000000
vn 0.000000 0.000000 1.000000
vn -0.000000 0.000000 1.000000
vn 0.000000 0.000000 1.000000
vn 0.000000 0.000000 1.000000
vn 0.000000 0.000000 1.000000
vn 0.000000 0.000000 1.000000
vn 0.000000 0.000000 1.000000
vn 0.000000 0.000000 1.000000
vn 0.000000 0.000000 1.000000
vn 0.000000 0.000000 1.000000
vn 0.000000 1.000000 0.000000
vn 0.000000 1.000000 0.000000
vn 0.000000 1.000000 0.000000
vn 0.000000 1.000000 0.000000
vn 0.000000 0.000000 -1.000000
vn 0.000000 0.000000 -1.000000
vn 0.000000 0.000000 -1.000000
vn 0.000000 0.000000 -1.000000
vn 0.000000 -1.000000 0.000000
vn 0.000000 -1.000000 0.000000
vn 0.000000 -1.000000 0.000000
vn 0.000000 -1.000000 0.000000
vn 1.000000 0.000000 0.000000
vn 1.000000 0.000000 0.000000
vn 1.000000 0.000000 0.000000
vn 1.000000 0.000000 0.000000
vn -1.000000 0.000000 0.000000
vn -1.000000 0.000000 0.000000
vn -1.000000 0.000000 0.000000
vn -1.000000 0.000000 0.000000
vn -1.000000 0.000000 0.000000
vn -1.000000 0.000000 0.000000
vn -1.000000 0.000000 0.000000
vn -1.000000 0.000000 0.000000
vn 0.000000 -1.000000 0.000000
vn 0.000000 -1.000000 0.000000
vn 0.000000 -1.000000 0.000000
vn 0.000000 -1.000000 0.000000
vn 1.000000 0.000000 0.000000
vn 1.000000 0.000000 0.000000
vn 1.000000 0.000000 0.000000
vn 1.000000 0.000000 0.000000
vn 0.000000 1.000000 0.000000
vn 0.000000 1.000000 0.000000
vn 0.000000 1.000000 0.000000
vn 0.000000 1.000000 0.000000
vn -1.000000 0.000000 0.000000
vn -1.000000 0.000000 0.000000
vn -1.000000 0.000000 0.000000
vn -1.000000 0.000000 0.000000
vn 0.000000 -1.000000 0.000000
vn 0.000000 -1.000000 0.000000
vn 0.000000 -1.000000 0.000000
vn 0.000000 -1.000000 0.000000
vn 1.000000 0.000000 0.000000
vn 1.000000 0.000000 0.000000
vn 1.000000 0.000000 0.000000
vn 1.000000 0.000000 0.000000
vn 0.000000 1.000000 0.000000
vn 0.000000 1.000000 0.000000
vn 0.000000 1.000000 0.000000
vn 0.000000 1.000000 0.000000
vn 0.000000 1.000000 0.000000
vn 0.000000 1.000000 0.000000
vn 0.000000 1.000000 0.000000
vn 0.000000 1.000000 0.000000
vn 0.000000 1.000000 0.000000
vn 0.000000 1.000000 0.000000
vn 0.000000 1.000000 0.000000
vn 0.000000 1.000000 0.000000
vn 0.000000 1.000000 0.000000
vn 0.000000 1.000000 0.000000
vn 0.000000 1.000000 0.000000
vn 0.000000 1.000000 0.000000
vn 0.000000 0.000000 -1.000000
vn 0.000000 0.000000 -1.000000
vn 0.000000 0.000000 -1.000000
vn 0.000000 0.000000 -1.000000
vn 0.000000 -1.000000 0.000000
vn 0.000000 -1.000000 0.000000
vn 0.000000 -1.000000 0.000000
vn 0.000000 -1.000000 0.000000
vn 0.000000 -1.000000 0.000000
vn 0.000000 -1.000000 0.000000
vn 0.000000 -1.000000 0.000000
vn 0.000000 -1.000000 0.000000
vn 0.000000 -1.000000 0.000000
vn 0.000000 -1.000000 0.000000
vn 0.000000 -1.000000 0.000000
vn 0.000000 -1.000000 0.000000
vn 0.000000 0.000000 1.000000
vn 0.000000 0.000000 1.000000
vn 0.000000 0.000000 1.000000
vn 0.000000 0.000000 1.000000
vn 0.000000 0.000000 1.000000
vn 0.000000 0.000000 1.000000
vn 0.000000 0.000000 1.000000
vn 0.000000 0.000000 1.000000
vn 0.000000 0.000000 1.000000
vn 0.000000 0.000000 1.000000
vn 0.000000 0.000000 1.000000
vn 0.000000 0.000000 1.000000
vn 0.000000 0.000000 1.000000
vn 0.000000 0.000000 1.000000
vn -0.000000 0.000000 1.000000
vn -0.000000 0.000000 1.000000
vn -0.000000 0.000000 1.000000
vn -0.000000 0.000000 1.000000
vn -0.000000 0.000000 1.000000
vn -0.000000 0.000000 1.000000
vn -0.000000 0.000000 1.000000
vn -0.000000 0.000000 1.000000
vn -0.000000 0.000000 1.000000
vn -0.000000 0.000000 1.000000
vn -0.000000 0.000000 1.000000
vn -0.000000 0.000000 1.000000
vn -0.000000 0.000000 1.000000
vn -0.000000 0.000000 1.000000
vn 0.000000 0.000000 1.000000
vn 0.000000 0.000000 1.000000
vn 0.000000 0.000000 1.000000
vn 0.000000 0.000000 1.000000
vn 0.000000 0.000000 1.000000
vn 0.000000 0.000000 1.000000
vn 0.000000 0.000000 1.000000
vn 0.000000 0.000000 1.000000
vn 0.000000 0.000000 1.000000
vn 0.000000 0.000000 1.000000
vn 0.000000 0.000000 1.000000
vn 0.000000 0.000000 1.000000
vn 0.000000 0.996479 0.083846
vn 0.000000 0.996479 0.083846
vn 0.000000 0.996479 0.083846
vn 0.000000 0.996479 0.083846
vn -0.986337 0.000000 0.164742
vn -0.986337 0.000000 0.164742
vn -0.986337 0.000000 0.164742
vn -0.986337 0.000000 0.164742
vn 0.000000 -0.996479 0.083846
vn 0.000000 -0.996479 0.083846
vn 0.000000 -0.996479 0.083846
vn 0.000000 -0.996479 0.083846
vn 0.563316 -0.814239 0.140322
vn 0.563316 -0.814239 0.140322
vn 0.563316 -0.814239 0.140322
vn 0.563316 -0.814239 0.140322
vn 0.000000 -1.000000 0.000000
vn 0.000000 -1.000000 0.000000
vn 0.000000 -1.000000 0.000000
vn 0.000000 -1.000000 0.000000
vn 0.000000 -1.000000 0.000000
vn 0.000000 -1.000000 0.000000
vn 0.000000 -1.000000 0.000000
vn 0.000000 -1.000000 0.000000
vn 0.000000 -1.000000 0.000000
vn 0.000000 -1.000000 0.000000
vn 0.000000 -1.000000 0.000000
vn 0.000000 -1.000000 0.000000
vn 0.000000 -1.000000 0.000000
vn 0.000000 -1.000000 0.000000
vn 0.000000 -1.000000 0.000000
vn 0.000000 -1.000000 0.000000
vn 0.000000 -1.000000 0.000000
vn 0.000000 -1.000000 0.000000
vn 0.000000 -1.000000 0.000000
vn 0.000000 -1.000000 0.000000
vn 0.000000 -1.000000 -0.000000
vn 0.000000 -1.000000 -0.000000
vn 0.000000 -1.000000 -0.000000
vn 0.000000 -1.000000 -0.000000
vn 0.000000 -1.000000 0.000000
vn 0.000000 -1.000000 0.000000
vn 0.000000 -1.000000 0.000000
vn 0.000000 -1.000000 0.000000
vn 0.000000 -1.000000 0.000000
vn 0.000000 -1.000000 0.000000
vn 0.000000 -1.000000 0.000000
vn 0.000000 -1.000000 0.000000
vn 0.000000 -1.000000 0.000000
vn 0.000000 -1.000000 0.000000
vn 0.000000 -1.000000 0.000000
vn 0.000000 -1.000000 0.000000
vn 0.000000 -1.000000 0.000000
vn 0.000000 -1.000000 0.000000
vn 0.000000 -1.000000 0.000000
vn 0.000000 -1.000000 0.000000
vn 0.000000 0.000000 1.000000
vn 0.000000 0.000000 1.000000
vn 0.000000 0.000000 1.000000
vn 0.000000 0.000000 1.000000
vn -1.000000 0.000000 0.000000
vn -1.000000 0.000000 0.000000
vn -1.000000 0.000000 0.000000
vn -1.000000 0.000000 0.000000
vn -1.000000 0.000000 0.000000
vn -1.000000 0.000000 0.000000
vn -1.000000 0.000000 0.000000
vn -1.000000 0.000000 0.000000
vn 0.022569 0.226831 -0.973673
vn 0.022569 0.226831 -0.973673
vn 0.022569 0.226831 -0.973673
vn 0.022569 0.226831 -0.973673
vn -1.000000 0.000000 0.000000
vn -1.000000 0.000000 0.000000
vn -1.000000 0.000000 0.000000
vn -1.000000 0.000000 0.000000
vn -0.060935 0.218112 -0.974019
vn -0.060935 0.218112 -0.974020
vn -0.060935 0.218112 -0.974020
vn -0.060935 0.218112 -0.974020
vn 1.000000 0.000000 0.000000
vn 1.000000 0.000000 0.000000
vn 1.000000 0.000000 0.000000
vn 1.000000 0.000000 0.000000
vn 1.000000 0.000000 0.000000
vn 1.000000 0.000000 0.000000
vn 1.000000 0.000000 0.000000
vn 1.000000 0.000000 0.000000
vn 1.000000 0.000000 0.000000
vn 1.000000 0.000000 0.000000
vn 1.000000 0.000000 0.000000
vn 1.000000 0.000000 0.000000
vn 0.000000 0.000000 1.000000
vn 0.000000 0.000000 1.000000
vn 0.000000 0.000000 1.000000
vn 0.000000 0.000000 1.000000
vn -0.000000 0.000000 1.000000
vn -0.000000 0.000000 1.000000
vn -0.000000 0.000000 1.000000
vn -0.000000 0.000000 1.000000
vn -0.000000 0.000000 1.000000
vn -0.000000 0.000000 1.000000
vn -0.000000 0.000000 1.000000
vn -0.000000 0.000000 1.000000
vn -0.000000 0.000000 1.000000
vn -0.000000 0.000000 1.000000
vn 0.000000 0.000000 1.000000
vn 0.000000 0.000000 1.000000
vn 0.000000 0.000000 1.000000
vn 0.000000 0.000000 1.000000
vn 0.000000 0.000000 1.000000
vn 0.000000 0.000000 1.000000
vn 0.000000 0.000000 1.000000
vn 0.000000 0.000000 1.000000
vn 0.563317 0.814238 0.140321
vn 0.563317 0.814238 0.140321
vn 0.563317 0.814238 0.140321
vn 0.563317 0.814238 0.140321
vn 0.986337 0.000000 0.164742
vn 0.986337 0.000000 0.164742
vn 0.986337 0.000000 0.164742
vn 0.986337 0.000000 0.164742
vn -0.563316 -0.814239 0.140322
vn -0.563316 -0.814239 0.140322
vn -0.563316 -0.814239 0.140322
vn -0.563316 -0.814239 0.140322
vn -0.563317 0.814238 0.140321
vn -0.563317 0.814238 0.140321
vn -0.563317 0.814238 0.140321
vn -0.563317 0.814238 0.140321
vn -0.000001 0.000000 1.000000
vn -0.000001 0.000000 1.000000
vn -0.000001 0.000000 1.000000
vn -0.000001 0.000000 1.000000
vn 0.000000 0.000000 1.000000
vn 0.000000 0.000000 1.000000
vn 0.000000 0.000000 1.000000
vn 0.000001 0.000000 1.000000
vn 0.000001 0.000000 1.000000
vn 0.000001 0.000000 1.000000
vn 0.000001 0.000000 1.000000
vn -0.000000 0.000000 1.000000
vn -0.000000 0.000000 1.000000
vn -0.000000 0.000000 1.000000
s off
f 26/1/1 25/2/2 27/3/3 28/4/4
f 1/5/5 4/6/6 5/7/7 6/8/8
f 4/6/9 3/9/10 7/10/11 5/7/12
f 3/9/13 2/11/14 8/12/15 7/10/16
f 2/11/17 1/5/18 6/8/19 8/12/20
f 30/13/21 29/14/22 31/15/23 32/16/24
f 9/17/25 12/18/26 13/19/27 14/20/28
f 12/18/29 11/21/30 15/22/31 13/19/32
f 11/21/33 10/23/34 16/24/35 15/22/36
f 10/23/37 9/17/38 14/20/39 16/24/40
f 34/25/41 33/26/42 35/27/43 36/28/44
f 17/29/45 20/30/46 21/31/47 22/32/48
f 20/30/49 19/33/50 23/34/51 21/31/52
f 19/33/53 18/35/54 24/36/55 23/34/56
f 18/35/57 17/29/58 22/32/59 24/36/60
f 6/8/61 5/7/62 25/37/63 26/38/64
f 5/7/65 7/10/66 27/39/67 25/37/68
f 7/10/69 8/12/70 28/40/71 27/39/72
f 8/12/73 6/8/74 26/38/75 28/40/76
f 14/20/77 13/19/78 29/41/79 30/42/80
f 13/19/81 15/22/82 31/43/83 29/41/84
f 15/22/85 16/24/86 32/44/87 31/43/88
f 16/24/89 14/20/90 30/42/91 32/44/92
f 22/32/93 21/31/94 33/45/95 34/46/96
f 21/31/97 23/34/98 35/47/99 33/45/100
f 23/34/101 24/36/102 36/48/103 35/47/104
f 24/36/105 22/32/106 34/46/107 36/48/108
f 67/49/109 68/50/110 107/159/111 106/158/112 69/51/113 70/52/114 104/156/115 102/154/116
f 39/53/117 53/54/118 54/55/119 49/56/120
f 41/57/121 56/58/122 57/59/123 43/60/124
f 81/61/125 82/62/126 83/63/127 84/64/128
f 38/65/129 51/66/130 52/67/131 40/68/132
f 49/56/133 50/69/134 37/70/135 39/53/136
f 46/71/137 45/72/138 41/73/139 43/74/140
f 85/75/141 86/76/142 87/77/143 88/78/144
f 42/79/145 48/80/146 47/81/147 44/82/148
f 41/73/149 45/72/150 55/83/151 56/84/152
f 45/85/153 46/86/154 50/87/155 49/88/156
f 87/77/157 86/76/158 82/62/159 81/61/160
f 52/89/161 51/90/162 47/91/163 48/92/164
f 49/88/165 54/93/166 55/94/167 45/85/168
f 54/95/169 53/96/170 40/68/171 52/67/172
f 55/94/173 54/93/174 52/89/175 48/92/176
f 56/84/177 55/83/178 48/80/179 42/79/180
f 57/59/181 56/58/182 42/97/183 44/98/184
f 89/99/185 86/76/186 85/75/187 90/100/188
f 82/62/189 86/76/190 89/99/191 91/101/192
f 83/63/193 82/62/194 91/101/195 92/102/196
f 53/96/197 96/144/198 94/140/199 93/138/200 95/142/201 58/103/202 38/65/203 40/68/204
f 37/70/205 58/104/206 60/105/207 100/152/208 97/146/209 59/106/210
f 61/107/211 95/141/212 93/137/213 94/139/214 96/143/215 53/54/216 39/53/217 62/108/218 98/147/219 99/149/220
f 39/53/221 37/70/222 59/106/223 62/108/224
f 59/109/225 97/145/226 63/112/227
f 105/157/228 61/113/229 65/114/230
f 66/116/231 98/148/232 62/115/233
f 101/153/234 59/109/235 63/112/236
f 63/112/237 64/111/238 68/50/239 67/49/240
f 105/157/241 106/158/242 107/159/243 108/160/244
f 65/114/245 66/116/246 70/52/247 69/51/248
f 66/116/249 103/155/250 104/156/251 70/52/252
f 58/117/253 37/118/254 73/119/255 72/120/256
f 37/118/257 50/121/258 71/122/259 73/119/260
f 46/123/261 43/124/262 76/125/263 75/126/264
f 43/124/265 57/127/266 74/128/267 76/125/268
f 50/121/269 46/123/270 75/126/271 71/122/272
f 57/127/273 44/129/274 78/130/275 74/128/276
f 44/129/277 47/131/278 77/132/279 78/130/280
f 47/131/281 51/133/282 79/134/283 77/132/284
f 51/133/285 38/135/286 80/136/287 79/134/288
f 38/135/289 58/117/290 72/120/291 80/136/292
f 72/120/293 73/119/294 84/64/295 83/63/296
f 73/119/297 71/122/298 81/61/299 84/64/300
f 75/126/301 76/125/302 88/78/303 87/77/304
f 76/125/305 74/128/306 85/75/307 88/78/308
f 71/122/309 75/126/310 87/77/311 81/61/312
f 74/128/313 78/130/314 90/100/315 85/75/316
f 78/130/317 77/132/318 89/99/319 90/100/320
f 77/132/321 79/134/322 91/101/323 89/99/324
f 79/134/325 80/136/326 92/102/327 91/101/328
f 80/136/329 72/120/330 83/63/331 92/102/332
f 61/107/333 60/105/334 58/104/335 95/141/336
f 64/111/337 100/151/338 60/110/339
f 61/113/340 99/150/341 65/114/342
f 65/114/343 99/150/344 98/148/345 66/116/346
f 63/112/347 97/145/348 100/151/349 64/111/350
f 102/154/351 101/153/352 63/112/353 67/49/354
f 104/156/355 103/155/356 101/153/357 102/154/358
f 106/158/359 105/157/360 65/114/361 69/51/362
f 64/111/363 108/160/364 107/159/365 68/50/366
f 60/110/367 61/113/368 105/157/369 108/160/370
f 60/110/371 108/160/372 64/111/373
f 62/115/374 59/109/375 101/153/376 103/155/377
f 62/115/378 103/155/379 66/116/380
