# This file uses meters as units for non-parametric coordinates.

v -240.755356 -82.526512 -0.000048
v 240.755280 -82.526512 -0.000048
v -240.755356 0.000000 16.311361
v 240.755280 0.000000 16.311361
v -240.755356 0.000000 -0.000048
v 240.755280 0.000000 -0.000048
v -240.755356 -68.713379 52.531860
v 240.755280 -68.713379 52.531860
v 240.755280 -52.351097 52.531860
v -240.755356 -52.351097 52.531860
v -232.058136 -6.084251 -0.000048
v 232.058716 -6.084251 -0.000048
v 232.058716 -82.526512 -0.000048
v -232.058136 -82.526512 -0.000048
v 232.058716 -68.713379 43.471809
v -232.058136 -68.713379 43.471809
v 232.058716 -6.084251 14.924908
v -232.058136 -6.084251 14.924908
v 0.000477 -6.084251 14.924908
v 0.000477 -68.713379 43.471809
v 0.000381 -68.713379 52.531860
v 0.000381 -52.351097 52.531860
v 0.000381 0.000000 16.311361
v 0.000381 0.000000 -0.000048
v 0.000477 -6.084251 -0.000048
v -116.028877 -9.367990 -0.000095
v -120.377258 -3.283739 -0.000095
v -120.377258 -3.283739 13.072205
v -120.377258 -55.634834 49.292709
v -120.377258 -71.997139 49.292709
v -116.028877 -71.997139 40.232655
v -116.028877 -9.367990 11.685753
v 116.029549 -9.367990 11.685753
v 116.029549 -71.997139 40.232655
v 120.378021 -71.997139 49.292709
v 120.378021 -55.634834 49.292709
v 120.378021 -3.283739 13.072205
v 120.378021 -3.283739 -0.000095
v 116.029549 -9.367990 -0.000095
v -133.088196 -86.342400 52.531860
v -129.701889 -86.342400 43.471809
v -226.830872 -86.342400 52.531860
v -220.058151 -86.342400 43.471809
v 133.088776 -88.777328 52.531956
v 226.830673 -86.342400 52.531956
v 129.702469 -88.777328 43.471863
v 220.058823 -86.342400 43.471863
v -13.119412 -88.777328 43.471809
v -13.119412 -88.777328 52.531860
v -106.861786 -88.723686 52.531860
v -103.475571 -88.723686 43.471809
v 103.476425 -86.342400 43.471809
v 106.862732 -86.342400 52.531860
v 13.120174 -88.723686 52.531860
v 13.120270 -88.723686 43.471809
v 232.058716 -85.449104 20.082235
v 240.755280 -85.449104 24.612236
v 240.755280 -34.534382 32.767914
v 120.378021 -37.818123 29.528761
v 0.000381 -34.534382 32.767914
v -120.377258 -37.818123 29.528761
v -240.755356 -34.534382 32.767914
v -240.755356 -85.449104 24.612236
v -232.058136 -85.449104 20.082235
vt 0.145787 0.444432
vt 0.145787 0.444432
vt 0.145787 0.444432
vt 0.145787 0.444432
vt 0.145787 0.444432
vt 0.145787 0.444432
vt 0.145787 0.444432
vt 0.145787 0.444432
vt 0.145787 0.444432
vt 0.145787 0.444432
vt 0.145787 0.444432
vt 0.145787 0.444432
vt 0.145787 0.444432
vt 0.145787 0.444432
vt 0.145787 0.444432
vt 0.145787 0.444432
vt 0.145787 0.444432
vt 0.145787 0.444432
vt 0.145787 0.444432
vt 0.145787 0.444432
vt 0.145787 0.444432
vt 0.145787 0.444432
vt 0.145787 0.444432
vt 0.145787 0.444432
vt 0.145787 0.444432
vt 0.145787 0.444432
vt 0.145787 0.444432
vt 0.145787 0.444432
vt 0.145787 0.444432
vt 0.145787 0.444432
vt 0.145787 0.444432
vt 0.145787 0.444432
vt 0.145787 0.444432
vt 0.145787 0.444432
vt 0.145787 0.444432
vt 0.145787 0.444432
vt 0.145787 0.444432
vt 0.145787 0.444432
vt 0.145787 0.444432
vt 0.145787 0.444432
vt 0.145787 0.444432
vt 0.145787 0.444432
vt 0.145787 0.444432
vt 0.145787 0.444432
vt 0.145787 0.444432
vt 0.145787 0.444432
vt 0.145787 0.444432
vt 0.145787 0.444432
vt 0.145787 0.444432
vt 0.145787 0.444432
vt 0.145787 0.444432
vt 0.145787 0.444432
vt 0.145787 0.444432
vt 0.145787 0.444432
vt 0.145787 0.444432
vt 0.145787 0.444432
vt 0.145787 0.444432
vt 0.145787 0.444432
vt 0.145787 0.444432
vt 0.145787 0.444432
vt 0.145787 0.444432
vt 0.145787 0.444432
vt 0.145787 0.444432
vt 0.145787 0.444432
vt 0.145787 0.444432
vt 0.145787 0.444432
vt 0.145787 0.444432
vt 0.145787 0.444432
vt 0.145787 0.444432
vt 0.145787 0.444432
vt 0.145787 0.444432
vt 0.145787 0.444432
vt 0.145787 0.444432
vt 0.145787 0.444432
vt 0.145787 0.444432
vn -0.026898 0.000000 0.999638
vn -0.026898 0.000000 0.999638
vn -0.026898 0.000000 0.999638
vn -0.026898 0.000000 0.999638
vn -0.027269 0.999628 0.000000
vn -0.027269 0.999628 0.000000
vn -0.027269 0.999628 0.000000
vn -0.027269 0.999628 0.000000
vn 0.028290 -0.999600 0.000000
vn 0.028290 -0.999600 0.000000
vn 0.028290 -0.999600 0.000000
vn 0.028290 -0.999600 0.000000
vn 1.000000 0.000000 0.000000
vn 1.000000 0.000000 0.000000
vn 1.000000 0.000000 0.000000
vn -1.000000 0.000000 0.000000
vn -1.000000 0.000000 0.000000
vn -1.000000 0.000000 0.000000
vn 0.037115 -0.414470 -0.909306
vn 0.037115 -0.414470 -0.909306
vn 0.037115 -0.414470 -0.909306
vn 0.037115 -0.414470 -0.909306
vn 1.000000 0.000000 0.000000
vn 1.000000 0.000000 0.000000
vn 1.000000 0.000000 0.000000
vn 1.000000 0.000000 0.000000
vn -0.038250 0.742206 0.669080
vn -0.038250 0.742206 0.669080
vn -0.038250 0.742206 0.669080
vn -0.038250 0.742206 0.669080
vn -1.000000 0.000001 0.000000
vn -1.000000 0.000001 0.000000
vn -1.000000 0.000001 0.000000
vn -1.000000 0.000001 0.000000
vn 0.000000 0.000000 -1.000000
vn 0.000000 0.000000 -1.000000
vn 0.000000 0.000000 -1.000000
vn 0.000000 0.000000 -1.000000
vn -0.000000 0.000000 -1.000000
vn -0.000000 0.000000 -1.000000
vn -0.000000 0.000000 -1.000000
vn -0.000000 0.000000 -1.000000
vn 0.000000 0.000000 -1.000000
vn 0.000000 0.000000 -1.000000
vn 0.000000 0.000000 -1.000000
vn 0.000000 0.000000 -1.000000
vn -0.392623 -0.770289 0.502496
vn -0.392623 -0.770289 0.502496
vn -0.392623 -0.770289 0.502496
vn -0.392623 -0.770289 0.502496
vn -0.000583 -1.000000 -0.000109
vn -0.000583 -1.000000 -0.000109
vn -0.000583 -1.000000 -0.000109
vn -0.000583 -1.000000 -0.000109
vn 0.392598 -0.770298 0.502501
vn 0.392598 -0.770298 0.502501
vn 0.392598 -0.770298 0.502501
vn 0.392598 -0.770298 0.502501
vn -1.000000 -0.000000 0.000000
vn -1.000000 -0.000000 0.000000
vn -1.000000 -0.000000 0.000000
vn -1.000000 -0.000000 0.000000
vn 1.000000 0.000001 0.000000
vn 1.000000 0.000001 0.000000
vn 1.000000 0.000001 0.000000
vn -0.037115 -0.414470 -0.909306
vn -0.037115 -0.414470 -0.909306
vn -0.037115 -0.414470 -0.909306
vn -0.037115 -0.414470 -0.909306
vn 0.025861 -0.999654 -0.004833
vn 0.025861 -0.999654 -0.004833
vn 0.025861 -0.999654 -0.004833
vn 0.025861 -0.999654 -0.004833
vn 0.026899 0.000000 0.999638
vn 0.026899 0.000000 0.999638
vn 0.026899 0.000000 0.999638
vn 0.026899 0.000000 0.999638
vn 0.038250 0.742206 0.669080
vn 0.038250 0.742206 0.669080
vn 0.038250 0.742206 0.669080
vn 0.038250 0.742206 0.669080
vn 0.027269 0.999628 0.000000
vn 0.027269 0.999628 0.000000
vn 0.027269 0.999628 0.000000
vn 0.027269 0.999628 0.000000
vn -0.000000 0.000000 -1.000000
vn -0.000000 0.000000 -1.000000
vn -0.000000 0.000000 -1.000000
vn -0.000000 0.000000 -1.000000
vn -0.028290 -0.999600 0.000000
vn -0.028290 -0.999600 0.000000
vn -0.028290 -0.999600 0.000000
vn -0.028290 -0.999600 0.000000
vn -0.000000 -0.000000 -1.000000
vn -0.000000 -0.000000 -1.000000
vn -0.000000 -0.000000 -1.000000
vn -0.000000 -0.000000 -1.000000
vn 0.027268 0.999628 0.000000
vn 0.027268 0.999628 0.000000
vn 0.027268 0.999628 0.000000
vn 0.027268 0.999628 0.000000
vn 0.038250 0.742206 0.669080
vn 0.038250 0.742206 0.669080
vn 0.038250 0.742206 0.669080
vn 0.038250 0.742205 0.669080
vn 0.026898 0.000000 0.999638
vn 0.026898 0.000000 0.999638
vn 0.026898 0.000000 0.999638
vn 0.026898 0.000000 0.999638
vn 0.000000 -1.000000 0.000000
vn 0.000000 -1.000000 0.000000
vn 0.000000 -1.000000 0.000000
vn 0.000000 -1.000000 0.000000
vn -0.037115 -0.414470 -0.909306
vn -0.037115 -0.414470 -0.909306
vn -0.037115 -0.414470 -0.909306
vn -0.037115 -0.414470 -0.909306
vn -0.028290 -0.999600 0.000000
vn -0.028290 -0.999600 0.000000
vn -0.028290 -0.999600 0.000000
vn -0.028290 -0.999600 0.000000
vn 0.037115 -0.414470 -0.909306
vn 0.037115 -0.414470 -0.909306
vn 0.037115 -0.414470 -0.909306
vn 0.037115 -0.414470 -0.909306
vn 0.026440 -0.999541 -0.014822
vn 0.026440 -0.999541 -0.014822
vn 0.026440 -0.999541 -0.014822
vn 0.026440 -0.999541 -0.014822
vn -0.026899 0.000000 0.999638
vn -0.026899 0.000000 0.999638
vn -0.026899 0.000000 0.999638
vn -0.026899 0.000000 0.999638
vn -0.038250 0.742206 0.669080
vn -0.038250 0.742206 0.669080
vn -0.038250 0.742206 0.669080
vn -0.038250 0.742206 0.669080
vn -0.027269 0.999628 0.000000
vn -0.027269 0.999628 0.000000
vn -0.027269 0.999628 0.000000
vn -0.027269 0.999628 0.000000
vn 0.000000 -0.000000 -1.000000
vn 0.000000 -0.000000 -1.000000
vn 0.000000 -0.000000 -1.000000
vn 0.000000 -0.000000 -1.000000
vn 0.028290 -0.999600 0.000000
vn 0.028290 -0.999600 0.000000
vn 0.028290 -0.999600 0.000000
vn 0.028290 -0.999600 0.000000
vn 0.733255 -0.603631 0.312995
vn 0.733255 -0.603631 0.312995
vn 0.733255 -0.603631 0.312995
vn 0.733255 -0.603631 0.312995
vn 0.016603 0.101399 0.994707
vn 0.016603 0.101399 0.994707
vn 0.016603 0.101399 0.994707
vn 0.016603 0.101399 0.994707
vn -0.663795 -0.488073 -0.566711
vn -0.663795 -0.488074 -0.566711
vn -0.663795 -0.488074 -0.566711
vn -0.663795 -0.488074 -0.566711
vn -0.017203 -0.099883 -0.994851
vn -0.017203 -0.099883 -0.994851
vn -0.017203 -0.099883 -0.994851
vn -0.017203 -0.099883 -0.994851
vn -0.017577 0.094327 0.995386
vn -0.017577 0.094327 0.995386
vn -0.017577 0.094327 0.995386
vn -0.017577 0.094327 0.995386
vn -0.772095 -0.543367 0.329577
vn -0.772095 -0.543367 0.329577
vn -0.772096 -0.543367 0.329577
vn -0.772095 -0.543367 0.329578
vn 0.018197 -0.092832 -0.995515
vn 0.018197 -0.092832 -0.995516
vn 0.018197 -0.092832 -0.995516
vn 0.018197 -0.092832 -0.995515
vn 0.663815 -0.488091 -0.566672
vn 0.663815 -0.488091 -0.566672
vn 0.663815 -0.488091 -0.566672
vn 0.663815 -0.488091 -0.566672
vn 0.836948 -0.547282 0.000004
vn 0.836948 -0.547282 0.000004
vn 0.836948 -0.547282 0.000004
vn 0.836948 -0.547282 0.000004
vn -0.016388 0.087517 0.996028
vn -0.016388 0.087517 0.996028
vn -0.016388 0.087517 0.996028
vn -0.016388 0.087517 0.996028
vn -0.720728 -0.621214 -0.307644
vn -0.720728 -0.621214 -0.307644
vn -0.720728 -0.621214 -0.307644
vn -0.720728 -0.621214 -0.307644
vn 0.017008 -0.087951 -0.995980
vn 0.017008 -0.087951 -0.995980
vn 0.017008 -0.087951 -0.995980
vn 0.017008 -0.087951 -0.995980
vn 0.675395 -0.678767 -0.288301
vn 0.675395 -0.678767 -0.288301
vn 0.675395 -0.678767 -0.288301
vn 0.675395 -0.678767 -0.288301
vn 0.015454 0.093679 0.995483
vn 0.015454 0.093679 0.995483
vn 0.015454 0.093679 0.995483
vn 0.015454 0.093679 0.995483
vn -0.836277 -0.548307 -0.000008
vn -0.836277 -0.548307 -0.000008
vn -0.836277 -0.548307 -0.000008
vn -0.836277 -0.548307 -0.000008
vn -0.016035 -0.094117 -0.995432
vn -0.016035 -0.094117 -0.995432
vn -0.016035 -0.094117 -0.995432
vn -0.016035 -0.094117 -0.995432
vn 0.033755 -0.990991 -0.129603
vn 0.033755 -0.990991 -0.129603
vn 0.033755 -0.990991 -0.129603
vn 0.033755 -0.990991 -0.129603
vn 1.000000 0.000000 0.000000
vn 1.000000 0.000000 0.000000
vn 1.000000 0.000000 0.000000
vn 1.000000 0.000000 0.000000
vn -0.036003 0.429902 0.902157
vn -0.036003 0.429902 0.902157
vn -0.036003 0.429902 0.902157
vn -0.036003 0.429902 0.902157
vn 0.036003 0.429902 0.902157
vn 0.036003 0.429902 0.902157
vn 0.036003 0.429902 0.902157
vn 0.036003 0.429902 0.902157
vn -0.036003 0.429902 0.902157
vn -0.036003 0.429902 0.902157
vn -0.036003 0.429902 0.902157
vn -0.036003 0.429902 0.902157
vn 0.036003 0.429902 0.902157
vn 0.036003 0.429902 0.902157
vn 0.036003 0.429902 0.902157
vn 0.036003 0.429902 0.902157
vn -1.000000 -0.000000 0.000000
vn -1.000000 -0.000000 0.000000
vn -1.000000 -0.000000 0.000000
vn -1.000000 -0.000000 0.000000
vn -0.033752 -0.990991 -0.129603
vn -0.033752 -0.990991 -0.129603
vn -0.033752 -0.990991 -0.129603
vn -0.033752 -0.990991 -0.129603
vn 1.000000 -0.000000 0.000000
vn 1.000000 -0.000000 0.000000
vn 1.000000 -0.000000 0.000000
vn 1.000000 -0.000000 0.000000
vn -1.000000 0.000000 0.000000
vn -1.000000 0.000000 0.000000
vn -1.000000 0.000000 0.000000
s off
f 29/38/1 30/39/2 21/30/3 22/31/4
f 27/36/5 28/37/6 23/32/7 24/33/8
f 32/42/9 26/35/10 25/34/11 19/28/12
f 2/2/13 6/9/14 4/4/15
f 1/1/16 3/3/17 5/10/18
f 31/40/19 32/41/20 19/27/21 20/29/22
f 57/68/23 58/69/24 9/13/25 8/12/26
f 22/31/27 60/71/28 61/72/29 29/38/30
f 62/73/31 63/74/32 7/11/33 10/14/34
f 26/35/35 27/36/36 24/33/37 25/34/38
f 6/6/39 2/8/40 13/17/41 12/16/42
f 1/7/43 5/5/44 11/15/45 14/18/46
f 56/67/47 57/68/48 8/12/49 15/20/50
f 48/59/51 49/60/52 50/61/53 51/62/54
f 7/11/55 63/74/56 64/75/57 16/21/58
f 17/23/59 12/16/60 13/19/61 56/67/62
f 16/21/63 64/75/64 18/26/65
f 20/29/66 19/27/67 33/43/68 34/45/69
f 52/63/70 53/64/71 54/65/72 55/66/73
f 22/31/74 21/30/75 35/46/76 36/47/77
f 36/47/78 59/70/79 60/71/80 22/31/81
f 24/33/82 23/32/83 37/48/84 38/49/85
f 25/34/86 24/33/87 38/49/88 39/50/89
f 19/28/90 25/34/91 39/50/92 33/44/93
f 5/5/94 27/36/95 26/35/96 11/15/97
f 3/3/98 28/37/99 27/36/100 5/5/101
f 29/38/102 61/72/103 62/73/104 10/14/105
f 7/11/106 30/39/107 29/38/108 10/14/109
f 41/51/110 40/52/111 42/53/112 43/54/113
f 18/26/114 32/41/115 31/40/116 16/21/117
f 11/15/118 26/35/119 32/42/120 18/24/121
f 34/45/122 33/43/123 17/25/124 15/20/125
f 45/55/126 44/56/127 46/57/128 47/58/129
f 36/47/130 35/46/131 8/12/132 9/13/133
f 58/69/134 59/70/135 36/47/136 9/13/137
f 38/49/138 37/48/139 4/4/140 6/6/141
f 39/50/142 38/49/143 6/6/144 12/16/145
f 33/44/146 39/50/147 12/16/148 17/23/149
f 31/40/150 30/39/151 40/52/152 41/51/153
f 30/39/154 7/11/155 42/53/156 40/52/157
f 7/11/158 16/21/159 43/54/160 42/53/161
f 16/21/162 31/40/163 41/51/164 43/54/165
f 8/12/166 35/46/167 44/56/168 45/55/169
f 35/46/170 34/45/171 46/57/172 44/56/173
f 34/45/174 15/20/175 47/58/176 46/57/177
f 15/20/178 8/12/179 45/55/180 47/58/181
f 20/29/182 21/30/183 49/60/184 48/59/185
f 21/30/186 30/39/187 50/61/188 49/60/189
f 30/39/190 31/40/191 51/62/192 50/61/193
f 31/40/194 20/29/195 48/59/196 51/62/197
f 34/45/198 35/46/199 53/64/200 52/63/201
f 35/46/202 21/30/203 54/65/204 53/64/205
f 21/30/206 20/29/207 55/66/208 54/65/209
f 20/29/210 34/45/211 52/63/212 55/66/213
f 2/2/214 57/68/215 56/67/216 13/19/217
f 2/2/218 4/4/219 58/69/220 57/68/221
f 4/4/222 37/48/223 59/70/224 58/69/225
f 60/71/226 59/70/227 37/48/228 23/32/229
f 61/72/230 60/71/231 23/32/232 28/37/233
f 62/73/234 61/72/235 28/37/236 3/3/237
f 3/3/238 1/1/239 63/74/240 62/73/241
f 64/75/242 63/74/243 1/1/244 14/22/245
f 18/26/246 64/75/247 14/18/248 11/15/249
f 17/25/250 56/67/251 15/20/252
