# This file uses meters as units for non-parametric coordinates.

v 3.686081 0.000000 -3.686035
v 0.000015 0.000000 -5.212769
v -3.685959 0.000000 -3.686035
v -5.212814 0.000000 0.000000
v -3.685959 0.000000 3.686035
v 0.000015 0.000000 5.212891
v 3.686081 0.000000 3.686035
v 5.212814 0.000000 0.000000
v 3.471207 10.425674 -3.471130
v 0.000015 10.425674 -4.908813
v -3.471207 10.425674 -3.471130
v -4.908920 10.425674 0.000000
v -3.471207 10.425674 3.471252
v 0.000015 10.425674 4.909058
v 3.471207 10.425674 3.471252
v 4.909050 10.425674 0.000000
v 0.000015 0.000000 0.000000
v -3.685959 9.552246 3.686035
v -5.212814 9.552246 0.000000
v -3.685959 9.552246 -3.686035
v 0.000015 9.552246 -5.212769
v 3.686081 9.552246 -3.686035
v 5.212814 9.552246 0.000000
v 3.686081 9.552246 3.686035
v 0.000015 9.552246 5.212891
v 2.944931 10.425674 -2.944885
v 0.000015 10.425674 -4.164673
v -2.944839 10.425674 -2.944885
v -4.164749 10.425674 0.000000
v -2.944839 10.425674 2.944885
v 0.000015 10.425674 4.164734
v 2.944931 10.425674 2.944885
v 4.164688 10.425674 0.000000
v 2.944931 7.660004 -2.944885
v 0.000015 7.660004 -4.164673
v -2.944839 7.660004 -2.944885
v -4.164749 7.660004 0.000000
v -2.944839 7.660004 2.944885
v 0.000015 7.660004 4.164734
v 2.944931 7.660004 2.944885
v 4.164688 7.660004 0.000000
vt 0.370753 0.472612
vt 0.370583 0.472612
vt 0.370583 0.473001
vt 0.370753 0.473002
vt 0.370464 0.472574
vt 0.370464 0.472963
vt 0.370467 0.472522
vt 0.370467 0.472911
vt 0.370589 0.472486
vt 0.370589 0.472875
vt 0.370760 0.472487
vt 0.370760 0.472876
vt 0.370879 0.472524
vt 0.370879 0.472913
vt 0.370876 0.472576
vt 0.370876 0.472965
vt 0.370671 0.472549
vt 0.370594 0.472915
vt 0.370479 0.472949
vt 0.370476 0.472998
vt 0.370588 0.473033
vt 0.370749 0.473034
vt 0.370864 0.472999
vt 0.370867 0.472950
vt 0.370755 0.472915
vt 0.370601 0.473024
vt 0.370737 0.473025
vt 0.370506 0.472994
vt 0.370508 0.472952
vt 0.370606 0.472924
vt 0.370742 0.472924
vt 0.370837 0.472954
vt 0.370835 0.472996
vt 0.372730 0.474444
vt 0.367416 0.474444
vt 0.367416 0.469130
vt 0.372730 0.469130
vt 0.372730 0.474444
vt 0.367416 0.474444
vt 0.367416 0.469130
vt 0.372730 0.469130
vt 0.372730 0.474444
vt 0.367416 0.474444
vt 0.367416 0.469130
vt 0.372730 0.469130
vt 0.372730 0.474444
vt 0.367416 0.474444
vt 0.367416 0.469130
vt 0.372730 0.469130
vt 0.372730 0.474444
vt 0.367416 0.474444
vt 0.367416 0.469130
vt 0.372730 0.469130
vt 0.372730 0.474444
vt 0.367416 0.474444
vt 0.367416 0.469130
vt 0.372730 0.469130
vt 0.372730 0.474444
vt 0.367416 0.474444
vt 0.367416 0.469130
vt 0.372730 0.469130
vt 0.372730 0.474444
vt 0.367416 0.474444
vt 0.367416 0.469130
vt 0.372730 0.469130
vn 0.382665 0.000000 -0.923887
vn 0.382665 0.000000 -0.923887
vn 0.382665 0.000000 -0.923887
vn 0.382665 0.000000 -0.923887
vn -0.382673 0.000000 -0.923884
vn -0.382673 0.000000 -0.923884
vn -0.382673 0.000000 -0.923884
vn -0.382673 0.000000 -0.923884
vn -0.923875 0.000000 -0.382694
vn -0.923875 0.000000 -0.382694
vn -0.923875 0.000000 -0.382694
vn -0.923875 0.000000 -0.382694
vn -0.923875 0.000000 0.382694
vn -0.923875 0.000000 0.382694
vn -0.923875 0.000000 0.382694
vn -0.923875 0.000000 0.382694
vn -0.382699 0.000000 0.923873
vn -0.382699 0.000000 0.923873
vn -0.382699 0.000000 0.923873
vn -0.382699 0.000000 0.923873
vn 0.382691 0.000000 0.923876
vn 0.382691 0.000000 0.923876
vn 0.382691 0.000000 0.923876
vn 0.382691 0.000000 0.923876
vn 0.923886 0.000000 0.382668
vn 0.923886 0.000000 0.382668
vn 0.923886 0.000000 0.382668
vn 0.923886 0.000000 0.382668
vn 0.923886 0.000000 -0.382668
vn 0.923886 0.000000 -0.382668
vn 0.923886 0.000000 -0.382668
vn 0.923886 0.000000 -0.382668
vn 0.000000 -1.000000 0.000000
vn 0.000000 -1.000000 0.000000
vn 0.000000 -1.000000 0.000000
vn 0.000000 -1.000000 0.000000
vn 0.000000 -1.000000 0.000000
vn 0.000000 -1.000000 0.000000
vn 0.000000 -1.000000 0.000000
vn 0.000000 -1.000000 0.000000
vn 0.000000 -1.000000 0.000000
vn 0.000000 -1.000000 0.000000
vn 0.000000 -1.000000 0.000000
vn 0.000000 -1.000000 0.000000
vn 0.000000 -1.000000 0.000000
vn 0.000000 -1.000000 0.000000
vn 0.000000 -1.000000 0.000000
vn 0.000000 -1.000000 0.000000
vn 0.000000 -1.000000 0.000000
vn 0.000000 -1.000000 0.000000
vn 0.000000 -1.000000 0.000000
vn 0.000000 -1.000000 0.000000
vn 0.000000 -1.000000 0.000000
vn 0.000000 -1.000000 0.000000
vn 0.000000 -1.000000 0.000000
vn 0.000000 -1.000000 0.000000
vn -0.879582 0.305945 0.364326
vn -0.879582 0.305945 0.364326
vn -0.879582 0.305945 0.364326
vn -0.879582 0.305945 0.364326
vn -0.879573 0.305968 -0.364328
vn -0.879573 0.305968 -0.364328
vn -0.879573 0.305968 -0.364328
vn -0.879573 0.305968 -0.364328
vn -0.364302 0.306037 -0.879560
vn -0.364302 0.306037 -0.879560
vn -0.364302 0.306037 -0.879560
vn -0.364302 0.306037 -0.879560
vn 0.364297 0.306060 -0.879554
vn 0.364297 0.306060 -0.879554
vn 0.364297 0.306060 -0.879554
vn 0.364297 0.306060 -0.879554
vn 0.879574 0.305965 -0.364329
vn 0.879574 0.305965 -0.364329
vn 0.879574 0.305965 -0.364329
vn 0.879574 0.305965 -0.364329
vn 0.879583 0.305942 0.364326
vn 0.879583 0.305942 0.364326
vn 0.879583 0.305942 0.364326
vn 0.879583 0.305942 0.364326
vn 0.364336 0.305949 0.879577
vn 0.364336 0.305949 0.879577
vn 0.364336 0.305949 0.879577
vn 0.364336 0.305949 0.879576
vn -0.364341 0.305925 0.879582
vn -0.364341 0.305925 0.879582
vn -0.364341 0.305926 0.879582
vn -0.364341 0.305925 0.879582
vn 0.000000 1.000000 -0.000001
vn 0.000000 1.000000 -0.000001
vn 0.000000 1.000000 -0.000001
vn 0.000000 1.000000 -0.000001
vn 0.000000 1.000000 0.000001
vn 0.000000 1.000000 0.000001
vn 0.000000 1.000000 0.000001
vn 0.000000 1.000000 0.000001
vn 0.000000 1.000000 -0.000000
vn 0.000000 1.000000 -0.000000
vn 0.000000 1.000000 -0.000000
vn 0.000000 1.000000 -0.000000
vn 0.000000 1.000000 -0.000000
vn 0.000000 1.000000 -0.000000
vn 0.000000 1.000000 -0.000000
vn 0.000000 1.000000 -0.000000
vn 0.000000 1.000000 -0.000000
vn 0.000000 1.000000 -0.000000
vn 0.000000 1.000000 -0.000000
vn 0.000000 1.000000 -0.000000
vn 0.000000 1.000000 0.000001
vn 0.000000 1.000000 0.000001
vn 0.000000 1.000000 0.000001
vn 0.000000 1.000000 0.000001
vn 0.000000 1.000000 0.000000
vn 0.000000 1.000000 0.000000
vn 0.000000 1.000000 0.000000
vn 0.000000 1.000000 0.000000
vn 0.000000 1.000000 -0.000000
vn 0.000000 1.000000 -0.000000
vn 0.000000 1.000000 -0.000000
vn 0.000000 1.000000 -0.000000
vn -0.382674 0.000000 0.923884
vn -0.382674 0.000000 0.923884
vn -0.382674 0.000000 0.923884
vn -0.382674 0.000000 0.923884
vn 0.382680 0.000000 0.923881
vn 0.382680 0.000000 0.923881
vn 0.382680 0.000000 0.923881
vn 0.382680 0.000000 0.923881
vn 0.923869 0.000000 0.382710
vn 0.923869 0.000000 0.382710
vn 0.923869 0.000000 0.382710
vn 0.923869 0.000000 0.382710
vn 0.923869 0.000000 -0.382710
vn 0.923869 0.000000 -0.382710
vn 0.923869 0.000000 -0.382710
vn 0.923869 0.000000 -0.382710
vn 0.382697 0.000000 -0.923874
vn 0.382697 0.000000 -0.923874
vn 0.382697 0.000000 -0.923874
vn 0.382697 0.000000 -0.923874
vn -0.382690 0.000000 -0.923877
vn -0.382690 0.000000 -0.923877
vn -0.382690 0.000000 -0.923877
vn -0.382690 0.000000 -0.923877
vn -0.923886 0.000000 -0.382669
vn -0.923886 0.000000 -0.382669
vn -0.923886 0.000000 -0.382669
vn -0.923886 0.000000 -0.382669
vn -0.923886 0.000000 0.382669
vn -0.923886 0.000000 0.382669
vn -0.923886 0.000000 0.382669
vn -0.923886 0.000000 0.382669
s off
f 1/1/1 2/2/2 21/3/3 22/4/4
f 2/2/5 3/5/6 20/6/7 21/3/8
f 3/5/9 4/7/10 19/8/11 20/6/12
f 4/7/13 5/9/14 18/10/15 19/8/16
f 5/9/17 6/11/18 25/12/19 18/10/20
f 6/11/21 7/13/22 24/14/23 25/12/24
f 7/13/25 8/15/26 23/16/27 24/14/28
f 8/15/29 1/1/30 22/4/31 23/16/32
f 2/2/33 1/1/34 17/17/35
f 3/5/36 2/2/37 17/17/38
f 4/7/39 3/5/40 17/17/41
f 5/9/42 4/7/43 17/17/44
f 6/11/45 5/9/46 17/17/47
f 7/13/48 6/11/49 17/17/50
f 8/15/51 7/13/52 17/17/53
f 1/1/54 8/15/55 17/17/56
f 19/8/57 18/10/58 13/18/59 12/19/60
f 20/6/61 19/8/62 12/19/63 11/20/64
f 21/3/65 20/6/66 11/20/67 10/21/68
f 22/4/69 21/3/70 10/21/71 9/22/72
f 23/16/73 22/4/74 9/22/75 16/23/76
f 24/14/77 23/16/78 16/23/79 15/24/80
f 25/12/81 24/14/82 15/24/83 14/25/84
f 18/10/85 25/12/86 14/25/87 13/18/88
f 9/22/89 10/21/90 27/26/91 26/27/92
f 10/21/93 11/20/94 28/28/95 27/26/96
f 11/20/97 12/19/98 29/29/99 28/28/100
f 12/19/101 13/18/102 30/30/103 29/29/104
f 13/18/105 14/25/106 31/31/107 30/30/108
f 14/25/109 15/24/110 32/32/111 31/31/112
f 15/24/113 16/23/114 33/33/115 32/32/116
f 16/23/117 9/22/118 26/27/119 33/33/120
f 26/34/121 27/35/122 35/36/123 34/37/124
f 27/38/125 28/39/126 36/40/127 35/41/128
f 28/42/129 29/43/130 37/44/131 36/45/132
f 29/46/133 30/47/134 38/48/135 37/49/136
f 30/50/137 31/51/138 39/52/139 38/53/140
f 31/54/141 32/55/142 40/56/143 39/57/144
f 32/58/145 33/59/146 41/60/147 40/61/148
f 33/62/149 26/63/150 34/64/151 41/65/152
v 2.944855 7.660004 -2.944824
v 0.000061 7.660004 -4.164673
v -2.944824 7.660004 -2.944763
v -4.164642 7.660004 0.000061
v -2.944824 7.660004 2.944946
v 0.000061 7.660004 4.164795
v 2.944885 7.660004 2.944946
v 4.164673 7.660004 0.000061
v 2.917114 2.162827 -2.910706
v -0.059174 2.162827 -4.143494
v -3.035553 2.162827 -2.910706
v -4.268372 2.162827 0.065613
v -3.035553 2.162827 3.042114
v -0.059174 2.162827 4.274841
v 2.917114 2.162827 3.042114
v 4.150024 2.162827 0.065613
v -0.059174 7.425598 0.065674
v 2.470917 1.343536 -2.464417
v -0.059174 1.343536 -3.512512
v -2.589355 1.343536 -2.464417
v -3.637238 1.343536 0.065613
v -2.589355 1.343536 2.595764
v -0.059174 1.343536 3.643738
v 2.470917 1.343536 2.595764
v 3.518890 1.343536 0.065613
vt 0.285168 0.321925
vt 0.285031 0.321924
vt 0.284936 0.321894
vt 0.284938 0.321853
vt 0.285036 0.321824
vt 0.285173 0.321825
vt 0.285268 0.321855
vt 0.285265 0.321896
vt 0.285031 0.322254
vt 0.285168 0.322255
vt 0.284936 0.322225
vt 0.284938 0.322183
vt 0.285036 0.322154
vt 0.285173 0.322155
vt 0.285268 0.322185
vt 0.285265 0.322226
vt 0.285102 0.322205
vt 0.285031 0.321924
vt 0.285168 0.321925
vt 0.284936 0.321894
vt 0.284938 0.321853
vt 0.285036 0.321824
vt 0.285173 0.321825
vt 0.285268 0.321855
vt 0.285265 0.321896
vn 0.000000 -1.000000 -0.000000
vn 0.000000 -1.000000 -0.000000
vn 0.000000 -1.000000 -0.000000
vn 0.000000 -1.000000 -0.000000
vn 0.000000 -1.000000 -0.000000
vn 0.000000 -1.000000 -0.000000
vn 0.000000 -1.000000 -0.000000
vn 0.000000 -1.000000 0.000000
vn 0.000000 -1.000000 0.000000
vn 0.000000 -1.000000 0.000000
vn 0.382678 -0.007674 -0.923850
vn 0.382678 -0.007674 -0.923850
vn 0.382678 -0.007674 -0.923850
vn 0.382678 -0.007674 -0.923850
vn -0.382687 0.000578 -0.923878
vn -0.382687 0.000578 -0.923878
vn -0.382687 0.000578 -0.923878
vn -0.382687 0.000578 -0.923878
vn -0.923802 0.012872 -0.382654
vn -0.923802 0.012872 -0.382654
vn -0.923802 0.012872 -0.382654
vn -0.923802 0.012872 -0.382654
vn -0.923661 0.021999 0.382580
vn -0.923660 0.021999 0.382580
vn -0.923660 0.021999 0.382580
vn -0.923660 0.021999 0.382580
vn -0.382573 0.022627 0.923648
vn -0.382573 0.022627 0.923648
vn -0.382573 0.022627 0.923648
vn -0.382573 0.022627 0.923648
vn 0.382640 0.014383 0.923786
vn 0.382640 0.014383 0.923786
vn 0.382640 0.014383 0.923786
vn 0.382640 0.014383 0.923786
vn 0.923879 0.002099 0.382680
vn 0.923879 0.002099 0.382680
vn 0.923879 0.002099 0.382680
vn 0.923879 0.002099 0.382680
vn 0.923852 -0.007031 -0.382685
vn 0.923852 -0.007031 -0.382685
vn 0.923852 -0.007031 -0.382685
vn 0.923852 -0.007031 -0.382685
vn -0.022780 0.998227 0.054993
vn -0.022780 0.998227 0.054993
vn -0.022780 0.998227 0.054993
vn 0.023784 0.998067 -0.057418
vn 0.023784 0.998067 -0.057418
vn 0.023784 0.998067 -0.057418
vn -0.055043 0.998224 0.022800
vn -0.055043 0.998224 0.022800
vn -0.055043 0.998224 0.022800
vn 0.056614 0.998121 0.023451
vn 0.056614 0.998121 0.023451
vn 0.056614 0.998121 0.023451
vn 0.311805 -0.579791 -0.752742
vn 0.311805 -0.579791 -0.752742
vn 0.311805 -0.579791 -0.752742
vn 0.311805 -0.579791 -0.752742
vn -0.311796 -0.579791 -0.752746
vn -0.311796 -0.579791 -0.752746
vn -0.311796 -0.579791 -0.752746
vn -0.311796 -0.579791 -0.752746
vn -0.752730 -0.579821 -0.311777
vn -0.752730 -0.579821 -0.311777
vn -0.752730 -0.579821 -0.311777
vn -0.752730 -0.579821 -0.311777
vn -0.752731 -0.579829 0.311760
vn -0.752731 -0.579829 0.311760
vn -0.752731 -0.579829 0.311760
vn -0.752731 -0.579829 0.311760
vn -0.311760 -0.579846 0.752718
vn -0.311760 -0.579846 0.752718
vn -0.311760 -0.579846 0.752718
vn -0.311760 -0.579846 0.752718
vn 0.311769 -0.579846 0.752714
vn 0.311769 -0.579846 0.752714
vn 0.311769 -0.579846 0.752714
vn 0.311769 -0.579846 0.752714
vn 0.752722 -0.579829 0.311782
vn 0.752723 -0.579829 0.311782
vn 0.752722 -0.579829 0.311782
vn 0.752722 -0.579829 0.311782
vn 0.752722 -0.579821 -0.311798
vn 0.752722 -0.579821 -0.311798
vn 0.752722 -0.579821 -0.311798
vn 0.752722 -0.579821 -0.311798
vn 0.057366 0.998071 -0.023762
vn 0.057365 0.998070 -0.023762
vn 0.057366 0.998070 -0.023762
vn 0.023046 0.998185 0.055633
vn 0.023046 0.998185 0.055633
vn 0.023046 0.998185 0.055633
vn -0.055753 0.998178 -0.023093
vn -0.055753 0.998177 -0.023093
vn -0.055753 0.998177 -0.023093
vn -0.023502 0.998112 -0.056737
vn -0.023502 0.998112 -0.056737
vn -0.023502 0.998112 -0.056737
s off
f 61/85/153 60/83/154 59/84/155 66/90/156 65/89/157
f 61/85/158 65/89/159 64/88/160 63/87/161 62/86/162
f 42/75/163 50/66/164 51/67/165 43/74/166
f 43/74/167 51/67/168 52/68/169 44/76/170
f 44/76/171 52/68/172 53/69/173 45/77/174
f 45/77/175 53/69/176 54/70/177 46/78/178
f 46/78/179 54/70/180 55/71/181 47/79/182
f 47/79/183 55/71/184 56/72/185 48/80/186
f 48/80/187 56/72/188 57/73/189 49/81/190
f 49/81/191 57/73/192 50/66/193 42/75/194
f 43/74/195 58/82/196 42/75/197
f 58/82/198 46/78/199 47/79/200
f 58/82/201 49/81/202 42/75/203
f 58/82/204 44/76/205 45/77/206
f 51/67/207 50/66/208 59/84/209 60/83/210
f 52/68/211 51/67/212 60/83/213 61/85/214
f 53/69/215 52/68/216 61/85/217 62/86/218
f 54/70/219 53/69/220 62/86/221 63/87/222
f 55/71/223 54/70/224 63/87/225 64/88/226
f 56/72/227 55/71/228 64/88/229 65/89/230
f 57/73/231 56/72/232 65/89/233 66/90/234
f 50/66/235 57/73/236 66/90/237 59/84/238
f 58/82/239 45/77/240 46/78/241
f 43/74/242 44/76/243 58/82/244
f 58/82/245 48/80/246 49/81/247
f 58/82/248 47/79/249 48/80/250
