# This file uses meters as units for non-parametric coordinates.

v -37.848854 -16.521049 250.000000
v 37.848854 -16.521049 250.000000
v -50.000000 -1.221155 250.000000
v 50.000000 -1.221155 250.000000
v -50.000000 -1.221155 -250.000000
v 50.000000 -1.221155 -250.000000
v -37.848854 -16.521049 -250.000000
v 37.848854 -16.521049 -250.000000
v -30.385397 -21.102596 -250.000000
v 30.385399 -21.102596 -250.000000
v 30.385399 -21.102596 250.000000
v -30.385397 -21.102596 250.000000
v 37.848854 -16.521049 218.180283
v 30.385399 -21.102596 218.180283
v -30.385397 -21.102596 218.180283
v -37.848854 -16.521049 218.180283
v -50.000000 -1.221155 218.180283
v 50.000000 -1.221155 218.180283
v 37.848854 -16.521049 -218.180374
v 30.385399 -21.102596 -218.180374
v -30.385397 -21.102596 -218.180374
v -37.848854 -16.521049 -218.180374
v -50.000000 -1.221155 -218.180374
v 50.000000 -1.221155 -218.180374
v 43.924332 -8.871102 250.000000
v -43.924332 -8.871102 250.000000
v -43.924332 -8.871101 218.180283
v -43.924332 -8.871101 -218.180374
v -43.924332 -8.871102 -250.000000
v 43.924332 -8.871102 -250.000000
v 43.924332 -8.871101 -218.180374
v 43.924332 -8.871101 218.180283
v 35.739899 -14.140952 -218.180374
v 35.739899 -14.140952 218.180283
v 29.540825 -18.112053 218.180283
v 29.540825 -18.112053 -218.180374
v -29.540823 -18.112053 -218.180374
v -29.540823 -18.112053 218.180283
v -35.739899 -14.140952 -218.180374
v -35.739899 -14.140952 218.180283
v -40.388870 -8.871102 -218.180374
v -40.388870 -8.871102 218.180283
v 40.388870 -8.871102 218.180283
v 40.388870 -8.871102 -218.180374
v -37.994003 -14.528174 -170.298386
v 37.994003 -14.528174 -170.298386
v -29.623413 -19.866951 -170.298386
v 29.623413 -19.866951 -170.298386
v -42.822838 -8.871101 -170.298386
v 42.822838 -8.871101 -170.298386
v -42.822838 -8.871101 -179.267502
v 42.822838 -8.871101 -179.267502
v 37.994003 -14.528174 -179.267502
v -37.994003 -14.528174 -179.267502
v 29.623413 -19.866951 -179.267502
v -29.623413 -19.866951 -179.267502
v -37.994003 -14.528174 180.119232
v 37.994003 -14.528174 180.119232
v -29.623413 -19.866951 180.119232
v 29.623413 -19.866951 180.119232
v -42.822838 -8.871101 180.119232
v 42.822838 -8.871101 180.119232
v -42.822838 -8.871101 171.150116
v 42.822838 -8.871101 171.150116
v 37.994003 -14.528174 171.150116
v -37.994003 -14.528174 171.150116
v 29.623413 -19.866951 171.150116
v -29.623413 -19.866951 171.150116
v -37.994003 -14.528174 -65.242004
v 37.994003 -14.528174 -65.242004
v -29.623413 -19.866951 -65.242004
v 29.623413 -19.866951 -65.242004
v -42.822838 -8.871101 -65.242004
v 42.822838 -8.871101 -65.242004
v -42.822838 -8.871101 -74.211121
v 42.822838 -8.871101 -74.211121
v 37.994003 -14.528174 -74.211121
v -37.994003 -14.528174 -74.211121
v 29.623413 -19.866951 -74.211121
v -29.623413 -19.866951 -74.211121
v -37.994003 -14.528174 75.301933
v 37.994003 -14.528174 75.301933
v -29.623413 -19.866951 75.301933
v 29.623413 -19.866951 75.301933
v -42.822838 -8.871101 75.301933
v 42.822838 -8.871101 75.301933
v -42.822838 -8.871101 66.332817
v 42.822838 -8.871101 66.332817
v 37.994003 -14.528174 66.332817
v -37.994003 -14.528174 66.332817
v 29.623413 -19.866951 66.332817
v -29.623413 -19.866951 66.332817
vt 0.234822 0.305386
vt 0.234822 0.305386
vt 0.234822 0.305387
vt 0.234822 0.305387
vt 0.234822 0.305387
vt 0.234822 0.305387
vt 0.234822 0.305386
vt 0.234822 0.305386
vt 0.234822 0.305386
vt 0.234822 0.305386
vt 0.234822 0.305386
vt 0.234822 0.305387
vt 0.234822 0.305386
vt 0.234822 0.305387
vt 0.234822 0.305386
vt 0.234822 0.305386
vt 0.234822 0.305386
vt 0.234822 0.305386
vt 0.234822 0.305386
vt 0.234822 0.305386
vt 0.234822 0.305386
vt 0.234822 0.305386
vt 0.234822 0.305386
vt 0.234822 0.305386
vt 0.234822 0.305387
vt 0.234822 0.305386
vt 0.234822 0.305386
vt 0.234822 0.305387
vt 0.234822 0.305386
vt 0.234822 0.305386
vt 0.234822 0.305386
vt 0.234822 0.305386
vt 0.234822 0.305386
vt 0.234822 0.305386
vt 0.234822 0.305387
vt 0.234822 0.305386
vt 0.234822 0.305386
vt 0.234822 0.305387
vt 0.234822 0.305386
vt 0.234822 0.305386
vt 0.234822 0.305386
vt 0.234822 0.305386
vt 0.234822 0.305386
vt 0.234822 0.305386
vt 0.234822 0.305386
vt 0.234822 0.305386
vt 0.234822 0.305386
vt 0.234822 0.305386
vt 0.234822 0.305386
vt 0.234822 0.305386
vt 0.234822 0.305386
vt 0.234822 0.305386
vt 0.234822 0.305386
vt 0.234822 0.305386
vt 0.234822 0.305386
vt 0.234822 0.305386
vt 0.234822 0.305386
vt 0.234822 0.305386
vt 0.234822 0.305386
vt 0.234822 0.305386
vt 0.234822 0.305386
vt 0.234822 0.305386
vt 0.234822 0.305386
vt 0.234822 0.305386
vt 0.265810 0.029425
vt 0.265810 0.029425
vt 0.265810 0.029425
vt 0.265810 0.029425
vt 0.265810 0.029425
vt 0.265810 0.029425
vt 0.265810 0.029425
vt 0.265810 0.029425
vt 0.265810 0.029425
vt 0.265810 0.029425
vt 0.265810 0.029425
vt 0.265810 0.029425
vt 0.234822 0.305386
vt 0.234822 0.305386
vt 0.234822 0.305386
vt 0.234822 0.305386
vt 0.234822 0.305386
vt 0.234822 0.305386
vt 0.234822 0.305386
vt 0.234822 0.305386
vt 0.234822 0.305386
vt 0.234822 0.305386
vt 0.234822 0.305386
vt 0.234822 0.305386
vt 0.234822 0.305386
vt 0.234822 0.305386
vt 0.234822 0.305386
vt 0.234822 0.305386
vt 0.234822 0.305386
vt 0.234822 0.305386
vt 0.234822 0.305386
vt 0.234822 0.305386
vt 0.234822 0.305386
vt 0.234822 0.305386
vt 0.234822 0.305386
vt 0.234822 0.305386
vt 0.234822 0.305386
vt 0.234822 0.305386
vt 0.234822 0.305386
vt 0.234822 0.305386
vt 0.234822 0.305386
vt 0.234822 0.305386
vt 0.234822 0.305386
vt 0.234822 0.305386
vt 0.234822 0.305386
vt 0.234822 0.305386
vt 0.234822 0.305386
vt 0.234822 0.305386
vt 0.234822 0.305386
vt 0.234822 0.305386
vt 0.234822 0.305386
vt 0.234822 0.305386
vt 0.234822 0.305386
vt 0.234822 0.305386
vt 0.234822 0.305386
vt 0.234822 0.305386
vt 0.234822 0.305386
vt 0.234822 0.305386
vt 0.234822 0.305386
vt 0.234822 0.305386
vt 0.234822 0.305386
vt 0.234822 0.305386
vt 0.234822 0.305386
vt 0.234822 0.305386
vt 0.234822 0.305386
vt 0.234822 0.305386
vt 0.234822 0.305386
vt 0.234822 0.305386
vt 0.234822 0.305386
vt 0.234822 0.305386
vt 0.234822 0.305386
vt 0.234822 0.305386
vt 0.234822 0.305386
vt 0.234822 0.305386
vt 0.234822 0.305386
vt 0.234822 0.305386
vt 0.234822 0.305386
vt 0.234822 0.305386
vt 0.234822 0.305386
vt 0.234822 0.305386
vt 0.234822 0.305386
vt 0.234822 0.305386
vt 0.234822 0.305386
vt 0.234822 0.305386
vn 0.000000 0.000000 1.000000
vn 0.000000 0.000000 1.000000
vn 0.000000 0.000000 1.000000
vn 0.000000 0.000000 1.000000
vn 0.000000 1.000000 0.000000
vn 0.000000 1.000000 0.000000
vn 0.000000 1.000000 0.000000
vn 0.000000 1.000000 0.000000
vn 0.000000 0.000000 -1.000000
vn 0.000000 0.000000 -1.000000
vn 0.000000 0.000000 -1.000000
vn 0.000000 0.000000 -1.000000
vn 0.000000 -1.000000 0.000000
vn 0.000000 -1.000000 0.000000
vn 0.000000 -1.000000 0.000000
vn 0.000000 -1.000000 0.000000
vn 0.783076 -0.621926 0.000000
vn 0.783085 -0.621915 0.000000
vn 0.783085 -0.621915 0.000000
vn 0.783080 -0.621921 0.000000
vn -0.783085 -0.621915 0.000000
vn -0.783085 -0.621915 0.000000
vn -0.783076 -0.621926 0.000000
vn -0.783080 -0.621921 0.000000
vn 0.000000 0.000000 -1.000000
vn 0.000000 0.000000 -1.000000
vn 0.000000 0.000000 -1.000000
vn 0.000000 0.000000 -1.000000
vn 0.523157 -0.852236 0.000000
vn 0.523157 -0.852236 0.000000
vn 0.523157 -0.852236 0.000000
vn 0.523157 -0.852236 0.000000
vn 0.000000 0.000000 1.000000
vn 0.000000 0.000000 1.000000
vn 0.000000 0.000000 1.000000
vn 0.000000 0.000000 1.000000
vn -0.523157 -0.852236 0.000000
vn -0.523157 -0.852236 0.000000
vn -0.523157 -0.852236 0.000000
vn -0.523157 -0.852236 0.000000
vn 0.523157 -0.852236 0.000000
vn 0.523157 -0.852236 0.000000
vn 0.523157 -0.852236 0.000000
vn 0.523157 -0.852236 0.000000
vn 0.000000 -1.000000 0.000000
vn 0.000000 -1.000000 0.000000
vn 0.000000 -1.000000 0.000000
vn 0.000000 -1.000000 0.000000
vn -0.523157 -0.852236 0.000000
vn -0.523157 -0.852236 0.000000
vn -0.523157 -0.852236 0.000000
vn -0.523157 -0.852236 0.000000
vn -0.783076 -0.621926 -0.000000
vn -0.783085 -0.621915 0.000000
vn -0.783085 -0.621915 0.000000
vn -0.783080 -0.621921 -0.000000
vn 0.000000 1.000000 0.000000
vn 0.000000 1.000000 0.000000
vn 0.000000 1.000000 0.000000
vn 0.000000 1.000000 0.000000
vn 0.783085 -0.621915 0.000000
vn 0.783085 -0.621915 0.000000
vn 0.783076 -0.621926 -0.000000
vn 0.783080 -0.621921 -0.000000
vn 0.539410 -0.842044 0.000000
vn 0.539410 -0.842044 0.000000
vn 0.539410 -0.842044 0.000000
vn 0.539410 -0.842044 0.000000
vn 0.000000 -1.000000 0.000000
vn 0.000000 -1.000000 0.000000
vn 0.000000 -1.000000 0.000000
vn 0.000000 -1.000000 0.000000
vn -0.539409 -0.842044 0.000000
vn -0.539409 -0.842044 0.000000
vn -0.539409 -0.842044 0.000000
vn -0.539409 -0.842044 0.000000
vn -0.749901 -0.661550 0.000000
vn -0.749901 -0.661550 0.000000
vn -0.749901 -0.661550 0.000000
vn -0.749901 -0.661550 0.000000
vn 0.000000 1.000000 0.000000
vn 0.000000 1.000000 0.000000
vn 0.000000 1.000000 0.000000
vn 0.000000 1.000000 0.000000
vn 0.749901 -0.661550 0.000000
vn 0.749901 -0.661550 0.000000
vn 0.749901 -0.661550 0.000000
vn 0.749901 -0.661550 0.000000
vn 0.000000 0.000000 1.000000
vn 0.000000 0.000000 1.000000
vn 0.000000 0.000000 1.000000
vn 0.000000 0.000000 1.000000
vn -0.783075 -0.621927 -0.000000
vn -0.783076 -0.621926 -0.000000
vn -0.783080 -0.621921 -0.000000
vn -0.783075 -0.621927 -0.000000
vn -0.783075 -0.621927 0.000000
vn -0.783076 -0.621926 0.000000
vn -0.783076 -0.621926 -0.000000
vn -0.783075 -0.621927 -0.000000
vn -0.783080 -0.621921 0.000000
vn -0.783076 -0.621926 0.000000
vn -0.783075 -0.621927 0.000000
vn -0.783075 -0.621927 0.000000
vn 0.000000 0.000000 -1.000000
vn 0.000000 0.000000 -1.000000
vn 0.000000 0.000000 -1.000000
vn 0.000000 0.000000 -1.000000
vn 0.783075 -0.621927 0.000000
vn 0.783076 -0.621926 0.000000
vn 0.783080 -0.621921 0.000000
vn 0.783075 -0.621927 0.000000
vn 0.783075 -0.621927 -0.000000
vn 0.783076 -0.621926 -0.000000
vn 0.783076 -0.621926 0.000000
vn 0.783075 -0.621927 0.000000
vn 0.783080 -0.621921 -0.000000
vn 0.783076 -0.621926 -0.000000
vn 0.783075 -0.621927 -0.000000
vn 0.783075 -0.621927 -0.000000
vn 0.000001 0.000000 -1.000000
vn 0.000000 0.000000 -1.000000
vn 0.000000 0.000000 -1.000000
vn 0.000001 0.000000 -1.000000
vn -0.000000 0.000000 1.000000
vn -0.000001 0.000000 1.000000
vn -0.000001 0.000000 1.000000
vn -0.000000 0.000000 1.000000
vn 0.000000 0.000000 1.000000
vn -0.000000 0.000000 1.000000
vn -0.000000 0.000000 1.000000
vn 0.000000 0.000000 1.000000
vn 0.000000 0.000000 -1.000000
vn -0.000000 0.000000 -1.000000
vn -0.000000 0.000000 -1.000000
vn 0.000000 0.000000 -1.000000
vn -0.000001 0.000000 1.000000
vn 0.000000 0.000000 1.000000
vn 0.000000 0.000000 1.000000
vn -0.000001 0.000000 1.000000
vn -0.000000 0.000000 -1.000000
vn -0.000000 0.000000 -1.000000
vn -0.000000 0.000000 -1.000000
vn -0.000000 0.000000 -1.000000
vn -0.000001 0.000000 1.000000
vn -0.000001 0.000000 1.000000
vn -0.000001 0.000000 1.000000
vn -0.000001 0.000000 1.000000
vn -0.000000 0.000000 -1.000000
vn 0.000002 0.000000 -1.000000
vn 0.000002 0.000000 -1.000000
vn -0.000000 0.000000 -1.000000
vn -0.000000 -1.000000 0.000000
vn -0.000000 -1.000000 0.000000
vn -0.000000 -1.000000 0.000000
vn -0.000000 -1.000000 0.000000
vn 0.000001 0.000000 -1.000000
vn 0.000001 0.000000 -1.000000
vn 0.000001 0.000000 -1.000000
vn 0.000001 0.000000 -1.000000
vn -0.000001 0.000000 1.000000
vn 0.000000 0.000000 1.000000
vn 0.000000 0.000000 1.000000
vn -0.000001 0.000000 1.000000
vn 0.000000 -1.000000 0.000000
vn 0.000000 -1.000000 0.000000
vn 0.000000 -1.000000 0.000000
vn 0.000000 -1.000000 0.000000
vn 0.000000 0.000000 -1.000000
vn 0.000000 0.000000 -1.000000
vn 0.000000 0.000000 -1.000000
vn 0.000000 0.000000 -1.000000
vn 0.000000 0.000000 -1.000000
vn 0.000000 0.000000 -1.000000
vn 0.000000 0.000000 -1.000000
vn 0.000000 0.000000 -1.000000
vn 0.000000 0.000000 1.000000
vn 0.000000 0.000000 1.000000
vn 0.000000 0.000000 1.000000
vn 0.000000 0.000000 1.000000
vn 0.000000 0.000000 1.000000
vn 0.000000 0.000000 1.000000
vn 0.000000 0.000000 1.000000
vn 0.000000 0.000000 1.000000
vn 0.760590 -0.649233 0.000000
vn 0.760590 -0.649233 0.000000
vn 0.760590 -0.649233 0.000000
vn 0.760590 -0.649233 0.000000
vn -0.760590 -0.649233 0.000000
vn -0.760590 -0.649233 0.000000
vn -0.760590 -0.649233 0.000000
vn -0.760590 -0.649233 0.000000
vn 0.537738 -0.843112 0.000000
vn 0.537738 -0.843112 0.000000
vn 0.537738 -0.843112 0.000000
vn 0.537738 -0.843112 0.000000
vn 0.000000 -1.000000 0.000000
vn 0.000000 -1.000000 0.000000
vn 0.000000 -1.000000 0.000000
vn 0.000000 -1.000000 0.000000
vn -0.537738 -0.843112 0.000000
vn -0.537738 -0.843112 0.000000
vn -0.537738 -0.843112 0.000000
vn -0.537738 -0.843112 0.000000
vn 0.000000 0.000000 -1.000000
vn 0.000000 0.000000 -1.000000
vn 0.000000 0.000000 -1.000000
vn 0.000000 0.000000 -1.000000
vn 0.000000 0.000000 -1.000000
vn 0.000000 0.000000 -1.000000
vn 0.000000 0.000000 -1.000000
vn 0.000000 0.000000 -1.000000
vn 0.000000 0.000000 1.000000
vn 0.000000 0.000000 1.000000
vn 0.000000 0.000000 1.000000
vn 0.000000 0.000000 1.000000
vn 0.000000 0.000000 1.000000
vn 0.000000 0.000000 1.000000
vn 0.000000 0.000000 1.000000
vn 0.000000 0.000000 1.000000
vn 0.760590 -0.649233 0.000000
vn 0.760590 -0.649233 0.000000
vn 0.760590 -0.649233 0.000000
vn 0.760590 -0.649233 0.000000
vn -0.760590 -0.649233 0.000000
vn -0.760590 -0.649233 0.000000
vn -0.760590 -0.649233 0.000000
vn -0.760590 -0.649233 0.000000
vn 0.537738 -0.843112 0.000000
vn 0.537738 -0.843112 0.000000
vn 0.537738 -0.843112 0.000000
vn 0.537738 -0.843112 0.000000
vn 0.000000 -1.000000 0.000000
vn 0.000000 -1.000000 0.000000
vn 0.000000 -1.000000 0.000000
vn 0.000000 -1.000000 0.000000
vn -0.537738 -0.843112 0.000000
vn -0.537738 -0.843112 0.000000
vn -0.537738 -0.843112 0.000000
vn -0.537738 -0.843112 0.000000
vn 0.000000 0.000000 -1.000000
vn 0.000000 0.000000 -1.000000
vn 0.000000 0.000000 -1.000000
vn 0.000000 0.000000 -1.000000
vn 0.000000 0.000000 -1.000000
vn 0.000000 0.000000 -1.000000
vn 0.000000 0.000000 -1.000000
vn 0.000000 0.000000 -1.000000
vn 0.000000 0.000000 1.000000
vn 0.000000 0.000000 1.000000
vn 0.000000 0.000000 1.000000
vn 0.000000 0.000000 1.000000
vn 0.000000 0.000000 1.000000
vn 0.000000 0.000000 1.000000
vn 0.000000 0.000000 1.000000
vn 0.000000 0.000000 1.000000
vn 0.760589 -0.649233 0.000000
vn 0.760589 -0.649233 0.000000
vn 0.760589 -0.649233 0.000000
vn 0.760589 -0.649233 0.000000
vn -0.760589 -0.649233 0.000000
vn -0.760589 -0.649233 0.000000
vn -0.760589 -0.649233 0.000000
vn -0.760589 -0.649233 0.000000
vn 0.537738 -0.843112 0.000000
vn 0.537738 -0.843112 0.000000
vn 0.537738 -0.843112 0.000000
vn 0.537738 -0.843112 0.000000
vn 0.000000 -1.000000 0.000000
vn 0.000000 -1.000000 0.000000
vn 0.000000 -1.000000 0.000000
vn 0.000000 -1.000000 0.000000
vn -0.537738 -0.843112 0.000000
vn -0.537738 -0.843112 0.000000
vn -0.537738 -0.843112 0.000000
vn -0.537738 -0.843112 0.000000
vn 0.000000 0.000000 -1.000000
vn 0.000000 0.000000 -1.000000
vn 0.000000 0.000000 -1.000000
vn 0.000000 0.000000 -1.000000
vn 0.000000 0.000000 -1.000000
vn 0.000000 0.000000 -1.000000
vn 0.000000 0.000000 -1.000000
vn 0.000000 0.000000 -1.000000
vn 0.000000 0.000000 1.000000
vn 0.000000 0.000000 1.000000
vn 0.000000 0.000000 1.000000
vn 0.000000 0.000000 1.000000
vn 0.000000 0.000000 1.000000
vn 0.000000 0.000000 1.000000
vn 0.000000 0.000000 1.000000
vn 0.000000 0.000000 1.000000
vn 0.760589 -0.649233 0.000000
vn 0.760589 -0.649233 0.000000
vn 0.760589 -0.649233 0.000000
vn 0.760589 -0.649233 0.000000
vn -0.760589 -0.649233 0.000000
vn -0.760589 -0.649233 0.000000
vn -0.760589 -0.649233 0.000000
vn -0.760589 -0.649233 0.000000
vn 0.537738 -0.843112 0.000000
vn 0.537738 -0.843112 0.000000
vn 0.537738 -0.843112 0.000000
vn 0.537738 -0.843112 0.000000
vn 0.000000 -1.000000 0.000000
vn 0.000000 -1.000000 0.000000
vn 0.000000 -1.000000 0.000000
vn 0.000000 -1.000000 0.000000
vn -0.537738 -0.843112 0.000000
vn -0.537738 -0.843112 0.000000
vn -0.537738 -0.843112 0.000000
vn -0.537738 -0.843112 0.000000
s off
f 1/1/1 2/2/2 25/39/3 26/40/4
f 23/36/5 24/37/6 6/6/7 5/5/8
f 29/44/9 30/45/10 8/8/11 7/7/12
f 9/15/13 10/16/14 20/31/15 21/32/16
f 31/47/17 19/30/18 8/11/19 30/46/20
f 7/13/21 22/33/22 28/42/23 29/43/24
f 7/7/25 8/8/26 10/16/27 9/15/28
f 8/8/29 19/29/30 20/31/31 10/16/32
f 2/10/33 1/9/34 12/18/35 11/17/36
f 22/34/37 7/7/38 9/15/39 21/32/40
f 13/19/41 2/10/42 11/17/43 14/21/44
f 15/22/45 14/21/46 11/17/47 12/18/48
f 1/9/49 16/24/50 15/22/51 12/18/52
f 27/41/53 16/23/54 1/1/55 26/40/56
f 3/3/57 4/4/58 18/27/59 17/26/60
f 2/2/61 13/20/62 32/48/63 25/39/64
f 33/65/65 34/66/66 35/67/67 36/68/68
f 37/69/69 36/68/70 35/67/71 38/70/72
f 40/71/73 39/72/74 37/69/75 38/70/76
f 41/73/77 39/72/78 40/71/79 42/74/80
f 17/26/81 18/27/82 24/37/83 23/36/84
f 43/75/85 34/66/86 33/65/87 44/76/88
f 26/40/89 25/39/90 4/4/91 3/3/92
f 17/25/93 27/41/94 26/40/95 3/3/96
f 23/35/97 28/42/98 27/41/99 17/25/100
f 29/43/101 28/42/102 23/35/103 5/14/104
f 5/5/105 6/6/106 30/45/107 29/44/108
f 24/38/109 31/47/110 30/46/111 6/12/112
f 18/28/113 32/48/114 31/47/115 24/38/116
f 25/39/117 32/48/118 18/28/119 4/4/120
f 13/19/121 14/21/122 35/50/123 34/49/124
f 20/31/125 19/29/126 33/52/127 36/51/128
f 21/32/129 20/31/130 36/51/131 37/53/132
f 14/21/133 15/22/134 38/54/135 35/50/136
f 22/34/137 21/32/138 37/53/139 39/55/140
f 15/22/141 16/24/142 40/56/143 38/54/144
f 28/42/145 22/33/146 39/58/147 41/57/148
f 16/23/149 27/41/150 42/60/151 40/59/152
f 27/41/153 28/42/154 41/57/155 42/60/156
f 32/48/157 13/20/158 34/62/159 43/61/160
f 19/30/161 31/47/162 44/64/163 33/63/164
f 31/47/165 32/48/166 43/61/167 44/64/168
f 51/77/169 52/78/170 53/79/171 54/80/172
f 54/80/173 53/79/174 55/81/175 56/82/176
f 49/83/177 45/84/178 46/85/179 50/86/180
f 45/84/181 47/87/182 48/88/183 46/85/184
f 50/89/185 46/90/186 53/79/187 52/78/188
f 45/91/189 49/92/190 51/77/191 54/80/192
f 46/90/193 48/93/194 55/81/195 53/79/196
f 48/93/197 47/94/198 56/82/199 55/81/200
f 47/94/201 45/91/202 54/80/203 56/82/204
f 63/95/205 64/96/206 65/97/207 66/98/208
f 66/98/209 65/97/210 67/99/211 68/100/212
f 61/101/213 57/102/214 58/103/215 62/104/216
f 57/102/217 59/105/218 60/106/219 58/103/220
f 62/107/221 58/108/222 65/97/223 64/96/224
f 57/109/225 61/110/226 63/95/227 66/98/228
f 58/108/229 60/111/230 67/99/231 65/97/232
f 60/111/233 59/112/234 68/100/235 67/99/236
f 59/112/237 57/109/238 66/98/239 68/100/240
f 75/113/241 76/114/242 77/115/243 78/116/244
f 78/116/245 77/115/246 79/117/247 80/118/248
f 73/119/249 69/120/250 70/121/251 74/122/252
f 69/120/253 71/123/254 72/124/255 70/121/256
f 74/125/257 70/126/258 77/115/259 76/114/260
f 69/127/261 73/128/262 75/113/263 78/116/264
f 70/126/265 72/129/266 79/117/267 77/115/268
f 72/129/269 71/130/270 80/118/271 79/117/272
f 71/130/273 69/127/274 78/116/275 80/118/276
f 87/131/277 88/132/278 89/133/279 90/134/280
f 90/134/281 89/133/282 91/135/283 92/136/284
f 85/137/285 81/138/286 82/139/287 86/140/288
f 81/138/289 83/141/290 84/142/291 82/139/292
f 86/143/293 82/144/294 89/133/295 88/132/296
f 81/145/297 85/146/298 87/131/299 90/134/300
f 82/144/301 84/147/302 91/135/303 89/133/304
f 84/147/305 83/148/306 92/136/307 91/135/308
f 83/148/309 81/145/310 90/134/311 92/136/312
