# This file uses meters as units for non-parametric coordinates.

v 19.766235 4.666646 47.719574
v -19.766235 4.666646 47.719193
v -47.720345 4.666646 19.765854
v 47.719574 4.666646 19.765854
v 19.766235 15.467777 47.719574
v -19.766235 15.467777 47.719193
v -47.720345 15.467777 19.765854
v 47.719574 15.467777 19.765854
v 17.850494 21.407900 43.093872
v -17.850494 21.407900 43.093872
v -43.094635 21.407900 17.850113
v 43.094635 21.407900 17.850113
v 6.561279 21.407900 43.094254
v -6.562805 21.407900 43.094254
v 6.561279 15.467777 47.719574
v -6.562805 15.467777 47.719193
v 6.561279 21.407907 28.287506
v -6.562805 10.337049 47.719193
v 6.561279 10.337049 47.719574
v -6.562805 21.407907 28.287506
v -5.632782 18.438534 29.307938
v 5.631256 18.438534 29.307938
v 5.631256 19.011137 41.922760
v -5.632782 19.011137 41.922760
v 5.631256 14.555737 45.063400
v -5.632782 14.555737 45.062637
v 5.631256 10.861382 44.749451
v -5.632782 10.861382 44.749451
v 19.766235 4.666646 -47.719196
v -19.766235 4.666646 -47.719193
v -47.720345 4.666646 -19.765850
v 47.719574 4.666646 -19.765850
v 19.766235 15.467777 -47.719196
v -19.766235 15.467777 -47.719193
v -47.720345 15.467777 -19.765850
v 47.719574 15.467777 -19.765850
v 17.850494 21.407900 -43.094250
v -17.850494 21.407900 -43.094250
v -43.094635 21.407900 -17.850109
v 43.094635 21.407900 -17.850109
v 6.561279 21.407900 -43.094635
v -6.562805 21.407900 -43.094635
v 6.561279 15.467777 -47.719574
v -6.562805 15.467777 -47.719193
v 6.561279 21.407907 -28.287510
v -6.562805 10.337049 -47.719193
v 6.561279 10.337049 -47.719196
v -6.562805 21.407907 -28.287510
v -5.632782 18.438534 -29.307938
v 5.631256 18.438534 -29.307938
v 5.631256 19.011137 -41.922760
v -5.632782 19.011137 -41.922760
v 5.631256 14.555737 -45.063404
v -5.632782 14.555737 -45.063015
v 5.631256 10.861382 -44.749828
v -5.632782 10.861382 -44.749451
v -16.941833 4.666646 40.899658
v 16.941833 4.666646 40.900421
v -40.901192 4.666646 16.941071
v 40.900421 4.666646 16.941071
v -40.901192 4.666646 -16.941071
v 40.900421 4.666646 -16.941071
v 16.941833 4.666646 -40.900043
v -16.941833 4.666646 -40.899658
v 0.000000 -0.000000 0.000000
v -16.175079 -0.000000 39.048386
v 16.174316 -0.000000 39.048767
v -39.049538 -0.000000 16.174316
v 39.048767 -0.000000 16.174316
v -39.049538 -0.000000 -16.174316
v 39.048767 -0.000000 -16.174316
v 16.174316 -0.000000 -39.048771
v -16.175079 -0.000000 -39.048386
vt 0.994307 0.303404
vt 0.994307 0.303404
vt 0.994307 0.303404
vt 0.994307 0.303404
vt 0.994307 0.303404
vt 0.994307 0.303404
vt 0.994307 0.303404
vt 0.994307 0.303404
vt 0.994307 0.303404
vt 0.994307 0.303404
vt 0.994307 0.303404
vt 0.994307 0.303404
vt 0.994307 0.303404
vt 0.994307 0.303404
vt 0.994307 0.303404
vt 0.994307 0.303404
vt 0.994307 0.303404
vt 0.994307 0.303404
vt 0.245171 0.302547
vt 0.994307 0.303404
vt 0.994307 0.303404
vt 0.994307 0.303404
vt 0.994307 0.303404
vt 0.994307 0.303404
vt 0.994307 0.303404
vt 0.994307 0.303404
vt 0.994307 0.303404
vt 0.994307 0.303404
vt 0.994307 0.303404
vt 0.994307 0.303404
vt 0.994307 0.303404
vt 0.994307 0.303404
vt 0.994307 0.303404
vt 0.994307 0.303404
vt 0.994307 0.303404
vt 0.994307 0.303404
vt 0.994307 0.303404
vt 0.994307 0.303404
vt 0.994307 0.303404
vt 0.994307 0.303404
vt 0.994307 0.303404
vt 0.994307 0.303404
vt 0.994307 0.303404
vt 0.234718 0.301801
vt 0.234718 0.301801
vt 0.234718 0.301801
vt 0.234718 0.301801
vt 0.234718 0.301801
vt 0.234718 0.301801
vt 0.234718 0.301801
vt 0.234718 0.301801
vt 0.994307 0.303404
vt 0.994307 0.303404
vt 0.994307 0.303404
vt 0.994307 0.303404
vt 0.994307 0.303404
vt 0.994307 0.303404
vt 0.994307 0.303404
vt 0.994307 0.303404
vt 0.994307 0.303404
vt 0.994307 0.303404
vt 0.994307 0.303404
vt 0.994307 0.303404
vt 0.994307 0.303404
vt 0.994307 0.303404
vt 0.994307 0.303404
vt 0.994307 0.303404
vt 0.245171 0.302547
vt 0.994307 0.303404
vt 0.994307 0.303404
vt 0.234718 0.301801
vt 0.234718 0.301801
vt 0.234718 0.301801
vt 0.234718 0.301801
vt 0.994307 0.303404
vt 0.994307 0.303404
vt 0.994307 0.303404
vt 0.994307 0.303404
vt 0.234718 0.301801
vt 0.234718 0.301801
vt 0.994307 0.303404
vt 0.994307 0.303404
vt 0.994307 0.303404
vt 0.994307 0.303404
vt 0.994307 0.303404
vt 0.994307 0.303404
vt 0.994307 0.303404
vt 0.234718 0.301801
vt 0.234718 0.301801
vt 0.994307 0.303404
vt 0.994307 0.303404
vt 0.994307 0.303404
vt 0.994307 0.303404
vt 0.994307 0.303404
vt 0.994307 0.303404
vt 0.994307 0.303404
vt 0.994307 0.303404
vt 0.994307 0.303404
vt 0.994307 0.303404
vt 0.994307 0.303404
vt 0.994307 0.303404
vt 0.994307 0.303404
vt 0.994307 0.303404
vt 0.994307 0.303404
vt 0.994307 0.303404
vt 0.994307 0.303404
vt 0.994307 0.303404
vt 0.994307 0.303404
vt 0.994307 0.303404
vt 0.994307 0.303404
vt 0.245171 0.302547
vt 0.245171 0.302547
vt 0.245171 0.302547
vt 0.245171 0.302547
vt 0.245171 0.302547
vt 0.245171 0.302547
vt 0.245171 0.302547
vt 0.245171 0.302547
vt 0.245171 0.302547
vt 0.245171 0.302547
vt 0.245171 0.302547
vt 0.245171 0.302547
vt 0.245171 0.302547
vt 0.245171 0.302547
vt 0.245171 0.302547
vn -0.000005 -0.000000 1.000000
vn -0.000010 -0.000000 1.000000
vn -0.000001 0.000000 1.000000
vn -0.000001 0.000000 1.000000
vn -0.707097 0.000000 0.707117
vn -0.707097 0.000000 0.707117
vn -0.707097 0.000000 0.707117
vn -0.707097 0.000000 0.707117
vn 0.707112 0.000000 0.707102
vn 0.707112 0.000000 0.707102
vn 0.707112 0.000000 0.707102
vn 0.707112 0.000000 0.707102
vn 0.000000 -1.000000 0.000000
vn 0.000000 -1.000000 0.000000
vn 0.000000 -1.000000 0.000000
vn 0.000000 -1.000000 0.000000
vn 0.000000 -1.000000 0.000000
vn 0.000000 -1.000000 0.000000
vn 0.000000 -1.000000 0.000000
vn 0.000000 -1.000000 0.000000
vn 0.000000 -1.000000 0.000000
vn -0.000028 0.576104 0.817376
vn -0.000028 0.576104 0.817376
vn -0.000028 0.576104 0.817376
vn -0.000028 0.576104 0.817376
vn -0.557910 0.614377 0.557922
vn -0.557910 0.614377 0.557922
vn -0.557910 0.614377 0.557922
vn -0.557910 0.614377 0.557922
vn 0.557923 0.614366 0.557922
vn 0.557923 0.614366 0.557922
vn 0.557923 0.614365 0.557922
vn 0.557923 0.614366 0.557922
vn 0.000012 0.614390 0.789003
vn 0.000012 0.614390 0.789003
vn 0.000012 0.614390 0.789003
vn 0.000012 0.614390 0.789003
vn -0.000034 -0.084574 0.996417
vn -0.000034 -0.084574 0.996417
vn -0.000034 -0.084574 0.996417
vn -0.000034 -0.084574 0.996417
vn -0.000012 0.614358 0.789027
vn -0.000012 0.614359 0.789027
vn -0.000012 0.614358 0.789027
vn -0.000012 0.614358 0.789027
vn -0.944766 0.327674 -0.006842
vn -0.944766 0.327674 -0.006842
vn -0.952508 0.293283 0.081940
vn -0.952506 0.293306 0.081882
vn 0.952508 0.293298 0.081881
vn 0.952511 0.293273 0.081943
vn 0.944766 0.327674 -0.006842
vn 0.944766 0.327674 -0.006842
vn -0.952506 0.293306 0.081882
vn -0.952508 0.293283 0.081940
vn -0.948896 0.110792 0.295502
vn -0.948671 0.114324 0.294879
vn 0.948672 0.114315 0.294878
vn 0.948897 0.110791 0.295501
vn 0.952511 0.293273 0.081943
vn 0.952508 0.293298 0.081881
vn -0.948671 0.114324 0.294879
vn -0.948896 0.110792 0.295502
vn -0.949170 -0.011191 0.314566
vn -0.949170 -0.011191 0.314566
vn -0.000003 0.984771 0.173859
vn -0.000003 0.984771 0.173859
vn -0.000003 0.984771 0.173859
vn -0.000003 0.984771 0.173859
vn 0.949171 -0.011163 0.314564
vn 0.949171 -0.011163 0.314564
vn 0.948897 0.110791 0.295501
vn 0.948672 0.114315 0.294878
vn -0.788991 0.614405 0.000000
vn -0.788991 0.614405 0.000000
vn -0.788991 0.614405 0.000000
vn -0.788991 0.614405 0.000000
vn -1.000000 0.000000 0.000000
vn -1.000000 0.000000 0.000000
vn -1.000000 0.000000 0.000000
vn -1.000000 0.000000 0.000000
vn 0.000000 -1.000000 0.000000
vn 0.000000 -1.000000 0.000000
vn 0.000000 -1.000000 0.000000
vn 0.000000 -1.000000 0.000000
vn 0.000000 -1.000000 0.000000
vn 0.000000 -1.000000 0.000000
vn 0.000006 -0.000016 -1.000000
vn 0.000003 -0.000008 -1.000000
vn 0.000009 -0.000024 -1.000000
vn 0.000009 -0.000024 -1.000000
vn -0.707097 0.000000 -0.707117
vn -0.707097 0.000000 -0.707117
vn -0.707097 0.000000 -0.707117
vn -0.707097 0.000000 -0.707117
vn 1.000000 0.000000 0.000000
vn 1.000000 0.000000 0.000000
vn 1.000000 0.000000 0.000000
vn 1.000000 0.000000 0.000000
vn 0.707107 0.000000 -0.707107
vn 0.707107 0.000000 -0.707107
vn 0.707107 0.000000 -0.707107
vn 0.707107 0.000000 -0.707107
vn 0.000000 -1.000000 -0.000000
vn 0.000000 -1.000000 0.000000
vn 0.000000 -1.000000 0.000000
vn 0.000000 -1.000000 0.000000
vn 0.000000 -1.000000 -0.000000
vn 0.000000 -1.000000 0.000000
vn 0.000000 -1.000000 0.000000
vn 0.000000 -1.000000 0.000000
vn 0.000000 -1.000000 0.000000
vn 0.000000 0.998971 0.045345
vn 0.000000 0.998971 0.045345
vn 0.000000 0.998971 0.045345
vn 0.000000 0.998971 0.045345
vn -0.000014 0.576127 -0.817360
vn -0.000014 0.576127 -0.817360
vn -0.000014 0.576127 -0.817360
vn -0.000014 0.576127 -0.817360
vn -0.557918 0.614366 -0.557926
vn -0.557918 0.614366 -0.557926
vn -0.557918 0.614366 -0.557926
vn -0.557918 0.614366 -0.557926
vn 0.789040 0.614341 0.000000
vn 0.789040 0.614341 0.000000
vn 0.789040 0.614341 0.000000
vn 0.789040 0.614341 0.000000
vn 0.557935 0.614343 -0.557935
vn 0.557935 0.614343 -0.557935
vn 0.557935 0.614343 -0.557935
vn 0.557935 0.614343 -0.557935
vn 0.000024 0.614344 -0.789038
vn 0.000024 0.614344 -0.789038
vn 0.000024 0.614344 -0.789038
vn 0.000024 0.614344 -0.789038
vn -0.000034 -0.084574 -0.996417
vn -0.000034 -0.084574 -0.996417
vn -0.000034 -0.084574 -0.996417
vn -0.000034 -0.084574 -0.996417
vn -0.000012 0.614327 -0.789052
vn -0.000012 0.614327 -0.789052
vn -0.000012 0.614327 -0.789052
vn -0.000012 0.614327 -0.789051
vn 0.000000 1.000000 -0.000000
vn 0.000000 1.000000 -0.000000
vn 0.000000 1.000000 -0.000000
vn 0.000000 1.000000 -0.000000
vn 0.000000 0.324996 -0.945716
vn 0.000000 0.324996 -0.945715
vn 0.000000 0.324996 -0.945715
vn 0.000000 0.324996 -0.945716
vn -0.944766 0.327674 0.006842
vn -0.952508 0.293296 -0.081892
vn -0.952509 0.293280 -0.081931
vn -0.944766 0.327674 0.006842
vn 0.952508 0.293294 -0.081891
vn 0.944766 0.327674 0.006842
vn 0.944766 0.327674 0.006842
vn 0.952510 0.293277 -0.081934
vn -0.952508 0.293296 -0.081892
vn -0.948668 0.114326 -0.294888
vn -0.948893 0.110793 -0.295512
vn -0.952509 0.293280 -0.081931
vn 0.948670 0.114318 -0.294886
vn 0.952508 0.293294 -0.081891
vn 0.952510 0.293277 -0.081934
vn 0.948895 0.110785 -0.295510
vn -0.948668 0.114326 -0.294888
vn -0.949157 -0.011192 -0.314604
vn -0.949157 -0.011192 -0.314604
vn -0.948893 0.110793 -0.295512
vn -0.000003 0.984767 -0.173880
vn -0.000003 0.984767 -0.173880
vn -0.000003 0.984767 -0.173880
vn -0.000003 0.984767 -0.173880
vn 0.949164 -0.011177 -0.314584
vn 0.948670 0.114318 -0.294886
vn 0.948895 0.110785 -0.295510
vn 0.949164 -0.011177 -0.314584
vn 0.000000 1.000000 -0.000000
vn 0.000000 1.000000 0.000000
vn 0.000000 1.000000 0.000000
vn 0.000000 1.000000 0.000000
vn -0.000000 1.000000 0.000000
vn -0.000000 1.000000 -0.000000
vn -0.000000 1.000000 0.000000
vn -0.000000 1.000000 0.000000
vn -0.000000 1.000000 0.000000
vn 0.000000 1.000000 0.000000
vn 0.000000 1.000000 -0.000000
vn 0.000000 1.000000 -0.000000
vn 0.000000 1.000000 -0.000000
vn -0.000000 1.000000 -0.000000
vn -0.000000 1.000000 -0.000000
vn -0.000000 1.000000 -0.000000
vn -0.000000 1.000000 -0.000000
vn -0.000000 1.000000 -0.000000
vn -0.000000 1.000000 -0.000000
vn -0.000000 1.000000 -0.000000
vn -0.000005 -0.000000 1.000000
vn -0.000005 -0.000000 1.000000
vn -0.000010 -0.000000 1.000000
vn -0.000010 -0.000000 1.000000
vn -0.000005 -0.000000 1.000000
vn -0.000000 0.000000 1.000000
vn -0.000000 0.000000 1.000000
vn -0.000010 -0.000000 1.000000
vn 0.000003 -0.000008 -1.000000
vn 0.000006 -0.000016 -1.000000
vn -0.000000 -0.000000 -1.000000
vn -0.000000 -0.000000 -1.000000
vn -0.000000 -0.000000 -1.000000
vn -0.000000 -0.000000 -1.000000
vn -0.000000 0.000000 -1.000000
vn -0.000000 0.000000 -1.000000
vn 0.000000 0.324997 0.945715
vn 0.000000 0.324997 0.945715
vn 0.000000 0.324997 0.945715
vn 0.000000 0.324997 0.945715
vn 0.000000 0.998971 -0.045345
vn 0.000000 0.998971 -0.045345
vn 0.000000 0.998971 -0.045345
vn 0.000000 0.998971 -0.045345
vn 0.000000 -1.000000 0.000000
vn 0.000000 -1.000000 0.000000
vn 0.000000 -1.000000 0.000000
vn 0.000000 -1.000000 0.000000
vn 0.000000 -1.000000 0.000000
vn 0.000000 -1.000000 0.000000
vn 0.000000 -1.000000 0.000000
vn 0.000000 -1.000000 0.000000
vn 0.000000 -1.000000 -0.000000
vn 0.000000 -1.000000 -0.000000
vn 0.000000 -1.000000 -0.000000
vn 0.000000 -1.000000 -0.000000
vn 0.000000 -1.000000 0.000000
vn 0.000000 -1.000000 0.000000
vn 0.000000 -1.000000 0.000000
vn 0.000000 -1.000000 0.000000
vn 0.000000 -1.000000 0.000000
vn 0.000000 -1.000000 0.000000
vn 0.000000 -1.000000 0.000000
vn 0.000000 -1.000000 0.000000
vn 0.000000 -1.000000 -0.000000
vn 0.000000 -1.000000 -0.000000
vn 0.000000 -1.000000 -0.000000
vn 0.000000 -1.000000 -0.000000
vn 0.000000 -1.000000 -0.000000
vn 0.000000 -1.000000 -0.000000
vn 0.000000 -1.000000 -0.000000
vn 0.000000 -1.000000 -0.000000
vn 0.000000 -1.000000 -0.000000
vn 0.000000 -1.000000 -0.000000
vn 0.000000 -1.000000 -0.000000
vn 0.000000 -1.000000 -0.000000
vn -0.000016 -0.368780 0.929517
vn -0.000016 -0.368780 0.929517
vn -0.000016 -0.368780 0.929517
vn -0.000016 -0.368780 0.929517
vn -0.657264 -0.368762 0.657281
vn -0.657264 -0.368762 0.657281
vn -0.657264 -0.368762 0.657281
vn -0.657264 -0.368762 0.657281
vn 0.657259 -0.368832 0.657248
vn 0.657258 -0.368832 0.657248
vn 0.657258 -0.368832 0.657248
vn 0.657258 -0.368832 0.657248
vn -0.929504 -0.368813 0.000000
vn -0.929504 -0.368813 0.000000
vn -0.929504 -0.368813 0.000000
vn -0.929504 -0.368813 0.000000
vn 0.929504 -0.368813 0.000000
vn 0.929504 -0.368813 0.000000
vn 0.929504 -0.368813 0.000000
vn 0.929504 -0.368813 0.000000
vn -0.000011 -0.368747 -0.929530
vn -0.000011 -0.368747 -0.929530
vn -0.000011 -0.368747 -0.929530
vn -0.000011 -0.368747 -0.929530
vn -0.657264 -0.368762 -0.657281
vn -0.657265 -0.368762 -0.657281
vn -0.657265 -0.368762 -0.657281
vn -0.657264 -0.368762 -0.657281
vn 0.657262 -0.368809 -0.657257
vn 0.657262 -0.368809 -0.657257
vn 0.657262 -0.368809 -0.657257
vn 0.657262 -0.368809 -0.657257
s off
f 2/6/1 18/31/2 16/29/3 6/11/4
f 2/6/5 6/11/6 7/12/7 3/7/8
f 4/8/9 8/13/10 5/14/11 1/9/12
f 66/19/13 65/68/14 67/111/15
f 68/112/16 65/68/17 66/19/18
f 67/111/19 65/68/20 69/113/21
f 25/48/22 23/46/23 24/47/24 26/49/25
f 6/16/26 10/21/27 11/22/28 7/15/29
f 8/18/30 12/23/31 9/20/32 5/17/33
f 5/17/34 9/20/35 13/24/36 15/26/37
f 27/50/38 25/48/39 26/49/40 28/51/41
f 14/25/42 10/21/43 6/16/44 16/28/45
f 17/30/46 22/35/47 23/36/48 13/24/49
f 14/25/50 24/37/51 21/34/52 20/33/53
f 13/24/54 23/36/55 25/38/56 15/26/57
f 16/28/58 26/39/59 24/37/60 14/25/61
f 15/27/62 25/40/63 27/41/64 19/32/65
f 19/32/66 27/41/67 28/42/68 18/31/69
f 18/31/70 28/42/71 26/43/72 16/29/73
f 7/15/74 11/22/75 39/76/76 35/82/77
f 3/7/78 7/12/79 35/61/80 31/60/81
f 65/68/82 68/112/83 70/114/84
f 69/113/85 65/68/86 71/115/87
f 29/52/88 47/57/89 43/58/90 33/59/91
f 30/53/92 31/60/93 35/61/94 34/54/95
f 4/8/96 32/62/97 36/63/98 8/13/99
f 32/62/100 29/64/101 33/65/102 36/63/103
f 73/116/104 72/117/105 65/68/106
f 70/114/107 73/116/108 65/68/109
f 72/117/110 71/115/111 65/68/112
f 50/72/113 51/73/114 52/74/115 49/71/116
f 51/73/117 53/79/118 54/80/119 52/74/120
f 34/81/121 35/82/122 39/76/123 38/75/124
f 8/18/125 36/83/126 40/77/127 12/23/128
f 36/83/129 33/84/130 37/78/131 40/77/132
f 33/84/133 43/87/134 41/85/135 37/78/136
f 53/79/137 55/88/138 56/89/139 54/80/140
f 42/90/141 44/91/142 34/81/143 38/75/144
f 45/86/145 40/77/146 37/78/147 41/85/148
f 45/86/149 50/93/150 49/94/151 48/92/152
f 45/86/153 41/85/154 51/95/155 50/93/156
f 42/90/157 48/92/158 49/94/159 52/96/160
f 41/85/161 43/87/162 53/97/163 51/95/164
f 44/91/165 42/90/166 52/96/167 54/98/168
f 43/58/169 47/57/170 55/99/171 53/100/172
f 55/99/173 47/57/174 46/56/175 56/101/176
f 46/56/177 44/55/178 54/102/179 56/101/180
f 12/23/181 17/30/182 13/24/183 9/20/184
f 20/33/185 11/22/186 10/21/187 14/25/188
f 20/33/189 17/30/190 12/23/191 40/77/192 45/86/193 48/92/194 39/76/195 11/22/196
f 48/92/197 42/90/198 38/75/199 39/76/200
f 2/6/201 1/5/202 19/32/203 18/31/204
f 1/5/205 5/10/206 15/27/207 19/32/208
f 47/57/209 29/52/210 30/53/211 46/56/212
f 46/56/213 30/53/214 34/54/215 44/55/216
f 20/33/217 21/34/218 22/35/219 17/30/220
f 21/44/221 24/47/222 23/46/223 22/45/224
f 1/1/225 2/2/226 57/104/227 58/103/228
f 2/2/229 3/3/230 59/105/231 57/104/232
f 4/4/233 1/1/234 58/103/235 60/106/236
f 3/3/237 31/69/238 61/107/239 59/105/240
f 32/70/241 4/4/242 60/106/243 62/108/244
f 30/66/245 29/67/246 63/110/247 64/109/248
f 31/69/249 30/66/250 64/109/251 61/107/252
f 29/67/253 32/70/254 62/108/255 63/110/256
f 58/118/257 57/119/258 66/19/259 67/111/260
f 57/119/261 59/120/262 68/112/263 66/19/264
f 60/121/265 58/118/266 67/111/267 69/113/268
f 59/120/269 61/122/270 70/114/271 68/112/272
f 62/123/273 60/121/274 69/113/275 71/115/276
f 64/124/277 63/125/278 72/117/279 73/116/280
f 61/122/281 64/124/282 73/116/283 70/114/284
f 63/125/285 62/123/286 71/115/287 72/117/288
