# This file uses meters as units for non-parametric coordinates.

v 59.355164 0.000000 -59.355545
v 0.000000 0.000000 -83.941261
v -59.355164 0.000000 -59.355545
v -83.941650 0.000000 -0.000381
v -59.355164 0.000000 59.355164
v 0.000000 0.000000 83.941269
v 59.355164 0.000000 59.355164
v 83.941650 0.000000 -0.000381
v 59.355164 62.168839 -59.355545
v 0.000000 62.168839 -83.941261
v -59.355164 62.168839 -59.355545
v -83.941650 62.168839 -0.000381
v -59.355164 62.168839 59.355164
v 0.000000 62.168839 83.941269
v 59.355164 62.168839 59.355164
v 83.941650 62.168839 -0.000381
v 0.000000 0.000000 -0.000381
v 49.335480 76.047470 -49.335861
v 0.000000 76.047470 -69.771576
v -49.335472 76.047470 -49.335861
v -69.771584 76.047470 -0.000381
v -49.335472 76.047470 49.333954
v 0.000000 76.047470 69.770050
v 49.335480 76.047470 49.333954
v 69.771576 76.047470 -0.000381
v 49.335480 101.687294 -49.335861
v 0.000000 101.687294 -69.771576
v -49.335472 101.687294 -49.335861
v -69.771584 101.687294 -0.000381
v -49.335472 101.687294 49.333954
v 0.000000 101.687294 69.770050
v 49.335480 101.687294 49.333954
v 69.771576 101.687294 -0.000381
v 38.580322 101.687294 -38.579941
v 0.000000 101.687294 -54.560093
v -38.578796 101.687294 -38.579941
v -54.560081 101.687294 -0.000381
v -38.578796 101.687294 38.578033
v 0.000000 101.687294 54.557800
v 38.580322 101.687294 38.578033
v 54.560089 101.687294 -0.000381
v 38.580322 87.502815 -38.579941
v 0.000000 87.502815 -54.560093
v 0.000000 87.502815 -0.000381
v -38.578796 87.502815 -38.579941
v -54.560081 87.502815 -0.000381
v -38.578796 87.502815 38.578033
v 0.000000 87.502815 54.557800
v 38.580322 87.502815 38.578033
v 54.560089 87.502815 -0.000381
vt 0.244658 0.303578
vt 0.244658 0.303578
vt 0.244658 0.303578
vt 0.244658 0.303578
vt 0.244658 0.303578
vt 0.244658 0.303578
vt 0.244658 0.303578
vt 0.244658 0.303578
vt 0.244658 0.303578
vt 0.244658 0.303578
vt 0.244658 0.303578
vt 0.244658 0.303578
vt 0.244658 0.303578
vt 0.244658 0.303578
vt 0.244658 0.303578
vt 0.244658 0.303578
vt 0.244658 0.303578
vt 0.244658 0.303578
vt 0.244658 0.303578
vt 0.244658 0.303578
vt 0.244658 0.303578
vt 0.244658 0.303578
vt 0.244658 0.303578
vt 0.244658 0.303578
vt 0.244658 0.303578
vt 0.244658 0.303578
vt 0.244658 0.303578
vt 0.152019 0.075413
vt 0.130134 0.084478
vt 0.130134 0.053528
vt 0.108249 0.075413
vt 0.099184 0.053528
vt 0.108249 0.031644
vt 0.130134 0.022579
vt 0.152019 0.031644
vt 0.161083 0.053528
vt 0.244658 0.303578
vt 0.244658 0.303578
vt 0.244658 0.303578
vt 0.244658 0.303578
vt 0.244658 0.303578
vt 0.244658 0.303578
vt 0.244658 0.303578
vt 0.244658 0.303578
vt 0.244658 0.303578
vt 0.244658 0.303578
vt 0.244658 0.303578
vt 0.244658 0.303578
vt 0.244658 0.303578
vt 0.244658 0.303578
vt 0.244658 0.303578
vt 0.244658 0.303578
vt 0.994330 0.303404
vt 0.994330 0.303404
vt 0.994330 0.303404
vt 0.994330 0.303404
vt 0.994330 0.303404
vt 0.994330 0.303404
vt 0.994330 0.303404
vt 0.994330 0.303404
vt 0.994330 0.303404
vt 0.994330 0.303404
vt 0.994330 0.303404
vt 0.994330 0.303404
vt 0.994330 0.303404
vt 0.994330 0.303404
vt 0.994330 0.303404
vt 0.994330 0.303404
vt 0.994330 0.303404
vt 0.994330 0.303404
vt 0.994330 0.303404
vt 0.994330 0.303404
vt 0.994330 0.303404
vt 0.994330 0.303404
vt 0.994330 0.303404
vt 0.994330 0.303404
vt 0.994330 0.303404
vt 0.994330 0.303404
vt 0.994330 0.303404
vt 0.994330 0.303404
vt 0.994330 0.303404
vt 0.994330 0.303404
vt 0.994330 0.303404
vt 0.994330 0.303404
vn 0.382684 0.000000 -0.923880
vn 0.382684 0.000000 -0.923880
vn 0.382684 0.000000 -0.923880
vn 0.382684 0.000000 -0.923880
vn -0.382684 0.000000 -0.923880
vn -0.382684 0.000000 -0.923880
vn -0.382684 0.000000 -0.923880
vn -0.382684 0.000000 -0.923880
vn -0.923875 0.000000 -0.382694
vn -0.923875 0.000000 -0.382694
vn -0.923875 0.000000 -0.382694
vn -0.923875 0.000000 -0.382694
vn -0.923876 0.000000 0.382692
vn -0.923876 0.000000 0.382692
vn -0.923876 0.000000 0.382692
vn -0.923876 0.000000 0.382692
vn -0.382689 0.000000 0.923877
vn -0.382689 0.000000 0.923877
vn -0.382689 0.000000 0.923877
vn -0.382689 0.000000 0.923877
vn 0.382689 0.000000 0.923877
vn 0.382689 0.000000 0.923877
vn 0.382689 0.000000 0.923877
vn 0.382689 0.000000 0.923877
vn 0.923876 0.000000 0.382692
vn 0.923876 0.000000 0.382692
vn 0.923876 0.000000 0.382692
vn 0.923876 0.000000 0.382692
vn 0.923875 0.000000 -0.382694
vn 0.923875 0.000000 -0.382694
vn 0.923875 0.000000 -0.382694
vn 0.923875 0.000000 -0.382694
vn 0.000000 -1.000000 0.000000
vn 0.000000 -1.000000 0.000000
vn 0.000000 -1.000000 0.000000
vn 0.000000 -1.000000 0.000000
vn 0.000000 -1.000000 0.000000
vn 0.000000 -1.000000 0.000000
vn 0.000000 -1.000000 0.000000
vn 0.000000 -1.000000 0.000000
vn 0.000000 -1.000000 0.000000
vn 0.000000 -1.000000 0.000000
vn 0.000000 -1.000000 0.000000
vn 0.000000 -1.000000 0.000000
vn 0.000000 -1.000000 0.000000
vn 0.000000 -1.000000 0.000000
vn 0.000000 -1.000000 0.000000
vn 0.000000 -1.000000 0.000000
vn 0.000000 -1.000000 0.000000
vn 0.000000 -1.000000 0.000000
vn 0.000000 -1.000000 0.000000
vn 0.000000 -1.000000 0.000000
vn 0.000000 -1.000000 0.000000
vn 0.000000 -1.000000 0.000000
vn 0.000000 -1.000000 0.000000
vn 0.000000 -1.000000 0.000000
vn 0.000000 1.000000 0.000000
vn 0.000000 1.000000 0.000000
vn 0.000000 1.000000 0.000000
vn 0.000000 1.000000 0.000000
vn 0.000000 1.000000 0.000000
vn 0.000000 1.000000 0.000000
vn 0.000000 1.000000 0.000000
vn 0.000000 1.000000 0.000000
vn 0.000000 1.000000 0.000000
vn 0.000000 1.000000 0.000000
vn 0.000000 1.000000 0.000000
vn 0.000000 1.000000 0.000000
vn 0.000000 1.000000 0.000000
vn 0.000000 1.000000 0.000000
vn 0.000000 1.000000 0.000000
vn 0.000000 1.000000 0.000000
vn 0.000000 1.000000 0.000000
vn 0.000000 1.000000 0.000000
vn 0.000000 1.000000 0.000000
vn 0.000000 1.000000 0.000000
vn 0.000000 1.000000 0.000000
vn 0.000000 1.000000 -0.000000
vn 0.000000 1.000000 -0.000000
vn 0.000000 1.000000 -0.000000
vn 0.278381 0.686170 -0.672068
vn 0.278381 0.686170 -0.672068
vn 0.278381 0.686170 -0.672068
vn 0.278381 0.686170 -0.672068
vn -0.278381 0.686170 -0.672068
vn -0.278381 0.686170 -0.672068
vn -0.278381 0.686170 -0.672068
vn -0.278381 0.686170 -0.672068
vn -0.672061 0.686175 -0.278386
vn -0.672061 0.686175 -0.278386
vn -0.672061 0.686175 -0.278386
vn -0.672061 0.686175 -0.278386
vn -0.672053 0.686183 0.278385
vn -0.672053 0.686183 0.278385
vn -0.672053 0.686183 0.278385
vn -0.672053 0.686183 0.278385
vn -0.278371 0.686209 0.672032
vn -0.278371 0.686209 0.672032
vn -0.278371 0.686209 0.672032
vn -0.278371 0.686209 0.672032
vn 0.278371 0.686209 0.672032
vn 0.278371 0.686209 0.672032
vn 0.278371 0.686209 0.672032
vn 0.278371 0.686209 0.672032
vn 0.672053 0.686183 0.278384
vn 0.672053 0.686183 0.278384
vn 0.672053 0.686183 0.278384
vn 0.672053 0.686183 0.278384
vn 0.672061 0.686175 -0.278386
vn 0.672061 0.686175 -0.278386
vn 0.672061 0.686175 -0.278386
vn 0.672061 0.686175 -0.278386
vn 0.382688 0.000000 -0.923878
vn 0.382688 0.000000 -0.923878
vn 0.382688 0.000000 -0.923878
vn 0.382688 0.000000 -0.923878
vn -0.382688 0.000000 -0.923878
vn -0.382688 0.000000 -0.923878
vn -0.382688 0.000000 -0.923878
vn -0.382688 0.000000 -0.923878
vn -0.923875 0.000000 -0.382694
vn -0.923875 0.000000 -0.382694
vn -0.923875 0.000000 -0.382694
vn -0.923875 0.000000 -0.382694
vn -0.923872 0.000000 0.382702
vn -0.923872 0.000000 0.382702
vn -0.923872 0.000000 0.382702
vn -0.923872 0.000000 0.382702
vn -0.382694 0.000000 0.923875
vn -0.382694 0.000000 0.923875
vn -0.382694 0.000000 0.923875
vn -0.382694 0.000000 0.923875
vn 0.382694 0.000000 0.923875
vn 0.382694 0.000000 0.923875
vn 0.382694 0.000000 0.923875
vn 0.382694 0.000000 0.923875
vn 0.923872 0.000000 0.382702
vn 0.923872 0.000000 0.382702
vn 0.923872 0.000000 0.382702
vn 0.923872 0.000000 0.382702
vn 0.923875 0.000000 -0.382694
vn 0.923875 0.000000 -0.382694
vn 0.923875 0.000000 -0.382694
vn 0.923875 0.000000 -0.382694
vn 0.000000 1.000000 0.000000
vn 0.000000 1.000000 0.000000
vn 0.000000 1.000000 0.000000
vn 0.000000 1.000000 0.000000
vn 0.000000 1.000000 -0.000000
vn 0.000000 1.000000 -0.000000
vn 0.000000 1.000000 -0.000000
vn 0.000000 1.000000 -0.000000
vn 0.000000 1.000000 -0.000000
vn 0.000000 1.000000 -0.000000
vn 0.000000 1.000000 -0.000000
vn 0.000000 1.000000 -0.000000
vn 0.000000 1.000000 0.000000
vn 0.000000 1.000000 0.000000
vn 0.000000 1.000000 0.000000
vn 0.000000 1.000000 0.000000
vn 0.000000 1.000000 0.000000
vn 0.000000 1.000000 0.000000
vn 0.000000 1.000000 0.000000
vn 0.000000 1.000000 0.000000
vn 0.000000 1.000000 0.000000
vn 0.000000 1.000000 0.000000
vn 0.000000 1.000000 0.000000
vn 0.000000 1.000000 0.000000
vn 0.000000 1.000000 0.000000
vn 0.000000 1.000000 0.000000
vn 0.000000 1.000000 0.000000
vn 0.000000 1.000000 0.000000
vn 0.000000 1.000000 0.000000
vn 0.000000 1.000000 0.000000
vn 0.000000 1.000000 0.000000
vn 0.000000 1.000000 0.000000
vn -0.382676 0.000000 0.923882
vn -0.382676 0.000000 0.923882
vn -0.382676 0.000000 0.923882
vn -0.382676 0.000000 0.923882
vn 0.382689 0.000000 0.923877
vn 0.382689 0.000000 0.923877
vn 0.382689 0.000000 0.923877
vn 0.382689 0.000000 0.923877
vn 0.923870 0.000000 0.382706
vn 0.923870 0.000000 0.382706
vn 0.923870 0.000000 0.382706
vn 0.923870 0.000000 0.382706
vn 0.923866 0.000000 -0.382716
vn 0.923866 0.000000 -0.382716
vn 0.923866 0.000000 -0.382716
vn 0.923866 0.000000 -0.382716
vn 0.382681 0.000000 -0.923880
vn 0.382681 0.000000 -0.923880
vn 0.382681 0.000000 -0.923880
vn 0.382681 0.000000 -0.923880
vn -0.382669 0.000000 -0.923886
vn -0.382669 0.000000 -0.923886
vn -0.382669 0.000000 -0.923886
vn -0.382669 0.000000 -0.923886
vn -0.923879 0.000000 -0.382685
vn -0.923879 0.000000 -0.382685
vn -0.923879 0.000000 -0.382685
vn -0.923879 0.000000 -0.382685
vn -0.923883 0.000000 0.382675
vn -0.923883 0.000000 0.382675
vn -0.923883 0.000000 0.382675
vn -0.923883 0.000000 0.382675
s off
f 1/1/1 2/2/2 10/3/3 9/4/4
f 2/2/5 3/5/6 11/6/7 10/3/8
f 3/5/9 4/7/10 12/8/11 11/6/12
f 4/7/13 5/9/14 13/10/15 12/8/16
f 5/9/17 6/11/18 14/12/19 13/10/20
f 6/11/21 7/13/22 15/14/23 14/12/24
f 7/13/25 8/15/26 16/16/27 15/14/28
f 8/15/29 1/17/30 9/18/31 16/16/32
f 2/19/33 1/20/34 17/21/35
f 3/22/36 2/19/37 17/21/38
f 4/23/39 3/22/40 17/21/41
f 5/24/42 4/23/43 17/21/44
f 6/25/45 5/24/46 17/21/47
f 7/26/48 6/25/49 17/21/50
f 8/27/51 7/26/52 17/21/53
f 1/20/54 8/27/55 17/21/56
f 42/28/57 43/29/58 44/30/59
f 43/29/60 45/31/61 44/30/62
f 45/31/63 46/32/64 44/30/65
f 46/32/66 47/33/67 44/30/68
f 47/33/69 48/34/70 44/30/71
f 48/34/72 49/35/73 44/30/74
f 49/35/75 50/36/76 44/30/77
f 50/36/78 42/28/79 44/30/80
f 9/37/81 10/38/82 19/39/83 18/40/84
f 10/38/85 11/41/86 20/42/87 19/39/88
f 11/41/89 12/43/90 21/44/91 20/42/92
f 12/43/93 13/45/94 22/46/95 21/44/96
f 13/45/97 14/47/98 23/48/99 22/46/100
f 14/47/101 15/49/102 24/50/103 23/48/104
f 15/49/105 16/51/106 25/52/107 24/50/108
f 16/51/109 9/37/110 18/40/111 25/52/112
f 18/53/113 19/54/114 27/55/115 26/56/116
f 19/54/117 20/57/118 28/58/119 27/55/120
f 20/57/121 21/59/122 29/60/123 28/58/124
f 21/59/125 22/61/126 30/62/127 29/60/128
f 22/61/129 23/63/130 31/64/131 30/62/132
f 23/63/133 24/65/134 32/66/135 31/64/136
f 24/65/137 25/67/138 33/68/139 32/66/140
f 25/67/141 18/53/142 26/56/143 33/68/144
f 26/56/145 27/55/146 35/69/147 34/70/148
f 27/55/149 28/58/150 36/71/151 35/69/152
f 28/58/153 29/60/154 37/72/155 36/71/156
f 29/60/157 30/62/158 38/73/159 37/72/160
f 30/62/161 31/64/162 39/74/163 38/73/164
f 31/64/165 32/66/166 40/75/167 39/74/168
f 32/66/169 33/68/170 41/76/171 40/75/172
f 33/68/173 26/56/174 34/70/175 41/76/176
f 34/70/177 35/69/178 43/77/179 42/78/180
f 35/69/181 36/71/182 45/79/183 43/77/184
f 36/71/185 37/72/186 46/80/187 45/79/188
f 37/72/189 38/73/190 47/81/191 46/80/192
f 38/73/193 39/74/194 48/82/195 47/81/196
f 39/74/197 40/75/198 49/83/199 48/82/200
f 40/75/201 41/76/202 50/84/203 49/83/204
f 41/76/205 34/70/206 42/78/207 50/84/208
