# This file uses meters as units for non-parametric coordinates.

v -50.000000 199.358444 84.142303
v 50.000000 199.358444 84.142303
v -50.000000 199.358444 -15.857696
v 50.000000 199.358444 -15.857696
v -44.314148 199.358444 78.456406
v 44.314148 199.358444 78.456406
v 44.314148 199.358444 -10.171890
v -44.314148 199.358444 -10.171890
v -44.314148 190.223465 78.456406
v 44.314148 190.223465 78.456406
v 44.314148 190.223465 -10.171890
v -44.314148 190.223465 -10.171890
v -50.000000 164.954391 84.142303
v 50.000000 164.954391 84.142303
v 50.000000 164.954391 -15.857696
v -50.000000 164.954391 -15.857696
v -50.000000 60.131184 21.276190
v 50.000000 60.131184 21.276190
v 50.000000 60.131184 -78.723816
v -50.000000 60.131184 -78.723816
v -50.000000 11.179649 21.276190
v 50.000000 11.179649 21.276190
v 50.000000 11.179649 -78.723816
v -50.000000 11.179649 -78.723816
v 50.000000 48.335922 -78.723816
v 50.000000 48.335926 21.276190
v -50.000000 48.335926 21.276190
v -50.000000 48.335922 -78.723816
v -54.542301 0.000000 25.818443
v 54.542301 0.000000 25.818443
v 54.542301 11.179649 25.818443
v -54.542301 11.179649 25.818443
v 54.542301 0.000000 -83.266159
v 54.542301 11.179649 -83.266159
v -54.542301 11.179649 -83.266159
v -54.542301 0.000000 -83.266159
v 54.542301 48.335922 -83.266159
v 54.542301 48.335926 25.818443
v 54.542301 60.131184 -83.266159
v 54.542301 60.131184 25.818443
v -54.542301 48.335926 25.818443
v -54.542301 60.131184 25.818443
v -54.542301 48.335922 -83.266159
v -54.542301 60.131184 -83.266159
v -39.167118 48.335922 -88.368507
v -42.725372 48.335922 -93.786903
v -42.725372 60.131184 -93.786903
v -39.167164 60.131184 -88.368507
v -39.167164 164.954391 -25.502396
v -39.167118 199.358459 -25.502396
v -34.713173 199.358459 -18.719767
v -34.713173 190.223465 -18.719767
v -34.713173 190.223465 87.004280
v -34.713173 199.358459 87.004280
v -39.167118 199.358459 93.786911
v -39.167118 164.954407 93.786911
v -39.167118 60.131184 30.920792
v -42.725372 60.131184 36.339287
v -42.725372 48.335926 36.339287
v -39.167164 48.335926 30.920792
v -39.167118 11.179649 30.920792
v -42.725372 11.179649 36.339287
v -42.725372 0.000000 36.339287
v -42.725372 0.000000 -93.786903
v -42.725372 11.179649 -93.786903
v -39.167164 11.179649 -88.368507
v 42.725372 11.179649 -93.786903
v 42.725372 0.000000 -93.786903
v 42.725372 0.000000 36.339287
v 42.725372 11.179649 36.339287
v 39.167164 11.179649 30.920792
v 39.167164 48.335926 30.920792
v 42.725372 48.335926 36.339287
v 42.725372 60.131184 36.339287
v 39.167164 60.131184 30.920792
v 39.167164 164.954391 93.786911
v 39.167164 199.358444 93.786911
v 34.713173 199.358444 87.004280
v 34.713173 190.223465 87.004280
v 34.713173 190.223465 -18.719767
v 34.713173 199.358444 -18.719767
v 39.167164 199.358444 -25.502396
v 39.167164 164.954407 -25.502396
v 39.167164 60.131184 -88.368507
v 42.725372 60.131184 -93.786903
v 42.725372 48.335922 -93.786903
v 39.167164 48.335922 -88.368507
v 39.167164 11.179649 -88.368507
vt 0.243336 0.356749
vt 0.243336 0.356749
vt 0.243336 0.356749
vt 0.243336 0.356749
vt 0.243336 0.356749
vt 0.243336 0.356749
vt 0.243336 0.356749
vt 0.243336 0.356749
vt 0.243336 0.356749
vt 0.243336 0.356749
vt 0.243336 0.356749
vt 0.243336 0.356749
vt 0.243336 0.356749
vt 0.243336 0.356749
vt 0.111790 0.030171
vt 0.149991 0.030171
vt 0.149991 0.075596
vt 0.111790 0.075596
vt 0.243336 0.356749
vt 0.243336 0.356749
vt 0.243336 0.356749
vt 0.243336 0.356749
vt 0.243336 0.356749
vt 0.243336 0.356749
vt 0.243336 0.304853
vt 0.243336 0.356749
vt 0.243336 0.356749
vt 0.243336 0.304853
vt 0.243336 0.356749
vt 0.243336 0.356749
vt 0.243336 0.304853
vt 0.243336 0.304853
vt 0.243336 0.304853
vt 0.243336 0.304853
vt 0.243336 0.304853
vt 0.243336 0.304853
vt 0.243336 0.304853
vt 0.243336 0.304853
vt 0.243336 0.304853
vt 0.243336 0.304853
vt 0.243336 0.304853
vt 0.243336 0.304853
vt 0.243336 0.304853
vt 0.243336 0.304853
vt 0.243336 0.304853
vt 0.243336 0.304853
vt 0.243336 0.304853
vt 0.243336 0.304853
vt 0.243336 0.304853
vt 0.243336 0.304853
vt 0.243336 0.304853
vt 0.243336 0.304853
vt 0.243336 0.304853
vt 0.243336 0.304853
vt 0.243336 0.304853
vt 0.243336 0.304853
vt 0.243336 0.304853
vt 0.243336 0.304853
vt 0.243336 0.304853
vt 0.243336 0.304853
vt 0.243336 0.304853
vt 0.243336 0.304853
vt 0.243336 0.304853
vt 0.243336 0.304853
vt 0.243336 0.304853
vt 0.243336 0.304853
vt 0.243336 0.304853
vt 0.243336 0.304853
vt 0.243336 0.304853
vt 0.243336 0.356749
vt 0.243336 0.356749
vt 0.243336 0.356749
vt 0.243336 0.356749
vt 0.243336 0.356749
vt 0.115610 0.080241
vt 0.115610 0.025526
vt 0.243336 0.356749
vt 0.243336 0.356749
vt 0.243336 0.356749
vt 0.243336 0.356749
vt 0.243336 0.304853
vt 0.243336 0.304853
vt 0.243336 0.304853
vt 0.243336 0.304853
vt 0.243336 0.304853
vt 0.243336 0.304853
vt 0.243336 0.304853
vt 0.243336 0.304853
vt 0.243336 0.304853
vt 0.243336 0.304853
vt 0.243336 0.304853
vt 0.243336 0.304853
vt 0.243336 0.304853
vt 0.243336 0.304853
vt 0.243336 0.304853
vt 0.243336 0.304853
vt 0.243336 0.304853
vt 0.243336 0.304853
vt 0.243336 0.304853
vt 0.243336 0.304853
vt 0.243336 0.356749
vt 0.243336 0.356749
vt 0.243336 0.356749
vt 0.243336 0.356749
vt 0.146171 0.025526
vt 0.243336 0.356749
vt 0.243336 0.356749
vt 0.146171 0.080241
vt 0.243336 0.356749
vt 0.243336 0.356749
vt 0.243336 0.356749
vt 0.243336 0.304853
vt 0.243336 0.304853
vt 0.243336 0.304853
vt 0.243336 0.304853
vt 0.243336 0.304853
vt 0.243336 0.304853
vt 0.243336 0.304853
vt 0.243336 0.304853
vt 0.243336 0.304853
vt 0.243336 0.304853
vt 0.243336 0.304853
vt 0.243336 0.304853
vt 0.243336 0.304853
vt 0.243336 0.304853
vt 0.243336 0.304853
vt 0.243336 0.304853
vt 0.243336 0.304853
vt 0.243336 0.304853
vt 0.243336 0.304853
vt 0.243336 0.304853
vt 0.243336 0.356749
vt 0.243336 0.304853
vt 0.243336 0.304853
vt 0.243336 0.304853
vt 0.243336 0.304853
vt 0.243336 0.304853
vt 0.243336 0.304853
vt 0.243336 0.304853
vt 0.243336 0.304853
vt 0.243336 0.304853
vt 0.243336 0.304853
vt 0.243336 0.304853
vt 0.243336 0.304853
vt 0.243336 0.304853
vt 0.243336 0.304853
vt 0.243336 0.304853
vt 0.243336 0.304853
vt 0.243336 0.304853
vt 0.243336 0.304853
vt 0.243336 0.304853
vt 0.243336 0.304853
vt 0.243336 0.304853
vt 0.243336 0.304853
vt 0.243336 0.304853
vt 0.243336 0.304853
vt 0.243336 0.304853
vt 0.243336 0.304853
vt 0.243336 0.304853
vt 0.243336 0.304853
vt 0.243336 0.304853
vt 0.243336 0.304853
vt 0.243336 0.304853
vt 0.243336 0.304853
vt 0.243336 0.304853
vt 0.243336 0.304853
vt 0.243336 0.304853
vt 0.243336 0.304853
vt 0.243336 0.304853
vt 0.243336 0.304853
vt 0.243336 0.304853
vt 0.243336 0.304853
vt 0.243336 0.304853
vt 0.243336 0.304853
vt 0.243336 0.304853
vt 0.243336 0.304853
vt 0.243336 0.304853
vt 0.243336 0.304853
vt 0.243336 0.304853
vt 0.243336 0.304853
vt 0.243336 0.304853
vt 0.243336 0.304853
vt 0.243336 0.304853
vt 0.243336 0.304853
vt 0.243336 0.304853
vt 0.243336 0.304853
vt 0.243336 0.304853
vt 0.243336 0.304853
vt 0.243336 0.304853
vt 0.243336 0.304853
vt 0.243336 0.304853
vt 0.243336 0.304853
vt 0.243336 0.304853
vt 0.243336 0.304853
vt 0.243336 0.304853
vt 0.243336 0.304853
vt 0.243336 0.304853
vt 0.243336 0.304853
vt 0.243336 0.304853
vt 0.243336 0.304853
vt 0.243336 0.304853
vt 0.243336 0.304853
vt 0.243336 0.304853
vt 0.243336 0.304853
vt 0.243336 0.304853
vt 0.243336 0.304853
vt 0.243336 0.304853
vt 0.243336 0.356749
vt 0.243336 0.304853
vt 0.243336 0.304853
vt 0.243336 0.304853
vt 0.243336 0.304853
vt 0.243336 0.304853
vt 0.243336 0.304853
vt 0.243336 0.304853
vt 0.243336 0.304853
vt 0.243336 0.304853
vt 0.243336 0.304853
vt 0.243336 0.304853
vt 0.243336 0.304853
vt 0.243336 0.304853
vt 0.243336 0.304853
vt 0.243336 0.304853
vt 0.243336 0.304853
vt 0.243336 0.304853
vt 0.243336 0.304853
vt 0.243336 0.304853
vt 0.243336 0.304853
vt 0.243336 0.304853
vt 0.243336 0.304853
vt 0.243336 0.304853
vt 0.243336 0.304853
vt 0.243336 0.304853
vt 0.243336 0.304853
vt 0.243336 0.304853
vt 0.243336 0.356749
vt 0.243336 0.304853
vt 0.243336 0.304853
vt 0.243336 0.304853
vt 0.243336 0.304853
vt 0.243336 0.356749
vt 0.243336 0.304853
vt 0.243336 0.304853
vt 0.243336 0.304853
vt 0.243336 0.304853
vt 0.243336 0.304853
vt 0.243336 0.304853
vt 0.243336 0.304853
vt 0.243336 0.304853
vt 0.243336 0.304853
vt 0.243336 0.304853
vt 0.243336 0.304853
vt 0.243336 0.304853
vt 0.243336 0.304853
vt 0.243336 0.304853
vt 0.243336 0.304853
vt 0.243336 0.304853
vt 0.243336 0.304853
vn -0.000000 0.000000 1.000000
vn -0.000000 0.000000 1.000000
vn -0.000000 0.000000 1.000000
vn -0.000000 0.000000 1.000000
vn 0.000000 1.000000 0.000000
vn 0.000000 1.000000 0.000000
vn 0.000000 1.000000 0.000000
vn 0.000000 1.000000 0.000000
vn 0.000000 0.000000 -1.000000
vn 0.000000 0.000000 -1.000000
vn 0.000000 0.000000 -1.000000
vn 0.000000 0.000000 -1.000000
vn 1.000000 0.000000 0.000000
vn 1.000000 0.000000 0.000000
vn 1.000000 0.000000 0.000000
vn 1.000000 0.000000 0.000000
vn -1.000000 0.000000 0.000000
vn -1.000000 0.000000 0.000000
vn -1.000000 0.000000 0.000000
vn -1.000000 0.000000 0.000000
vn 0.000000 1.000000 0.000000
vn 0.000000 1.000000 0.000000
vn 0.000000 1.000000 0.000000
vn 0.000000 1.000000 0.000000
vn 0.000000 1.000000 0.000000
vn 0.000000 1.000000 0.000000
vn 0.000000 1.000000 0.000000
vn 0.000000 1.000000 0.000000
vn 0.000000 1.000000 0.000000
vn 0.000000 1.000000 0.000000
vn 0.000000 1.000000 0.000000
vn 0.000000 1.000000 0.000000
vn 0.000000 1.000000 0.000000
vn 0.000000 1.000000 0.000000
vn 0.000000 1.000000 0.000000
vn 0.000000 1.000000 0.000000
vn -0.000000 0.000000 -1.000000
vn -0.000000 0.000000 -1.000000
vn -0.000000 0.000000 -1.000000
vn -0.000000 0.000000 -1.000000
vn -1.000000 0.000000 0.000000
vn -1.000000 0.000000 0.000000
vn -1.000000 0.000000 0.000000
vn -1.000000 0.000000 0.000000
vn 0.000000 0.000000 1.000000
vn 0.000000 0.000000 1.000000
vn 0.000000 0.000000 1.000000
vn 0.000000 0.000000 1.000000
vn 1.000000 0.000000 0.000000
vn 1.000000 0.000000 0.000000
vn 1.000000 0.000000 0.000000
vn 1.000000 0.000000 0.000000
vn -0.000000 -0.514328 0.857593
vn -0.000000 -0.514328 0.857593
vn -0.000000 -0.514328 0.857593
vn -0.000000 -0.514328 0.857593
vn 1.000000 0.000000 0.000000
vn 1.000000 0.000000 0.000000
vn 1.000000 0.000000 0.000000
vn 1.000000 0.000000 0.000000
vn -0.000000 0.514328 -0.857593
vn -0.000000 0.514328 -0.857593
vn -0.000000 0.514328 -0.857593
vn -0.000000 0.514328 -0.857593
vn -1.000000 0.000000 0.000000
vn -1.000000 0.000000 0.000000
vn -1.000000 0.000000 0.000000
vn -1.000000 0.000000 0.000000
vn 0.000000 0.000000 1.000000
vn 0.000000 0.000000 1.000000
vn 0.000000 0.000000 1.000000
vn 0.000000 0.000000 1.000000
vn 1.000000 0.000000 0.000000
vn 1.000000 0.000000 0.000000
vn 1.000000 0.000000 0.000000
vn 1.000000 0.000000 0.000000
vn 0.000000 0.000000 -1.000000
vn 0.000000 0.000000 -1.000000
vn 0.000000 0.000000 -1.000000
vn 0.000000 0.000000 -1.000000
vn -1.000000 0.000000 0.000000
vn -1.000000 0.000000 0.000000
vn -1.000000 0.000000 0.000000
vn -1.000000 0.000000 0.000000
vn 0.000000 0.000000 1.000000
vn 0.000000 0.000000 1.000000
vn 0.000000 0.000000 1.000000
vn 0.000000 0.000000 1.000000
vn 1.000000 0.000000 0.000000
vn 1.000000 0.000000 0.000000
vn 1.000000 0.000000 0.000000
vn 1.000000 0.000000 0.000000
vn 0.000000 0.000000 -1.000000
vn 0.000000 0.000000 -1.000000
vn 0.000000 0.000000 -1.000000
vn 0.000000 0.000000 -1.000000
vn -1.000000 0.000000 0.000000
vn -1.000000 0.000000 0.000000
vn -1.000000 0.000000 0.000000
vn -1.000000 0.000000 0.000000
vn 1.000000 0.000000 0.000000
vn 1.000000 0.000000 0.000000
vn 1.000000 0.000000 0.000000
vn 1.000000 0.000000 0.000000
vn 0.000000 0.000000 1.000000
vn 0.000000 0.000000 1.000000
vn 0.000000 0.000000 1.000000
vn 0.000000 0.000000 1.000000
vn -1.000000 0.000000 0.000000
vn -1.000000 0.000000 0.000000
vn -1.000000 0.000000 0.000000
vn -1.000000 0.000000 0.000000
vn 0.000000 0.000000 -1.000000
vn 0.000000 0.000000 -1.000000
vn 0.000000 0.000000 -1.000000
vn 0.000000 0.000000 -1.000000
vn 0.000000 1.000000 0.000000
vn 0.000000 1.000000 0.000000
vn 0.000000 1.000000 0.000000
vn 0.000000 1.000000 0.000000
vn 0.000000 1.000000 0.000000
vn 0.000000 1.000000 0.000000
vn 0.000000 1.000000 0.000000
vn 0.000000 1.000000 0.000000
vn 0.000000 1.000000 0.000000
vn 0.000000 1.000000 0.000000
vn 0.000000 1.000000 0.000000
vn 0.000000 1.000000 0.000000
vn 0.000000 -1.000000 0.000000
vn 0.000000 -1.000000 0.000000
vn 0.000000 -1.000000 0.000000
vn 0.000000 -1.000000 0.000000
vn 0.000000 1.000000 0.000000
vn 0.000000 1.000000 0.000000
vn 0.000000 1.000000 0.000000
vn 0.000000 1.000000 0.000000
vn 0.000000 -1.000000 0.000000
vn 0.000000 -1.000000 0.000000
vn 0.000000 -1.000000 0.000000
vn 0.000000 -1.000000 0.000000
vn 0.000000 1.000000 0.000000
vn 0.000000 1.000000 0.000000
vn 0.000000 1.000000 0.000000
vn 0.000000 1.000000 0.000000
vn 0.000000 -1.000000 -0.000000
vn 0.000000 -1.000000 -0.000000
vn 0.000000 -1.000000 -0.000000
vn 0.000000 -1.000000 -0.000000
vn 0.000000 1.000000 0.000000
vn 0.000000 1.000000 0.000000
vn 0.000000 1.000000 0.000000
vn 0.000000 1.000000 0.000000
vn -0.000000 -1.000000 0.000000
vn -0.000000 -1.000000 0.000000
vn -0.000000 -1.000000 0.000000
vn -0.000000 -1.000000 0.000000
vn 0.000000 1.000000 0.000000
vn 0.000000 1.000000 0.000000
vn 0.000000 1.000000 0.000000
vn 0.000000 1.000000 0.000000
vn 0.000000 1.000000 -0.000001
vn 0.000000 1.000000 -0.000001
vn 0.000000 1.000000 -0.000001
vn 0.000000 1.000000 -0.000001
vn 0.000000 -1.000000 0.000001
vn 0.000000 -1.000000 0.000001
vn 0.000000 -1.000000 0.000001
vn 0.000000 -1.000000 0.000001
vn 0.000000 -1.000000 0.000000
vn 0.000000 -1.000000 0.000000
vn 0.000000 -1.000000 0.000000
vn 0.000000 -1.000000 0.000000
vn -0.664957 0.000000 -0.746882
vn -0.664957 0.000000 -0.746882
vn -0.664957 0.000000 -0.746882
vn -0.664957 0.000000 -0.746882
vn 0.000000 1.000000 0.000000
vn 0.000000 1.000000 0.000000
vn 0.000000 1.000000 0.000000
vn 0.000000 1.000000 0.000000
vn -0.606862 0.408792 -0.681622
vn -0.606862 0.408792 -0.681622
vn -0.606862 0.408792 -0.681622
vn -0.606862 0.408792 -0.681622
vn -0.664960 0.000000 -0.746879
vn -0.664960 0.000000 -0.746879
vn -0.664960 0.000000 -0.746879
vn -0.664960 0.000000 -0.746879
vn -0.000001 1.000000 0.000001
vn -0.000001 1.000000 0.000001
vn -0.000001 1.000000 0.000001
vn -0.000001 1.000000 0.000001
vn 0.664957 0.000000 0.746881
vn 0.664957 0.000000 0.746881
vn 0.664957 0.000000 0.746881
vn 0.664957 0.000000 0.746881
vn 0.000000 1.000000 0.000000
vn 0.000000 1.000000 0.000000
vn 0.000000 1.000000 0.000000
vn 0.000000 1.000000 0.000000
vn 0.664957 0.000000 -0.746882
vn 0.664957 0.000000 -0.746882
vn 0.664957 0.000000 -0.746882
vn 0.664957 0.000000 -0.746882
vn -0.000001 1.000000 -0.000001
vn -0.000001 1.000000 -0.000001
vn -0.000001 1.000000 -0.000001
vn -0.000001 1.000000 -0.000001
vn -0.664956 0.000000 0.746882
vn -0.664956 0.000000 0.746882
vn -0.664956 0.000000 0.746882
vn -0.664956 0.000000 0.746882
vn -0.606856 -0.408794 0.681625
vn -0.606856 -0.408794 0.681625
vn -0.606856 -0.408794 0.681625
vn -0.606856 -0.408794 0.681625
vn 0.000000 1.000000 0.000000
vn 0.000000 1.000000 0.000000
vn 0.000000 1.000000 0.000000
vn 0.000000 1.000000 0.000000
vn -0.664961 0.000000 0.746879
vn -0.664961 0.000000 0.746879
vn -0.664961 0.000000 0.746879
vn -0.664961 0.000000 0.746879
vn 0.000000 -1.000000 0.000000
vn 0.000000 -1.000000 0.000000
vn 0.000000 -1.000000 0.000000
vn 0.000000 -1.000000 0.000000
vn -0.664957 -0.000000 0.746882
vn -0.664957 -0.000000 0.746882
vn -0.664956 -0.000000 0.746882
vn -0.664957 -0.000000 0.746882
vn 0.000000 1.000000 0.000000
vn 0.000000 1.000000 0.000000
vn 0.000000 1.000000 0.000000
vn 0.000000 1.000000 0.000000
vn -0.664961 0.000000 0.746878
vn -0.664961 0.000000 0.746878
vn -0.664961 0.000000 0.746878
vn -0.664961 0.000000 0.746878
vn 0.000000 -1.000000 0.000000
vn 0.000000 -1.000000 0.000000
vn 0.000000 -1.000000 0.000000
vn 0.000000 -1.000000 0.000000
vn -0.664957 0.000000 -0.746882
vn -0.664957 0.000000 -0.746882
vn -0.664957 0.000000 -0.746882
vn -0.664957 0.000000 -0.746882
vn 0.000000 1.000000 -0.000000
vn 0.000000 1.000000 -0.000000
vn 0.000000 1.000000 -0.000000
vn 0.000000 1.000000 -0.000000
vn -0.664960 0.000000 -0.746879
vn -0.664960 0.000000 -0.746879
vn -0.664960 0.000000 -0.746879
vn -0.664960 0.000000 -0.746879
vn 0.664957 0.000000 -0.746882
vn 0.664957 0.000000 -0.746882
vn 0.664957 0.000000 -0.746882
vn 0.664957 0.000000 -0.746882
vn 0.000000 -1.000000 0.000000
vn 0.000000 -1.000000 0.000000
vn 0.000000 -1.000000 0.000000
vn 0.000000 -1.000000 0.000000
vn 0.664961 0.000000 0.746878
vn 0.664961 0.000000 0.746878
vn 0.664961 0.000000 0.746878
vn 0.664961 0.000000 0.746878
vn 0.000000 1.000000 0.000000
vn 0.000000 1.000000 0.000000
vn 0.000000 1.000000 0.000000
vn 0.000000 1.000000 0.000000
vn 0.664957 0.000000 0.746881
vn 0.664957 0.000000 0.746881
vn 0.664957 0.000000 0.746881
vn 0.664957 0.000000 0.746881
vn 0.000000 -1.000000 0.000000
vn 0.000000 -1.000000 0.000000
vn 0.000000 -1.000000 0.000000
vn 0.000000 -1.000000 0.000000
vn 0.664961 0.000000 0.746879
vn 0.664961 0.000000 0.746879
vn 0.664961 0.000000 0.746879
vn 0.664961 0.000000 0.746879
vn 0.000000 1.000000 -0.000000
vn 0.000000 1.000000 -0.000000
vn 0.000000 1.000000 -0.000000
vn 0.000000 1.000000 -0.000000
vn 0.606858 -0.408794 0.681624
vn 0.606858 -0.408794 0.681624
vn 0.606858 -0.408794 0.681624
vn 0.606858 -0.408793 0.681624
vn 0.664958 0.000000 0.746881
vn 0.664958 0.000000 0.746881
vn 0.664958 0.000000 0.746881
vn 0.664958 0.000000 0.746881
vn 0.000000 1.000000 -0.000001
vn 0.000000 1.000000 -0.000001
vn 0.000000 1.000000 -0.000001
vn 0.000000 1.000000 -0.000001
vn -0.664958 0.000000 -0.746881
vn -0.664958 0.000000 -0.746881
vn -0.664958 0.000000 -0.746881
vn -0.664958 0.000000 -0.746881
vn 0.000000 1.000000 0.000000
vn 0.000000 1.000000 0.000000
vn 0.000000 1.000000 0.000000
vn 0.000000 1.000000 0.000000
vn -0.664958 0.000000 0.746881
vn -0.664958 0.000000 0.746881
vn -0.664958 0.000000 0.746881
vn -0.664958 0.000000 0.746881
vn 0.000000 1.000000 0.000001
vn 0.000000 1.000000 0.000001
vn 0.000000 1.000000 0.000001
vn 0.000000 1.000000 0.000001
vn 0.664961 0.000000 -0.746878
vn 0.664961 0.000000 -0.746878
vn 0.664961 0.000000 -0.746878
vn 0.664961 0.000000 -0.746878
vn 0.606862 0.408792 -0.681622
vn 0.606862 0.408792 -0.681622
vn 0.606862 0.408792 -0.681622
vn 0.606862 0.408792 -0.681622
vn 0.000000 1.000000 0.000000
vn 0.000000 1.000000 0.000000
vn 0.000000 1.000000 0.000000
vn 0.000000 1.000000 0.000000
vn 0.664957 0.000000 -0.746882
vn 0.664957 0.000000 -0.746882
vn 0.664957 0.000000 -0.746882
vn 0.664957 0.000000 -0.746882
vn 0.000000 -1.000000 0.000000
vn 0.000000 -1.000000 0.000000
vn 0.000000 -1.000000 0.000000
vn 0.000000 -1.000000 0.000000
vn 0.664961 0.000000 -0.746878
vn 0.664961 0.000000 -0.746878
vn 0.664961 0.000000 -0.746878
vn 0.664961 0.000000 -0.746878
vn 0.000000 1.000000 -0.000000
vn 0.000000 1.000000 -0.000000
vn 0.000000 1.000000 -0.000000
vn 0.000000 1.000000 -0.000000
s off
f 76/102/1 77/103/2 55/79/3 56/80/4
f 79/105/5 80/108/6 52/75/7 53/76/8
f 82/110/9 83/111/10 49/71/11 50/72/12
f 14/20/13 15/22/14 4/5/15 2/2/16
f 16/23/17 13/19/18 1/1/19 3/6/20
f 77/103/21 78/104/22 54/78/23 55/79/24
f 2/2/25 4/4/26 7/9/27 6/8/28
f 81/109/29 82/110/30 50/72/31 51/73/32
f 3/3/33 1/1/34 5/7/35 8/10/36
f 78/104/37 79/106/38 53/77/39 54/78/40
f 6/8/41 7/9/42 11/13/43 10/12/44
f 80/107/45 81/109/46 51/73/47 52/74/48
f 8/10/49 5/7/50 9/11/51 12/14/52
f 75/101/53 76/102/54 56/80/55 57/208/56
f 18/26/57 19/241/58 15/22/59 14/20/60
f 49/71/61 83/111/62 84/132/63 48/70/64
f 20/29/65 17/236/66 13/19/67 16/23/68
f 71/147/69 72/143/70 60/84/71 61/203/72
f 22/179/73 23/254/74 25/38/75 26/243/76
f 87/125/77 88/118/78 66/91/79 45/67/80
f 24/35/81 21/256/82 27/217/83 28/234/84
f 69/153/85 70/149/86 62/201/87 63/197/88
f 30/185/89 33/187/90 34/48/91 31/183/92
f 65/190/93 67/120/94 68/154/95 64/195/96
f 36/53/97 29/43/98 32/248/99 35/215/100
f 38/238/101 37/161/102 39/57/103 40/171/104
f 59/175/105 73/141/106 74/135/107 58/207/108
f 43/61/109 41/221/110 42/233/111 44/225/112
f 47/165/113 85/131/114 86/127/115 46/212/116
f 70/150/117 71/146/118 61/204/119 62/200/120
f 23/34/121 22/180/122 31/182/123 34/252/124
f 66/158/125 88/119/126 67/92/127 65/90/128
f 68/155/129 69/152/130 63/198/131 64/194/132
f 21/31/133 24/213/134 35/54/135 32/46/136
f 26/39/137 25/159/138 37/56/139 38/239/140
f 19/28/141 18/168/142 40/170/143 39/229/144
f 60/178/145 72/144/146 73/140/147 59/83/148
f 74/136/149 75/138/150 57/209/151 58/206/152
f 28/41/153 27/218/154 41/220/155 43/227/156
f 17/25/157 20/223/158 44/62/159 42/60/160
f 48/167/161 84/133/162 85/130/163 47/69/164
f 86/128/165 87/124/166 45/191/167 46/211/168
f 46/210/169 45/192/170 28/235/171 43/228/172
f 44/226/173 47/164/174 46/68/175 43/66/176
f 20/224/177 48/166/178 47/163/179 44/63/180
f 16/24/181 49/71/182 48/70/183 20/30/184
f 3/3/185 50/72/186 49/71/187 16/24/188
f 51/73/189 50/72/190 3/3/191 8/10/192
f 52/74/193 51/73/194 8/10/195 12/14/196
f 9/15/197 53/76/198 52/75/199 12/18/200
f 5/7/201 54/78/202 53/77/203 9/11/204
f 1/1/205 55/79/206 54/78/207 5/7/208
f 13/19/209 56/80/210 55/79/211 1/1/212
f 17/236/213 57/208/214 56/80/215 13/19/216
f 58/205/217 57/81/218 17/237/219 42/231/220
f 41/222/221 59/174/222 58/82/223 42/232/224
f 27/219/225 60/177/226 59/173/227 41/59/228
f 21/257/229 61/202/230 60/176/231 27/40/232
f 62/199/233 61/85/234 21/258/235 32/246/236
f 29/250/237 63/196/238 62/86/239 32/247/240
f 64/88/241 63/87/242 29/251/243 36/52/244
f 35/216/245 65/189/246 64/89/247 36/249/248
f 24/214/249 66/157/250 65/188/251 35/49/252
f 28/42/253 45/193/254 66/156/255 24/36/256
f 68/94/257 67/121/258 34/50/259 33/51/260
f 30/186/261 69/151/262 68/93/263 33/47/264
f 70/148/265 69/95/266 30/44/267 31/184/268
f 22/181/269 71/145/270 70/96/271 31/45/272
f 72/142/273 71/97/274 22/32/275 26/244/276
f 73/139/277 72/98/278 26/245/279 38/240/280
f 74/134/281 73/99/282 38/55/283 40/172/284
f 18/169/285 75/137/286 74/100/287 40/58/288
f 76/102/289 75/101/290 18/26/291 14/20/292
f 77/103/293 76/102/294 14/20/295 2/2/296
f 78/104/297 77/103/298 2/2/299 6/8/300
f 79/106/301 78/104/302 6/8/303 10/12/304
f 80/108/305 79/105/306 10/16/307 11/17/308
f 7/9/309 81/109/310 80/107/311 11/13/312
f 4/4/313 82/110/314 81/109/315 7/9/316
f 83/111/317 82/110/318 4/4/319 15/21/320
f 84/132/321 83/111/322 15/21/323 19/27/324
f 85/129/325 84/112/326 19/242/327 39/230/328
f 86/126/329 85/113/330 39/64/331 37/162/332
f 25/160/333 87/123/334 86/114/335 37/65/336
f 88/117/337 87/115/338 25/37/339 23/33/340
f 67/122/341 88/116/342 23/255/343 34/253/344
