# This file uses meters as units for non-parametric coordinates.

v 23.168945 25.973593 -30.987453
v -0.032043 21.097351 -40.411377
v -23.912048 21.097351 -30.563259
v -35.787964 26.167767 3.321838
v -23.912048 21.097351 29.323483
v 1.145935 27.511145 40.411377
v 23.847961 21.097351 29.323483
v 33.738708 21.097351 -0.049591
v 20.404053 58.808887 -22.978115
v 0.009155 64.753593 -30.195618
v -21.907043 60.285080 -21.118069
v -30.381775 64.742241 0.066376
v -21.185303 62.320667 22.201443
v 0.654602 59.409843 31.951904
v 22.378540 55.203388 22.260952
v 30.618286 62.950890 0.613403
v 17.076874 4.981810 -21.952105
v -0.006104 4.981810 -28.576899
v -0.006104 0.000000 -0.101471
v -17.089081 4.981810 -21.952105
v -24.165726 4.981810 -0.143433
v -17.089081 4.981810 20.680285
v -0.006104 4.981810 27.305079
v 17.076874 4.981810 20.680285
v 24.151993 4.981810 -0.143433
v 2.858734 81.893356 -2.802134
v -0.482178 82.348511 -4.295444
v -3.774261 82.409279 -2.959299
v -5.097198 82.102158 0.405121
v -3.656769 81.435410 3.879404
v -0.305176 80.886368 5.401707
v 3.002167 80.715401 4.099131
v 4.305267 81.182396 0.685883
v 7.344055 96.735611 -8.150196
v -1.939392 96.384338 -11.169004
v -4.855070 93.232506 -3.716893
v -12.722015 94.161339 0.441742
v -2.912603 93.198433 5.900022
v 0.502014 92.915024 11.803007
v 8.387756 93.691612 8.245564
v 6.668097 93.296112 0.150969
v 5.189133 97.961212 -6.131840
v -1.109314 97.857018 -8.501720
v -3.211316 95.450035 -1.948018
v -9.390259 96.260155 0.532532
v -2.442251 95.405357 4.469892
v -0.109863 95.230217 9.155560
v 5.961227 95.772522 6.433964
v 4.386146 95.289719 0.237944
v -0.404358 83.236420 0.525665
v 23.704206 72.166245 0.894928
v 17.178720 69.548805 18.142939
v 0.654602 69.548805 24.957020
v -13.324350 75.817070 16.841364
v -23.316633 74.564278 0.163269
v -16.513437 74.892540 -16.386652
v 0.009155 74.892540 -23.200733
v 16.536325 74.845009 -16.372156
v 39.659500 39.549805 -0.017548
v 27.516579 42.985096 27.531727
v 0.219727 38.006622 39.999771
v -27.997231 39.295174 27.987965
v -39.661026 39.646000 -0.051117
v -28.046059 39.646000 -27.967365
v -0.006104 39.646000 -39.531326
v 28.032326 39.646000 -27.967365
vt 0.466923 0.340854
vt 0.466923 0.340854
vt 0.466923 0.340854
vt 0.466923 0.340854
vt 0.466923 0.340854
vt 0.466923 0.340854
vt 0.466923 0.340854
vt 0.466923 0.340854
vt 0.466923 0.340854
vt 0.466923 0.340854
vt 0.466923 0.340854
vt 0.466923 0.340854
vt 0.466923 0.340854
vt 0.466923 0.340854
vt 0.466923 0.340854
vt 0.466923 0.340854
vt 0.466923 0.340854
vt 0.466923 0.340854
vt 0.466923 0.340854
vt 0.466923 0.340854
vt 0.466923 0.340854
vt 0.466923 0.340854
vt 0.466923 0.340854
vt 0.466923 0.340854
vt 0.466923 0.340854
vt 0.466923 0.340854
vt 0.466923 0.340854
vt 0.466923 0.340854
vt 0.466923 0.340854
vt 0.466923 0.340854
vt 0.466923 0.340854
vt 0.466923 0.340854
vt 0.466923 0.340854
vt 0.466923 0.340854
vt 0.466923 0.340854
vt 0.466923 0.340854
vt 0.466923 0.340854
vt 0.466923 0.340854
vt 0.466923 0.340854
vt 0.466923 0.340854
vt 0.466923 0.340854
vt 0.466923 0.340854
vt 0.466923 0.340854
vt 0.466923 0.340854
vt 0.466923 0.340854
vt 0.466923 0.340854
vt 0.466923 0.340854
vt 0.466923 0.340854
vt 0.466923 0.340854
vt 0.466923 0.340854
vt 0.466923 0.340854
vt 0.466923 0.340854
vt 0.466923 0.340854
vt 0.466923 0.340854
vt 0.466923 0.340854
vt 0.466923 0.340854
vt 0.466923 0.340854
vt 0.466923 0.340854
vt 0.466923 0.340854
vt 0.466923 0.340854
vt 0.466923 0.340854
vt 0.466923 0.340854
vt 0.466923 0.340854
vt 0.466923 0.340854
vt 0.466923 0.340854
vt 0.466923 0.340854
vt 0.466923 0.340854
vt 0.466923 0.340854
vt 0.466923 0.340854
vt 0.466923 0.340854
vt 0.466923 0.340854
vt 0.466923 0.340854
vt 0.466923 0.340854
vt 0.466923 0.340854
vt 0.466923 0.340854
vt 0.466923 0.340854
vt 0.466923 0.340854
vt 0.466923 0.340854
vt 0.466923 0.340854
vt 0.466923 0.340854
vt 0.466923 0.340854
vt 0.466923 0.340854
vt 0.466923 0.340854
vt 0.466923 0.340854
vt 0.466923 0.340854
vn 0.373947 0.055318 -0.925799
vn 0.373947 0.055318 -0.925799
vn 0.373947 0.055318 -0.925799
vn 0.373947 0.055318 -0.925799
vn -0.380881 0.044358 -0.923559
vn -0.380881 0.044358 -0.923559
vn -0.380881 0.044358 -0.923559
vn -0.380881 0.044358 -0.923559
vn -0.914500 -0.236598 -0.328193
vn -0.914500 -0.236598 -0.328193
vn -0.914500 -0.236598 -0.328193
vn -0.914500 -0.236598 -0.328193
vn -0.909318 -0.172146 0.378822
vn -0.909318 -0.172146 0.378822
vn -0.909318 -0.172146 0.378822
vn -0.909318 -0.172146 0.378822
vn -0.396688 -0.013395 0.917856
vn -0.396688 -0.013395 0.917856
vn -0.396688 -0.013395 0.917856
vn -0.396688 -0.013395 0.917856
vn 0.426657 0.025380 0.904058
vn 0.426657 0.025380 0.904058
vn 0.426657 0.025380 0.904058
vn 0.426657 0.025380 0.904058
vn 0.909538 -0.200324 0.364156
vn 0.909538 -0.200324 0.364156
vn 0.909538 -0.200324 0.364156
vn 0.909539 -0.200324 0.364156
vn 0.894372 -0.266073 -0.359589
vn 0.894372 -0.266073 -0.359589
vn 0.894372 -0.266073 -0.359589
vn 0.894372 -0.266073 -0.359589
vn 0.066682 -0.982846 -0.171950
vn 0.066682 -0.982846 -0.171950
vn 0.066682 -0.982846 -0.171950
vn -0.066682 -0.982846 -0.171950
vn -0.066682 -0.982846 -0.171950
vn -0.066682 -0.982846 -0.171950
vn -0.201414 -0.977323 -0.065356
vn -0.201414 -0.977323 -0.065357
vn -0.201414 -0.977323 -0.065357
vn -0.201595 -0.977070 0.068509
vn -0.201595 -0.977070 0.068509
vn -0.201595 -0.977070 0.068509
vn -0.069190 -0.981520 0.178415
vn -0.069190 -0.981520 0.178415
vn -0.069190 -0.981520 0.178415
vn 0.069190 -0.981520 0.178415
vn 0.069190 -0.981520 0.178415
vn 0.069190 -0.981520 0.178415
vn 0.201607 -0.977068 0.068499
vn 0.201607 -0.977068 0.068499
vn 0.201607 -0.977068 0.068499
vn 0.201427 -0.977321 -0.065346
vn 0.201427 -0.977321 -0.065346
vn 0.201427 -0.977321 -0.065346
vn 0.372019 -0.500481 -0.781742
vn 0.372019 -0.500481 -0.781742
vn 0.372019 -0.500481 -0.781742
vn 0.372019 -0.500481 -0.781742
vn -0.310275 -0.555365 -0.771557
vn -0.310275 -0.555365 -0.771557
vn -0.310275 -0.555365 -0.771557
vn -0.310275 -0.555365 -0.771557
vn -0.854057 -0.456681 -0.249058
vn -0.854057 -0.456681 -0.249058
vn -0.854057 -0.456681 -0.249058
vn -0.854057 -0.456681 -0.249058
vn -0.821806 -0.496883 0.278822
vn -0.821806 -0.496883 0.278822
vn -0.821806 -0.496883 0.278822
vn -0.821806 -0.496883 0.278822
vn -0.269055 -0.502060 0.821916
vn -0.269055 -0.502060 0.821916
vn -0.269055 -0.502060 0.821916
vn -0.269055 -0.502060 0.821916
vn 0.278447 -0.513789 0.811473
vn 0.278447 -0.513789 0.811473
vn 0.278447 -0.513789 0.811473
vn 0.278447 -0.513789 0.811473
vn 0.823890 -0.493622 0.278464
vn 0.823890 -0.493623 0.278464
vn 0.823890 -0.493622 0.278464
vn 0.823890 -0.493623 0.278464
vn 0.841911 -0.433244 -0.321690
vn 0.841911 -0.433244 -0.321690
vn 0.841911 -0.433245 -0.321690
vn 0.841911 -0.433244 -0.321690
vn 0.379448 0.470129 -0.796867
vn 0.379448 0.470129 -0.796867
vn 0.379448 0.470129 -0.796867
vn 0.379448 0.470129 -0.796867
vn -0.384139 0.462403 -0.799137
vn -0.384139 0.462403 -0.799137
vn -0.384139 0.462403 -0.799137
vn -0.384139 0.462403 -0.799137
vn -0.794205 0.478946 -0.373965
vn -0.794205 0.478946 -0.373965
vn -0.794205 0.478946 -0.373965
vn -0.794205 0.478946 -0.373965
vn -0.737157 0.557903 0.381241
vn -0.737157 0.557903 0.381241
vn -0.737157 0.557903 0.381241
vn -0.737157 0.557902 0.381241
vn -0.273068 0.515419 0.812267
vn -0.273068 0.515419 0.812267
vn -0.273068 0.515419 0.812267
vn -0.273068 0.515419 0.812267
vn 0.395314 0.447930 0.801926
vn 0.395314 0.447930 0.801926
vn 0.395314 0.447930 0.801926
vn 0.395314 0.447930 0.801926
vn 0.777514 0.468138 0.419904
vn 0.777514 0.468138 0.419904
vn 0.777514 0.468138 0.419904
vn 0.777514 0.468138 0.419904
vn 0.816827 0.447923 -0.363537
vn 0.816827 0.447923 -0.363537
vn 0.816827 0.447923 -0.363537
vn 0.816827 0.447923 -0.363537
vn 0.305838 -0.398092 -0.864862
vn 0.305838 -0.398092 -0.864862
vn 0.305838 -0.398092 -0.864862
vn 0.305838 -0.398092 -0.864862
vn -0.741194 -0.265007 -0.616768
vn -0.741194 -0.265007 -0.616768
vn -0.741194 -0.265007 -0.616768
vn -0.741194 -0.265007 -0.616768
vn -0.622134 -0.259959 -0.738492
vn -0.622134 -0.259960 -0.738492
vn -0.622134 -0.259960 -0.738492
vn -0.622134 -0.259959 -0.738492
vn -0.624442 -0.244424 0.741842
vn -0.624442 -0.244424 0.741842
vn -0.624442 -0.244424 0.741842
vn -0.624442 -0.244424 0.741842
vn -0.736845 -0.182396 0.650992
vn -0.736845 -0.182396 0.650992
vn -0.736845 -0.182396 0.650992
vn -0.736845 -0.182396 0.650992
vn 0.377915 -0.437733 0.815825
vn 0.377915 -0.437733 0.815825
vn 0.377915 -0.437733 0.815825
vn 0.377915 -0.437733 0.815825
vn 0.956306 -0.290090 -0.036417
vn 0.956306 -0.290090 -0.036417
vn 0.956306 -0.290090 -0.036417
vn 0.956306 -0.290090 -0.036417
vn 0.948051 -0.275547 -0.158976
vn 0.948051 -0.275547 -0.158976
vn 0.948051 -0.275547 -0.158976
vn 0.948051 -0.275547 -0.158976
vn 0.135387 0.874678 -0.465413
vn 0.135387 0.874678 -0.465413
vn 0.135387 0.874678 -0.465413
vn 0.135387 0.874678 -0.465413
vn -0.800764 0.596892 -0.049977
vn -0.800764 0.596892 -0.049977
vn -0.800764 0.596892 -0.049977
vn -0.800764 0.596892 -0.049977
vn -0.268805 0.625448 -0.732502
vn -0.268805 0.625448 -0.732502
vn -0.268805 0.625448 -0.732502
vn -0.268805 0.625448 -0.732502
vn -0.361200 0.552594 0.751116
vn -0.361200 0.552594 0.751116
vn -0.361200 0.552594 0.751116
vn -0.361200 0.552594 0.751116
vn -0.804602 0.383567 0.453311
vn -0.804602 0.383567 0.453311
vn -0.804602 0.383567 0.453311
vn -0.804602 0.383567 0.453311
vn 0.203842 0.763039 0.613368
vn 0.203842 0.763039 0.613368
vn 0.203842 0.763039 0.613368
vn 0.203842 0.763039 0.613368
vn 0.682037 0.703304 -0.200470
vn 0.682037 0.703304 -0.200470
vn 0.682037 0.703304 -0.200470
vn 0.682037 0.703304 -0.200470
vn 0.653016 0.673499 0.346367
vn 0.653016 0.673499 0.346367
vn 0.653016 0.673499 0.346367
vn 0.653016 0.673499 0.346367
vn -0.314499 0.487684 0.814405
vn -0.314499 0.487684 0.814405
vn -0.314499 0.487684 0.814405
vn 0.879427 0.280072 0.384926
vn 0.879427 0.280072 0.384926
vn 0.879427 0.280072 0.384926
vn 0.388979 0.267916 0.881429
vn 0.388978 0.267916 0.881429
vn 0.388979 0.267916 0.881429
vn 0.494811 0.341822 -0.798949
vn 0.494811 0.341822 -0.798949
vn 0.494811 0.341822 -0.798949
vn 0.863426 0.280501 -0.419303
vn 0.863426 0.280501 -0.419303
vn 0.863426 0.280501 -0.419303
vn -0.382890 0.545721 -0.745375
vn -0.382890 0.545721 -0.745375
vn -0.382890 0.545721 -0.745375
vn -0.908390 0.365865 0.202412
vn -0.908390 0.365865 0.202412
vn -0.908390 0.365865 0.202412
vn -0.928307 0.369859 0.038094
vn -0.928307 0.369859 0.038094
vn -0.928307 0.369859 0.038094
vn 0.403181 0.870360 0.282698
vn 0.403181 0.870360 0.282698
vn 0.403181 0.870360 0.282698
vn 0.403181 0.870360 0.282698
vn 0.203733 0.853392 0.479807
vn 0.203733 0.853392 0.479807
vn 0.203733 0.853392 0.479807
vn 0.203733 0.853392 0.479807
vn 0.078746 0.875138 0.477422
vn 0.078746 0.875138 0.477422
vn 0.078746 0.875138 0.477422
vn 0.078746 0.875139 0.477422
vn -0.354061 0.918867 0.174142
vn -0.354061 0.918867 0.174142
vn -0.354061 0.918867 0.174142
vn -0.354061 0.918867 0.174142
vn -0.387093 0.912997 -0.128825
vn -0.387093 0.912997 -0.128825
vn -0.387093 0.912997 -0.128825
vn -0.387093 0.912997 -0.128825
vn -0.148787 0.917615 -0.368571
vn -0.148787 0.917615 -0.368571
vn -0.148787 0.917615 -0.368571
vn -0.148787 0.917615 -0.368571
vn 0.166154 0.925341 -0.340789
vn 0.166154 0.925341 -0.340789
vn 0.166154 0.925341 -0.340789
vn 0.166154 0.925341 -0.340789
vn 0.426980 0.903776 -0.029615
vn 0.426981 0.903776 -0.029615
vn 0.426981 0.903776 -0.029615
vn 0.426980 0.903776 -0.029614
vn 0.840496 0.384330 0.381912
vn 0.840496 0.384330 0.381912
vn 0.840496 0.384330 0.381912
vn 0.840496 0.384330 0.381912
vn 0.374873 0.386287 0.842764
vn 0.374874 0.386287 0.842764
vn 0.374873 0.386287 0.842764
vn 0.374874 0.386287 0.842764
vn -0.352911 0.330170 0.875467
vn -0.352911 0.330170 0.875467
vn -0.352911 0.330170 0.875467
vn -0.352911 0.330170 0.875467
vn -0.863889 0.333353 0.377588
vn -0.863889 0.333353 0.377588
vn -0.863889 0.333353 0.377588
vn -0.863888 0.333353 0.377588
vn -0.856578 0.346953 -0.381966
vn -0.856578 0.346953 -0.381966
vn -0.856578 0.346953 -0.381966
vn -0.856578 0.346953 -0.381966
vn -0.384060 0.353448 -0.852979
vn -0.384060 0.353448 -0.852979
vn -0.384060 0.353448 -0.852979
vn -0.384060 0.353448 -0.852979
vn 0.375910 0.343170 -0.860771
vn 0.375910 0.343170 -0.860771
vn 0.375910 0.343170 -0.860771
vn 0.375910 0.343170 -0.860771
vn 0.840520 0.380147 -0.386023
vn 0.840520 0.380147 -0.386023
vn 0.840520 0.380147 -0.386023
vn 0.840520 0.380147 -0.386023
s off
f 1/9/1 2/10/2 65/83/3 66/85/4
f 2/10/5 3/11/6 64/82/7 65/83/8
f 3/11/9 4/12/10 63/81/11 64/82/12
f 4/12/13 5/13/14 62/80/15 63/81/16
f 5/13/17 6/14/18 61/79/19 62/80/20
f 6/14/21 7/15/22 60/78/23 61/79/24
f 7/15/25 8/16/26 59/77/27 60/78/28
f 8/16/29 1/17/30 66/84/31 59/77/32
f 18/37/33 17/38/34 19/35/35
f 20/39/36 18/37/37 19/35/38
f 21/40/39 20/39/40 19/35/41
f 22/41/42 21/40/43 19/35/44
f 23/42/45 22/41/46 19/35/47
f 24/43/48 23/42/49 19/35/50
f 25/44/51 24/43/52 19/35/53
f 17/38/54 25/44/55 19/35/56
f 2/2/57 1/1/58 17/38/59 18/37/60
f 3/3/61 2/2/62 18/37/63 20/39/64
f 4/4/65 3/3/66 20/39/67 21/40/68
f 5/5/69 4/4/70 21/40/71 22/41/72
f 6/6/73 5/5/74 22/41/75 23/42/76
f 7/7/77 6/6/78 23/42/79 24/43/80
f 8/8/81 7/7/82 24/43/83 25/44/84
f 1/1/85 8/8/86 25/44/87 17/38/88
f 9/33/89 10/32/90 57/75/91 58/76/92
f 10/32/93 11/31/94 56/74/95 57/75/96
f 11/31/97 12/30/98 55/73/99 56/74/100
f 12/30/101 13/29/102 54/72/103 55/73/104
f 13/29/105 14/28/106 53/71/107 54/72/108
f 14/28/109 15/27/110 52/70/111 53/71/112
f 15/27/113 16/34/114 51/69/115 52/70/116
f 16/34/117 9/33/118 58/76/119 51/69/120
f 26/45/121 27/46/122 35/54/123 34/53/124
f 27/46/125 28/47/126 36/55/127 35/54/128
f 28/47/129 29/48/130 37/56/131 36/55/132
f 29/48/133 30/49/134 38/57/135 37/56/136
f 30/49/137 31/50/138 39/58/139 38/57/140
f 31/50/141 32/51/142 40/59/143 39/58/144
f 32/51/145 33/52/146 41/60/147 40/59/148
f 33/52/149 26/45/150 34/53/151 41/60/152
f 34/53/153 35/54/154 43/62/155 42/61/156
f 35/54/157 36/55/158 44/63/159 43/62/160
f 36/55/161 37/56/162 45/64/163 44/63/164
f 37/56/165 38/57/166 46/65/167 45/64/168
f 38/57/169 39/58/170 47/66/171 46/65/172
f 39/58/173 40/59/174 48/67/175 47/66/176
f 40/59/177 41/60/178 49/68/179 48/67/180
f 41/60/181 34/53/182 42/61/183 49/68/184
f 42/61/185 43/62/186 50/36/187
f 43/62/188 44/63/189 50/36/190
f 44/63/191 45/64/192 50/36/193
f 45/64/194 46/65/195 50/36/196
f 46/65/197 47/66/198 50/36/199
f 47/66/200 48/67/201 50/36/202
f 48/67/203 49/68/204 50/36/205
f 49/68/206 42/61/207 50/36/208
f 52/70/209 51/69/210 33/52/211 32/51/212
f 53/71/213 52/70/214 32/51/215 31/50/216
f 54/72/217 53/71/218 31/50/219 30/49/220
f 55/73/221 54/72/222 30/49/223 29/48/224
f 56/74/225 55/73/226 29/48/227 28/47/228
f 57/75/229 56/74/230 28/47/231 27/46/232
f 58/76/233 57/75/234 27/46/235 26/45/236
f 51/69/237 58/76/238 26/45/239 33/52/240
f 60/78/241 59/77/242 16/25/243 15/24/244
f 61/79/245 60/78/246 15/24/247 14/23/248
f 62/80/249 61/79/250 14/23/251 13/22/252
f 63/81/253 62/80/254 13/22/255 12/21/256
f 64/82/257 63/81/258 12/21/259 11/20/260
f 65/83/261 64/82/262 11/20/263 10/19/264
f 66/85/265 65/83/266 10/19/267 9/18/268
f 59/77/269 66/84/270 9/26/271 16/25/272
