# This file uses meters as units for non-parametric coordinates.

v 9.506226 0.000000 -23.912811
v -10.186386 0.000000 -23.632050
v -23.910904 0.000000 -9.507751
v -23.629761 0.000000 10.185242
v -9.504700 0.000000 23.909378
v 10.187912 0.000000 23.628235
v 23.912434 0.000000 9.503937
v 23.631287 0.000000 -10.188675
v 0.000763 0.000000 -0.001907
v -10.186386 16.105038 -23.632050
v 9.506226 16.105038 -23.912811
v 23.631287 16.105038 -10.188675
v 23.912434 16.105038 9.503937
v 10.187912 16.105038 23.628235
v -9.504700 16.105038 23.909378
v -23.629761 16.105038 10.185242
v -23.910904 16.105038 -9.507751
v -21.600342 0.000000 -29.079060
v -29.683304 0.000000 -20.760727
v -29.683304 10.481758 -20.760727
v -21.600342 10.481758 -29.079060
v -29.076767 0.000000 21.599960
v -20.757675 0.000000 29.682541
v -20.757675 10.481758 29.682541
v -29.076767 10.481758 21.599960
v 21.602245 0.000000 29.075241
v 29.684834 0.000000 20.757294
v 29.684834 10.481758 20.757294
v 21.602245 10.481758 29.075241
v 29.078289 0.000000 -21.603394
v 20.759964 0.000000 -29.685211
v 20.759964 10.481758 -29.685211
v 29.078289 10.481758 -21.603394
v 6.310272 45.366669 -14.550018
v -6.761169 45.306923 -14.373779
v -15.870667 42.294357 -5.495071
v -15.684509 38.094810 6.882858
v -6.308365 35.167957 15.509033
v 6.762695 35.227695 15.333557
v 15.872192 38.240055 6.454468
v 15.686035 42.439816 -5.923080
v -6.761169 19.847294 -15.687180
v 6.310272 19.847294 -15.872955
v 15.686035 19.847294 -6.763458
v 15.872192 19.847294 6.307983
v 6.762695 19.847294 15.683365
v -6.308365 19.847294 15.869141
v -15.684509 19.847294 6.759644
v -15.870667 19.847294 -6.310654
v 6.310272 71.841919 7.238007
v -6.761169 71.677307 7.323074
v -15.870667 63.360607 11.653519
v -15.684509 51.767460 17.689896
v -6.308365 43.687614 21.897125
v 6.762695 43.852261 21.812057
v 15.872192 52.168266 17.480850
v 15.686035 63.762043 11.445236
v 6.310272 77.967667 35.232162
v -6.761169 77.782417 35.236740
v -15.870667 68.409042 35.482025
v -15.684509 55.342960 35.823059
v -6.308365 46.236755 36.061478
v 6.762695 46.421955 36.057663
v 15.872192 55.794739 35.811234
v 15.686035 68.861374 35.470200
v 9.159470 85.130554 38.798904
v -9.814072 84.861656 38.804626
v -23.035812 71.256424 39.204025
v -22.766495 52.291313 39.757919
v -9.156799 39.073879 40.144730
v 9.815216 39.342690 40.137863
v 23.037334 52.947071 39.738846
v 22.768024 71.912979 39.184189
v 9.159470 85.130554 52.478409
v -9.814072 84.861656 52.484131
v 0.000763 62.102043 53.151321
v -23.035812 71.256424 52.883530
v -22.766495 52.291313 53.437424
v -9.156799 39.073879 53.824997
v 9.815216 39.342690 53.817368
v 23.037334 52.947071 53.418350
v 22.768024 71.912979 52.863693
v -19.713974 89.177292 38.804626
v -27.632904 81.028656 39.204025
v -27.632904 81.028656 52.883530
v -19.713974 89.177292 52.484131
v -27.078247 42.390354 39.757919
v -18.927002 34.473820 40.144730
v -18.927002 34.473820 53.824997
v -27.078247 42.390354 53.437424
v 19.715504 35.027214 40.137863
v 27.634430 43.175358 39.738846
v 27.634430 43.175358 53.418350
v 19.715504 35.027214 53.817368
v 27.080921 81.813599 39.184189
v 18.929672 89.730087 38.798904
v 18.929672 89.730087 52.478409
v 27.080921 81.813599 52.863693
vt 0.255984 0.277515
vt 0.255984 0.277515
vt 0.255984 0.277515
vt 0.255984 0.277515
vt 0.255572 0.304185
vt 0.255572 0.304185
vt 0.255572 0.304185
vt 0.255572 0.304185
vt 0.255984 0.277515
vt 0.255984 0.277515
vt 0.255984 0.277515
vt 0.255984 0.277515
vt 0.255572 0.304185
vt 0.255572 0.304185
vt 0.255572 0.304185
vt 0.255572 0.304185
vt 0.255984 0.277515
vt 0.146409 0.423205
vt 0.146409 0.423205
vt 0.146409 0.423205
vt 0.146409 0.423205
vt 0.146409 0.423205
vt 0.146409 0.423205
vt 0.146409 0.423205
vt 0.146409 0.423205
vt 0.146409 0.423205
vt 0.146409 0.423205
vt 0.146409 0.423205
vt 0.146409 0.423205
vt 0.146409 0.423205
vt 0.146409 0.423205
vt 0.146409 0.423205
vt 0.146409 0.423205
vt 0.146409 0.423205
vt 0.255984 0.277515
vt 0.255984 0.277515
vt 0.255984 0.277515
vt 0.255572 0.304185
vt 0.255572 0.304185
vt 0.255572 0.304185
vt 0.255572 0.304185
vt 0.255984 0.277515
vt 0.255984 0.277515
vt 0.255984 0.277515
vt 0.255984 0.277515
vt 0.255572 0.304185
vt 0.255572 0.304185
vt 0.255572 0.304185
vt 0.255572 0.304185
vt 0.236286 0.254128
vt 0.255984 0.277515
vt 0.255984 0.277515
vt 0.236286 0.254128
vt 0.255984 0.277515
vt 0.255984 0.277515
vt 0.255984 0.277515
vt 0.255984 0.277515
vt 0.255984 0.277515
vt 0.255984 0.277515
vt 0.255984 0.277515
vt 0.255984 0.277515
vt 0.146409 0.423205
vt 0.146409 0.423205
vt 0.146409 0.423205
vt 0.146409 0.423205
vt 0.146409 0.423205
vt 0.146409 0.423205
vt 0.146409 0.423205
vt 0.146409 0.423205
vt 0.146409 0.423205
vt 0.146409 0.423205
vt 0.146409 0.423205
vt 0.146409 0.423205
vt 0.146409 0.423205
vt 0.146409 0.423205
vt 0.146409 0.423205
vt 0.146409 0.423205
vt 0.146409 0.423205
vt 0.146409 0.423205
vt 0.146409 0.423205
vt 0.146409 0.423205
vt 0.146409 0.423205
vt 0.146409 0.423205
vt 0.146409 0.423205
vt 0.146409 0.423205
vt 0.146409 0.423205
vt 0.255984 0.277515
vt 0.255984 0.277515
vt 0.255984 0.277515
vt 0.255984 0.277515
vt 0.255984 0.277515
vt 0.255984 0.277515
vt 0.255984 0.277515
vt 0.255984 0.277515
vt 0.255984 0.277515
vt 0.255984 0.277515
vt 0.255984 0.277515
vt 0.255984 0.277515
vt 0.255984 0.277515
vt 0.255984 0.277515
vt 0.255984 0.277515
vt 0.255984 0.277515
vt 0.255984 0.277515
vt 0.255984 0.277515
vt 0.255984 0.277515
vt 0.255984 0.277515
vt 0.255984 0.277515
vt 0.255984 0.277515
vt 0.255572 0.304185
vt 0.255572 0.304185
vt 0.255572 0.304185
vt 0.255572 0.304185
vt 0.255572 0.304185
vt 0.255572 0.304185
vt 0.255572 0.304185
vt 0.255572 0.304185
vt 0.255572 0.304185
vt 0.255572 0.304185
vt 0.255572 0.304185
vt 0.255572 0.304185
vt 0.255572 0.304185
vt 0.255572 0.304185
vt 0.255572 0.304185
vt 0.255572 0.304185
vt 0.255572 0.304185
vt 0.255572 0.304185
vt 0.255572 0.304185
vt 0.255572 0.304185
vt 0.255572 0.304185
vt 0.255572 0.304185
vt 0.255572 0.304185
vt 0.255572 0.304185
vt 0.255572 0.304185
vt 0.255572 0.304185
vt 0.255572 0.304185
vt 0.255572 0.304185
vt 0.255572 0.304185
vt 0.255572 0.304185
vt 0.255572 0.304185
vt 0.255572 0.304185
vt 0.255572 0.304185
vt 0.255572 0.304185
vt 0.255572 0.304185
vt 0.255572 0.304185
vt 0.255572 0.304185
vt 0.255572 0.304185
vt 0.255572 0.304185
vt 0.255572 0.304185
vt 0.255572 0.304185
vt 0.255572 0.304185
vt 0.255572 0.304185
vt 0.255572 0.304185
vt 0.255572 0.304185
vt 0.255572 0.304185
vt 0.255572 0.304185
vt 0.255572 0.304185
vt 0.236286 0.254128
vt 0.236286 0.254128
vt 0.236286 0.254128
vt 0.236286 0.254128
vt 0.236286 0.254128
vt 0.236286 0.254128
vt 0.236286 0.254128
vt 0.236286 0.254128
vt 0.236286 0.254128
vt 0.236286 0.254128
vt 0.236286 0.254128
vt 0.236286 0.254128
vt 0.236286 0.254128
vt 0.236286 0.254128
vt 0.236286 0.254128
vt 0.236286 0.254128
vn -0.014256 0.000000 -0.999898
vn -0.014256 0.000000 -0.999898
vn -0.014256 0.000000 -0.999898
vn -0.014256 0.000000 -0.999898
vn -0.717181 0.000000 -0.696887
vn -0.717181 0.000000 -0.696887
vn -0.717181 0.000000 -0.696887
vn -0.717181 0.000000 -0.696887
vn -0.999898 0.000000 0.014275
vn -0.999898 0.000000 0.014275
vn -0.999898 0.000000 0.014275
vn -0.999898 0.000000 0.014275
vn -0.696838 0.000000 0.717229
vn -0.696838 0.000000 0.717229
vn -0.696838 0.000000 0.717229
vn -0.696838 0.000000 0.717229
vn 0.014275 0.000000 0.999898
vn 0.014275 0.000000 0.999898
vn 0.014275 0.000000 0.999898
vn 0.014275 0.000000 0.999898
vn 0.717180 0.000000 0.696888
vn 0.717180 0.000000 0.696888
vn 0.717180 0.000000 0.696888
vn 0.717180 0.000000 0.696888
vn 0.999898 0.000000 -0.014275
vn 0.999898 0.000000 -0.014275
vn 0.999898 0.000000 -0.014275
vn 0.999898 0.000000 -0.014275
vn 0.696837 0.000000 -0.717229
vn 0.696837 0.000000 -0.717229
vn 0.696837 0.000000 -0.717229
vn 0.696837 0.000000 -0.717229
vn 0.000000 -1.000000 0.000000
vn 0.000000 -1.000000 0.000000
vn 0.000000 -1.000000 0.000000
vn 0.000000 -1.000000 0.000000
vn 0.000000 -1.000000 0.000000
vn 0.000000 -1.000000 0.000000
vn 0.000000 -1.000000 0.000000
vn 0.000000 -1.000000 0.000000
vn 0.000000 -1.000000 0.000000
vn 0.000000 -1.000000 0.000000
vn 0.000000 -1.000000 0.000000
vn 0.000000 -1.000000 0.000000
vn 0.000000 -1.000000 0.000000
vn 0.000000 -1.000000 0.000000
vn 0.000000 -1.000000 0.000000
vn 0.000000 -1.000000 0.000000
vn 0.000000 -1.000000 0.000000
vn 0.000000 -1.000000 0.000000
vn 0.000000 -1.000000 0.000000
vn 0.000000 -1.000000 0.000000
vn 0.000000 -1.000000 0.000000
vn 0.000000 -1.000000 0.000000
vn 0.000000 -1.000000 0.000000
vn 0.000000 -1.000000 0.000000
vn -0.000113 0.029253 0.999572
vn -0.000113 0.029253 0.999572
vn -0.000113 0.029253 0.999572
vn 0.007731 0.024928 0.999659
vn 0.007729 0.024929 0.999659
vn 0.000030 0.029315 0.999570
vn -0.000019 0.029193 0.999574
vn -0.000019 0.029193 0.999574
vn -0.000019 0.029193 0.999574
vn -0.007732 0.024443 0.999671
vn -0.007732 0.024443 0.999671
vn -0.000048 0.029261 0.999572
vn -0.000012 0.029247 0.999572
vn -0.000012 0.029247 0.999572
vn -0.000012 0.029247 0.999572
vn 0.007732 0.024897 0.999660
vn 0.007732 0.024897 0.999660
vn 0.000047 0.029272 0.999572
vn 0.000031 0.029233 0.999573
vn 0.000031 0.029233 0.999573
vn 0.000031 0.029233 0.999573
vn -0.007630 0.024357 0.999674
vn -0.007629 0.024358 0.999674
vn 0.000050 0.029188 0.999574
vn -0.013946 0.051640 -0.998568
vn -0.013946 0.051640 -0.998568
vn -0.013946 0.051640 -0.998568
vn -0.013946 0.051640 -0.998568
vn 0.689481 0.032535 -0.723573
vn 0.689481 0.032535 -0.723573
vn 0.689481 0.032535 -0.723573
vn 0.689481 0.032535 -0.723573
vn 0.999894 0.000351 -0.014570
vn 0.999894 0.000351 -0.014570
vn 0.999894 0.000351 -0.014570
vn 0.999894 0.000351 -0.014570
vn 0.707437 0.004255 0.706764
vn 0.707437 0.004255 0.706764
vn 0.707437 0.004255 0.706764
vn 0.707437 0.004255 0.706764
vn 0.013761 0.023115 0.999638
vn 0.013761 0.023115 0.999638
vn 0.013761 0.023115 0.999638
vn 0.013761 0.023115 0.999638
vn -0.686707 0.005130 0.726916
vn -0.686707 0.005130 0.726916
vn -0.686707 0.005130 0.726916
vn -0.686707 0.005130 0.726916
vn -0.999894 -0.000336 0.014573
vn -0.999894 -0.000336 0.014573
vn -0.999894 -0.000336 0.014573
vn -0.999894 -0.000336 0.014573
vn -0.710038 0.031262 -0.703469
vn -0.710038 0.031262 -0.703469
vn -0.710038 0.031262 -0.703469
vn -0.710038 0.031262 -0.703469
vn 0.000000 -1.000000 0.000000
vn 0.000000 -1.000000 0.000000
vn 0.000000 -1.000000 0.000000
vn 0.000000 -1.000000 0.000000
vn -0.889765 0.000000 0.456420
vn -0.889765 0.000000 0.456420
vn -0.889765 0.000000 0.456420
vn -0.889765 0.000000 0.456420
vn -0.304698 0.905262 -0.296074
vn -0.304698 0.905262 -0.296074
vn -0.304698 0.905262 -0.296074
vn -0.304698 0.905262 -0.296074
vn 0.430694 0.000000 -0.902498
vn 0.430694 0.000000 -0.902498
vn 0.430694 0.000000 -0.902498
vn 0.430694 0.000000 -0.902498
vn 0.000000 -1.000000 0.000000
vn 0.000000 -1.000000 0.000000
vn 0.000000 -1.000000 0.000000
vn 0.000000 -1.000000 0.000000
vn 0.456467 0.000000 0.889740
vn 0.456467 0.000000 0.889740
vn 0.456467 0.000000 0.889740
vn 0.456467 0.000000 0.889740
vn -0.296048 0.905269 0.304702
vn -0.296048 0.905269 0.304702
vn -0.296048 0.905269 0.304702
vn -0.296048 0.905269 0.304702
vn -0.902510 0.000000 -0.430670
vn -0.902510 0.000000 -0.430670
vn -0.902510 0.000000 -0.430670
vn -0.902510 0.000000 -0.430670
vn 0.000000 -1.000000 0.000000
vn 0.000000 -1.000000 0.000000
vn 0.000000 -1.000000 0.000000
vn 0.000000 -1.000000 0.000000
vn 0.889771 0.000000 -0.456407
vn 0.889771 0.000000 -0.456407
vn 0.889771 0.000000 -0.456407
vn 0.889771 0.000000 -0.456407
vn 0.304692 0.905266 0.296069
vn 0.304692 0.905266 0.296069
vn 0.304692 0.905266 0.296069
vn 0.304692 0.905266 0.296069
vn -0.430682 0.000000 0.902504
vn -0.430682 0.000000 0.902504
vn -0.430682 0.000000 0.902504
vn -0.430682 0.000000 0.902504
vn 0.000000 -1.000000 0.000000
vn 0.000000 -1.000000 0.000000
vn 0.000000 -1.000000 0.000000
vn 0.000000 -1.000000 0.000000
vn -0.456395 0.000000 -0.889777
vn -0.456395 0.000000 -0.889777
vn -0.456395 0.000000 -0.889777
vn -0.456395 0.000000 -0.889777
vn 0.296048 0.905269 -0.304702
vn 0.296048 0.905269 -0.304702
vn 0.296048 0.905269 -0.304702
vn 0.296048 0.905269 -0.304702
vn 0.902510 0.000000 0.430670
vn 0.902510 0.000000 0.430670
vn 0.902510 0.000000 0.430670
vn 0.902510 0.000000 0.430670
vn -0.006037 0.905657 -0.423968
vn -0.006037 0.905657 -0.423968
vn -0.006037 0.905657 -0.423968
vn -0.006037 0.905657 -0.423968
vn 0.295468 0.905660 -0.304102
vn 0.295468 0.905660 -0.304102
vn 0.295468 0.905660 -0.304102
vn 0.295468 0.905660 -0.304102
vn 0.423951 0.905665 -0.006047
vn 0.423952 0.905665 -0.006047
vn 0.423952 0.905665 -0.006047
vn 0.423951 0.905665 -0.006047
vn 0.304092 0.905660 0.295478
vn 0.304092 0.905660 0.295478
vn 0.304092 0.905660 0.295478
vn 0.304092 0.905660 0.295478
vn 0.006042 0.905661 0.423960
vn 0.006042 0.905661 0.423960
vn 0.006042 0.905661 0.423960
vn 0.006042 0.905661 0.423960
vn -0.295454 0.905668 0.304092
vn -0.295454 0.905669 0.304092
vn -0.295454 0.905669 0.304092
vn -0.295454 0.905668 0.304092
vn -0.423952 0.905665 0.006047
vn -0.423952 0.905665 0.006047
vn -0.423952 0.905665 0.006047
vn -0.423952 0.905665 0.006047
vn -0.304087 0.905668 -0.295459
vn -0.304087 0.905668 -0.295459
vn -0.304087 0.905668 -0.295459
vn -0.304087 0.905668 -0.295459
vn -0.013170 0.635347 -0.772115
vn -0.013170 0.635347 -0.772115
vn -0.013170 0.635347 -0.772115
vn -0.013170 0.635347 -0.772115
vn -0.690616 0.458209 -0.559548
vn -0.690616 0.458209 -0.559548
vn -0.690616 0.458209 -0.559548
vn -0.690616 0.458209 -0.559548
vn -0.999882 -0.009626 0.011961
vn -0.999882 -0.009626 0.011961
vn -0.999882 -0.009626 0.011961
vn -0.999882 -0.009626 0.011961
vn -0.669161 -0.455148 0.587422
vn -0.669161 -0.455148 0.587422
vn -0.669161 -0.455148 0.587422
vn -0.669161 -0.455148 0.587422
vn 0.013122 -0.600200 0.799742
vn 0.013122 -0.600200 0.799742
vn 0.013122 -0.600200 0.799742
vn 0.013122 -0.600200 0.799742
vn 0.690285 -0.443638 0.571570
vn 0.690285 -0.443638 0.571570
vn 0.690285 -0.443638 0.571570
vn 0.690285 -0.443638 0.571570
vn 0.999882 0.009631 -0.011957
vn 0.999882 0.009631 -0.011957
vn 0.999882 0.009631 -0.011957
vn 0.999882 0.009631 -0.011957
vn 0.669552 0.470702 -0.574578
vn 0.669552 0.470702 -0.574578
vn 0.669552 0.470702 -0.574578
vn 0.669552 0.470702 -0.574578
vn -0.013805 0.976803 -0.213694
vn -0.013805 0.976803 -0.213694
vn -0.013805 0.976803 -0.213694
vn -0.013805 0.976803 -0.213694
vn -0.707844 0.690508 -0.148846
vn -0.707844 0.690508 -0.148846
vn -0.707844 0.690508 -0.148846
vn -0.707844 0.690508 -0.148846
vn -0.999893 -0.014335 0.002946
vn -0.999893 -0.014335 0.002946
vn -0.999893 -0.014335 0.002946
vn -0.999893 -0.014335 0.002946
vn -0.686683 -0.714228 0.135440
vn -0.686683 -0.714228 0.135440
vn -0.686683 -0.714228 0.135440
vn -0.686683 -0.714228 0.135440
vn 0.013772 -0.984060 0.177306
vn 0.013772 -0.984059 0.177306
vn 0.013772 -0.984060 0.177306
vn 0.013772 -0.984060 0.177306
vn 0.707371 -0.694393 0.132078
vn 0.707371 -0.694393 0.132078
vn 0.707371 -0.694393 0.132078
vn 0.707371 -0.694393 0.132078
vn 0.999893 0.014332 -0.002953
vn 0.999893 0.014332 -0.002953
vn 0.999893 0.014332 -0.002953
vn 0.999893 0.014332 -0.002953
vn 0.687184 0.710138 -0.153239
vn 0.687184 0.710138 -0.153239
vn 0.687184 0.710138 -0.153239
vn 0.687184 0.710138 -0.153239
vn -0.006634 0.447809 -0.894105
vn -0.006634 0.447809 -0.894105
vn -0.006634 0.447809 -0.894105
vn -0.006634 0.447809 -0.894105
vn -0.339110 0.304585 -0.890074
vn -0.339110 0.304585 -0.890074
vn -0.168955 0.131937 -0.976753
vn -0.170080 0.133070 -0.976404
vn -0.472815 -0.031327 -0.880605
vn -0.472815 -0.031327 -0.880605
vn -0.472815 -0.031327 -0.880605
vn -0.472815 -0.031327 -0.880605
vn -0.329476 -0.363652 -0.871323
vn -0.329476 -0.363652 -0.871323
vn -0.147058 -0.183425 -0.971972
vn -0.148263 -0.184624 -0.971562
vn 0.006756 -0.497206 -0.867606
vn 0.006756 -0.497206 -0.867606
vn 0.006756 -0.497206 -0.867606
vn 0.006756 -0.497206 -0.867606
vn 0.339099 -0.354055 -0.871583
vn 0.339099 -0.354055 -0.871583
vn 0.152844 -0.180595 -0.971609
vn 0.151546 -0.179376 -0.972038
vn 0.472787 -0.017912 -0.880995
vn 0.472787 -0.017912 -0.880995
vn 0.472787 -0.017912 -0.880995
vn 0.472787 -0.017912 -0.880995
vn 0.329431 0.314317 -0.890326
vn 0.329431 0.314317 -0.890326
vn 0.165412 0.138286 -0.976481
vn 0.164327 0.137129 -0.976828
vn -0.167014 0.985955 0.000000
vn 0.138779 0.990323 0.000000
vn 0.138817 0.990318 0.000000
vn -0.166976 0.985961 0.000000
vn -0.717143 0.696927 0.000000
vn -0.717143 0.696927 0.000000
vn -0.717143 0.696927 0.000000
vn -0.717143 0.696927 0.000000
vn -0.985649 -0.168810 0.000000
vn -0.990588 0.136880 0.000000
vn -0.990075 0.140539 0.000000
vn -0.986267 -0.165161 0.000000
vn -0.696703 -0.717359 0.000000
vn -0.696703 -0.717359 0.000000
vn -0.696703 -0.717359 0.000000
vn -0.696703 -0.717359 0.000000
vn 0.166999 -0.985957 0.000000
vn -0.138821 -0.990318 0.000000
vn -0.138773 -0.990324 0.000000
vn 0.167046 -0.985949 0.000000
vn 0.717122 -0.696948 0.000000
vn 0.717122 -0.696948 0.000000
vn 0.717122 -0.696948 0.000000
vn 0.717122 -0.696948 0.000000
vn 0.986267 0.165157 0.000000
vn 0.990070 -0.140579 0.000000
vn 0.990583 -0.136914 0.000000
vn 0.985649 0.168810 0.000000
vn 0.696701 0.717362 0.000000
vn 0.696701 0.717362 0.000000
vn 0.696701 0.717362 0.000000
vn 0.696701 0.717362 0.000000
vn -0.170080 0.133070 -0.976404
vn -0.168955 0.131937 -0.976753
vn -0.018346 -0.018878 -0.999653
vn -0.018346 -0.018878 -0.999653
vn -0.985649 -0.168810 0.000000
vn -0.986267 -0.165161 0.000000
vn -0.904876 -0.425675 0.000000
vn -0.904876 -0.425675 0.000000
vn 0.007729 0.024929 0.999659
vn 0.007731 0.024928 0.999659
vn 0.018345 0.018878 0.999653
vn 0.018345 0.018878 0.999653
vn 0.138817 0.990318 0.000000
vn 0.138779 0.990323 0.000000
vn 0.399608 0.916686 0.000000
vn 0.399608 0.916686 0.000000
vn -0.148263 -0.184624 -0.971562
vn -0.147058 -0.183425 -0.971972
vn 0.018290 -0.017761 -0.999675
vn 0.018290 -0.017761 -0.999675
vn 0.166999 -0.985957 0.000000
vn 0.167046 -0.985949 0.000000
vn 0.425973 -0.904736 0.000000
vn 0.425973 -0.904736 0.000000
vn -0.007732 0.024443 0.999671
vn -0.007732 0.024443 0.999671
vn -0.018326 0.017796 0.999674
vn -0.018326 0.017796 0.999674
vn -0.990075 0.140539 0.000000
vn -0.990588 0.136880 0.000000
vn -0.916833 0.399270 0.000000
vn -0.916833 0.399270 0.000000
vn 0.151546 -0.179376 -0.972038
vn 0.152844 -0.180595 -0.971609
vn -0.018328 -0.018862 -0.999654
vn -0.018328 -0.018862 -0.999654
vn 0.986267 0.165157 0.000000
vn 0.985649 0.168810 0.000000
vn 0.904867 0.425694 0.000000
vn 0.904867 0.425694 0.000000
vn 0.007732 0.024897 0.999660
vn 0.007732 0.024897 0.999660
vn 0.018328 0.018862 0.999654
vn 0.018328 0.018862 0.999654
vn -0.138773 -0.990324 0.000000
vn -0.138821 -0.990318 0.000000
vn -0.399583 -0.916697 0.000000
vn -0.399583 -0.916697 0.000000
vn 0.164327 0.137129 -0.976828
vn 0.165412 0.138286 -0.976481
vn 0.018217 -0.017693 -0.999678
vn 0.018217 -0.017693 -0.999677
vn -0.167014 0.985955 0.000000
vn -0.166976 0.985961 0.000000
vn -0.425933 0.904755 0.000000
vn -0.425933 0.904755 0.000000
vn -0.007629 0.024358 0.999674
vn -0.007630 0.024357 0.999674
vn -0.018217 0.017693 0.999678
vn -0.018217 0.017693 0.999678
vn 0.990583 -0.136914 0.000000
vn 0.990070 -0.140579 0.000000
vn 0.916790 -0.399371 0.000000
vn 0.916790 -0.399371 0.000000
s off
f 1/1/1 2/2/2 10/3/3 11/4/4
f 18/5/5 19/6/6 20/7/7 21/8/8
f 3/9/9 4/10/10 16/11/11 17/12/12
f 22/13/13 23/14/14 24/15/15 25/16/16
f 5/17/17 6/35/18 14/36/19 15/37/20
f 26/38/21 27/39/22 28/40/23 29/41/24
f 7/42/25 8/43/26 12/44/27 13/45/28
f 30/46/29 31/47/30 32/48/31 33/49/32
f 2/50/33 1/53/34 9/157/35
f 3/158/36 2/50/37 9/157/38
f 4/159/39 3/158/40 9/157/41
f 5/160/42 4/159/43 9/157/44
f 6/161/45 5/160/46 9/157/47
f 7/162/48 6/161/49 9/157/50
f 8/163/51 7/162/52 9/157/53
f 1/53/54 8/163/55 9/157/56
f 74/164/57 75/165/58 76/166/59
f 75/165/60 77/167/61 76/166/62
f 77/167/63 78/168/64 76/166/65
f 78/168/66 79/169/67 76/166/68
f 79/169/69 80/170/70 76/166/71
f 80/170/72 81/171/73 76/166/74
f 81/171/75 82/172/76 76/166/77
f 82/172/78 74/164/79 76/166/80
f 43/62/81 42/63/82 35/19/83 34/18/84
f 44/64/85 43/65/86 34/26/87 41/25/88
f 45/66/89 44/64/90 41/25/91 40/24/92
f 46/67/93 45/66/94 40/24/95 39/23/96
f 47/68/97 46/67/98 39/23/99 38/22/100
f 48/69/101 47/68/102 38/22/103 37/21/104
f 49/70/105 48/69/106 37/21/107 36/20/108
f 42/63/109 49/70/110 36/20/111 35/19/112
f 2/109/113 3/110/114 19/6/115 18/5/116
f 3/110/117 17/111/118 20/7/119 19/6/120
f 17/111/121 10/112/122 21/8/123 20/7/124
f 10/112/125 2/109/126 18/5/127 21/8/128
f 4/113/129 5/114/130 23/14/131 22/13/132
f 5/114/133 15/115/134 24/15/135 23/14/136
f 15/115/137 16/116/138 25/16/139 24/15/140
f 16/116/141 4/113/142 22/13/143 25/16/144
f 6/117/145 7/118/146 27/39/147 26/38/148
f 7/118/149 13/119/150 28/40/151 27/39/152
f 13/119/153 14/120/154 29/41/155 28/40/156
f 14/120/157 6/117/158 26/38/159 29/41/160
f 8/121/161 1/122/162 31/47/163 30/46/164
f 1/122/165 11/123/166 32/48/167 31/47/168
f 11/123/169 12/124/170 33/49/171 32/48/172
f 12/124/173 8/121/174 30/46/175 33/49/176
f 11/4/177 10/3/178 42/60/179 43/61/180
f 12/44/181 11/4/182 43/61/183 44/87/184
f 13/45/185 12/44/186 44/87/187 45/88/188
f 14/36/189 13/45/190 45/88/191 46/89/192
f 15/37/193 14/36/194 46/89/195 47/90/196
f 16/11/197 15/37/198 47/90/199 48/91/200
f 17/12/201 16/11/202 48/91/203 49/92/204
f 10/3/205 17/12/206 49/92/207 42/60/208
f 34/33/209 35/32/210 51/72/211 50/71/212
f 35/32/213 36/31/214 52/73/215 51/72/216
f 36/31/217 37/30/218 53/74/219 52/73/220
f 37/30/221 38/29/222 54/75/223 53/74/224
f 38/29/225 39/28/226 55/76/227 54/75/228
f 39/28/229 40/27/230 56/77/231 55/76/232
f 40/27/233 41/34/234 57/78/235 56/77/236
f 41/34/237 34/33/238 50/71/239 57/78/240
f 50/71/241 51/72/242 59/80/243 58/79/244
f 51/72/245 52/73/246 60/81/247 59/80/248
f 52/73/249 53/74/250 61/82/251 60/81/252
f 53/74/253 54/75/254 62/83/255 61/82/256
f 54/75/257 55/76/258 63/84/259 62/83/260
f 55/76/261 56/77/262 64/85/263 63/84/264
f 56/77/265 57/78/266 65/86/267 64/85/268
f 57/78/269 50/71/270 58/79/271 65/86/272
f 58/93/273 59/94/274 67/95/275 66/96/276
f 59/94/277 60/97/278 68/98/279 67/95/280
f 60/97/281 61/99/282 69/100/283 68/98/284
f 61/99/285 62/101/286 70/102/287 69/100/288
f 62/101/289 63/103/290 71/104/291 70/102/292
f 63/103/293 64/105/294 72/106/295 71/104/296
f 64/105/297 65/107/298 73/108/299 72/106/300
f 65/107/301 58/93/302 66/96/303 73/108/304
f 66/96/305 67/95/306 75/52/307 74/51/308
f 83/125/309 84/126/310 85/127/311 86/128/312
f 68/98/313 69/100/314 78/55/315 77/54/316
f 87/129/317 88/130/318 89/131/319 90/132/320
f 70/102/321 71/104/322 80/57/323 79/56/324
f 91/133/325 92/134/326 93/135/327 94/136/328
f 72/106/329 73/108/330 82/59/331 81/58/332
f 95/137/333 96/138/334 97/139/335 98/140/336
f 67/141/337 68/142/338 84/126/339 83/125/340
f 68/142/341 77/143/342 85/127/343 84/126/344
f 77/143/345 75/144/346 86/128/347 85/127/348
f 75/144/349 67/141/350 83/125/351 86/128/352
f 69/145/353 70/146/354 88/130/355 87/129/356
f 70/146/357 79/147/358 89/131/359 88/130/360
f 79/147/361 78/148/362 90/132/363 89/131/364
f 78/148/365 69/145/366 87/129/367 90/132/368
f 71/149/369 72/150/370 92/134/371 91/133/372
f 72/150/373 81/151/374 93/135/375 92/134/376
f 81/151/377 80/152/378 94/136/379 93/135/380
f 80/152/381 71/149/382 91/133/383 94/136/384
f 73/153/385 66/154/386 96/138/387 95/137/388
f 66/154/389 74/155/390 97/139/391 96/138/392
f 74/155/393 82/156/394 98/140/395 97/139/396
f 82/156/397 73/153/398 95/137/399 98/140/400
