# This file uses meters as units for non-parametric coordinates.

v 37.225342 0.000000 -37.226295
v -37.226868 0.000000 -37.226295
v 30.329895 4.501697 -30.239201
v -32.716370 4.501697 -32.714272
v 32.713318 4.501697 32.714745
v -31.149292 4.501697 29.200840
v 37.225342 0.000000 37.225819
v -37.226868 0.000000 37.225819
v 19.848061 4.501697 -21.128941
v -21.151161 4.501697 -19.873238
v -19.894028 4.501697 21.125221
v 21.103096 4.501697 19.869516
v 18.925095 5.502507 -20.148752
v -19.834137 5.502507 -18.752289
v -18.973160 5.502507 20.145035
v 20.123863 5.502507 18.947124
v 15.040588 5.502507 -16.078758
v -16.149902 5.502507 -15.123558
v -15.194702 5.502507 16.066074
v 15.995789 5.502507 15.110874
v 14.511108 4.232407 -15.519333
v -15.592957 4.232407 -14.596939
v -14.671326 4.232407 15.506935
v 15.432739 4.232407 14.584541
v 12.587929 4.232407 -13.513088
v -13.618660 4.232407 -12.710381
v -12.815666 4.232407 13.496685
v 13.391113 4.232407 12.693787
v 10.755158 5.811012 -11.957550
v -11.475755 5.811012 -11.347103
v -12.079239 5.811012 12.241840
v 11.731529 5.811012 10.962582
v -15.995026 5.811012 -0.177479
v 23.857689 5.502507 0.745010
v 25.203133 4.501697 0.789642
v 30.717468 4.501697 15.177822
v 37.225342 0.000000 14.028740
v -37.226868 0.000000 2.758121
v -30.256653 4.501697 3.538418
v -26.082039 4.501697 -0.901031
v -24.503326 5.502507 -1.075077
v -20.498657 5.502507 -0.746727
v -19.935608 4.232407 -1.058769
v -17.615318 4.232407 -1.117802
v 15.401459 5.811012 0.448799
v 16.724205 4.232407 0.477123
v 19.046021 4.232407 0.561619
v 19.619751 5.502507 0.563145
v 0.773621 0.000000 -37.226295
v 4.025269 4.501697 -33.289337
v -0.225639 4.501697 -26.797485
v -0.050545 5.502507 -25.748348
v -0.230408 5.502507 -21.034718
v -0.227356 4.232407 -20.490837
v -0.242996 4.232407 -18.084908
v -0.786400 5.811012 -16.925335
v 0.509834 5.811012 16.791439
v 0.560379 4.232407 18.022156
v 0.694275 4.232407 20.426846
v 0.724792 5.502507 20.969582
v 0.982094 5.502507 25.779821
v 1.031494 4.501697 26.730251
v -6.594849 4.501697 32.183838
v 0.773621 0.000000 37.225819
v 0.737319 5.811012 -2.443570
v 0.366284 5.811012 13.779346
v 9.582703 5.811012 8.991937
v 12.596277 5.811012 0.356650
v 8.780567 5.811012 -9.833124
v -0.698886 5.811012 -13.913051
v -13.189844 5.811012 -0.157666
v -9.479246 5.811012 -9.331379
v -9.974795 5.811012 10.042583
vt 0.104702 0.329398
vt 0.104702 0.329398
vt 0.104702 0.329398
vt 0.104702 0.329398
vt 0.104702 0.329398
vt 0.104702 0.329398
vt 0.104702 0.329398
vt 0.104702 0.329398
vt 0.104702 0.329398
vt 0.104702 0.329398
vt 0.104702 0.329398
vt 0.104702 0.329398
vt 0.104702 0.329398
vt 0.104702 0.329398
vt 0.104702 0.329398
vt 0.104702 0.329398
vt 0.120239 0.275042
vt 0.120239 0.275042
vt 0.120239 0.275042
vt 0.120239 0.275042
vt 0.120239 0.275042
vt 0.120239 0.275042
vt 0.120239 0.275042
vt 0.120239 0.275042
vt 0.120239 0.275042
vt 0.120239 0.275042
vt 0.120239 0.275042
vt 0.120239 0.275042
vt 0.120239 0.275042
vt 0.120239 0.275042
vt 0.120239 0.275042
vt 0.120239 0.275042
vt 0.120239 0.275042
vt 0.120239 0.275042
vt 0.120239 0.275042
vt 0.120239 0.275042
vt 0.120239 0.275042
vt 0.120239 0.275042
vt 0.120239 0.275042
vt 0.120239 0.275042
vt 0.120239 0.275042
vt 0.120239 0.275042
vt 0.104702 0.329398
vt 0.120239 0.275042
vt 0.104702 0.329398
vt 0.104702 0.329398
vt 0.104702 0.329398
vt 0.104702 0.329398
vt 0.104702 0.329398
vt 0.104702 0.329398
vt 0.120239 0.275042
vt 0.104702 0.329398
vt 0.120239 0.275042
vt 0.120239 0.275042
vt 0.120239 0.275042
vt 0.120239 0.275042
vt 0.120239 0.275042
vt 0.120239 0.275042
vt 0.120239 0.275042
vt 0.120239 0.275042
vt 0.104340 0.013090
vt 0.104340 0.013090
vt 0.104340 0.013090
vt 0.104340 0.013090
vt 0.104340 0.013090
vt 0.104340 0.013090
vt 0.104340 0.013090
vt 0.104340 0.013090
vt 0.104340 0.013090
vt 0.104340 0.013090
vt 0.104340 0.013090
vt 0.104340 0.013090
vt 0.104702 0.329398
vt 0.104702 0.329398
vt 0.120239 0.275042
vt 0.104702 0.329398
vt 0.120239 0.275042
vt 0.120239 0.275042
vt 0.104340 0.013090
vt 0.120239 0.275042
vt 0.120239 0.275042
vt 0.104340 0.013090
vt 0.120239 0.275042
vt 0.123646 0.231433
vt 0.120239 0.275042
vt 0.104340 0.013090
vt 0.120239 0.275042
vt 0.120239 0.275042
vt 0.104340 0.013090
vt 0.120239 0.275042
vt 0.120239 0.275042
vt 0.104702 0.329398
vt 0.120239 0.275042
vt 0.104702 0.329398
vt 0.104702 0.329398
vt 0.123646 0.231433
vt 0.120239 0.275042
vt 0.120239 0.275042
vt 0.120239 0.275042
vt 0.120239 0.275042
vt 0.120239 0.275042
vt 0.120239 0.275042
vt 0.120239 0.275042
vt 0.123646 0.231433
vt 0.120239 0.275042
vt 0.123646 0.231433
vt 0.123646 0.231433
vt 0.123646 0.231433
vt 0.123646 0.231433
vt 0.123646 0.231433
vt 0.123646 0.231433
vt 0.123646 0.231433
vt 0.123646 0.231433
vt 0.123646 0.231433
vt 0.123646 0.231433
vt 0.123646 0.231433
vt 0.123646 0.231433
vt 0.123646 0.231433
vn 0.030601 0.776308 -0.629611
vn 0.030601 0.776308 -0.629611
vn 0.030601 0.776308 -0.629611
vn 0.030601 0.776308 -0.629611
vn -0.004829 0.724720 0.689026
vn -0.004829 0.724720 0.689026
vn -0.004829 0.724720 0.689026
vn -0.004829 0.724720 0.689026
vn -0.622687 0.782213 0.020090
vn -0.622687 0.782213 0.020090
vn -0.622687 0.782213 0.020090
vn -0.622687 0.782213 0.020090
vn 0.556671 0.830730 -0.002232
vn 0.556671 0.830730 -0.002232
vn 0.556671 0.830730 -0.002232
vn 0.556671 0.830730 -0.002232
vn 0.000000 1.000000 0.000000
vn 0.000000 1.000000 0.000000
vn 0.000000 1.000000 0.000000
vn 0.000000 1.000000 0.000000
vn 0.000000 1.000000 0.000000
vn 0.000000 1.000000 0.000000
vn 0.000000 1.000000 0.000000
vn 0.000000 1.000000 0.000000
vn 0.000000 1.000000 -0.000000
vn 0.000000 1.000000 -0.000000
vn 0.000000 1.000000 -0.000000
vn 0.000000 1.000000 -0.000000
vn 0.000000 1.000000 -0.000000
vn 0.000000 1.000000 -0.000000
vn 0.000000 1.000000 -0.000000
vn 0.000000 1.000000 -0.000000
vn 0.188583 0.733034 -0.653527
vn 0.188583 0.733034 -0.653527
vn 0.188583 0.733034 -0.653527
vn 0.188583 0.733034 -0.653527
vn -0.531837 0.835310 -0.139311
vn -0.531837 0.835310 -0.139311
vn -0.531837 0.835310 -0.139311
vn -0.531837 0.835310 -0.139311
vn 0.227052 0.725043 0.650200
vn 0.227052 0.725043 0.650200
vn 0.227052 0.725043 0.650200
vn 0.227052 0.725043 0.650200
vn 0.619072 0.771116 -0.148761
vn 0.619072 0.771116 -0.148761
vn 0.619072 0.771116 -0.148761
vn 0.619072 0.771116 -0.148761
vn 0.000000 1.000000 0.000000
vn 0.000000 1.000000 0.000000
vn 0.000000 1.000000 0.000000
vn 0.000000 1.000000 0.000000
vn 0.000000 1.000000 0.000000
vn 0.000000 1.000000 0.000000
vn 0.000000 1.000000 0.000000
vn 0.000000 1.000000 0.000000
vn 0.000000 1.000000 -0.000000
vn 0.000000 1.000000 -0.000000
vn 0.000000 1.000000 -0.000000
vn 0.000000 1.000000 -0.000000
vn 0.000000 1.000000 0.000000
vn 0.000000 1.000000 0.000000
vn 0.000000 1.000000 0.000000
vn 0.000000 1.000000 0.000000
vn -0.283425 0.430858 0.856756
vn -0.283425 0.430858 0.856756
vn -0.283425 0.430859 0.856756
vn -0.283425 0.430858 0.856756
vn 0.871967 0.407391 0.271489
vn 0.871967 0.407391 0.271489
vn 0.871967 0.407391 0.271489
vn 0.871967 0.407391 0.271489
vn -0.327883 0.430524 -0.840917
vn -0.327883 0.430524 -0.840917
vn -0.327883 0.430524 -0.840917
vn -0.327883 0.430524 -0.840917
vn -0.869379 0.430753 0.242142
vn -0.869379 0.430753 0.242142
vn -0.869379 0.430753 0.242142
vn -0.869379 0.430753 0.242142
vn 0.000000 1.000000 0.000000
vn 0.000000 1.000000 0.000000
vn 0.000000 1.000000 0.000000
vn 0.000000 1.000000 0.000000
vn 0.000000 1.000000 -0.000000
vn 0.000000 1.000000 -0.000000
vn 0.000000 1.000000 -0.000000
vn 0.000000 1.000000 -0.000000
vn 0.000000 1.000000 0.000000
vn 0.000000 1.000000 0.000000
vn 0.000000 1.000000 0.000000
vn 0.000000 1.000000 0.000000
vn 0.000000 1.000000 0.000000
vn 0.000000 1.000000 0.000000
vn 0.000000 1.000000 0.000000
vn 0.000000 1.000000 0.000000
vn 0.248235 0.732228 -0.634209
vn 0.248235 0.732228 -0.634209
vn 0.248235 0.732228 -0.634209
vn 0.248235 0.732228 -0.634209
vn -0.551658 0.808131 -0.206390
vn -0.551658 0.808131 -0.206390
vn -0.551658 0.808131 -0.206390
vn -0.551658 0.808131 -0.206390
vn 0.286043 0.733438 0.616643
vn 0.286043 0.733438 0.616643
vn 0.286043 0.733438 0.616643
vn 0.286043 0.733438 0.616643
vn 0.637934 0.740263 -0.212251
vn 0.637934 0.740263 -0.212251
vn 0.637934 0.740263 -0.212251
vn 0.637934 0.740263 -0.212251
vn 0.000000 1.000000 -0.000000
vn 0.000000 1.000000 -0.000000
vn 0.000000 1.000000 -0.000000
vn 0.000000 1.000000 -0.000000
vn 0.000000 1.000000 -0.000000
vn 0.000000 1.000000 -0.000000
vn 0.000000 1.000000 -0.000000
vn 0.000000 1.000000 -0.000000
vn 0.615562 0.777402 0.129345
vn 0.615562 0.777402 0.129345
vn 0.615562 0.777402 0.129345
vn 0.615562 0.777402 0.129345
vn 0.000000 1.000000 0.000000
vn 0.000000 1.000000 0.000000
vn 0.000000 1.000000 0.000000
vn 0.000000 1.000000 0.000000
vn 0.638089 0.769328 -0.031265
vn 0.638089 0.769328 -0.031265
vn 0.638089 0.769328 -0.031265
vn 0.638089 0.769328 -0.031265
vn -0.571108 0.820831 -0.008478
vn -0.571108 0.820831 -0.008478
vn -0.571108 0.820831 -0.008478
vn -0.571108 0.820831 -0.008478
vn 0.000000 1.000000 0.000000
vn 0.000000 1.000000 0.000000
vn 0.000000 1.000000 0.000000
vn 0.000000 1.000000 0.000000
vn -0.572831 0.804843 0.155216
vn -0.572831 0.804843 0.155216
vn -0.572831 0.804843 0.155216
vn -0.572831 0.804843 0.155216
vn 0.000000 1.000000 0.000000
vn 0.000000 1.000000 0.000000
vn 0.000000 1.000000 0.000000
vn 0.000000 1.000000 0.000000
vn 0.848848 0.455219 -0.268761
vn 0.848848 0.455219 -0.268761
vn 0.848848 0.455219 -0.268761
vn 0.848848 0.455219 -0.268761
vn 0.000000 1.000000 0.000000
vn 0.000000 1.000000 0.000000
vn 0.000000 1.000000 0.000000
vn 0.000000 1.000000 0.000000
vn -0.764694 0.595370 0.246530
vn -0.764694 0.595371 0.246530
vn -0.764694 0.595370 0.246530
vn -0.764694 0.595370 0.246530
vn 0.653572 0.729588 0.201359
vn 0.653572 0.729588 0.201359
vn 0.653572 0.729588 0.201359
vn 0.653572 0.729588 0.201359
vn 0.000000 1.000000 0.000000
vn 0.000000 1.000000 0.000000
vn 0.000000 1.000000 0.000000
vn 0.000000 1.000000 0.000000
vn -0.872267 0.436268 -0.220954
vn -0.872267 0.436268 -0.220954
vn -0.872267 0.436268 -0.220954
vn -0.872267 0.436268 -0.220954
vn 0.000000 1.000000 0.000000
vn 0.000000 1.000000 0.000000
vn 0.000000 1.000000 0.000000
vn 0.000000 1.000000 0.000000
vn -0.005592 0.686847 -0.726780
vn -0.005592 0.686847 -0.726780
vn -0.005592 0.686847 -0.726780
vn -0.005592 0.686847 -0.726780
vn 0.000000 1.000000 0.000000
vn 0.000000 1.000000 0.000000
vn 0.000000 1.000000 0.000000
vn 0.000000 1.000000 0.000000
vn -0.200451 0.784972 -0.586207
vn -0.200451 0.784972 -0.586207
vn -0.200451 0.784972 -0.586207
vn -0.200451 0.784972 -0.586207
vn 0.000000 1.000000 -0.000000
vn 0.000000 1.000000 -0.000000
vn 0.000000 1.000000 -0.000000
vn 0.000000 1.000000 -0.000000
vn 0.319249 0.426928 0.846057
vn 0.319249 0.426928 0.846057
vn 0.319249 0.426928 0.846057
vn 0.319249 0.426928 0.846057
vn 0.000000 1.000000 0.000000
vn 0.000000 1.000000 0.000000
vn 0.000000 1.000000 0.000000
vn 0.000000 1.000000 0.000000
vn -0.302259 0.683807 -0.664114
vn -0.302259 0.683807 -0.664114
vn -0.302259 0.683807 -0.664114
vn -0.302259 0.683807 -0.664114
vn 0.000000 1.000000 0.000000
vn 0.000000 1.000000 0.000000
vn 0.000000 1.000000 0.000000
vn 0.000000 1.000000 0.000000
vn 0.000000 1.000000 0.000000
vn 0.000000 1.000000 0.000000
vn 0.000000 1.000000 0.000000
vn 0.000000 1.000000 0.000000
vn -0.255774 0.631693 0.731809
vn -0.255774 0.631693 0.731809
vn -0.255774 0.631693 0.731809
vn -0.255774 0.631693 0.731809
vn 0.000000 1.000000 0.000000
vn 0.000000 1.000000 0.000000
vn 0.000000 1.000000 0.000000
vn 0.000000 1.000000 0.000000
vn 0.270916 0.426825 -0.862800
vn 0.270916 0.426825 -0.862800
vn 0.270916 0.426825 -0.862800
vn 0.270916 0.426825 -0.862800
vn 0.000000 1.000000 0.000000
vn 0.000000 1.000000 0.000000
vn 0.000000 1.000000 0.000000
vn 0.000000 1.000000 0.000000
vn -0.183247 0.722636 0.666496
vn -0.183247 0.722636 0.666496
vn -0.183247 0.722636 0.666496
vn -0.183247 0.722636 0.666496
vn 0.000000 1.000000 0.000000
vn 0.000000 1.000000 0.000000
vn 0.000000 1.000000 0.000000
vn 0.000000 1.000000 0.000000
vn -0.027133 0.821900 0.568986
vn -0.027133 0.821900 0.568986
vn -0.027133 0.821900 0.568986
vn -0.027133 0.821900 0.568986
vn 0.000000 1.000000 -0.000000
vn 0.000000 1.000000 -0.000000
vn 0.000000 1.000000 -0.000000
vn 0.000000 1.000000 -0.000000
vn 0.000000 1.000000 0.000000
vn 0.000000 1.000000 0.000000
vn 0.000000 1.000000 0.000000
vn 0.000000 1.000000 0.000000
vn 0.000000 1.000000 0.000000
vn 0.000000 1.000000 0.000000
vn 0.000000 1.000000 0.000000
vn 0.000000 1.000000 0.000000
vn 0.000000 1.000000 0.000000
vn 0.000000 1.000000 0.000000
vn 0.000000 1.000000 0.000000
vn 0.000000 1.000000 0.000000
vn 0.000000 1.000000 -0.000000
vn 0.000000 1.000000 -0.000000
vn 0.000000 1.000000 -0.000000
vn 0.000000 1.000000 -0.000000
vn 0.000000 1.000000 -0.000000
vn 0.000000 1.000000 -0.000000
vn 0.000000 1.000000 -0.000000
vn 0.000000 1.000000 -0.000000
vn 0.000000 1.000000 0.000000
vn 0.000000 1.000000 0.000000
vn 0.000000 1.000000 0.000000
vn 0.000000 1.000000 0.000000
vn 0.000000 1.000000 0.000000
vn 0.000000 1.000000 0.000000
vn 0.000000 1.000000 0.000000
vn 0.000000 1.000000 0.000000
s off
f 1/1/1 49/73/2 50/74/3 3/3/4
f 5/5/5 63/94/6 64/95/7 7/7/8
f 2/2/9 38/48/10 39/50/11 4/4/12
f 37/47/13 1/1/14 3/3/15 36/45/16
f 3/3/17 50/74/18 51/76/19 9/13/20
f 4/4/21 39/49/22 40/52/23 10/14/24
f 63/94/25 5/5/26 12/16/27 62/92/28
f 36/46/29 3/3/30 9/13/31 35/43/32
f 9/18/33 51/75/34 52/77/35 13/21/36
f 10/19/37 40/51/38 41/53/39 14/20/40
f 62/93/41 12/24/42 16/25/43 61/91/44
f 35/44/45 9/18/46 13/21/47 34/42/48
f 13/21/49 52/77/50 53/78/51 17/27/52
f 14/20/53 41/53/54 42/54/55 18/26/56
f 61/91/57 16/25/58 20/29/59 60/90/60
f 48/60/61 34/42/62 13/21/63 17/27/64
f 17/27/65 53/78/66 54/80/67 21/31/68
f 18/26/69 42/54/70 43/55/71 22/30/72
f 60/90/73 20/29/74 24/33/75 59/88/76
f 48/60/77 17/27/78 21/31/79 47/59/80
f 21/61/81 54/79/82 55/82/83 25/64/84
f 22/62/85 43/65/86 44/66/87 26/63/88
f 59/89/89 24/68/90 28/69/91 58/86/92
f 47/71/93 21/61/94 25/64/95 46/72/96
f 25/35/97 55/81/98 56/83/99 29/39/100
f 26/34/101 44/56/102 33/17/103 30/38/104
f 58/87/105 28/37/106 32/41/107 57/85/108
f 46/58/109 25/35/110 29/39/111 45/57/112
f 65/113/113 66/104/114 67/118/115 68/116/116
f 65/112/117 68/117/118 69/115/119 70/110/120
f 12/24/121 35/44/122 34/42/123 16/25/124
f 5/5/125 36/46/126 35/43/127 12/16/128
f 7/11/129 37/47/130 36/45/131 5/12/132
f 39/50/133 38/48/134 8/9/135 6/10/136
f 40/52/137 39/49/138 6/6/139 11/15/140
f 41/53/141 40/51/142 11/22/143 15/23/144
f 42/54/145 41/53/146 15/23/147 19/28/148
f 43/55/149 42/54/150 19/28/151 23/32/152
f 44/66/153 43/65/154 23/67/155 27/70/156
f 33/17/157 44/56/158 27/36/159 31/40/160
f 28/37/161 46/58/162 45/57/163 32/41/164
f 24/68/165 47/71/166 46/72/167 28/69/168
f 20/29/169 48/60/170 47/59/171 24/33/172
f 16/25/173 34/42/174 48/60/175 20/29/176
f 49/73/177 2/2/178 4/4/179 50/74/180
f 51/76/181 50/74/182 4/4/183 10/14/184
f 52/77/185 51/75/186 10/19/187 14/20/188
f 53/78/189 52/77/190 14/20/191 18/26/192
f 54/80/193 53/78/194 18/26/195 22/30/196
f 55/82/197 54/79/198 22/62/199 26/63/200
f 56/83/201 55/81/202 26/34/203 30/38/204
f 71/107/205 65/84/206 70/111/207 72/109/208
f 71/108/209 73/106/210 66/96/211 65/114/212
f 27/36/213 58/87/214 57/85/215 31/40/216
f 23/67/217 59/89/218 58/86/219 27/70/220
f 19/28/221 60/90/222 59/88/223 23/32/224
f 15/23/225 61/91/226 60/90/227 19/28/228
f 11/22/229 62/93/230 61/91/231 15/23/232
f 6/6/233 63/94/234 62/92/235 11/15/236
f 64/95/237 63/94/238 6/6/239 8/8/240
f 57/85/241 32/41/242 67/97/243 66/105/244
f 32/41/245 45/57/246 68/98/247 67/97/248
f 45/57/249 29/39/250 69/99/251 68/98/252
f 29/39/253 56/83/254 70/100/255 69/99/256
f 56/83/257 30/38/258 72/101/259 70/100/260
f 30/38/261 33/17/262 71/102/263 72/101/264
f 33/17/265 31/40/266 73/103/267 71/102/268
f 31/40/269 57/85/270 66/105/271 73/103/272
