# This file uses meters as units for non-parametric coordinates.

v 10.020161 38.238701 1.835585
v 10.020161 -38.238731 1.835585
v -10.020160 38.238731 1.835585
v -10.020160 -38.238731 1.835585
v 10.020172 -38.238716 -1.835585
v -10.020149 -38.238716 -1.835585
v -10.020149 38.238731 -1.835585
v 10.020172 38.238731 -1.835585
vt 0.649751 0.502748
vt 0.700312 0.502750
vt 0.700371 0.741874
vt 0.649673 0.741895
vt 0.494398 0.246333
vt 0.494044 0.246333
vt 0.494044 0.245918
vt 0.494398 0.245918
vt 0.495538 0.246398
vt 0.495183 0.246363
vt 0.495183 0.245888
vt 0.495538 0.245853
vt 0.495574 0.246363
vt 0.493106 0.246319
vt 0.493106 0.245932
vt 0.495574 0.245888
vt 0.496475 0.246347
vt 0.494007 0.246407
vt 0.494007 0.245844
vt 0.496475 0.245904
vt 0.649751 0.502748
vt 0.700312 0.502750
vt 0.700371 0.741874
vt 0.649673 0.741895
vn -0.000000 0.000000 1.000000
vn -0.000000 0.000000 1.000000
vn -0.000000 0.000000 1.000000
vn -0.000000 0.000000 1.000000
vn 0.000000 -1.000000 -0.000004
vn 0.000000 -1.000000 -0.000004
vn 0.000000 -1.000000 -0.000004
vn 0.000000 -1.000000 -0.000004
vn 0.000001 1.000000 0.000004
vn 0.000001 1.000000 0.000004
vn 0.000001 1.000000 0.000004
vn 0.000001 1.000000 0.000004
vn 1.000000 0.000000 0.000003
vn 1.000000 0.000000 0.000003
vn 1.000000 0.000000 0.000003
vn 1.000000 0.000000 0.000003
vn -1.000000 0.000000 -0.000003
vn -1.000000 0.000000 -0.000003
vn -1.000000 0.000000 -0.000003
vn -1.000000 0.000000 -0.000003
vn 0.000000 0.000000 -1.000000
vn 0.000000 0.000000 -1.000000
vn 0.000000 0.000000 -1.000000
vn 0.000000 0.000000 -1.000000
s off
f 4/1/1 2/2/2 1/3/3 3/4/4
f 2/5/5 4/6/6 6/7/7 5/8/8
f 3/9/9 1/10/10 8/11/11 7/12/12
f 1/13/13 2/14/14 5/15/15 8/16/16
f 4/17/17 3/18/18 7/19/19 6/20/20
f 5/21/21 6/22/22 7/23/23 8/24/24
