# This file uses meters as units for non-parametric coordinates.

v -48.489712 31.765736 1.307106
v 48.489716 31.765736 1.307106
v -48.489727 -31.765724 1.307106
v 48.489704 -31.765747 1.307106
v 48.489716 31.765736 -1.306915
v 48.489704 -31.765747 -1.306915
v -48.489727 -31.765724 -1.306915
v -48.489712 31.765736 -1.306915
vt 0.998939 0.503065
vt 0.854372 0.503080
vt 0.998962 0.746998
vt 0.854360 0.747006
vt 0.497205 0.247729
vt 0.497080 0.247729
vt 0.497080 0.247701
vt 0.497205 0.247701
vt 0.497203 0.247746
vt 0.497077 0.247748
vt 0.497077 0.247682
vt 0.497203 0.247684
vt 0.497243 0.247744
vt 0.496894 0.247740
vt 0.496894 0.247690
vt 0.497243 0.247686
vt 0.497388 0.247740
vt 0.497039 0.247744
vt 0.497039 0.247686
vt 0.497388 0.247690
vt 0.998492 0.503077
vt 0.998515 0.747005
vt 0.853913 0.747000
vt 0.853925 0.503065
vn -0.000000 -0.000001 1.000000
vn -0.000000 -0.000001 1.000000
vn -0.000000 -0.000001 1.000000
vn -0.000000 -0.000001 1.000000
vn 1.000000 -0.000000 0.000000
vn 1.000000 -0.000000 0.000000
vn 1.000000 -0.000000 0.000000
vn 1.000000 -0.000000 0.000000
vn -1.000000 0.000000 0.000000
vn -1.000000 0.000000 0.000000
vn -1.000000 0.000000 0.000000
vn -1.000000 0.000000 0.000000
vn 0.000000 1.000000 0.000000
vn 0.000000 1.000000 0.000000
vn 0.000000 1.000000 0.000000
vn 0.000000 1.000000 0.000000
vn -0.000000 -1.000000 0.000000
vn -0.000000 -1.000000 0.000000
vn -0.000000 -1.000000 0.000000
vn -0.000000 -1.000000 0.000000
vn 0.000000 0.000000 -1.000000
vn 0.000000 0.000000 -1.000000
vn 0.000000 0.000000 -1.000000
vn 0.000000 0.000000 -1.000000
s off
f 4/2/1 2/1/2 1/3/3 3/4/4
f 2/5/5 4/6/6 6/7/7 5/8/8
f 3/9/9 1/10/10 8/11/11 7/12/12
f 1/13/13 2/14/14 5/15/15 8/16/16
f 4/17/17 3/18/18 7/19/19 6/20/20
f 6/21/21 7/22/22 8/23/23 5/24/24
