# This file uses meters as units for non-parametric coordinates.

v 30.661987 97.799515 1.307106
v 30.661987 -97.799545 1.307106
v -30.661976 97.799553 1.307106
v -30.661976 -97.799530 1.307106
v 30.661987 -97.799545 -1.306915
v -30.661976 -97.799530 -1.306915
v -30.661976 97.799553 -1.306915
v 30.661987 97.799515 -1.306915
vt 0.996237 0.003820
vt 0.856616 0.003831
vt 0.996281 0.495947
vt 0.856594 0.495962
vt 0.497203 0.247740
vt 0.497082 0.247740
vt 0.497082 0.247690
vt 0.497203 0.247690
vt 0.497201 0.247760
vt 0.497080 0.247757
vt 0.497080 0.247673
vt 0.497201 0.247670
vt 0.497245 0.247757
vt 0.496540 0.247748
vt 0.496540 0.247681
vt 0.497245 0.247673
vt 0.497742 0.247748
vt 0.497038 0.247757
vt 0.497038 0.247673
vt 0.497742 0.247681
vt 0.996237 0.003827
vt 0.996281 0.495961
vt 0.856594 0.495949
vt 0.856616 0.003818
vn -0.000001 0.000000 1.000000
vn -0.000001 0.000000 1.000000
vn -0.000001 0.000000 1.000000
vn -0.000001 0.000000 1.000000
vn -0.000000 -1.000000 0.000000
vn -0.000000 -1.000000 0.000000
vn -0.000000 -1.000000 0.000000
vn -0.000000 -1.000000 0.000000
vn 0.000001 1.000000 0.000000
vn 0.000001 1.000000 0.000000
vn 0.000001 1.000000 0.000000
vn 0.000001 1.000000 0.000000
vn 1.000000 0.000000 0.000000
vn 1.000000 0.000000 0.000000
vn 1.000000 0.000000 0.000000
vn 1.000000 0.000000 0.000000
vn -1.000000 0.000000 0.000000
vn -1.000000 0.000000 0.000000
vn -1.000000 0.000000 0.000000
vn -1.000000 0.000000 0.000000
vn 0.000000 0.000000 -1.000000
vn 0.000000 0.000000 -1.000000
vn 0.000000 0.000000 -1.000000
vn 0.000000 0.000000 -1.000000
s off
f 4/2/1 2/1/2 1/3/3 3/4/4
f 2/5/5 4/6/6 6/7/7 5/8/8
f 3/9/9 1/10/10 8/11/11 7/12/12
f 1/13/13 2/14/14 5/15/15 8/16/16
f 4/17/17 3/18/18 7/19/19 6/20/20
f 6/21/21 7/22/22 8/23/23 5/24/24
