# This file uses meters as units for non-parametric coordinates.

v 13.466454 -41.512299 0.000000
v 17.121792 -43.443771 0.000000
v 33.765030 25.058891 0.000000
v 30.447769 24.580671 0.000000
v 6.747627 -53.203011 0.000000
v 4.758263 -48.980419 0.000000
v 17.194080 -30.111168 0.000000
v 14.001846 -27.980326 0.000000
v 20.668888 -25.489281 0.000000
v 20.024300 -29.610870 0.000000
v 28.919506 -29.307983 0.000000
v 26.801300 -25.236795 0.000000
v 36.473755 -15.483997 0.000000
v 32.384872 -16.387604 0.000000
v 33.090782 15.837004 0.000000
v 30.155945 15.688850 0.000000
v 31.656456 -9.741638 0.000000
v 28.765106 -10.489223 0.000000
v 32.395935 2.550462 0.000000
v 29.071999 2.060225 0.000000
v 24.561214 -8.985470 0.000000
v 27.379608 -10.133217 0.000000
v 23.612213 -2.307364 0.000000
v 26.975727 -2.048299 0.000000
v 24.561214 -8.985565 0.000000
v 27.379608 -10.133169 0.000000
v 24.144077 -15.243385 0.000000
v 22.291660 -12.423418 0.000000
v 13.274097 -11.769865 0.000000
v 12.244987 -15.834425 0.000000
v 9.224606 -5.109259 0.000000
v 5.910683 -5.854318 0.000000
v 11.993122 1.624969 0.000000
v 9.972858 3.990796 0.000000
v 20.303154 5.189613 0.000000
v 19.028664 2.054837 0.000000
v 5.301857 -24.939201 0.000000
v 9.082890 -26.277849 0.000000
v 3.667068 -18.030975 0.000000
v 7.611942 -17.899891 0.000000
v 3.584671 -11.017797 0.000000
v 0.000000 -12.570618 0.000000
v 6.343460 -31.952854 0.000000
v 3.719902 -28.433321 0.000000
v 0.000000 -8.287142 0.000000
v 20.036030 -49.151371 0.000000
v 23.691368 -51.082802 0.000000
v 26.250076 -33.853672 0.000000
v 22.467995 -33.724686 0.000000
v 8.223534 -65.830322 0.000000
v 6.234264 -61.607697 0.000000
v 25.238037 -32.464500 0.000000
v 23.548412 -32.371994 0.000000
v 30.923271 45.259212 0.000000
v 34.872437 47.966961 0.000000
v 35.540390 -10.102418 0.000000
v 33.583641 -5.786273 0.000000
v 12.093353 66.106506 0.000000
v 10.646057 61.402367 0.000000
v 37.052536 15.598712 0.000000
v 41.956421 15.603242 0.000000
v 35.551643 -3.629694 0.000000
v 33.571243 -9.528397 0.000000
v 32.546139 -7.924059 0.000000
v 38.051987 -8.910527 0.000000
v -13.466454 -41.512299 0.000000
v -17.121792 -43.443771 0.000000
v -33.765030 25.058891 0.000000
v -30.447769 24.580671 0.000000
v -6.747627 -53.203011 0.000000
v -4.758263 -48.980419 0.000000
v -17.194080 -30.111168 0.000000
v -14.001846 -27.980326 0.000000
v -20.668888 -25.489281 0.000000
v -20.024300 -29.610870 0.000000
v -28.919506 -29.307983 0.000000
v -26.801300 -25.236795 0.000000
v -36.473755 -15.483997 0.000000
v -32.384872 -16.387604 0.000000
v -33.090782 15.837004 0.000000
v -30.155945 15.688850 0.000000
v -31.656454 -9.741638 0.000000
v -28.765106 -10.489223 0.000000
v -32.395935 2.550462 0.000000
v -29.072001 2.060225 0.000000
v -24.561214 -8.985470 0.000000
v -27.379608 -10.133217 0.000000
v -23.612213 -2.307364 0.000000
v -26.975727 -2.048299 0.000000
v -24.561214 -8.985565 0.000000
v -27.379608 -10.133169 0.000000
v -24.144077 -15.243385 0.000000
v -22.291660 -12.423418 0.000000
v -13.274098 -11.769865 0.000000
v -12.244987 -15.834425 0.000000
v -9.224605 -5.109259 0.000000
v -5.910683 -5.854318 0.000000
v -11.993123 1.624969 0.000000
v -9.972859 3.990796 0.000000
v -20.303154 5.189613 0.000000
v -19.028664 2.054837 0.000000
v -5.301857 -24.939201 0.000000
v -9.082891 -26.277849 0.000000
v -3.667068 -18.030975 0.000000
v -7.611942 -17.899891 0.000000
v -3.584671 -11.017797 0.000000
v -6.343460 -31.952854 0.000000
v -3.719902 -28.433321 0.000000
v -20.036030 -49.151371 0.000000
v -23.691368 -51.082802 0.000000
v -26.250076 -33.853672 0.000000
v -22.467995 -33.724686 0.000000
v -8.223534 -65.830322 0.000000
v -6.234264 -61.607697 0.000000
v -25.238037 -32.464500 0.000000
v -23.548412 -32.371994 0.000000
v -30.923315 45.259212 0.000000
v -34.872437 47.966961 0.000000
v -35.540390 -10.102418 0.000000
v -33.583641 -5.786273 0.000000
v -12.093353 66.106506 0.000000
v -10.646057 61.402367 0.000000
v -37.052536 15.598712 0.000000
v -41.956421 15.603242 0.000000
v -35.551643 -3.629694 0.000000
v -33.571243 -9.528397 0.000000
v -32.546139 -7.924059 0.000000
v -38.051987 -8.910527 0.000000
vt 0.007185 0.093578
vt 0.007166 0.093565
vt 0.007052 0.093574
vt 0.007096 0.093584
vt 0.006932 0.093610
vt 0.006996 0.093612
vt 0.007146 0.093566
vt 0.007166 0.093579
vt 0.007184 0.093578
vt 0.007162 0.093565
vt 0.007165 0.093565
vt 0.007185 0.093578
vt 0.007166 0.093565
vt 0.007185 0.093578
vt 0.007166 0.093565
vt 0.007185 0.093578
vt 0.007166 0.093565
vt 0.007185 0.093578
vt 0.007166 0.093565
vt 0.007185 0.093578
vt 0.007019 0.109718
vt 0.006966 0.109710
vt 0.006932 0.109728
vt 0.006996 0.109730
vt 0.007052 0.109692
vt 0.007096 0.109702
vt 0.007267 0.109689
vt 0.007223 0.109693
vt 0.006966 0.109710
vt 0.007019 0.109718
vt 0.006991 0.109733
vt 0.006927 0.109731
vt 0.006927 0.109731
vt 0.006992 0.109732
vt 0.006927 0.109731
vt 0.006991 0.109733
vt 0.007019 0.095099
vt 0.006966 0.095092
vt 0.006932 0.095109
vt 0.006996 0.095112
vt 0.007185 0.095077
vt 0.007166 0.095064
vt 0.007052 0.095073
vt 0.007096 0.095083
vt 0.007282 0.095071
vt 0.006966 0.095092
vt 0.007019 0.095099
vt 0.006932 0.078242
vt 0.006996 0.078244
vt 0.007052 0.078206
vt 0.007096 0.078216
vt 0.007281 0.078209
vt 0.007285 0.078196
vt 0.007282 0.078204
vt 0.007283 0.078199
vt 0.007019 0.093600
vt 0.006966 0.093593
vt 0.007185 0.093578
vt 0.007166 0.093565
vt 0.006966 0.093593
vt 0.007019 0.093600
vt 0.006991 0.093615
vt 0.006927 0.093613
vt 0.006987 0.093617
vt 0.006921 0.093616
vt 0.006920 0.093616
vt 0.006942 0.093617
vt 0.006969 0.093617
vt 0.006987 0.093617
vt 0.006932 0.093610
vt 0.006996 0.093612
vt 0.007184 0.093578
vt 0.007162 0.093565
vt 0.007096 0.093584
vt 0.007052 0.093574
vt 0.007166 0.093579
vt 0.007146 0.093566
vt 0.007185 0.093578
vt 0.007166 0.093565
vt 0.007166 0.093565
vt 0.007185 0.093578
vt 0.007185 0.093578
vt 0.007165 0.093565
vt 0.007185 0.093578
vt 0.007166 0.093565
vt 0.007166 0.093565
vt 0.007185 0.093578
vt 0.007166 0.093565
vt 0.007185 0.093578
vt 0.007019 0.095099
vt 0.006966 0.095092
vt 0.006932 0.095109
vt 0.006996 0.095112
vt 0.007052 0.095073
vt 0.007096 0.095083
vt 0.007267 0.095070
vt 0.007223 0.095075
vt 0.006966 0.095092
vt 0.007019 0.095099
vt 0.006991 0.095114
vt 0.006927 0.095112
vt 0.006927 0.095112
vt 0.006992 0.095114
vt 0.006927 0.095112
vt 0.006991 0.095114
vt 0.007019 0.095099
vt 0.006966 0.095092
vt 0.006932 0.095109
vt 0.006996 0.095112
vt 0.007185 0.095077
vt 0.007166 0.095064
vt 0.007052 0.095073
vt 0.007096 0.095083
vt 0.007282 0.095071
vt 0.006966 0.095092
vt 0.007019 0.095099
vt 0.006932 0.078242
vt 0.006996 0.078244
vt 0.007052 0.078206
vt 0.007096 0.078216
vt 0.007281 0.078209
vt 0.007285 0.078196
vt 0.007282 0.078204
vt 0.007283 0.078199
vt 0.007019 0.093600
vt 0.006966 0.093593
vt 0.007185 0.093578
vt 0.007166 0.093565
vt 0.006966 0.093593
vt 0.007019 0.093600
vt 0.006991 0.093615
vt 0.006927 0.093613
vt 0.006987 0.093617
vt 0.006921 0.093616
vt 0.006920 0.093616
vt 0.006942 0.093617
vt 0.006969 0.093617
vt 0.006987 0.093617
vn 0.000000 0.000000 1.000000
vn 0.000000 0.000000 1.000000
vn 0.000000 0.000000 1.000000
vn 0.000000 0.000000 1.000000
vn 0.000000 0.000000 1.000000
vn 0.000000 0.000000 1.000000
vn 0.000000 0.000000 1.000000
vn 0.000000 0.000000 1.000000
vn 0.000000 0.000000 1.000000
vn 0.000000 0.000000 1.000000
vn 0.000000 0.000000 1.000000
vn 0.000000 0.000000 1.000000
vn 0.000000 0.000000 1.000000
vn 0.000000 0.000000 1.000000
vn 0.000000 0.000000 1.000000
vn 0.000000 0.000000 1.000000
vn 0.000000 0.000000 1.000000
vn 0.000000 0.000000 1.000000
vn 0.000000 0.000000 1.000000
vn 0.000000 0.000000 1.000000
vn 0.000000 0.000000 1.000000
vn 0.000000 0.000000 1.000000
vn 0.000000 0.000000 1.000000
vn 0.000000 0.000000 1.000000
vn 0.000000 0.000000 1.000000
vn 0.000000 0.000000 1.000000
vn 0.000000 0.000000 1.000000
vn 0.000000 0.000000 1.000000
vn 0.000000 0.000000 1.000000
vn 0.000000 0.000000 1.000000
vn 0.000000 0.000000 1.000000
vn 0.000000 0.000000 1.000000
vn 0.000000 0.000000 1.000000
vn 0.000000 0.000000 1.000000
vn 0.000000 0.000000 1.000000
vn 0.000000 0.000000 1.000000
vn 0.000000 0.000000 1.000000
vn 0.000000 0.000000 1.000000
vn 0.000000 0.000000 1.000000
vn 0.000000 0.000000 1.000000
vn 0.000000 0.000000 1.000000
vn 0.000000 0.000000 1.000000
vn 0.000000 0.000000 1.000000
vn 0.000000 0.000000 1.000000
vn 0.000000 0.000000 1.000000
vn 0.000000 0.000000 1.000000
vn 0.000000 0.000000 1.000000
vn 0.000000 0.000000 1.000000
vn 0.000000 0.000000 1.000000
vn 0.000000 0.000000 1.000000
vn 0.000000 0.000000 1.000000
vn 0.000000 0.000000 1.000000
vn 0.000000 0.000000 1.000000
vn 0.000000 0.000000 1.000000
vn 0.000000 0.000000 1.000000
vn 0.000000 0.000000 1.000000
vn 0.000000 0.000000 1.000000
vn 0.000000 0.000000 1.000000
vn 0.000000 0.000000 1.000000
vn 0.000000 0.000000 1.000000
vn 0.000000 0.000000 1.000000
vn 0.000000 0.000000 1.000000
vn 0.000000 0.000000 1.000000
vn 0.000000 0.000000 1.000000
vn 0.000000 0.000000 1.000000
vn 0.000000 0.000000 1.000000
vn 0.000000 0.000000 1.000000
vn 0.000000 0.000000 1.000000
vn 0.000000 0.000000 1.000000
vn 0.000000 0.000000 1.000000
vn 0.000000 0.000000 1.000000
vn 0.000000 0.000000 1.000000
vn 0.000000 0.000000 1.000000
vn 0.000000 0.000000 1.000000
vn 0.000000 0.000000 1.000000
vn 0.000000 0.000000 1.000000
vn 0.000000 0.000000 1.000000
vn 0.000000 0.000000 1.000000
vn 0.000000 0.000000 1.000000
vn 0.000000 0.000000 1.000000
vn 0.000000 0.000000 1.000000
vn 0.000000 0.000000 1.000000
vn 0.000000 0.000000 1.000000
vn 0.000000 0.000000 1.000000
vn 0.000000 0.000000 1.000000
vn 0.000000 0.000000 1.000000
vn 0.000000 0.000000 1.000000
vn 0.000000 0.000000 1.000000
vn 0.000000 0.000000 1.000000
vn 0.000000 0.000000 1.000000
vn 0.000000 0.000000 1.000000
vn 0.000000 0.000000 1.000000
vn 0.000000 0.000000 1.000000
vn 0.000000 0.000000 1.000000
vn 0.000000 0.000000 1.000000
vn 0.000000 0.000000 1.000000
vn 0.000000 0.000000 1.000000
vn 0.000000 0.000000 1.000000
vn 0.000000 0.000000 1.000000
vn 0.000000 0.000000 1.000000
vn 0.000000 0.000000 1.000000
vn 0.000000 0.000000 1.000000
vn 0.000000 0.000000 1.000000
vn 0.000000 0.000000 1.000000
vn 0.000000 0.000000 1.000000
vn 0.000000 0.000000 1.000000
vn 0.000000 0.000000 1.000000
vn 0.000000 0.000000 1.000000
vn 0.000000 0.000000 1.000000
vn 0.000000 0.000000 1.000000
vn 0.000000 0.000000 1.000000
vn 0.000000 0.000000 1.000000
vn 0.000000 0.000000 1.000000
vn 0.000000 0.000000 1.000000
vn 0.000000 0.000000 1.000000
vn 0.000000 0.000000 1.000000
vn 0.000000 0.000000 1.000000
vn 0.000000 0.000000 1.000000
vn 0.000000 0.000000 1.000000
vn 0.000000 0.000000 1.000000
vn 0.000000 0.000000 1.000000
vn 0.000000 0.000000 1.000000
vn 0.000000 0.000000 1.000000
vn 0.000000 0.000000 1.000000
vn 0.000000 0.000000 1.000000
vn 0.000000 0.000000 1.000000
vn 0.000000 0.000000 1.000000
vn 0.000000 0.000000 1.000000
vn 0.000000 0.000000 1.000000
vn 0.000000 0.000000 1.000000
vn 0.000000 0.000000 1.000000
vn 0.000000 0.000000 1.000000
vn 0.000000 0.000000 1.000000
vn 0.000000 0.000000 1.000000
vn 0.000000 0.000000 1.000000
vn 0.000000 0.000000 1.000000
vn 0.000000 0.000000 1.000000
vn 0.000000 0.000000 1.000000
vn 0.000000 0.000000 1.000000
vn 0.000000 0.000000 1.000000
vn 0.000000 0.000000 1.000000
vn 0.000000 0.000000 1.000000
vn 0.000000 0.000000 1.000000
vn 0.000000 0.000000 1.000000
vn 0.000000 0.000000 1.000000
vn 0.000000 0.000000 1.000000
vn 0.000000 0.000000 1.000000
vn 0.000000 0.000000 1.000000
vn 0.000000 0.000000 1.000000
vn 0.000000 0.000000 1.000000
vn 0.000000 0.000000 1.000000
vn 0.000000 0.000000 1.000000
vn 0.000000 0.000000 1.000000
vn 0.000000 0.000000 1.000000
vn 0.000000 0.000000 1.000000
vn 0.000000 0.000000 1.000000
vn 0.000000 0.000000 1.000000
vn 0.000000 0.000000 1.000000
vn 0.000000 0.000000 1.000000
vn 0.000000 0.000000 1.000000
vn 0.000000 0.000000 1.000000
vn 0.000000 0.000000 1.000000
vn 0.000000 0.000000 1.000000
vn 0.000000 0.000000 1.000000
vn 0.000000 0.000000 1.000000
vn 0.000000 0.000000 1.000000
vn 0.000000 0.000000 1.000000
vn 0.000000 0.000000 1.000000
vn 0.000000 0.000000 1.000000
vn 0.000000 0.000000 1.000000
vn 0.000000 0.000000 1.000000
vn 0.000000 0.000000 1.000000
vn 0.000000 0.000000 1.000000
vn 0.000000 0.000000 1.000000
vn 0.000000 0.000000 1.000000
vn 0.000000 0.000000 1.000000
vn 0.000000 0.000000 1.000000
vn 0.000000 0.000000 1.000000
vn 0.000000 0.000000 1.000000
vn 0.000000 0.000000 1.000000
vn 0.000000 0.000000 1.000000
vn 0.000000 0.000000 1.000000
vn 0.000000 0.000000 1.000000
vn 0.000000 0.000000 1.000000
vn 0.000000 0.000000 1.000000
vn 0.000000 0.000000 1.000000
vn 0.000000 0.000000 1.000000
vn 0.000000 0.000000 1.000000
vn 0.000000 0.000000 1.000000
vn 0.000000 0.000000 1.000000
vn 0.000000 0.000000 1.000000
vn 0.000000 0.000000 1.000000
vn 0.000000 0.000000 1.000000
vn 0.000000 0.000000 1.000000
vn 0.000000 0.000000 1.000000
vn 0.000000 0.000000 1.000000
vn 0.000000 0.000000 1.000000
vn 0.000000 0.000000 1.000000
vn 0.000000 0.000000 1.000000
vn 0.000000 0.000000 1.000000
vn 0.000000 0.000000 1.000000
vn 0.000000 0.000000 1.000000
vn 0.000000 0.000000 1.000000
vn 0.000000 0.000000 1.000000
vn 0.000000 0.000000 1.000000
vn 0.000000 0.000000 1.000000
vn 0.000000 0.000000 1.000000
vn 0.000000 0.000000 1.000000
vn 0.000000 0.000000 1.000000
vn 0.000000 0.000000 1.000000
vn 0.000000 0.000000 1.000000
vn 0.000000 0.000000 1.000000
vn 0.000000 0.000000 1.000000
vn 0.000000 0.000000 1.000000
vn 0.000000 0.000000 1.000000
vn 0.000000 0.000000 1.000000
vn 0.000000 0.000000 1.000000
vn 0.000000 0.000000 1.000000
vn 0.000000 0.000000 1.000000
vn 0.000000 0.000000 1.000000
vn 0.000000 0.000000 1.000000
vn 0.000000 0.000000 1.000000
vn 0.000000 0.000000 1.000000
vn 0.000000 0.000000 1.000000
vn 0.000000 0.000000 1.000000
vn 0.000000 0.000000 1.000000
vn 0.000000 0.000000 1.000000
vn 0.000000 0.000000 1.000000
vn 0.000000 0.000000 1.000000
vn 0.000000 0.000000 1.000000
vn 0.000000 0.000000 1.000000
vn 0.000000 0.000000 1.000000
vn 0.000000 0.000000 1.000000
vn 0.000000 0.000000 1.000000
s off
f 5/5/1 2/3/2 1/4/3 6/6/4
f 70/70/5 5/5/6 6/6/7 71/71/8
f 8/8/9 1/4/10 2/3/11 7/7/12
f 9/9/13 8/8/14 7/7/15 10/10/16
f 4/1/17 16/16/18 15/15/19 3/2/20
f 10/10/21 11/11/22 12/12/23 9/9/24
f 14/14/25 12/12/26 11/11/27 13/13/28
f 18/18/29 14/14/30 13/13/31 17/17/32
f 20/20/33 18/18/34 17/17/35 19/19/36
f 16/16/37 20/20/38 19/19/39 15/15/40
f 21/21/41 28/24/42 27/23/43 22/22/44
f 36/28/45 23/26/46 24/25/47 35/27/48
f 23/26/49 25/30/50 26/29/51 24/25/52
f 35/27/53 34/32/54 33/31/55 36/28/56
f 30/33/57 27/23/58 28/24/59 29/34/60
f 32/35/61 30/33/62 29/34/63 31/36/64
f 34/32/65 32/35/66 31/36/67 33/31/68
f 37/37/69 44/40/70 43/39/71 38/38/72
f 42/41/73 39/44/74 40/43/75 41/42/76
f 42/41/77 41/42/78 45/45/79
f 39/44/80 37/47/81 38/46/82 40/43/83
f 107/108/84 43/39/85 44/40/86 108/109/87
f 49/52/88 46/51/89 47/50/90 48/53/91
f 50/48/92 47/50/93 46/51/94 51/49/95
f 113/117/96 50/48/97 51/49/98 114/118/99
f 49/52/100 48/53/101 52/55/102 53/54/103
f 55/60/104 58/59/105 59/58/106 54/61/107
f 122/127/108 59/58/109 58/59/110 121/128/111
f 54/56/112 60/62/113 61/63/114 55/57/115
f 62/64/116 65/65/117 61/63/118 60/62/119
f 62/64/120 57/69/121 64/68/122 63/67/123 56/66/124 65/65/125
f 67/75/126 70/70/127 71/71/128 66/74/129
f 73/76/130 74/72/131 75/73/132 72/77/133
f 66/74/134 73/76/135 72/77/136 67/75/137
f 76/83/138 75/73/139 74/72/140 77/82/141
f 69/78/142 68/79/143 80/80/144 81/81/145
f 77/82/146 79/84/147 78/85/148 76/83/149
f 85/89/150 81/81/151 80/80/152 84/88/153
f 79/84/154 83/87/155 82/86/156 78/85/157
f 83/87/158 85/89/159 84/88/160 82/86/161
f 86/90/162 87/91/163 92/92/164 93/93/165
f 99/101/166 100/96/167 101/97/168 98/100/169
f 88/95/170 89/94/171 91/98/172 90/99/173
f 92/92/174 95/102/175 94/103/176 93/93/177
f 95/102/178 97/104/179 96/105/180 94/103/181
f 97/104/182 99/101/183 98/100/184 96/105/185
f 88/95/186 101/97/187 100/96/188 89/94/189
f 102/106/190 103/107/191 107/108/192 108/109/193
f 42/110/194 106/111/195 105/112/196 104/113/197
f 42/110/198 45/114/199 106/111/200
f 104/113/201 105/112/202 103/115/203 102/116/204
f 110/119/205 113/117/206 114/118/207 109/120/208
f 109/120/209 112/121/210 111/122/211 110/119/212
f 112/121/213 116/123/214 115/124/215 111/122/216
f 123/131/217 117/125/218 118/126/219 124/132/220
f 121/128/221 118/129/222 117/130/223 122/127/224
f 125/133/225 123/131/226 124/132/227 128/134/228
f 125/133/229 128/134/230 119/135/231 126/136/232 127/137/233 120/138/234
