# This file uses meters as units for non-parametric coordinates.

v 80.177628 -17.881638 -4.842346
v -80.177612 -17.881638 -4.842346
v 80.177628 17.881638 -4.842346
v -80.177612 17.881638 -4.842346
v 80.177628 17.881638 0.000000
v -80.177612 17.881638 0.000000
v 80.177628 -17.881638 0.000000
v -80.177612 -17.881638 0.000000
vt 0.101584 0.011198
vt 0.101533 0.011407
vt 0.101533 0.011343
vt 0.101584 0.011134
vt 0.998456 0.910178
vt 0.812914 0.910178
vt 0.998456 0.868798
vt 0.812914 0.868798
vt 0.101522 0.011342
vt 0.101573 0.011133
vt 0.101573 0.011197
vt 0.101522 0.011406
vn 0.000000 0.000000 -1.000000
vn 0.000000 0.000000 -1.000000
vn 0.000000 0.000000 -1.000000
vn 0.000000 0.000000 -1.000000
vn 0.000000 1.000000 0.000000
vn 0.000000 1.000000 0.000000
vn 0.000000 1.000000 0.000000
vn 0.000000 1.000000 0.000000
vn 0.000000 0.000000 1.000000
vn 0.000000 0.000000 1.000000
vn 0.000000 0.000000 1.000000
vn 0.000000 0.000000 1.000000
vn 0.000000 -1.000000 0.000000
vn 0.000000 -1.000000 0.000000
vn 0.000000 -1.000000 0.000000
vn 0.000000 -1.000000 0.000000
vn -1.000000 0.000000 0.000000
vn -1.000000 0.000000 0.000000
vn -1.000000 0.000000 0.000000
vn -1.000000 0.000000 0.000000
vn 1.000000 0.000000 0.000000
vn 1.000000 0.000000 0.000000
vn 1.000000 0.000000 0.000000
vn 1.000000 0.000000 0.000000
s off
f 1/1/1 2/2/2 4/3/3 3/4/4
f 3/4/5 4/3/6 6/9/7 5/10/8
f 5/5/9 6/6/10 8/8/11 7/7/12
f 7/11/13 8/12/14 2/2/15 1/1/16
f 2/2/17 8/12/18 6/9/19 4/3/20
f 7/11/21 1/1/22 3/4/23 5/10/24
