# This file uses meters as units for non-parametric coordinates.

v 48.822807 31.796473 1.307106
v 48.822807 -31.796511 1.307106
v -48.822819 31.796511 1.307106
v -48.822819 -31.796497 1.307106
v 48.822807 -31.796511 -1.306915
v -48.822819 -31.796497 -1.306915
v -48.822819 31.796511 -1.306915
v 48.822807 31.796473 -1.306915
vt 0.248559 0.250876
vt 0.003141 0.250873
vt 0.248559 0.397206
vt 0.003141 0.397209
vt 0.497245 0.247767
vt 0.497038 0.247767
vt 0.497038 0.247663
vt 0.497245 0.247663
vt 0.497245 0.247767
vt 0.497038 0.247767
vt 0.497038 0.247663
vt 0.497245 0.247663
vt 0.497245 0.247767
vt 0.497038 0.247767
vt 0.497038 0.247663
vt 0.497245 0.247663
vt 0.497245 0.247767
vt 0.497038 0.247767
vt 0.497038 0.247663
vt 0.497245 0.247663
vt 0.248559 0.250876
vt 0.248559 0.397206
vt 0.003141 0.397209
vt 0.003141 0.250873
vn -0.000001 0.000000 1.000000
vn -0.000001 0.000000 1.000000
vn -0.000001 0.000000 1.000000
vn -0.000001 0.000000 1.000000
vn -0.000000 -1.000000 0.000000
vn -0.000000 -1.000000 0.000000
vn -0.000000 -1.000000 0.000000
vn -0.000000 -1.000000 0.000000
vn 0.000000 1.000000 0.000000
vn 0.000000 1.000000 0.000000
vn 0.000000 1.000000 0.000000
vn 0.000000 1.000000 0.000000
vn 1.000000 0.000000 0.000000
vn 1.000000 0.000000 0.000000
vn 1.000000 0.000000 0.000000
vn 1.000000 0.000000 0.000000
vn -1.000000 0.000000 0.000000
vn -1.000000 0.000000 0.000000
vn -1.000000 0.000000 0.000000
vn -1.000000 0.000000 0.000000
vn 0.000000 0.000000 -1.000000
vn 0.000000 0.000000 -1.000000
vn 0.000000 0.000000 -1.000000
vn 0.000000 0.000000 -1.000000
s off
f 4/2/1 2/1/2 1/3/3 3/4/4
f 2/5/5 4/6/6 6/7/7 5/8/8
f 3/9/9 1/10/10 8/11/11 7/12/12
f 1/13/13 2/14/14 5/15/15 8/16/16
f 4/17/17 3/18/18 7/19/19 6/20/20
f 6/21/21 7/22/22 8/23/23 5/24/24
