# This file uses meters as units for non-parametric coordinates.

v 38.269897 -20.388550 0.000000
v 38.947769 -15.546827 0.000000
v 34.669590 -15.651417 0.000000
v 34.445286 -20.293890 0.000000
v 49.633881 -20.579548 0.000000
v 48.542694 -22.165489 0.000000
v 49.072357 -18.058086 0.000000
v 46.157745 -22.289780 0.000000
v 33.005238 -19.264685 0.000000
v 32.717705 -17.671829 0.000000
v 41.326050 -11.055111 0.000000
v 40.018936 -6.344170 0.000000
v 36.136536 -8.144421 0.000000
v 37.780289 -12.491966 0.000000
v 51.825424 -6.703102 0.000000
v 51.456360 -8.592475 0.000000
v 50.305847 -4.614061 0.000000
v 49.318314 -9.656613 0.000000
v 36.049561 -12.121605 0.000000
v 35.151196 -10.775185 0.000000
v 0.000191 -52.404957 0.000000
v 0.000095 -47.772141 0.000000
v 28.582287 -41.051193 0.000000
v 30.413914 -45.193172 0.000000
v 54.463196 -24.216480 0.000000
v 50.636581 -21.507669 0.000000
v 61.666489 9.204090 0.000000
v 56.877518 9.450573 0.000000
v 46.901031 65.733147 0.000000
v 43.174835 62.882153 0.000000
v 41.073700 70.512535 0.000000
v 41.036514 64.956093 0.000000
v 28.217030 55.338257 0.000000
v 25.358295 58.856327 0.000000
v 15.019608 40.520142 0.000000
v 13.203716 45.490997 0.000000
v 0.000000 46.224865 0.000000
v 0.000000 41.333721 0.000000
v 56.111145 41.991962 0.000000
v 51.712418 40.206467 0.000000
v 23.491478 6.873784 0.000000
v 22.627640 11.818423 0.000000
v 10.394382 4.773667 0.000000
v 12.601566 0.683245 0.000000
v 45.455460 1.738634 0.000000
v 44.248962 0.238502 0.000000
v 10.836983 0.820214 0.000000
v 9.767628 2.035245 0.000000
v 38.235092 9.119997 0.000000
v 36.113647 4.659337 0.000000
v 0.000000 -23.849672 0.000000
v 23.163319 -21.547646 0.000000
v 23.672771 -23.083969 0.000000
v 15.241814 -22.255608 0.000000
v 15.493870 -27.099174 0.000000
v 4.576206 -19.443697 0.000000
v 0.000000 -15.300220 0.000000
v 6.917858 -12.265629 0.000000
v 2.859306 -9.465497 0.000000
v 9.795380 -5.637068 0.000000
v 8.056736 -4.648632 0.000000
v -38.269890 -20.388550 0.000000
v -38.947762 -15.546827 0.000000
v -34.669590 -15.651417 0.000000
v -34.445286 -20.293890 0.000000
v -49.633873 -20.579548 0.000000
v -48.542702 -22.165489 0.000000
v -49.072350 -18.058086 0.000000
v -46.157753 -22.289780 0.000000
v -33.005238 -19.264685 0.000000
v -32.717705 -17.671829 0.000000
v -41.326057 -11.055111 0.000000
v -40.018929 -6.344170 0.000000
v -36.136543 -8.144421 0.000000
v -37.780296 -12.491966 0.000000
v -51.825417 -6.703102 0.000000
v -51.456367 -8.592475 0.000000
v -50.305855 -4.614061 0.000000
v -49.318314 -9.656613 0.000000
v -36.049568 -12.121605 0.000000
v -35.151207 -10.775185 0.000000
v -0.000191 -52.404957 0.000000
v -0.000095 -47.772141 0.000000
v -28.582287 -41.051193 0.000000
v -30.413914 -45.193172 0.000000
v -54.463200 -24.216480 0.000000
v -50.636589 -21.507669 0.000000
v -61.666489 9.204090 0.000000
v -56.877518 9.450573 0.000000
v -46.901024 65.733147 0.000000
v -43.174828 62.882153 0.000000
v -41.073692 70.512535 0.000000
v -41.036522 64.956093 0.000000
v -28.217030 55.338257 0.000000
v -25.358295 58.856327 0.000000
v -15.019608 40.520142 0.000000
v -13.203715 45.490997 0.000000
v -56.111149 41.991962 0.000000
v -51.712418 40.206467 0.000000
v -23.491480 6.873784 0.000000
v -22.627640 11.818423 0.000000
v -10.394383 4.773667 0.000000
v -12.601567 0.683245 0.000000
v -45.455467 1.738634 0.000000
v -44.248962 0.238502 0.000000
v -10.836983 0.820214 0.000000
v -9.767629 2.035245 0.000000
v -38.235092 9.119997 0.000000
v -36.113655 4.659337 0.000000
v -23.163319 -21.547646 0.000000
v -23.672771 -23.083969 0.000000
v -15.241814 -22.255608 0.000000
v -15.493871 -27.099174 0.000000
v -4.576207 -19.443697 0.000000
v -6.917857 -12.265629 0.000000
v -2.859306 -9.465497 0.000000
v -9.795380 -5.637068 0.000000
v -8.056737 -4.648632 0.000000
vt 0.012010 0.889403
vt 0.012011 0.889414
vt 0.012016 0.889414
vt 0.012017 0.889404
vt 0.012019 0.889413
vt 0.012018 0.889422
vt 0.012010 0.889419
vt 0.012008 0.889410
vt 0.012018 0.889419
vt 0.012019 0.889416
vt 0.012010 0.889403
vt 0.012011 0.889414
vt 0.012016 0.889414
vt 0.012017 0.889404
vt 0.012018 0.889422
vt 0.012018 0.889419
vt 0.012019 0.889416
vt 0.012019 0.889413
vt 0.012008 0.889410
vt 0.012010 0.889419
vt 0.012004 0.889422
vt 0.012002 0.889412
vt 0.012009 0.889415
vt 0.012009 0.889402
vt 0.012000 0.889427
vt 0.012002 0.889435
vt 0.012001 0.889438
vt 0.012000 0.889430
vt 0.012000 0.889430
vt 0.012001 0.889438
vt 0.012000 0.889430
vt 0.012001 0.889438
vt 0.012000 0.889430
vt 0.012001 0.889438
vt 0.012000 0.889430
vt 0.012001 0.889438
vt 0.012001 0.889438
vt 0.012000 0.889430
vt 0.012000 0.889430
vt 0.012001 0.889438
vt 0.012011 0.889403
vt 0.012012 0.889414
vt 0.012016 0.889414
vt 0.012017 0.889404
vt 0.012008 0.889410
vt 0.012010 0.889419
vt 0.012019 0.889413
vt 0.012018 0.889422
vt 0.012018 0.889419
vt 0.012019 0.889416
vt 0.012013 0.889414
vt 0.012013 0.889414
vt 0.012017 0.889418
vt 0.012018 0.889409
vt 0.012018 0.889419
vt 0.012019 0.889416
vt 0.012013 0.889403
vt 0.012014 0.889414
vt 0.012013 0.889411
vt 0.012013 0.889413
vt 0.012014 0.889414
vt 0.012010 0.889403
vt 0.012011 0.889414
vt 0.012016 0.889414
vt 0.012017 0.889404
vt 0.012018 0.889422
vt 0.012018 0.889419
vt 0.012019 0.889416
vt 0.012019 0.889413
vt 0.012008 0.889410
vt 0.012010 0.889419
vt 0.012010 0.889403
vt 0.012011 0.889414
vt 0.012016 0.889414
vt 0.012017 0.889404
vt 0.012018 0.889422
vt 0.012018 0.889419
vt 0.012019 0.889416
vt 0.012019 0.889413
vt 0.012008 0.889410
vt 0.012010 0.889419
vt 0.012004 0.889422
vt 0.012002 0.889412
vt 0.012009 0.889415
vt 0.012009 0.889402
vt 0.012000 0.889427
vt 0.012002 0.889435
vt 0.012001 0.889438
vt 0.012000 0.889430
vt 0.012000 0.889430
vt 0.012001 0.889438
vt 0.012000 0.889430
vt 0.012001 0.889438
vt 0.012000 0.889430
vt 0.012001 0.889438
vt 0.012001 0.889438
vt 0.012000 0.889430
vt 0.012000 0.889430
vt 0.012001 0.889438
vt 0.012011 0.915616
vt 0.012012 0.915627
vt 0.012016 0.915627
vt 0.012017 0.915617
vt 0.012008 0.915623
vt 0.012010 0.915632
vt 0.012019 0.915626
vt 0.012018 0.915635
vt 0.012018 0.915632
vt 0.012019 0.915629
vt 0.012013 0.889414
vt 0.012013 0.889414
vt 0.012017 0.889418
vt 0.012018 0.889409
vt 0.012018 0.889419
vt 0.012019 0.889416
vt 0.012013 0.889403
vt 0.012014 0.889414
vt 0.012013 0.889411
vt 0.012013 0.889413
vt 0.012014 0.889414
vn 0.000000 0.000000 1.000000
vn 0.000000 0.000000 1.000000
vn 0.000000 0.000000 1.000000
vn 0.000000 0.000000 1.000000
vn 0.000000 0.000000 1.000000
vn 0.000000 0.000000 1.000000
vn 0.000000 0.000000 1.000000
vn 0.000000 0.000000 1.000000
vn 0.000000 0.000000 1.000000
vn 0.000000 0.000000 1.000000
vn 0.000000 0.000000 1.000000
vn 0.000000 0.000000 1.000000
vn 0.000000 0.000000 1.000000
vn 0.000000 0.000000 1.000000
vn 0.000000 0.000000 1.000000
vn 0.000000 0.000000 1.000000
vn 0.000000 0.000000 1.000000
vn 0.000000 0.000000 1.000000
vn 0.000000 0.000000 1.000000
vn 0.000000 0.000000 1.000000
vn 0.000000 0.000000 1.000000
vn 0.000000 0.000000 1.000000
vn 0.000000 0.000000 1.000000
vn 0.000000 0.000000 1.000000
vn 0.000000 0.000000 1.000000
vn 0.000000 0.000000 1.000000
vn 0.000000 0.000000 1.000000
vn 0.000000 0.000000 1.000000
vn 0.000000 0.000000 1.000000
vn 0.000000 0.000000 1.000000
vn 0.000000 0.000000 1.000000
vn 0.000000 0.000000 1.000000
vn 0.000000 0.000000 1.000000
vn 0.000000 0.000000 1.000000
vn 0.000000 0.000000 1.000000
vn 0.000000 0.000000 1.000000
vn 0.000000 0.000000 1.000000
vn 0.000000 0.000000 1.000000
vn 0.000000 0.000000 1.000000
vn 0.000000 0.000000 1.000000
vn 0.000000 0.000000 1.000000
vn 0.000000 0.000000 1.000000
vn 0.000000 0.000000 1.000000
vn 0.000000 0.000000 1.000000
vn 0.000000 0.000000 1.000000
vn 0.000000 0.000000 1.000000
vn 0.000000 0.000000 1.000000
vn 0.000000 0.000000 1.000000
vn 0.000000 0.000000 1.000000
vn 0.000000 0.000000 1.000000
vn 0.000000 0.000000 1.000000
vn 0.000000 0.000000 1.000000
vn 0.000000 0.000000 1.000000
vn 0.000000 0.000000 1.000000
vn 0.000000 0.000000 1.000000
vn 0.000000 0.000000 1.000000
vn 0.000000 0.000000 1.000000
vn 0.000000 0.000000 1.000000
vn 0.000000 0.000000 1.000000
vn 0.000000 0.000000 1.000000
vn 0.000000 0.000000 1.000000
vn 0.000000 0.000000 1.000000
vn 0.000000 0.000000 1.000000
vn 0.000000 0.000000 1.000000
vn 0.000000 0.000000 1.000000
vn 0.000000 0.000000 1.000000
vn 0.000000 0.000000 1.000000
vn 0.000000 0.000000 1.000000
vn 0.000000 0.000000 1.000000
vn 0.000000 0.000000 1.000000
vn 0.000000 0.000000 1.000000
vn 0.000000 0.000000 1.000000
vn 0.000000 0.000000 1.000000
vn 0.000000 0.000000 1.000000
vn 0.000000 0.000000 1.000000
vn 0.000000 0.000000 1.000000
vn 0.000000 0.000000 1.000000
vn 0.000000 0.000000 1.000000
vn 0.000000 0.000000 1.000000
vn 0.000000 0.000000 1.000000
vn 0.000000 0.000000 1.000000
vn 0.000000 0.000000 1.000000
vn 0.000000 0.000000 1.000000
vn 0.000000 0.000000 1.000000
vn 0.000000 0.000000 1.000000
vn 0.000000 0.000000 1.000000
vn 0.000000 0.000000 1.000000
vn 0.000000 0.000000 1.000000
vn 0.000000 0.000000 1.000000
vn 0.000000 0.000000 1.000000
vn 0.000000 0.000000 1.000000
vn 0.000000 0.000000 1.000000
vn 0.000000 0.000000 1.000000
vn 0.000000 0.000000 1.000000
vn 0.000000 0.000000 1.000000
vn 0.000000 0.000000 1.000000
vn 0.000000 0.000000 1.000000
vn 0.000000 0.000000 1.000000
vn 0.000000 0.000000 1.000000
vn 0.000000 0.000000 1.000000
vn 0.000000 0.000000 1.000000
vn 0.000000 0.000000 1.000000
vn 0.000000 0.000000 1.000000
vn 0.000000 0.000000 1.000000
vn 0.000000 0.000000 1.000000
vn 0.000000 0.000000 1.000000
vn 0.000000 0.000000 1.000000
vn 0.000000 0.000000 1.000000
vn 0.000000 0.000000 1.000000
vn 0.000000 0.000000 1.000000
vn 0.000000 0.000000 1.000000
vn 0.000000 0.000000 1.000000
vn 0.000000 0.000000 1.000000
vn 0.000000 0.000000 1.000000
vn 0.000000 0.000000 1.000000
vn 0.000000 0.000000 1.000000
vn 0.000000 0.000000 1.000000
vn 0.000000 0.000000 1.000000
vn 0.000000 0.000000 1.000000
vn 0.000000 0.000000 1.000000
vn 0.000000 0.000000 1.000000
vn 0.000000 0.000000 1.000000
vn 0.000000 0.000000 1.000000
vn 0.000000 0.000000 1.000000
vn 0.000000 0.000000 1.000000
vn 0.000000 0.000000 1.000000
vn 0.000000 0.000000 1.000000
vn 0.000000 0.000000 1.000000
vn 0.000000 0.000000 1.000000
vn 0.000000 0.000000 1.000000
vn 0.000000 0.000000 1.000000
vn 0.000000 0.000000 1.000000
vn 0.000000 0.000000 1.000000
vn 0.000000 0.000000 1.000000
vn 0.000000 0.000000 1.000000
vn 0.000000 0.000000 1.000000
vn 0.000000 0.000000 1.000000
vn 0.000000 0.000000 1.000000
vn 0.000000 0.000000 1.000000
vn 0.000000 0.000000 1.000000
vn 0.000000 0.000000 1.000000
vn 0.000000 0.000000 1.000000
vn 0.000000 0.000000 1.000000
vn 0.000000 0.000000 1.000000
vn 0.000000 0.000000 1.000000
vn 0.000000 0.000000 1.000000
vn 0.000000 0.000000 1.000000
vn 0.000000 0.000000 1.000000
vn 0.000000 0.000000 1.000000
vn 0.000000 0.000000 1.000000
vn 0.000000 0.000000 1.000000
vn 0.000000 0.000000 1.000000
vn 0.000000 0.000000 1.000000
vn 0.000000 0.000000 1.000000
vn 0.000000 0.000000 1.000000
vn 0.000000 0.000000 1.000000
vn 0.000000 0.000000 1.000000
vn 0.000000 0.000000 1.000000
vn 0.000000 0.000000 1.000000
vn 0.000000 0.000000 1.000000
vn 0.000000 0.000000 1.000000
vn 0.000000 0.000000 1.000000
vn 0.000000 0.000000 1.000000
vn 0.000000 0.000000 1.000000
vn 0.000000 0.000000 1.000000
vn 0.000000 0.000000 1.000000
vn 0.000000 0.000000 1.000000
vn 0.000000 0.000000 1.000000
vn 0.000000 0.000000 1.000000
vn 0.000000 0.000000 1.000000
vn 0.000000 0.000000 1.000000
vn 0.000000 0.000000 1.000000
vn 0.000000 0.000000 1.000000
vn 0.000000 0.000000 1.000000
vn 0.000000 0.000000 1.000000
vn 0.000000 0.000000 1.000000
vn 0.000000 0.000000 1.000000
vn 0.000000 0.000000 1.000000
vn 0.000000 0.000000 1.000000
vn 0.000000 0.000000 1.000000
vn 0.000000 0.000000 1.000000
vn 0.000000 0.000000 1.000000
vn 0.000000 0.000000 1.000000
vn 0.000000 0.000000 1.000000
vn 0.000000 0.000000 1.000000
vn 0.000000 0.000000 1.000000
vn 0.000000 0.000000 1.000000
vn 0.000000 0.000000 1.000000
vn 0.000000 0.000000 1.000000
vn 0.000000 0.000000 1.000000
vn 0.000000 0.000000 1.000000
vn 0.000000 0.000000 1.000000
vn 0.000000 0.000000 1.000000
vn 0.000000 0.000000 1.000000
s off
f 1/3/1 8/2/2 7/1/3 2/4/4
f 2/4/5 3/5/6 10/10/7 9/9/8 4/6/9 1/3/10
f 5/8/11 7/1/12 8/2/13 6/7/14
f 11/13/15 18/12/16 17/11/17 12/14/18
f 12/14/19 13/18/20 20/17/21 19/16/22 14/15/23 11/13/24
f 15/19/25 17/11/26 18/12/27 16/20/28
f 23/21/29 22/23/30 21/24/31 24/22/32
f 26/26/33 23/21/34 24/22/35 25/25/36
f 28/27/37 26/26/38 25/25/39 27/28/40
f 40/30/41 28/27/42 27/28/43 39/29/44
f 30/34/45 40/30/46 39/29/47 29/33/48
f 32/32/49 30/34/50 29/33/51 31/31/52
f 34/39/53 36/38/54 35/37/55 33/40/56
f 31/31/57 34/39/58 33/40/59 32/32/60
f 36/38/61 37/35/62 38/36/63 35/37/64
f 41/43/65 50/42/66 49/41/67 42/44/68
f 50/42/69 46/46/70 45/45/71 49/41/72
f 43/47/73 48/50/74 47/49/75 44/48/76
f 42/44/77 43/47/78 44/48/79 41/43/80
f 51/57/81 55/54/82 54/53/83 56/58/84
f 55/54/85 53/56/86 52/55/87 54/53/88
f 57/59/89 51/57/90 56/58/91 58/61/92 59/60/93
f 61/51/94 59/60/95 58/61/96 60/52/97
f 69/63/98 62/64/99 63/65/100 68/62/101
f 63/65/102 62/64/103 65/66/104 70/67/105 71/68/106 64/69/107
f 66/70/108 67/71/109 69/63/110 68/62/111
f 79/73/112 72/74/113 73/75/114 78/72/115
f 73/75/116 72/74/117 75/76/118 80/77/119 81/78/120 74/79/121
f 76/80/122 77/81/123 79/73/124 78/72/125
f 83/84/126 84/82/127 85/83/128 82/85/129
f 84/82/130 87/87/131 86/86/132 85/83/133
f 87/87/134 89/88/135 88/89/136 86/86/137
f 95/98/138 92/92/139 93/93/140 94/99/141
f 99/91/142 91/95/143 90/94/144 98/90/145
f 91/95/146 93/93/147 92/92/148 90/94/149
f 97/97/150 95/98/151 94/99/152 96/96/153
f 37/35/154 97/97/155 96/96/156 38/36/157
f 89/88/158 99/91/159 98/90/160 88/89/161
f 109/101/162 100/102/163 101/103/164 108/100/165
f 102/106/166 101/103/167 100/102/168 103/107/169
f 102/106/170 103/107/171 106/108/172 107/109/173
f 105/105/174 109/101/175 108/100/176 104/104/177
f 116/119/178 118/110/179 117/111/180 115/120/181
f 111/115/182 113/113/183 112/112/184 110/114/185
f 113/113/186 51/116/187 114/117/188 112/112/189
f 57/118/190 116/119/191 115/120/192 114/117/193 51/116/194
