# This file uses meters as units for non-parametric coordinates.

v 15.722896 -5.205727 -4.666690
v 15.722896 -5.205727 4.666690
v -15.722907 -5.205732 4.666690
v -15.722907 -5.205732 -4.666690
v 15.722907 -3.018343 4.666690
v -15.722907 -3.018349 4.666690
v 15.722907 -3.018343 -4.666690
v -15.722907 -3.018349 -4.666690
v 15.722919 -2.263802 2.431452
v -15.722931 -2.263808 2.431452
v 15.722919 -2.263802 -2.431453
v -15.722931 -2.263808 -2.431453
v -15.722883 5.205727 -4.666690
v -15.722883 5.205727 4.666690
v 15.722907 5.205739 4.666690
v 15.722907 5.205739 -4.666690
v -15.722907 3.018343 4.666690
v 15.722907 3.018355 4.666690
v -15.722907 3.018343 -4.666690
v 15.722907 3.018355 -4.666690
v -15.722931 2.263808 2.431452
v 15.722931 2.263808 2.431452
v -15.722931 2.263808 -2.431453
v 15.722931 2.263808 -2.431453
vt 0.244757 0.302669
vt 0.244757 0.302669
vt 0.244757 0.302669
vt 0.244757 0.302669
vt 0.244757 0.302669
vt 0.244757 0.302669
vt 0.244757 0.302669
vt 0.244757 0.302669
vt 0.244757 0.302669
vt 0.244757 0.302669
vt 0.244757 0.302669
vt 0.244757 0.302669
vt 0.244757 0.302669
vt 0.244029 0.230962
vt 0.244029 0.230962
vt 0.244029 0.230962
vt 0.244029 0.230962
vt 0.244757 0.302669
vt 0.244757 0.302669
vt 0.244757 0.302669
vt 0.244757 0.302669
vt 0.244757 0.302669
vt 0.244757 0.302669
vt 0.244029 0.230962
vt 0.244029 0.230962
vt 0.244029 0.230962
vt 0.244029 0.230962
vt 0.244757 0.302669
vt 0.244757 0.302669
vt 0.244757 0.302669
vt 0.244757 0.302669
vt 0.244757 0.302669
vt 0.244757 0.302669
vt 0.244757 0.302669
vt 0.244757 0.302669
vt 0.244757 0.302669
vt 0.244757 0.302669
vt 0.244757 0.302669
vn 0.000000 -1.000000 0.000000
vn 0.000000 -1.000000 0.000000
vn 0.000000 -1.000000 0.000000
vn 0.000000 -1.000000 0.000000
vn 0.000000 0.000000 1.000000
vn 0.000000 0.000000 1.000000
vn 0.000000 0.000000 1.000000
vn 0.000000 0.000000 1.000000
vn 0.000000 0.000000 -1.000000
vn 0.000000 0.000000 -1.000000
vn 0.000000 0.000000 -1.000000
vn 0.000000 0.000000 -1.000000
vn 0.000000 0.000000 1.000000
vn 0.000000 0.000000 1.000000
vn 0.000000 0.000000 1.000000
vn 0.000000 0.000000 1.000000
vn 0.000000 0.000000 -1.000000
vn 0.000000 0.000000 -1.000000
vn 0.000000 0.000000 -1.000000
vn 0.000000 0.000000 -1.000000
vn -0.000000 0.947473 0.319835
vn -0.000000 0.947473 0.319835
vn -0.000000 0.947473 0.319835
vn -0.000000 0.947473 0.319835
vn -0.000000 0.947473 -0.319835
vn -0.000000 0.947473 -0.319835
vn -0.000000 0.947473 -0.319835
vn -0.000000 0.947473 -0.319835
vn -0.000000 1.000000 0.000000
vn -0.000000 1.000000 0.000000
vn -0.000000 1.000000 0.000000
vn -0.000000 1.000000 0.000000
vn -0.000000 0.000000 1.000000
vn -0.000000 0.000000 1.000000
vn -0.000000 0.000000 1.000000
vn -0.000000 0.000000 1.000000
vn -0.000000 0.000000 -1.000000
vn -0.000000 0.000000 -1.000000
vn -0.000000 0.000000 -1.000000
vn -0.000000 0.000000 -1.000000
vn 0.000000 -0.947473 0.319835
vn 0.000000 -0.947473 0.319835
vn 0.000000 -0.947473 0.319835
vn 0.000000 -0.947473 0.319835
vn 0.000000 -0.947473 -0.319835
vn 0.000000 -0.947473 -0.319835
vn 0.000000 -0.947473 -0.319835
vn 0.000000 -0.947473 -0.319835
s off
f 1/2/1 2/3/2 3/4/3 4/5/4
f 21/24/5 10/15/6 9/14/7 22/25/8
f 24/27/9 11/16/10 12/17/11 23/26/12
f 6/6/13 3/1/14 2/18/15 5/7/16
f 7/8/17 1/19/18 4/5/19 8/9/20
f 9/11/21 10/10/22 6/6/23 5/7/24
f 11/12/25 7/8/26 8/9/27 12/13/28
f 13/20/29 14/21/30 15/22/31 16/23/32
f 18/28/33 15/29/34 14/30/35 17/31/36
f 19/32/37 13/33/38 16/23/39 20/34/40
f 21/35/41 22/36/42 18/28/43 17/31/44
f 23/37/45 19/32/46 20/34/47 24/38/48
