# This file uses meters as units for non-parametric coordinates.

v -39.296413 -18.868401 0.000000
v -42.146255 -20.293331 0.000000
v -39.296413 18.868401 0.000000
v -42.146255 20.293331 0.000000
v 42.146255 -20.293331 0.000000
v 39.296387 -18.868401 0.000000
v 42.146255 20.293331 0.000000
v 39.296387 18.868401 0.000000
v -40.721321 21.718262 0.000000
v 40.721321 21.718262 0.000000
v -40.721321 -21.718262 0.000000
v 40.721321 -21.718262 0.000000
v -35.417915 -18.868401 0.000000
v -35.375931 -21.718262 0.000000
v -28.573801 -18.868401 0.000000
v -28.472256 -21.718262 0.000000
v -29.350780 -20.351955 0.000000
v -34.566235 -20.376419 0.000000
v 13.045263 -13.945174 0.000000
v 9.733772 -15.206170 0.000000
v 2.144337 14.665222 0.000000
v -1.122093 13.286281 0.000000
v 0.076771 14.911629 0.000000
v 11.684322 -15.425777 0.000000
v 17.534971 -14.492226 0.000000
v 13.991547 -14.492226 0.000000
v 17.534971 14.846826 0.000000
v 13.991547 14.720583 0.000000
v 15.690374 15.812897 0.000000
v 15.736341 -15.391540 0.000000
v 34.057381 -13.725018 0.000000
v 31.307220 -15.959454 0.000000
v 27.222969 -5.091071 0.000000
v 24.552441 -7.423424 0.000000
v 25.182104 -5.504465 0.000000
v 33.228447 -15.557217 0.000000
v -8.067608 -15.077687 0.000000
v -11.389208 -13.843799 0.000000
v 0.274086 8.115220 0.000000
v -3.091526 9.230804 0.000000
v -1.118612 9.663177 0.000000
v -10.066891 -15.294362 0.000000
v -3.160286 -7.742548 0.000000
v -3.160286 -4.199147 0.000000
v 4.650068 -7.742548 0.000000
v 4.523802 -4.199147 0.000000
v 5.616093 -5.897951 0.000000
v -4.059554 -5.943894 0.000000
v -26.428246 -0.278449 0.000000
v -26.428246 2.821827 0.000000
v -26.300787 15.253521 0.000000
v -26.300787 12.181520 0.000000
v -27.491903 13.805461 0.000000
v -27.518963 1.438260 0.000000
v -14.495802 7.425785 0.000000
v -18.870974 -0.169635 0.000000
v -18.799137 15.062094 0.000000
v -15.636110 11.813903 0.000000
v -15.677452 3.048587 0.000000
v -18.039177 7.442474 0.000000
v -18.723083 10.074282 0.000000
v -20.620203 12.022423 0.000000
v -18.747829 4.817224 -0.000000
v -20.663216 2.887082 -0.000000
v -16.579485 2.139544 0.000000
v -26.428246 -14.844656 0.000000
v -26.428246 -11.744380 0.000000
v -27.519035 -13.127972 0.000000
v -11.980486 -6.137228 0.000000
v -16.355658 -14.735867 0.000000
v -16.579628 2.139544 0.000000
v -13.111210 -1.187968 0.000000
v -12.902451 -10.991454 0.000000
v -15.523911 -6.120515 0.000000
v -16.198206 -2.927589 0.000000
v -18.870974 -0.169635 0.000000
v -15.972805 -9.222817 -0.000000
v -18.147896 -11.679150 -0.000000
v -28.424500 -14.492226 0.000000
v -31.967880 -14.492226 0.000000
v -28.424500 14.846826 0.000000
v -31.967880 14.720583 0.000000
v -30.269121 15.812897 0.000000
v -30.223156 -15.391540 0.000000
v 19.377090 14.444304 0.000000
v 19.377090 11.344051 0.000000
v 18.286324 12.727618 0.000000
v 33.824875 4.828048 0.000000
v 29.449654 13.443375 0.000000
v 32.902908 9.698986 0.000000
v 30.281448 4.828048 0.000000
v 29.832506 7.930326 -0.000000
v 27.657463 10.386658 -0.000000
v 19.377090 -4.783988 0.000000
v 19.377090 -1.683736 0.000000
v 18.286324 -3.067279 0.000000
v 29.449654 -3.787303 0.000000
v 32.902908 -0.042892 0.000000
v 29.832506 1.725769 -0.000000
v 27.657463 -0.730586 -0.000000
v 23.921108 14.389919 0.000000
v 23.921108 -4.729581 0.000000
v 23.921108 -1.660562 -0.000000
v 23.921108 11.320305 0.000000
vt 0.008088 0.039166
vt 0.007965 0.039256
vt 0.008072 0.039150
vt 0.007947 0.039238
vt 0.007965 0.039256
vt 0.007947 0.039238
vt 0.008072 0.039150
vt 0.008088 0.039166
vt 0.007965 0.039256
vt 0.007947 0.039238
vt 0.008072 0.039150
vt 0.008088 0.039166
vt 0.007965 0.039256
vt 0.007947 0.039238
vt 0.008072 0.039150
vt 0.008088 0.039166
vt 0.008005 0.039197
vt 0.008011 0.039193
vt 0.008026 0.039211
vt 0.008010 0.039194
vt 0.008087 0.039164
vt 0.007963 0.039254
vt 0.008085 0.039163
vt 0.007961 0.039253
vt 0.008022 0.039209
vt 0.008020 0.039213
vt 0.008085 0.039163
vt 0.008022 0.039209
vt 0.007961 0.039253
vt 0.007947 0.039238
vt 0.008009 0.039195
vt 0.008072 0.039150
vt 0.008085 0.039163
vt 0.008022 0.039209
vt 0.007961 0.039253
vt 0.007947 0.039238
vt 0.008009 0.039195
vt 0.008072 0.039150
vt 0.008085 0.039163
vt 0.008022 0.039209
vt 0.007961 0.039253
vt 0.007947 0.039238
vt 0.008009 0.039195
vt 0.008072 0.039150
vt 0.008085 0.039163
vt 0.008022 0.039209
vt 0.007961 0.039253
vt 0.007947 0.039238
vt 0.008009 0.039195
vt 0.008072 0.039150
vt 0.008085 0.039163
vt 0.008022 0.039209
vt 0.007961 0.039253
vt 0.007947 0.039238
vt 0.008009 0.039195
vt 0.008072 0.039150
vt 0.008082 0.013357
vt 0.007957 0.013446
vt 0.007956 0.013445
vt 0.008080 0.013356
vt 0.008076 0.013351
vt 0.007951 0.013440
vt 0.007947 0.013436
vt 0.008009 0.013392
vt 0.008072 0.013348
vt 0.007954 0.013443
vt 0.008079 0.013354
vt 0.008085 0.013361
vt 0.008022 0.013407
vt 0.007961 0.013450
vt 0.007953 0.013442
vt 0.008077 0.013352
vt 0.008077 0.013352
vt 0.008082 0.013357
vt 0.007957 0.013446
vt 0.007956 0.013445
vt 0.008080 0.013356
vt 0.008076 0.013351
vt 0.007951 0.013440
vt 0.007947 0.013436
vt 0.008009 0.013392
vt 0.008072 0.013348
vt 0.007954 0.013443
vt 0.008079 0.013354
vt 0.007953 0.013442
vt 0.008077 0.013352
vt 0.008085 0.013361
vt 0.008022 0.013407
vt 0.007961 0.013450
vt 0.007947 0.013436
vt 0.008009 0.013392
vt 0.008072 0.013348
vt 0.008076 0.039153
vt 0.008074 0.039152
vt 0.007949 0.039240
vt 0.007951 0.039242
vt 0.008079 0.039156
vt 0.008077 0.039155
vt 0.007953 0.039244
vt 0.007954 0.039246
vt 0.008074 0.039152
vt 0.007948 0.039240
vt 0.007947 0.039238
vt 0.008009 0.039195
vt 0.008072 0.039150
vt 0.008079 0.039156
vt 0.007954 0.039246
vt 0.007953 0.039244
vt 0.008077 0.039155
vt 0.007951 0.039242
vt 0.008076 0.039153
vt 0.008072 0.039150
vt 0.008009 0.039195
vt 0.007947 0.039238
vn 0.000000 0.000000 1.000000
vn 0.000000 0.000000 1.000000
vn 0.000000 0.000000 1.000000
vn 0.000000 0.000000 1.000000
vn 0.000000 0.000000 1.000000
vn 0.000000 0.000000 1.000000
vn 0.000000 0.000000 1.000000
vn 0.000000 0.000000 1.000000
vn 0.000000 0.000000 1.000000
vn 0.000000 0.000000 1.000000
vn 0.000000 0.000000 1.000000
vn 0.000000 0.000000 1.000000
vn 0.000000 0.000000 1.000000
vn 0.000000 0.000000 1.000000
vn 0.000000 0.000000 1.000000
vn 0.000000 0.000000 1.000000
vn 0.000000 0.000000 1.000000
vn 0.000000 0.000000 1.000000
vn 0.000000 0.000000 1.000000
vn 0.000000 0.000000 1.000000
vn 0.000000 0.000000 1.000000
vn 0.000000 0.000000 1.000000
vn 0.000000 0.000000 1.000000
vn 0.000000 0.000000 1.000000
vn 0.000000 0.000000 1.000000
vn 0.000000 0.000000 1.000000
vn 0.000000 0.000000 1.000000
vn 0.000000 0.000000 1.000000
vn 0.000000 0.000000 1.000000
vn 0.000000 0.000000 1.000000
vn 0.000000 0.000000 1.000000
vn 0.000000 0.000000 1.000000
vn 0.000000 0.000000 1.000000
vn 0.000000 0.000000 1.000000
vn 0.000000 0.000000 1.000000
vn 0.000000 0.000000 1.000000
vn 0.000000 0.000000 1.000000
vn 0.000000 0.000000 1.000000
vn 0.000000 0.000000 1.000000
vn 0.000000 0.000000 1.000000
vn 0.000000 0.000000 1.000000
vn 0.000000 0.000000 1.000000
vn 0.000000 0.000000 1.000000
vn 0.000000 0.000000 1.000000
vn 0.000000 0.000000 1.000000
vn 0.000000 0.000000 1.000000
vn 0.000000 0.000000 1.000000
vn 0.000000 0.000000 1.000000
vn 0.000000 0.000000 1.000000
vn 0.000000 0.000000 1.000000
vn 0.000000 0.000000 1.000000
vn 0.000000 0.000000 1.000000
vn 0.000000 0.000000 1.000000
vn 0.000000 0.000000 1.000000
vn 0.000000 0.000000 1.000000
vn 0.000000 0.000000 1.000000
vn 0.000000 0.000000 1.000000
vn 0.000000 0.000000 1.000000
vn 0.000000 0.000000 1.000000
vn 0.000000 0.000000 1.000000
vn 0.000000 0.000000 1.000000
vn 0.000000 0.000000 1.000000
vn 0.000000 0.000000 1.000000
vn 0.000000 0.000000 1.000000
vn 0.000000 0.000000 1.000000
vn 0.000000 0.000000 1.000000
vn 0.000000 0.000000 1.000000
vn 0.000000 0.000000 1.000000
vn 0.000000 0.000000 1.000000
vn 0.000000 0.000000 1.000000
vn 0.000000 0.000000 1.000000
vn 0.000000 0.000000 1.000000
vn 0.000000 0.000000 1.000000
vn 0.000000 0.000000 1.000000
vn 0.000000 0.000000 1.000000
vn 0.000000 0.000000 1.000000
vn 0.000000 0.000000 1.000000
vn 0.000000 0.000000 1.000000
vn 0.000000 0.000000 1.000000
vn 0.000000 0.000000 1.000000
vn 0.000000 0.000000 1.000000
vn 0.000000 0.000000 1.000000
vn -0.000000 -0.000000 1.000000
vn -0.000000 -0.000000 1.000000
vn -0.000000 -0.000000 1.000000
vn -0.000000 -0.000000 1.000000
vn -0.000000 0.000000 1.000000
vn -0.000000 0.000000 1.000000
vn -0.000000 0.000000 1.000000
vn -0.000000 0.000000 1.000000
vn -0.000000 0.000000 1.000000
vn -0.000000 0.000000 1.000000
vn -0.000000 0.000000 1.000000
vn 0.000000 0.000000 1.000000
vn 0.000000 0.000000 1.000000
vn 0.000000 0.000000 1.000000
vn 0.000000 0.000000 1.000000
vn 0.000000 0.000000 1.000000
vn 0.000000 0.000000 1.000000
vn 0.000000 0.000000 1.000000
vn 0.000000 0.000000 1.000000
vn 0.000000 0.000000 1.000000
vn 0.000000 0.000000 1.000000
vn 0.000000 0.000000 1.000000
vn 0.000000 0.000000 1.000000
vn 0.000000 0.000000 1.000000
vn -0.000000 -0.000000 1.000000
vn -0.000000 -0.000000 1.000000
vn -0.000000 -0.000000 1.000000
vn -0.000000 -0.000000 1.000000
vn -0.000000 0.000000 1.000000
vn -0.000000 0.000000 1.000000
vn -0.000000 0.000000 1.000000
vn -0.000000 0.000000 1.000000
vn 0.000000 0.000000 1.000000
vn 0.000000 0.000000 1.000000
vn 0.000000 0.000000 1.000000
vn 0.000000 0.000000 1.000000
vn 0.000000 0.000000 1.000000
vn 0.000000 0.000000 1.000000
vn 0.000000 -0.000000 1.000000
vn 0.000000 -0.000000 1.000000
vn 0.000000 -0.000000 1.000000
vn 0.000000 -0.000000 1.000000
vn -0.000000 0.000000 1.000000
vn -0.000000 0.000000 1.000000
vn -0.000000 0.000000 1.000000
vn -0.000000 0.000000 1.000000
vn -0.000000 -0.000000 1.000000
vn -0.000000 -0.000000 1.000000
vn -0.000000 -0.000000 1.000000
vn -0.000000 -0.000000 1.000000
vn 0.000000 0.000000 1.000000
vn 0.000000 0.000000 1.000000
vn 0.000000 0.000000 1.000000
vn 0.000000 0.000000 1.000000
vn 0.000000 0.000000 1.000000
vn -0.000000 -0.000000 1.000000
vn -0.000000 -0.000000 1.000000
vn -0.000000 -0.000000 1.000000
vn -0.000000 -0.000000 1.000000
vn -0.000000 0.000000 1.000000
vn -0.000000 0.000000 1.000000
vn -0.000000 0.000000 1.000000
vn -0.000000 0.000000 1.000000
vn -0.000000 0.000000 1.000000
vn -0.000000 0.000000 1.000000
vn -0.000000 0.000000 1.000000
vn -0.000000 0.000000 1.000000
vn 0.000000 0.000000 1.000000
vn 0.000000 0.000000 1.000000
vn 0.000000 0.000000 1.000000
vn 0.000000 0.000000 1.000000
vn 0.000000 0.000000 1.000000
s off
f 4/3/1 3/4/2 9/20/3
f 5/5/4 7/6/5 8/7/6 6/8/7
f 3/9/8 8/10/9 10/11/10 9/12/11
f 5/18/12 6/15/13 12/14/14
f 8/7/15 7/6/16 10/17/17
f 11/13/18 1/16/19 2/19/20
f 15/23/21 17/25/22 16/24/23 12/14/24 6/15/25
f 1/2/26 3/4/27 4/3/28 2/1/29
f 11/13/30 14/22/31 18/26/32 13/21/33 1/16/34
f 21/27/35 23/28/36 22/29/37 20/30/38 24/31/39 19/32/40
f 27/33/41 29/34/42 28/35/43 26/36/44 30/37/45 25/38/46
f 33/39/47 35/40/48 34/41/49 32/42/50 36/43/51 31/44/52
f 39/45/53 41/46/54 40/47/55 38/48/56 42/49/57 37/50/58
f 45/51/59 47/52/60 46/53/61 44/54/62 48/55/63 43/56/64
f 57/57/65 62/58/66 61/59/67 58/60/68
f 56/61/69 64/62/70 50/63/71 54/64/72 49/65/73
f 58/60/74 61/59/75 60/66/76 55/67/77
f 51/68/78 53/69/79 52/70/80 62/58/81 57/57/82
f 55/67/83 60/66/84 63/71/85 59/72/86
f 59/72/87 63/71/88 64/62/89 65/73/90
f 65/73/91 64/62/92 56/61/93
f 71/74/94 76/75/95 75/76/96 72/77/97
f 70/78/98 78/79/99 67/80/100 68/81/101 66/82/102
f 72/77/103 75/76/104 74/83/105 69/84/106
f 69/84/107 74/83/108 77/85/109 73/86/110
f 73/86/111 77/85/112 78/79/113 70/78/114
f 81/87/115 83/88/116 82/89/117 80/90/118 84/91/119 79/92/120
f 89/93/121 101/94/122 104/95/123 93/96/124
f 88/97/125 90/98/126 92/99/127 91/100/128
f 90/98/129 89/93/130 93/96/131 92/99/132
f 102/101/133 103/102/134 95/103/135 96/104/136 94/105/137
f 88/106/138 91/107/139 99/108/140 98/109/141
f 98/109/142 99/108/143 100/110/144 97/111/145
f 97/111/146 100/110/147 103/102/148 102/101/149
f 104/95/150 101/94/151 85/112/152 87/113/153 86/114/154
