# This file uses meters as units for non-parametric coordinates.

v 2.396214 2.396214 0.000000
v 0.000000 3.388757 0.000000
v -2.396220 2.396214 0.000000
v -3.388756 0.000000 0.000000
v -2.396220 -2.396202 0.000000
v 0.000000 -3.388762 0.000000
v 2.396214 -2.396202 0.000000
v 3.388757 0.000000 0.000000
v 0.000000 0.000000 0.000000
vt 0.330092 0.026539
vt 0.330092 0.026539
vt 0.330092 0.026539
vt 0.330092 0.026539
vt 0.330092 0.026539
vt 0.330092 0.026539
vt 0.330092 0.026539
vt 0.330092 0.026539
vt 0.330092 0.024126
vn 0.000000 0.000000 1.000000
vn 0.000000 0.000000 1.000000
vn 0.000000 0.000000 1.000000
vn 0.000000 0.000000 1.000000
vn 0.000000 0.000000 1.000000
vn 0.000000 0.000000 1.000000
vn 0.000000 0.000000 1.000000
vn 0.000000 0.000000 1.000000
vn 0.000000 0.000000 1.000000
s 1
f 1/7/1 2/6/2 9/9/3
f 2/6/2 3/5/4 9/9/3
f 3/5/4 4/4/5 9/9/3
f 4/4/5 5/3/6 9/9/3
f 5/3/6 6/2/7 9/9/3
f 6/2/7 7/1/8 9/9/3
f 7/1/8 8/8/9 9/9/3
f 8/8/9 1/7/1 9/9/3
