# This file uses meters as units for non-parametric coordinates.

v -1.108196 0.000000 -2.185162
v 1.108196 0.000000 -2.185162
v -1.108196 0.698940 -2.767872
v 1.108196 0.698940 -2.767872
v -1.108196 0.000000 -6.555487
v 1.108196 0.000000 -6.555487
v 1.108196 0.698940 -6.555487
v -1.108196 0.698940 -6.555487
v 1.108196 0.698940 -5.098711
v -1.108196 0.698940 -5.098711
v -1.108196 0.000000 -4.516003
v 1.108196 0.000000 -4.516003
v 1.108196 0.698940 -3.933292
v -1.108196 0.698940 -3.933292
v 1.108196 1.449711 -4.122433
v -1.108196 1.449711 -4.122433
v 1.108196 1.449711 -4.909571
v -1.108196 1.449711 -4.909571
v -1.108196 0.000000 6.555487
v 1.108196 0.000000 6.555487
v -1.108196 0.698940 6.555487
v 1.108196 0.698940 6.555487
v 1.108196 0.698940 -1.602451
v -1.108196 0.698940 -1.602451
v 1.108196 0.698940 -0.437031
v -1.108196 0.698940 -0.437031
v -1.108196 0.000000 0.145676
v 1.108196 0.000000 0.145676
v 1.108196 0.698940 0.728386
v -1.108196 0.698940 0.728386
v 1.108196 0.698940 1.893805
v -1.108196 0.698940 1.893805
v -1.108196 0.000000 2.476515
v 1.108196 0.000000 2.476515
v 1.108196 0.698940 3.059225
v -1.108196 0.698940 3.059225
v 1.108196 0.698940 4.224646
v -1.108196 0.698940 4.224646
v -1.108196 0.000000 4.807356
v 1.108196 0.000000 4.807356
v 1.108196 0.698940 5.390066
v -1.108196 0.698940 5.390066
v 1.108196 1.449711 -1.791594
v -1.108196 1.449711 -1.791594
v 1.108196 1.449711 -2.578730
v -1.108196 1.449711 -2.578730
v 1.108196 1.449711 0.539246
v -1.108196 1.449711 0.539246
v 1.108196 1.449711 -0.247890
v -1.108196 1.449711 -0.247890
v 1.108196 1.449711 2.870087
v -1.108196 1.449711 2.870087
v 1.108196 1.449711 2.082949
v -1.108196 1.449711 2.082949
v 1.108196 1.449711 5.200928
v -1.108196 1.449711 5.200928
v 1.108196 1.449711 4.413790
v -1.108196 1.449711 4.413790
vt 0.243853 0.230185
vt 0.243853 0.230185
vt 0.243853 0.230185
vt 0.243853 0.230185
vt 0.243853 0.230185
vt 0.243853 0.230185
vt 0.243853 0.230185
vt 0.243853 0.230185
vt 0.243853 0.230185
vt 0.243853 0.230185
vt 0.243853 0.230185
vt 0.243853 0.230185
vt 0.243853 0.230185
vt 0.243853 0.230185
vt 0.243853 0.230185
vt 0.243853 0.230185
vt 0.243853 0.230185
vt 0.243853 0.230185
vt 0.243853 0.230185
vt 0.243853 0.230185
vt 0.243853 0.230185
vt 0.243853 0.230185
vt 0.243853 0.230185
vt 0.243853 0.230185
vt 0.243853 0.230185
vt 0.243853 0.230185
vt 0.243853 0.230185
vt 0.243853 0.230185
vt 0.243853 0.230185
vt 0.243853 0.230185
vt 0.243853 0.230185
vt 0.243853 0.230185
vt 0.243853 0.230185
vt 0.243853 0.230185
vt 0.243853 0.230185
vt 0.243853 0.230185
vt 0.243853 0.230185
vt 0.243853 0.230185
vt 0.243853 0.230185
vt 0.243853 0.230185
vt 0.243853 0.230185
vt 0.243853 0.230185
vt 0.243853 0.230185
vt 0.243853 0.230185
vt 0.243853 0.230185
vt 0.243853 0.230185
vt 0.243853 0.230185
vt 0.243853 0.230185
vt 0.243853 0.230185
vt 0.243853 0.230185
vt 0.243853 0.230185
vt 0.243853 0.230185
vt 0.243853 0.230185
vt 0.243853 0.230185
vt 0.243853 0.230185
vt 0.243853 0.230185
vt 0.243853 0.230185
vt 0.243853 0.230185
vt 0.243853 0.230185
vt 0.243853 0.230185
vt 0.243853 0.230185
vt 0.243853 0.230185
vt 0.243853 0.230185
vt 0.243853 0.230185
vt 0.243853 0.230185
vt 0.243853 0.230185
vt 0.243853 0.230185
vt 0.243853 0.230185
vt 0.243853 0.230185
vt 0.243853 0.230185
vt 0.243853 0.230185
vt 0.243853 0.230185
vt 0.243853 0.230185
vt 0.243853 0.230185
vt 0.243853 0.230185
vt 0.243853 0.230185
vt 0.243853 0.230185
vt 0.243853 0.230185
vt 0.243853 0.230185
vt 0.243853 0.230185
vt 0.243853 0.230185
vt 0.243853 0.230185
vt 0.243853 0.230185
vt 0.243853 0.230185
vt 0.243853 0.230185
vt 0.243853 0.230185
vt 0.243853 0.230185
vt 0.243853 0.230185
vt 0.243853 0.230185
vt 0.243853 0.230185
vt 0.243853 0.230185
vt 0.243853 0.230185
vt 0.243853 0.230185
vt 0.243853 0.230185
vt 0.243853 0.230185
vt 0.243853 0.230185
vt 0.243853 0.230185
vt 0.243853 0.230185
vt 0.243853 0.230185
vt 0.243853 0.230185
vn 0.000000 1.000000 0.000000
vn 0.000000 1.000000 0.000000
vn 0.000000 1.000000 0.000000
vn 0.000000 1.000000 0.000000
vn 0.000000 -1.000000 0.000000
vn 0.000000 -1.000000 0.000000
vn 0.000000 -1.000000 0.000000
vn 0.000000 -1.000000 0.000000
vn 1.000000 0.000000 0.000000
vn 1.000000 0.000000 0.000000
vn 1.000000 0.000000 0.000000
vn 1.000000 0.000000 0.000000
vn -1.000000 0.000000 0.000000
vn -1.000000 0.000000 0.000000
vn -1.000000 0.000000 0.000000
vn -1.000000 0.000000 0.000000
vn 0.000000 1.000000 0.000000
vn 0.000000 1.000000 0.000000
vn 0.000000 1.000000 0.000000
vn 0.000000 1.000000 0.000000
vn -1.000000 0.000000 0.000000
vn -1.000000 0.000000 0.000000
vn -1.000000 0.000000 0.000000
vn -1.000000 0.000000 0.000000
vn 0.000000 -1.000000 0.000000
vn 0.000000 -1.000000 0.000000
vn 0.000000 -1.000000 0.000000
vn 0.000000 -1.000000 0.000000
vn 1.000000 0.000000 0.000000
vn 1.000000 0.000000 0.000000
vn 1.000000 0.000000 0.000000
vn 1.000000 0.000000 0.000000
vn 0.000000 1.000000 0.000000
vn 0.000000 1.000000 0.000000
vn 0.000000 1.000000 0.000000
vn 0.000000 1.000000 0.000000
vn -1.000000 0.000000 0.000000
vn -1.000000 0.000000 0.000000
vn -1.000000 0.000000 0.000000
vn 1.000000 0.000000 0.000000
vn 1.000000 0.000000 0.000000
vn 1.000000 0.000000 0.000000
vn 0.000000 0.244295 0.969701
vn 0.000000 0.244295 0.969701
vn 0.000000 0.244295 0.969701
vn 0.000000 0.244295 0.969701
vn 1.000000 -0.000000 0.000000
vn 1.000000 -0.000000 0.000000
vn 1.000000 -0.000000 0.000000
vn 1.000000 -0.000000 0.000000
vn 0.000000 0.244295 -0.969701
vn 0.000000 0.244295 -0.969701
vn 0.000000 0.244295 -0.969701
vn 0.000000 0.244295 -0.969701
vn -1.000000 -0.000000 0.000000
vn -1.000000 -0.000000 0.000000
vn -1.000000 -0.000000 0.000000
vn -1.000000 -0.000000 0.000000
vn 0.000000 0.000000 1.000000
vn 0.000000 0.000000 1.000000
vn 0.000000 0.000000 1.000000
vn 0.000000 0.000000 1.000000
vn 0.000000 1.000000 0.000000
vn 0.000000 1.000000 0.000000
vn 0.000000 1.000000 0.000000
vn 0.000000 1.000000 0.000000
vn 0.000000 -1.000000 0.000000
vn 0.000000 -1.000000 0.000000
vn 0.000000 -1.000000 0.000000
vn 0.000000 -1.000000 0.000000
vn 1.000000 0.000000 0.000000
vn 1.000000 0.000000 0.000000
vn 1.000000 0.000000 0.000000
vn 1.000000 0.000000 0.000000
vn -1.000000 0.000000 0.000000
vn -1.000000 0.000000 0.000000
vn -1.000000 0.000000 0.000000
vn -1.000000 0.000000 0.000000
vn 0.000000 1.000000 0.000000
vn 0.000000 1.000000 0.000000
vn 0.000000 1.000000 0.000000
vn 0.000000 1.000000 0.000000
vn -1.000000 -0.000000 0.000000
vn -1.000000 -0.000000 0.000000
vn -1.000000 0.000000 0.000000
vn 1.000000 -0.000000 0.000000
vn 1.000000 -0.000000 0.000000
vn 1.000000 0.000000 0.000000
vn 0.000000 1.000000 0.000000
vn 0.000000 1.000000 0.000000
vn 0.000000 1.000000 0.000000
vn 0.000000 1.000000 0.000000
vn -1.000000 -0.000000 0.000000
vn -1.000000 -0.000000 0.000000
vn -1.000000 -0.000000 0.000000
vn -1.000000 -0.000000 0.000000
vn 0.000000 -1.000000 0.000000
vn 0.000000 -1.000000 0.000000
vn 0.000000 -1.000000 0.000000
vn 0.000000 -1.000000 0.000000
vn 1.000000 -0.000000 0.000000
vn 1.000000 -0.000000 0.000000
vn 1.000000 -0.000000 0.000000
vn 1.000000 -0.000000 0.000000
vn 0.000000 1.000000 0.000000
vn 0.000000 1.000000 0.000000
vn 0.000000 1.000000 0.000000
vn 0.000000 1.000000 0.000000
vn -1.000000 -0.000000 0.000000
vn -1.000000 0.000000 0.000000
vn -1.000000 -0.000000 0.000000
vn 1.000000 0.000000 0.000000
vn 1.000000 -0.000000 0.000000
vn 1.000000 -0.000000 0.000000
vn 0.000000 1.000000 0.000000
vn 0.000000 1.000000 0.000000
vn 0.000000 1.000000 0.000000
vn 0.000000 1.000000 0.000000
vn -1.000000 -0.000000 0.000000
vn -1.000000 0.000000 0.000000
vn -1.000000 0.000000 0.000000
vn -1.000000 0.000000 0.000000
vn 0.000000 -1.000000 0.000000
vn 0.000000 -1.000000 0.000000
vn 0.000000 -1.000000 0.000000
vn 0.000000 -1.000000 0.000000
vn 1.000000 0.000000 0.000000
vn 1.000000 0.000000 0.000000
vn 1.000000 -0.000000 0.000000
vn 1.000000 0.000000 0.000000
vn 0.000000 1.000000 0.000000
vn 0.000000 1.000000 0.000000
vn 0.000000 1.000000 0.000000
vn 0.000000 1.000000 0.000000
vn -1.000000 0.000000 0.000000
vn -1.000000 0.000000 0.000000
vn -1.000000 0.000000 0.000000
vn 1.000000 0.000000 0.000000
vn 1.000000 0.000000 0.000000
vn 1.000000 0.000000 0.000000
vn 0.000000 1.000000 0.000000
vn 0.000000 1.000000 0.000000
vn 0.000000 1.000000 0.000000
vn 0.000000 1.000000 0.000000
vn -1.000000 0.000000 0.000000
vn -1.000000 0.000000 0.000000
vn -1.000000 0.000000 0.000000
vn -1.000000 0.000000 0.000000
vn 0.000000 -1.000000 0.000000
vn 0.000000 -1.000000 0.000000
vn 0.000000 -1.000000 0.000000
vn 0.000000 -1.000000 0.000000
vn 1.000000 0.000000 0.000000
vn 1.000000 0.000000 0.000000
vn 1.000000 0.000000 0.000000
vn 1.000000 0.000000 0.000000
vn 0.000000 1.000000 0.000000
vn 0.000000 1.000000 0.000000
vn 0.000000 1.000000 0.000000
vn 0.000000 1.000000 0.000000
vn -1.000000 0.000000 0.000000
vn -1.000000 0.000000 0.000000
vn -1.000000 0.000000 0.000000
vn 1.000000 0.000000 0.000000
vn 1.000000 0.000000 0.000000
vn 1.000000 0.000000 0.000000
vn 0.000000 0.244297 0.969700
vn 0.000000 0.244297 0.969700
vn 0.000000 0.244297 0.969700
vn 0.000000 0.244297 0.969700
vn 1.000000 0.000000 0.000000
vn 1.000000 0.000000 0.000000
vn 1.000000 0.000000 0.000000
vn 1.000000 0.000000 0.000000
vn 0.000000 0.244297 -0.969700
vn 0.000000 0.244297 -0.969700
vn 0.000000 0.244297 -0.969700
vn 0.000000 0.244297 -0.969700
vn -1.000000 0.000000 0.000000
vn -1.000000 0.000000 0.000000
vn -1.000000 0.000000 0.000000
vn -1.000000 0.000000 0.000000
vn 0.000000 0.244295 0.969701
vn 0.000000 0.244295 0.969701
vn 0.000000 0.244295 0.969701
vn 0.000000 0.244295 0.969701
vn 1.000000 -0.000000 0.000000
vn 1.000000 -0.000000 0.000000
vn 1.000000 -0.000000 0.000000
vn 1.000000 -0.000000 0.000000
vn 0.000000 0.244295 -0.969701
vn 0.000000 0.244295 -0.969701
vn 0.000000 0.244295 -0.969701
vn 0.000000 0.244295 -0.969701
vn -1.000000 -0.000000 0.000000
vn -1.000000 -0.000000 0.000000
vn -1.000000 -0.000000 0.000000
vn -1.000000 -0.000000 0.000000
vn 0.000000 0.244293 0.969702
vn 0.000000 0.244293 0.969702
vn 0.000000 0.244293 0.969702
vn 0.000000 0.244293 0.969702
vn 1.000000 0.000000 0.000000
vn 1.000000 0.000000 0.000000
vn 1.000000 0.000000 0.000000
vn 1.000000 0.000000 0.000000
vn 0.000000 0.244300 -0.969700
vn 0.000000 0.244300 -0.969700
vn 0.000000 0.244300 -0.969700
vn 0.000000 0.244300 -0.969700
vn -1.000000 0.000000 0.000000
vn -1.000000 0.000000 0.000000
vn -1.000000 0.000000 0.000000
vn -1.000000 0.000000 0.000000
vn 0.000000 0.244293 0.969702
vn 0.000000 0.244293 0.969702
vn 0.000000 0.244293 0.969702
vn 0.000000 0.244293 0.969702
vn 1.000000 0.000000 0.000000
vn 1.000000 0.000000 0.000000
vn 1.000000 0.000000 0.000000
vn 1.000000 0.000000 0.000000
vn 0.000000 0.244300 -0.969700
vn 0.000000 0.244300 -0.969700
vn 0.000000 0.244300 -0.969700
vn 0.000000 0.244300 -0.969700
vn -1.000000 0.000000 0.000000
vn -1.000000 0.000000 0.000000
vn -1.000000 0.000000 0.000000
vn -1.000000 0.000000 0.000000
vn 0.000000 0.000000 -1.000000
vn 0.000000 0.000000 -1.000000
vn 0.000000 0.000000 -1.000000
vn 0.000000 0.000000 -1.000000
s off
f 3/1/1 4/2/2 13/3/3 14/4/4
f 11/5/5 12/6/6 2/7/7 1/8/8
f 2/9/9 12/10/10 13/11/11 4/2/12
f 11/12/13 1/13/14 3/1/15 14/14/16
f 10/21/17 9/22/18 7/23/19 8/24/20
f 5/15/21 11/12/22 10/25/23 8/19/24
f 5/17/25 6/16/26 12/6/27 11/5/28
f 9/26/29 12/10/30 6/18/31 7/20/32
f 16/27/33 15/28/34 17/29/35 18/30/36
f 11/12/37 14/14/38 10/25/39
f 13/11/40 12/10/41 9/26/42
f 14/4/43 13/3/44 15/28/45 16/27/46
f 13/3/47 9/22/48 17/29/49 15/28/50
f 9/22/51 10/21/52 18/30/53 17/29/54
f 10/21/55 14/4/56 16/27/57 18/30/58
f 19/31/59 20/32/60 22/33/61 21/34/62
f 21/34/63 22/33/64 41/35/65 42/36/66
f 39/37/67 40/38/68 20/39/69 19/40/70
f 20/32/71 40/41/72 41/42/73 22/33/74
f 39/43/75 19/31/76 21/34/77 42/44/78
f 44/45/79 43/46/80 45/47/81 46/48/82
f 1/49/83 24/50/84 3/51/85
f 23/54/86 2/55/87 4/56/88
f 26/57/89 25/58/90 23/59/91 24/60/92
f 1/49/93 27/61/94 26/62/95 24/50/96
f 1/52/97 2/53/98 28/63/99 27/64/100
f 25/65/101 28/66/102 2/55/103 23/54/104
f 48/67/105 47/68/106 49/69/107 50/70/108
f 27/61/109 30/71/110 26/62/111
f 29/72/112 28/66/113 25/65/114
f 32/73/115 31/74/116 29/75/117 30/76/118
f 27/61/119 33/77/120 32/78/121 30/71/122
f 27/64/123 28/63/124 34/79/125 33/80/126
f 31/81/127 34/82/128 28/66/129 29/72/130
f 52/83/131 51/84/132 53/85/133 54/86/134
f 33/77/135 36/87/136 32/78/137
f 35/88/138 34/82/139 31/81/140
f 38/89/141 37/90/142 35/91/143 36/92/144
f 33/77/145 39/43/146 38/93/147 36/87/148
f 33/80/149 34/79/150 40/38/151 39/37/152
f 37/94/153 40/41/154 34/82/155 35/88/156
f 56/95/157 55/96/158 57/97/159 58/98/160
f 39/43/161 42/44/162 38/93/163
f 41/42/164 40/41/165 37/94/166
f 24/60/167 23/59/168 43/46/169 44/45/170
f 23/59/171 4/99/172 45/47/173 43/46/174
f 4/99/175 3/100/176 46/48/177 45/47/178
f 3/100/179 24/60/180 44/45/181 46/48/182
f 30/76/183 29/75/184 47/68/185 48/67/186
f 29/75/187 25/58/188 49/69/189 47/68/190
f 25/58/191 26/57/192 50/70/193 49/69/194
f 26/57/195 30/76/196 48/67/197 50/70/198
f 36/92/199 35/91/200 51/84/201 52/83/202
f 35/91/203 31/74/204 53/85/205 51/84/206
f 31/74/207 32/73/208 54/86/209 53/85/210
f 32/73/211 36/92/212 52/83/213 54/86/214
f 42/36/215 41/35/216 55/96/217 56/95/218
f 41/35/219 37/90/220 57/97/221 55/96/222
f 37/90/223 38/89/224 58/98/225 57/97/226
f 38/89/227 42/36/228 56/95/229 58/98/230
f 6/16/231 5/15/232 8/24/233 7/20/234
