# This file uses meters as units for non-parametric coordinates.

v 0.474937 -2.037273 -0.822609
v -0.474937 -2.037273 -0.822609
v -0.949874 -2.037273 0.000000
v -0.474937 -2.037273 0.822617
v 0.474937 -2.037273 0.822617
v 0.949874 -2.037273 0.000000
v 0.463165 1.138897 -0.802231
v -0.463164 1.138897 -0.802231
v -0.926329 1.138897 0.000000
v -0.463164 1.138897 0.802231
v 0.463164 1.138897 0.802231
v 0.926329 1.138897 0.000000
v -0.474937 -1.649960 0.822617
v 0.474937 -1.649960 0.822617
v 0.949874 -1.649960 0.000000
v 0.474937 -1.649960 -0.822609
v -0.474937 -1.649960 -0.822609
v -0.949874 -1.649960 0.000000
v -0.372849 -1.535374 -0.645798
v 0.372850 -1.535374 -0.645798
v 0.745699 -1.535374 0.000000
v 0.372850 -1.535374 0.645782
v -0.372850 -1.535374 0.645782
v -0.745699 -1.535374 0.000000
v -0.463164 -1.404057 -0.802231
v 0.463165 -1.404057 -0.802231
v 0.926329 -1.404057 0.000000
v 0.463164 -1.404057 0.802231
v -0.463164 -1.404057 0.802231
v -0.926329 -1.404057 0.000000
v -0.463164 1.001171 -0.802231
v 0.463165 1.001171 -0.802231
v 0.926329 1.001171 0.000000
v 0.463164 1.001171 0.802231
v -0.463164 1.001171 0.802231
v -0.926329 1.001171 0.000000
v 0.429347 1.729935 -0.743652
v -0.429347 1.729935 -0.743652
v -0.858693 1.729935 0.000000
v -0.429347 1.729935 0.743660
v 0.429347 1.729935 0.743660
v 0.858693 1.729935 0.000000
v -0.404403 1.070026 -0.700439
v 0.404403 1.070026 -0.700439
v 0.808806 1.070026 0.000000
v 0.404403 1.070026 0.700447
v -0.404403 1.070026 0.700447
v -0.808806 1.070026 0.000000
v -0.463164 -0.294254 0.802231
v 0.463164 -0.294254 0.802231
v 0.926329 -0.294254 0.000000
v 0.463165 -0.294254 -0.802231
v -0.463164 -0.294254 -0.802231
v -0.926329 -0.294254 0.000000
v -0.463164 -1.023613 0.802231
v 0.463164 -1.023613 0.802231
v 0.926329 -1.023613 0.000000
v 0.463165 -1.023613 -0.802231
v -0.463164 -1.023613 -0.802231
v -0.926329 -1.023613 0.000000
v 0.283028 -2.037273 -0.490219
v -0.283027 -2.037273 -0.490219
v 0.000000 -2.037273 0.000000
v -0.566055 -2.037273 0.000000
v -0.283028 -2.037273 0.490211
v 0.283027 -2.037273 0.490211
v 0.566055 -2.037273 0.000000
v 0.149183 2.037277 -0.258392
v -0.149183 2.037277 -0.258392
v 0.000000 2.037277 0.000000
v -0.298367 2.037277 0.000000
v -0.149183 2.037277 0.258385
v 0.149183 2.037277 0.258385
v 0.298367 2.037277 0.000000
v -0.463164 1.633953 0.802231
v 0.463164 1.633953 0.802231
v 0.926329 1.633953 0.000000
v 0.463165 1.633953 -0.802231
v -0.463164 1.633953 -0.802231
v -0.926329 1.633953 0.000000
vt 0.244246 0.301189
vt 0.244246 0.301189
vt 0.244246 0.301189
vt 0.244246 0.301189
vt 0.244246 0.301189
vt 0.244246 0.301189
vt 0.244246 0.301189
vt 0.244246 0.301189
vt 0.244246 0.301189
vt 0.244246 0.301189
vt 0.244246 0.301189
vt 0.244246 0.301189
vt 0.244246 0.301189
vt 0.246389 0.231510
vt 0.246389 0.231510
vt 0.246389 0.231510
vt 0.246389 0.231510
vt 0.246389 0.231510
vt 0.246389 0.231510
vt 0.246389 0.231510
vt 0.245960 0.228649
vt 0.246389 0.231510
vt 0.244246 0.301189
vt 0.244246 0.301189
vt 0.244246 0.301189
vt 0.244246 0.301189
vt 0.244246 0.301189
vt 0.244246 0.301189
vt 0.244246 0.301189
vt 0.244246 0.301189
vt 0.244246 0.301189
vt 0.244246 0.301189
vt 0.244246 0.301189
vt 0.246389 0.231510
vt 0.246389 0.231510
vt 0.246389 0.231510
vt 0.246389 0.231510
vt 0.246389 0.231510
vt 0.246389 0.231510
vt 0.246389 0.231510
vt 0.246389 0.231510
vt 0.246464 0.305210
vt 0.246464 0.305210
vt 0.993821 0.298822
vt 0.993821 0.298822
vt 0.993821 0.298822
vt 0.993821 0.298822
vt 0.993821 0.298822
vt 0.993821 0.298822
vt 0.993821 0.298822
vt 0.993821 0.298822
vt 0.993821 0.298822
vt 0.993821 0.298822
vt 0.993821 0.298822
vt 0.993821 0.298822
vt 0.993821 0.298822
vt 0.993821 0.298822
vt 0.246389 0.231510
vt 0.246389 0.231510
vt 0.246389 0.231510
vt 0.246389 0.231510
vt 0.246389 0.231510
vt 0.244864 0.304676
vt 0.244864 0.304676
vt 0.244864 0.304676
vt 0.244864 0.304676
vt 0.244864 0.304676
vt 0.244864 0.304676
vt 0.993807 0.304543
vt 0.993807 0.304543
vt 0.244864 0.304676
vt 0.244864 0.304676
vt 0.993807 0.304543
vt 0.244864 0.304676
vt 0.993807 0.304543
vt 0.244864 0.304676
vt 0.993807 0.304543
vt 0.244864 0.304676
vt 0.993807 0.304543
vt 0.244864 0.304676
vt 0.246464 0.305210
vt 0.246464 0.305210
vt 0.246464 0.305210
vt 0.246464 0.305210
vt 0.246464 0.305210
vt 0.246464 0.305210
vt 0.246464 0.305210
vt 0.246464 0.305210
vt 0.246464 0.305210
vt 0.246464 0.305210
vt 0.993821 0.298822
vt 0.993821 0.298822
vt 0.993821 0.298822
vt 0.993821 0.298822
vt 0.993821 0.298822
vt 0.993821 0.298822
vt 0.993821 0.298822
vt 0.993821 0.298822
vt 0.993821 0.298822
vt 0.993821 0.298822
vt 0.993821 0.298822
vt 0.993821 0.298822
vt 0.993821 0.298822
vt 0.993821 0.298822
vt 0.050219 0.214507
vt 0.050219 0.214507
vt 0.050219 0.214507
vt 0.050219 0.214507
vt 0.050219 0.214507
vt 0.050219 0.214507
vt 0.050219 0.214507
vt 0.050219 0.214507
vt 0.050219 0.214507
vt 0.050219 0.214507
vt 0.050219 0.214507
vt 0.050219 0.214507
vt 0.246389 0.231510
vt 0.246389 0.231510
vt 0.246389 0.231510
vt 0.246389 0.231510
vt 0.993807 0.304543
vt 0.993807 0.304543
vt 0.245960 0.228649
vt 0.245960 0.228649
vt 0.245960 0.228649
vt 0.245960 0.228649
vt 0.245960 0.228649
vt 0.245960 0.228649
vt 0.993807 0.304543
vt 0.993807 0.304543
vt 0.993807 0.304543
vt 0.993807 0.304543
vn 0.000000 0.237422 -0.971407
vn 0.000000 0.237422 -0.971407
vn 0.000000 0.103674 -0.994611
vn 0.000000 0.103674 -0.994611
vn -0.841258 0.237438 -0.485704
vn -0.841259 0.237433 -0.485704
vn -0.861357 0.103701 -0.497304
vn -0.861358 0.103691 -0.497304
vn -0.841259 0.237439 0.485701
vn -0.841261 0.237433 0.485702
vn -0.861355 0.103706 0.497306
vn -0.861354 0.103713 0.497305
vn 0.000000 0.237457 0.971398
vn 0.000000 0.237457 0.971398
vn 0.000000 0.103703 0.994608
vn 0.000000 0.103703 0.994608
vn 0.841261 0.237433 0.485702
vn 0.841259 0.237439 0.485701
vn 0.861354 0.103713 0.497306
vn 0.861355 0.103706 0.497306
vn 0.841259 0.237433 -0.485704
vn 0.841258 0.237438 -0.485703
vn 0.861358 0.103691 -0.497303
vn 0.861357 0.103701 -0.497303
vn 0.000000 -1.000000 0.000000
vn 0.000000 -1.000000 0.000000
vn 0.000000 -1.000000 0.000000
vn 0.000000 -1.000000 -0.000000
vn 0.000000 -1.000000 0.000000
vn 0.000000 -1.000000 0.000000
vn 0.000000 -1.000000 0.000000
vn 0.000000 -1.000000 -0.000000
vn 0.000000 -1.000000 0.000000
vn 0.000000 -1.000000 0.000000
vn 0.000000 -1.000000 0.000000
vn 0.000000 -1.000000 0.000000
vn 0.000000 -1.000000 0.000000
vn 0.000000 -1.000000 0.000000
vn 0.000000 -1.000000 0.000000
vn 0.000000 -1.000000 0.000000
vn 0.000000 -1.000000 0.000000
vn 0.000000 -1.000000 0.000000
vn 0.000000 1.000000 0.000000
vn 0.000000 1.000000 0.000000
vn 0.000000 1.000000 0.000000
vn 0.000000 1.000000 0.000000
vn 0.000000 1.000000 0.000000
vn 0.000000 1.000000 0.000000
vn 0.000000 1.000000 0.000000
vn 0.000000 1.000000 0.000000
vn 0.000000 1.000000 0.000000
vn 0.000000 1.000000 0.000000
vn 0.000000 1.000000 0.000000
vn 0.000000 1.000000 0.000000
vn 0.000000 1.000000 0.000000
vn 0.000000 1.000000 0.000000
vn 0.000000 1.000000 0.000000
vn 0.000000 1.000000 0.000000
vn 0.000000 1.000000 0.000000
vn 0.000000 1.000000 0.000000
vn 0.000000 0.000000 1.000000
vn 0.000000 0.000000 1.000000
vn 0.000000 0.237457 0.971398
vn 0.000000 0.237457 0.971398
vn 0.866026 0.000000 0.499999
vn 0.866026 0.000000 0.499999
vn 0.841259 0.237439 0.485701
vn 0.841261 0.237433 0.485702
vn 0.866024 0.000000 -0.500003
vn 0.866024 0.000000 -0.500003
vn 0.841258 0.237438 -0.485703
vn 0.841259 0.237433 -0.485704
vn 0.000000 0.000000 -1.000000
vn 0.000000 0.000000 -1.000000
vn 0.000000 0.237422 -0.971407
vn 0.000000 0.237422 -0.971407
vn -0.866024 0.000000 -0.500003
vn -0.866024 0.000000 -0.500003
vn -0.841259 0.237433 -0.485704
vn -0.841258 0.237438 -0.485704
vn -0.866026 0.000000 0.499999
vn -0.866026 0.000000 0.499999
vn -0.841261 0.237433 0.485702
vn -0.841259 0.237439 0.485701
vn 0.000000 0.103674 -0.994611
vn 0.000000 0.103674 -0.994611
vn 0.000000 -0.216656 -0.976248
vn 0.000000 -0.216656 -0.976248
vn 0.861357 0.103701 -0.497303
vn 0.861358 0.103691 -0.497303
vn 0.845459 -0.216650 -0.488122
vn 0.845458 -0.216652 -0.488121
vn 0.861355 0.103706 0.497306
vn 0.861354 0.103713 0.497306
vn 0.845457 -0.216656 0.488122
vn 0.845458 -0.216648 0.488123
vn 0.000000 0.103703 0.994608
vn 0.000000 0.103703 0.994608
vn 0.000000 -0.216679 0.976243
vn 0.000000 -0.216679 0.976243
vn -0.861354 0.103713 0.497305
vn -0.861355 0.103706 0.497306
vn -0.845459 -0.216647 0.488123
vn -0.845457 -0.216656 0.488122
vn -0.861358 0.103691 -0.497304
vn -0.861357 0.103701 -0.497304
vn -0.845458 -0.216652 -0.488122
vn -0.845458 -0.216650 -0.488122
vn 0.000000 0.000000 -1.000000
vn 0.000000 0.000000 -1.000000
vn 0.000000 0.000000 -1.000000
vn 0.000000 0.000000 -1.000000
vn 0.866027 0.000000 -0.499997
vn 0.866027 0.000000 -0.499997
vn 0.866027 0.000000 -0.499997
vn 0.866027 0.000000 -0.499997
vn 0.866027 0.000000 0.499997
vn 0.866027 0.000000 0.499997
vn 0.866027 0.000000 0.499997
vn 0.866027 0.000000 0.499997
vn 0.000000 0.000000 1.000000
vn 0.000000 0.000000 1.000000
vn 0.000000 0.000000 1.000000
vn 0.000000 0.000000 1.000000
vn -0.866027 0.000000 0.499997
vn -0.866027 0.000000 0.499997
vn -0.866027 0.000000 0.499997
vn -0.866027 0.000000 0.499997
vn -0.866027 0.000000 -0.499997
vn -0.866027 0.000000 -0.499997
vn -0.866027 0.000000 -0.499997
vn -0.866027 0.000000 -0.499997
vn 0.000000 0.080294 -0.996771
vn 0.000000 0.080294 -0.996771
vn 0.000000 0.520952 -0.853586
vn 0.000000 0.520952 -0.853586
vn -0.863231 0.080288 -0.498383
vn -0.863231 0.080290 -0.498383
vn -0.739239 0.520931 -0.426798
vn -0.739239 0.520931 -0.426798
vn -0.863232 0.080287 0.498383
vn -0.863232 0.080288 0.498383
vn -0.739247 0.520918 0.426800
vn -0.739247 0.520918 0.426800
vn 0.000000 0.080283 0.996772
vn 0.000000 0.080283 0.996772
vn 0.000000 0.520902 0.853617
vn 0.000000 0.520902 0.853617
vn 0.863231 0.080288 0.498383
vn 0.863232 0.080287 0.498383
vn 0.739247 0.520919 0.426800
vn 0.739247 0.520919 0.426800
vn 0.863231 0.080290 -0.498383
vn 0.863231 0.080288 -0.498383
vn 0.739239 0.520931 -0.426797
vn 0.739239 0.520931 -0.426797
vn 0.252731 0.862836 -0.437768
vn -0.252731 0.862836 -0.437768
vn -0.252748 0.862836 -0.437758
vn 0.252748 0.862836 -0.437758
vn -0.252772 -0.862787 -0.437841
vn 0.252772 -0.862787 -0.437841
vn 0.252789 -0.862787 -0.437831
vn -0.252789 -0.862787 -0.437831
vn 0.505507 0.862823 -0.000000
vn 0.252731 0.862836 -0.437768
vn 0.252748 0.862836 -0.437758
vn 0.505507 0.862823 -0.000000
vn 0.252772 -0.862787 -0.437841
vn 0.505590 -0.862774 0.000000
vn 0.505590 -0.862774 -0.000000
vn 0.252789 -0.862787 -0.437831
vn 0.252746 0.862826 0.437779
vn 0.505507 0.862823 -0.000000
vn 0.505507 0.862823 -0.000000
vn 0.252754 0.862826 0.437775
vn 0.505590 -0.862774 0.000000
vn 0.252788 -0.862777 0.437852
vn 0.252796 -0.862777 0.437847
vn 0.505590 -0.862774 -0.000000
vn -0.252746 0.862826 0.437780
vn 0.252746 0.862826 0.437779
vn 0.252754 0.862826 0.437775
vn -0.252754 0.862826 0.437775
vn 0.252788 -0.862777 0.437852
vn -0.252788 -0.862777 0.437852
vn -0.252796 -0.862777 0.437847
vn 0.252796 -0.862777 0.437847
vn -0.505507 0.862822 -0.000000
vn -0.252746 0.862826 0.437780
vn -0.252754 0.862826 0.437775
vn -0.505507 0.862822 -0.000000
vn -0.252788 -0.862777 0.437852
vn -0.505590 -0.862774 -0.000000
vn -0.505590 -0.862774 -0.000000
vn -0.252796 -0.862777 0.437847
vn -0.252731 0.862836 -0.437768
vn -0.505507 0.862822 -0.000000
vn -0.505507 0.862822 -0.000000
vn -0.252748 0.862836 -0.437758
vn -0.505590 -0.862774 -0.000000
vn -0.252772 -0.862787 -0.437841
vn -0.252789 -0.862787 -0.437831
vn -0.505590 -0.862774 -0.000000
vn 0.000000 0.000000 1.000000
vn 0.000000 0.000000 1.000000
vn 0.000000 0.000000 1.000000
vn 0.000000 0.000000 1.000000
vn 0.866027 0.000000 0.499997
vn 0.866027 0.000000 0.499997
vn 0.866027 0.000000 0.499997
vn 0.866027 0.000000 0.499997
vn 0.866027 0.000000 -0.499997
vn 0.866027 0.000000 -0.499997
vn 0.866027 0.000000 -0.499997
vn 0.866027 0.000000 -0.499997
vn 0.000000 0.000000 -1.000000
vn 0.000000 0.000000 -1.000000
vn 0.000000 0.000000 -1.000000
vn 0.000000 0.000000 -1.000000
vn -0.866027 -0.000000 -0.499997
vn -0.866027 -0.000000 -0.499997
vn -0.866027 0.000000 -0.499997
vn -0.866027 0.000000 -0.499997
vn -0.866027 0.000000 0.499997
vn -0.866027 0.000000 0.499997
vn -0.866027 0.000000 0.499997
vn -0.866027 0.000000 0.499997
vn 0.000000 -0.216679 0.976243
vn 0.000000 -0.216679 0.976243
vn 0.000000 0.000000 1.000000
vn 0.000000 0.000000 1.000000
vn 0.845458 -0.216648 0.488123
vn 0.845457 -0.216656 0.488122
vn 0.866027 0.000000 0.499997
vn 0.866027 0.000000 0.499997
vn 0.845458 -0.216652 -0.488121
vn 0.845459 -0.216650 -0.488122
vn 0.866027 0.000000 -0.499997
vn 0.866027 0.000000 -0.499997
vn 0.000000 -0.216656 -0.976248
vn 0.000000 -0.216656 -0.976248
vn 0.000000 0.000000 -1.000000
vn 0.000000 0.000000 -1.000000
vn -0.845458 -0.216650 -0.488122
vn -0.845458 -0.216652 -0.488122
vn -0.866027 -0.000000 -0.499997
vn -0.866027 -0.000000 -0.499997
vn -0.845457 -0.216656 0.488122
vn -0.845459 -0.216647 0.488123
vn -0.866027 0.000000 0.499997
vn -0.866027 0.000000 0.499997
vn 0.000000 -1.000000 -0.000000
vn 0.000000 -1.000000 -0.000000
vn 0.000000 -1.000000 -0.000000
vn 0.000000 -1.000000 -0.000000
vn 0.000000 -1.000000 0.000000
vn 0.000000 -1.000000 0.000000
vn 0.000000 -1.000000 0.000000
vn 0.000000 -1.000000 0.000000
vn 0.000000 -1.000000 0.000000
vn 0.000000 -1.000000 0.000000
vn 0.000000 -1.000000 0.000000
vn 0.000000 -1.000000 0.000000
vn 0.000000 -1.000000 -0.000000
vn 0.000000 -1.000000 -0.000000
vn 0.000000 -1.000000 -0.000000
vn 0.000000 -1.000000 -0.000000
vn 0.000000 -1.000000 0.000000
vn 0.000000 -1.000000 0.000000
vn 0.000000 -1.000000 0.000000
vn 0.000000 -1.000000 0.000000
vn 0.000000 -1.000000 -0.000000
vn 0.000000 -1.000000 -0.000000
vn 0.000000 -1.000000 -0.000000
vn 0.000000 -1.000000 -0.000000
vn 0.000000 0.844810 -0.535066
vn 0.000000 0.844810 -0.535066
vn 0.000000 0.844810 -0.535066
vn 0.000000 0.844810 -0.535066
vn -0.463382 0.844809 -0.267533
vn -0.463382 0.844809 -0.267533
vn -0.463382 0.844809 -0.267533
vn -0.463382 0.844809 -0.267533
vn -0.463380 0.844811 0.267532
vn -0.463380 0.844811 0.267532
vn -0.463380 0.844811 0.267532
vn -0.463380 0.844811 0.267532
vn 0.000000 0.844818 0.535054
vn 0.000000 0.844818 0.535054
vn 0.000000 0.844818 0.535054
vn 0.000000 0.844818 0.535054
vn 0.463380 0.844811 0.267532
vn 0.463380 0.844811 0.267532
vn 0.463380 0.844811 0.267532
vn 0.463380 0.844811 0.267532
vn 0.463382 0.844809 -0.267533
vn 0.463382 0.844809 -0.267533
vn 0.463382 0.844809 -0.267533
vn 0.463383 0.844809 -0.267533
vn 0.000000 0.000000 1.000000
vn 0.000000 0.000000 1.000000
vn 0.000000 0.080283 0.996772
vn 0.000000 0.080283 0.996772
vn 0.866027 0.000000 0.499997
vn 0.866027 0.000000 0.499997
vn 0.863232 0.080287 0.498383
vn 0.863231 0.080288 0.498383
vn 0.866027 0.000000 -0.499997
vn 0.866027 0.000000 -0.499997
vn 0.863231 0.080288 -0.498383
vn 0.863231 0.080290 -0.498383
vn 0.000000 0.000000 -1.000000
vn 0.000000 0.000000 -1.000000
vn 0.000000 0.080294 -0.996771
vn 0.000000 0.080294 -0.996771
vn -0.866027 0.000000 -0.499997
vn -0.866027 0.000000 -0.499997
vn -0.863231 0.080290 -0.498383
vn -0.863231 0.080288 -0.498383
vn -0.866027 0.000000 0.499997
vn -0.866027 0.000000 0.499997
vn -0.863232 0.080288 0.498383
vn -0.863232 0.080287 0.498383
s off
f 16/1/1 17/2/2 19/3/3 20/4/4
f 17/2/5 18/5/6 24/6/7 19/3/8
f 18/5/9 13/7/10 23/8/11 24/6/12
f 13/7/13 14/9/14 22/10/15 23/8/16
f 14/9/17 15/11/18 21/12/19 22/10/20
f 15/11/21 16/1/22 20/4/23 21/12/24
f 62/21/25 61/123/26 63/124/27
f 64/125/28 62/21/29 63/124/30
f 65/126/31 64/125/32 63/124/33
f 66/127/34 65/126/35 63/124/36
f 67/128/37 66/127/38 63/124/39
f 61/123/40 67/128/41 63/124/42
f 68/120/43 69/119/44 70/14/45
f 69/119/46 71/118/47 70/14/48
f 71/118/49 72/117/50 70/14/51
f 72/117/52 73/41/53 70/14/54
f 73/41/55 74/40/56 70/14/57
f 74/40/58 68/120/59 70/14/60
f 4/13/61 5/23/62 14/9/63 13/7/64
f 5/23/65 6/24/66 15/11/67 14/9/68
f 6/24/69 1/25/70 16/1/71 15/11/72
f 1/25/73 2/26/74 17/2/75 16/1/76
f 2/26/77 3/27/78 18/5/79 17/2/80
f 3/27/81 4/13/82 13/7/83 18/5/84
f 20/42/85 19/43/86 25/81/87 26/82/88
f 21/83/89 20/42/90 26/82/91 27/84/92
f 22/85/93 21/83/94 27/84/95 28/86/96
f 23/87/97 22/85/98 28/86/99 29/88/100
f 24/89/101 23/87/102 29/88/103 30/90/104
f 19/43/105 24/89/106 30/90/107 25/81/108
f 52/95/109 53/96/110 31/51/111 32/53/112
f 51/93/113 52/94/114 32/52/115 33/54/116
f 50/92/117 51/93/118 33/54/119 34/55/120
f 49/91/121 50/92/122 34/55/123 35/56/124
f 54/97/125 49/91/126 35/56/127 36/57/128
f 53/96/129 54/97/130 36/57/131 31/51/132
f 78/36/133 79/35/134 38/17/135 37/18/136
f 79/35/137 80/34/138 39/20/139 38/17/140
f 80/34/141 75/39/142 40/58/143 39/20/144
f 75/39/145 76/38/146 41/60/147 40/58/148
f 76/38/149 77/37/150 42/62/151 41/60/152
f 77/37/153 78/36/154 37/18/155 42/62/156
f 32/69/157 31/70/158 43/73/159 44/75/160
f 8/71/161 7/72/162 44/63/163 43/64/164
f 33/77/165 32/69/166 44/75/167 45/79/168
f 7/72/169 12/74/170 45/65/171 44/63/172
f 34/129/173 33/77/174 45/79/175 46/130/176
f 12/74/177 11/76/178 46/66/179 45/65/180
f 35/131/181 34/129/182 46/130/183 47/132/184
f 11/76/185 10/78/186 47/67/187 46/66/188
f 36/122/189 35/131/190 47/132/191 48/121/192
f 10/78/193 9/80/194 48/68/195 47/67/196
f 31/70/197 36/122/198 48/121/199 43/73/200
f 9/80/201 8/71/202 43/64/203 48/68/204
f 55/105/205 56/106/206 50/107/207 49/108/208
f 56/106/209 57/109/210 51/110/211 50/107/212
f 57/109/213 58/111/214 52/112/215 51/110/216
f 58/111/217 59/113/218 53/114/219 52/112/220
f 59/113/221 60/115/222 54/116/223 53/114/224
f 60/115/225 55/105/226 49/108/227 54/116/228
f 29/49/229 28/48/230 56/99/231 55/98/232
f 28/48/233 27/47/234 57/100/235 56/99/236
f 27/47/237 26/45/238 58/101/239 57/100/240
f 26/46/241 25/44/242 59/103/243 58/102/244
f 25/44/245 30/50/246 60/104/247 59/103/248
f 30/50/249 29/49/250 55/98/251 60/104/252
f 2/26/253 1/25/254 61/28/255 62/29/256
f 3/27/257 2/26/258 62/29/259 64/30/260
f 4/13/261 3/27/262 64/30/263 65/31/264
f 5/23/265 4/13/266 65/31/267 66/32/268
f 6/24/269 5/23/270 66/32/271 67/33/272
f 1/25/273 6/24/274 67/33/275 61/28/276
f 69/119/277 68/120/278 37/18/279 38/17/280
f 71/118/281 69/119/282 38/17/283 39/20/284
f 40/58/285 72/117/286 71/118/287 39/20/288
f 73/41/289 72/117/290 40/58/291 41/60/292
f 74/40/293 73/41/294 41/60/295 42/62/296
f 68/120/297 74/40/298 42/62/299 37/18/300
f 10/22/301 11/59/302 76/38/303 75/39/304
f 11/59/305 12/61/306 77/37/307 76/38/308
f 12/61/309 7/15/310 78/36/311 77/37/312
f 7/15/313 8/16/314 79/35/315 78/36/316
f 8/16/317 9/19/318 80/34/319 79/35/320
f 9/19/321 10/22/322 75/39/323 80/34/324
