# This file uses meters as units for non-parametric coordinates.

v 1.514723 -5.573288 5.775406
v 1.514723 -4.410049 5.775406
v 1.514723 -4.410049 -5.775406
v 1.514723 -5.573288 -5.775406
v 2.444487 -5.573288 -5.155701
v 2.444487 -5.573288 5.155701
v 2.444487 -4.410049 -5.155701
v 2.444487 -4.410049 5.155701
v 1.469314 -6.466629 -4.666000
v 1.469314 -6.466629 4.731552
v 1.318774 -3.919594 5.143280
v 1.318774 -3.919594 -5.143326
v 1.318774 1.200356 5.143280
v 1.318774 1.200356 -5.143326
v 1.318774 -0.977936 5.143280
v 1.318774 -0.977936 -5.143326
v 1.318774 -2.826431 3.745270
v 1.318774 -2.826431 -3.745316
v 1.318774 -1.170494 -3.745316
v 1.318774 -1.170494 3.745270
v 1.318774 -0.725548 -3.745316
v 1.318774 -0.725548 3.745270
v 1.318774 0.930367 -3.745316
v 1.318774 0.930367 3.745270
v 1.077527 -2.449661 3.387894
v 1.077527 -2.449661 -3.387894
v 1.077527 -1.547272 -3.387894
v 1.077527 -1.547272 3.387894
v 1.077527 -0.348770 -3.387894
v 1.077527 -0.348770 3.387894
v 1.077527 0.553589 -3.387894
v 1.077527 0.553589 3.387894
v 1.318774 6.466629 5.143280
v 1.318774 6.466629 -5.143326
v 1.318774 3.372269 5.143280
v 1.318774 3.372269 -5.143326
v 1.318774 1.523788 3.745270
v 1.318774 1.523788 -3.745316
v 1.318774 3.179718 -3.745316
v 1.318774 3.179718 3.745270
v 1.318774 3.624664 -3.745316
v 1.318774 3.624664 3.745270
v 1.318774 5.280579 -3.745316
v 1.318774 5.280579 3.745270
v 1.077527 1.900558 3.387894
v 1.077527 1.900558 -3.387894
v 1.077527 2.802940 -3.387894
v 1.077527 2.802940 3.387894
v 1.077527 4.001442 -3.387894
v 1.077527 4.001442 3.387894
v 1.077527 4.903801 -3.387894
v 1.077527 4.903801 3.387894
v -1.514723 -5.573288 5.775406
v -1.514723 -4.410049 5.775406
v -1.514723 -4.410049 -5.775406
v -1.514723 -5.573288 -5.775406
v -2.444487 -5.573288 -5.155701
v -2.444487 -5.573288 5.155701
v -2.444487 -4.410049 -5.155701
v -2.444487 -4.410049 5.155701
v -1.469314 -6.466629 -4.666000
v -1.469314 -6.466629 4.731552
v -1.318774 -3.919594 5.143280
v -1.318774 -3.919594 -5.143326
v -1.318774 1.200356 5.143280
v -1.318774 1.200356 -5.143326
v -1.318774 -0.977936 5.143280
v -1.318774 -0.977936 -5.143326
v -1.318774 -2.826431 3.745270
v -1.318774 -2.826431 -3.745316
v -1.318774 -1.170494 -3.745316
v -1.318774 -1.170494 3.745270
v -1.318774 -0.725548 -3.745316
v -1.318774 -0.725548 3.745270
v -1.318774 0.930367 -3.745316
v -1.318774 0.930367 3.745270
v -1.077527 -2.449661 3.387894
v -1.077527 -2.449661 -3.387894
v -1.077527 -1.547272 -3.387894
v -1.077527 -1.547272 3.387894
v -1.077527 -0.348770 -3.387894
v -1.077527 -0.348770 3.387894
v -1.077527 0.553589 -3.387894
v -1.077527 0.553589 3.387894
v -1.318774 6.466629 5.143280
v -1.318774 6.466629 -5.143326
v -1.318774 3.372269 5.143280
v -1.318774 3.372269 -5.143326
v -1.318774 1.523788 3.745270
v -1.318774 1.523788 -3.745316
v -1.318774 3.179718 -3.745316
v -1.318774 3.179718 3.745270
v -1.318774 3.624664 -3.745316
v -1.318774 3.624664 3.745270
v -1.318774 5.280579 -3.745316
v -1.318774 5.280579 3.745270
v -1.077527 1.900558 3.387894
v -1.077527 1.900558 -3.387894
v -1.077527 2.802940 -3.387894
v -1.077527 2.802940 3.387894
v -1.077527 4.001442 -3.387894
v -1.077527 4.001442 3.387894
v -1.077527 4.903801 -3.387894
v -1.077527 4.903801 3.387894
vt 0.243296 0.279509
vt 0.243296 0.279509
vt 0.243296 0.279509
vt 0.243296 0.279509
vt 0.243296 0.279509
vt 0.243296 0.279509
vt 0.243296 0.279509
vt 0.243296 0.279509
vt 0.243296 0.279509
vt 0.243296 0.279509
vt 0.243296 0.279509
vt 0.243296 0.279509
vt 0.243296 0.279509
vt 0.243296 0.279509
vt 0.243296 0.279509
vt 0.243296 0.279509
vt 0.243296 0.279509
vt 0.243296 0.279509
vt 0.236145 0.230882
vt 0.236145 0.230882
vt 0.453544 0.030640
vt 0.453544 0.030640
vt 0.453544 0.030640
vt 0.453544 0.030640
vt 0.236145 0.230882
vt 0.236145 0.230882
vt 0.236145 0.230882
vt 0.236145 0.230882
vt 0.453544 0.030640
vt 0.453544 0.030640
vt 0.453544 0.030640
vt 0.453544 0.030640
vt 0.236145 0.230882
vt 0.236145 0.230882
vt 0.236145 0.230882
vt 0.236145 0.230882
vt 0.236145 0.230882
vt 0.236145 0.230882
vt 0.236145 0.230882
vt 0.236145 0.230882
vt 0.236145 0.230882
vt 0.236145 0.230882
vt 0.236145 0.230882
vt 0.236145 0.230882
vt 0.236145 0.230882
vt 0.236145 0.230882
vt 0.236145 0.230882
vt 0.236145 0.230882
vt 0.236145 0.230882
vt 0.236145 0.230882
vt 0.453544 0.030640
vt 0.453544 0.030640
vt 0.453544 0.030640
vt 0.453544 0.030640
vt 0.236145 0.230882
vt 0.236145 0.230882
vt 0.236145 0.230882
vt 0.236145 0.230882
vt 0.453544 0.030640
vt 0.453544 0.030640
vt 0.453544 0.030640
vt 0.453544 0.030640
vt 0.236145 0.230882
vt 0.236145 0.230882
vt 0.236145 0.230882
vt 0.236145 0.230882
vt 0.236145 0.230882
vt 0.236145 0.230882
vt 0.236145 0.230882
vt 0.236145 0.230882
vt 0.236145 0.230882
vt 0.236145 0.230882
vt 0.236145 0.230882
vt 0.236145 0.230882
vt 0.236145 0.230882
vt 0.236145 0.230882
vt 0.236145 0.230882
vt 0.236145 0.230882
vt 0.243296 0.279509
vt 0.243296 0.279509
vt 0.243296 0.279509
vt 0.243296 0.279509
vt 0.243296 0.279509
vt 0.243296 0.279509
vt 0.243296 0.279509
vt 0.243296 0.279509
vt 0.243296 0.279509
vt 0.243296 0.279509
vt 0.243296 0.279509
vt 0.243296 0.279509
vt 0.243296 0.279509
vt 0.243296 0.279509
vt 0.243296 0.279509
vt 0.243296 0.279509
vt 0.243296 0.279509
vt 0.243296 0.279509
vt 0.236145 0.230882
vt 0.236145 0.230882
vt 0.453544 0.030640
vt 0.453544 0.030640
vt 0.453544 0.030640
vt 0.453544 0.030640
vt 0.236145 0.230882
vt 0.236145 0.230882
vt 0.236145 0.230882
vt 0.236145 0.230882
vt 0.453544 0.030640
vt 0.453544 0.030640
vt 0.453544 0.030640
vt 0.453544 0.030640
vt 0.236145 0.230882
vt 0.236145 0.230882
vt 0.236145 0.230882
vt 0.236145 0.230882
vt 0.236145 0.230882
vt 0.236145 0.230882
vt 0.236145 0.230882
vt 0.236145 0.230882
vt 0.236145 0.230882
vt 0.236145 0.230882
vt 0.236145 0.230882
vt 0.236145 0.230882
vt 0.236145 0.230882
vt 0.236145 0.230882
vt 0.236145 0.230882
vt 0.236145 0.230882
vt 0.236145 0.230882
vt 0.236145 0.230882
vt 0.453544 0.030640
vt 0.453544 0.030640
vt 0.453544 0.030640
vt 0.453544 0.030640
vt 0.236145 0.230882
vt 0.236145 0.230882
vt 0.236145 0.230882
vt 0.236145 0.230882
vt 0.453544 0.030640
vt 0.453544 0.030640
vt 0.453544 0.030640
vt 0.453544 0.030640
vt 0.236145 0.230882
vt 0.236145 0.230882
vt 0.236145 0.230882
vt 0.236145 0.230882
vt 0.236145 0.230882
vt 0.236145 0.230882
vt 0.236145 0.230882
vt 0.236145 0.230882
vt 0.236145 0.230882
vt 0.236145 0.230882
vt 0.236145 0.230882
vt 0.236145 0.230882
vt 0.236145 0.230882
vt 0.236145 0.230882
vt 0.236145 0.230882
vt 0.236145 0.230882
vt 0.235108 0.229965
vt 0.235108 0.229965
vt 0.235108 0.229965
vt 0.235108 0.229965
vn 1.000000 0.000000 0.000000
vn 1.000000 0.000000 0.000000
vn 1.000000 0.000000 0.000000
vn 1.000000 0.000000 0.000000
vn 0.554615 0.000000 -0.832107
vn 0.554615 0.000000 -0.832107
vn 0.554615 0.000000 -0.832107
vn 0.554615 0.000000 -0.832107
vn 0.554615 0.000000 0.832107
vn 0.554615 0.000000 0.832107
vn 0.554615 0.000000 0.832107
vn 0.554615 0.000000 0.832107
vn 0.000000 -0.759757 0.650208
vn 0.000000 -0.759757 0.650208
vn 0.000000 -0.759757 0.650208
vn 0.000000 -0.759757 0.650208
vn 0.380293 -0.727895 -0.570567
vn 0.380293 -0.727895 -0.570567
vn 0.380293 -0.727895 -0.570567
vn 0.675491 -0.737368 0.000000
vn 0.675491 -0.737368 0.000000
vn 0.675491 -0.737368 0.000000
vn 0.675491 -0.737368 0.000000
vn 0.392075 -0.707282 0.588243
vn 0.392075 -0.707282 0.588243
vn 0.392075 -0.707282 0.588243
vn 0.000000 0.790056 -0.613035
vn 0.000000 0.790056 -0.613035
vn 0.000000 0.790056 -0.613035
vn 0.000000 0.790056 -0.613035
vn 0.339130 0.791269 0.508807
vn 0.339130 0.791269 0.508807
vn 0.339130 0.791269 0.508807
vn 0.399422 0.916767 0.000000
vn 0.399422 0.916767 0.000000
vn 0.399422 0.916767 0.000000
vn 0.399422 0.916767 0.000000
vn 0.339142 0.791251 -0.508826
vn 0.339142 0.791251 -0.508826
vn 0.339142 0.791251 -0.508826
vn 1.000000 0.000000 0.000000
vn 1.000000 0.000000 0.000000
vn 1.000000 0.000000 0.000000
vn 1.000000 0.000000 0.000000
vn 0.000000 0.000000 -1.000000
vn 0.000000 0.000000 -1.000000
vn 0.000000 0.000000 -1.000000
vn 0.000000 0.000000 -1.000000
vn 0.000000 0.000000 -1.000000
vn 0.000000 0.000000 -1.000000
vn 0.000000 0.000000 -1.000000
vn 0.000000 0.000000 -1.000000
vn 1.000000 0.000000 0.000000
vn 1.000000 0.000000 0.000000
vn 1.000000 0.000000 0.000000
vn 1.000000 0.000000 0.000000
vn 1.000000 0.000000 0.000000
vn 1.000000 0.000000 0.000000
vn 1.000000 0.000000 0.000000
vn 1.000000 0.000000 0.000000
vn 1.000000 0.000000 0.000000
vn 1.000000 0.000000 0.000000
vn 1.000000 -0.000000 0.000000
vn 1.000000 0.000000 0.000000
vn 1.000000 0.000000 0.000000
vn 1.000000 0.000000 0.000000
vn 1.000000 -0.000000 0.000000
vn 1.000000 -0.000000 0.000000
vn 1.000000 0.000000 0.000000
vn 1.000000 0.000000 0.000000
vn 1.000000 0.000000 0.000000
vn 1.000000 -0.000000 0.000000
vn 1.000000 0.000000 0.000000
vn 1.000000 0.000000 0.000000
vn 1.000000 0.000000 0.000000
vn 1.000000 0.000000 0.000000
vn 1.000000 0.000000 0.000000
vn 1.000000 -0.000000 0.000000
vn 1.000000 -0.000000 0.000000
vn 1.000000 0.000000 0.000000
vn 1.000000 -0.000000 0.000000
vn 1.000000 -0.000000 0.000000
vn 1.000000 -0.000000 0.000000
vn 1.000000 -0.000000 0.000000
vn 1.000000 -0.000000 0.000000
vn 1.000000 0.000000 0.000000
vn 1.000000 0.000000 0.000000
vn 1.000000 -0.000000 0.000000
vn 0.842156 0.539235 0.000000
vn 0.842155 0.539235 0.000000
vn 0.842156 0.539235 0.000000
vn 0.842156 0.539235 0.000000
vn 0.828862 0.000000 0.559453
vn 0.828862 0.000000 0.559453
vn 0.828862 0.000000 0.559453
vn 0.828862 0.000000 0.559453
vn 0.842160 -0.539227 0.000000
vn 0.842160 -0.539227 0.000000
vn 0.842160 -0.539227 0.000000
vn 0.842160 -0.539227 0.000000
vn 0.828829 0.000000 -0.559502
vn 0.828829 0.000000 -0.559502
vn 0.828829 0.000000 -0.559502
vn 0.828829 0.000000 -0.559502
vn 0.842160 0.539227 0.000000
vn 0.842160 0.539227 0.000000
vn 0.842160 0.539227 0.000000
vn 0.842160 0.539227 0.000000
vn 0.828862 0.000000 0.559453
vn 0.828862 0.000000 0.559453
vn 0.828862 0.000000 0.559453
vn 0.828862 0.000000 0.559453
vn 0.842160 -0.539227 0.000000
vn 0.842160 -0.539227 0.000000
vn 0.842160 -0.539227 0.000000
vn 0.842160 -0.539227 0.000000
vn 0.828829 0.000000 -0.559502
vn 0.828829 0.000000 -0.559502
vn 0.828829 0.000000 -0.559502
vn 0.828829 0.000000 -0.559502
vn 1.000000 0.000000 0.000000
vn 1.000000 0.000000 0.000000
vn 1.000000 0.000000 0.000000
vn 1.000000 0.000000 0.000000
vn 0.000000 0.000000 -1.000000
vn 0.000000 0.000000 -1.000000
vn 0.000000 0.000000 -1.000000
vn 0.000000 0.000000 -1.000000
vn 0.000000 0.000000 -1.000000
vn 0.000000 0.000000 -1.000000
vn 0.000000 0.000000 -1.000000
vn 0.000000 0.000000 -1.000000
vn 1.000000 0.000000 0.000000
vn 1.000000 0.000000 0.000000
vn 1.000000 0.000000 0.000000
vn 1.000000 0.000000 0.000000
vn 1.000000 0.000000 0.000000
vn 1.000000 0.000000 0.000000
vn 1.000000 0.000000 0.000000
vn 1.000000 0.000000 0.000000
vn 1.000000 0.000000 0.000000
vn 1.000000 0.000000 0.000000
vn 1.000000 -0.000000 0.000000
vn 1.000000 0.000000 0.000000
vn 1.000000 0.000000 0.000000
vn 1.000000 0.000000 0.000000
vn 1.000000 -0.000000 0.000000
vn 1.000000 -0.000000 0.000000
vn 1.000000 0.000000 0.000000
vn 1.000000 0.000000 0.000000
vn 1.000000 0.000000 0.000000
vn 1.000000 -0.000000 0.000000
vn 1.000000 0.000000 0.000000
vn 1.000000 0.000000 0.000000
vn 1.000000 0.000000 0.000000
vn 1.000000 0.000000 0.000000
vn 1.000000 0.000000 0.000000
vn 1.000000 -0.000000 0.000000
vn 1.000000 -0.000000 0.000000
vn 1.000000 0.000000 0.000000
vn 1.000000 -0.000000 0.000000
vn 1.000000 -0.000000 0.000000
vn 1.000000 -0.000000 0.000000
vn 1.000000 -0.000000 0.000000
vn 1.000000 -0.000000 0.000000
vn 1.000000 0.000000 0.000000
vn 1.000000 0.000000 0.000000
vn 1.000000 -0.000000 0.000000
vn 0.842156 0.539235 0.000000
vn 0.842155 0.539235 0.000000
vn 0.842156 0.539235 0.000000
vn 0.842156 0.539235 0.000000
vn 0.828862 0.000000 0.559453
vn 0.828862 0.000000 0.559453
vn 0.828862 0.000000 0.559453
vn 0.828862 0.000000 0.559453
vn 0.842160 -0.539227 0.000000
vn 0.842160 -0.539227 0.000000
vn 0.842160 -0.539227 0.000000
vn 0.842160 -0.539227 0.000000
vn 0.828829 0.000000 -0.559502
vn 0.828829 0.000000 -0.559502
vn 0.828829 0.000000 -0.559502
vn 0.828829 0.000000 -0.559502
vn 0.842160 0.539227 0.000000
vn 0.842160 0.539227 0.000000
vn 0.842160 0.539227 0.000000
vn 0.842160 0.539227 0.000000
vn 0.828862 0.000000 0.559453
vn 0.828862 0.000000 0.559453
vn 0.828862 0.000000 0.559453
vn 0.828862 0.000000 0.559453
vn 0.842160 -0.539227 0.000000
vn 0.842160 -0.539227 0.000000
vn 0.842160 -0.539227 0.000000
vn 0.842160 -0.539227 0.000000
vn 0.828829 0.000000 -0.559502
vn 0.828829 0.000000 -0.559502
vn 0.828829 0.000000 -0.559502
vn 0.828829 0.000000 -0.559502
vn 0.000000 0.000000 1.000000
vn 0.000000 0.000000 1.000000
vn 0.000000 0.000000 1.000000
vn 0.000000 0.000000 1.000000
vn 0.000000 0.000000 -1.000000
vn 0.000000 0.000000 -1.000000
vn 0.000000 0.000000 -1.000000
vn 0.000000 0.000000 -1.000000
vn 0.000000 -1.000000 0.000000
vn 0.000000 -1.000000 0.000000
vn 0.000000 -1.000000 0.000000
vn 0.000000 -1.000000 0.000000
vn -1.000000 0.000000 0.000000
vn -1.000000 0.000000 0.000000
vn -1.000000 0.000000 0.000000
vn -1.000000 0.000000 0.000000
vn -0.554615 0.000000 -0.832107
vn -0.554615 0.000000 -0.832107
vn -0.554615 0.000000 -0.832107
vn -0.554615 0.000000 -0.832107
vn -0.554615 0.000000 0.832107
vn -0.554615 0.000000 0.832107
vn -0.554615 0.000000 0.832107
vn -0.554615 0.000000 0.832107
vn 0.000000 -0.778873 -0.627182
vn 0.000000 -0.778873 -0.627182
vn 0.000000 -0.778873 -0.627182
vn 0.000000 -0.778873 -0.627182
vn -0.380293 -0.727895 -0.570566
vn -0.380293 -0.727895 -0.570566
vn -0.380293 -0.727895 -0.570566
vn -0.675491 -0.737368 0.000000
vn -0.675491 -0.737368 0.000000
vn -0.675491 -0.737368 0.000000
vn -0.675491 -0.737368 0.000000
vn -0.392075 -0.707282 0.588243
vn -0.392075 -0.707282 0.588243
vn -0.392075 -0.707282 0.588243
vn 0.000000 0.790077 0.613007
vn 0.000000 0.790077 0.613007
vn 0.000000 0.790077 0.613007
vn 0.000000 0.790077 0.613007
vn -0.339130 0.791269 0.508807
vn -0.339130 0.791269 0.508807
vn -0.339130 0.791269 0.508807
vn -0.399422 0.916767 0.000000
vn -0.399422 0.916767 0.000000
vn -0.399422 0.916767 0.000000
vn -0.399422 0.916767 0.000000
vn -0.339142 0.791251 -0.508826
vn -0.339142 0.791251 -0.508826
vn -0.339142 0.791251 -0.508826
vn 0.000000 0.000000 1.000000
vn 0.000000 0.000000 1.000000
vn 0.000000 0.000000 1.000000
vn 0.000000 0.000000 1.000000
vn -1.000000 0.000000 0.000000
vn -1.000000 0.000000 0.000000
vn -1.000000 0.000000 0.000000
vn -1.000000 0.000000 0.000000
vn 0.000000 0.000000 1.000000
vn 0.000000 0.000000 1.000000
vn 0.000000 0.000000 1.000000
vn 0.000000 0.000000 1.000000
vn -1.000000 0.000000 0.000000
vn -1.000000 0.000000 0.000000
vn -1.000000 0.000000 0.000000
vn -1.000000 0.000000 0.000000
vn -1.000000 0.000000 0.000000
vn -1.000000 0.000000 0.000000
vn -1.000000 0.000000 0.000000
vn -1.000000 0.000000 0.000000
vn -1.000000 0.000000 0.000000
vn -1.000000 0.000000 0.000000
vn -1.000000 0.000000 0.000000
vn -1.000000 0.000000 0.000000
vn -1.000000 0.000000 0.000000
vn -1.000000 0.000000 0.000000
vn -1.000000 0.000000 0.000000
vn -1.000000 0.000000 0.000000
vn -1.000000 0.000000 0.000000
vn -1.000000 0.000000 0.000000
vn -1.000000 0.000000 0.000000
vn -1.000000 0.000000 0.000000
vn -1.000000 0.000000 0.000000
vn -1.000000 0.000000 0.000000
vn -1.000000 0.000000 0.000000
vn -1.000000 0.000000 0.000000
vn -1.000000 0.000000 0.000000
vn -1.000000 0.000000 0.000000
vn -1.000000 0.000000 0.000000
vn -1.000000 0.000000 0.000000
vn -1.000000 0.000000 0.000000
vn -1.000000 0.000000 0.000000
vn -1.000000 0.000000 0.000000
vn -1.000000 0.000000 0.000000
vn -1.000000 0.000000 0.000000
vn -1.000000 0.000000 0.000000
vn -1.000000 0.000000 0.000000
vn -1.000000 0.000000 0.000000
vn -0.842155 0.539235 0.000000
vn -0.842155 0.539235 0.000000
vn -0.842155 0.539235 0.000000
vn -0.842155 0.539235 0.000000
vn -0.828862 0.000000 0.559453
vn -0.828862 0.000000 0.559453
vn -0.828862 0.000000 0.559453
vn -0.828862 0.000000 0.559453
vn -0.842160 -0.539227 0.000000
vn -0.842160 -0.539227 0.000000
vn -0.842160 -0.539227 0.000000
vn -0.842160 -0.539227 0.000000
vn -0.828829 0.000000 -0.559502
vn -0.828829 0.000000 -0.559502
vn -0.828829 0.000000 -0.559502
vn -0.828829 0.000000 -0.559502
vn -0.842160 0.539227 0.000000
vn -0.842160 0.539227 0.000000
vn -0.842160 0.539227 0.000000
vn -0.842160 0.539227 0.000000
vn -0.828862 0.000000 0.559453
vn -0.828862 0.000000 0.559453
vn -0.828862 0.000000 0.559453
vn -0.828862 0.000000 0.559453
vn -0.842160 -0.539227 0.000000
vn -0.842160 -0.539227 0.000000
vn -0.842160 -0.539227 0.000000
vn -0.842160 -0.539227 0.000000
vn -0.828829 0.000000 -0.559502
vn -0.828829 0.000000 -0.559502
vn -0.828829 0.000000 -0.559502
vn -0.828829 0.000000 -0.559502
vn 0.000000 0.000000 1.000000
vn 0.000000 0.000000 1.000000
vn 0.000000 0.000000 1.000000
vn 0.000000 0.000000 1.000000
vn -1.000000 0.000000 0.000000
vn -1.000000 0.000000 0.000000
vn -1.000000 0.000000 0.000000
vn -1.000000 0.000000 0.000000
vn 0.000000 0.000000 1.000000
vn 0.000000 0.000000 1.000000
vn 0.000000 0.000000 1.000000
vn 0.000000 0.000000 1.000000
vn -1.000000 0.000000 0.000000
vn -1.000000 0.000000 0.000000
vn -1.000000 0.000000 0.000000
vn -1.000000 0.000000 0.000000
vn -1.000000 0.000000 0.000000
vn -1.000000 0.000000 0.000000
vn -1.000000 0.000000 0.000000
vn -1.000000 0.000000 0.000000
vn -1.000000 0.000000 0.000000
vn -1.000000 0.000000 0.000000
vn -1.000000 0.000000 0.000000
vn -1.000000 0.000000 0.000000
vn -1.000000 0.000000 0.000000
vn -1.000000 0.000000 0.000000
vn -1.000000 0.000000 0.000000
vn -1.000000 0.000000 0.000000
vn -1.000000 0.000000 0.000000
vn -1.000000 0.000000 0.000000
vn -1.000000 0.000000 0.000000
vn -1.000000 0.000000 0.000000
vn -1.000000 0.000000 0.000000
vn -1.000000 0.000000 0.000000
vn -1.000000 0.000000 0.000000
vn -1.000000 0.000000 0.000000
vn -1.000000 0.000000 0.000000
vn -1.000000 0.000000 0.000000
vn -1.000000 0.000000 0.000000
vn -1.000000 0.000000 0.000000
vn -1.000000 0.000000 0.000000
vn -1.000000 0.000000 0.000000
vn -1.000000 0.000000 0.000000
vn -1.000000 0.000000 0.000000
vn -1.000000 0.000000 0.000000
vn -1.000000 0.000000 0.000000
vn -1.000000 0.000000 0.000000
vn -1.000000 0.000000 0.000000
vn -0.842155 0.539235 0.000000
vn -0.842155 0.539235 0.000000
vn -0.842155 0.539235 0.000000
vn -0.842155 0.539235 0.000000
vn -0.828862 0.000000 0.559453
vn -0.828862 0.000000 0.559453
vn -0.828862 0.000000 0.559453
vn -0.828862 0.000000 0.559453
vn -0.842160 -0.539227 0.000000
vn -0.842160 -0.539227 0.000000
vn -0.842160 -0.539227 0.000000
vn -0.842160 -0.539227 0.000000
vn -0.828829 0.000000 -0.559502
vn -0.828829 0.000000 -0.559502
vn -0.828829 0.000000 -0.559502
vn -0.828829 0.000000 -0.559502
vn -0.842160 0.539227 0.000000
vn -0.842160 0.539227 0.000000
vn -0.842160 0.539227 0.000000
vn -0.842160 0.539227 0.000000
vn -0.828862 0.000000 0.559453
vn -0.828862 0.000000 0.559453
vn -0.828862 0.000000 0.559453
vn -0.828862 0.000000 0.559453
vn -0.842160 -0.539227 0.000000
vn -0.842160 -0.539227 0.000000
vn -0.842160 -0.539227 0.000000
vn -0.842160 -0.539227 0.000000
vn -0.828829 0.000000 -0.559502
vn -0.828829 0.000000 -0.559502
vn -0.828829 0.000000 -0.559502
vn -0.828829 0.000000 -0.559502
vn 0.000000 1.000000 0.000000
vn 0.000000 1.000000 0.000000
vn 0.000000 1.000000 0.000000
vn 0.000000 1.000000 0.000000
s off
f 6/7/1 5/8/2 7/9/3 8/10/4
f 4/11/5 3/12/6 7/9/7 5/8/8
f 2/2/9 1/1/10 6/7/11 8/10/12
f 10/6/13 1/13/14 53/91/15 62/83/16
f 4/11/17 5/8/18 9/14/19
f 5/8/20 6/7/21 10/15/22 9/14/23
f 6/7/24 1/1/25 10/15/26
f 12/17/27 3/3/28 55/82/29 64/95/30
f 2/2/31 8/10/32 11/16/33
f 8/10/34 7/9/35 12/18/36 11/16/37
f 7/9/38 3/12/39 12/18/40
f 25/21/41 26/22/42 27/23/43 28/24/44
f 16/26/45 12/25/46 64/103/47 68/104/48
f 14/28/49 16/26/50 68/104/51 66/106/52
f 30/29/53 29/30/54 31/31/55 32/32/56
f 11/19/57 12/25/58 18/33/59 17/34/60
f 12/25/61 16/26/62 19/35/63 18/33/64
f 16/26/65 15/20/66 20/36/67 19/35/68
f 15/20/69 11/19/70 17/34/71 20/36/72
f 15/20/73 16/26/74 21/37/75 22/38/76
f 16/26/77 14/28/78 23/39/79 21/37/80
f 14/28/81 13/27/82 24/40/83 23/39/84
f 13/27/85 15/20/86 22/38/87 24/40/88
f 17/34/89 18/33/90 26/41/91 25/42/92
f 18/33/93 19/35/94 27/43/95 26/41/96
f 19/35/97 20/36/98 28/44/99 27/43/100
f 20/36/101 17/34/102 25/42/103 28/44/104
f 22/38/105 21/37/106 29/45/107 30/46/108
f 21/37/109 23/39/110 31/47/111 29/45/112
f 23/39/113 24/40/114 32/48/115 31/47/116
f 24/40/117 22/38/118 30/46/119 32/48/120
f 45/51/121 46/52/122 47/53/123 48/54/124
f 36/56/125 14/55/126 66/133/127 88/134/128
f 34/58/129 36/56/130 88/134/131 86/136/132
f 50/59/133 49/60/134 51/61/135 52/62/136
f 13/49/137 14/55/138 38/63/139 37/64/140
f 14/55/141 36/56/142 39/65/143 38/63/144
f 36/56/145 35/50/146 40/66/147 39/65/148
f 35/50/149 13/49/150 37/64/151 40/66/152
f 35/50/153 36/56/154 41/67/155 42/68/156
f 36/56/157 34/58/158 43/69/159 41/67/160
f 34/58/161 33/57/162 44/70/163 43/69/164
f 33/57/165 35/50/166 42/68/167 44/70/168
f 37/64/169 38/63/170 46/71/171 45/72/172
f 38/63/173 39/65/174 47/73/175 46/71/176
f 39/65/177 40/66/178 48/74/179 47/73/180
f 40/66/181 37/64/182 45/72/183 48/74/184
f 42/68/185 41/67/186 49/75/187 50/76/188
f 41/67/189 43/69/190 51/77/191 49/75/192
f 43/69/193 44/70/194 52/78/195 51/77/196
f 44/70/197 42/68/198 50/76/199 52/78/200
f 2/2/201 54/79/202 53/80/203 1/1/204
f 4/4/205 56/81/206 55/82/207 3/3/208
f 10/6/209 62/83/210 61/84/211 9/5/212
f 58/85/213 60/86/214 59/87/215 57/88/216
f 56/89/217 57/88/218 59/87/219 55/90/220
f 54/79/221 60/86/222 58/85/223 53/80/224
f 9/5/225 61/84/226 56/81/227 4/4/228
f 56/89/229 61/92/230 57/88/231
f 57/88/232 61/92/233 62/93/234 58/85/235
f 58/85/236 62/93/237 53/80/238
f 11/16/239 63/94/240 54/79/241 2/2/242
f 54/79/243 63/94/244 60/86/245
f 60/86/246 63/94/247 64/96/248 59/87/249
f 59/87/250 64/96/251 55/90/252
f 15/20/253 67/97/254 63/98/255 11/19/256
f 77/99/257 80/100/258 79/101/259 78/102/260
f 13/27/261 65/105/262 67/97/263 15/20/264
f 82/107/265 84/108/266 83/109/267 81/110/268
f 63/98/269 69/111/270 70/112/271 64/103/272
f 64/103/273 70/112/274 71/113/275 68/104/276
f 68/104/277 71/113/278 72/114/279 67/97/280
f 67/97/281 72/114/282 69/111/283 63/98/284
f 67/97/285 74/115/286 73/116/287 68/104/288
f 68/104/289 73/116/290 75/117/291 66/106/292
f 66/106/293 75/117/294 76/118/295 65/105/296
f 65/105/297 76/118/298 74/115/299 67/97/300
f 69/111/301 77/119/302 78/120/303 70/112/304
f 70/112/305 78/120/306 79/121/307 71/113/308
f 71/113/309 79/121/310 80/122/311 72/114/312
f 72/114/313 80/122/314 77/119/315 69/111/316
f 74/115/317 82/123/318 81/124/319 73/116/320
f 73/116/321 81/124/322 83/125/323 75/117/324
f 75/117/325 83/125/326 84/126/327 76/118/328
f 76/118/329 84/126/330 82/123/331 74/115/332
f 35/50/333 87/127/334 65/128/335 13/49/336
f 97/129/337 100/130/338 99/131/339 98/132/340
f 85/135/341 87/127/342 35/50/343 33/57/344
f 102/137/345 104/138/346 103/139/347 101/140/348
f 65/128/349 89/141/350 90/142/351 66/133/352
f 66/133/353 90/142/354 91/143/355 88/134/356
f 88/134/357 91/143/358 92/144/359 87/127/360
f 87/127/361 92/144/362 89/141/363 65/128/364
f 87/127/365 94/145/366 93/146/367 88/134/368
f 88/134/369 93/146/370 95/147/371 86/136/372
f 86/136/373 95/147/374 96/148/375 85/135/376
f 85/135/377 96/148/378 94/145/379 87/127/380
f 89/141/381 97/149/382 98/150/383 90/142/384
f 90/142/385 98/150/386 99/151/387 91/143/388
f 91/143/389 99/151/390 100/152/391 92/144/392
f 92/144/393 100/152/394 97/149/395 89/141/396
f 94/145/397 102/153/398 101/154/399 93/146/400
f 93/146/401 101/154/402 103/155/403 95/147/404
f 95/147/405 103/155/406 104/156/407 96/148/408
f 96/148/409 104/156/410 102/153/411 94/145/412
f 34/160/413 86/157/414 85/158/415 33/159/416
