# This file uses meters as units for non-parametric coordinates.

v -2.186856 0.000000 4.976361
v 2.186856 0.000000 4.976361
v -2.186856 1.943137 4.976361
v 2.186856 1.943137 4.976361
v -2.186856 2.927856 -4.112881
v 2.186856 2.927856 -4.112881
v -2.186856 0.000000 -4.112881
v 2.186856 0.000000 -4.112881
v -1.728589 2.314310 -2.142388
v 1.728589 2.314310 -2.142388
v 1.728589 0.000000 -2.142388
v -1.728589 0.000000 -2.142388
v -1.728589 2.314310 -1.451526
v 1.728589 2.314310 -1.451526
v 1.728589 0.000000 -1.451526
v -1.728589 0.000000 -1.451526
v -2.186856 2.927856 -0.532670
v 2.186856 2.927856 -0.532670
v 2.186856 0.000000 -0.532670
v -2.186856 0.000000 -0.532670
v 2.186856 0.000000 -2.544666
v 2.186856 2.927856 -2.544666
v -2.186856 2.927856 -2.544666
v -2.186856 0.000000 -2.544666
v -1.844738 2.268294 -5.450972
v 1.844738 2.268294 -5.450972
v 1.844738 0.000000 -5.450972
v -1.844738 0.000000 -5.450972
v -2.186856 2.927856 3.406572
v 2.186856 2.927856 3.406572
v 2.186856 0.000000 3.406572
v -2.186856 0.000000 3.406572
v -1.775333 1.943137 4.976361
v -1.775333 2.927856 3.406572
v 1.775335 1.943137 4.976361
v 1.775335 2.927856 3.406572
v -2.186856 6.958622 7.194989
v -1.775333 6.958622 7.194989
v -1.775333 6.958622 5.605634
v -2.186856 6.958622 5.605634
v 1.775335 6.958622 7.194989
v 1.775335 6.958622 5.605634
v 2.186856 6.958622 7.194989
v 2.186856 6.958622 5.605634
v -1.609479 7.917820 7.194989
v -1.388539 7.558338 7.194989
v -1.388539 7.558338 5.605634
v -1.609479 7.917820 5.605634
v 1.388539 7.558338 7.194989
v 1.388539 7.558338 5.605634
v 1.609479 7.917820 7.194989
v 1.609479 7.917820 5.605634
v -0.368948 2.314310 -2.142388
v 0.368948 2.314310 -2.142388
v 0.368948 1.698944 -5.450972
v -0.368948 1.698944 -5.450972
v 0.640833 2.268294 -5.450972
v 0.640833 2.927856 -4.112881
v 0.640833 2.927856 -2.544666
v -0.640833 2.927856 -2.544666
v -0.640833 2.927856 -4.112881
v -0.640833 2.268294 -5.450972
v -0.368948 2.314310 -4.112881
v 0.368948 2.314310 -4.112881
v 2.186856 2.079003 2.069028
v 2.186856 0.848859 2.069028
v 2.186856 0.848859 0.804874
v 2.186856 2.079003 0.804874
v -2.186856 0.848859 0.804874
v -2.186856 2.079003 0.804874
v -2.186856 0.848859 2.069028
v -2.186856 2.079003 2.069028
v 2.609431 1.956370 1.943009
v 2.609431 0.971488 1.943009
v 2.609431 0.971488 0.930890
v 2.609431 1.956370 0.930890
v -2.609431 0.971488 0.930890
v -2.609431 1.956370 0.930890
v -2.609431 0.971488 1.943004
v -2.609431 1.956370 1.943004
v 0.256098 2.657001 5.081093
v 0.256098 3.266586 4.109327
v -0.256096 3.266586 4.109327
v -0.256096 2.657001 5.081093
v 0.150873 3.659453 5.261531
v 0.150873 3.659453 4.539567
v -0.150872 3.659453 4.539567
v -0.150872 3.659453 5.261531
vt 0.245069 0.231986
vt 0.245069 0.231986
vt 0.245069 0.231986
vt 0.245069 0.231986
vt 0.245069 0.231986
vt 0.245069 0.231986
vt 0.245069 0.231986
vt 0.245069 0.231986
vt 0.245069 0.231986
vt 0.245069 0.231986
vt 0.245069 0.231986
vt 0.245069 0.231986
vt 0.245069 0.231986
vt 0.245069 0.231986
vt 0.245069 0.231986
vt 0.245069 0.231986
vt 0.245069 0.231986
vt 0.245069 0.231986
vt 0.245069 0.231986
vt 0.245069 0.231986
vt 0.245069 0.231986
vt 0.245069 0.231986
vt 0.245069 0.231986
vt 0.245069 0.231986
vt 0.245069 0.231986
vt 0.245069 0.231986
vt 0.245069 0.231986
vt 0.245069 0.231986
vt 0.245069 0.231986
vt 0.245069 0.231986
vt 0.245069 0.231986
vt 0.245069 0.231986
vt 0.245069 0.231986
vt 0.245069 0.231986
vt 0.245069 0.231986
vt 0.245069 0.231986
vt 0.245069 0.231986
vt 0.245069 0.231986
vt 0.245069 0.231986
vt 0.245069 0.231986
vt 0.245069 0.231986
vt 0.245069 0.231986
vt 0.245069 0.231986
vt 0.245069 0.231986
vt 0.245069 0.231986
vt 0.245069 0.231986
vt 0.245069 0.231986
vt 0.245069 0.231986
vt 0.245069 0.231986
vt 0.245069 0.231986
vt 0.245069 0.231986
vt 0.245069 0.231986
vt 0.245069 0.231986
vt 0.245069 0.231986
vt 0.245069 0.231986
vt 0.245069 0.231986
vt 0.245069 0.231986
vt 0.245069 0.231986
vt 0.245069 0.231986
vt 0.245069 0.231986
vt 0.245069 0.231986
vt 0.245069 0.231986
vt 0.245069 0.231986
vt 0.245069 0.231986
vt 0.245069 0.231986
vt 0.245069 0.231986
vt 0.245069 0.231986
vt 0.245069 0.231986
vt 0.245069 0.231986
vt 0.245069 0.231986
vt 0.245069 0.231986
vt 0.245069 0.231986
vt 0.245069 0.231986
vt 0.245069 0.231986
vt 0.245069 0.231986
vt 0.245069 0.231986
vt 0.245069 0.231986
vt 0.245069 0.231986
vt 0.236060 0.226919
vt 0.236060 0.226919
vt 0.236060 0.226919
vt 0.236060 0.226919
vt 0.236060 0.226919
vt 0.236060 0.226919
vt 0.236060 0.226919
vt 0.236060 0.226919
vt 0.245069 0.231986
vt 0.236060 0.226919
vt 0.245069 0.231986
vt 0.236060 0.226919
vt 0.245069 0.231986
vt 0.245069 0.231986
vt 0.245069 0.231986
vt 0.245069 0.231986
vt 0.245069 0.231986
vt 0.245069 0.231986
vt 0.245069 0.231986
vt 0.245069 0.231986
vt 0.245069 0.231986
vt 0.245069 0.231986
vt 0.245069 0.231986
vt 0.245069 0.231986
vt 0.245069 0.231986
vt 0.245069 0.231986
vt 0.245069 0.231986
vt 0.245069 0.231986
vt 0.245069 0.231986
vt 0.245069 0.231986
vt 0.993816 0.305746
vt 0.993816 0.305746
vt 0.993816 0.305746
vt 0.993816 0.305746
vt 0.993816 0.305746
vt 0.993816 0.305746
vt 0.993816 0.305746
vt 0.993816 0.305746
vt 0.993816 0.305746
vt 0.993816 0.305746
vt 0.993816 0.305746
vt 0.993816 0.305746
vt 0.993816 0.305746
vt 0.993816 0.305746
vt 0.993816 0.305746
vt 0.993816 0.305746
vt 0.245069 0.231986
vt 0.245069 0.231986
vt 0.245069 0.231986
vt 0.245069 0.231986
vt 0.245069 0.231986
vt 0.245069 0.231986
vt 0.245069 0.231986
vt 0.245069 0.231986
vn 0.000000 0.000000 1.000000
vn 0.000000 0.000000 1.000000
vn 0.000000 0.000000 1.000000
vn 0.000000 0.000000 1.000000
vn 0.000000 0.548312 0.836274
vn 0.000000 0.548312 0.836274
vn 0.000000 0.548312 0.836274
vn 0.000000 0.548312 0.836274
vn 0.000000 0.000000 -1.000000
vn 0.000000 0.000000 -1.000000
vn 0.000000 0.000000 -1.000000
vn 0.000000 0.000000 -1.000000
vn 0.000000 -1.000000 0.000000
vn 0.000000 -1.000000 0.000000
vn 0.000000 -1.000000 0.000000
vn 0.000000 -1.000000 0.000000
vn 0.659705 0.000000 0.751524
vn 0.659705 0.000000 0.751524
vn 0.659705 0.000000 0.751524
vn 0.659705 0.000000 0.751524
vn -0.659705 0.000000 0.751524
vn -0.659705 0.000000 0.751524
vn -0.659705 0.000000 0.751524
vn -0.659705 0.000000 0.751524
vn 0.000000 1.000000 -0.000000
vn 0.000000 1.000000 -0.000000
vn 0.000000 1.000000 -0.000000
vn 0.000000 1.000000 -0.000000
vn 1.000000 0.000000 0.000000
vn 1.000000 0.000000 0.000000
vn 1.000000 0.000000 0.000000
vn 1.000000 0.000000 0.000000
vn 0.000000 -1.000000 0.000000
vn 0.000000 -1.000000 0.000000
vn 0.000000 -1.000000 0.000000
vn 0.000000 -1.000000 0.000000
vn -1.000000 0.000000 0.000000
vn -1.000000 0.000000 0.000000
vn -1.000000 0.000000 0.000000
vn -1.000000 0.000000 0.000000
vn 0.000000 0.831643 -0.555311
vn 0.000000 0.831643 -0.555311
vn 0.000000 0.831643 -0.555311
vn 0.000000 0.831643 -0.555311
vn 0.894879 0.000000 -0.446309
vn 0.894879 0.000000 -0.446309
vn 0.894879 0.000000 -0.446309
vn 0.894879 0.000000 -0.446309
vn 0.000000 -1.000000 0.000000
vn 0.000000 -1.000000 0.000000
vn 0.000000 -1.000000 0.000000
vn 0.000000 -1.000000 0.000000
vn -0.894879 0.000000 -0.446309
vn -0.894879 0.000000 -0.446309
vn -0.894879 0.000000 -0.446309
vn -0.894879 0.000000 -0.446309
vn 0.000000 1.000000 0.000000
vn 0.000000 1.000000 0.000000
vn 0.000000 1.000000 0.000000
vn 0.000000 1.000000 0.000000
vn 1.000000 0.000000 0.000000
vn 1.000000 0.000000 0.000000
vn 1.000000 0.000000 0.000000
vn 1.000000 0.000000 0.000000
vn 0.000000 -1.000000 0.000000
vn 0.000000 -1.000000 0.000000
vn 0.000000 -1.000000 0.000000
vn 0.000000 -1.000000 0.000000
vn -1.000000 0.000000 0.000000
vn -1.000000 0.000000 0.000000
vn -1.000000 0.000000 0.000000
vn -1.000000 0.000000 0.000000
vn 1.000000 0.000000 0.000000
vn 1.000000 0.000000 0.000000
vn 1.000000 0.000000 0.000000
vn 1.000000 0.000000 0.000000
vn 0.000000 1.000000 0.000000
vn 0.000000 1.000000 0.000000
vn 0.000000 1.000000 0.000000
vn 0.000000 1.000000 0.000000
vn -1.000000 0.000000 0.000000
vn -1.000000 0.000000 0.000000
vn -1.000000 0.000000 0.000000
vn -1.000000 0.000000 0.000000
vn 0.000000 -1.000000 0.000000
vn 0.000000 -1.000000 0.000000
vn 0.000000 -1.000000 0.000000
vn 0.000000 -1.000000 0.000000
vn 0.000000 0.896956 -0.442121
vn 0.000000 0.896956 -0.442121
vn 0.000000 0.896956 -0.442121
vn 0.000000 0.896955 -0.442121
vn 0.968835 0.000000 -0.247708
vn 0.968835 0.000000 -0.247708
vn 0.968835 0.000000 -0.247708
vn 0.968835 0.000000 -0.247708
vn 0.000000 -1.000000 -0.000000
vn 0.000000 -1.000000 -0.000000
vn 0.000000 -1.000000 -0.000000
vn 0.000000 -1.000000 -0.000000
vn -0.968835 0.000000 -0.247708
vn -0.968835 0.000000 -0.247708
vn -0.968835 0.000000 -0.247708
vn -0.968835 0.000000 -0.247708
vn 0.000000 1.000000 -0.000001
vn 0.000000 1.000000 -0.000001
vn 0.000000 1.000000 -0.000001
vn 0.000000 1.000000 -0.000001
vn 1.000000 0.000000 0.000000
vn 1.000000 0.000000 0.000000
vn 1.000000 0.000000 0.000000
vn 1.000000 0.000000 0.000000
vn 0.000000 -1.000000 0.000000
vn 0.000000 -1.000000 0.000000
vn 0.000000 -1.000000 0.000000
vn 0.000000 -1.000000 0.000000
vn -1.000000 0.000000 0.000000
vn -1.000000 0.000000 0.000000
vn -1.000000 0.000000 0.000000
vn -1.000000 0.000000 0.000000
vn 0.000000 1.000000 0.000000
vn 0.000000 1.000000 0.000000
vn 0.000000 1.000000 0.000000
vn 0.000000 1.000000 0.000000
vn 0.000000 1.000000 0.000000
vn 0.000000 1.000000 0.000000
vn 0.000000 0.000000 1.000000
vn 0.000000 0.000000 1.000000
vn 0.000000 0.000000 1.000000
vn 0.000000 0.000000 1.000000
vn 0.000000 0.000000 1.000000
vn 0.000000 0.000000 1.000000
vn 0.000000 -0.404543 0.914519
vn 0.000000 -0.404543 0.914519
vn 0.000000 -0.404543 0.914519
vn 0.000000 -0.404543 0.914519
vn 1.000000 0.000000 0.000000
vn 1.000000 0.000000 0.000000
vn 1.000000 0.000000 0.000000
vn 1.000000 0.000000 0.000000
vn 0.000000 0.478930 -0.877853
vn 0.000000 0.478930 -0.877853
vn 0.000000 0.478930 -0.877853
vn 0.000000 0.478930 -0.877853
vn -1.000000 0.000000 0.000000
vn -1.000000 0.000000 0.000000
vn -1.000000 0.000000 0.000000
vn -1.000000 0.000000 0.000000
vn -1.000000 0.000000 0.000000
vn -1.000000 0.000000 0.000000
vn -1.000000 0.000000 0.000000
vn -1.000000 0.000000 0.000000
vn 0.000000 -0.404543 0.914519
vn 0.000000 -0.404543 0.914519
vn 0.000000 -0.404543 0.914519
vn 0.000000 -0.404543 0.914519
vn 1.000000 0.000000 0.000000
vn 1.000000 0.000000 0.000000
vn 1.000000 0.000000 0.000000
vn 1.000000 0.000000 0.000000
vn 0.000000 0.478930 -0.877853
vn 0.000000 0.478930 -0.877853
vn 0.000000 0.478930 -0.877853
vn 0.000000 0.478930 -0.877853
vn 0.000001 0.000000 1.000000
vn 0.000001 0.000000 1.000000
vn 0.000001 0.000000 1.000000
vn 0.000001 0.000000 1.000000
vn 0.840373 -0.542009 0.000000
vn 0.840373 -0.542009 0.000000
vn 0.840373 -0.542009 0.000000
vn 0.840373 -0.542009 0.000000
vn 0.000001 0.000000 -1.000000
vn 0.000001 0.000000 -1.000000
vn 0.000001 0.000000 -1.000000
vn 0.000001 0.000000 -1.000000
vn -0.856760 0.515716 0.000000
vn -0.856760 0.515716 0.000000
vn -0.856760 0.515716 0.000000
vn -0.856760 0.515716 0.000000
vn -0.840372 -0.542011 0.000000
vn -0.840372 -0.542011 0.000000
vn -0.840372 -0.542011 0.000000
vn -0.840372 -0.542011 0.000000
vn -0.000001 0.000000 1.000000
vn -0.000001 0.000000 1.000000
vn -0.000001 0.000000 1.000000
vn -0.000001 0.000000 1.000000
vn 0.856760 0.515716 0.000000
vn 0.856760 0.515716 0.000000
vn 0.856760 0.515716 0.000000
vn 0.856760 0.515716 0.000000
vn 0.000000 0.000000 -1.000000
vn 0.000000 0.000000 -1.000000
vn 0.000000 0.000000 -1.000000
vn 0.000000 0.000000 -1.000000
vn 0.000000 0.000000 -1.000000
vn 0.000000 0.000000 -1.000000
vn 0.000000 0.000000 -1.000000
vn 0.000000 0.000000 -1.000000
vn 0.000000 1.000000 0.000000
vn 0.000000 1.000000 0.000000
vn 0.000000 1.000000 0.000000
vn 0.000000 1.000000 0.000000
vn 0.000000 -1.000000 0.000000
vn 0.000000 -1.000000 0.000000
vn 0.000000 -1.000000 0.000000
vn 0.000000 -1.000000 0.000000
vn 0.000000 0.000000 1.000000
vn 0.000000 0.000000 1.000000
vn 0.000000 0.000000 1.000000
vn 0.000000 0.000000 1.000000
vn 0.000000 1.000000 -0.000000
vn 0.000000 1.000000 -0.000000
vn 0.000000 1.000000 0.000000
vn 0.000000 1.000000 -0.000000
vn 0.000000 1.000000 -0.000000
vn 0.000000 1.000000 0.000000
vn -0.000000 0.000000 -1.000000
vn -0.000000 0.000000 -1.000000
vn 0.000000 0.000000 -1.000000
vn 0.000000 0.000000 -1.000000
vn -0.000000 0.000000 -1.000000
vn -0.000000 0.000000 -1.000000
vn -0.000000 0.000000 -1.000000
vn -0.000000 0.000000 -1.000000
vn 0.000000 0.896955 -0.442121
vn 0.000000 0.896955 -0.442121
vn 0.000000 0.896955 -0.442121
vn 0.000000 0.896955 -0.442121
vn 0.000000 1.000000 0.000000
vn 0.000000 1.000000 0.000000
vn 0.000000 1.000000 0.000000
vn 0.000000 1.000000 0.000000
vn 0.000000 0.548312 0.836274
vn 0.000000 0.548312 0.836274
vn 0.000000 0.548312 0.836274
vn 0.000000 0.548312 0.836274
vn 0.000000 1.000000 0.000000
vn 0.000000 1.000000 0.000000
vn 0.000000 1.000000 0.000000
vn 0.000000 1.000000 0.000000
vn 0.000000 0.908531 -0.417818
vn 0.000000 0.908531 -0.417818
vn 0.000000 0.908531 -0.417818
vn 0.000000 0.908531 -0.417818
vn 0.914254 0.405141 0.000000
vn 0.914254 0.405141 0.000000
vn 0.914254 0.405141 0.000000
vn 0.914254 0.405141 0.000000
vn -0.914254 0.405141 0.000000
vn -0.914254 0.405141 0.000000
vn -0.914254 0.405141 0.000000
vn -0.914254 0.405141 0.000000
vn 0.891126 0.409646 -0.195155
vn 0.891126 0.409646 -0.195155
vn 0.891126 0.409646 -0.195155
vn 0.891126 0.409646 -0.195155
vn -0.891126 0.409646 -0.195155
vn -0.891126 0.409646 -0.195155
vn -0.891126 0.409646 -0.195155
vn -0.891126 0.409646 -0.195155
vn 1.000000 0.000000 0.000000
vn 1.000000 0.000000 0.000000
vn 1.000000 0.000000 0.000000
vn 1.000000 0.000000 0.000000
vn 1.000000 0.000000 0.000000
vn 1.000000 0.000000 0.000000
vn 1.000000 0.000000 0.000000
vn 1.000000 0.000000 0.000000
vn 1.000000 0.000000 0.000000
vn 1.000000 0.000000 0.000000
vn 1.000000 0.000000 0.000000
vn 1.000000 0.000000 0.000000
vn 1.000000 -0.000000 0.000000
vn 1.000000 -0.000000 0.000000
vn 1.000000 -0.000000 0.000000
vn 1.000000 -0.000000 0.000000
vn -1.000000 0.000000 0.000000
vn -1.000000 0.000000 0.000000
vn -1.000000 0.000000 0.000000
vn -1.000000 0.000000 0.000000
vn -1.000000 0.000000 0.000000
vn -1.000000 0.000000 0.000000
vn -1.000000 0.000000 0.000000
vn -1.000000 0.000000 0.000000
vn -1.000000 0.000000 0.000000
vn -1.000000 0.000000 0.000000
vn -1.000000 0.000000 0.000000
vn -1.000000 0.000000 0.000000
vn -1.000000 -0.000000 0.000000
vn -1.000000 -0.000000 0.000000
vn -1.000000 -0.000000 0.000000
vn -1.000000 -0.000000 0.000000
vn 0.285780 0.000000 0.958295
vn 0.285780 0.000000 0.958295
vn 0.285780 0.000000 0.958295
vn 0.285780 0.000000 0.958295
vn 0.278695 -0.960380 0.000000
vn 0.278695 -0.960380 0.000000
vn 0.278695 -0.960380 0.000000
vn 0.278695 -0.960380 0.000000
vn 0.285774 0.000000 -0.958297
vn 0.285774 0.000000 -0.958297
vn 0.285774 0.000000 -0.958297
vn 0.285774 0.000000 -0.958297
vn 0.278706 0.960376 0.000000
vn 0.278706 0.960376 0.000000
vn 0.278706 0.960376 0.000000
vn 0.278706 0.960376 0.000000
vn -0.285774 0.000000 -0.958297
vn -0.285774 0.000000 -0.958297
vn -0.285774 0.000000 -0.958297
vn -0.285774 0.000000 -0.958297
vn -0.278695 -0.960380 0.000000
vn -0.278695 -0.960380 0.000000
vn -0.278695 -0.960380 0.000000
vn -0.278695 -0.960380 0.000000
vn -0.285789 0.000000 0.958293
vn -0.285789 0.000000 0.958293
vn -0.285789 0.000000 0.958293
vn -0.285789 0.000000 0.958293
vn -0.278706 0.960376 0.000000
vn -0.278706 0.960376 0.000000
vn -0.278706 0.960376 0.000000
vn -0.278706 0.960376 0.000000
vn 0.398649 0.776900 0.487345
vn 0.398649 0.776900 0.487345
vn 0.398649 0.776900 0.487345
vn 0.398649 0.776900 0.487345
vn 0.000000 0.900818 -0.434196
vn 0.000000 0.900818 -0.434197
vn 0.000000 0.900818 -0.434197
vn 0.000000 0.900818 -0.434197
vn -0.398649 0.776900 0.487345
vn -0.398649 0.776900 0.487345
vn -0.398649 0.776900 0.487345
vn -0.398649 0.776900 0.487345
vn 0.000000 -0.145157 0.989409
vn 0.000000 -0.145157 0.989409
vn 0.000000 -0.149432 0.988772
vn 0.000000 -0.149432 0.988772
vn 0.990547 0.129068 0.046452
vn 0.990547 0.129068 0.046452
vn 0.990547 0.129068 0.046452
vn 0.990547 0.129068 0.046452
vn 0.000000 0.738452 -0.674306
vn 0.000000 0.738452 -0.674306
vn 0.000000 0.738452 -0.674306
vn 0.000000 0.738452 -0.674306
vn -0.990547 0.129068 0.046452
vn -0.990547 0.129068 0.046452
vn -0.990547 0.129068 0.046452
vn -0.990547 0.129068 0.046452
vn 0.000000 -0.149432 0.988772
vn 0.000000 -0.149432 0.988772
vn 0.000000 -0.177150 0.984184
vn 0.000000 -0.177150 0.984184
s off
f 1/1/1 2/2/2 35/61/3 33/59/4
f 59/95/5 54/89/6 10/17/7 22/41/8
f 55/91/9 57/93/10 26/48/11 27/49/12
f 24/46/13 21/39/14 11/19/15 12/22/16
f 10/18/17 11/20/18 21/40/19 22/42/20
f 23/43/21 24/45/22 12/21/23 9/15/24
f 13/79/25 14/80/26 54/90/27 53/88/28
f 14/80/29 15/83/30 11/84/31 10/81/32
f 12/85/33 11/84/34 15/83/35 16/86/36
f 9/82/37 12/85/38 16/86/39 13/79/40
f 17/32/41 18/33/42 14/25/43 13/24/44
f 18/34/45 19/36/46 15/28/47 14/26/48
f 16/30/49 15/27/50 19/35/51 20/38/52
f 13/23/53 16/29/54 20/37/55 17/31/56
f 17/32/57 34/60/58 36/62/59 18/33/60
f 73/109/61 74/110/62 75/111/63 76/112/64
f 20/38/65 19/35/66 31/55/67 32/58/68
f 78/113/69 77/114/70 79/115/71 80/116/72
f 22/42/73 21/40/74 8/11/75 6/12/76
f 58/94/77 59/95/78 22/41/79 6/6/80
f 7/13/81 24/45/82 23/43/83 5/14/84
f 7/7/85 8/8/86 21/39/87 24/46/88
f 57/93/89 58/94/90 6/6/91 26/48/92
f 6/6/93 8/8/94 27/49/95 26/48/96
f 8/8/97 7/7/98 28/50/99 27/49/100
f 7/7/101 5/5/102 25/47/103 28/50/104
f 85/129/105 86/130/106 87/131/107 88/132/108
f 2/2/109 31/56/110 30/54/111 4/4/112
f 32/58/113 31/55/114 2/10/115 1/9/116
f 29/51/117 32/57/118 1/1/119 3/3/120
f 29/52/121 34/60/122 17/32/123
f 18/33/124 36/62/125 30/53/126
f 35/61/127 2/2/128 4/4/129
f 1/1/130 33/59/131 3/3/132
f 3/3/133 33/59/134 38/64/135 37/63/136
f 33/59/137 34/60/138 39/65/139 38/64/140
f 34/60/141 29/52/142 40/66/143 39/65/144
f 29/52/145 3/3/146 37/63/147 40/66/148
f 36/62/149 35/61/150 41/68/151 42/67/152
f 35/61/153 4/4/154 43/69/155 41/68/156
f 4/4/157 30/53/158 44/70/159 43/69/160
f 30/53/161 36/62/162 42/67/163 44/70/164
f 37/63/165 38/64/166 46/72/167 45/71/168
f 38/64/169 39/65/170 47/73/171 46/72/172
f 39/65/173 40/66/174 48/74/175 47/73/176
f 40/66/177 37/63/178 45/71/179 48/74/180
f 42/67/181 41/68/182 49/76/183 50/75/184
f 41/68/185 43/69/186 51/77/187 49/76/188
f 43/69/189 44/70/190 52/78/191 51/77/192
f 44/70/193 42/67/194 50/75/195 52/78/196
f 47/73/197 48/74/198 52/78/199 50/75/200
f 48/74/201 45/71/202 51/77/203 52/78/204
f 47/73/205 50/75/206 49/76/207 46/72/208
f 46/72/209 49/76/210 51/77/211 45/71/212
f 54/90/213 14/80/214 10/81/215
f 13/79/216 53/88/217 9/82/218
f 28/50/219 56/92/220 55/91/221 27/49/222
f 25/47/223 62/98/224 56/92/225 28/50/226
f 5/5/227 61/97/228 62/98/229 25/47/230
f 23/44/231 60/96/232 61/97/233 5/5/234
f 9/16/235 53/87/236 60/96/237 23/44/238
f 63/99/239 53/87/240 54/89/241 64/100/242
f 56/92/243 63/99/244 64/100/245 55/91/246
f 61/97/247 60/96/248 53/87/249 63/99/250
f 59/95/251 58/94/252 64/100/253 54/89/254
f 62/98/255 61/97/256 63/99/257 56/92/258
f 58/94/259 57/93/260 55/91/261 64/100/262
f 30/54/263 31/56/264 66/102/265 65/101/266
f 31/56/267 19/36/268 67/103/269 66/102/270
f 19/36/271 18/34/272 68/104/273 67/103/274
f 18/34/275 30/54/276 65/101/277 68/104/278
f 17/31/279 20/37/280 69/106/281 70/105/282
f 20/37/283 32/57/284 71/107/285 69/106/286
f 32/57/287 29/51/288 72/108/289 71/107/290
f 29/51/291 17/31/292 70/105/293 72/108/294
f 65/117/295 66/118/296 74/110/297 73/109/298
f 66/118/299 67/119/300 75/111/301 74/110/302
f 67/119/303 68/120/304 76/112/305 75/111/306
f 68/120/307 65/117/308 73/109/309 76/112/310
f 70/121/311 69/122/312 77/114/313 78/113/314
f 69/122/315 71/123/316 79/115/317 77/114/318
f 71/123/319 72/124/320 80/116/321 79/115/322
f 72/124/323 70/121/324 78/113/325 80/116/326
f 35/61/327 36/62/328 82/126/329 81/125/330
f 36/62/331 34/60/332 83/127/333 82/126/334
f 34/60/335 33/59/336 84/128/337 83/127/338
f 33/59/339 35/61/340 81/125/341 84/128/342
f 81/125/343 82/126/344 86/130/345 85/129/346
f 82/126/347 83/127/348 87/131/349 86/130/350
f 83/127/351 84/128/352 88/132/353 87/131/354
f 84/128/355 81/125/356 85/129/357 88/132/358
