# This file uses meters as units for non-parametric coordinates.

v 0.058777 0.033936 0.056099
v 0.058777 -0.033936 0.056099
v 0.000000 -0.067871 0.056099
v -0.058777 -0.033936 0.056099
v -0.058777 0.033936 0.056099
v 0.000000 0.067871 0.056099
v 0.058777 0.033936 -0.031561
v 0.058777 -0.033936 -0.031561
v 0.000000 -0.067871 -0.031561
v -0.058777 -0.033936 -0.031561
v -0.058777 0.033936 -0.031561
v 0.000000 0.067871 -0.031561
v 0.000000 0.000000 0.056099
v 0.000000 0.000000 -0.031561
v -0.679226 -0.040920 0.025741
v -0.679226 0.040920 0.025741
v -0.679226 -0.040920 -0.056098
v -0.679226 0.040920 -0.056098
v 0.679226 -0.040920 -0.056098
v 0.679226 0.040920 -0.056098
v 0.679226 -0.040920 0.025741
v 0.679226 0.040920 0.025741
v 0.190418 0.040920 -0.056098
v 0.190418 -0.040920 -0.056098
v 0.190418 -0.040920 0.025741
v 0.190418 0.040920 0.025741
v -0.190418 0.040920 -0.056098
v -0.190418 -0.040920 -0.056098
v -0.190418 -0.040920 0.025741
v -0.190418 0.040920 0.025741
v 0.040920 -0.664425 0.025741
v -0.040920 -0.664425 0.025741
v 0.040920 -0.664425 -0.056098
v -0.040920 -0.664425 -0.056098
v 0.040920 0.664425 -0.056098
v -0.040920 0.664425 -0.056098
v 0.040920 0.664425 0.025741
v -0.040920 0.664425 0.025741
v -0.040920 0.190414 -0.056098
v 0.040920 0.190414 -0.056098
v 0.040920 0.190414 0.025741
v -0.040920 0.190414 0.025741
v -0.040920 -0.190418 -0.056098
v 0.040920 -0.190418 -0.056098
v 0.040920 -0.190418 0.025741
v -0.040920 -0.190418 0.025741
vt 0.358851 0.271640
vt 0.358851 0.271640
vt 0.358851 0.271640
vt 0.358851 0.271640
vt 0.358851 0.271640
vt 0.358851 0.271640
vt 0.358851 0.271640
vt 0.358851 0.271640
vt 0.358851 0.271640
vt 0.358851 0.271640
vt 0.358851 0.271640
vt 0.358851 0.271640
vt 0.358851 0.271640
vt 0.358851 0.271640
vt 0.358851 0.271640
vt 0.358851 0.271640
vt 0.358851 0.271640
vt 0.358851 0.271640
vt 0.358851 0.271640
vt 0.358851 0.271640
vt 0.358851 0.271640
vt 0.358851 0.271640
vt 0.358851 0.271640
vt 0.358851 0.271640
vt 0.358851 0.271640
vt 0.358851 0.271640
vt 0.358851 0.271640
vt 0.358851 0.271640
vt 0.358851 0.271640
vt 0.358851 0.271640
vt 0.358851 0.271640
vt 0.358851 0.271640
vt 0.358851 0.271640
vt 0.358851 0.271640
vt 0.358851 0.271640
vt 0.358851 0.271640
vt 0.358851 0.271640
vt 0.358851 0.271640
vt 0.358851 0.271640
vt 0.358851 0.271640
vt 0.358851 0.271640
vt 0.358851 0.271640
vt 0.358851 0.271640
vt 0.358851 0.271640
vt 0.358851 0.271640
vt 0.358851 0.271640
vt 0.358851 0.271640
vt 0.358851 0.271640
vt 0.358851 0.271640
vt 0.358851 0.271640
vt 0.358851 0.271640
vt 0.358851 0.271640
vt 0.358851 0.271640
vt 0.358851 0.271640
vt 0.358851 0.271640
vt 0.358851 0.271640
vt 0.358851 0.271640
vt 0.358851 0.271640
vt 0.358851 0.271640
vt 0.358851 0.271640
vt 0.358851 0.271640
vt 0.358851 0.271640
vt 0.358851 0.271640
vt 0.358851 0.271640
vt 0.358851 0.271640
vt 0.358851 0.271640
vt 0.358851 0.271640
vt 0.358851 0.271640
vt 0.358851 0.271640
vt 0.358851 0.271640
vt 0.358851 0.271640
vt 0.358851 0.271640
vt 0.358851 0.271640
vt 0.358851 0.271640
vt 0.358851 0.271640
vt 0.358851 0.271640
vt 0.358851 0.271640
vt 0.358851 0.271640
vt 0.358851 0.271640
vt 0.358851 0.271640
vt 0.358851 0.271640
vt 0.358851 0.271640
vt 0.358851 0.271640
vt 0.358851 0.271640
vt 0.358851 0.271640
vt 0.358851 0.271640
vt 0.358851 0.271640
vt 0.358851 0.271640
vt 0.358851 0.271640
vt 0.358851 0.271640
vt 0.358851 0.271640
vt 0.358851 0.271640
vt 0.358851 0.271640
vt 0.358851 0.271640
vt 0.358851 0.271640
vt 0.358851 0.271640
vt 0.358851 0.271640
vt 0.358851 0.271640
vt 0.358851 0.271640
vt 0.358851 0.271640
vt 0.358851 0.271640
vt 0.358851 0.271640
vt 0.358851 0.271640
vt 0.358851 0.271640
vn 1.000000 0.000000 0.000000
vn 1.000000 0.000000 0.000000
vn 1.000000 0.000000 0.000000
vn 1.000000 0.000000 0.000000
vn 0.500008 -0.866021 0.000000
vn 0.500008 -0.866021 0.000000
vn 0.500008 -0.866021 0.000000
vn 0.500008 -0.866021 0.000000
vn -0.500008 -0.866021 0.000000
vn -0.500008 -0.866021 0.000000
vn -0.500008 -0.866021 0.000000
vn -0.500008 -0.866021 0.000000
vn -1.000000 0.000000 0.000000
vn -1.000000 0.000000 0.000000
vn -1.000000 0.000000 0.000000
vn -1.000000 0.000000 0.000000
vn -0.500008 0.866021 0.000000
vn -0.500008 0.866021 0.000000
vn -0.500008 0.866021 0.000000
vn -0.500008 0.866021 0.000000
vn 0.500008 0.866021 0.000000
vn 0.500008 0.866021 0.000000
vn 0.500008 0.866021 0.000000
vn 0.500008 0.866021 0.000000
vn 0.000000 0.000000 1.000000
vn 0.000000 0.000000 1.000000
vn 0.000000 0.000000 1.000000
vn 0.000000 0.000000 1.000000
vn 0.000000 0.000000 1.000000
vn 0.000000 0.000000 1.000000
vn 0.000000 0.000000 1.000000
vn 0.000000 0.000000 1.000000
vn 0.000000 0.000000 1.000000
vn 0.000000 0.000000 1.000000
vn 0.000000 0.000000 1.000000
vn 0.000000 0.000000 1.000000
vn 0.000000 0.000000 1.000000
vn 0.000000 0.000000 1.000000
vn 0.000000 0.000000 1.000000
vn 0.000000 0.000000 1.000000
vn 0.000000 0.000000 1.000000
vn 0.000000 0.000000 1.000000
vn 0.000000 0.000000 -1.000000
vn 0.000000 0.000000 -1.000000
vn 0.000000 0.000000 -1.000000
vn 0.000000 0.000000 -1.000000
vn 0.000000 0.000000 -1.000000
vn 0.000000 0.000000 -1.000000
vn 0.000000 0.000000 -1.000000
vn 0.000000 0.000000 -1.000000
vn 0.000000 0.000000 -1.000000
vn 0.000000 0.000000 -1.000000
vn 0.000000 0.000000 -1.000000
vn 0.000000 0.000000 -1.000000
vn 0.000000 0.000000 -1.000000
vn 0.000000 0.000000 -1.000000
vn 0.000000 0.000000 -1.000000
vn 0.000000 0.000000 -1.000000
vn 0.000000 0.000000 -1.000000
vn 0.000000 0.000000 -1.000000
vn -1.000000 0.000000 0.000000
vn -1.000000 0.000000 0.000000
vn -1.000000 0.000000 0.000000
vn -1.000000 0.000000 0.000000
vn 0.000000 0.000000 -1.000000
vn 0.000000 0.000000 -1.000000
vn 0.000000 0.000000 -1.000000
vn 0.000000 0.000000 -1.000000
vn 1.000000 0.000000 0.000000
vn 1.000000 0.000000 0.000000
vn 1.000000 0.000000 0.000000
vn 1.000000 0.000000 0.000000
vn 0.000000 0.000000 1.000000
vn 0.000000 0.000000 1.000000
vn 0.000000 0.000000 1.000000
vn 0.000000 0.000000 1.000000
vn 0.000000 1.000000 0.000000
vn 0.000000 1.000000 0.000000
vn 0.000000 1.000000 0.000000
vn 0.000000 1.000000 0.000000
vn 0.000000 -1.000000 0.000000
vn 0.000000 -1.000000 0.000000
vn 0.000000 -1.000000 0.000000
vn 0.000000 -1.000000 0.000000
vn 0.000000 0.000000 -1.000000
vn 0.000000 0.000000 -1.000000
vn 0.000000 0.000000 -1.000000
vn 0.000000 0.000000 -1.000000
vn 0.000000 -1.000000 0.000000
vn 0.000000 -1.000000 0.000000
vn 0.000000 -1.000000 0.000000
vn 0.000000 -1.000000 0.000000
vn 0.000000 0.000000 1.000000
vn 0.000000 0.000000 1.000000
vn 0.000000 0.000000 1.000000
vn 0.000000 0.000000 1.000000
vn 0.000000 1.000000 0.000000
vn 0.000000 1.000000 0.000000
vn 0.000000 1.000000 0.000000
vn 0.000000 1.000000 0.000000
vn 1.000000 0.000000 0.000000
vn 1.000000 0.000000 0.000000
vn 1.000000 0.000000 0.000000
vn 1.000000 0.000000 0.000000
vn -1.000000 0.000000 0.000000
vn -1.000000 0.000000 0.000000
vn -1.000000 0.000000 0.000000
vn -1.000000 0.000000 0.000000
vn 0.000000 -1.000000 0.000000
vn 0.000000 -1.000000 0.000000
vn 0.000000 -1.000000 0.000000
vn 0.000000 -1.000000 0.000000
vn 0.000000 0.000000 -1.000000
vn 0.000000 0.000000 -1.000000
vn 0.000000 0.000000 -1.000000
vn 0.000000 0.000000 -1.000000
vn 0.000000 1.000000 0.000000
vn 0.000000 1.000000 0.000000
vn 0.000000 1.000000 0.000000
vn 0.000000 1.000000 0.000000
vn 0.000000 0.000000 1.000000
vn 0.000000 0.000000 1.000000
vn 0.000000 0.000000 1.000000
vn 0.000000 0.000000 1.000000
vn -1.000000 0.000000 0.000000
vn -1.000000 0.000000 0.000000
vn -1.000000 0.000000 0.000000
vn -1.000000 0.000000 0.000000
vn 1.000000 0.000000 0.000000
vn 1.000000 0.000000 0.000000
vn 1.000000 0.000000 0.000000
vn 1.000000 0.000000 0.000000
vn 0.000000 0.000000 -1.000000
vn 0.000000 0.000000 -1.000000
vn 0.000000 0.000000 -1.000000
vn 0.000000 0.000000 -1.000000
vn 1.000000 0.000000 0.000000
vn 1.000000 0.000000 0.000000
vn 1.000000 0.000000 0.000000
vn 1.000000 0.000000 0.000000
vn 0.000000 0.000000 1.000000
vn 0.000000 0.000000 1.000000
vn 0.000000 0.000000 1.000000
vn 0.000000 0.000000 1.000000
vn -1.000000 0.000000 0.000000
vn -1.000000 0.000000 0.000000
vn -1.000000 0.000000 0.000000
vn -1.000000 0.000000 0.000000
vn 0.000000 1.000000 0.000000
vn 0.000000 1.000000 0.000000
vn 0.000000 1.000000 0.000000
vn 0.000000 1.000000 0.000000
vn 0.000000 -1.000000 0.000000
vn 0.000000 -1.000000 0.000000
vn 0.000000 -1.000000 0.000000
vn 0.000000 -1.000000 0.000000
s off
f 1/7/1 2/8/2 8/15/3 7/14/4
f 2/8/5 3/9/6 9/16/7 8/15/8
f 3/9/9 4/10/10 10/17/11 9/16/12
f 4/10/13 5/11/14 11/18/15 10/17/16
f 5/11/17 6/12/18 12/19/19 11/18/20
f 6/12/21 1/13/22 7/20/23 12/19/24
f 2/2/25 1/1/26 13/27/27
f 3/3/28 2/2/29 13/27/30
f 4/4/31 3/3/32 13/27/33
f 5/5/34 4/4/35 13/27/36
f 6/6/37 5/5/38 13/27/39
f 1/1/40 6/6/41 13/27/42
f 7/25/43 8/24/44 14/28/45
f 8/24/46 9/23/47 14/28/48
f 9/23/49 10/22/50 14/28/51
f 10/22/52 11/21/53 14/28/54
f 11/21/55 12/26/56 14/28/57
f 12/26/58 7/25/59 14/28/60
f 15/29/61 16/30/62 18/31/63 17/32/64
f 17/32/65 18/31/66 27/33/67 28/34/68
f 19/35/69 20/36/70 22/37/71 21/38/72
f 29/39/73 30/40/74 16/41/75 15/42/76
f 16/30/77 30/43/78 27/44/79 18/31/80
f 29/45/81 15/29/82 17/32/83 28/46/84
f 24/47/85 23/48/86 20/36/87 19/35/88
f 21/49/89 25/50/90 24/51/91 19/52/92
f 21/38/93 22/37/94 26/53/95 25/54/96
f 23/55/97 26/56/98 22/57/99 20/58/100
f 30/59/101 29/60/102 28/61/103 27/62/104
f 25/63/105 26/64/106 23/65/107 24/66/108
f 31/67/109 32/68/110 34/69/111 33/70/112
f 33/70/113 34/69/114 43/71/115 44/72/116
f 35/73/117 36/74/118 38/75/119 37/76/120
f 45/77/121 46/78/122 32/79/123 31/80/124
f 32/68/125 46/81/126 43/82/127 34/69/128
f 45/83/129 31/67/130 33/70/131 44/84/132
f 40/85/133 39/86/134 36/74/135 35/73/136
f 37/87/137 41/88/138 40/89/139 35/90/140
f 37/76/141 38/75/142 42/91/143 41/92/144
f 39/93/145 42/94/146 38/95/147 36/96/148
f 46/97/149 45/98/150 44/99/151 43/100/152
f 41/101/153 42/102/154 39/103/155 40/104/156
