# This file uses meters as units for non-parametric coordinates.

v 2.810120 0.000000 6.252129
v 2.810120 3.339596 6.252129
v 2.810120 3.339596 0.000000
v -2.810120 3.339596 6.252129
v -2.810120 3.339596 0.000000
v -2.810120 0.000000 6.252129
v 3.344703 5.091627 6.252129
v 3.344703 5.091627 1.898315
v -3.344703 5.091627 1.898315
v -3.344703 5.091627 6.252129
v 2.883806 6.453813 6.252129
v 2.883806 6.453813 2.820412
v -2.883806 6.453813 2.820412
v -2.883806 6.453813 6.252129
v 1.959553 7.753674 6.252129
v 1.959553 7.753674 3.212738
v -1.959553 7.753674 3.212738
v -1.959553 7.753674 6.252129
v -2.810120 0.000000 -5.686790
v 2.810120 0.000000 -5.686790
v -2.810120 3.339596 -6.906807
v 2.810120 3.339596 -6.906807
v 2.810120 1.501295 -5.686790
v -2.810120 1.501295 -5.686790
v -2.483611 1.965889 -7.510841
v 2.483611 1.965889 -7.510841
v -2.483611 2.875011 -7.510841
v 2.483611 2.875011 -7.510841
v -2.393211 0.210736 6.252129
v 2.393211 0.210736 6.252129
v 2.393211 3.128869 6.252129
v -2.393211 3.128869 6.252129
v -2.393211 0.210736 6.677170
v 2.393211 0.210736 6.677170
v 2.393211 1.522563 6.677170
v -2.393211 1.522563 6.677170
v 2.393211 3.128869 6.677170
v -2.393211 3.128869 6.677170
v 2.288352 3.735530 0.360573
v -2.288352 3.735530 0.360573
v -2.723676 5.054086 1.898315
v 2.723676 5.054086 1.898315
v -2.348355 6.418776 2.820412
v 2.348355 6.418776 2.820412
v -1.595714 7.438838 3.109177
v 1.595714 7.438838 3.109177
v 2.288352 3.735530 6.252129
v -2.288352 3.735530 6.252129
v 2.723676 5.054086 6.252129
v -2.723676 5.054086 6.252129
v 2.348355 6.418776 6.252129
v -2.348355 6.418776 6.252129
v 1.595714 7.438838 6.252129
v -1.595714 7.438838 6.252129
v -1.011964 1.878721 6.677170
v -1.848001 1.878721 6.677170
v -1.011964 2.772711 6.677170
v -1.848001 2.772711 6.677170
v 1.981663 1.873997 6.677170
v 1.981663 2.774547 6.677170
v 1.084847 2.770875 6.677170
v 1.084847 1.883454 6.677170
v -1.136618 2.020271 6.930138
v -1.723347 2.020271 6.930138
v -1.136618 2.631166 6.930138
v -1.723347 2.631166 6.930138
v 1.840187 2.017039 6.930138
v 1.840187 2.632411 6.930138
v 1.227363 2.629907 6.930138
v 1.227363 2.023502 6.930138
v -1.111148 2.772711 6.677170
v 0.000000 3.339596 0.000000
v -0.000000 3.339596 -6.906807
v 0.376371 3.659144 -0.625931
v 0.376371 3.659144 -6.242355
v 2.372396 3.659144 -0.625931
v 2.372396 3.659144 -6.242355
v -2.372396 3.659144 -0.625931
v -0.376371 3.659144 -0.625931
v -0.376371 3.659144 -6.242355
v -2.372396 3.659144 -6.242355
v -2.810120 1.501295 -2.056404
v -2.810120 0.000000 -2.056404
v -2.810120 0.000000 4.031952
v -2.810120 2.112118 4.031952
v -2.810120 2.112118 0.105133
v 2.810120 0.000000 4.031952
v 2.810120 0.000000 -2.056404
v 2.810120 1.501295 -2.056404
v 2.810120 2.112118 0.105133
v 2.810120 2.112118 4.031952
vt 0.244820 0.229724
vt 0.244820 0.229724
vt 0.244820 0.229724
vt 0.244820 0.229724
vt 0.244820 0.229724
vt 0.244820 0.229724
vt 0.244820 0.229724
vt 0.244820 0.229724
vt 0.244820 0.229724
vt 0.244820 0.229724
vt 0.244820 0.229724
vt 0.244820 0.229724
vt 0.244820 0.229724
vt 0.244820 0.229724
vt 0.244820 0.229724
vt 0.244820 0.229724
vt 0.244820 0.229724
vt 0.244820 0.229724
vt 0.244820 0.229724
vt 0.244820 0.229724
vt 0.244820 0.229724
vt 0.244820 0.229724
vt 0.244820 0.229724
vt 0.244820 0.229724
vt 0.244820 0.229724
vt 0.244820 0.229724
vt 0.244820 0.229724
vt 0.244820 0.229724
vt 0.244820 0.229724
vt 0.244820 0.229724
vt 0.244820 0.229724
vt 0.244820 0.229724
vt 0.244820 0.229724
vt 0.244820 0.229724
vt 0.244820 0.229724
vt 0.244820 0.229724
vt 0.244820 0.229724
vt 0.244820 0.229724
vt 0.244820 0.229724
vt 0.244820 0.229724
vt 0.244820 0.229724
vt 0.244820 0.229724
vt 0.244820 0.229724
vt 0.244820 0.229724
vt 0.244820 0.229724
vt 0.244820 0.229724
vt 0.244820 0.229724
vt 0.244820 0.229724
vt 0.244820 0.229724
vt 0.244820 0.229724
vt 0.244820 0.229724
vt 0.244820 0.229724
vt 0.244820 0.229724
vt 0.244820 0.229724
vt 0.244820 0.229724
vt 0.244820 0.229724
vt 0.244820 0.229724
vt 0.244820 0.229724
vt 0.244820 0.229724
vt 0.244820 0.229724
vt 0.244820 0.229724
vt 0.244820 0.229724
vt 0.244820 0.229724
vt 0.244820 0.229724
vt 0.244820 0.229724
vt 0.244820 0.229724
vt 0.993834 0.299012
vt 0.993834 0.299012
vt 0.993834 0.299012
vt 0.993834 0.299012
vt 0.993834 0.299012
vt 0.993834 0.299012
vt 0.993834 0.299012
vt 0.993834 0.299012
vt 0.244820 0.229724
vt 0.993834 0.299012
vt 0.993834 0.299012
vt 0.993834 0.299012
vt 0.993834 0.299012
vt 0.993834 0.299012
vt 0.993834 0.299012
vt 0.993834 0.299012
vt 0.993834 0.299012
vt 0.993834 0.299012
vt 0.244820 0.229724
vt 0.244820 0.229724
vt 0.244820 0.229724
vt 0.244820 0.229724
vt 0.244820 0.229724
vt 0.244820 0.229724
vt 0.244820 0.229724
vt 0.244820 0.229724
vt 0.244820 0.229724
vt 0.244820 0.229724
vt 0.244820 0.229724
vt 0.244820 0.229724
vt 0.244820 0.229724
vt 0.244820 0.229724
vt 0.244820 0.229724
vt 0.244820 0.229724
vt 0.244820 0.229724
vt 0.244820 0.229724
vt 0.244820 0.229724
vt 0.244820 0.229724
vt 0.244820 0.229724
vt 0.244820 0.229724
vt 0.244820 0.229724
vt 0.244820 0.229724
vt 0.244820 0.229724
vt 0.244820 0.229724
vt 0.244820 0.229724
vt 0.244820 0.229724
vt 0.244820 0.229724
vt 0.244820 0.229724
vt 0.244820 0.229724
vt 0.244820 0.229724
vt 0.244820 0.229724
vt 0.244820 0.229724
vt 0.244820 0.229724
vt 0.244820 0.229724
vt 0.244820 0.229724
vt 0.244820 0.229724
vt 0.244820 0.229724
vt 0.244820 0.229724
vt 0.244820 0.229724
vt 0.244820 0.229724
vt 0.244820 0.229724
vt 0.244820 0.229724
vt 0.244820 0.229724
vt 0.244820 0.229724
vt 0.244820 0.229724
vt 0.244820 0.229724
vt 0.244820 0.229724
vt 0.244820 0.229724
vt 0.244820 0.229724
vt 0.244820 0.229724
vt 0.244820 0.229724
vt 0.244820 0.229724
vt 0.244820 0.229724
vt 0.244820 0.229724
vt 0.244820 0.229724
vt 0.244820 0.229724
vt 0.244820 0.229724
vt 0.244820 0.229724
vt 0.244820 0.229724
vt 0.244820 0.229724
vt 0.244820 0.229724
vt 0.244820 0.229724
vt 0.244820 0.229724
vt 0.244820 0.229724
vt 0.244820 0.229724
vt 0.244820 0.229724
vt 0.244820 0.229724
vt 0.244820 0.229724
vn 1.000000 -0.000000 0.000000
vn 1.000000 -0.000000 0.000000
vn 1.000000 -0.000000 0.000000
vn 0.000000 1.000000 0.000000
vn 0.000000 1.000000 0.000000
vn 0.000000 1.000000 0.000000
vn 0.000000 1.000000 0.000000
vn 0.000000 0.000000 -1.000000
vn 0.000000 0.000000 -1.000000
vn 0.000000 0.000000 -1.000000
vn 0.000000 0.000000 -1.000000
vn 0.000000 0.000000 1.000000
vn 0.000000 0.000000 1.000000
vn 0.000000 0.000000 1.000000
vn 0.000000 0.000000 1.000000
vn 0.956467 -0.291839 0.000000
vn 0.956467 -0.291839 0.000000
vn 0.956467 -0.291839 0.000000
vn 0.956467 -0.291839 0.000000
vn -0.956467 -0.291839 0.000000
vn -0.956467 -0.291839 0.000000
vn -0.956467 -0.291839 0.000000
vn -0.956467 -0.291839 0.000000
vn 0.947248 0.320502 0.000000
vn 0.947248 0.320502 0.000000
vn 0.947248 0.320502 0.000000
vn 0.947248 0.320502 0.000000
vn -0.947248 0.320502 0.000000
vn -0.947248 0.320502 0.000000
vn -0.947248 0.320502 0.000000
vn -0.947248 0.320502 0.000000
vn 0.814983 0.579485 0.000000
vn 0.814983 0.579485 0.000000
vn 0.814983 0.579485 0.000000
vn 0.814983 0.579485 0.000000
vn -0.814983 0.579485 0.000000
vn -0.814983 0.579485 0.000000
vn -0.814983 0.579485 0.000000
vn -0.814983 0.579485 0.000000
vn 0.000000 1.000000 0.000000
vn 0.000000 1.000000 0.000000
vn 0.000000 1.000000 0.000000
vn 0.000000 1.000000 0.000000
vn 0.000000 0.000000 1.000000
vn 0.000000 0.000000 1.000000
vn 0.000000 0.000000 1.000000
vn 0.000000 0.000000 1.000000
vn 0.000000 0.000000 -1.000000
vn 0.000000 0.000000 -1.000000
vn 0.000000 0.000000 -1.000000
vn 0.000000 0.000000 -1.000000
vn 0.000000 -0.969060 -0.246824
vn 0.000000 -0.969060 -0.246824
vn 0.000000 -0.969060 -0.246824
vn 0.000000 -0.969060 -0.246824
vn -0.959326 -0.114569 -0.258005
vn -0.959326 -0.114569 -0.258005
vn -0.959327 -0.114569 -0.258005
vn -0.959326 -0.114569 -0.258005
vn 0.000000 0.792661 -0.609663
vn 0.000000 0.792661 -0.609663
vn 0.000000 0.792661 -0.609663
vn 0.959326 -0.114569 -0.258005
vn 0.959326 -0.114569 -0.258005
vn 0.959326 -0.114569 -0.258005
vn 0.959326 -0.114569 -0.258005
vn 0.000000 0.000000 1.000000
vn 0.000000 0.000000 1.000000
vn 0.000000 0.000000 1.000000
vn 0.000000 0.000000 1.000000
vn 0.000001 0.000000 1.000000
vn 0.000001 0.000000 1.000000
vn 0.000001 0.000000 1.000000
vn 0.000001 0.000000 1.000000
vn 0.000000 0.000000 1.000000
vn 0.000000 0.000000 1.000000
vn 0.000000 0.000000 1.000000
vn 0.000000 0.000000 1.000000
vn -0.000001 0.000000 1.000000
vn -0.000001 0.000000 1.000000
vn -0.000001 0.000000 1.000000
vn -0.000001 0.000000 1.000000
vn 0.000000 -1.000000 0.000000
vn 0.000000 -1.000000 0.000000
vn 0.000000 -1.000000 0.000000
vn 0.000000 -1.000000 0.000000
vn 1.000000 0.000000 0.000000
vn 1.000000 0.000000 0.000000
vn 1.000000 0.000000 0.000000
vn 1.000000 0.000000 0.000000
vn 1.000000 0.000000 0.000000
vn 0.000000 1.000000 0.000000
vn 0.000000 1.000000 0.000000
vn 0.000000 1.000000 0.000000
vn 0.000000 1.000000 0.000000
vn -1.000000 0.000000 0.000000
vn -1.000000 0.000000 0.000000
vn -1.000000 0.000000 0.000000
vn -1.000000 0.000000 0.000000
vn -1.000000 0.000000 0.000000
vn 0.000000 0.673320 -0.739352
vn 0.000000 0.673319 -0.739352
vn 0.000000 0.673320 -0.739352
vn -0.021578 0.742441 -0.669563
vn -0.021578 0.742441 -0.669564
vn -0.021578 0.742441 -0.669563
vn -0.021578 0.742441 -0.669564
vn 0.021578 0.742441 -0.669564
vn 0.021578 0.742441 -0.669564
vn 0.021578 0.742441 -0.669564
vn 0.021578 0.742441 -0.669564
vn 0.034678 0.552558 -0.832753
vn 0.034678 0.552558 -0.832753
vn 0.034678 0.552558 -0.832753
vn 0.034678 0.552558 -0.832753
vn -0.034678 0.552558 -0.832753
vn -0.034678 0.552558 -0.832753
vn -0.034678 0.552558 -0.832753
vn -0.034678 0.552558 -0.832752
vn -0.000703 0.282162 -0.959366
vn -0.000703 0.282162 -0.959366
vn -0.000703 0.282162 -0.959366
vn -0.000703 0.282162 -0.959366
vn 0.000000 0.312467 -0.949928
vn 0.000000 0.312467 -0.949928
vn 0.000000 0.312467 -0.949928
vn 0.000000 0.312467 -0.949928
vn 0.000703 0.282162 -0.959366
vn 0.000703 0.282162 -0.959366
vn 0.000703 0.282162 -0.959366
vn 0.000703 0.282162 -0.959366
vn 0.000000 0.000000 1.000000
vn 0.000000 0.000000 1.000000
vn 0.000000 0.000000 1.000000
vn 0.000000 0.000000 1.000000
vn 0.000000 0.000000 1.000000
vn 0.000000 0.000000 1.000000
vn 0.000000 0.000000 1.000000
vn 0.000000 0.000000 1.000000
vn -0.000000 0.000000 1.000000
vn -0.000000 0.000000 1.000000
vn -0.000000 0.000000 1.000000
vn -0.000000 0.000000 1.000000
vn -0.000000 0.000000 1.000000
vn -0.000000 0.000000 1.000000
vn -0.000000 0.000000 1.000000
vn -0.000000 0.000000 1.000000
vn 0.000000 0.000000 1.000000
vn 0.000000 0.000000 1.000000
vn 0.000000 0.000000 1.000000
vn 0.000000 0.000000 1.000000
vn 0.000000 0.000000 1.000000
vn 0.000000 0.000000 1.000000
vn 0.000000 0.000000 1.000000
vn 0.000000 0.000000 1.000000
vn 0.000000 0.000000 1.000000
vn 0.000000 0.000000 1.000000
vn 0.000000 0.000000 1.000000
vn 0.000000 0.000000 1.000000
vn 0.000000 0.000000 1.000000
vn 0.000000 0.000000 1.000000
vn 0.000000 0.000000 1.000000
vn 0.000000 0.000000 1.000000
vn -0.949586 0.313508 0.000000
vn -0.949586 0.313508 0.000000
vn -0.949586 0.313508 0.000000
vn -0.949586 0.313508 0.000000
vn -0.964200 -0.265177 0.000000
vn -0.964200 -0.265177 0.000000
vn -0.964200 -0.265177 0.000000
vn -0.964200 -0.265177 0.000000
vn 0.000000 -1.000000 0.000000
vn 0.000000 -1.000000 0.000000
vn 0.000000 -1.000000 0.000000
vn 0.000000 -1.000000 0.000000
vn -0.804673 -0.593718 0.000000
vn -0.804673 -0.593719 0.000000
vn -0.804673 -0.593719 0.000000
vn -0.804673 -0.593719 0.000000
vn 0.000000 1.000000 0.000000
vn 0.000000 1.000000 0.000000
vn 0.000000 1.000000 0.000000
vn 0.000000 1.000000 0.000000
vn 0.949586 0.313508 0.000000
vn 0.949586 0.313508 0.000000
vn 0.949586 0.313508 0.000000
vn 0.949586 0.313508 0.000000
vn 0.964200 -0.265177 0.000000
vn 0.964200 -0.265177 0.000000
vn 0.964200 -0.265177 0.000000
vn 0.964200 -0.265177 0.000000
vn 0.804673 -0.593719 0.000000
vn 0.804673 -0.593719 0.000000
vn 0.804673 -0.593719 0.000000
vn 0.804673 -0.593719 0.000000
vn 0.000000 0.000000 1.000000
vn 0.000000 0.000000 1.000000
vn 0.000000 0.000000 1.000000
vn -0.000001 0.000000 1.000000
vn -0.000001 0.000000 1.000000
vn -0.000001 0.000000 1.000000
vn -0.000001 0.000000 1.000000
vn 0.000000 0.000000 1.000000
vn 0.000000 0.000000 1.000000
vn 0.000000 0.000000 1.000000
vn -0.000002 0.000000 1.000000
vn -0.000002 0.000000 1.000000
vn -0.000002 0.000000 1.000000
vn -0.000002 0.000000 1.000000
vn -0.000000 0.000000 1.000000
vn -0.000000 0.000000 1.000000
vn -0.000000 0.000000 1.000000
vn -0.000000 0.000000 1.000000
vn 0.000000 0.000000 1.000000
vn 0.000000 0.000000 1.000000
vn 0.000000 0.000000 1.000000
vn -0.000000 0.000000 1.000000
vn -0.000000 0.000000 1.000000
vn -0.000000 0.000000 1.000000
vn -0.000000 0.000000 1.000000
vn 0.000000 0.000000 1.000000
vn 0.000000 0.000000 1.000000
vn 0.000000 0.000000 1.000000
vn 0.000000 -0.872671 0.488308
vn 0.000000 -0.872671 0.488308
vn 0.000000 -0.872671 0.488308
vn 0.000000 -0.872671 0.488308
vn 0.897008 0.000000 0.442014
vn 0.897008 0.000000 0.442014
vn 0.897008 0.000000 0.442014
vn 0.897008 0.000000 0.442014
vn 0.000000 0.872678 0.488297
vn 0.000000 0.872678 0.488297
vn 0.000000 0.872678 0.488297
vn 0.000000 0.872678 0.488297
vn 0.000000 0.872678 0.488297
vn -0.897008 0.000000 0.442014
vn -0.897008 0.000000 0.442014
vn -0.897008 0.000000 0.442014
vn -0.897008 0.000000 0.442014
vn 0.872779 0.000000 0.488115
vn 0.872779 0.000000 0.488115
vn 0.872779 0.000000 0.488115
vn 0.872779 0.000000 0.488115
vn -0.003570 0.872659 0.488317
vn -0.003570 0.872659 0.488317
vn -0.003570 0.872659 0.488317
vn -0.003570 0.872659 0.488317
vn -0.871250 0.000000 0.490840
vn -0.871250 0.000000 0.490840
vn -0.871250 0.000000 0.490840
vn -0.871250 0.000000 0.490840
vn -0.009203 -0.872633 0.488290
vn -0.009203 -0.872633 0.488290
vn -0.009203 -0.872633 0.488290
vn -0.009203 -0.872633 0.488290
vn -1.000000 -0.000000 0.000000
vn -1.000000 -0.000000 0.000000
vn -1.000000 -0.000000 0.000000
vn 0.000000 0.000000 1.000000
vn 0.000000 0.000000 1.000000
vn 0.000000 0.000000 1.000000
vn 0.000000 0.000000 1.000000
vn 0.000000 0.000000 1.000000
vn 0.000000 0.000000 1.000000
vn 0.000000 0.000000 1.000000
vn 0.000002 0.000000 1.000000
vn 0.000002 0.000000 1.000000
vn 0.000002 0.000000 1.000000
vn 0.000000 0.000000 1.000000
vn 0.000000 0.000000 1.000000
vn 0.000000 0.000000 1.000000
vn 0.000000 0.673319 -0.739352
vn 0.000000 0.673320 -0.739352
vn 0.000000 0.673320 -0.739352
vn 0.000000 1.000000 0.000000
vn 0.000000 1.000000 0.000000
vn 0.000000 1.000000 0.000000
vn 0.000000 1.000000 0.000000
vn 0.000000 0.792661 -0.609663
vn 0.000000 0.792661 -0.609663
vn 0.000000 0.792661 -0.609663
vn 0.000000 0.673319 -0.739352
vn 0.000000 0.673319 -0.739352
vn 0.000000 0.673319 -0.739352
vn 0.000000 0.792661 -0.609663
vn 0.000000 0.792660 -0.609663
vn 0.000000 0.792661 -0.609663
vn -0.647217 0.762305 0.000000
vn -0.647217 0.762305 0.000000
vn -0.647217 0.762305 0.000000
vn -0.647217 0.762305 0.000000
vn 0.000000 0.890649 0.454692
vn 0.000000 0.890649 0.454692
vn 0.000000 0.890649 0.454692
vn 0.000000 0.890649 0.454692
vn 0.589624 0.807678 0.000000
vn 0.589624 0.807678 0.000000
vn 0.589624 0.807678 0.000000
vn 0.589624 0.807678 0.000000
vn 0.000000 0.901199 -0.433406
vn 0.000000 0.901199 -0.433406
vn 0.000000 0.901199 -0.433406
vn 0.000000 0.901199 -0.433406
vn 0.000000 0.890649 0.454692
vn 0.000000 0.890649 0.454692
vn 0.000000 0.890649 0.454692
vn 0.000000 0.890649 0.454692
vn 0.647217 0.762305 0.000000
vn 0.647217 0.762305 0.000000
vn 0.647217 0.762305 0.000000
vn 0.647217 0.762305 0.000000
vn 0.000000 0.901199 -0.433406
vn 0.000000 0.901199 -0.433406
vn 0.000000 0.901199 -0.433406
vn 0.000000 0.901199 -0.433406
vn -0.589624 0.807678 0.000000
vn -0.589624 0.807678 0.000000
vn -0.589624 0.807678 0.000000
vn -0.589624 0.807678 0.000000
vn -1.000000 0.000000 0.000000
vn -1.000000 0.000000 0.000000
vn -1.000000 0.000000 0.000000
vn -1.000000 0.000000 0.000000
vn -1.000000 0.000000 0.000000
vn -1.000000 0.000000 0.000000
vn -1.000000 0.000000 0.000000
vn -1.000000 0.000000 0.000000
vn -1.000000 0.000000 0.000000
vn -1.000000 0.000000 0.000000
vn -1.000000 0.000000 0.000000
vn -1.000000 0.000000 0.000000
vn -1.000000 0.000000 0.000000
vn -1.000000 0.000000 0.000000
vn -1.000000 0.000000 0.000000
vn -1.000000 0.000000 0.000000
vn 0.000000 -1.000000 0.000000
vn 0.000000 -1.000000 0.000000
vn 0.000000 -1.000000 0.000000
vn 0.000000 -1.000000 0.000000
vn 0.000000 -1.000000 0.000000
vn 0.000000 -1.000000 0.000000
vn 0.000000 -1.000000 0.000000
vn 0.000000 -1.000000 0.000000
vn 1.000000 0.000000 0.000000
vn 1.000000 0.000000 0.000000
vn 1.000000 0.000000 0.000000
vn 1.000000 0.000000 0.000000
vn 1.000000 0.000000 0.000000
vn 1.000000 0.000000 0.000000
vn 1.000000 0.000000 0.000000
vn 1.000000 0.000000 0.000000
vn 1.000000 0.000000 0.000000
vn 1.000000 0.000000 0.000000
vn 1.000000 0.000000 0.000000
vn 1.000000 0.000000 0.000000
vn 1.000000 0.000000 0.000000
vn 1.000000 0.000000 0.000000
vn 1.000000 0.000000 0.000000
vn 1.000000 0.000000 0.000000
vn 0.000000 0.000000 1.000000
vn 0.000000 0.000000 1.000000
vn 0.000000 0.000000 1.000000
vn 0.000000 0.000000 1.000000
vn 0.000000 -0.962315 0.271938
vn 0.000000 -0.962315 0.271938
vn 0.000000 -0.962315 0.271938
vn 0.000000 -0.962315 0.271938
vn 0.000000 -1.000000 0.000000
vn 0.000000 -1.000000 0.000000
vn 0.000000 -1.000000 0.000000
vn 0.000000 -1.000000 0.000000
vn 0.000000 0.000000 -1.000000
vn 0.000000 0.000000 -1.000000
vn 0.000000 0.000000 -1.000000
vn 0.000000 0.000000 -1.000000
s off
f 3/3/1 23/27/2 22/26/3
f 15/19/4 16/20/5 17/21/6 18/22/7
f 20/23/8 19/24/9 24/28/10 23/27/11
f 33/37/12 34/38/13 35/39/14 36/40/15
f 2/2/16 3/3/17 8/12/18 7/11/19
f 5/5/20 4/4/21 10/14/22 9/13/23
f 7/11/24 8/12/25 12/16/26 11/15/27
f 9/13/28 10/14/29 14/18/30 13/17/31
f 11/15/32 12/16/33 16/20/34 15/19/35
f 13/17/36 14/18/37 18/22/38 17/21/39
f 78/136/40 79/137/41 80/138/42 81/139/43
f 64/67/44 63/68/45 65/69/46 66/70/47
f 26/29/48 25/30/49 27/31/50 28/32/51
f 23/27/52 24/28/53 25/30/54 26/29/55
f 24/28/56 21/25/57 27/31/58 25/30/59
f 21/25/60 73/131/61 27/31/62
f 22/26/63 23/27/64 26/29/65 28/32/66
f 6/9/67 1/1/68 30/34/69 29/33/70
f 30/34/71 1/1/72 2/2/73 31/35/74
f 2/2/75 4/10/76 32/36/77 31/35/78
f 32/36/79 4/10/80 6/9/81 29/33/82
f 29/33/83 30/34/84 34/38/85 33/37/86
f 35/39/87 34/38/88 30/34/89 31/35/90 37/41/91
f 31/35/92 32/36/93 38/42/94 37/41/95
f 36/40/96 38/42/97 32/36/98 29/33/99 33/37/100
f 40/44/101 72/130/102 5/5/103
f 5/5/104 9/13/105 41/45/106 40/44/107
f 8/12/108 3/3/109 39/43/110 42/46/111
f 9/85/112 13/86/113 43/48/114 41/47/115
f 12/87/116 8/88/117 42/49/118 44/89/119
f 13/90/120 17/91/121 45/92/122 43/50/123
f 17/93/124 16/94/125 46/51/126 45/95/127
f 16/96/128 12/97/129 44/98/130 46/52/131
f 4/99/132 2/100/133 47/53/134 48/101/135
f 2/102/136 7/103/137 49/104/138 47/54/139
f 10/105/140 4/106/141 48/55/142 50/107/143
f 7/108/144 11/109/145 51/56/146 49/110/147
f 14/111/148 10/112/149 50/113/150 52/114/151
f 11/15/152 15/19/153 53/57/154 51/115/155
f 15/19/156 18/22/157 54/58/158 53/57/159
f 18/22/160 14/18/161 52/116/162 54/58/163
f 42/46/164 39/43/165 47/54/166 49/117/167
f 44/118/168 42/49/169 49/119/170 51/56/171
f 45/120/172 46/51/173 53/57/174 54/58/175
f 46/52/176 44/121/177 51/122/178 53/57/179
f 40/44/180 48/123/181 47/53/182 39/43/183
f 41/45/184 50/124/185 48/55/186 40/44/187
f 43/48/188 52/125/189 50/126/190 41/47/191
f 45/127/192 54/58/193 52/128/194 43/50/195
f 36/40/196 35/39/197 55/60/198
f 67/71/199 68/72/200 69/73/201 70/74/202
f 71/75/203 38/42/204 58/62/205
f 38/42/206 36/40/207 56/59/208 58/62/209
f 35/39/210 37/41/211 60/64/212 59/63/213
f 37/41/214 57/61/215 61/65/216
f 57/61/217 55/60/218 62/66/219 61/65/220
f 62/66/221 35/39/222 59/63/223
f 56/76/224 55/77/225 63/68/226 64/67/227
f 55/77/228 57/78/229 65/69/230 63/68/231
f 57/78/232 71/79/233 58/80/234 66/70/235 65/69/236
f 58/80/237 56/76/238 64/67/239 66/70/240
f 59/81/241 60/82/242 68/72/243 67/71/244
f 60/82/245 61/83/246 69/73/247 68/72/248
f 61/83/249 62/84/250 70/74/251 69/73/252
f 62/84/253 59/81/254 67/71/255 70/74/256
f 24/28/257 5/8/258 21/25/259
f 37/41/260 38/42/261 71/75/262 57/61/263
f 36/40/264 55/60/265 56/59/266
f 37/41/267 61/65/268 60/64/269
f 55/60/270 35/39/271 62/66/272
f 3/3/273 72/130/274 39/43/275
f 75/132/276 74/133/277 76/134/278 77/135/279
f 28/32/280 73/131/281 22/26/282
f 39/43/283 72/130/284 40/44/285
f 27/31/286 73/131/287 28/32/288
f 73/131/289 72/129/290 74/133/291 75/132/292
f 72/129/293 3/3/294 76/134/295 74/133/296
f 3/3/297 22/26/298 77/135/299 76/134/300
f 22/26/301 73/131/302 75/132/303 77/135/304
f 5/8/305 72/129/306 79/137/307 78/136/308
f 72/129/309 73/131/310 80/138/311 79/137/312
f 73/131/313 21/25/314 81/139/315 80/138/316
f 21/25/317 5/8/318 78/136/319 81/139/320
f 24/28/321 19/24/322 83/141/323 82/140/324
f 6/6/325 4/4/326 85/143/327 84/142/328
f 4/4/329 5/8/330 86/144/331 85/143/332
f 5/8/333 24/28/334 82/140/335 86/144/336
f 1/7/337 6/6/338 84/142/339 87/145/340
f 19/24/341 20/23/342 88/146/343 83/141/344
f 20/23/345 23/27/346 89/147/347 88/146/348
f 23/27/349 3/3/350 90/148/351 89/147/352
f 3/3/353 2/2/354 91/149/355 90/148/356
f 2/2/357 1/1/358 87/150/359 91/149/360
f 88/146/361 89/147/362 82/151/363 83/141/364
f 89/147/365 90/148/366 86/152/367 82/151/368
f 90/148/369 91/149/370 85/153/371 86/152/372
f 91/149/373 87/150/374 84/154/375 85/153/376
