# This file uses meters as units for non-parametric coordinates.

v 1.904405 -1.904402 22.104607
v -0.000000 -2.693232 22.104607
v -1.904406 -1.904402 22.104607
v -2.693237 0.000006 22.104609
v -1.904406 1.904413 22.104607
v -0.000000 2.693247 22.104610
v 1.904405 1.904413 22.104607
v 2.693238 0.000006 22.104609
v 0.914442 -0.914438 -0.000001
v 0.000000 -1.293213 0.000000
v -0.914442 -0.914438 -0.000001
v -1.293216 0.000002 0.000000
v -0.914442 0.914448 -0.000001
v 0.000000 1.293221 0.000000
v 0.914442 0.914448 -0.000001
v 1.293216 0.000002 0.000000
v 0.000000 0.000002 0.000000
v -2.693237 0.000002 2.242250
v -1.904406 1.904411 2.242249
v -0.000000 2.693243 2.242246
v 1.904405 1.904411 2.242249
v 2.693238 0.000002 2.242250
v 1.904405 -1.904402 2.242249
v -0.000000 -2.693233 2.242249
v -1.904406 -1.904402 2.242249
v 0.000000 -1.293213 1.466860
v 0.914442 -0.914438 1.466859
v 1.293216 0.000002 1.466860
v 0.914442 0.914448 1.466859
v 0.000000 1.293221 1.466860
v -0.914442 0.914448 1.466859
v -1.293216 0.000002 1.466860
v -0.914442 -0.914438 1.466859
v 0.000000 -1.293213 0.733431
v 0.914442 -0.914438 0.733430
v 1.293216 0.000002 0.733431
v 0.914442 0.914448 0.733430
v 0.000000 1.293221 0.733431
v -0.914442 0.914448 0.733430
v -1.293216 0.000002 0.733431
v -0.914442 -0.914438 0.733430
v -1.436579 0.000002 1.100145
v -1.015815 1.015820 1.100144
v -0.000000 1.436584 1.100144
v 1.015815 1.015821 1.100145
v 1.436579 0.000002 1.100145
v 1.015815 -1.015812 1.100144
v -0.000000 -1.436577 1.100144
v -1.015815 -1.015812 1.100144
v -0.000000 -1.436577 0.366714
v 1.015815 -1.015812 0.366714
v 1.436579 0.000002 0.366714
v 1.015815 1.015821 0.366714
v -0.000000 1.436584 0.366714
v -1.015815 1.015820 0.366714
v -1.436579 0.000002 0.366714
v -1.015815 -1.015812 0.366714
v 1.272305 -1.272299 22.908146
v -0.000000 -1.799311 22.908142
v -1.272305 -1.272299 22.908146
v -1.799311 0.000002 22.908144
v -1.272305 1.272310 22.908142
v -0.000000 1.799314 22.908142
v 1.272305 1.272310 22.908142
v 1.799311 0.000002 22.908144
v 0.877377 -0.877375 22.908146
v 0.000000 -1.240793 22.908140
v 0.000000 0.000002 22.908144
v -0.877377 -0.877375 22.908146
v -1.240798 0.000002 22.908144
v -0.877377 0.877378 22.908142
v 0.000000 1.240808 22.908142
v 0.877377 0.877378 22.908142
v 1.240798 0.000002 22.908144
vt 0.246455 0.232421
vt 0.246455 0.232421
vt 0.246455 0.232421
vt 0.246455 0.232421
vt 0.246455 0.232421
vt 0.246455 0.232421
vt 0.246455 0.232421
vt 0.246455 0.232421
vt 0.246455 0.232421
vt 0.246455 0.232421
vt 0.246455 0.232421
vt 0.246455 0.232421
vt 0.246455 0.232421
vt 0.246455 0.232421
vt 0.246455 0.232421
vt 0.246455 0.232421
vt 0.246455 0.232421
vt 0.233819 0.229622
vt 0.233819 0.229622
vt 0.233819 0.229622
vt 0.233819 0.229622
vt 0.233819 0.229622
vt 0.233819 0.229622
vt 0.233819 0.229622
vt 0.233819 0.229622
vt 0.233819 0.229622
vt 0.233819 0.229622
vt 0.233819 0.229622
vt 0.233819 0.229622
vt 0.233819 0.229622
vt 0.233819 0.229622
vt 0.233819 0.229622
vt 0.233819 0.229622
vt 0.233819 0.229622
vt 0.012180 0.013066
vt 0.233819 0.229622
vt 0.246455 0.232421
vt 0.246455 0.232421
vt 0.246455 0.232421
vt 0.246455 0.232421
vt 0.246455 0.232421
vt 0.246455 0.232421
vt 0.246455 0.232421
vt 0.246455 0.232421
vt 0.246455 0.232421
vt 0.246455 0.232421
vt 0.246455 0.232421
vt 0.246455 0.232421
vt 0.246455 0.232421
vt 0.246455 0.232421
vt 0.246455 0.232421
vt 0.246455 0.232421
vt 0.246455 0.232421
vt 0.246455 0.232421
vt 0.233819 0.229622
vt 0.233819 0.229622
vt 0.233819 0.229622
vt 0.233819 0.229622
vt 0.233819 0.229622
vt 0.233819 0.229622
vt 0.233819 0.229622
vt 0.233819 0.229622
vt 0.233819 0.229622
vt 0.233819 0.229622
vt 0.233819 0.229622
vt 0.233819 0.229622
vt 0.233819 0.229622
vt 0.233819 0.229622
vt 0.233819 0.229622
vt 0.233819 0.229622
vt 0.233819 0.229622
vt 0.233819 0.229622
vt 0.233819 0.229622
vt 0.233819 0.229622
vt 0.233819 0.229622
vt 0.233819 0.229622
vt 0.233819 0.229622
vt 0.012180 0.013066
vt 0.012180 0.013066
vt 0.012180 0.013066
vt 0.012180 0.013066
vt 0.246455 0.232421
vt 0.246455 0.232421
vt 0.246455 0.232421
vt 0.246455 0.232421
vt 0.246455 0.232421
vt 0.246455 0.232421
vt 0.246455 0.232421
vt 0.246455 0.232421
vt 0.246455 0.232421
vt 0.246455 0.232421
vt 0.246455 0.232421
vt 0.246455 0.232421
vt 0.246455 0.232421
vt 0.246455 0.232421
vt 0.246455 0.232421
vt 0.246455 0.232421
vt 0.012180 0.013066
vt 0.012180 0.013066
vt 0.012180 0.013066
vt 0.012180 0.013066
vn 0.196762 -0.475026 -0.857692
vn 0.196762 -0.475026 -0.857692
vn 0.196762 -0.475026 -0.857692
vn 0.196762 -0.475026 -0.857692
vn -0.196762 -0.475026 -0.857692
vn -0.196762 -0.475026 -0.857692
vn -0.196762 -0.475026 -0.857692
vn -0.196762 -0.475026 -0.857692
vn -0.475026 -0.196762 -0.857692
vn -0.475026 -0.196762 -0.857692
vn -0.475026 -0.196762 -0.857692
vn -0.475026 -0.196762 -0.857692
vn -0.475026 0.196761 -0.857692
vn -0.475026 0.196761 -0.857692
vn -0.475026 0.196761 -0.857692
vn -0.475026 0.196761 -0.857692
vn -0.196762 0.475024 -0.857692
vn -0.196762 0.475024 -0.857692
vn -0.196762 0.475024 -0.857692
vn -0.196762 0.475024 -0.857692
vn 0.196762 0.475024 -0.857693
vn 0.196762 0.475024 -0.857693
vn 0.196762 0.475024 -0.857693
vn 0.196762 0.475024 -0.857692
vn 0.475026 0.196762 -0.857692
vn 0.475026 0.196762 -0.857692
vn 0.475026 0.196762 -0.857692
vn 0.475026 0.196762 -0.857692
vn 0.475026 -0.196762 -0.857692
vn 0.475026 -0.196762 -0.857692
vn 0.475026 -0.196762 -0.857692
vn 0.475026 -0.196762 -0.857692
vn -0.000007 -0.000003 1.000000
vn -0.000007 -0.000003 1.000000
vn -0.000007 -0.000003 1.000000
vn 0.000007 -0.000003 1.000000
vn 0.000007 -0.000003 1.000000
vn 0.000007 -0.000003 1.000000
vn 0.000000 0.000002 1.000000
vn 0.000000 0.000002 1.000000
vn 0.000000 0.000002 1.000000
vn 0.000000 0.000002 1.000000
vn 0.000000 0.000002 1.000000
vn 0.000000 0.000002 1.000000
vn 0.000000 0.000002 1.000000
vn 0.000000 0.000002 1.000000
vn 0.000000 0.000002 1.000000
vn 0.000000 0.000002 1.000000
vn 0.000000 0.000002 1.000000
vn 0.000000 0.000002 1.000000
vn 0.000000 0.000002 1.000000
vn 0.000000 0.000002 1.000000
vn 0.000000 0.000002 1.000000
vn 0.000000 0.000002 1.000000
vn 0.000000 0.000002 1.000000
vn 0.000000 0.000002 1.000000
vn -0.000001 0.000000 -1.000000
vn -0.000001 0.000000 -1.000000
vn -0.000001 0.000000 -1.000000
vn 0.000001 0.000000 -1.000000
vn 0.000001 0.000000 -1.000000
vn 0.000001 0.000000 -1.000000
vn 0.000000 0.000001 -1.000000
vn 0.000000 0.000001 -1.000000
vn 0.000000 0.000001 -1.000000
vn 0.000000 -0.000001 -1.000000
vn 0.000000 -0.000001 -1.000000
vn 0.000000 -0.000001 -1.000000
vn 0.000001 0.000000 -1.000000
vn 0.000001 0.000000 -1.000000
vn 0.000001 0.000000 -1.000000
vn -0.000001 0.000000 -1.000000
vn -0.000001 0.000000 -1.000000
vn -0.000001 0.000000 -1.000000
vn 0.000000 -0.000001 -1.000000
vn 0.000000 -0.000001 -1.000000
vn 0.000000 -0.000001 -1.000000
vn 0.000000 0.000001 -1.000000
vn 0.000000 0.000001 -1.000000
vn 0.000000 0.000001 -1.000000
vn -0.923880 0.382683 -0.000000
vn -0.923880 0.382683 -0.000000
vn -0.923880 0.382683 -0.000000
vn -0.923880 0.382683 -0.000000
vn -0.382684 0.923879 -0.000000
vn -0.382684 0.923879 -0.000000
vn -0.382684 0.923879 -0.000000
vn -0.382684 0.923879 -0.000000
vn 0.382684 0.923879 -0.000000
vn 0.382684 0.923879 -0.000000
vn 0.382684 0.923879 -0.000000
vn 0.382684 0.923879 -0.000000
vn 0.923879 0.382684 -0.000000
vn 0.923879 0.382684 -0.000000
vn 0.923879 0.382684 -0.000000
vn 0.923879 0.382684 -0.000000
vn 0.923879 -0.382684 0.000000
vn 0.923879 -0.382684 0.000000
vn 0.923879 -0.382684 0.000000
vn 0.923879 -0.382684 0.000000
vn 0.382684 -0.923880 0.000000
vn 0.382684 -0.923880 0.000000
vn 0.382684 -0.923880 0.000000
vn 0.382684 -0.923880 0.000000
vn -0.382683 -0.923880 0.000000
vn -0.382683 -0.923880 0.000000
vn -0.382683 -0.923880 0.000000
vn -0.382683 -0.923880 0.000000
vn -0.923879 -0.382684 0.000000
vn -0.923879 -0.382684 0.000000
vn -0.923879 -0.382684 0.000000
vn -0.923879 -0.382684 0.000000
vn 0.359926 -0.868938 -0.339705
vn 0.359927 -0.868938 -0.339705
vn 0.359926 -0.868938 -0.339705
vn 0.359926 -0.868938 -0.339705
vn 0.868939 -0.359927 -0.339703
vn 0.868939 -0.359927 -0.339703
vn 0.868939 -0.359927 -0.339703
vn 0.868939 -0.359927 -0.339703
vn 0.868940 0.359925 -0.339703
vn 0.868940 0.359925 -0.339703
vn 0.868940 0.359925 -0.339703
vn 0.868940 0.359925 -0.339703
vn 0.359925 0.868939 -0.339704
vn 0.359925 0.868939 -0.339704
vn 0.359925 0.868939 -0.339704
vn 0.359925 0.868939 -0.339704
vn -0.359926 0.868939 -0.339703
vn -0.359926 0.868939 -0.339703
vn -0.359926 0.868939 -0.339703
vn -0.359926 0.868939 -0.339703
vn -0.868940 0.359925 -0.339703
vn -0.868940 0.359925 -0.339703
vn -0.868940 0.359925 -0.339703
vn -0.868940 0.359925 -0.339703
vn -0.868939 -0.359926 -0.339703
vn -0.868939 -0.359926 -0.339703
vn -0.868939 -0.359926 -0.339703
vn -0.868939 -0.359926 -0.339703
vn -0.359927 -0.868938 -0.339705
vn -0.359927 -0.868938 -0.339705
vn -0.359926 -0.868938 -0.339705
vn -0.359926 -0.868938 -0.339705
vn 0.359927 -0.868939 0.339702
vn 0.359927 -0.868939 0.339702
vn 0.359927 -0.868939 0.339702
vn 0.359927 -0.868939 0.339702
vn 0.868939 -0.359927 0.339702
vn 0.868939 -0.359927 0.339702
vn 0.868939 -0.359927 0.339702
vn 0.868939 -0.359927 0.339702
vn 0.868940 0.359925 0.339702
vn 0.868940 0.359925 0.339702
vn 0.868940 0.359925 0.339702
vn 0.868940 0.359925 0.339702
vn 0.359925 0.868940 0.339702
vn 0.359925 0.868940 0.339702
vn 0.359925 0.868940 0.339702
vn 0.359925 0.868940 0.339702
vn -0.359927 0.868940 0.339700
vn -0.359927 0.868940 0.339700
vn -0.359927 0.868940 0.339700
vn -0.359927 0.868940 0.339700
vn -0.868940 0.359926 0.339701
vn -0.868940 0.359926 0.339701
vn -0.868940 0.359926 0.339701
vn -0.868940 0.359926 0.339701
vn -0.868939 -0.359927 0.339702
vn -0.868939 -0.359927 0.339702
vn -0.868939 -0.359927 0.339702
vn -0.868939 -0.359927 0.339702
vn -0.359927 -0.868939 0.339702
vn -0.359927 -0.868939 0.339702
vn -0.359927 -0.868939 0.339702
vn -0.359927 -0.868939 0.339702
vn -0.868940 0.359925 0.339703
vn -0.868940 0.359925 0.339703
vn -0.868940 0.359925 0.339703
vn -0.868940 0.359925 0.339703
vn -0.359926 0.868940 0.339702
vn -0.359926 0.868939 0.339702
vn -0.359926 0.868939 0.339702
vn -0.359926 0.868939 0.339702
vn 0.359925 0.868939 0.339704
vn 0.359925 0.868939 0.339704
vn 0.359925 0.868939 0.339704
vn 0.359925 0.868939 0.339704
vn 0.868939 0.359925 0.339704
vn 0.868939 0.359925 0.339704
vn 0.868939 0.359925 0.339704
vn 0.868939 0.359925 0.339704
vn 0.868938 -0.359927 0.339703
vn 0.868938 -0.359927 0.339703
vn 0.868939 -0.359927 0.339703
vn 0.868939 -0.359927 0.339703
vn 0.359927 -0.868938 0.339704
vn 0.359927 -0.868938 0.339704
vn 0.359927 -0.868938 0.339704
vn 0.359927 -0.868938 0.339704
vn -0.359927 -0.868938 0.339704
vn -0.359927 -0.868938 0.339704
vn -0.359927 -0.868939 0.339704
vn -0.359927 -0.868939 0.339704
vn -0.868939 -0.359927 0.339703
vn -0.868939 -0.359927 0.339703
vn -0.868939 -0.359927 0.339703
vn -0.868939 -0.359927 0.339703
vn 0.359926 -0.868938 -0.339705
vn 0.359926 -0.868938 -0.339705
vn 0.359926 -0.868938 -0.339705
vn 0.359926 -0.868938 -0.339705
vn 0.868939 -0.359927 -0.339703
vn 0.868939 -0.359927 -0.339703
vn 0.868939 -0.359927 -0.339703
vn 0.868939 -0.359927 -0.339703
vn 0.868940 0.359925 -0.339703
vn 0.868940 0.359925 -0.339703
vn 0.868940 0.359925 -0.339703
vn 0.868940 0.359925 -0.339703
vn 0.359925 0.868939 -0.339704
vn 0.359925 0.868939 -0.339704
vn 0.359925 0.868939 -0.339704
vn 0.359925 0.868939 -0.339704
vn -0.359926 0.868939 -0.339703
vn -0.359926 0.868939 -0.339703
vn -0.359926 0.868939 -0.339703
vn -0.359926 0.868939 -0.339703
vn -0.868940 0.359925 -0.339703
vn -0.868940 0.359925 -0.339703
vn -0.868940 0.359925 -0.339703
vn -0.868940 0.359925 -0.339703
vn -0.868939 -0.359926 -0.339703
vn -0.868939 -0.359926 -0.339703
vn -0.868939 -0.359926 -0.339703
vn -0.868939 -0.359926 -0.339703
vn -0.359926 -0.868938 -0.339705
vn -0.359926 -0.868938 -0.339705
vn -0.359926 -0.868938 -0.339705
vn -0.359926 -0.868938 -0.339705
vn 0.266863 -0.644264 0.716735
vn 0.266863 -0.644264 0.716735
vn 0.266863 -0.644264 0.716735
vn 0.266863 -0.644264 0.716735
vn -0.266862 -0.644264 0.716735
vn -0.266862 -0.644264 0.716735
vn -0.266862 -0.644264 0.716735
vn -0.266862 -0.644264 0.716735
vn -0.644264 -0.266863 0.716735
vn -0.644264 -0.266863 0.716735
vn -0.644264 -0.266863 0.716735
vn -0.644264 -0.266863 0.716735
vn -0.644261 0.266863 0.716737
vn -0.644261 0.266863 0.716737
vn -0.644261 0.266863 0.716737
vn -0.644261 0.266863 0.716737
vn -0.266862 0.644260 0.716738
vn -0.266862 0.644260 0.716738
vn -0.266862 0.644260 0.716738
vn -0.266862 0.644260 0.716738
vn 0.266862 0.644260 0.716739
vn 0.266862 0.644260 0.716739
vn 0.266862 0.644260 0.716739
vn 0.266862 0.644260 0.716739
vn 0.644261 0.266863 0.716737
vn 0.644261 0.266863 0.716737
vn 0.644261 0.266863 0.716737
vn 0.644261 0.266863 0.716737
vn 0.644264 -0.266863 0.716734
vn 0.644264 -0.266863 0.716734
vn 0.644264 -0.266863 0.716734
vn 0.644264 -0.266863 0.716734
vn 0.000000 0.000000 1.000000
vn 0.000000 0.000000 1.000000
vn 0.000000 0.000000 1.000000
vn 0.000000 0.000000 1.000000
vn 0.000002 0.000000 1.000000
vn 0.000002 0.000000 1.000000
vn 0.000002 0.000000 1.000000
vn 0.000002 0.000000 1.000000
vn 0.000003 0.000002 1.000000
vn 0.000003 0.000002 1.000000
vn 0.000003 0.000002 1.000000
vn 0.000003 0.000002 1.000000
vn 0.000000 0.000002 1.000000
vn 0.000000 0.000002 1.000000
vn 0.000000 0.000002 1.000000
vn 0.000000 0.000002 1.000000
vn 0.000002 0.000000 1.000000
vn 0.000002 0.000000 1.000000
vn 0.000002 0.000000 1.000000
vn 0.000002 0.000000 1.000000
vn 0.000000 0.000000 1.000000
vn 0.000000 0.000000 1.000000
vn 0.000000 0.000000 1.000000
vn 0.000000 0.000000 1.000000
vn 0.000000 0.000002 1.000000
vn 0.000000 0.000002 1.000000
vn 0.000000 0.000002 1.000000
vn 0.000000 0.000002 1.000000
vn -0.000003 0.000002 1.000000
vn -0.000003 0.000002 1.000000
vn -0.000003 0.000002 1.000000
vn -0.000003 0.000002 1.000000
s off
f 23/43/1 24/44/2 26/46/3 27/48/4
f 24/44/5 25/45/6 33/54/7 26/46/8
f 25/45/9 18/37/10 32/53/11 33/54/12
f 18/37/13 19/38/14 31/52/15 32/53/16
f 19/38/17 20/39/18 30/51/19 31/52/20
f 20/39/21 21/40/22 29/50/23 30/51/24
f 21/40/25 22/41/26 28/49/27 29/50/28
f 22/41/29 23/42/30 27/47/31 28/49/32
f 67/35/33 66/98/34 68/99/35
f 69/100/36 67/35/37 68/99/38
f 70/101/39 69/100/40 68/99/41
f 71/81/42 70/101/43 68/99/44
f 72/80/45 71/81/46 68/99/47
f 73/79/48 72/80/49 68/99/50
f 74/78/51 73/79/52 68/99/53
f 66/98/54 74/78/55 68/99/56
f 9/18/57 10/19/58 17/20/59
f 10/19/60 11/21/61 17/20/62
f 11/21/63 12/22/64 17/20/65
f 12/22/66 13/23/67 17/20/68
f 13/23/69 14/24/70 17/20/71
f 14/24/72 15/25/73 17/20/74
f 15/25/75 16/26/76 17/20/77
f 16/26/78 9/18/79 17/20/80
f 4/12/81 5/13/82 19/38/83 18/37/84
f 5/13/85 6/14/86 20/39/87 19/38/88
f 6/14/89 7/15/90 21/40/91 20/39/92
f 7/15/93 8/16/94 22/41/95 21/40/96
f 8/16/97 1/17/98 23/42/99 22/41/100
f 1/9/101 2/10/102 24/44/103 23/43/104
f 2/10/105 3/11/106 25/45/107 24/44/108
f 3/11/109 4/12/110 18/37/111 25/45/112
f 47/27/113 48/28/114 34/29/115 35/30/116
f 46/31/117 47/27/118 35/30/119 36/32/120
f 45/33/121 46/31/122 36/32/123 37/34/124
f 44/36/125 45/33/126 37/34/127 38/55/128
f 43/56/129 44/36/130 38/55/131 39/57/132
f 42/58/133 43/56/134 39/57/135 40/59/136
f 49/60/137 42/58/138 40/59/139 41/61/140
f 48/28/141 49/60/142 41/61/143 34/29/144
f 35/30/145 34/29/146 50/62/147 51/63/148
f 36/32/149 35/30/150 51/63/151 52/64/152
f 37/34/153 36/32/154 52/64/155 53/65/156
f 38/55/157 37/34/158 53/65/159 54/66/160
f 39/57/161 38/55/162 54/66/163 55/67/164
f 40/59/165 39/57/166 55/67/167 56/68/168
f 41/61/169 40/59/170 56/68/171 57/69/172
f 34/29/173 41/61/174 57/69/175 50/62/176
f 32/70/177 31/71/178 43/56/179 42/58/180
f 31/71/181 30/72/182 44/36/183 43/56/184
f 30/72/185 29/73/186 45/33/187 44/36/188
f 29/73/189 28/74/190 46/31/191 45/33/192
f 28/74/193 27/75/194 47/27/195 46/31/196
f 27/75/197 26/76/198 48/28/199 47/27/200
f 26/76/201 33/77/202 49/60/203 48/28/204
f 33/77/205 32/70/206 42/58/207 49/60/208
f 51/63/209 50/62/210 10/19/211 9/18/212
f 52/64/213 51/63/214 9/18/215 16/26/216
f 53/65/217 52/64/218 16/26/219 15/25/220
f 54/66/221 53/65/222 15/25/223 14/24/224
f 55/67/225 54/66/226 14/24/227 13/23/228
f 56/68/229 55/67/230 13/23/231 12/22/232
f 57/69/233 56/68/234 12/22/235 11/21/236
f 50/62/237 57/69/238 11/21/239 10/19/240
f 2/2/241 1/1/242 58/83/243 59/82/244
f 3/3/245 2/2/246 59/82/247 60/84/248
f 4/4/249 3/3/250 60/84/251 61/85/252
f 5/5/253 4/4/254 61/85/255 62/86/256
f 6/6/257 5/5/258 62/86/259 63/87/260
f 7/7/261 6/6/262 63/87/263 64/88/264
f 8/8/265 7/7/266 64/88/267 65/89/268
f 1/1/269 8/8/270 65/89/271 58/83/272
f 59/82/273 58/83/274 66/91/275 67/90/276
f 60/84/277 59/82/278 67/90/279 69/92/280
f 61/85/281 60/84/282 69/92/283 70/93/284
f 62/86/285 61/85/286 70/93/287 71/94/288
f 63/87/289 62/86/290 71/94/291 72/95/292
f 64/88/293 63/87/294 72/95/295 73/96/296
f 65/89/297 64/88/298 73/96/299 74/97/300
f 58/83/301 65/89/302 74/97/303 66/91/304
