# This file uses meters as units for non-parametric coordinates.

v 0.525160 -3.684059 -0.909607
v -0.525160 -3.684059 -0.909607
v -1.050320 -3.684059 -0.000008
v -0.525160 -3.684059 0.909599
v 0.525160 -3.684059 0.909599
v 1.050320 -3.684059 -0.000008
v 0.512143 1.347198 -0.887062
v -0.512142 1.347198 -0.887062
v -1.024285 1.347198 -0.000008
v -0.512143 1.347198 0.887054
v 0.512142 1.347198 0.887054
v 1.024285 1.347198 -0.000008
v -0.525160 -3.176727 0.909599
v 0.525160 -3.176727 0.909599
v 1.050320 -3.176727 -0.000008
v 0.525160 -3.176727 -0.909607
v -0.525160 -3.176727 -0.909607
v -1.050320 -3.176727 -0.000008
v -0.412277 -3.079174 -0.714096
v 0.412277 -3.079174 -0.714096
v 0.824554 -3.079174 -0.000008
v 0.412277 -3.079174 0.714073
v -0.412277 -3.079174 0.714073
v -0.824554 -3.079174 -0.000008
v -0.412277 -2.557854 -0.714096
v 0.412277 -2.557854 -0.714096
v 0.824554 -2.557854 -0.000008
v 0.412277 -2.557854 0.714073
v -0.412277 -2.557854 0.714073
v -0.824554 -2.557854 -0.000008
v -0.512142 -2.452698 -0.887062
v 0.512143 -2.452698 -0.887062
v 1.024285 -2.452698 -0.000008
v 0.512142 -2.452698 0.887054
v -0.512143 -2.452698 0.887054
v -1.024285 -2.452698 -0.000008
v -0.512142 1.179245 -0.887062
v 0.512143 1.179245 -0.887062
v 1.024285 1.179245 -0.000008
v 0.512142 1.179245 0.887054
v -0.512143 1.179245 0.887054
v -1.024285 1.179245 -0.000008
v 0.512143 2.067944 -0.887062
v -0.512142 2.067944 -0.887062
v -1.024285 2.067944 -0.000008
v -0.512143 2.067944 0.887054
v 0.512142 2.067944 0.887054
v 1.024285 2.067944 -0.000008
v 0.432634 2.684879 -0.749352
v -0.432633 2.684879 -0.749352
v -0.865267 2.684879 -0.000008
v -0.432633 2.684879 0.749336
v 0.432633 2.684879 0.749336
v 0.865267 2.684879 -0.000008
v 0.240905 3.339397 -0.417267
v -0.240905 3.339397 -0.417267
v -0.481810 3.339397 0.000000
v -0.240905 3.339397 0.417244
v 0.240905 3.339397 0.417244
v 0.481810 3.339397 0.000000
v -0.447167 1.263214 -0.774513
v 0.447168 1.263214 -0.774513
v 0.894335 1.263214 -0.000008
v 0.447167 1.263214 0.774506
v -0.447168 1.263214 0.774506
v -0.894335 1.263214 -0.000008
v -0.512143 0.907715 0.887054
v 0.512142 0.907715 0.887054
v 1.024285 0.907715 -0.000008
v 0.512143 0.907715 -0.887062
v -0.512142 0.907715 -0.887062
v -1.024285 0.907715 -0.000008
v -0.512143 -0.029903 0.887054
v 0.512142 -0.029903 0.887054
v 1.024285 -0.029903 -0.000008
v 0.512143 -0.029903 -0.887062
v -0.512142 -0.029903 -0.887062
v -1.024285 -0.029903 -0.000008
v 0.312957 -3.684059 -0.542068
v -0.312957 -3.684059 -0.542068
v 0.000000 -3.684059 -0.000008
v -0.625914 -3.684059 -0.000008
v -0.312957 -3.684059 0.542046
v 0.312957 -3.684059 0.542046
v 0.625914 -3.684059 -0.000008
v 0.095478 3.684059 -0.165382
v -0.095478 3.684059 -0.165382
v 0.000000 3.684059 -0.000008
v -0.190956 3.684059 -0.000008
v -0.095478 3.684059 0.165359
v 0.095478 3.684059 0.165359
v 0.190956 3.684059 -0.000008
vt 0.244976 0.305019
vt 0.244976 0.305019
vt 0.244976 0.305019
vt 0.244976 0.305019
vt 0.244976 0.305019
vt 0.244976 0.305019
vt 0.244976 0.305019
vt 0.244976 0.305019
vt 0.244976 0.305019
vt 0.244976 0.305019
vt 0.244976 0.305019
vt 0.244976 0.305019
vt 0.244976 0.305019
vt 0.246389 0.231510
vt 0.246389 0.231510
vt 0.246389 0.231510
vt 0.246389 0.231510
vt 0.246389 0.231510
vt 0.246389 0.231510
vt 0.246389 0.231510
vt 0.246389 0.231510
vt 0.246389 0.231510
vt 0.246389 0.231510
vt 0.246389 0.231510
vt 0.246389 0.231510
vt 0.246389 0.231510
vt 0.244976 0.230297
vt 0.246389 0.231510
vt 0.244976 0.305019
vt 0.244976 0.305019
vt 0.244976 0.305019
vt 0.244976 0.305019
vt 0.244976 0.305019
vt 0.244976 0.305019
vt 0.244976 0.305019
vt 0.244976 0.305019
vt 0.244976 0.305019
vt 0.244976 0.305019
vt 0.244976 0.305019
vt 0.246389 0.231510
vt 0.246389 0.231510
vt 0.246389 0.231510
vt 0.246389 0.231510
vt 0.246389 0.231510
vt 0.246389 0.231510
vt 0.993807 0.304543
vt 0.993807 0.304543
vt 0.246464 0.305210
vt 0.246464 0.305210
vt 0.993821 0.298822
vt 0.993821 0.298822
vt 0.993821 0.298822
vt 0.993821 0.298822
vt 0.993821 0.298822
vt 0.993821 0.298822
vt 0.993821 0.298822
vt 0.993821 0.298822
vt 0.993821 0.298822
vt 0.993821 0.298822
vt 0.993821 0.298822
vt 0.993821 0.298822
vt 0.993821 0.298822
vt 0.993821 0.298822
vt 0.246389 0.231510
vt 0.246389 0.231510
vt 0.246389 0.231510
vt 0.246389 0.231510
vt 0.246389 0.231510
vt 0.246389 0.231510
vt 0.246389 0.231510
vt 0.246389 0.231510
vt 0.246389 0.231510
vt 0.246389 0.231510
vt 0.246389 0.231510
vt 0.244864 0.304676
vt 0.244864 0.304676
vt 0.244864 0.304676
vt 0.244864 0.304676
vt 0.244864 0.304676
vt 0.244864 0.304676
vt 0.993807 0.304543
vt 0.993807 0.304543
vt 0.244864 0.304676
vt 0.244864 0.304676
vt 0.993807 0.304543
vt 0.244864 0.304676
vt 0.993807 0.304543
vt 0.244864 0.304676
vt 0.993807 0.304543
vt 0.454144 0.026024
vt 0.454144 0.026024
vt 0.454144 0.026024
vt 0.454144 0.026024
vt 0.454144 0.026024
vt 0.454144 0.026024
vt 0.454144 0.026024
vt 0.454144 0.026024
vt 0.454144 0.026024
vt 0.454144 0.026024
vt 0.454144 0.026024
vt 0.454144 0.026024
vt 0.244864 0.304676
vt 0.993807 0.304543
vt 0.244864 0.304676
vt 0.246464 0.305210
vt 0.246464 0.305210
vt 0.246464 0.305210
vt 0.246464 0.305210
vt 0.246464 0.305210
vt 0.246464 0.305210
vt 0.246464 0.305210
vt 0.246464 0.305210
vt 0.246464 0.305210
vt 0.246464 0.305210
vt 0.993821 0.298822
vt 0.993821 0.298822
vt 0.993821 0.298822
vt 0.993821 0.298822
vt 0.993821 0.298822
vt 0.993821 0.298822
vt 0.993821 0.298822
vt 0.993821 0.298822
vt 0.993821 0.298822
vt 0.993821 0.298822
vt 0.993821 0.298822
vt 0.993821 0.298822
vt 0.993821 0.298822
vt 0.993821 0.298822
vt 0.050219 0.214507
vt 0.050219 0.214507
vt 0.050219 0.214507
vt 0.050219 0.214507
vt 0.050219 0.214507
vt 0.050219 0.214507
vt 0.050219 0.214507
vt 0.050219 0.214507
vt 0.050219 0.214507
vt 0.050219 0.214507
vt 0.050219 0.214507
vt 0.050219 0.214507
vt 0.993807 0.304543
vt 0.993807 0.304543
vt 0.993807 0.304543
vt 0.993807 0.304543
vt 0.244976 0.230297
vt 0.244976 0.230297
vt 0.244976 0.230297
vt 0.244976 0.230297
vt 0.244976 0.230297
vt 0.244976 0.230297
vn 0.000000 0.209227 -0.977867
vn 0.000000 0.209227 -0.977867
vn 0.000000 0.398998 -0.916952
vn 0.000000 0.398998 -0.916952
vn -0.846855 0.209239 -0.488934
vn -0.846855 0.209235 -0.488934
vn -0.794102 0.399004 -0.458473
vn -0.794102 0.399003 -0.458474
vn -0.846856 0.209238 0.488931
vn -0.846857 0.209235 0.488931
vn -0.794096 0.399015 0.458473
vn -0.794097 0.399014 0.458474
vn 0.000000 0.209247 0.977863
vn 0.000000 0.209247 0.977863
vn 0.000000 0.399021 0.916942
vn 0.000000 0.399021 0.916942
vn 0.846857 0.209235 0.488932
vn 0.846856 0.209239 0.488931
vn 0.794097 0.399014 0.458474
vn 0.794096 0.399015 0.458474
vn 0.846856 0.209235 -0.488934
vn 0.846855 0.209239 -0.488934
vn 0.794103 0.399003 -0.458473
vn 0.794102 0.399005 -0.458473
vn 0.000000 -1.000000 0.000001
vn 0.000000 -1.000000 0.000000
vn 0.000000 -1.000000 0.000000
vn 0.000000 -1.000000 0.000000
vn 0.000000 -1.000000 0.000001
vn 0.000000 -1.000000 0.000000
vn 0.000000 -1.000000 -0.000000
vn 0.000000 -1.000000 0.000000
vn 0.000000 -1.000000 0.000000
vn 0.000000 -1.000000 -0.000001
vn 0.000000 -1.000000 -0.000000
vn 0.000000 -1.000000 0.000000
vn 0.000000 -1.000000 -0.000000
vn 0.000000 -1.000000 -0.000001
vn 0.000000 -1.000000 0.000000
vn 0.000000 -1.000000 0.000000
vn 0.000000 -1.000000 -0.000000
vn 0.000000 -1.000000 0.000000
vn 0.000000 1.000000 0.000000
vn 0.000000 1.000000 0.000000
vn 0.000000 1.000000 -0.000001
vn 0.000000 1.000000 0.000000
vn 0.000000 1.000000 -0.000002
vn 0.000000 1.000000 -0.000001
vn 0.000000 1.000000 -0.000002
vn 0.000000 1.000000 -0.000002
vn 0.000000 1.000000 -0.000001
vn 0.000000 1.000000 -0.000002
vn 0.000000 1.000000 0.000000
vn 0.000000 1.000000 -0.000001
vn 0.000000 1.000000 0.000000
vn 0.000000 1.000000 0.000000
vn 0.000000 1.000000 -0.000001
vn 0.000000 1.000000 0.000000
vn 0.000000 1.000000 0.000000
vn 0.000000 1.000000 -0.000001
vn 0.000000 0.000000 1.000000
vn 0.000000 0.000000 1.000000
vn 0.000000 0.209247 0.977863
vn 0.000000 0.209247 0.977863
vn 0.866026 0.000000 0.499999
vn 0.866026 0.000000 0.499999
vn 0.846856 0.209239 0.488931
vn 0.846857 0.209235 0.488932
vn 0.866025 0.000000 -0.500001
vn 0.866025 0.000000 -0.500001
vn 0.846855 0.209239 -0.488934
vn 0.846856 0.209235 -0.488934
vn 0.000000 0.000000 -1.000000
vn 0.000000 0.000000 -1.000000
vn 0.000000 0.209227 -0.977867
vn 0.000000 0.209227 -0.977867
vn -0.866024 0.000000 -0.500002
vn -0.866024 0.000000 -0.500002
vn -0.846855 0.209235 -0.488934
vn -0.846855 0.209239 -0.488934
vn -0.866026 0.000000 0.499999
vn -0.866026 0.000000 0.499999
vn -0.846857 0.209235 0.488931
vn -0.846856 0.209238 0.488931
vn 0.000000 0.398998 -0.916952
vn 0.000000 0.398998 -0.916952
vn 0.000000 -0.348548 -0.937291
vn 0.000000 -0.348548 -0.937291
vn 0.794102 0.399005 -0.458473
vn 0.794103 0.399003 -0.458473
vn 0.811717 -0.348552 -0.468643
vn 0.811717 -0.348553 -0.468643
vn 0.794096 0.399015 0.458474
vn 0.794097 0.399014 0.458474
vn 0.811712 -0.348562 0.468644
vn 0.811711 -0.348565 0.468644
vn 0.000000 0.399021 0.916942
vn 0.000000 0.399021 0.916942
vn 0.000000 -0.348572 0.937282
vn 0.000000 -0.348572 0.937282
vn -0.794097 0.399014 0.458474
vn -0.794096 0.399015 0.458473
vn -0.811711 -0.348565 0.468644
vn -0.811712 -0.348562 0.468644
vn -0.794102 0.399003 -0.458474
vn -0.794102 0.399004 -0.458473
vn -0.811717 -0.348553 -0.468643
vn -0.811717 -0.348552 -0.468643
vn 0.000000 -0.348548 -0.937291
vn 0.000000 -0.348548 -0.937291
vn 0.000000 -0.044356 -0.999016
vn 0.000000 -0.044356 -0.999016
vn 0.811717 -0.348553 -0.468643
vn 0.811717 -0.348552 -0.468643
vn 0.865173 -0.044358 -0.499509
vn 0.865173 -0.044358 -0.499509
vn 0.811711 -0.348565 0.468644
vn 0.811712 -0.348562 0.468644
vn 0.865174 -0.044359 0.499506
vn 0.865174 -0.044357 0.499506
vn 0.000000 -0.348572 0.937282
vn 0.000000 -0.348572 0.937282
vn 0.000000 -0.044361 0.999016
vn 0.000000 -0.044361 0.999016
vn -0.811712 -0.348562 0.468644
vn -0.811711 -0.348565 0.468644
vn -0.865174 -0.044357 0.499506
vn -0.865174 -0.044359 0.499506
vn -0.811717 -0.348552 -0.468643
vn -0.811717 -0.348553 -0.468643
vn -0.865172 -0.044358 -0.499509
vn -0.865172 -0.044358 -0.499509
vn 0.000000 0.000000 -1.000000
vn 0.000000 0.000000 -1.000000
vn 0.000000 0.000000 -1.000000
vn 0.000000 0.000000 -1.000000
vn 0.866025 0.000000 -0.500001
vn 0.866025 0.000000 -0.500001
vn 0.866025 0.000000 -0.500001
vn 0.866025 0.000000 -0.500001
vn 0.866027 0.000000 0.499998
vn 0.866027 0.000000 0.499998
vn 0.866027 0.000000 0.499998
vn 0.866027 0.000000 0.499998
vn 0.000000 0.000000 1.000000
vn 0.000000 0.000000 1.000000
vn 0.000000 0.000000 1.000000
vn 0.000000 0.000000 1.000000
vn -0.866027 0.000000 0.499998
vn -0.866027 0.000000 0.499998
vn -0.866027 0.000000 0.499998
vn -0.866027 0.000000 0.499998
vn -0.866025 0.000000 -0.500001
vn -0.866025 0.000000 -0.500001
vn -0.866025 0.000000 -0.500001
vn -0.866025 0.000000 -0.500001
vn 0.000000 0.000000 -1.000000
vn 0.000000 0.000000 -1.000000
vn 0.000000 0.000000 -1.000000
vn 0.000000 0.000000 -1.000000
vn -0.866025 0.000000 -0.500001
vn -0.866025 0.000000 -0.500001
vn -0.866025 0.000000 -0.500001
vn -0.866025 0.000000 -0.500001
vn -0.866027 0.000000 0.499998
vn -0.866027 0.000000 0.499998
vn -0.866027 0.000000 0.499998
vn -0.866027 0.000000 0.499998
vn 0.000000 0.000000 1.000000
vn 0.000000 0.000000 1.000000
vn 0.000000 0.000000 1.000000
vn 0.000000 0.000000 1.000000
vn 0.866027 0.000000 0.499998
vn 0.866027 0.000000 0.499998
vn 0.866027 0.000000 0.499998
vn 0.866027 0.000000 0.499998
vn 0.866025 0.000000 -0.500001
vn 0.866025 0.000000 -0.500001
vn 0.866025 0.000000 -0.500001
vn 0.866025 0.000000 -0.500001
vn 0.000000 0.217856 -0.975981
vn 0.000000 0.217856 -0.975981
vn 0.000000 0.217856 -0.975981
vn 0.000000 0.217856 -0.975981
vn -0.845223 0.217859 -0.487990
vn -0.845223 0.217859 -0.487990
vn -0.845223 0.217859 -0.487991
vn -0.845223 0.217859 -0.487990
vn -0.845224 0.217862 0.487988
vn -0.845224 0.217862 0.487988
vn -0.845224 0.217862 0.487988
vn -0.845224 0.217862 0.487988
vn 0.000000 0.217867 0.975978
vn 0.000000 0.217867 0.975978
vn 0.000000 0.217867 0.975978
vn 0.000000 0.217867 0.975978
vn 0.845224 0.217862 0.487989
vn 0.845224 0.217862 0.487988
vn 0.845224 0.217862 0.487989
vn 0.845224 0.217862 0.487989
vn 0.845224 0.217859 -0.487990
vn 0.845224 0.217859 -0.487990
vn 0.845224 0.217859 -0.487990
vn 0.845224 0.217859 -0.487990
vn 0.000000 0.452466 -0.891782
vn 0.000000 0.452466 -0.891782
vn 0.000000 0.452466 -0.891782
vn 0.000000 0.452466 -0.891782
vn -0.772306 0.452467 -0.445889
vn -0.772306 0.452467 -0.445888
vn -0.772306 0.452467 -0.445888
vn -0.772306 0.452467 -0.445889
vn -0.772304 0.452465 0.445895
vn -0.772304 0.452465 0.445895
vn -0.772304 0.452465 0.445895
vn -0.772304 0.452465 0.445895
vn 0.000000 0.452474 0.891778
vn 0.000000 0.452474 0.891778
vn 0.000000 0.452474 0.891778
vn 0.000000 0.452474 0.891778
vn 0.772304 0.452465 0.445895
vn 0.772304 0.452465 0.445895
vn 0.772304 0.452465 0.445895
vn 0.772304 0.452465 0.445895
vn 0.772307 0.452467 -0.445888
vn 0.772307 0.452467 -0.445888
vn 0.772307 0.452467 -0.445888
vn 0.772307 0.452467 -0.445888
vn 0.271344 0.839924 -0.470000
vn -0.271344 0.839924 -0.470000
vn -0.271353 0.839924 -0.469994
vn 0.271353 0.839924 -0.469994
vn -0.271379 -0.839879 -0.470060
vn 0.271379 -0.839879 -0.470060
vn 0.271388 -0.839879 -0.470054
vn -0.271388 -0.839879 -0.470054
vn 0.542714 0.839918 0.000000
vn 0.271344 0.839924 -0.470000
vn 0.271353 0.839924 -0.469994
vn 0.542714 0.839918 -0.000000
vn 0.271379 -0.839879 -0.470060
vn 0.542783 -0.839873 0.000000
vn 0.542783 -0.839873 -0.000000
vn 0.271388 -0.839879 -0.470054
vn 0.271345 0.839925 0.469998
vn 0.542714 0.839918 0.000000
vn 0.542714 0.839918 -0.000000
vn 0.271355 0.839925 0.469992
vn 0.542783 -0.839873 0.000000
vn 0.271380 -0.839880 0.470059
vn 0.271390 -0.839880 0.470053
vn 0.542783 -0.839873 -0.000000
vn -0.271345 0.839925 0.469998
vn 0.271345 0.839925 0.469998
vn 0.271355 0.839925 0.469992
vn -0.271355 0.839925 0.469992
vn 0.271380 -0.839880 0.470059
vn -0.271380 -0.839879 0.470059
vn -0.271390 -0.839879 0.470053
vn 0.271390 -0.839880 0.470053
vn -0.542714 0.839918 -0.000000
vn -0.271345 0.839925 0.469998
vn -0.271355 0.839925 0.469992
vn -0.542714 0.839918 -0.000001
vn -0.271380 -0.839879 0.470059
vn -0.542783 -0.839873 0.000001
vn -0.542783 -0.839873 -0.000000
vn -0.271390 -0.839879 0.470053
vn -0.271344 0.839924 -0.470000
vn -0.542714 0.839918 -0.000000
vn -0.542714 0.839918 -0.000001
vn -0.271353 0.839924 -0.469994
vn -0.542783 -0.839873 0.000001
vn -0.271379 -0.839879 -0.470060
vn -0.271388 -0.839879 -0.470054
vn -0.542783 -0.839873 -0.000000
vn 0.000000 0.000000 1.000000
vn 0.000000 0.000000 1.000000
vn 0.000000 0.000000 1.000000
vn 0.000000 0.000000 1.000000
vn 0.866027 0.000000 0.499998
vn 0.866027 0.000000 0.499998
vn 0.866027 0.000000 0.499998
vn 0.866027 0.000000 0.499998
vn 0.866025 0.000000 -0.500001
vn 0.866025 0.000000 -0.500001
vn 0.866025 0.000000 -0.500001
vn 0.866025 0.000000 -0.500001
vn 0.000000 0.000000 -1.000000
vn 0.000000 0.000000 -1.000000
vn 0.000000 0.000000 -1.000000
vn 0.000000 0.000000 -1.000000
vn -0.866025 -0.000000 -0.500001
vn -0.866025 -0.000000 -0.500001
vn -0.866025 0.000000 -0.500001
vn -0.866025 0.000000 -0.500001
vn -0.866027 0.000000 0.499998
vn -0.866027 0.000000 0.499998
vn -0.866027 0.000000 0.499998
vn -0.866027 0.000000 0.499998
vn 0.000000 -0.044361 0.999016
vn 0.000000 -0.044361 0.999016
vn 0.000000 0.000000 1.000000
vn 0.000000 0.000000 1.000000
vn 0.865174 -0.044357 0.499506
vn 0.865174 -0.044359 0.499506
vn 0.866027 0.000000 0.499998
vn 0.866027 0.000000 0.499998
vn 0.865173 -0.044358 -0.499509
vn 0.865173 -0.044358 -0.499509
vn 0.866025 0.000000 -0.500001
vn 0.866025 0.000000 -0.500001
vn 0.000000 -0.044356 -0.999016
vn 0.000000 -0.044356 -0.999016
vn 0.000000 0.000000 -1.000000
vn 0.000000 0.000000 -1.000000
vn -0.865172 -0.044358 -0.499509
vn -0.865172 -0.044358 -0.499509
vn -0.866025 -0.000000 -0.500001
vn -0.866025 -0.000000 -0.500001
vn -0.865174 -0.044359 0.499506
vn -0.865174 -0.044357 0.499506
vn -0.866027 0.000000 0.499998
vn -0.866027 0.000000 0.499998
vn 0.000000 -1.000000 0.000000
vn 0.000000 -1.000000 0.000000
vn 0.000000 -1.000000 0.000000
vn 0.000000 -1.000000 0.000000
vn 0.000000 -1.000000 0.000000
vn 0.000000 -1.000000 0.000000
vn 0.000000 -1.000000 0.000000
vn 0.000000 -1.000000 0.000000
vn 0.000000 -1.000000 0.000000
vn 0.000000 -1.000000 0.000000
vn 0.000000 -1.000000 0.000000
vn 0.000000 -1.000000 0.000000
vn 0.000000 -1.000000 -0.000000
vn 0.000000 -1.000000 -0.000000
vn 0.000000 -1.000000 -0.000000
vn 0.000000 -1.000000 -0.000000
vn 0.000000 -1.000000 0.000000
vn 0.000000 -1.000000 0.000000
vn 0.000000 -1.000000 0.000000
vn 0.000000 -1.000000 0.000000
vn 0.000000 -1.000000 -0.000000
vn 0.000000 -1.000000 -0.000000
vn 0.000000 -1.000000 -0.000000
vn 0.000000 -1.000000 -0.000000
vn 0.000000 0.590042 -0.807373
vn 0.000000 0.590042 -0.807373
vn 0.000000 0.590042 -0.807373
vn 0.000000 0.590042 -0.807373
vn -0.699208 0.590041 -0.403681
vn -0.699208 0.590041 -0.403681
vn -0.699208 0.590041 -0.403681
vn -0.699208 0.590041 -0.403681
vn -0.699196 0.590047 0.403695
vn -0.699196 0.590047 0.403695
vn -0.699196 0.590047 0.403695
vn -0.699196 0.590047 0.403695
vn 0.000000 0.590042 0.807373
vn 0.000000 0.590042 0.807373
vn 0.000000 0.590042 0.807373
vn 0.000000 0.590042 0.807373
vn 0.699196 0.590047 0.403695
vn 0.699196 0.590047 0.403695
vn 0.699196 0.590047 0.403695
vn 0.699196 0.590047 0.403695
vn 0.699208 0.590041 -0.403681
vn 0.699208 0.590041 -0.403681
vn 0.699208 0.590041 -0.403681
vn 0.699208 0.590041 -0.403681
s off
f 16/1/1 17/2/2 19/3/3 20/4/4
f 17/2/5 18/5/6 24/6/7 19/3/8
f 18/5/9 13/7/10 23/8/11 24/6/12
f 13/7/13 14/9/14 22/10/15 23/8/16
f 14/9/17 15/11/18 21/12/19 22/10/20
f 15/11/21 16/1/22 20/4/23 21/12/24
f 80/27/25 79/145/26 81/146/27
f 82/147/28 80/27/29 81/146/30
f 83/148/31 82/147/32 81/146/33
f 84/149/34 83/148/35 81/146/36
f 85/150/37 84/149/38 81/146/39
f 79/145/40 85/150/41 81/146/42
f 86/45/43 87/44/44 88/16/45
f 87/44/46 89/43/47 88/16/48
f 89/43/49 90/42/50 88/16/51
f 90/42/52 91/41/53 88/16/54
f 91/41/55 92/40/56 88/16/57
f 92/40/58 86/45/59 88/16/60
f 4/13/61 5/29/62 14/9/63 13/7/64
f 5/29/65 6/30/66 15/11/67 14/9/68
f 6/30/69 1/31/70 16/1/71 15/11/72
f 1/31/73 2/32/74 17/2/75 16/1/76
f 2/32/77 3/33/78 18/5/79 17/2/80
f 3/33/81 4/13/82 13/7/83 18/5/84
f 20/90/85 19/91/86 25/92/87 26/93/88
f 21/94/89 20/90/90 26/93/91 27/95/92
f 22/96/93 21/94/94 27/95/95 28/97/96
f 23/98/97 22/96/98 28/97/99 29/99/100
f 24/100/101 23/98/102 29/99/103 30/101/104
f 19/91/105 24/100/106 30/101/107 25/92/108
f 26/48/109 25/49/110 31/105/111 32/106/112
f 27/107/113 26/48/114 32/106/115 33/108/116
f 28/109/117 27/107/118 33/108/119 34/110/120
f 29/111/121 28/109/122 34/110/123 35/112/124
f 30/113/125 29/111/126 35/112/127 36/114/128
f 25/49/129 30/113/130 36/114/131 31/105/132
f 70/119/133 71/120/134 37/57/135 38/59/136
f 69/117/137 70/118/138 38/58/139 39/60/140
f 68/116/141 69/117/142 39/60/143 40/61/144
f 67/115/145 68/116/146 40/61/147 41/62/148
f 72/121/149 67/115/150 41/62/151 42/63/152
f 71/120/153 72/121/154 42/63/155 37/57/156
f 7/21/157 8/22/158 44/23/159 43/24/160
f 8/22/161 9/25/162 45/26/163 44/23/164
f 9/25/165 10/28/166 46/64/167 45/26/168
f 10/28/169 11/65/170 47/66/171 46/64/172
f 11/65/173 12/67/174 48/68/175 47/66/176
f 12/67/177 7/21/178 43/24/179 48/68/180
f 43/24/181 44/23/182 50/69/183 49/70/184
f 44/23/185 45/26/186 51/71/187 50/69/188
f 45/26/189 46/64/190 52/72/191 51/71/192
f 46/64/193 47/66/194 53/73/195 52/72/196
f 47/66/197 48/68/198 54/74/199 53/73/200
f 48/68/201 43/24/202 49/70/203 54/74/204
f 49/70/205 50/69/206 56/15/207 55/14/208
f 50/69/209 51/71/210 57/17/211 56/15/212
f 51/71/213 52/72/214 58/18/215 57/17/216
f 52/72/217 53/73/218 59/19/219 58/18/220
f 53/73/221 54/74/222 60/20/223 59/19/224
f 54/74/225 49/70/226 55/14/227 60/20/228
f 38/81/229 37/82/230 61/85/231 62/87/232
f 8/83/233 7/84/234 62/75/235 61/76/236
f 39/89/237 38/81/238 62/87/239 63/103/240
f 7/84/241 12/86/242 63/77/243 62/75/244
f 40/144/245 39/89/246 63/103/247 64/143/248
f 12/86/249 11/88/250 64/78/251 63/77/252
f 41/142/253 40/144/254 64/143/255 65/141/256
f 11/88/257 10/102/258 65/79/259 64/78/260
f 42/47/261 41/142/262 65/141/263 66/46/264
f 10/102/265 9/104/266 66/80/267 65/79/268
f 37/82/269 42/47/270 66/46/271 61/85/272
f 9/104/273 8/83/274 61/76/275 66/80/276
f 73/129/277 74/130/278 68/131/279 67/132/280
f 74/130/281 75/133/282 69/134/283 68/131/284
f 75/133/285 76/135/286 70/136/287 69/134/288
f 76/135/289 77/137/290 71/138/291 70/136/292
f 77/137/293 78/139/294 72/140/295 71/138/296
f 78/139/297 73/129/298 67/132/299 72/140/300
f 35/55/301 34/54/302 74/123/303 73/122/304
f 34/54/305 33/53/306 75/124/307 74/123/308
f 33/53/309 32/51/310 76/125/311 75/124/312
f 32/52/313 31/50/314 77/127/315 76/126/316
f 31/50/317 36/56/318 78/128/319 77/127/320
f 36/56/321 35/55/322 73/122/323 78/128/324
f 2/32/325 1/31/326 79/34/327 80/35/328
f 3/33/329 2/32/330 80/35/331 82/36/332
f 4/13/333 3/33/334 82/36/335 83/37/336
f 5/29/337 4/13/338 83/37/339 84/38/340
f 6/30/341 5/29/342 84/38/343 85/39/344
f 1/31/345 6/30/346 85/39/347 79/34/348
f 55/14/349 56/15/350 87/44/351 86/45/352
f 56/15/353 57/17/354 89/43/355 87/44/356
f 57/17/357 58/18/358 90/42/359 89/43/360
f 58/18/361 59/19/362 91/41/363 90/42/364
f 59/19/365 60/20/366 92/40/367 91/41/368
f 60/20/369 55/14/370 86/45/371 92/40/372
