# This file uses meters as units for non-parametric coordinates.

v 3.099743 -3.358414 3.099716
v -0.000000 -3.358414 4.383682
v -3.099744 -3.358414 3.099716
v -4.383699 -3.358398 0.000000
v -3.099744 -3.358398 -3.099747
v -0.000000 -3.358414 -4.383713
v 3.099744 -3.358398 -3.099747
v 4.383699 -3.358398 0.000000
v 3.099743 -14.950912 3.099716
v -0.000000 -14.950912 4.383667
v -3.099744 -14.950912 3.099716
v -4.383699 -14.950912 0.000000
v -3.099744 -14.950912 -3.099747
v -0.000000 -14.950912 -4.383682
v 3.099744 -14.950912 -3.099747
v 4.383699 -14.950912 0.000000
v 1.865201 -17.551819 1.865204
v -0.000000 -17.551819 2.637787
v -0.000000 -17.551819 0.000000
v -1.865201 -17.551819 1.865204
v -2.637792 -17.551819 0.000000
v -1.865201 -17.551819 -1.865204
v -0.000000 -17.551819 -2.637817
v 1.865201 -17.551819 -1.865204
v 2.637792 -17.551819 0.000000
v 1.727354 -2.837311 1.727341
v 0.000000 -2.837311 2.442856
v -1.727354 -2.837311 1.727341
v -2.442847 -2.837311 -0.000031
v -1.727354 -2.837311 -1.727356
v 0.000000 -2.837311 -2.442856
v 1.727354 -2.837311 -1.727356
v 2.442848 -2.837311 -0.000031
v 1.727354 -0.000015 1.727341
v 0.000000 0.000000 2.442871
v 0.000000 0.000000 0.000000
v -1.727354 -0.000015 1.727341
v -2.442847 0.000000 0.000000
v -1.727354 0.000000 -1.727356
v 0.000000 -0.000015 -2.442856
v 1.727354 0.000000 -1.727356
v 2.442848 0.000000 0.000000
v 4.383699 -6.360016 0.000000
v 3.099744 -6.360016 -3.099777
v -0.000000 -6.360016 -4.383713
v -3.099744 -6.360016 -3.099777
v -4.383699 -6.360016 0.000000
v -3.099744 -6.360016 3.099716
v -0.000000 -6.360046 4.383667
v 3.099743 -6.360016 3.099716
v 4.383699 -4.752869 0.000000
v 3.099744 -4.752869 -3.099777
v -0.000000 -4.752869 -4.383667
v -3.099744 -4.752869 -3.099777
v -4.383699 -4.752869 0.000000
v -3.099744 -4.752869 3.099716
v -0.000000 -4.752853 4.383667
v 3.099743 -4.752869 3.099716
vt 0.993799 0.306858
vt 0.993799 0.306858
vt 0.993799 0.306858
vt 0.993799 0.306858
vt 0.993799 0.306858
vt 0.993799 0.306858
vt 0.993799 0.306858
vt 0.993799 0.306858
vt 0.993799 0.306858
vt 0.993799 0.306858
vt 0.993799 0.306858
vt 0.993799 0.306858
vt 0.993799 0.306858
vt 0.993799 0.306858
vt 0.993799 0.306858
vt 0.993799 0.306858
vt 0.993799 0.306858
vt 0.993799 0.306858
vt 0.244666 0.251328
vt 0.244666 0.251328
vt 0.244666 0.251328
vt 0.244666 0.251328
vt 0.244666 0.251328
vt 0.244666 0.251328
vt 0.244666 0.251328
vt 0.244666 0.251328
vt 0.244666 0.251328
vt 0.245534 0.251320
vt 0.245533 0.251320
vt 0.245533 0.251320
vt 0.245534 0.251320
vt 0.245534 0.251320
vt 0.245534 0.251320
vt 0.245533 0.251320
vt 0.245534 0.251320
vt 0.245534 0.251320
vt 0.245534 0.251320
vt 0.245533 0.251320
vt 0.245534 0.251320
vt 0.245534 0.251320
vt 0.245534 0.251320
vt 0.245533 0.251320
vt 0.245534 0.251320
vt 0.245534 0.251320
vt 0.244666 0.251328
vt 0.244666 0.251328
vt 0.244666 0.251328
vt 0.244666 0.251328
vt 0.244666 0.251328
vt 0.244666 0.251328
vt 0.244666 0.251328
vt 0.244666 0.251328
vt 0.244666 0.251328
vt 0.244666 0.251328
vt 0.244666 0.251328
vt 0.244666 0.251328
vt 0.244666 0.251328
vt 0.244666 0.251328
vt 0.244666 0.251328
vt 0.244666 0.251328
vt 0.993799 0.306858
vt 0.993799 0.306858
vt 0.993799 0.306858
vt 0.993799 0.306858
vt 0.993799 0.306858
vt 0.993799 0.306858
vt 0.993799 0.306858
vt 0.993799 0.306858
vt 0.993799 0.306858
vt 0.993799 0.306858
vt 0.993799 0.306858
vt 0.993799 0.306858
vt 0.993799 0.306858
vt 0.993799 0.306858
vt 0.993799 0.306858
vt 0.993799 0.306858
vt 0.993799 0.306858
vt 0.993799 0.306858
vt 0.046819 0.209671
vt 0.046819 0.209671
vt 0.046819 0.209671
vt 0.046819 0.209671
vt 0.046819 0.209671
vt 0.046819 0.209671
vt 0.046819 0.209671
vt 0.046819 0.209671
vt 0.046819 0.209671
vt 0.046819 0.209671
vt 0.046819 0.209671
vt 0.046819 0.209671
vt 0.046819 0.209671
vt 0.046819 0.209671
vt 0.046819 0.209671
vt 0.046819 0.209671
vn 0.382684 -0.000005 0.923879
vn 0.382684 -0.000005 0.923879
vn 0.382683 -0.000002 0.923880
vn 0.382683 -0.000002 0.923880
vn -0.382684 -0.000005 0.923879
vn -0.382684 -0.000005 0.923879
vn -0.382683 -0.000002 0.923880
vn -0.382683 -0.000002 0.923880
vn -0.923878 0.000000 0.382686
vn -0.923878 0.000000 0.382686
vn -0.923878 0.000000 0.382686
vn -0.923878 0.000000 0.382686
vn -0.923880 0.000004 -0.382681
vn -0.923880 0.000004 -0.382681
vn -0.923881 0.000002 -0.382680
vn -0.923881 0.000002 -0.382680
vn -0.382676 -0.000005 -0.923882
vn -0.382676 -0.000005 -0.923882
vn -0.382674 0.000005 -0.923883
vn -0.382674 0.000005 -0.923883
vn 0.382676 -0.000005 -0.923882
vn 0.382676 -0.000005 -0.923882
vn 0.382674 0.000005 -0.923883
vn 0.382674 0.000005 -0.923883
vn 0.923880 0.000004 -0.382681
vn 0.923880 0.000004 -0.382681
vn 0.923881 0.000002 -0.382681
vn 0.923881 0.000002 -0.382681
vn 0.923878 0.000000 0.382686
vn 0.923878 0.000000 0.382686
vn 0.923878 0.000000 0.382686
vn 0.923878 0.000000 0.382686
vn -0.000000 1.000000 0.000000
vn 0.000004 1.000000 0.000004
vn -0.000000 1.000000 0.000001
vn -0.000004 1.000000 0.000004
vn -0.000000 1.000000 0.000000
vn -0.000000 1.000000 0.000001
vn 0.000000 1.000000 0.000004
vn -0.000004 1.000000 0.000004
vn -0.000000 1.000000 0.000001
vn 0.000003 1.000000 -0.000003
vn 0.000000 1.000000 0.000004
vn -0.000000 1.000000 0.000001
vn -0.000000 1.000000 -0.000006
vn 0.000003 1.000000 -0.000003
vn -0.000000 1.000000 0.000001
vn -0.000003 1.000000 -0.000003
vn -0.000000 1.000000 -0.000006
vn -0.000000 1.000000 0.000001
vn 0.000000 1.000000 0.000004
vn -0.000003 1.000000 -0.000003
vn -0.000000 1.000000 0.000001
vn 0.000004 1.000000 0.000004
vn 0.000000 1.000000 0.000004
vn -0.000000 1.000000 0.000001
vn 0.000000 -1.000000 0.000000
vn 0.000000 -1.000000 0.000000
vn 0.000000 -1.000000 0.000000
vn 0.000000 -1.000000 0.000000
vn 0.000000 -1.000000 0.000000
vn 0.000000 -1.000000 0.000000
vn 0.000000 -1.000000 0.000000
vn 0.000000 -1.000000 0.000000
vn 0.000000 -1.000000 0.000000
vn 0.000000 -1.000000 0.000000
vn 0.000000 -1.000000 0.000000
vn 0.000000 -1.000000 0.000000
vn 0.000000 -1.000000 0.000000
vn 0.000000 -1.000000 0.000000
vn 0.000000 -1.000000 0.000000
vn 0.000000 -1.000000 0.000000
vn 0.000000 -1.000000 0.000000
vn 0.000000 -1.000000 0.000000
vn 0.000000 -1.000000 0.000000
vn 0.000000 -1.000000 0.000000
vn 0.000000 -1.000000 0.000000
vn 0.000000 -1.000000 0.000000
vn 0.000000 -1.000000 0.000000
vn 0.000000 -1.000000 0.000000
vn 0.325218 -0.527039 0.785152
vn 0.325218 -0.527039 0.785152
vn 0.325218 -0.527039 0.785152
vn 0.325218 -0.527039 0.785152
vn -0.325218 -0.527039 0.785152
vn -0.325218 -0.527038 0.785152
vn -0.325218 -0.527039 0.785152
vn -0.325218 -0.527039 0.785152
vn -0.785148 -0.527044 0.325220
vn -0.785148 -0.527044 0.325220
vn -0.785148 -0.527044 0.325220
vn -0.785148 -0.527044 0.325220
vn -0.785148 -0.527045 -0.325218
vn -0.785148 -0.527045 -0.325218
vn -0.785148 -0.527045 -0.325218
vn -0.785148 -0.527045 -0.325218
vn -0.325220 -0.527040 -0.785150
vn -0.325220 -0.527040 -0.785150
vn -0.325220 -0.527040 -0.785150
vn -0.325220 -0.527040 -0.785150
vn 0.325220 -0.527040 -0.785150
vn 0.325220 -0.527040 -0.785150
vn 0.325220 -0.527040 -0.785150
vn 0.325220 -0.527040 -0.785150
vn 0.785148 -0.527045 -0.325218
vn 0.785148 -0.527045 -0.325218
vn 0.785148 -0.527045 -0.325218
vn 0.785148 -0.527045 -0.325218
vn 0.785148 -0.527044 0.325221
vn 0.785147 -0.527044 0.325221
vn 0.785148 -0.527044 0.325221
vn 0.785147 -0.527044 0.325221
vn 0.106797 0.960271 0.257827
vn 0.106797 0.960271 0.257827
vn 0.106797 0.960271 0.257827
vn 0.106797 0.960271 0.257827
vn -0.106797 0.960271 0.257827
vn -0.106797 0.960271 0.257827
vn -0.106797 0.960271 0.257827
vn -0.106797 0.960271 0.257827
vn -0.257820 0.960273 0.106796
vn -0.257820 0.960273 0.106796
vn -0.257820 0.960273 0.106796
vn -0.257820 0.960273 0.106796
vn -0.257819 0.960273 -0.106792
vn -0.257819 0.960273 -0.106792
vn -0.257819 0.960273 -0.106792
vn -0.257819 0.960273 -0.106792
vn -0.106791 0.960273 -0.257822
vn -0.106791 0.960273 -0.257822
vn -0.106791 0.960273 -0.257822
vn -0.106791 0.960273 -0.257822
vn 0.106791 0.960273 -0.257822
vn 0.106791 0.960273 -0.257822
vn 0.106791 0.960273 -0.257822
vn 0.106791 0.960273 -0.257822
vn 0.257819 0.960273 -0.106793
vn 0.257819 0.960273 -0.106793
vn 0.257819 0.960273 -0.106793
vn 0.257819 0.960273 -0.106793
vn 0.257820 0.960273 0.106796
vn 0.257820 0.960273 0.106796
vn 0.257820 0.960273 0.106796
vn 0.257820 0.960273 0.106796
vn 0.382697 -0.000002 0.923874
vn 0.382697 -0.000002 0.923874
vn 0.382697 -0.000002 0.923874
vn 0.382697 -0.000002 0.923874
vn -0.382697 -0.000002 0.923874
vn -0.382697 -0.000002 0.923874
vn -0.382697 -0.000002 0.923874
vn -0.382697 -0.000002 0.923874
vn -0.923880 -0.000002 0.382683
vn -0.923880 -0.000002 0.382683
vn -0.923880 -0.000002 0.382683
vn -0.923880 -0.000002 0.382683
vn -0.923879 0.000002 -0.382686
vn -0.923879 0.000002 -0.382686
vn -0.923879 0.000002 -0.382686
vn -0.923879 0.000002 -0.382686
vn -0.382686 0.000000 -0.923878
vn -0.382686 0.000000 -0.923878
vn -0.382686 0.000000 -0.923878
vn -0.382686 0.000000 -0.923878
vn 0.382686 0.000000 -0.923878
vn 0.382686 0.000000 -0.923878
vn 0.382686 0.000000 -0.923878
vn 0.382686 0.000000 -0.923878
vn 0.923878 0.000002 -0.382686
vn 0.923878 0.000002 -0.382686
vn 0.923878 0.000002 -0.382686
vn 0.923878 0.000002 -0.382686
vn 0.923880 -0.000002 0.382684
vn 0.923880 -0.000002 0.382684
vn 0.923880 -0.000002 0.382684
vn 0.923880 -0.000002 0.382684
vn 0.923880 -0.000001 -0.382681
vn 0.923881 -0.000001 -0.382681
vn 0.923880 -0.000001 -0.382681
vn 0.923880 -0.000001 -0.382682
vn 0.382677 -0.000001 -0.923882
vn 0.382677 -0.000001 -0.923882
vn 0.382678 -0.000003 -0.923882
vn 0.382678 -0.000003 -0.923882
vn -0.382677 -0.000001 -0.923882
vn -0.382677 -0.000001 -0.923882
vn -0.382678 -0.000003 -0.923882
vn -0.382678 -0.000003 -0.923882
vn -0.923881 -0.000001 -0.382681
vn -0.923881 -0.000001 -0.382681
vn -0.923880 -0.000001 -0.382681
vn -0.923880 -0.000001 -0.382681
vn -0.923878 0.000000 0.382686
vn -0.923878 0.000000 0.382686
vn -0.923878 0.000000 0.382686
vn -0.923878 0.000000 0.382686
vn -0.382682 0.000000 0.923880
vn -0.382682 0.000000 0.923880
vn -0.382682 0.000000 0.923880
vn -0.382682 0.000000 0.923880
vn 0.382682 0.000000 0.923880
vn 0.382682 0.000000 0.923880
vn 0.382682 0.000000 0.923880
vn 0.382682 0.000000 0.923880
vn 0.923878 0.000000 0.382686
vn 0.923878 0.000000 0.382686
vn 0.923878 0.000000 0.382686
vn 0.923878 0.000000 0.382686
vn 0.923881 0.000002 -0.382681
vn 0.923881 0.000002 -0.382681
vn 0.923881 -0.000001 -0.382681
vn 0.923880 -0.000001 -0.382681
vn 0.382674 0.000005 -0.923883
vn 0.382674 0.000005 -0.923883
vn 0.382677 -0.000001 -0.923882
vn 0.382677 -0.000001 -0.923882
vn -0.382674 0.000005 -0.923883
vn -0.382674 0.000005 -0.923883
vn -0.382677 -0.000001 -0.923882
vn -0.382677 -0.000001 -0.923882
vn -0.923881 0.000002 -0.382680
vn -0.923881 0.000002 -0.382680
vn -0.923881 -0.000001 -0.382681
vn -0.923881 -0.000001 -0.382681
vn -0.923878 0.000000 0.382686
vn -0.923878 0.000000 0.382686
vn -0.923878 0.000000 0.382686
vn -0.923878 0.000000 0.382686
vn -0.382683 -0.000002 0.923880
vn -0.382683 -0.000002 0.923880
vn -0.382682 0.000000 0.923880
vn -0.382682 0.000000 0.923880
vn 0.382683 -0.000002 0.923880
vn 0.382683 -0.000002 0.923880
vn 0.382682 0.000000 0.923880
vn 0.382682 0.000000 0.923880
vn 0.923878 0.000000 0.382686
vn 0.923878 0.000000 0.382686
vn 0.923878 0.000000 0.382686
vn 0.923878 0.000000 0.382686
s off
f 1/1/1 2/2/2 57/3/3 58/4/4
f 2/2/5 3/5/6 56/6/7 57/3/8
f 3/5/9 4/7/10 55/8/11 56/6/12
f 4/7/13 5/9/14 54/10/15 55/8/16
f 5/9/17 6/11/18 53/12/19 54/10/20
f 6/11/21 7/13/22 52/14/23 53/12/24
f 7/13/25 8/15/26 51/16/27 52/14/28
f 8/15/29 1/17/30 58/18/31 51/16/32
f 35/19/33 34/20/34 36/21/35
f 37/22/36 35/19/37 36/21/38
f 38/23/39 37/22/40 36/21/41
f 39/24/42 38/23/43 36/21/44
f 40/25/45 39/24/46 36/21/47
f 41/26/48 40/25/49 36/21/50
f 42/27/51 41/26/52 36/21/53
f 34/20/54 42/27/55 36/21/56
f 17/28/57 18/29/58 19/30/59
f 18/29/60 20/31/61 19/30/62
f 20/31/63 21/32/64 19/30/65
f 21/32/66 22/33/67 19/30/68
f 22/33/69 23/34/70 19/30/71
f 23/34/72 24/35/73 19/30/74
f 24/35/75 25/36/76 19/30/77
f 25/36/78 17/28/79 19/30/80
f 9/37/81 10/38/82 18/29/83 17/28/84
f 10/38/85 11/39/86 20/31/87 18/29/88
f 11/39/89 12/40/90 21/32/91 20/31/92
f 12/40/93 13/41/94 22/33/95 21/32/96
f 13/41/97 14/42/98 23/34/99 22/33/100
f 14/42/101 15/43/102 24/35/103 23/34/104
f 15/43/105 16/44/106 25/36/107 24/35/108
f 16/44/109 9/37/110 17/28/111 25/36/112
f 2/45/113 1/46/114 26/47/115 27/48/116
f 3/49/117 2/45/118 27/48/119 28/50/120
f 4/51/121 3/49/122 28/50/123 29/52/124
f 5/53/125 4/51/126 29/52/127 30/54/128
f 6/55/129 5/53/130 30/54/131 31/56/132
f 7/57/133 6/55/134 31/56/135 32/58/136
f 8/59/137 7/57/138 32/58/139 33/60/140
f 1/46/141 8/59/142 33/60/143 26/47/144
f 27/48/145 26/47/146 34/20/147 35/19/148
f 28/50/149 27/48/150 35/19/151 37/22/152
f 29/52/153 28/50/154 37/22/155 38/23/156
f 30/54/157 29/52/158 38/23/159 39/24/160
f 31/56/161 30/54/162 39/24/163 40/25/164
f 32/58/165 31/56/166 40/25/167 41/26/168
f 33/60/169 32/58/170 41/26/171 42/27/172
f 26/47/173 33/60/174 42/27/175 34/20/176
f 44/61/177 43/62/178 16/63/179 15/64/180
f 45/65/181 44/61/182 15/64/183 14/66/184
f 46/67/185 45/65/186 14/66/187 13/68/188
f 47/69/189 46/67/190 13/68/191 12/70/192
f 48/71/193 47/69/194 12/70/195 11/72/196
f 49/73/197 48/71/198 11/72/199 10/74/200
f 50/75/201 49/73/202 10/74/203 9/76/204
f 43/62/205 50/77/206 9/78/207 16/63/208
f 52/79/209 51/80/210 43/81/211 44/82/212
f 53/83/213 52/79/214 44/82/215 45/84/216
f 54/85/217 53/83/218 45/84/219 46/86/220
f 55/87/221 54/85/222 46/86/223 47/88/224
f 56/89/225 55/87/226 47/88/227 48/90/228
f 57/91/229 56/89/230 48/90/231 49/92/232
f 58/93/233 57/91/234 49/92/235 50/94/236
f 51/80/237 58/93/238 50/94/239 43/81/240
