# This file uses meters as units for non-parametric coordinates.

v -3.500747 5.917114 -6.020264
v -5.664328 3.476212 -6.020264
v -5.664328 -3.476135 -6.020264
v -3.500746 -5.917145 -6.020264
v 3.500746 -5.917145 -6.020264
v 5.664328 -3.476135 -6.020264
v 5.664327 3.476212 -6.020264
v 3.500746 5.917114 -6.020264
v -3.500747 5.917114 6.020264
v -5.664328 3.476212 6.020264
v -5.664328 -3.476135 6.020264
v -3.500746 -5.917145 6.020264
v 3.500746 -5.917145 6.020264
v 5.664328 -3.476135 6.020264
v 5.664327 3.476212 6.020264
v 3.500746 5.917114 6.020264
v -2.824628 4.774353 6.020264
v -4.570344 2.804947 6.020264
v -4.570343 -2.804779 6.020264
v -2.824627 -4.774216 6.020264
v 2.824627 -4.774216 6.020264
v 4.570343 -2.804779 6.020264
v 4.570343 2.804947 6.020264
v 2.824627 4.774353 6.020264
v -2.571467 4.346603 5.609711
v -4.160721 2.553619 5.609711
v -0.000000 0.774384 5.609711
v -4.160721 -2.553406 5.609711
v -2.571466 -4.346390 5.609711
v 2.571466 -4.346390 5.609711
v 4.160720 -2.553406 5.609711
v 4.160720 2.553619 5.609711
v 2.571466 4.346603 5.609711
v -2.981015 5.038696 -6.020264
v -4.823384 2.960083 -6.020264
v -0.000000 0.897797 -6.020264
v -4.823383 -2.960083 -6.020264
v -2.981014 -5.038651 -6.020264
v 2.981014 -5.038651 -6.020264
v 4.823383 -2.960083 -6.020264
v 4.823382 2.960083 -6.020264
v 2.981014 5.038696 -6.020264
v -3.955822 6.686310 -4.606216
v -6.400652 3.928040 -4.606216
v -6.400652 -3.928040 -4.606216
v -3.955820 -6.686310 -4.606216
v 3.955821 -6.686310 -4.606216
v 6.400652 -3.928040 -4.606216
v 6.400652 3.928040 -4.606216
v 3.955820 6.686310 -4.606216
v -3.955822 6.686310 -2.991409
v -6.400652 3.928040 -2.991409
v -6.400652 -3.928040 -2.991409
v -3.955820 -6.686310 -2.991409
v 3.955821 -6.686310 -2.991409
v 6.400652 -3.928040 -2.991409
v 6.400652 3.928040 -2.991409
v 3.955820 6.686310 -2.991409
v 0.000000 1.191345 -4.606216
v 0.000000 1.191345 -2.991409
v -3.955822 6.686310 2.778931
v -6.400652 3.928040 2.778931
v -6.400652 -3.928040 2.778931
v -3.955820 -6.686310 2.778931
v 3.955821 -6.686310 2.778931
v 6.400652 -3.928040 2.778931
v 6.400652 3.928040 2.778931
v 3.955820 6.686310 2.778931
v -3.955822 6.686310 4.393738
v -6.400652 3.928040 4.393738
v -6.400652 -3.928040 4.393738
v -3.955820 -6.686310 4.393738
v 3.955821 -6.686310 4.393738
v 6.400652 -3.928040 4.393738
v 6.400652 3.928040 4.393738
v 3.955820 6.686310 4.393738
v 0.000000 1.191345 2.778931
v 0.000000 1.191345 4.393738
vt 0.233628 0.278222
vt 0.233628 0.278222
vt 0.233628 0.278222
vt 0.233628 0.278222
vt 0.233628 0.278222
vt 0.233628 0.278222
vt 0.233628 0.278222
vt 0.233628 0.278222
vt 0.233628 0.278222
vt 0.233628 0.278222
vt 0.233628 0.278222
vt 0.233628 0.278222
vt 0.233628 0.278222
vt 0.233628 0.278222
vt 0.233628 0.278222
vt 0.233628 0.278222
vt 0.233628 0.278222
vt 0.233628 0.278222
vt 0.233585 0.253922
vt 0.233585 0.253922
vt 0.233585 0.253922
vt 0.233585 0.253922
vt 0.233585 0.253922
vt 0.233585 0.253922
vt 0.233585 0.253922
vt 0.233585 0.253922
vt 0.233585 0.253922
vt 0.233614 0.253059
vt 0.233614 0.253059
vt 0.233614 0.253059
vt 0.233614 0.253059
vt 0.233614 0.253059
vt 0.233614 0.253059
vt 0.233614 0.253059
vt 0.233614 0.253059
vt 0.233614 0.253059
vt 0.233628 0.278222
vt 0.233628 0.278222
vt 0.233628 0.278222
vt 0.233628 0.278222
vt 0.233628 0.278222
vt 0.233628 0.278222
vt 0.233628 0.278222
vt 0.233628 0.278222
vt 0.233628 0.278222
vt 0.233628 0.278222
vt 0.233628 0.278222
vt 0.233628 0.278222
vt 0.233628 0.278222
vt 0.233628 0.278222
vt 0.233628 0.278222
vt 0.233628 0.278222
vt 0.233628 0.278222
vt 0.233628 0.278222
vt 0.233628 0.278222
vt 0.233628 0.278222
vt 0.233628 0.278222
vt 0.233628 0.278222
vt 0.233628 0.278222
vt 0.233628 0.278222
vt 0.233628 0.278222
vt 0.233628 0.278222
vt 0.233628 0.278222
vt 0.233628 0.278222
vt 0.233628 0.278222
vt 0.233628 0.278222
vt 0.233628 0.278222
vt 0.233628 0.278222
vt 0.233628 0.278222
vt 0.233628 0.278222
vt 0.233628 0.278222
vt 0.233628 0.278222
vt 0.233628 0.278222
vt 0.233628 0.278222
vt 0.233628 0.278222
vt 0.233628 0.278222
vt 0.993844 0.304485
vt 0.993844 0.304485
vt 0.993844 0.304485
vt 0.993844 0.304485
vt 0.993844 0.304485
vt 0.993844 0.304485
vt 0.993844 0.304485
vt 0.993844 0.304485
vt 0.993844 0.304485
vt 0.993844 0.304485
vt 0.993844 0.304485
vt 0.993844 0.304485
vt 0.993844 0.304485
vt 0.993844 0.304485
vt 0.993844 0.304485
vt 0.993844 0.304485
vt 0.993844 0.304485
vt 0.993844 0.304485
vt 0.993844 0.304485
vt 0.993844 0.304485
vt 0.993844 0.304485
vt 0.993844 0.304485
vt 0.993844 0.304485
vt 0.993844 0.304485
vt 0.993844 0.304485
vt 0.993844 0.304485
vt 0.993844 0.304485
vt 0.993844 0.304485
vt 0.993844 0.304485
vt 0.993844 0.304485
vt 0.993844 0.304485
vt 0.993844 0.304485
vt 0.993844 0.304485
vt 0.993844 0.304485
vt 0.993844 0.304485
vt 0.993844 0.304485
vn -0.748339 0.663317 0.000000
vn -0.748339 0.663317 0.000000
vn -0.748339 0.663317 0.000000
vn -0.748339 0.663317 0.000000
vn -1.000000 -0.000000 0.000000
vn -1.000000 -0.000000 0.000000
vn -1.000000 -0.000000 0.000000
vn -1.000000 -0.000000 0.000000
vn -0.748353 -0.663301 0.000000
vn -0.748353 -0.663301 0.000000
vn -0.748353 -0.663301 0.000000
vn -0.748353 -0.663301 0.000000
vn 0.000000 -1.000000 0.000000
vn 0.000000 -1.000000 0.000000
vn 0.000000 -1.000000 0.000000
vn 0.000000 -1.000000 0.000000
vn 0.748353 -0.663300 0.000000
vn 0.748353 -0.663300 0.000000
vn 0.748353 -0.663300 0.000000
vn 0.748353 -0.663300 0.000000
vn 1.000000 0.000000 0.000000
vn 1.000000 0.000000 0.000000
vn 1.000000 0.000000 0.000000
vn 1.000000 0.000000 0.000000
vn 0.748339 0.663317 0.000000
vn 0.748339 0.663317 0.000000
vn 0.748339 0.663317 0.000000
vn 0.748339 0.663317 0.000000
vn 0.000000 1.000000 0.000000
vn 0.000000 1.000000 0.000000
vn 0.000000 1.000000 0.000000
vn 0.000000 1.000000 0.000000
vn -0.000000 0.000000 -1.000000
vn -0.000000 0.000000 -1.000000
vn -0.000000 0.000000 -1.000000
vn 0.000000 0.000000 -1.000000
vn -0.000000 0.000000 -1.000000
vn -0.000000 0.000000 -1.000000
vn 0.000000 0.000000 -1.000000
vn 0.000000 0.000000 -1.000000
vn -0.000000 0.000000 -1.000000
vn 0.000000 0.000000 -1.000000
vn -0.000000 0.000000 -1.000000
vn 0.000000 0.000000 -1.000000
vn -0.000000 0.000000 -1.000000
vn 0.000000 0.000000 -1.000000
vn -0.000000 0.000000 -1.000000
vn 0.000000 0.000000 -1.000000
vn -0.000000 0.000000 -1.000000
vn -0.000000 0.000000 -1.000000
vn 0.000000 0.000000 -1.000000
vn 0.000000 0.000000 -1.000000
vn -0.000000 0.000000 -1.000000
vn 0.000000 0.000000 -1.000000
vn -0.000000 0.000000 -1.000000
vn -0.000000 0.000000 -1.000000
vn 0.000000 0.000000 1.000000
vn 0.000000 0.000000 1.000000
vn 0.000000 0.000000 1.000000
vn 0.000000 0.000000 1.000000
vn 0.000000 0.000000 1.000000
vn 0.000000 0.000000 1.000000
vn 0.000000 0.000000 1.000000
vn 0.000000 0.000000 1.000000
vn 0.000000 0.000000 1.000000
vn 0.000000 0.000000 1.000000
vn 0.000000 0.000000 1.000000
vn 0.000000 0.000000 1.000000
vn 0.000000 0.000000 1.000000
vn 0.000000 0.000000 1.000000
vn 0.000000 0.000000 1.000000
vn 0.000000 0.000000 1.000000
vn 0.000000 0.000000 1.000000
vn 0.000000 0.000000 1.000000
vn 0.000000 0.000000 1.000000
vn 0.000000 0.000000 1.000000
vn 0.000000 0.000000 1.000000
vn 0.000000 0.000000 1.000000
vn 0.000000 0.000000 1.000000
vn 0.000000 0.000000 1.000000
vn 0.000000 0.000000 1.000000
vn 0.000000 0.000000 1.000000
vn 0.000000 0.000000 1.000000
vn 0.000000 0.000000 1.000000
vn 0.000000 0.000000 1.000000
vn 0.000000 0.000000 1.000000
vn 0.000000 0.000000 1.000000
vn 0.000000 0.000000 1.000000
vn 0.000000 0.000000 1.000000
vn 0.000000 0.000000 1.000000
vn 0.000000 0.000000 1.000000
vn 0.000000 0.000000 1.000000
vn 0.000000 0.000000 1.000000
vn 0.000000 0.000000 1.000000
vn 0.000000 0.000000 1.000000
vn 0.000000 0.000000 1.000000
vn 0.000000 0.000000 1.000000
vn 0.000000 0.000000 1.000000
vn 0.000000 0.000000 1.000000
vn 0.000000 0.000000 1.000000
vn 0.000000 0.000000 1.000000
vn 0.000000 0.000000 1.000000
vn 0.000000 0.000000 1.000000
vn 0.000000 0.000000 1.000000
vn 0.000000 0.000000 1.000000
vn 0.000000 0.000000 1.000000
vn 0.000000 0.000000 1.000000
vn 0.000000 0.000000 1.000000
vn 0.000000 0.000000 1.000000
vn 0.000000 0.000000 1.000000
vn 0.000000 0.000000 1.000000
vn 0.000000 0.000000 1.000000
vn 0.490402 -0.434691 0.755347
vn 0.490402 -0.434691 0.755347
vn 0.490402 -0.434691 0.755347
vn 0.490402 -0.434691 0.755347
vn 0.707908 0.000000 0.706304
vn 0.707908 0.000000 0.706304
vn 0.707908 0.000000 0.706304
vn 0.707908 0.000000 0.706304
vn 0.490381 0.434668 0.755374
vn 0.490381 0.434668 0.755374
vn 0.490381 0.434668 0.755374
vn 0.490381 0.434668 0.755374
vn 0.000000 0.692391 0.721522
vn 0.000000 0.692391 0.721522
vn 0.000000 0.692391 0.721522
vn 0.000000 0.692391 0.721522
vn -0.490381 0.434668 0.755374
vn -0.490381 0.434668 0.755374
vn -0.490381 0.434668 0.755374
vn -0.490381 0.434668 0.755374
vn -0.707908 0.000000 0.706305
vn -0.707908 0.000000 0.706305
vn -0.707908 0.000000 0.706305
vn -0.707908 0.000000 0.706305
vn -0.490403 -0.434691 0.755347
vn -0.490403 -0.434691 0.755347
vn -0.490403 -0.434691 0.755347
vn -0.490403 -0.434691 0.755347
vn 0.000000 -0.692456 0.721461
vn 0.000000 -0.692456 0.721461
vn 0.000000 -0.692456 0.721461
vn 0.000000 -0.692456 0.721461
vn 0.000000 0.000000 -1.000000
vn 0.000000 0.000000 -1.000000
vn 0.000000 0.000000 -1.000000
vn 0.000000 0.000000 -1.000000
vn -0.000000 0.000000 -1.000000
vn -0.000000 0.000000 -1.000000
vn -0.000000 0.000000 -1.000000
vn -0.000000 0.000000 -1.000000
vn 0.000000 0.000000 -1.000000
vn 0.000000 0.000000 -1.000000
vn 0.000000 0.000000 -1.000000
vn 0.000000 0.000000 -1.000000
vn 0.000000 0.000000 -1.000000
vn 0.000000 0.000000 -1.000000
vn 0.000000 0.000000 -1.000000
vn 0.000000 0.000000 -1.000000
vn -0.000000 0.000000 -1.000000
vn -0.000000 0.000000 -1.000000
vn -0.000000 0.000000 -1.000000
vn -0.000000 0.000000 -1.000000
vn -0.000000 0.000000 -1.000000
vn -0.000000 0.000000 -1.000000
vn -0.000000 0.000000 -1.000000
vn -0.000000 0.000000 -1.000000
vn 0.000000 0.000000 -1.000000
vn 0.000000 0.000000 -1.000000
vn 0.000000 0.000000 -1.000000
vn 0.000000 0.000000 -1.000000
vn 0.000000 0.000000 -1.000000
vn 0.000000 0.000000 -1.000000
vn 0.000000 0.000000 -1.000000
vn 0.000000 0.000000 -1.000000
vn -0.748347 0.663308 0.000000
vn -0.748347 0.663308 0.000000
vn -0.748347 0.663308 0.000000
vn -0.748347 0.663308 0.000000
vn -1.000000 0.000000 0.000000
vn -1.000000 0.000000 0.000000
vn -1.000000 0.000000 0.000000
vn -1.000000 0.000000 0.000000
vn -0.748347 -0.663308 0.000000
vn -0.748347 -0.663308 0.000000
vn -0.748347 -0.663308 0.000000
vn -0.748347 -0.663308 0.000000
vn 0.000000 -1.000000 0.000000
vn 0.000000 -1.000000 0.000000
vn 0.000000 -1.000000 0.000000
vn 0.000000 -1.000000 0.000000
vn 0.748347 -0.663308 0.000000
vn 0.748347 -0.663308 0.000000
vn 0.748347 -0.663308 0.000000
vn 0.748347 -0.663308 0.000000
vn 1.000000 0.000000 0.000000
vn 1.000000 0.000000 0.000000
vn 1.000000 0.000000 0.000000
vn 1.000000 0.000000 0.000000
vn 0.748347 0.663308 0.000000
vn 0.748347 0.663308 0.000000
vn 0.748347 0.663308 0.000000
vn 0.748347 0.663308 0.000000
vn 0.000000 1.000000 0.000000
vn 0.000000 1.000000 0.000000
vn 0.000000 1.000000 0.000000
vn 0.000000 1.000000 0.000000
vn 0.000000 0.000000 -1.000000
vn -0.000000 0.000000 -1.000000
vn -0.000000 0.000000 -1.000000
vn 0.000000 0.000000 -1.000000
vn 0.000000 0.000000 -1.000000
vn -0.000000 0.000000 -1.000000
vn 0.000000 0.000000 -1.000000
vn 0.000000 0.000000 -1.000000
vn -0.000000 0.000000 -1.000000
vn 0.000000 0.000000 -1.000000
vn 0.000000 0.000000 -1.000000
vn -0.000000 0.000000 -1.000000
vn -0.000000 0.000000 -1.000000
vn 0.000000 0.000000 -1.000000
vn -0.000000 0.000000 -1.000000
vn -0.000000 0.000000 -1.000000
vn -0.000000 0.000000 -1.000000
vn -0.000000 0.000000 -1.000000
vn 0.000000 0.000000 -1.000000
vn -0.000000 0.000000 -1.000000
vn -0.000000 0.000000 -1.000000
vn -0.000000 0.000000 -1.000000
vn 0.000000 0.000000 -1.000000
vn -0.000000 0.000000 -1.000000
vn 0.000000 0.000000 1.000000
vn 0.000000 0.000000 1.000000
vn 0.000000 0.000000 1.000000
vn 0.000000 0.000000 1.000000
vn -0.000000 0.000000 1.000000
vn 0.000000 0.000000 1.000000
vn -0.000000 0.000000 1.000000
vn -0.000000 0.000000 1.000000
vn 0.000000 0.000000 1.000000
vn 0.000000 0.000000 1.000000
vn -0.000000 0.000000 1.000000
vn 0.000000 0.000000 1.000000
vn 0.000000 0.000000 1.000000
vn 0.000000 0.000000 1.000000
vn 0.000000 0.000000 1.000000
vn 0.000000 0.000000 1.000000
vn -0.000000 0.000000 1.000000
vn 0.000000 0.000000 1.000000
vn -0.000000 0.000000 1.000000
vn 0.000000 0.000000 1.000000
vn 0.000000 0.000000 1.000000
vn 0.000000 0.000000 1.000000
vn 0.000000 0.000000 1.000000
vn 0.000000 0.000000 1.000000
vn -0.748347 0.663308 0.000000
vn -0.748347 0.663308 0.000000
vn -0.748347 0.663308 0.000000
vn -0.748347 0.663308 0.000000
vn -1.000000 0.000000 0.000000
vn -1.000000 0.000000 0.000000
vn -1.000000 0.000000 0.000000
vn -1.000000 0.000000 0.000000
vn -0.748347 -0.663308 0.000000
vn -0.748347 -0.663308 0.000000
vn -0.748347 -0.663308 0.000000
vn -0.748347 -0.663308 0.000000
vn 0.000000 -1.000000 0.000000
vn 0.000000 -1.000000 0.000000
vn 0.000000 -1.000000 0.000000
vn 0.000000 -1.000000 0.000000
vn 0.748347 -0.663308 0.000000
vn 0.748347 -0.663308 0.000000
vn 0.748347 -0.663308 0.000000
vn 0.748347 -0.663308 0.000000
vn 1.000000 0.000000 0.000000
vn 1.000000 0.000000 0.000000
vn 1.000000 0.000000 0.000000
vn 1.000000 0.000000 0.000000
vn 0.748347 0.663308 0.000000
vn 0.748347 0.663308 0.000000
vn 0.748347 0.663308 0.000000
vn 0.748347 0.663308 0.000000
vn 0.000000 1.000000 0.000000
vn 0.000000 1.000000 0.000000
vn 0.000000 1.000000 0.000000
vn 0.000000 1.000000 0.000000
vn -0.000000 0.000000 -1.000000
vn -0.000000 0.000000 -1.000000
vn 0.000000 0.000000 -1.000000
vn 0.000000 0.000000 -1.000000
vn -0.000000 0.000000 -1.000000
vn 0.000000 0.000000 -1.000000
vn 0.000000 0.000000 -1.000000
vn 0.000000 0.000000 -1.000000
vn 0.000000 0.000000 -1.000000
vn 0.000000 0.000000 -1.000000
vn 0.000000 0.000000 -1.000000
vn 0.000000 0.000000 -1.000000
vn 0.000000 0.000000 -1.000000
vn 0.000000 0.000000 -1.000000
vn 0.000000 0.000000 -1.000000
vn 0.000000 0.000000 -1.000000
vn 0.000000 0.000000 -1.000000
vn 0.000000 0.000000 -1.000000
vn 0.000000 0.000000 -1.000000
vn 0.000000 0.000000 -1.000000
vn 0.000000 0.000000 -1.000000
vn -0.000000 0.000000 -1.000000
vn 0.000000 0.000000 -1.000000
vn 0.000000 0.000000 -1.000000
vn -0.000000 0.000000 1.000000
vn -0.000000 0.000000 1.000000
vn 0.000000 0.000000 1.000000
vn -0.000000 0.000000 1.000000
vn -0.000000 0.000000 1.000000
vn 0.000000 0.000000 1.000000
vn -0.000000 0.000000 1.000000
vn 0.000000 0.000000 1.000000
vn 0.000000 0.000000 1.000000
vn 0.000000 0.000000 1.000000
vn 0.000000 0.000000 1.000000
vn 0.000000 0.000000 1.000000
vn 0.000000 0.000000 1.000000
vn 0.000000 0.000000 1.000000
vn 0.000000 0.000000 1.000000
vn 0.000000 0.000000 1.000000
vn 0.000000 0.000000 1.000000
vn 0.000000 0.000000 1.000000
vn 0.000000 0.000000 1.000000
vn 0.000000 0.000000 1.000000
vn 0.000000 0.000000 1.000000
vn 0.000000 0.000000 1.000000
vn 0.000000 0.000000 1.000000
vn -0.000000 0.000000 1.000000
s off
f 1/1/1 2/2/2 10/3/3 9/4/4
f 2/2/5 3/5/6 11/6/7 10/3/8
f 3/5/9 4/7/10 12/8/11 11/6/12
f 12/8/13 4/7/14 5/9/15 13/10/16
f 5/9/17 6/11/18 14/12/19 13/10/20
f 6/11/21 7/13/22 15/14/23 14/12/24
f 7/13/25 8/15/26 16/16/27 15/14/28
f 16/16/29 8/15/30 1/17/31 9/18/32
f 35/19/33 34/20/34 36/21/35
f 37/22/36 35/19/37 36/21/38
f 38/23/39 37/22/40 36/21/41
f 38/23/42 36/21/43 39/24/44
f 40/25/45 39/24/46 36/21/47
f 41/26/48 40/25/49 36/21/50
f 42/27/51 41/26/52 36/21/53
f 42/27/54 36/21/55 34/20/56
f 25/28/57 26/29/58 27/30/59
f 26/29/60 28/31/61 27/30/62
f 28/31/63 29/32/64 27/30/65
f 27/30/66 29/32/67 30/33/68
f 30/33/69 31/34/70 27/30/71
f 31/34/72 32/35/73 27/30/74
f 32/35/75 33/36/76 27/30/77
f 27/30/78 33/36/79 25/28/80
f 9/37/81 10/38/82 18/39/83 17/40/84
f 10/38/85 11/41/86 19/42/87 18/39/88
f 11/41/89 12/43/90 20/44/91 19/42/92
f 20/44/93 12/43/94 13/45/95 21/46/96
f 13/45/97 14/47/98 22/48/99 21/46/100
f 14/47/101 15/49/102 23/50/103 22/48/104
f 15/49/105 16/51/106 24/52/107 23/50/108
f 24/52/109 16/51/110 9/37/111 17/40/112
f 17/40/113 18/39/114 26/53/115 25/54/116
f 18/39/117 19/42/118 28/55/119 26/53/120
f 19/42/121 20/44/122 29/56/123 28/55/124
f 29/56/125 20/44/126 21/46/127 30/57/128
f 21/46/129 22/48/130 31/58/131 30/57/132
f 22/48/133 23/50/134 32/59/135 31/58/136
f 23/50/137 24/52/138 33/60/139 32/59/140
f 33/60/141 24/52/142 17/40/143 25/54/144
f 2/61/145 1/62/146 34/63/147 35/64/148
f 3/65/149 2/61/150 35/64/151 37/66/152
f 4/67/153 3/65/154 37/66/155 38/68/156
f 38/68/157 39/69/158 5/70/159 4/67/160
f 6/71/161 5/70/162 39/69/163 40/72/164
f 7/73/165 6/71/166 40/72/167 41/74/168
f 8/75/169 7/73/170 41/74/171 42/76/172
f 42/76/173 34/63/174 1/62/175 8/75/176
f 43/77/177 44/78/178 52/79/179 51/80/180
f 44/78/181 45/81/182 53/82/183 52/79/184
f 45/81/185 46/83/186 54/84/187 53/82/188
f 54/84/189 46/83/190 47/85/191 55/86/192
f 47/85/193 48/87/194 56/88/195 55/86/196
f 48/87/197 49/89/198 57/90/199 56/88/200
f 49/89/201 50/91/202 58/92/203 57/90/204
f 58/92/205 50/91/206 43/77/207 51/80/208
f 44/78/209 43/77/210 59/93/211
f 45/81/212 44/78/213 59/93/214
f 46/83/215 45/81/216 59/93/217
f 47/85/218 46/83/219 59/93/220
f 48/87/221 47/85/222 59/93/223
f 49/89/224 48/87/225 59/93/226
f 50/91/227 49/89/228 59/93/229
f 43/77/230 50/91/231 59/93/232
f 51/80/233 52/79/234 60/94/235
f 52/79/236 53/82/237 60/94/238
f 53/82/239 54/84/240 60/94/241
f 60/94/242 54/84/243 55/86/244
f 55/86/245 56/88/246 60/94/247
f 56/88/248 57/90/249 60/94/250
f 57/90/251 58/92/252 60/94/253
f 60/94/254 58/92/255 51/80/256
f 61/95/257 62/96/258 70/97/259 69/98/260
f 62/96/261 63/99/262 71/100/263 70/97/264
f 63/99/265 64/101/266 72/102/267 71/100/268
f 72/102/269 64/101/270 65/103/271 73/104/272
f 65/103/273 66/105/274 74/106/275 73/104/276
f 66/105/277 67/107/278 75/108/279 74/106/280
f 67/107/281 68/109/282 76/110/283 75/108/284
f 76/110/285 68/109/286 61/95/287 69/98/288
f 62/96/289 61/95/290 77/111/291
f 63/99/292 62/96/293 77/111/294
f 64/101/295 63/99/296 77/111/297
f 65/103/298 64/101/299 77/111/300
f 66/105/301 65/103/302 77/111/303
f 67/107/304 66/105/305 77/111/306
f 68/109/307 67/107/308 77/111/309
f 61/95/310 68/109/311 77/111/312
f 69/98/313 70/97/314 78/112/315
f 70/97/316 71/100/317 78/112/318
f 71/100/319 72/102/320 78/112/321
f 78/112/322 72/102/323 73/104/324
f 73/104/325 74/106/326 78/112/327
f 74/106/328 75/108/329 78/112/330
f 75/108/331 76/110/332 78/112/333
f 78/112/334 76/110/335 69/98/336
