# This file uses meters as units for non-parametric coordinates.

v 0.969799 1.301171 2.032181
v 0.969799 1.301171 1.138212
v 0.969799 2.075370 0.691231
v 0.969799 2.849567 1.138212
v 0.969799 2.849567 2.032181
v 0.969799 2.075370 2.479164
v 1.626709 1.301171 2.032181
v 1.626709 1.301171 1.138212
v 1.626709 2.075370 0.691231
v 1.626709 2.849567 1.138212
v 1.626709 2.849567 2.032181
v 1.626709 2.075370 2.479164
v 0.969799 2.075370 1.585196
v 1.626709 1.555035 1.885614
v 1.626709 1.555035 1.284782
v 1.626709 2.075370 0.984369
v 1.626709 2.595705 1.284782
v 1.626709 2.595705 1.885614
v 1.626709 2.075370 2.186028
v 1.821272 1.613965 1.851589
v 1.821272 1.613965 1.318810
v 1.821272 2.075370 1.585196
v 1.821272 2.075370 1.052416
v 1.821272 2.536776 1.318810
v 1.821272 2.536776 1.851589
v 1.821272 2.075370 2.117983
v -1.821272 1.649067 0.606750
v 0.969799 1.649067 0.606750
v -1.821272 1.649067 -2.184311
v 0.969799 1.649067 -2.184311
v -1.821272 0.000000 -2.184311
v 0.969799 0.000000 -2.184311
v -1.821272 0.000000 2.628202
v 0.969799 0.000000 2.628202
v 0.969799 1.649067 2.628202
v -1.821272 1.649067 2.628202
v -1.821272 3.313859 0.606750
v 0.969799 3.313859 0.606750
v -1.821272 3.313859 2.628202
v 0.969799 3.313859 2.628202
v 0.099195 3.313859 0.606750
v 0.099195 3.313859 2.628202
v -0.950669 3.313859 0.606750
v -0.950669 3.313859 2.628202
v 0.262640 4.720292 1.051023
v 0.633656 4.720292 1.051023
v 0.262640 4.720292 2.183934
v 0.633656 4.720292 2.183934
v -1.114114 4.720292 1.051023
v -1.114114 4.720292 2.183934
v -1.485130 4.720292 1.051023
v -1.485130 4.720292 2.183934
v -0.192195 3.313859 1.279194
v -0.192195 3.313859 1.955769
v -0.659279 3.313859 1.279194
v -0.659279 3.313859 1.955769
v -0.302444 4.212198 1.438891
v -0.302444 4.212198 1.796076
v -0.549029 4.212198 1.438891
v -0.549029 4.212198 1.796076
v 0.902570 3.747098 0.765953
v 0.262640 3.747098 0.765953
v 0.262640 3.747098 2.469000
v 0.902570 3.747098 2.469000
v -1.114114 3.747098 2.469000
v -1.114114 3.747098 0.765953
v -1.754044 3.747098 0.765953
v -1.754044 3.747098 2.469000
v 0.382601 2.347169 0.606750
v -1.234075 2.347169 0.606750
v -1.603413 1.514099 -2.628204
v 0.751939 1.514099 -2.628204
v 0.751939 0.000000 -2.628204
v -1.603413 0.000000 -2.628204
v -1.821272 0.000000 -0.975447
v 0.969799 0.000000 -0.975447
v 0.969799 0.839861 -0.792438
v -1.821272 0.839861 -0.792438
v 0.969799 0.000000 1.434935
v -1.821272 0.000000 1.434935
v 0.969799 0.839861 1.242762
v -1.821272 0.839861 1.242762
v -0.915021 0.167598 -0.750018
v 0.063548 0.167598 -0.750018
v 0.267049 0.741461 -0.692569
v -1.118523 0.741461 -0.692569
v 0.063548 0.167598 1.200343
v -0.915021 0.167598 1.200343
v 0.267049 0.741461 1.142893
v -1.118523 0.741461 1.142893
vt 0.245069 0.228608
vt 0.245069 0.228608
vt 0.245069 0.228608
vt 0.245069 0.228608
vt 0.245069 0.228608
vt 0.245069 0.228608
vt 0.245069 0.228608
vt 0.245069 0.228608
vt 0.245069 0.228608
vt 0.245069 0.228608
vt 0.245069 0.228608
vt 0.245069 0.228608
vt 0.245069 0.228608
vt 0.245069 0.228608
vt 0.245069 0.228608
vt 0.245069 0.228608
vt 0.245069 0.228608
vt 0.245069 0.228608
vt 0.245069 0.228608
vt 0.245069 0.228608
vt 0.245069 0.228608
vt 0.235497 0.228608
vt 0.235497 0.228608
vt 0.235497 0.228608
vt 0.235497 0.228608
vt 0.235497 0.228608
vt 0.235497 0.228608
vt 0.235497 0.228608
vt 0.245069 0.228608
vt 0.245069 0.228608
vt 0.245069 0.228608
vt 0.245069 0.228608
vt 0.245069 0.228608
vt 0.245069 0.228608
vt 0.245069 0.228608
vt 0.245069 0.228608
vt 0.245069 0.228608
vt 0.245069 0.228608
vt 0.245069 0.228608
vt 0.245069 0.228608
vt 0.235497 0.228608
vt 0.235497 0.228608
vt 0.235497 0.228608
vt 0.235497 0.228608
vt 0.235497 0.228608
vt 0.235497 0.228608
vt 0.245752 0.228998
vt 0.245752 0.228998
vt 0.245752 0.228998
vt 0.245752 0.228998
vt 0.245752 0.228998
vt 0.245752 0.228998
vt 0.245752 0.228998
vt 0.245752 0.228998
vt 0.245752 0.228998
vt 0.245752 0.228998
vt 0.245752 0.228998
vt 0.234664 0.231328
vt 0.234664 0.231328
vt 0.234664 0.231328
vt 0.234664 0.231328
vt 0.234664 0.231328
vt 0.234664 0.231328
vt 0.234664 0.231328
vt 0.234664 0.231328
vt 0.245752 0.228998
vt 0.245752 0.228998
vt 0.245752 0.228998
vt 0.245752 0.228998
vt 0.245752 0.228998
vt 0.245752 0.228998
vt 0.245752 0.228998
vt 0.245752 0.228998
vt 0.245752 0.228998
vt 0.245752 0.228998
vt 0.245752 0.228998
vt 0.245752 0.228998
vt 0.245752 0.228998
vt 0.245752 0.228998
vt 0.245752 0.228998
vt 0.245752 0.228998
vt 0.245752 0.228998
vt 0.245752 0.228998
vt 0.245752 0.228998
vt 0.245752 0.228998
vt 0.245752 0.228998
vt 0.245752 0.228998
vt 0.245752 0.228998
vt 0.245752 0.228998
vt 0.245752 0.228998
vt 0.245752 0.228998
vt 0.245752 0.228998
vt 0.245752 0.228998
vt 0.245752 0.228998
vt 0.245752 0.228998
vt 0.245752 0.228998
vt 0.245752 0.228998
vt 0.245752 0.228998
vt 0.245752 0.228998
vt 0.245752 0.228998
vt 0.245752 0.228998
vt 0.245752 0.228998
vt 0.245752 0.228998
vt 0.245752 0.228998
vt 0.245752 0.228998
vt 0.245752 0.228998
vt 0.245752 0.228998
vt 0.245752 0.228998
vt 0.245752 0.228998
vt 0.245752 0.228998
vt 0.245752 0.228998
vt 0.245752 0.228998
vt 0.245752 0.228998
vt 0.245752 0.228998
vt 0.245752 0.228998
vt 0.245752 0.228998
vt 0.245752 0.228998
vt 0.245752 0.228998
vt 0.245752 0.228998
vt 0.245752 0.228998
vt 0.245752 0.228998
vt 0.245752 0.228998
vt 0.245752 0.228998
vt 0.245752 0.228998
vt 0.245752 0.228998
vt 0.245752 0.228998
vn 0.000000 -1.000000 0.000000
vn 0.000000 -1.000000 0.000000
vn 0.000000 -1.000000 0.000000
vn 0.000000 -1.000000 0.000000
vn 0.000000 -0.499998 -0.866027
vn 0.000000 -0.499998 -0.866027
vn 0.000000 -0.499998 -0.866027
vn 0.000000 -0.499998 -0.866027
vn 0.000000 0.499999 -0.866026
vn 0.000000 0.499999 -0.866026
vn 0.000000 0.499999 -0.866026
vn 0.000000 0.499999 -0.866026
vn 0.000000 1.000000 0.000000
vn 0.000000 1.000000 0.000000
vn 0.000000 1.000000 0.000000
vn 0.000000 1.000000 0.000000
vn 0.000000 0.500000 0.866025
vn 0.000000 0.500000 0.866025
vn 0.000000 0.500000 0.866025
vn 0.000000 0.500000 0.866025
vn 0.000000 -0.500000 0.866026
vn 0.000000 -0.500000 0.866026
vn 0.000000 -0.500000 0.866026
vn 0.000000 -0.500000 0.866026
vn -1.000000 0.000000 0.000000
vn -1.000000 -0.000000 0.000000
vn -1.000000 0.000000 0.000000
vn -1.000000 0.000000 0.000000
vn -1.000000 0.000000 0.000000
vn -1.000000 0.000000 0.000000
vn -1.000000 -0.000000 0.000000
vn -1.000000 0.000000 0.000000
vn -1.000000 0.000000 0.000000
vn -1.000000 0.000000 0.000000
vn -1.000000 -0.000000 0.000000
vn -1.000000 0.000000 0.000000
vn -1.000000 0.000000 0.000000
vn -1.000000 0.000000 0.000000
vn -1.000000 0.000000 0.000000
vn -1.000000 -0.000000 0.000000
vn -1.000000 0.000000 0.000000
vn -1.000000 0.000000 0.000000
vn 1.000000 0.000000 0.000000
vn 1.000000 0.000000 0.000000
vn 1.000000 0.000000 0.000000
vn 1.000000 0.000000 0.000000
vn 1.000000 0.000000 0.000000
vn 1.000000 0.000000 0.000000
vn 1.000000 0.000000 0.000000
vn 1.000000 0.000000 0.000000
vn 1.000000 0.000000 0.000000
vn 1.000000 0.000000 0.000000
vn 1.000000 0.000000 0.000000
vn 1.000000 0.000000 0.000000
vn 1.000000 0.000000 0.000000
vn 1.000000 0.000000 0.000000
vn 1.000000 0.000000 0.000000
vn 1.000000 0.000000 0.000000
vn 1.000000 0.000000 0.000000
vn 1.000000 0.000000 0.000000
vn 1.000000 0.000000 0.000000
vn 1.000000 0.000000 0.000000
vn 1.000000 0.000000 0.000000
vn 1.000000 0.000000 0.000000
vn 1.000000 -0.000000 0.000000
vn 1.000000 -0.000000 0.000000
vn 1.000000 -0.000000 0.000000
vn 1.000000 -0.000000 0.000000
vn 1.000000 0.000000 0.000000
vn 1.000000 0.000000 0.000000
vn 1.000000 0.000000 0.000000
vn 1.000000 0.000000 0.000000
vn 1.000000 -0.000000 0.000000
vn 1.000000 -0.000000 0.000000
vn 1.000000 -0.000000 0.000000
vn 1.000000 -0.000000 0.000000
vn 1.000000 0.000000 0.000000
vn 1.000000 0.000000 0.000000
vn 1.000000 0.000000 0.000000
vn 1.000000 0.000000 0.000000
vn 1.000000 -0.000000 0.000000
vn 1.000000 -0.000000 0.000000
vn 1.000000 -0.000000 0.000000
vn 1.000000 -0.000000 0.000000
vn 0.289881 -0.957063 0.000000
vn 0.289881 -0.957063 0.000000
vn 0.289881 -0.957063 0.000000
vn 0.289881 -0.957063 0.000000
vn 0.289887 -0.478529 -0.828839
vn 0.289887 -0.478529 -0.828839
vn 0.289887 -0.478529 -0.828839
vn 0.289887 -0.478529 -0.828839
vn 0.289886 0.478529 -0.828840
vn 0.289886 0.478529 -0.828840
vn 0.289886 0.478529 -0.828840
vn 0.289886 0.478529 -0.828840
vn 0.289877 0.957064 0.000000
vn 0.289877 0.957064 0.000000
vn 0.289877 0.957064 0.000000
vn 0.289877 0.957064 0.000000
vn 0.289879 0.478531 0.828842
vn 0.289879 0.478531 0.828842
vn 0.289879 0.478531 0.828842
vn 0.289879 0.478531 0.828842
vn 0.289880 -0.478531 0.828842
vn 0.289880 -0.478531 0.828841
vn 0.289880 -0.478531 0.828842
vn 0.289880 -0.478531 0.828842
vn 0.000000 0.000000 1.000000
vn 0.000000 0.000000 1.000000
vn 0.000000 0.000000 1.000000
vn 0.000000 0.000000 1.000000
vn -0.765277 0.643701 0.000000
vn -0.765277 0.643701 0.000000
vn -0.765277 0.643701 0.000000
vn 0.000000 0.000000 -1.000000
vn 0.000000 0.000000 -1.000000
vn 0.000000 0.000000 -1.000000
vn 0.000000 0.000000 -1.000000
vn -0.942494 -0.334224 0.000000
vn -0.942494 -0.334224 0.000000
vn -0.942494 -0.334224 0.000000
vn -0.942494 -0.334224 0.000000
vn 0.000000 -1.000000 0.000000
vn 0.000000 -1.000000 0.000000
vn 0.000000 -1.000000 0.000000
vn 0.000000 -1.000000 0.000000
vn 0.942494 -0.334224 0.000000
vn 0.942494 -0.334224 0.000000
vn 0.942494 -0.334224 0.000000
vn 0.942494 -0.334224 0.000000
vn 0.000000 1.000000 0.000000
vn 0.000000 1.000000 0.000000
vn 0.000000 1.000000 0.000000
vn 0.000000 1.000000 0.000000
vn -0.000000 0.000000 -1.000000
vn -0.000000 0.000000 -1.000000
vn -0.000000 0.000000 -1.000000
vn -0.000000 0.000000 -1.000000
vn -1.000000 0.000000 0.000000
vn -1.000000 0.000000 0.000000
vn -1.000000 0.000000 0.000000
vn -1.000000 0.000000 0.000000
vn 0.000000 0.000000 1.000000
vn 0.000000 0.000000 1.000000
vn 0.000000 0.000000 1.000000
vn 1.000000 0.000000 0.000000
vn 1.000000 0.000000 0.000000
vn 1.000000 0.000000 0.000000
vn 1.000000 0.000000 0.000000
vn 0.000000 1.000000 0.000000
vn 0.000000 1.000000 0.000000
vn 0.000000 1.000000 0.000000
vn 0.000000 1.000000 0.000000
vn 0.000000 1.000000 0.000000
vn 0.000000 1.000000 0.000000
vn 0.000000 1.000000 0.000000
vn 0.000000 1.000000 0.000000
vn 0.000000 0.000000 -1.000000
vn 0.000000 0.000000 -1.000000
vn 0.000000 0.000000 -1.000000
vn 0.000000 0.000000 -1.000000
vn 0.000000 0.000000 1.000000
vn 0.000000 0.000000 1.000000
vn 0.000000 0.000000 1.000000
vn 0.000000 0.281110 -0.959676
vn 0.000000 0.281110 -0.959676
vn 0.000000 0.281110 -0.959676
vn 0.000000 0.281110 -0.959676
vn -1.000000 -0.000000 0.000000
vn -1.000000 -0.000000 0.000000
vn -1.000000 -0.000000 0.000000
vn -1.000000 -0.000000 0.000000
vn 0.000000 0.281106 0.959677
vn 0.000000 0.281106 0.959677
vn 0.000000 0.281106 0.959677
vn 0.000000 0.281106 0.959677
vn 0.963879 0.266340 0.000000
vn 0.963879 0.266340 0.000000
vn 0.963879 0.266340 0.000000
vn 0.963879 0.266340 0.000000
vn 1.000000 0.000000 0.000000
vn 1.000000 0.000000 0.000000
vn 1.000000 0.000000 0.000000
vn 1.000000 0.000000 0.000000
vn 0.000000 0.281110 -0.959676
vn 0.000000 0.281110 -0.959676
vn 0.000000 0.281110 -0.959676
vn 0.000000 0.281110 -0.959676
vn -0.963879 0.266340 0.000000
vn -0.963879 0.266340 0.000000
vn -0.963879 0.266340 0.000000
vn -0.963879 0.266340 0.000000
vn 0.000000 0.281106 0.959677
vn 0.000000 0.281106 0.959677
vn 0.000000 0.281106 0.959677
vn 0.000000 0.281106 0.959677
vn 0.000000 0.000000 1.000000
vn 0.000000 0.000000 1.000000
vn 0.000000 0.000000 1.000000
vn 0.000000 0.000000 1.000000
vn 0.000000 1.000000 0.000000
vn 0.000000 1.000000 0.000000
vn 0.000000 1.000000 0.000000
vn 0.000000 1.000000 0.000000
vn 0.000000 1.000000 0.000000
vn 0.000000 1.000000 0.000000
vn 0.000000 1.000000 0.000000
vn 0.000000 1.000000 0.000000
vn 0.000000 1.000000 0.000000
vn 0.000000 1.000000 0.000000
vn 0.000000 1.000000 0.000000
vn 0.000000 1.000000 0.000000
vn 0.000000 1.000000 0.000000
vn 0.000000 1.000000 0.000000
vn 0.000000 1.000000 0.000000
vn 0.000000 1.000000 0.000000
vn 0.992553 0.121812 0.000000
vn 0.992553 0.121812 0.000000
vn 0.992553 0.121812 0.000000
vn 0.992553 0.121812 0.000000
vn 0.000000 0.175026 -0.984564
vn 0.000000 0.175026 -0.984564
vn 0.000000 0.175026 -0.984564
vn 0.000000 0.175026 -0.984564
vn -0.992553 0.121812 0.000000
vn -0.992553 0.121812 0.000000
vn -0.992553 0.121812 0.000000
vn -0.992553 0.121812 0.000000
vn 0.000000 0.175021 0.984565
vn 0.000000 0.175021 0.984565
vn 0.000000 0.175021 0.984565
vn 0.000000 0.175021 0.984565
vn 0.000000 0.344920 -0.938632
vn 0.000000 0.344920 -0.938632
vn 0.000000 0.344919 -0.938632
vn 0.000000 0.344919 -0.938632
vn -0.935631 0.352979 0.000000
vn -0.935631 0.352979 0.000000
vn -0.935631 0.352979 0.000000
vn -0.935631 0.352979 0.000000
vn 0.000000 0.344919 0.938632
vn 0.000000 0.344920 0.938632
vn 0.000000 0.344919 0.938632
vn 0.000000 0.344919 0.938632
vn 0.988173 0.153341 0.000000
vn 0.988173 0.153341 0.000000
vn 0.988173 0.153341 0.000000
vn 0.988173 0.153341 0.000000
vn 0.935632 0.352978 0.000000
vn 0.935632 0.352978 0.000000
vn 0.935631 0.352978 0.000000
vn 0.935631 0.352978 0.000000
vn 0.000000 0.344919 -0.938632
vn 0.000000 0.344920 -0.938632
vn 0.000000 0.344919 -0.938632
vn 0.000000 0.344920 -0.938632
vn -0.988173 0.153341 0.000000
vn -0.988173 0.153341 0.000000
vn -0.988173 0.153341 0.000000
vn -0.988173 0.153341 0.000000
vn 0.000000 0.344919 0.938632
vn 0.000000 0.344919 0.938632
vn 0.000000 0.344919 0.938632
vn 0.000000 0.344919 0.938632
vn 0.765277 0.643701 0.000000
vn 0.765277 0.643701 0.000000
vn 0.765277 0.643701 0.000000
vn 0.000000 0.000000 -1.000000
vn 0.000000 0.000000 -1.000000
vn 0.000000 0.000000 -1.000000
vn 0.000000 0.000000 -1.000000
vn 0.000000 0.970115 -0.242646
vn 0.000000 0.970115 -0.242646
vn 0.000000 0.970115 -0.242646
vn 0.000000 0.970115 -0.242646
vn 0.000000 0.956752 -0.290905
vn 0.000000 0.956752 -0.290905
vn 0.000000 0.956752 -0.290905
vn 0.000000 0.956752 -0.290905
vn 0.897709 0.000000 -0.440589
vn 0.897709 0.000000 -0.440589
vn 0.897709 0.000000 -0.440589
vn 0.897709 0.000000 -0.440589
vn 0.000000 -1.000000 0.000000
vn 0.000000 -1.000000 0.000000
vn 0.000000 -1.000000 0.000000
vn 0.000000 -1.000000 0.000000
vn -0.897709 0.000000 -0.440589
vn -0.897709 0.000000 -0.440589
vn -0.897709 0.000000 -0.440589
vn -0.897709 0.000000 -0.440589
vn 0.000000 -1.000000 0.000000
vn 0.000000 -1.000000 0.000000
vn 0.000000 -1.000000 0.000000
vn 0.000000 -1.000000 0.000000
vn 1.000000 0.000000 0.000000
vn 1.000000 0.000000 0.000000
vn 1.000000 0.000000 0.000000
vn 1.000000 0.000000 0.000000
vn 1.000000 0.000000 0.000000
vn 1.000000 0.000000 0.000000
vn 1.000000 -0.000000 0.000000
vn -1.000000 0.000000 0.000000
vn -1.000000 0.000000 0.000000
vn -1.000000 0.000000 0.000000
vn -1.000000 0.000000 0.000000
vn 0.000000 -1.000000 0.000000
vn 0.000000 -1.000000 0.000000
vn 0.000000 -1.000000 0.000000
vn 0.000000 -1.000000 0.000000
vn 1.000000 -0.000000 0.000000
vn 1.000000 -0.000000 0.000000
vn 1.000000 -0.000000 0.000000
vn 1.000000 -0.000000 0.000000
vn -1.000000 0.000000 0.000000
vn -1.000000 0.000000 0.000000
vn -1.000000 0.000000 0.000000
vn -1.000000 0.000000 0.000000
vn -1.000000 -0.000000 0.000000
vn -1.000000 -0.000000 0.000000
vn -1.000000 -0.000000 0.000000
vn -1.000000 0.000000 0.000000
vn 0.000000 -0.802511 0.596637
vn 0.000000 -0.802511 0.596637
vn 0.000000 -0.802511 0.596637
vn 0.000000 -0.802511 0.596637
vn 0.186635 -0.190785 0.963726
vn 0.186635 -0.190785 0.963726
vn 0.186635 -0.190785 0.963726
vn 0.186635 -0.190785 0.963726
vn 0.138669 -0.990339 0.000000
vn 0.138669 -0.990339 0.000000
vn 0.138669 -0.990339 0.000000
vn 0.138669 -0.990339 0.000000
vn -0.186635 -0.190785 0.963726
vn -0.186635 -0.190785 0.963726
vn -0.186635 -0.190785 0.963726
vn -0.186635 -0.190785 0.963726
vn 0.000000 -0.813680 -0.581313
vn 0.000000 -0.813680 -0.581313
vn 0.000000 -0.813680 -0.581313
vn 0.000000 -0.813680 -0.581313
vn 0.191375 -0.197318 -0.961479
vn 0.191375 -0.197318 -0.961479
vn 0.191375 -0.197318 -0.961479
vn 0.191375 -0.197318 -0.961479
vn -0.191375 -0.197318 -0.961479
vn -0.191375 -0.197318 -0.961479
vn -0.191375 -0.197318 -0.961479
vn -0.191375 -0.197318 -0.961479
vn -0.138669 -0.990339 0.000000
vn -0.138669 -0.990339 0.000000
vn -0.138669 -0.990339 0.000000
vn -0.138669 -0.990339 0.000000
vn 1.000000 0.000000 0.000000
vn 1.000000 -0.000000 0.000000
vn 1.000000 -0.000000 0.000000
vn 1.000000 -0.000000 0.000000
vn -1.000000 0.000000 0.000000
vn -1.000000 -0.000000 0.000000
vn -1.000000 0.000000 0.000000
s off
f 1/1/1 2/2/2 8/3/3 7/4/4
f 2/2/5 3/5/6 9/6/7 8/3/8
f 3/5/9 4/7/10 10/8/11 9/6/12
f 4/7/13 5/9/14 11/10/15 10/8/16
f 5/9/17 6/11/18 12/12/19 11/10/20
f 6/11/21 1/13/22 7/14/23 12/12/24
f 2/15/25 1/16/26 13/17/27
f 3/18/28 2/15/29 13/17/30
f 4/19/31 3/18/32 13/17/33
f 5/20/34 4/19/35 13/17/36
f 6/21/37 5/20/38 13/17/39
f 1/16/40 6/21/41 13/17/42
f 20/22/43 21/23/44 22/24/45
f 21/23/46 23/25/47 22/24/48
f 23/25/49 24/26/50 22/24/51
f 24/26/52 25/27/53 22/24/54
f 25/27/55 26/28/56 22/24/57
f 26/28/58 20/22/59 22/24/60
f 7/29/61 8/30/62 15/31/63 14/32/64
f 8/30/65 9/33/66 16/34/67 15/31/68
f 9/33/69 10/35/70 17/36/71 16/34/72
f 10/35/73 11/37/74 18/38/75 17/36/76
f 11/37/77 12/39/78 19/40/79 18/38/80
f 12/39/81 7/29/82 14/32/83 19/40/84
f 14/41/85 15/42/86 21/23/87 20/22/88
f 15/42/89 16/43/90 23/25/91 21/23/92
f 16/43/93 17/44/94 24/26/95 23/25/96
f 17/44/97 18/45/98 25/27/99 24/26/100
f 18/45/101 19/46/102 26/28/103 25/27/104
f 19/46/105 14/41/106 20/22/107 26/28/108
f 33/47/109 34/48/110 35/49/111 36/50/112
f 27/51/113 70/52/114 29/53/115
f 71/54/116 72/55/117 73/56/118 74/57/119
f 86/58/120 83/59/121 88/60/122 90/61/123
f 84/62/124 87/63/125 88/60/126 83/59/127
f 85/64/128 89/65/129 87/63/130 84/62/131
f 46/66/132 45/67/133 47/68/134 48/69/135
f 41/70/136 38/71/137 28/72/138 69/73/139
f 27/51/140 36/50/141 39/74/142 37/75/143
f 36/50/144 44/76/145 39/74/146
f 35/49/147 28/72/148 38/71/149 40/77/150
f 58/78/151 57/79/152 59/80/153 60/81/154
f 50/82/155 49/83/156 51/84/157 52/85/158
f 27/51/159 37/75/160 43/86/161 70/52/162
f 42/87/163 35/49/164 40/77/165
f 61/88/166 62/89/167 45/67/168 46/66/169
f 62/89/170 63/90/171 47/68/172 45/67/173
f 63/90/174 64/91/175 48/69/176 47/68/177
f 64/91/178 61/88/179 46/66/180 48/69/181
f 65/92/182 66/93/183 49/83/184 50/82/185
f 66/93/186 67/94/187 51/84/188 49/83/189
f 67/94/190 68/95/191 52/85/192 51/84/193
f 68/95/194 65/92/195 50/82/196 52/85/197
f 35/49/198 42/87/199 44/76/200 36/50/201
f 42/87/202 41/70/203 53/96/204 54/97/205
f 41/70/206 43/86/207 55/98/208 53/96/209
f 43/86/210 44/76/211 56/99/212 55/98/213
f 44/76/214 42/87/215 54/97/216 56/99/217
f 54/97/218 53/96/219 57/79/220 58/78/221
f 53/96/222 55/98/223 59/80/224 57/79/225
f 55/98/226 56/99/227 60/81/228 59/80/229
f 56/99/230 54/97/231 58/78/232 60/81/233
f 38/71/234 41/70/235 62/89/236 61/88/237
f 41/70/238 42/87/239 63/90/240 62/89/241
f 42/87/242 40/77/243 64/91/244 63/90/245
f 40/77/246 38/71/247 61/88/248 64/91/249
f 44/76/250 43/86/251 66/93/252 65/92/253
f 43/86/254 37/75/255 67/94/256 66/93/257
f 37/75/258 39/74/259 68/95/260 67/94/261
f 39/74/262 44/76/263 65/92/264 68/95/265
f 30/100/266 69/73/267 28/72/268
f 70/52/269 43/86/270 41/70/271 69/73/272
f 29/53/273 70/52/274 69/73/275 30/100/276
f 29/53/277 30/100/278 72/55/279 71/54/280
f 30/100/281 32/101/282 73/56/283 72/55/284
f 32/101/285 31/102/286 74/57/287 73/56/288
f 31/102/289 29/53/290 71/54/291 74/57/292
f 31/102/293 32/101/294 76/103/295 75/104/296
f 32/105/297 30/106/298 77/107/299 76/108/300
f 77/107/301 30/106/302 28/72/303
f 29/109/304 31/110/305 75/111/306 78/112/307
f 34/48/308 33/47/309 80/113/310 79/114/311
f 35/49/312 34/48/313 79/114/314 81/115/315
f 33/47/316 36/50/317 82/116/318 80/113/319
f 82/116/320 36/50/321 27/51/322 78/112/323
f 75/104/324 76/103/325 84/117/326 83/118/327
f 76/108/328 77/107/329 85/119/330 84/120/331
f 85/119/332 77/107/333 81/115/334 89/121/335
f 78/112/336 75/111/337 83/122/338 86/123/339
f 79/114/340 80/113/341 88/124/342 87/125/343
f 81/115/344 79/114/345 87/125/346 89/121/347
f 80/113/348 82/116/349 90/126/350 88/124/351
f 86/123/352 90/126/353 82/116/354 78/112/355
f 77/107/356 28/72/357 35/49/358 81/115/359
f 78/112/360 27/51/361 29/109/362
